%TF.GenerationSoftware,KiCad,Pcbnew,(5.1.7)-1*%
%TF.CreationDate,2020-11-06T21:26:38+01:00*%
%TF.ProjectId,twonkie,74776f6e-6b69-4652-9e6b-696361645f70,rev?*%
%TF.SameCoordinates,PX448d510PY20b3950*%
%TF.FileFunction,Legend,Bot*%
%TF.FilePolarity,Positive*%
%FSLAX46Y46*%
G04 Gerber Fmt 4.6, Leading zero omitted, Abs format (unit mm)*
G04 Created by KiCad (PCBNEW (5.1.7)-1) date 2020-11-06 21:26:38*
%MOMM*%
%LPD*%
G01*
G04 APERTURE LIST*
%ADD10C,0.114300*%
%ADD11C,0.127000*%
%ADD12C,0.120000*%
%ADD13C,0.100000*%
G04 APERTURE END LIST*
D10*
X15767492Y-12366171D02*
X15742999Y-12344400D01*
X15696735Y-12322628D01*
X15587877Y-12322628D01*
X15547056Y-12344400D01*
X15528006Y-12366171D01*
X15511677Y-12409714D01*
X15517120Y-12453257D01*
X15547056Y-12518571D01*
X15840970Y-12779828D01*
X15557942Y-12779828D01*
X15217763Y-12322628D02*
X15174220Y-12322628D01*
X15133399Y-12344400D01*
X15114349Y-12366171D01*
X15098020Y-12409714D01*
X15087135Y-12496800D01*
X15100742Y-12605657D01*
X15133399Y-12692742D01*
X15160613Y-12736285D01*
X15185106Y-12758057D01*
X15231370Y-12779828D01*
X15274913Y-12779828D01*
X15315735Y-12758057D01*
X15334785Y-12736285D01*
X15351113Y-12692742D01*
X15361999Y-12605657D01*
X15348392Y-12496800D01*
X15315735Y-12409714D01*
X15288520Y-12366171D01*
X15264027Y-12344400D01*
X15217763Y-12322628D01*
X14896635Y-12366171D02*
X14872142Y-12344400D01*
X14825877Y-12322628D01*
X14717020Y-12322628D01*
X14676199Y-12344400D01*
X14657149Y-12366171D01*
X14640820Y-12409714D01*
X14646263Y-12453257D01*
X14676199Y-12518571D01*
X14970113Y-12779828D01*
X14687085Y-12779828D01*
X14346906Y-12322628D02*
X14303363Y-12322628D01*
X14262542Y-12344400D01*
X14243492Y-12366171D01*
X14227163Y-12409714D01*
X14216277Y-12496800D01*
X14229885Y-12605657D01*
X14262542Y-12692742D01*
X14289756Y-12736285D01*
X14314249Y-12758057D01*
X14360513Y-12779828D01*
X14404056Y-12779828D01*
X14444877Y-12758057D01*
X14463927Y-12736285D01*
X14480256Y-12692742D01*
X14491142Y-12605657D01*
X14477535Y-12496800D01*
X14444877Y-12409714D01*
X14417663Y-12366171D01*
X14393170Y-12344400D01*
X14346906Y-12322628D01*
D11*
X24184428Y-1088571D02*
X24075571Y-1124857D01*
X24039285Y-1161142D01*
X24003000Y-1233714D01*
X24003000Y-1342571D01*
X24039285Y-1415142D01*
X24075571Y-1451428D01*
X24148142Y-1487714D01*
X24438428Y-1487714D01*
X24438428Y-725714D01*
X24184428Y-725714D01*
X24111857Y-762000D01*
X24075571Y-798285D01*
X24039285Y-870857D01*
X24039285Y-943428D01*
X24075571Y-1016000D01*
X24111857Y-1052285D01*
X24184428Y-1088571D01*
X24438428Y-1088571D01*
X23349857Y-1487714D02*
X23349857Y-1088571D01*
X23386142Y-1016000D01*
X23458714Y-979714D01*
X23603857Y-979714D01*
X23676428Y-1016000D01*
X23349857Y-1451428D02*
X23422428Y-1487714D01*
X23603857Y-1487714D01*
X23676428Y-1451428D01*
X23712714Y-1378857D01*
X23712714Y-1306285D01*
X23676428Y-1233714D01*
X23603857Y-1197428D01*
X23422428Y-1197428D01*
X23349857Y-1161142D01*
X23023285Y-1451428D02*
X22950714Y-1487714D01*
X22805571Y-1487714D01*
X22733000Y-1451428D01*
X22696714Y-1378857D01*
X22696714Y-1342571D01*
X22733000Y-1270000D01*
X22805571Y-1233714D01*
X22914428Y-1233714D01*
X22987000Y-1197428D01*
X23023285Y-1124857D01*
X23023285Y-1088571D01*
X22987000Y-1016000D01*
X22914428Y-979714D01*
X22805571Y-979714D01*
X22733000Y-1016000D01*
X22079857Y-1451428D02*
X22152428Y-1487714D01*
X22297571Y-1487714D01*
X22370142Y-1451428D01*
X22406428Y-1378857D01*
X22406428Y-1088571D01*
X22370142Y-1016000D01*
X22297571Y-979714D01*
X22152428Y-979714D01*
X22079857Y-1016000D01*
X22043571Y-1088571D01*
X22043571Y-1161142D01*
X22406428Y-1233714D01*
X21390428Y-1487714D02*
X21390428Y-725714D01*
X21390428Y-1451428D02*
X21463000Y-1487714D01*
X21608142Y-1487714D01*
X21680714Y-1451428D01*
X21717000Y-1415142D01*
X21753285Y-1342571D01*
X21753285Y-1124857D01*
X21717000Y-1052285D01*
X21680714Y-1016000D01*
X21608142Y-979714D01*
X21463000Y-979714D01*
X21390428Y-1016000D01*
X20338142Y-1487714D02*
X20410714Y-1451428D01*
X20447000Y-1415142D01*
X20483285Y-1342571D01*
X20483285Y-1124857D01*
X20447000Y-1052285D01*
X20410714Y-1016000D01*
X20338142Y-979714D01*
X20229285Y-979714D01*
X20156714Y-1016000D01*
X20120428Y-1052285D01*
X20084142Y-1124857D01*
X20084142Y-1342571D01*
X20120428Y-1415142D01*
X20156714Y-1451428D01*
X20229285Y-1487714D01*
X20338142Y-1487714D01*
X19757571Y-979714D02*
X19757571Y-1487714D01*
X19757571Y-1052285D02*
X19721285Y-1016000D01*
X19648714Y-979714D01*
X19539857Y-979714D01*
X19467285Y-1016000D01*
X19431000Y-1088571D01*
X19431000Y-1487714D01*
X18088428Y-762000D02*
X18161000Y-725714D01*
X18269857Y-725714D01*
X18378714Y-762000D01*
X18451285Y-834571D01*
X18487571Y-907142D01*
X18523857Y-1052285D01*
X18523857Y-1161142D01*
X18487571Y-1306285D01*
X18451285Y-1378857D01*
X18378714Y-1451428D01*
X18269857Y-1487714D01*
X18197285Y-1487714D01*
X18088428Y-1451428D01*
X18052142Y-1415142D01*
X18052142Y-1161142D01*
X18197285Y-1161142D01*
X17616714Y-1487714D02*
X17689285Y-1451428D01*
X17725571Y-1415142D01*
X17761857Y-1342571D01*
X17761857Y-1124857D01*
X17725571Y-1052285D01*
X17689285Y-1016000D01*
X17616714Y-979714D01*
X17507857Y-979714D01*
X17435285Y-1016000D01*
X17399000Y-1052285D01*
X17362714Y-1124857D01*
X17362714Y-1342571D01*
X17399000Y-1415142D01*
X17435285Y-1451428D01*
X17507857Y-1487714D01*
X17616714Y-1487714D01*
X16927285Y-1487714D02*
X16999857Y-1451428D01*
X17036142Y-1415142D01*
X17072428Y-1342571D01*
X17072428Y-1124857D01*
X17036142Y-1052285D01*
X16999857Y-1016000D01*
X16927285Y-979714D01*
X16818428Y-979714D01*
X16745857Y-1016000D01*
X16709571Y-1052285D01*
X16673285Y-1124857D01*
X16673285Y-1342571D01*
X16709571Y-1415142D01*
X16745857Y-1451428D01*
X16818428Y-1487714D01*
X16927285Y-1487714D01*
X16020142Y-979714D02*
X16020142Y-1596571D01*
X16056428Y-1669142D01*
X16092714Y-1705428D01*
X16165285Y-1741714D01*
X16274142Y-1741714D01*
X16346714Y-1705428D01*
X16020142Y-1451428D02*
X16092714Y-1487714D01*
X16237857Y-1487714D01*
X16310428Y-1451428D01*
X16346714Y-1415142D01*
X16383000Y-1342571D01*
X16383000Y-1124857D01*
X16346714Y-1052285D01*
X16310428Y-1016000D01*
X16237857Y-979714D01*
X16092714Y-979714D01*
X16020142Y-1016000D01*
X15548428Y-1487714D02*
X15621000Y-1451428D01*
X15657285Y-1378857D01*
X15657285Y-725714D01*
X14967857Y-1451428D02*
X15040428Y-1487714D01*
X15185571Y-1487714D01*
X15258142Y-1451428D01*
X15294428Y-1378857D01*
X15294428Y-1088571D01*
X15258142Y-1016000D01*
X15185571Y-979714D01*
X15040428Y-979714D01*
X14967857Y-1016000D01*
X14931571Y-1088571D01*
X14931571Y-1161142D01*
X15294428Y-1233714D01*
X14568714Y-725714D02*
X14641285Y-870857D01*
X14278428Y-1451428D02*
X14205857Y-1487714D01*
X14060714Y-1487714D01*
X13988142Y-1451428D01*
X13951857Y-1378857D01*
X13951857Y-1342571D01*
X13988142Y-1270000D01*
X14060714Y-1233714D01*
X14169571Y-1233714D01*
X14242142Y-1197428D01*
X14278428Y-1124857D01*
X14278428Y-1088571D01*
X14242142Y-1016000D01*
X14169571Y-979714D01*
X14060714Y-979714D01*
X13988142Y-1016000D01*
X13153571Y-725714D02*
X12718142Y-725714D01*
X12935857Y-1487714D02*
X12935857Y-725714D01*
X12536714Y-979714D02*
X12391571Y-1487714D01*
X12246428Y-1124857D01*
X12101285Y-1487714D01*
X11956142Y-979714D01*
X11665857Y-1487714D02*
X11665857Y-979714D01*
X11665857Y-725714D02*
X11702142Y-762000D01*
X11665857Y-798285D01*
X11629571Y-762000D01*
X11665857Y-725714D01*
X11665857Y-798285D01*
X11303000Y-979714D02*
X11303000Y-1487714D01*
X11303000Y-1052285D02*
X11266714Y-1016000D01*
X11194142Y-979714D01*
X11085285Y-979714D01*
X11012714Y-1016000D01*
X10976428Y-1088571D01*
X10976428Y-1487714D01*
X10613571Y-1487714D02*
X10613571Y-725714D01*
X10541000Y-1197428D02*
X10323285Y-1487714D01*
X10323285Y-979714D02*
X10613571Y-1270000D01*
X9996714Y-1487714D02*
X9996714Y-979714D01*
X9996714Y-725714D02*
X10033000Y-762000D01*
X9996714Y-798285D01*
X9960428Y-762000D01*
X9996714Y-725714D01*
X9996714Y-798285D01*
X9343571Y-1451428D02*
X9416142Y-1487714D01*
X9561285Y-1487714D01*
X9633857Y-1451428D01*
X9670142Y-1378857D01*
X9670142Y-1088571D01*
X9633857Y-1016000D01*
X9561285Y-979714D01*
X9416142Y-979714D01*
X9343571Y-1016000D01*
X9307285Y-1088571D01*
X9307285Y-1161142D01*
X9670142Y-1233714D01*
D12*
X10922000Y-15113000D02*
X10922000Y-12954000D01*
X10795000Y-15113000D02*
X10922000Y-15113000D01*
X10795000Y-16256000D02*
X10795000Y-15113000D01*
X10287000Y-16256000D02*
X10795000Y-16256000D01*
X6921500Y-16256000D02*
X10287000Y-16256000D01*
X11430000Y-24257000D02*
X10985500Y-24574500D01*
X11430000Y-24257000D02*
X10985500Y-23939500D01*
X10287000Y-24257000D02*
X11430000Y-24257000D01*
X10287000Y-16256000D02*
X10287000Y-24257000D01*
D13*
%TO.C,*%
G36*
X8818155Y-1108656D02*
G01*
X8766348Y-1080408D01*
X8699367Y-1050247D01*
X8603665Y-1011073D01*
X8548567Y-986814D01*
X8501796Y-963254D01*
X8436208Y-921916D01*
X8385865Y-873780D01*
X8349018Y-816739D01*
X8323920Y-748682D01*
X8312529Y-692621D01*
X8315233Y-648732D01*
X8340760Y-574384D01*
X8386795Y-515733D01*
X8422955Y-487713D01*
X8477570Y-467027D01*
X8535291Y-456942D01*
X8580024Y-464472D01*
X8646299Y-494829D01*
X8692150Y-539422D01*
X8702471Y-557804D01*
X8707603Y-527305D01*
X8727057Y-468196D01*
X8761323Y-420741D01*
X8806876Y-385845D01*
X8860195Y-364414D01*
X8917754Y-357352D01*
X8976033Y-365564D01*
X9031507Y-389957D01*
X9080654Y-431437D01*
X9115103Y-490848D01*
X9138217Y-568976D01*
X9143352Y-643371D01*
X9134742Y-693381D01*
X9117388Y-743573D01*
X9089753Y-796912D01*
X9050297Y-856366D01*
X8997484Y-924903D01*
X8948866Y-989769D01*
X8905624Y-1054613D01*
X8874106Y-1106956D01*
X8860665Y-1134320D01*
X8854121Y-1138224D01*
X8818155Y-1108656D01*
G37*
%TO.C,dojoe-logo*%
G36*
X20025513Y-12188125D02*
G01*
X20050054Y-12187343D01*
X20073983Y-12185034D01*
X20097226Y-12181257D01*
X20119708Y-12176068D01*
X20141357Y-12169525D01*
X20162098Y-12161685D01*
X20181859Y-12152606D01*
X20200564Y-12142344D01*
X20218142Y-12130958D01*
X20234518Y-12118504D01*
X20249618Y-12105041D01*
X20263369Y-12090624D01*
X20275698Y-12075312D01*
X20286530Y-12059162D01*
X20295793Y-12042232D01*
X20303412Y-12024578D01*
X20309313Y-12006258D01*
X20313424Y-11987330D01*
X20315671Y-11967850D01*
X20315980Y-11947877D01*
X20314277Y-11927467D01*
X20310489Y-11906677D01*
X20304542Y-11885566D01*
X20296363Y-11864191D01*
X20285878Y-11842608D01*
X19954626Y-11224688D01*
X19944153Y-11206803D01*
X19932056Y-11189129D01*
X19918433Y-11171710D01*
X19903380Y-11154591D01*
X19886995Y-11137815D01*
X19869375Y-11121428D01*
X19850616Y-11105472D01*
X19830816Y-11089992D01*
X19810073Y-11075032D01*
X19788482Y-11060637D01*
X19766141Y-11046851D01*
X19743147Y-11033717D01*
X19719598Y-11021280D01*
X19695590Y-11009585D01*
X19671220Y-10998674D01*
X19646586Y-10988594D01*
X19621785Y-10979386D01*
X19596913Y-10971097D01*
X19572067Y-10963769D01*
X19547346Y-10957448D01*
X19522845Y-10952177D01*
X19498663Y-10948000D01*
X19474895Y-10944962D01*
X19451640Y-10943107D01*
X19428994Y-10942479D01*
X18359004Y-10942479D01*
X18359004Y-11076227D01*
X19428994Y-11076227D01*
X19452703Y-11077160D01*
X19477244Y-11079882D01*
X19502427Y-11084277D01*
X19528060Y-11090230D01*
X19553952Y-11097626D01*
X19579914Y-11106349D01*
X19605754Y-11116284D01*
X19631282Y-11127315D01*
X19656306Y-11139327D01*
X19680637Y-11152204D01*
X19704083Y-11165832D01*
X19726454Y-11180094D01*
X19747560Y-11194874D01*
X19767208Y-11210059D01*
X19785209Y-11225532D01*
X19801372Y-11241177D01*
X19815507Y-11256880D01*
X19827422Y-11272525D01*
X19836927Y-11287996D01*
X20168179Y-11905915D01*
X20175750Y-11923446D01*
X20179748Y-11941061D01*
X20180182Y-11958454D01*
X20177063Y-11975316D01*
X20170403Y-11991343D01*
X20160212Y-12006227D01*
X20146500Y-12019663D01*
X20129278Y-12031342D01*
X20108558Y-12040960D01*
X20084350Y-12048210D01*
X20056664Y-12052784D01*
X20025513Y-12054377D01*
X19022397Y-12054377D01*
X18998620Y-12053444D01*
X18974019Y-12050722D01*
X18948784Y-12046327D01*
X18923104Y-12040373D01*
X18897170Y-12032978D01*
X18871173Y-12024254D01*
X18845302Y-12014320D01*
X18819749Y-12003288D01*
X18794703Y-11991276D01*
X18770354Y-11978399D01*
X18746894Y-11964772D01*
X18724512Y-11950510D01*
X18703398Y-11935729D01*
X18683744Y-11920545D01*
X18665739Y-11905072D01*
X18649573Y-11889426D01*
X18635438Y-11873724D01*
X18623522Y-11858079D01*
X18614018Y-11842608D01*
X17588165Y-9930000D01*
X17470466Y-9993310D01*
X18496319Y-11905918D01*
X18506793Y-11923803D01*
X18518890Y-11941477D01*
X18532515Y-11958896D01*
X18547569Y-11976015D01*
X18563956Y-11992791D01*
X18581580Y-12009179D01*
X18600342Y-12025135D01*
X18620147Y-12040614D01*
X18640897Y-12055574D01*
X18662495Y-12069969D01*
X18684845Y-12083756D01*
X18707850Y-12096889D01*
X18731413Y-12109326D01*
X18755436Y-12121022D01*
X18779823Y-12131932D01*
X18804478Y-12142013D01*
X18829302Y-12151220D01*
X18854200Y-12159510D01*
X18879074Y-12166837D01*
X18903828Y-12173159D01*
X18928364Y-12178430D01*
X18952586Y-12182607D01*
X18976396Y-12185645D01*
X18999699Y-12187500D01*
X19022397Y-12188128D01*
X20025513Y-12188125D01*
G37*
G36*
X13019306Y-12196611D02*
G01*
X13046004Y-12195701D01*
X13072044Y-12192998D01*
X13097317Y-12188544D01*
X13121719Y-12182383D01*
X13145142Y-12174555D01*
X13167480Y-12165104D01*
X13188627Y-12154070D01*
X13208475Y-12141497D01*
X13226918Y-12127427D01*
X13243850Y-12111901D01*
X13259163Y-12094962D01*
X13273136Y-12075926D01*
X13284862Y-12055872D01*
X13294283Y-12034930D01*
X13301340Y-12013231D01*
X13305976Y-11990904D01*
X13308131Y-11968081D01*
X13307748Y-11944893D01*
X13304768Y-11921469D01*
X13299133Y-11897941D01*
X13290784Y-11874439D01*
X13279663Y-11851093D01*
X12948412Y-11233174D01*
X12937944Y-11215287D01*
X12925858Y-11197607D01*
X12912253Y-11180179D01*
X12897223Y-11163047D01*
X12880864Y-11146255D01*
X12863273Y-11129849D01*
X12844544Y-11113873D01*
X12824775Y-11098371D01*
X12804060Y-11083387D01*
X12782497Y-11068967D01*
X12760180Y-11055154D01*
X12737205Y-11041994D01*
X12713669Y-11029530D01*
X12689667Y-11017808D01*
X12665296Y-11006872D01*
X12640650Y-10996766D01*
X12615827Y-10987534D01*
X12590921Y-10979222D01*
X12566029Y-10971874D01*
X12541246Y-10965535D01*
X12516669Y-10960248D01*
X12492394Y-10956058D01*
X12468515Y-10953011D01*
X12445130Y-10951149D01*
X12422333Y-10950519D01*
X11419218Y-10950519D01*
X11392518Y-10951430D01*
X11366478Y-10954135D01*
X11341203Y-10958595D01*
X11316802Y-10964768D01*
X11293379Y-10972616D01*
X11271041Y-10982098D01*
X11249896Y-10993174D01*
X11230049Y-11005804D01*
X11211606Y-11019947D01*
X11194675Y-11035563D01*
X11179361Y-11052613D01*
X11165389Y-11071537D01*
X11153663Y-11091502D01*
X11144242Y-11112378D01*
X11137185Y-11134033D01*
X11132549Y-11156338D01*
X11130394Y-11179161D01*
X11130777Y-11202372D01*
X11133757Y-11225840D01*
X11139392Y-11249435D01*
X11147741Y-11273026D01*
X11158861Y-11296482D01*
X11224841Y-11419977D01*
X11235362Y-11437862D01*
X11247495Y-11455536D01*
X11261144Y-11472954D01*
X11276212Y-11490074D01*
X11292606Y-11506849D01*
X11310227Y-11523237D01*
X11328981Y-11539193D01*
X11348772Y-11554673D01*
X11369504Y-11569633D01*
X11391080Y-11584028D01*
X11413406Y-11597814D01*
X11436384Y-11610948D01*
X11459920Y-11623385D01*
X11483917Y-11635080D01*
X11508280Y-11645991D01*
X11532913Y-11656072D01*
X11557719Y-11665279D01*
X11582603Y-11673569D01*
X11607469Y-11680896D01*
X11632222Y-11687218D01*
X11656764Y-11692489D01*
X11681001Y-11696666D01*
X11704837Y-11699704D01*
X11728175Y-11701559D01*
X11750919Y-11702187D01*
X12820909Y-11702187D01*
X12820909Y-11568438D01*
X11750919Y-11568438D01*
X11727147Y-11567509D01*
X11702556Y-11564796D01*
X11677336Y-11560416D01*
X11651678Y-11554481D01*
X11625769Y-11547107D01*
X11599801Y-11538407D01*
X11573962Y-11528495D01*
X11548442Y-11517487D01*
X11523431Y-11505496D01*
X11499118Y-11492636D01*
X11475692Y-11479022D01*
X11453344Y-11464768D01*
X11432262Y-11449988D01*
X11412637Y-11434797D01*
X11394657Y-11419309D01*
X11378512Y-11403638D01*
X11364393Y-11387898D01*
X11352488Y-11372203D01*
X11342986Y-11356669D01*
X11276556Y-11233174D01*
X11267361Y-11210880D01*
X11263990Y-11190063D01*
X11265846Y-11170808D01*
X11272333Y-11153200D01*
X11282856Y-11137324D01*
X11296152Y-11123640D01*
X11313274Y-11111083D01*
X11334184Y-11100260D01*
X11358847Y-11091778D01*
X11387224Y-11086244D01*
X11419279Y-11084264D01*
X12422395Y-11084264D01*
X12446168Y-11085197D01*
X12470760Y-11087919D01*
X12495980Y-11092316D01*
X12521642Y-11098272D01*
X12547554Y-11105671D01*
X12573528Y-11114400D01*
X12599375Y-11124343D01*
X12624906Y-11135385D01*
X12649932Y-11147411D01*
X12674263Y-11160306D01*
X12697710Y-11173955D01*
X12720084Y-11188243D01*
X12741197Y-11203054D01*
X12760858Y-11218274D01*
X12778878Y-11233788D01*
X12795070Y-11249480D01*
X12809243Y-11265236D01*
X12821207Y-11280940D01*
X12830775Y-11296478D01*
X13162025Y-11914398D01*
X13171220Y-11936477D01*
X13174589Y-11957188D01*
X13172732Y-11976444D01*
X13166245Y-11994160D01*
X13155725Y-12010248D01*
X13142433Y-12023742D01*
X13125313Y-12036172D01*
X13104401Y-12046918D01*
X13079737Y-12055361D01*
X13051358Y-12060880D01*
X13019301Y-12062858D01*
X11614939Y-12062858D01*
X11614939Y-12196607D01*
X13019306Y-12196611D01*
G37*
G36*
X15192724Y-12196611D02*
G01*
X15219422Y-12195701D01*
X15245461Y-12192998D01*
X15270735Y-12188544D01*
X15295137Y-12182383D01*
X15318560Y-12174555D01*
X15340898Y-12165104D01*
X15362044Y-12154070D01*
X15381892Y-12141497D01*
X15400335Y-12127427D01*
X15417267Y-12111901D01*
X15432580Y-12094962D01*
X15446553Y-12075926D01*
X15458279Y-12055872D01*
X15467700Y-12034930D01*
X15474758Y-12013231D01*
X15479394Y-11990904D01*
X15481550Y-11968081D01*
X15481168Y-11944893D01*
X15478189Y-11921469D01*
X15472556Y-11897941D01*
X15464209Y-11874439D01*
X15453090Y-11851093D01*
X15121839Y-11233174D01*
X15111369Y-11215287D01*
X15099283Y-11197607D01*
X15085677Y-11180179D01*
X15070646Y-11163047D01*
X15054287Y-11146255D01*
X15036695Y-11129849D01*
X15017967Y-11113873D01*
X14998197Y-11098371D01*
X14977483Y-11083387D01*
X14955919Y-11068967D01*
X14933602Y-11055154D01*
X14910628Y-11041994D01*
X14887092Y-11029530D01*
X14863091Y-11017808D01*
X14838719Y-11006872D01*
X14814074Y-10996766D01*
X14789251Y-10987534D01*
X14764346Y-10979222D01*
X14739454Y-10971874D01*
X14714672Y-10965535D01*
X14690095Y-10960248D01*
X14665820Y-10956058D01*
X14641942Y-10953011D01*
X14618557Y-10951149D01*
X14595760Y-10950519D01*
X13525767Y-10950519D01*
X13525767Y-11084267D01*
X14595757Y-11084267D01*
X14619530Y-11085200D01*
X14644122Y-11087922D01*
X14669342Y-11092319D01*
X14695004Y-11098275D01*
X14720916Y-11105674D01*
X14746890Y-11114403D01*
X14772737Y-11124347D01*
X14798268Y-11135389D01*
X14823294Y-11147415D01*
X14847625Y-11160310D01*
X14871072Y-11173958D01*
X14893446Y-11188246D01*
X14914558Y-11203057D01*
X14934219Y-11218277D01*
X14952240Y-11233791D01*
X14968431Y-11249484D01*
X14982604Y-11265240D01*
X14994569Y-11280944D01*
X15004136Y-11296482D01*
X15335388Y-11914402D01*
X15344579Y-11936481D01*
X15347948Y-11957192D01*
X15346092Y-11976448D01*
X15339607Y-11994164D01*
X15329088Y-12010252D01*
X15315796Y-12023746D01*
X15298676Y-12036176D01*
X15277764Y-12046922D01*
X15253100Y-12055365D01*
X15224721Y-12060884D01*
X15192665Y-12062862D01*
X14189549Y-12062862D01*
X14165777Y-12061933D01*
X14141185Y-12059220D01*
X14115964Y-12054840D01*
X14090303Y-12048905D01*
X14064391Y-12041531D01*
X14038416Y-12032831D01*
X14012569Y-12022919D01*
X13987038Y-12011911D01*
X13962013Y-11999919D01*
X13937682Y-11987060D01*
X13914235Y-11973446D01*
X13891861Y-11959192D01*
X13870748Y-11944412D01*
X13851087Y-11929221D01*
X13833066Y-11913732D01*
X13816875Y-11898061D01*
X13802702Y-11882321D01*
X13790738Y-11866627D01*
X13781169Y-11851093D01*
X13285853Y-10926889D01*
X13167708Y-10990199D01*
X13663470Y-11914404D01*
X13673943Y-11932289D01*
X13686034Y-11949963D01*
X13699650Y-11967381D01*
X13714692Y-11984501D01*
X13731066Y-12001276D01*
X13748673Y-12017664D01*
X13767419Y-12033620D01*
X13787206Y-12049100D01*
X13807938Y-12064059D01*
X13829519Y-12078454D01*
X13851853Y-12092241D01*
X13874842Y-12105374D01*
X13898391Y-12117811D01*
X13922404Y-12129507D01*
X13946783Y-12140417D01*
X13971433Y-12150498D01*
X13996256Y-12159705D01*
X14021158Y-12167995D01*
X14046041Y-12175322D01*
X14070809Y-12181644D01*
X14095365Y-12186915D01*
X14119614Y-12191092D01*
X14143459Y-12194130D01*
X14166803Y-12195985D01*
X14189549Y-12196613D01*
X15192724Y-12196611D01*
G37*
G36*
X17867700Y-12196611D02*
G01*
X17894397Y-12195701D01*
X17920436Y-12192998D01*
X17945710Y-12188544D01*
X17970112Y-12182383D01*
X17993535Y-12174555D01*
X18015873Y-12165104D01*
X18037019Y-12154070D01*
X18056867Y-12141497D01*
X18075310Y-12127427D01*
X18092242Y-12111901D01*
X18107556Y-12094962D01*
X18121530Y-12075926D01*
X18133258Y-12055872D01*
X18142679Y-12034930D01*
X18149737Y-12013231D01*
X18154373Y-11990904D01*
X18156528Y-11968081D01*
X18156145Y-11944893D01*
X18153166Y-11921469D01*
X18147532Y-11897941D01*
X18139184Y-11874439D01*
X18128066Y-11851093D01*
X17796814Y-11233174D01*
X17786345Y-11215287D01*
X17774259Y-11197607D01*
X17760654Y-11180179D01*
X17745624Y-11163047D01*
X17729265Y-11146255D01*
X17711674Y-11129849D01*
X17692945Y-11113873D01*
X17673176Y-11098371D01*
X17652461Y-11083387D01*
X17630898Y-11068967D01*
X17608581Y-11055154D01*
X17585606Y-11041994D01*
X17562070Y-11029530D01*
X17538069Y-11017808D01*
X17513697Y-11006872D01*
X17489051Y-10996766D01*
X17464228Y-10987534D01*
X17439322Y-10979222D01*
X17414430Y-10971874D01*
X17389648Y-10965535D01*
X17365071Y-10960248D01*
X17340795Y-10956058D01*
X17316917Y-10953011D01*
X17293532Y-10951149D01*
X17270736Y-10950519D01*
X16200746Y-10950519D01*
X16200746Y-11084267D01*
X17270736Y-11084267D01*
X17294508Y-11085200D01*
X17319100Y-11087922D01*
X17344320Y-11092319D01*
X17369982Y-11098275D01*
X17395894Y-11105674D01*
X17421868Y-11114403D01*
X17447715Y-11124347D01*
X17473246Y-11135389D01*
X17498272Y-11147415D01*
X17522603Y-11160310D01*
X17546050Y-11173958D01*
X17568424Y-11188246D01*
X17589536Y-11203057D01*
X17609197Y-11218277D01*
X17627218Y-11233791D01*
X17643409Y-11249484D01*
X17657582Y-11265240D01*
X17669547Y-11280944D01*
X17679115Y-11296482D01*
X18010367Y-11914402D01*
X18019561Y-11936481D01*
X18022931Y-11957192D01*
X18021073Y-11976448D01*
X18014586Y-11994164D01*
X18004067Y-12010252D01*
X17990771Y-12023746D01*
X17973649Y-12036176D01*
X17952739Y-12046922D01*
X17928076Y-12055365D01*
X17899698Y-12060884D01*
X17867643Y-12062862D01*
X16864527Y-12062862D01*
X16840754Y-12061933D01*
X16816162Y-12059220D01*
X16790942Y-12054840D01*
X16765280Y-12048905D01*
X16739368Y-12041531D01*
X16713394Y-12032831D01*
X16687547Y-12022919D01*
X16662016Y-12011911D01*
X16636990Y-11999919D01*
X16612659Y-11987060D01*
X16589212Y-11973446D01*
X16566838Y-11959192D01*
X16545726Y-11944412D01*
X16526065Y-11929221D01*
X16508044Y-11913732D01*
X16491853Y-11898061D01*
X16477680Y-11882321D01*
X16465715Y-11866627D01*
X16456148Y-11851093D01*
X15960831Y-10926889D01*
X15842687Y-10990199D01*
X16338449Y-11914404D01*
X16348921Y-11932289D01*
X16361012Y-11949963D01*
X16374628Y-11967381D01*
X16389670Y-11984501D01*
X16406044Y-12001276D01*
X16423651Y-12017664D01*
X16442397Y-12033620D01*
X16462184Y-12049100D01*
X16482916Y-12064059D01*
X16504497Y-12078454D01*
X16526830Y-12092241D01*
X16549820Y-12105374D01*
X16573369Y-12117811D01*
X16597381Y-12129507D01*
X16621761Y-12140417D01*
X16646410Y-12150498D01*
X16671234Y-12159705D01*
X16696136Y-12167995D01*
X16721019Y-12175322D01*
X16745786Y-12181644D01*
X16770343Y-12186915D01*
X16794591Y-12191092D01*
X16818436Y-12194130D01*
X16841780Y-12195985D01*
X16864527Y-12196613D01*
X17867700Y-12196611D01*
G37*
G36*
X17592178Y-12930000D02*
G01*
X17616719Y-12929216D01*
X17640648Y-12926901D01*
X17663891Y-12923114D01*
X17686373Y-12917912D01*
X17708021Y-12911354D01*
X17728763Y-12903495D01*
X17748523Y-12894395D01*
X17767228Y-12884111D01*
X17784806Y-12872701D01*
X17801182Y-12860222D01*
X17816282Y-12846732D01*
X17830033Y-12832289D01*
X17842362Y-12816951D01*
X17853194Y-12800774D01*
X17862456Y-12783818D01*
X17870075Y-12766139D01*
X17875977Y-12747795D01*
X17880088Y-12728844D01*
X17882335Y-12709344D01*
X17882644Y-12689352D01*
X17880941Y-12668926D01*
X17877153Y-12648124D01*
X17871206Y-12627003D01*
X17863027Y-12605622D01*
X17852542Y-12584037D01*
X17850342Y-12580437D01*
X17737547Y-12399876D01*
X17624306Y-12471206D01*
X17735318Y-12648201D01*
X17744718Y-12673611D01*
X17746394Y-12692103D01*
X17744010Y-12710158D01*
X17737679Y-12727422D01*
X17727512Y-12743539D01*
X17713621Y-12758152D01*
X17696119Y-12770906D01*
X17675118Y-12781445D01*
X17650731Y-12789413D01*
X17623069Y-12794455D01*
X17592245Y-12796215D01*
X16756315Y-12796215D01*
X16732542Y-12795282D01*
X16707950Y-12792560D01*
X16682729Y-12788163D01*
X16657068Y-12782207D01*
X16631156Y-12774808D01*
X16605181Y-12766079D01*
X16579334Y-12756135D01*
X16553803Y-12745093D01*
X16528778Y-12733067D01*
X16504447Y-12720172D01*
X16481000Y-12706524D01*
X16458626Y-12692236D01*
X16437513Y-12677425D01*
X16417852Y-12662205D01*
X16399831Y-12646691D01*
X16383640Y-12630998D01*
X16369467Y-12615242D01*
X16357503Y-12599538D01*
X16347935Y-12584000D01*
X15454938Y-10918828D01*
X15337240Y-10982138D01*
X16230237Y-12647309D01*
X16240709Y-12665196D01*
X16252800Y-12682876D01*
X16266416Y-12700304D01*
X16281458Y-12717437D01*
X16297832Y-12734228D01*
X16315439Y-12750634D01*
X16334185Y-12766611D01*
X16353972Y-12782113D01*
X16374704Y-12797097D01*
X16396285Y-12811517D01*
X16418618Y-12825330D01*
X16441608Y-12838490D01*
X16465157Y-12850954D01*
X16489169Y-12862676D01*
X16513549Y-12873612D01*
X16538198Y-12883718D01*
X16563022Y-12892950D01*
X16587924Y-12901262D01*
X16612807Y-12908610D01*
X16637574Y-12914949D01*
X16662131Y-12920236D01*
X16686379Y-12924426D01*
X16710224Y-12927473D01*
X16733568Y-12929335D01*
X16756315Y-12929965D01*
X17592178Y-12930000D01*
G37*
D12*
%TO.C,TP1*%
X21020000Y-13462000D02*
G75*
G03*
X21020000Y-13462000I-700000J0D01*
G01*
%TO.C,U4*%
X12715000Y-14487500D02*
X12715000Y-13197500D01*
X12265000Y-14487500D02*
X12715000Y-14487500D01*
X12265000Y-14937500D02*
X12265000Y-14487500D01*
X12265000Y-21707500D02*
X12715000Y-21707500D01*
X12265000Y-21257500D02*
X12265000Y-21707500D01*
X19485000Y-14487500D02*
X19035000Y-14487500D01*
X19485000Y-14937500D02*
X19485000Y-14487500D01*
X19485000Y-21707500D02*
X19035000Y-21707500D01*
X19485000Y-21257500D02*
X19485000Y-21707500D01*
%TO.C,TP2*%
X18099000Y-24257000D02*
G75*
G03*
X18099000Y-24257000I-700000J0D01*
G01*
%TO.C,TP3*%
X16067000Y-24257000D02*
G75*
G03*
X16067000Y-24257000I-700000J0D01*
G01*
%TO.C,C9*%
X14489165Y-8530000D02*
X14720835Y-8530000D01*
X14489165Y-9250000D02*
X14720835Y-9250000D01*
%TO.C,U1*%
X14478000Y-8323000D02*
X12278000Y-8323000D01*
X14478000Y-8323000D02*
X16678000Y-8323000D01*
X14478000Y-2853000D02*
X12278000Y-2853000D01*
X14478000Y-2853000D02*
X18078000Y-2853000D01*
%TO.C,U3*%
X6944000Y-17134000D02*
X6944000Y-19584000D01*
X3724000Y-18934000D02*
X3724000Y-17134000D01*
%TO.C,R4*%
X19725621Y-24637000D02*
X19390379Y-24637000D01*
X19725621Y-23877000D02*
X19390379Y-23877000D01*
%TO.C,R3*%
X21972000Y-20614621D02*
X21972000Y-20279379D01*
X22732000Y-20614621D02*
X22732000Y-20279379D01*
%TO.C,R2*%
X24170621Y-21462000D02*
X23835379Y-21462000D01*
X24170621Y-20702000D02*
X23835379Y-20702000D01*
%TO.C,FB1*%
X4164200Y-22077000D02*
X3963800Y-22077000D01*
X4164200Y-21357000D02*
X3963800Y-21357000D01*
%TO.C,DS1*%
X24937000Y-24995000D02*
X21037000Y-24995000D01*
X24937000Y-21995000D02*
X21037000Y-21995000D01*
X24937000Y-22795000D02*
X24937000Y-21995000D01*
%TO.C,D1*%
X3084000Y-24622000D02*
X6984000Y-24622000D01*
X3084000Y-22622000D02*
X6984000Y-22622000D01*
X3084000Y-24622000D02*
X3084000Y-22622000D01*
%TO.C,C8*%
X11917000Y-22553665D02*
X11917000Y-22785335D01*
X11197000Y-22553665D02*
X11197000Y-22785335D01*
%TO.C,C7*%
X13260335Y-24744000D02*
X13028665Y-24744000D01*
X13260335Y-24024000D02*
X13028665Y-24024000D01*
%TO.C,C3*%
X20553000Y-22363165D02*
X20553000Y-22594835D01*
X19833000Y-22363165D02*
X19833000Y-22594835D01*
%TO.C,C1*%
X6488165Y-21357000D02*
X6719835Y-21357000D01*
X6488165Y-22077000D02*
X6719835Y-22077000D01*
%TO.C,TP1*%
D11*
X22932571Y-13933714D02*
X22497142Y-13933714D01*
X22714857Y-14695714D02*
X22714857Y-13933714D01*
X22243142Y-14695714D02*
X22243142Y-13933714D01*
X21952857Y-13933714D01*
X21880285Y-13970000D01*
X21844000Y-14006285D01*
X21807714Y-14078857D01*
X21807714Y-14187714D01*
X21844000Y-14260285D01*
X21880285Y-14296571D01*
X21952857Y-14332857D01*
X22243142Y-14332857D01*
X21082000Y-14695714D02*
X21517428Y-14695714D01*
X21299714Y-14695714D02*
X21299714Y-13933714D01*
X21372285Y-14042571D01*
X21444857Y-14115142D01*
X21517428Y-14151428D01*
%TO.C,U4*%
X12391571Y-13425714D02*
X12391571Y-14042571D01*
X12355285Y-14115142D01*
X12319000Y-14151428D01*
X12246428Y-14187714D01*
X12101285Y-14187714D01*
X12028714Y-14151428D01*
X11992428Y-14115142D01*
X11956142Y-14042571D01*
X11956142Y-13425714D01*
X11266714Y-13679714D02*
X11266714Y-14187714D01*
X11448142Y-13389428D02*
X11629571Y-13933714D01*
X11157857Y-13933714D01*
%TO.C,TP2*%
X10232571Y-15330714D02*
X9797142Y-15330714D01*
X10014857Y-16092714D02*
X10014857Y-15330714D01*
X9543142Y-16092714D02*
X9543142Y-15330714D01*
X9252857Y-15330714D01*
X9180285Y-15367000D01*
X9144000Y-15403285D01*
X9107714Y-15475857D01*
X9107714Y-15584714D01*
X9144000Y-15657285D01*
X9180285Y-15693571D01*
X9252857Y-15729857D01*
X9543142Y-15729857D01*
X8817428Y-15403285D02*
X8781142Y-15367000D01*
X8708571Y-15330714D01*
X8527142Y-15330714D01*
X8454571Y-15367000D01*
X8418285Y-15403285D01*
X8382000Y-15475857D01*
X8382000Y-15548428D01*
X8418285Y-15657285D01*
X8853714Y-16092714D01*
X8382000Y-16092714D01*
%TO.C,TP3*%
X9153071Y-14060714D02*
X8717642Y-14060714D01*
X8935357Y-14822714D02*
X8935357Y-14060714D01*
X8463642Y-14822714D02*
X8463642Y-14060714D01*
X8173357Y-14060714D01*
X8100785Y-14097000D01*
X8064500Y-14133285D01*
X8028214Y-14205857D01*
X8028214Y-14314714D01*
X8064500Y-14387285D01*
X8100785Y-14423571D01*
X8173357Y-14459857D01*
X8463642Y-14459857D01*
X7774214Y-14060714D02*
X7302500Y-14060714D01*
X7556500Y-14351000D01*
X7447642Y-14351000D01*
X7375071Y-14387285D01*
X7338785Y-14423571D01*
X7302500Y-14496142D01*
X7302500Y-14677571D01*
X7338785Y-14750142D01*
X7375071Y-14786428D01*
X7447642Y-14822714D01*
X7665357Y-14822714D01*
X7737928Y-14786428D01*
X7774214Y-14750142D01*
%TO.C,C9*%
X12954000Y-9289142D02*
X12990285Y-9325428D01*
X13099142Y-9361714D01*
X13171714Y-9361714D01*
X13280571Y-9325428D01*
X13353142Y-9252857D01*
X13389428Y-9180285D01*
X13425714Y-9035142D01*
X13425714Y-8926285D01*
X13389428Y-8781142D01*
X13353142Y-8708571D01*
X13280571Y-8636000D01*
X13171714Y-8599714D01*
X13099142Y-8599714D01*
X12990285Y-8636000D01*
X12954000Y-8672285D01*
X12591142Y-9361714D02*
X12446000Y-9361714D01*
X12373428Y-9325428D01*
X12337142Y-9289142D01*
X12264571Y-9180285D01*
X12228285Y-9035142D01*
X12228285Y-8744857D01*
X12264571Y-8672285D01*
X12300857Y-8636000D01*
X12373428Y-8599714D01*
X12518571Y-8599714D01*
X12591142Y-8636000D01*
X12627428Y-8672285D01*
X12663714Y-8744857D01*
X12663714Y-8926285D01*
X12627428Y-8998857D01*
X12591142Y-9035142D01*
X12518571Y-9071428D01*
X12373428Y-9071428D01*
X12300857Y-9035142D01*
X12264571Y-8998857D01*
X12228285Y-8926285D01*
%TO.C,U1*%
X17979571Y-1868714D02*
X17979571Y-2485571D01*
X17943285Y-2558142D01*
X17907000Y-2594428D01*
X17834428Y-2630714D01*
X17689285Y-2630714D01*
X17616714Y-2594428D01*
X17580428Y-2558142D01*
X17544142Y-2485571D01*
X17544142Y-1868714D01*
X16782142Y-2630714D02*
X17217571Y-2630714D01*
X16999857Y-2630714D02*
X16999857Y-1868714D01*
X17072428Y-1977571D01*
X17145000Y-2050142D01*
X17217571Y-2086428D01*
%TO.C,U3*%
X7139214Y-18723428D02*
X7756071Y-18723428D01*
X7828642Y-18759714D01*
X7864928Y-18796000D01*
X7901214Y-18868571D01*
X7901214Y-19013714D01*
X7864928Y-19086285D01*
X7828642Y-19122571D01*
X7756071Y-19158857D01*
X7139214Y-19158857D01*
X7139214Y-19449142D02*
X7139214Y-19920857D01*
X7429500Y-19666857D01*
X7429500Y-19775714D01*
X7465785Y-19848285D01*
X7502071Y-19884571D01*
X7574642Y-19920857D01*
X7756071Y-19920857D01*
X7828642Y-19884571D01*
X7864928Y-19848285D01*
X7901214Y-19775714D01*
X7901214Y-19558000D01*
X7864928Y-19485428D01*
X7828642Y-19449142D01*
%TO.C,R4*%
X10287000Y-14822714D02*
X10541000Y-14459857D01*
X10722428Y-14822714D02*
X10722428Y-14060714D01*
X10432142Y-14060714D01*
X10359571Y-14097000D01*
X10323285Y-14133285D01*
X10287000Y-14205857D01*
X10287000Y-14314714D01*
X10323285Y-14387285D01*
X10359571Y-14423571D01*
X10432142Y-14459857D01*
X10722428Y-14459857D01*
X9633857Y-14314714D02*
X9633857Y-14822714D01*
X9815285Y-14024428D02*
X9996714Y-14568714D01*
X9525000Y-14568714D01*
%TO.C,R3*%
X22696714Y-18415000D02*
X22333857Y-18161000D01*
X22696714Y-17979571D02*
X21934714Y-17979571D01*
X21934714Y-18269857D01*
X21971000Y-18342428D01*
X22007285Y-18378714D01*
X22079857Y-18415000D01*
X22188714Y-18415000D01*
X22261285Y-18378714D01*
X22297571Y-18342428D01*
X22333857Y-18269857D01*
X22333857Y-17979571D01*
X21934714Y-18669000D02*
X21934714Y-19140714D01*
X22225000Y-18886714D01*
X22225000Y-18995571D01*
X22261285Y-19068142D01*
X22297571Y-19104428D01*
X22370142Y-19140714D01*
X22551571Y-19140714D01*
X22624142Y-19104428D01*
X22660428Y-19068142D01*
X22696714Y-18995571D01*
X22696714Y-18777857D01*
X22660428Y-18705285D01*
X22624142Y-18669000D01*
%TO.C,R2*%
X24130000Y-20410714D02*
X24384000Y-20047857D01*
X24565428Y-20410714D02*
X24565428Y-19648714D01*
X24275142Y-19648714D01*
X24202571Y-19685000D01*
X24166285Y-19721285D01*
X24130000Y-19793857D01*
X24130000Y-19902714D01*
X24166285Y-19975285D01*
X24202571Y-20011571D01*
X24275142Y-20047857D01*
X24565428Y-20047857D01*
X23839714Y-19721285D02*
X23803428Y-19685000D01*
X23730857Y-19648714D01*
X23549428Y-19648714D01*
X23476857Y-19685000D01*
X23440571Y-19721285D01*
X23404285Y-19793857D01*
X23404285Y-19866428D01*
X23440571Y-19975285D01*
X23876000Y-20410714D01*
X23404285Y-20410714D01*
%TO.C,FB1*%
X2413000Y-21662571D02*
X2667000Y-21662571D01*
X2667000Y-22061714D02*
X2667000Y-21299714D01*
X2304142Y-21299714D01*
X1759857Y-21662571D02*
X1651000Y-21698857D01*
X1614714Y-21735142D01*
X1578428Y-21807714D01*
X1578428Y-21916571D01*
X1614714Y-21989142D01*
X1651000Y-22025428D01*
X1723571Y-22061714D01*
X2013857Y-22061714D01*
X2013857Y-21299714D01*
X1759857Y-21299714D01*
X1687285Y-21336000D01*
X1651000Y-21372285D01*
X1614714Y-21444857D01*
X1614714Y-21517428D01*
X1651000Y-21590000D01*
X1687285Y-21626285D01*
X1759857Y-21662571D01*
X2013857Y-21662571D01*
X852714Y-22061714D02*
X1288142Y-22061714D01*
X1070428Y-22061714D02*
X1070428Y-21299714D01*
X1143000Y-21408571D01*
X1215571Y-21481142D01*
X1288142Y-21517428D01*
%TO.C,DS1*%
X23331714Y-22633214D02*
X22569714Y-22633214D01*
X22569714Y-22814642D01*
X22606000Y-22923500D01*
X22678571Y-22996071D01*
X22751142Y-23032357D01*
X22896285Y-23068642D01*
X23005142Y-23068642D01*
X23150285Y-23032357D01*
X23222857Y-22996071D01*
X23295428Y-22923500D01*
X23331714Y-22814642D01*
X23331714Y-22633214D01*
X23295428Y-23358928D02*
X23331714Y-23467785D01*
X23331714Y-23649214D01*
X23295428Y-23721785D01*
X23259142Y-23758071D01*
X23186571Y-23794357D01*
X23114000Y-23794357D01*
X23041428Y-23758071D01*
X23005142Y-23721785D01*
X22968857Y-23649214D01*
X22932571Y-23504071D01*
X22896285Y-23431500D01*
X22860000Y-23395214D01*
X22787428Y-23358928D01*
X22714857Y-23358928D01*
X22642285Y-23395214D01*
X22606000Y-23431500D01*
X22569714Y-23504071D01*
X22569714Y-23685500D01*
X22606000Y-23794357D01*
X23331714Y-24520071D02*
X23331714Y-24084642D01*
X23331714Y-24302357D02*
X22569714Y-24302357D01*
X22678571Y-24229785D01*
X22751142Y-24157214D01*
X22787428Y-24084642D01*
%TO.C,D1*%
X2911928Y-25046214D02*
X2911928Y-24284214D01*
X2730500Y-24284214D01*
X2621642Y-24320500D01*
X2549071Y-24393071D01*
X2512785Y-24465642D01*
X2476500Y-24610785D01*
X2476500Y-24719642D01*
X2512785Y-24864785D01*
X2549071Y-24937357D01*
X2621642Y-25009928D01*
X2730500Y-25046214D01*
X2911928Y-25046214D01*
X1750785Y-25046214D02*
X2186214Y-25046214D01*
X1968500Y-25046214D02*
X1968500Y-24284214D01*
X2041071Y-24393071D01*
X2113642Y-24465642D01*
X2186214Y-24501928D01*
%TO.C,C8*%
X6876142Y-13779500D02*
X6912428Y-13743214D01*
X6948714Y-13634357D01*
X6948714Y-13561785D01*
X6912428Y-13452928D01*
X6839857Y-13380357D01*
X6767285Y-13344071D01*
X6622142Y-13307785D01*
X6513285Y-13307785D01*
X6368142Y-13344071D01*
X6295571Y-13380357D01*
X6223000Y-13452928D01*
X6186714Y-13561785D01*
X6186714Y-13634357D01*
X6223000Y-13743214D01*
X6259285Y-13779500D01*
X6513285Y-14214928D02*
X6477000Y-14142357D01*
X6440714Y-14106071D01*
X6368142Y-14069785D01*
X6331857Y-14069785D01*
X6259285Y-14106071D01*
X6223000Y-14142357D01*
X6186714Y-14214928D01*
X6186714Y-14360071D01*
X6223000Y-14432642D01*
X6259285Y-14468928D01*
X6331857Y-14505214D01*
X6368142Y-14505214D01*
X6440714Y-14468928D01*
X6477000Y-14432642D01*
X6513285Y-14360071D01*
X6513285Y-14214928D01*
X6549571Y-14142357D01*
X6585857Y-14106071D01*
X6658428Y-14069785D01*
X6803571Y-14069785D01*
X6876142Y-14106071D01*
X6912428Y-14142357D01*
X6948714Y-14214928D01*
X6948714Y-14360071D01*
X6912428Y-14432642D01*
X6876142Y-14468928D01*
X6803571Y-14505214D01*
X6658428Y-14505214D01*
X6585857Y-14468928D01*
X6549571Y-14432642D01*
X6513285Y-14360071D01*
%TO.C,C7*%
X7429500Y-16020142D02*
X7465785Y-16056428D01*
X7574642Y-16092714D01*
X7647214Y-16092714D01*
X7756071Y-16056428D01*
X7828642Y-15983857D01*
X7864928Y-15911285D01*
X7901214Y-15766142D01*
X7901214Y-15657285D01*
X7864928Y-15512142D01*
X7828642Y-15439571D01*
X7756071Y-15367000D01*
X7647214Y-15330714D01*
X7574642Y-15330714D01*
X7465785Y-15367000D01*
X7429500Y-15403285D01*
X7175500Y-15330714D02*
X6667500Y-15330714D01*
X6994071Y-16092714D01*
%TO.C,C3*%
X10368642Y-13081000D02*
X10404928Y-13044714D01*
X10441214Y-12935857D01*
X10441214Y-12863285D01*
X10404928Y-12754428D01*
X10332357Y-12681857D01*
X10259785Y-12645571D01*
X10114642Y-12609285D01*
X10005785Y-12609285D01*
X9860642Y-12645571D01*
X9788071Y-12681857D01*
X9715500Y-12754428D01*
X9679214Y-12863285D01*
X9679214Y-12935857D01*
X9715500Y-13044714D01*
X9751785Y-13081000D01*
X9679214Y-13335000D02*
X9679214Y-13806714D01*
X9969500Y-13552714D01*
X9969500Y-13661571D01*
X10005785Y-13734142D01*
X10042071Y-13770428D01*
X10114642Y-13806714D01*
X10296071Y-13806714D01*
X10368642Y-13770428D01*
X10404928Y-13734142D01*
X10441214Y-13661571D01*
X10441214Y-13443857D01*
X10404928Y-13371285D01*
X10368642Y-13335000D01*
%TO.C,C1*%
X8572500Y-22052642D02*
X8608785Y-22088928D01*
X8717642Y-22125214D01*
X8790214Y-22125214D01*
X8899071Y-22088928D01*
X8971642Y-22016357D01*
X9007928Y-21943785D01*
X9044214Y-21798642D01*
X9044214Y-21689785D01*
X9007928Y-21544642D01*
X8971642Y-21472071D01*
X8899071Y-21399500D01*
X8790214Y-21363214D01*
X8717642Y-21363214D01*
X8608785Y-21399500D01*
X8572500Y-21435785D01*
X7846785Y-22125214D02*
X8282214Y-22125214D01*
X8064500Y-22125214D02*
X8064500Y-21363214D01*
X8137071Y-21472071D01*
X8209642Y-21544642D01*
X8282214Y-21580928D01*
%TD*%
M02*
