%TF.GenerationSoftware,KiCad,Pcbnew,(5.1.7)-1*%
%TF.CreationDate,2020-11-06T21:26:38+01:00*%
%TF.ProjectId,twonkie,74776f6e-6b69-4652-9e6b-696361645f70,rev?*%
%TF.SameCoordinates,PX448d510PY20b3950*%
%TF.FileFunction,Paste,Bot*%
%TF.FilePolarity,Positive*%
%FSLAX46Y46*%
G04 Gerber Fmt 4.6, Leading zero omitted, Abs format (unit mm)*
G04 Created by KiCad (PCBNEW (5.1.7)-1) date 2020-11-06 21:26:38*
%MOMM*%
%LPD*%
G01*
G04 APERTURE LIST*
%ADD10R,4.000000X1.500000*%
%ADD11R,1.000000X0.300000*%
%ADD12R,1.000000X1.000000*%
%ADD13R,1.500000X0.550000*%
%ADD14R,1.500000X0.785000*%
%ADD15R,1.550000X0.260000*%
%ADD16R,1.550000X0.410000*%
%ADD17R,2.050000X0.360000*%
%ADD18R,0.650000X1.560000*%
%ADD19R,1.000000X0.800000*%
%ADD20R,0.900000X1.200000*%
G04 APERTURE END LIST*
%TO.C,U4*%
G36*
G01*
X12062500Y-15722500D02*
X12812500Y-15722500D01*
G75*
G02*
X12875000Y-15785000I0J-62500D01*
G01*
X12875000Y-15910000D01*
G75*
G02*
X12812500Y-15972500I-62500J0D01*
G01*
X12062500Y-15972500D01*
G75*
G02*
X12000000Y-15910000I0J62500D01*
G01*
X12000000Y-15785000D01*
G75*
G02*
X12062500Y-15722500I62500J0D01*
G01*
G37*
G36*
G01*
X12062500Y-16222500D02*
X12812500Y-16222500D01*
G75*
G02*
X12875000Y-16285000I0J-62500D01*
G01*
X12875000Y-16410000D01*
G75*
G02*
X12812500Y-16472500I-62500J0D01*
G01*
X12062500Y-16472500D01*
G75*
G02*
X12000000Y-16410000I0J62500D01*
G01*
X12000000Y-16285000D01*
G75*
G02*
X12062500Y-16222500I62500J0D01*
G01*
G37*
G36*
G01*
X12062500Y-17222500D02*
X12812500Y-17222500D01*
G75*
G02*
X12875000Y-17285000I0J-62500D01*
G01*
X12875000Y-17410000D01*
G75*
G02*
X12812500Y-17472500I-62500J0D01*
G01*
X12062500Y-17472500D01*
G75*
G02*
X12000000Y-17410000I0J62500D01*
G01*
X12000000Y-17285000D01*
G75*
G02*
X12062500Y-17222500I62500J0D01*
G01*
G37*
G36*
G01*
X12062500Y-17722500D02*
X12812500Y-17722500D01*
G75*
G02*
X12875000Y-17785000I0J-62500D01*
G01*
X12875000Y-17910000D01*
G75*
G02*
X12812500Y-17972500I-62500J0D01*
G01*
X12062500Y-17972500D01*
G75*
G02*
X12000000Y-17910000I0J62500D01*
G01*
X12000000Y-17785000D01*
G75*
G02*
X12062500Y-17722500I62500J0D01*
G01*
G37*
G36*
G01*
X12062500Y-18222500D02*
X12812500Y-18222500D01*
G75*
G02*
X12875000Y-18285000I0J-62500D01*
G01*
X12875000Y-18410000D01*
G75*
G02*
X12812500Y-18472500I-62500J0D01*
G01*
X12062500Y-18472500D01*
G75*
G02*
X12000000Y-18410000I0J62500D01*
G01*
X12000000Y-18285000D01*
G75*
G02*
X12062500Y-18222500I62500J0D01*
G01*
G37*
G36*
G01*
X12062500Y-15222500D02*
X12812500Y-15222500D01*
G75*
G02*
X12875000Y-15285000I0J-62500D01*
G01*
X12875000Y-15410000D01*
G75*
G02*
X12812500Y-15472500I-62500J0D01*
G01*
X12062500Y-15472500D01*
G75*
G02*
X12000000Y-15410000I0J62500D01*
G01*
X12000000Y-15285000D01*
G75*
G02*
X12062500Y-15222500I62500J0D01*
G01*
G37*
G36*
G01*
X12062500Y-16722500D02*
X12812500Y-16722500D01*
G75*
G02*
X12875000Y-16785000I0J-62500D01*
G01*
X12875000Y-16910000D01*
G75*
G02*
X12812500Y-16972500I-62500J0D01*
G01*
X12062500Y-16972500D01*
G75*
G02*
X12000000Y-16910000I0J62500D01*
G01*
X12000000Y-16785000D01*
G75*
G02*
X12062500Y-16722500I62500J0D01*
G01*
G37*
G36*
G01*
X18937500Y-19722500D02*
X19687500Y-19722500D01*
G75*
G02*
X19750000Y-19785000I0J-62500D01*
G01*
X19750000Y-19910000D01*
G75*
G02*
X19687500Y-19972500I-62500J0D01*
G01*
X18937500Y-19972500D01*
G75*
G02*
X18875000Y-19910000I0J62500D01*
G01*
X18875000Y-19785000D01*
G75*
G02*
X18937500Y-19722500I62500J0D01*
G01*
G37*
G36*
G01*
X14562500Y-14222500D02*
X14687500Y-14222500D01*
G75*
G02*
X14750000Y-14285000I0J-62500D01*
G01*
X14750000Y-15035000D01*
G75*
G02*
X14687500Y-15097500I-62500J0D01*
G01*
X14562500Y-15097500D01*
G75*
G02*
X14500000Y-15035000I0J62500D01*
G01*
X14500000Y-14285000D01*
G75*
G02*
X14562500Y-14222500I62500J0D01*
G01*
G37*
G36*
G01*
X17062500Y-14222500D02*
X17187500Y-14222500D01*
G75*
G02*
X17250000Y-14285000I0J-62500D01*
G01*
X17250000Y-15035000D01*
G75*
G02*
X17187500Y-15097500I-62500J0D01*
G01*
X17062500Y-15097500D01*
G75*
G02*
X17000000Y-15035000I0J62500D01*
G01*
X17000000Y-14285000D01*
G75*
G02*
X17062500Y-14222500I62500J0D01*
G01*
G37*
G36*
G01*
X17562500Y-14222500D02*
X17687500Y-14222500D01*
G75*
G02*
X17750000Y-14285000I0J-62500D01*
G01*
X17750000Y-15035000D01*
G75*
G02*
X17687500Y-15097500I-62500J0D01*
G01*
X17562500Y-15097500D01*
G75*
G02*
X17500000Y-15035000I0J62500D01*
G01*
X17500000Y-14285000D01*
G75*
G02*
X17562500Y-14222500I62500J0D01*
G01*
G37*
G36*
G01*
X16062500Y-14222500D02*
X16187500Y-14222500D01*
G75*
G02*
X16250000Y-14285000I0J-62500D01*
G01*
X16250000Y-15035000D01*
G75*
G02*
X16187500Y-15097500I-62500J0D01*
G01*
X16062500Y-15097500D01*
G75*
G02*
X16000000Y-15035000I0J62500D01*
G01*
X16000000Y-14285000D01*
G75*
G02*
X16062500Y-14222500I62500J0D01*
G01*
G37*
G36*
G01*
X13062500Y-14222500D02*
X13187500Y-14222500D01*
G75*
G02*
X13250000Y-14285000I0J-62500D01*
G01*
X13250000Y-15035000D01*
G75*
G02*
X13187500Y-15097500I-62500J0D01*
G01*
X13062500Y-15097500D01*
G75*
G02*
X13000000Y-15035000I0J62500D01*
G01*
X13000000Y-14285000D01*
G75*
G02*
X13062500Y-14222500I62500J0D01*
G01*
G37*
G36*
G01*
X16562500Y-21097500D02*
X16687500Y-21097500D01*
G75*
G02*
X16750000Y-21160000I0J-62500D01*
G01*
X16750000Y-21910000D01*
G75*
G02*
X16687500Y-21972500I-62500J0D01*
G01*
X16562500Y-21972500D01*
G75*
G02*
X16500000Y-21910000I0J62500D01*
G01*
X16500000Y-21160000D01*
G75*
G02*
X16562500Y-21097500I62500J0D01*
G01*
G37*
G36*
G01*
X17062500Y-21097500D02*
X17187500Y-21097500D01*
G75*
G02*
X17250000Y-21160000I0J-62500D01*
G01*
X17250000Y-21910000D01*
G75*
G02*
X17187500Y-21972500I-62500J0D01*
G01*
X17062500Y-21972500D01*
G75*
G02*
X17000000Y-21910000I0J62500D01*
G01*
X17000000Y-21160000D01*
G75*
G02*
X17062500Y-21097500I62500J0D01*
G01*
G37*
G36*
G01*
X16562500Y-14222500D02*
X16687500Y-14222500D01*
G75*
G02*
X16750000Y-14285000I0J-62500D01*
G01*
X16750000Y-15035000D01*
G75*
G02*
X16687500Y-15097500I-62500J0D01*
G01*
X16562500Y-15097500D01*
G75*
G02*
X16500000Y-15035000I0J62500D01*
G01*
X16500000Y-14285000D01*
G75*
G02*
X16562500Y-14222500I62500J0D01*
G01*
G37*
G36*
G01*
X16062500Y-21097500D02*
X16187500Y-21097500D01*
G75*
G02*
X16250000Y-21160000I0J-62500D01*
G01*
X16250000Y-21910000D01*
G75*
G02*
X16187500Y-21972500I-62500J0D01*
G01*
X16062500Y-21972500D01*
G75*
G02*
X16000000Y-21910000I0J62500D01*
G01*
X16000000Y-21160000D01*
G75*
G02*
X16062500Y-21097500I62500J0D01*
G01*
G37*
G36*
G01*
X15562500Y-21097500D02*
X15687500Y-21097500D01*
G75*
G02*
X15750000Y-21160000I0J-62500D01*
G01*
X15750000Y-21910000D01*
G75*
G02*
X15687500Y-21972500I-62500J0D01*
G01*
X15562500Y-21972500D01*
G75*
G02*
X15500000Y-21910000I0J62500D01*
G01*
X15500000Y-21160000D01*
G75*
G02*
X15562500Y-21097500I62500J0D01*
G01*
G37*
G36*
G01*
X18937500Y-17222500D02*
X19687500Y-17222500D01*
G75*
G02*
X19750000Y-17285000I0J-62500D01*
G01*
X19750000Y-17410000D01*
G75*
G02*
X19687500Y-17472500I-62500J0D01*
G01*
X18937500Y-17472500D01*
G75*
G02*
X18875000Y-17410000I0J62500D01*
G01*
X18875000Y-17285000D01*
G75*
G02*
X18937500Y-17222500I62500J0D01*
G01*
G37*
G36*
G01*
X18937500Y-16722500D02*
X19687500Y-16722500D01*
G75*
G02*
X19750000Y-16785000I0J-62500D01*
G01*
X19750000Y-16910000D01*
G75*
G02*
X19687500Y-16972500I-62500J0D01*
G01*
X18937500Y-16972500D01*
G75*
G02*
X18875000Y-16910000I0J62500D01*
G01*
X18875000Y-16785000D01*
G75*
G02*
X18937500Y-16722500I62500J0D01*
G01*
G37*
G36*
G01*
X18937500Y-16222500D02*
X19687500Y-16222500D01*
G75*
G02*
X19750000Y-16285000I0J-62500D01*
G01*
X19750000Y-16410000D01*
G75*
G02*
X19687500Y-16472500I-62500J0D01*
G01*
X18937500Y-16472500D01*
G75*
G02*
X18875000Y-16410000I0J62500D01*
G01*
X18875000Y-16285000D01*
G75*
G02*
X18937500Y-16222500I62500J0D01*
G01*
G37*
G36*
G01*
X18937500Y-17722500D02*
X19687500Y-17722500D01*
G75*
G02*
X19750000Y-17785000I0J-62500D01*
G01*
X19750000Y-17910000D01*
G75*
G02*
X19687500Y-17972500I-62500J0D01*
G01*
X18937500Y-17972500D01*
G75*
G02*
X18875000Y-17910000I0J62500D01*
G01*
X18875000Y-17785000D01*
G75*
G02*
X18937500Y-17722500I62500J0D01*
G01*
G37*
G36*
G01*
X18937500Y-19222500D02*
X19687500Y-19222500D01*
G75*
G02*
X19750000Y-19285000I0J-62500D01*
G01*
X19750000Y-19410000D01*
G75*
G02*
X19687500Y-19472500I-62500J0D01*
G01*
X18937500Y-19472500D01*
G75*
G02*
X18875000Y-19410000I0J62500D01*
G01*
X18875000Y-19285000D01*
G75*
G02*
X18937500Y-19222500I62500J0D01*
G01*
G37*
G36*
G01*
X14062500Y-14222500D02*
X14187500Y-14222500D01*
G75*
G02*
X14250000Y-14285000I0J-62500D01*
G01*
X14250000Y-15035000D01*
G75*
G02*
X14187500Y-15097500I-62500J0D01*
G01*
X14062500Y-15097500D01*
G75*
G02*
X14000000Y-15035000I0J62500D01*
G01*
X14000000Y-14285000D01*
G75*
G02*
X14062500Y-14222500I62500J0D01*
G01*
G37*
G36*
G01*
X18562500Y-21097500D02*
X18687500Y-21097500D01*
G75*
G02*
X18750000Y-21160000I0J-62500D01*
G01*
X18750000Y-21910000D01*
G75*
G02*
X18687500Y-21972500I-62500J0D01*
G01*
X18562500Y-21972500D01*
G75*
G02*
X18500000Y-21910000I0J62500D01*
G01*
X18500000Y-21160000D01*
G75*
G02*
X18562500Y-21097500I62500J0D01*
G01*
G37*
G36*
G01*
X18062500Y-14222500D02*
X18187500Y-14222500D01*
G75*
G02*
X18250000Y-14285000I0J-62500D01*
G01*
X18250000Y-15035000D01*
G75*
G02*
X18187500Y-15097500I-62500J0D01*
G01*
X18062500Y-15097500D01*
G75*
G02*
X18000000Y-15035000I0J62500D01*
G01*
X18000000Y-14285000D01*
G75*
G02*
X18062500Y-14222500I62500J0D01*
G01*
G37*
G36*
G01*
X18937500Y-20222500D02*
X19687500Y-20222500D01*
G75*
G02*
X19750000Y-20285000I0J-62500D01*
G01*
X19750000Y-20410000D01*
G75*
G02*
X19687500Y-20472500I-62500J0D01*
G01*
X18937500Y-20472500D01*
G75*
G02*
X18875000Y-20410000I0J62500D01*
G01*
X18875000Y-20285000D01*
G75*
G02*
X18937500Y-20222500I62500J0D01*
G01*
G37*
G36*
G01*
X13062500Y-21097500D02*
X13187500Y-21097500D01*
G75*
G02*
X13250000Y-21160000I0J-62500D01*
G01*
X13250000Y-21910000D01*
G75*
G02*
X13187500Y-21972500I-62500J0D01*
G01*
X13062500Y-21972500D01*
G75*
G02*
X13000000Y-21910000I0J62500D01*
G01*
X13000000Y-21160000D01*
G75*
G02*
X13062500Y-21097500I62500J0D01*
G01*
G37*
G36*
G01*
X12062500Y-19222500D02*
X12812500Y-19222500D01*
G75*
G02*
X12875000Y-19285000I0J-62500D01*
G01*
X12875000Y-19410000D01*
G75*
G02*
X12812500Y-19472500I-62500J0D01*
G01*
X12062500Y-19472500D01*
G75*
G02*
X12000000Y-19410000I0J62500D01*
G01*
X12000000Y-19285000D01*
G75*
G02*
X12062500Y-19222500I62500J0D01*
G01*
G37*
G36*
G01*
X14062500Y-21097500D02*
X14187500Y-21097500D01*
G75*
G02*
X14250000Y-21160000I0J-62500D01*
G01*
X14250000Y-21910000D01*
G75*
G02*
X14187500Y-21972500I-62500J0D01*
G01*
X14062500Y-21972500D01*
G75*
G02*
X14000000Y-21910000I0J62500D01*
G01*
X14000000Y-21160000D01*
G75*
G02*
X14062500Y-21097500I62500J0D01*
G01*
G37*
G36*
G01*
X17562500Y-21097500D02*
X17687500Y-21097500D01*
G75*
G02*
X17750000Y-21160000I0J-62500D01*
G01*
X17750000Y-21910000D01*
G75*
G02*
X17687500Y-21972500I-62500J0D01*
G01*
X17562500Y-21972500D01*
G75*
G02*
X17500000Y-21910000I0J62500D01*
G01*
X17500000Y-21160000D01*
G75*
G02*
X17562500Y-21097500I62500J0D01*
G01*
G37*
G36*
G01*
X18937500Y-15222500D02*
X19687500Y-15222500D01*
G75*
G02*
X19750000Y-15285000I0J-62500D01*
G01*
X19750000Y-15410000D01*
G75*
G02*
X19687500Y-15472500I-62500J0D01*
G01*
X18937500Y-15472500D01*
G75*
G02*
X18875000Y-15410000I0J62500D01*
G01*
X18875000Y-15285000D01*
G75*
G02*
X18937500Y-15222500I62500J0D01*
G01*
G37*
G36*
G01*
X15062500Y-14222500D02*
X15187500Y-14222500D01*
G75*
G02*
X15250000Y-14285000I0J-62500D01*
G01*
X15250000Y-15035000D01*
G75*
G02*
X15187500Y-15097500I-62500J0D01*
G01*
X15062500Y-15097500D01*
G75*
G02*
X15000000Y-15035000I0J62500D01*
G01*
X15000000Y-14285000D01*
G75*
G02*
X15062500Y-14222500I62500J0D01*
G01*
G37*
G36*
G01*
X12062500Y-19722500D02*
X12812500Y-19722500D01*
G75*
G02*
X12875000Y-19785000I0J-62500D01*
G01*
X12875000Y-19910000D01*
G75*
G02*
X12812500Y-19972500I-62500J0D01*
G01*
X12062500Y-19972500D01*
G75*
G02*
X12000000Y-19910000I0J62500D01*
G01*
X12000000Y-19785000D01*
G75*
G02*
X12062500Y-19722500I62500J0D01*
G01*
G37*
G36*
G01*
X14562500Y-21097500D02*
X14687500Y-21097500D01*
G75*
G02*
X14750000Y-21160000I0J-62500D01*
G01*
X14750000Y-21910000D01*
G75*
G02*
X14687500Y-21972500I-62500J0D01*
G01*
X14562500Y-21972500D01*
G75*
G02*
X14500000Y-21910000I0J62500D01*
G01*
X14500000Y-21160000D01*
G75*
G02*
X14562500Y-21097500I62500J0D01*
G01*
G37*
G36*
G01*
X18937500Y-20722500D02*
X19687500Y-20722500D01*
G75*
G02*
X19750000Y-20785000I0J-62500D01*
G01*
X19750000Y-20910000D01*
G75*
G02*
X19687500Y-20972500I-62500J0D01*
G01*
X18937500Y-20972500D01*
G75*
G02*
X18875000Y-20910000I0J62500D01*
G01*
X18875000Y-20785000D01*
G75*
G02*
X18937500Y-20722500I62500J0D01*
G01*
G37*
G36*
G01*
X15562500Y-14222500D02*
X15687500Y-14222500D01*
G75*
G02*
X15750000Y-14285000I0J-62500D01*
G01*
X15750000Y-15035000D01*
G75*
G02*
X15687500Y-15097500I-62500J0D01*
G01*
X15562500Y-15097500D01*
G75*
G02*
X15500000Y-15035000I0J62500D01*
G01*
X15500000Y-14285000D01*
G75*
G02*
X15562500Y-14222500I62500J0D01*
G01*
G37*
G36*
G01*
X12062500Y-20722500D02*
X12812500Y-20722500D01*
G75*
G02*
X12875000Y-20785000I0J-62500D01*
G01*
X12875000Y-20910000D01*
G75*
G02*
X12812500Y-20972500I-62500J0D01*
G01*
X12062500Y-20972500D01*
G75*
G02*
X12000000Y-20910000I0J62500D01*
G01*
X12000000Y-20785000D01*
G75*
G02*
X12062500Y-20722500I62500J0D01*
G01*
G37*
G36*
G01*
X18937500Y-18222500D02*
X19687500Y-18222500D01*
G75*
G02*
X19750000Y-18285000I0J-62500D01*
G01*
X19750000Y-18410000D01*
G75*
G02*
X19687500Y-18472500I-62500J0D01*
G01*
X18937500Y-18472500D01*
G75*
G02*
X18875000Y-18410000I0J62500D01*
G01*
X18875000Y-18285000D01*
G75*
G02*
X18937500Y-18222500I62500J0D01*
G01*
G37*
G36*
G01*
X18937500Y-15722500D02*
X19687500Y-15722500D01*
G75*
G02*
X19750000Y-15785000I0J-62500D01*
G01*
X19750000Y-15910000D01*
G75*
G02*
X19687500Y-15972500I-62500J0D01*
G01*
X18937500Y-15972500D01*
G75*
G02*
X18875000Y-15910000I0J62500D01*
G01*
X18875000Y-15785000D01*
G75*
G02*
X18937500Y-15722500I62500J0D01*
G01*
G37*
G36*
G01*
X13562500Y-14222500D02*
X13687500Y-14222500D01*
G75*
G02*
X13750000Y-14285000I0J-62500D01*
G01*
X13750000Y-15035000D01*
G75*
G02*
X13687500Y-15097500I-62500J0D01*
G01*
X13562500Y-15097500D01*
G75*
G02*
X13500000Y-15035000I0J62500D01*
G01*
X13500000Y-14285000D01*
G75*
G02*
X13562500Y-14222500I62500J0D01*
G01*
G37*
G36*
G01*
X13562500Y-21097500D02*
X13687500Y-21097500D01*
G75*
G02*
X13750000Y-21160000I0J-62500D01*
G01*
X13750000Y-21910000D01*
G75*
G02*
X13687500Y-21972500I-62500J0D01*
G01*
X13562500Y-21972500D01*
G75*
G02*
X13500000Y-21910000I0J62500D01*
G01*
X13500000Y-21160000D01*
G75*
G02*
X13562500Y-21097500I62500J0D01*
G01*
G37*
G36*
G01*
X18562500Y-14222500D02*
X18687500Y-14222500D01*
G75*
G02*
X18750000Y-14285000I0J-62500D01*
G01*
X18750000Y-15035000D01*
G75*
G02*
X18687500Y-15097500I-62500J0D01*
G01*
X18562500Y-15097500D01*
G75*
G02*
X18500000Y-15035000I0J62500D01*
G01*
X18500000Y-14285000D01*
G75*
G02*
X18562500Y-14222500I62500J0D01*
G01*
G37*
G36*
G01*
X12062500Y-18722500D02*
X12812500Y-18722500D01*
G75*
G02*
X12875000Y-18785000I0J-62500D01*
G01*
X12875000Y-18910000D01*
G75*
G02*
X12812500Y-18972500I-62500J0D01*
G01*
X12062500Y-18972500D01*
G75*
G02*
X12000000Y-18910000I0J62500D01*
G01*
X12000000Y-18785000D01*
G75*
G02*
X12062500Y-18722500I62500J0D01*
G01*
G37*
G36*
G01*
X18937500Y-18722500D02*
X19687500Y-18722500D01*
G75*
G02*
X19750000Y-18785000I0J-62500D01*
G01*
X19750000Y-18910000D01*
G75*
G02*
X19687500Y-18972500I-62500J0D01*
G01*
X18937500Y-18972500D01*
G75*
G02*
X18875000Y-18910000I0J62500D01*
G01*
X18875000Y-18785000D01*
G75*
G02*
X18937500Y-18722500I62500J0D01*
G01*
G37*
G36*
G01*
X18062500Y-21097500D02*
X18187500Y-21097500D01*
G75*
G02*
X18250000Y-21160000I0J-62500D01*
G01*
X18250000Y-21910000D01*
G75*
G02*
X18187500Y-21972500I-62500J0D01*
G01*
X18062500Y-21972500D01*
G75*
G02*
X18000000Y-21910000I0J62500D01*
G01*
X18000000Y-21160000D01*
G75*
G02*
X18062500Y-21097500I62500J0D01*
G01*
G37*
G36*
G01*
X12062500Y-20222500D02*
X12812500Y-20222500D01*
G75*
G02*
X12875000Y-20285000I0J-62500D01*
G01*
X12875000Y-20410000D01*
G75*
G02*
X12812500Y-20472500I-62500J0D01*
G01*
X12062500Y-20472500D01*
G75*
G02*
X12000000Y-20410000I0J62500D01*
G01*
X12000000Y-20285000D01*
G75*
G02*
X12062500Y-20222500I62500J0D01*
G01*
G37*
G36*
G01*
X15062500Y-21097500D02*
X15187500Y-21097500D01*
G75*
G02*
X15250000Y-21160000I0J-62500D01*
G01*
X15250000Y-21910000D01*
G75*
G02*
X15187500Y-21972500I-62500J0D01*
G01*
X15062500Y-21972500D01*
G75*
G02*
X15000000Y-21910000I0J62500D01*
G01*
X15000000Y-21160000D01*
G75*
G02*
X15062500Y-21097500I62500J0D01*
G01*
G37*
G36*
G01*
X13050000Y-13197500D02*
X13200000Y-13197500D01*
G75*
G02*
X13275000Y-13272500I0J-75000D01*
G01*
X13275000Y-14597500D01*
G75*
G02*
X13200000Y-14672500I-75000J0D01*
G01*
X13050000Y-14672500D01*
G75*
G02*
X12975000Y-14597500I0J75000D01*
G01*
X12975000Y-13272500D01*
G75*
G02*
X13050000Y-13197500I75000J0D01*
G01*
G37*
G36*
G01*
X13550000Y-13197500D02*
X13700000Y-13197500D01*
G75*
G02*
X13775000Y-13272500I0J-75000D01*
G01*
X13775000Y-14597500D01*
G75*
G02*
X13700000Y-14672500I-75000J0D01*
G01*
X13550000Y-14672500D01*
G75*
G02*
X13475000Y-14597500I0J75000D01*
G01*
X13475000Y-13272500D01*
G75*
G02*
X13550000Y-13197500I75000J0D01*
G01*
G37*
G36*
G01*
X14050000Y-13197500D02*
X14200000Y-13197500D01*
G75*
G02*
X14275000Y-13272500I0J-75000D01*
G01*
X14275000Y-14597500D01*
G75*
G02*
X14200000Y-14672500I-75000J0D01*
G01*
X14050000Y-14672500D01*
G75*
G02*
X13975000Y-14597500I0J75000D01*
G01*
X13975000Y-13272500D01*
G75*
G02*
X14050000Y-13197500I75000J0D01*
G01*
G37*
G36*
G01*
X14550000Y-13197500D02*
X14700000Y-13197500D01*
G75*
G02*
X14775000Y-13272500I0J-75000D01*
G01*
X14775000Y-14597500D01*
G75*
G02*
X14700000Y-14672500I-75000J0D01*
G01*
X14550000Y-14672500D01*
G75*
G02*
X14475000Y-14597500I0J75000D01*
G01*
X14475000Y-13272500D01*
G75*
G02*
X14550000Y-13197500I75000J0D01*
G01*
G37*
G36*
G01*
X15050000Y-13197500D02*
X15200000Y-13197500D01*
G75*
G02*
X15275000Y-13272500I0J-75000D01*
G01*
X15275000Y-14597500D01*
G75*
G02*
X15200000Y-14672500I-75000J0D01*
G01*
X15050000Y-14672500D01*
G75*
G02*
X14975000Y-14597500I0J75000D01*
G01*
X14975000Y-13272500D01*
G75*
G02*
X15050000Y-13197500I75000J0D01*
G01*
G37*
G36*
G01*
X15550000Y-13197500D02*
X15700000Y-13197500D01*
G75*
G02*
X15775000Y-13272500I0J-75000D01*
G01*
X15775000Y-14597500D01*
G75*
G02*
X15700000Y-14672500I-75000J0D01*
G01*
X15550000Y-14672500D01*
G75*
G02*
X15475000Y-14597500I0J75000D01*
G01*
X15475000Y-13272500D01*
G75*
G02*
X15550000Y-13197500I75000J0D01*
G01*
G37*
G36*
G01*
X16050000Y-13197500D02*
X16200000Y-13197500D01*
G75*
G02*
X16275000Y-13272500I0J-75000D01*
G01*
X16275000Y-14597500D01*
G75*
G02*
X16200000Y-14672500I-75000J0D01*
G01*
X16050000Y-14672500D01*
G75*
G02*
X15975000Y-14597500I0J75000D01*
G01*
X15975000Y-13272500D01*
G75*
G02*
X16050000Y-13197500I75000J0D01*
G01*
G37*
G36*
G01*
X16550000Y-13197500D02*
X16700000Y-13197500D01*
G75*
G02*
X16775000Y-13272500I0J-75000D01*
G01*
X16775000Y-14597500D01*
G75*
G02*
X16700000Y-14672500I-75000J0D01*
G01*
X16550000Y-14672500D01*
G75*
G02*
X16475000Y-14597500I0J75000D01*
G01*
X16475000Y-13272500D01*
G75*
G02*
X16550000Y-13197500I75000J0D01*
G01*
G37*
G36*
G01*
X17050000Y-13197500D02*
X17200000Y-13197500D01*
G75*
G02*
X17275000Y-13272500I0J-75000D01*
G01*
X17275000Y-14597500D01*
G75*
G02*
X17200000Y-14672500I-75000J0D01*
G01*
X17050000Y-14672500D01*
G75*
G02*
X16975000Y-14597500I0J75000D01*
G01*
X16975000Y-13272500D01*
G75*
G02*
X17050000Y-13197500I75000J0D01*
G01*
G37*
G36*
G01*
X17550000Y-13197500D02*
X17700000Y-13197500D01*
G75*
G02*
X17775000Y-13272500I0J-75000D01*
G01*
X17775000Y-14597500D01*
G75*
G02*
X17700000Y-14672500I-75000J0D01*
G01*
X17550000Y-14672500D01*
G75*
G02*
X17475000Y-14597500I0J75000D01*
G01*
X17475000Y-13272500D01*
G75*
G02*
X17550000Y-13197500I75000J0D01*
G01*
G37*
G36*
G01*
X18050000Y-13197500D02*
X18200000Y-13197500D01*
G75*
G02*
X18275000Y-13272500I0J-75000D01*
G01*
X18275000Y-14597500D01*
G75*
G02*
X18200000Y-14672500I-75000J0D01*
G01*
X18050000Y-14672500D01*
G75*
G02*
X17975000Y-14597500I0J75000D01*
G01*
X17975000Y-13272500D01*
G75*
G02*
X18050000Y-13197500I75000J0D01*
G01*
G37*
G36*
G01*
X18550000Y-13197500D02*
X18700000Y-13197500D01*
G75*
G02*
X18775000Y-13272500I0J-75000D01*
G01*
X18775000Y-14597500D01*
G75*
G02*
X18700000Y-14672500I-75000J0D01*
G01*
X18550000Y-14672500D01*
G75*
G02*
X18475000Y-14597500I0J75000D01*
G01*
X18475000Y-13272500D01*
G75*
G02*
X18550000Y-13197500I75000J0D01*
G01*
G37*
G36*
G01*
X19375000Y-15197500D02*
X20700000Y-15197500D01*
G75*
G02*
X20775000Y-15272500I0J-75000D01*
G01*
X20775000Y-15422500D01*
G75*
G02*
X20700000Y-15497500I-75000J0D01*
G01*
X19375000Y-15497500D01*
G75*
G02*
X19300000Y-15422500I0J75000D01*
G01*
X19300000Y-15272500D01*
G75*
G02*
X19375000Y-15197500I75000J0D01*
G01*
G37*
G36*
G01*
X19375000Y-15697500D02*
X20700000Y-15697500D01*
G75*
G02*
X20775000Y-15772500I0J-75000D01*
G01*
X20775000Y-15922500D01*
G75*
G02*
X20700000Y-15997500I-75000J0D01*
G01*
X19375000Y-15997500D01*
G75*
G02*
X19300000Y-15922500I0J75000D01*
G01*
X19300000Y-15772500D01*
G75*
G02*
X19375000Y-15697500I75000J0D01*
G01*
G37*
G36*
G01*
X19375000Y-16197500D02*
X20700000Y-16197500D01*
G75*
G02*
X20775000Y-16272500I0J-75000D01*
G01*
X20775000Y-16422500D01*
G75*
G02*
X20700000Y-16497500I-75000J0D01*
G01*
X19375000Y-16497500D01*
G75*
G02*
X19300000Y-16422500I0J75000D01*
G01*
X19300000Y-16272500D01*
G75*
G02*
X19375000Y-16197500I75000J0D01*
G01*
G37*
G36*
G01*
X19375000Y-16697500D02*
X20700000Y-16697500D01*
G75*
G02*
X20775000Y-16772500I0J-75000D01*
G01*
X20775000Y-16922500D01*
G75*
G02*
X20700000Y-16997500I-75000J0D01*
G01*
X19375000Y-16997500D01*
G75*
G02*
X19300000Y-16922500I0J75000D01*
G01*
X19300000Y-16772500D01*
G75*
G02*
X19375000Y-16697500I75000J0D01*
G01*
G37*
G36*
G01*
X19375000Y-17197500D02*
X20700000Y-17197500D01*
G75*
G02*
X20775000Y-17272500I0J-75000D01*
G01*
X20775000Y-17422500D01*
G75*
G02*
X20700000Y-17497500I-75000J0D01*
G01*
X19375000Y-17497500D01*
G75*
G02*
X19300000Y-17422500I0J75000D01*
G01*
X19300000Y-17272500D01*
G75*
G02*
X19375000Y-17197500I75000J0D01*
G01*
G37*
G36*
G01*
X19375000Y-17697500D02*
X20700000Y-17697500D01*
G75*
G02*
X20775000Y-17772500I0J-75000D01*
G01*
X20775000Y-17922500D01*
G75*
G02*
X20700000Y-17997500I-75000J0D01*
G01*
X19375000Y-17997500D01*
G75*
G02*
X19300000Y-17922500I0J75000D01*
G01*
X19300000Y-17772500D01*
G75*
G02*
X19375000Y-17697500I75000J0D01*
G01*
G37*
G36*
G01*
X19375000Y-18197500D02*
X20700000Y-18197500D01*
G75*
G02*
X20775000Y-18272500I0J-75000D01*
G01*
X20775000Y-18422500D01*
G75*
G02*
X20700000Y-18497500I-75000J0D01*
G01*
X19375000Y-18497500D01*
G75*
G02*
X19300000Y-18422500I0J75000D01*
G01*
X19300000Y-18272500D01*
G75*
G02*
X19375000Y-18197500I75000J0D01*
G01*
G37*
G36*
G01*
X19375000Y-18697500D02*
X20700000Y-18697500D01*
G75*
G02*
X20775000Y-18772500I0J-75000D01*
G01*
X20775000Y-18922500D01*
G75*
G02*
X20700000Y-18997500I-75000J0D01*
G01*
X19375000Y-18997500D01*
G75*
G02*
X19300000Y-18922500I0J75000D01*
G01*
X19300000Y-18772500D01*
G75*
G02*
X19375000Y-18697500I75000J0D01*
G01*
G37*
G36*
G01*
X19375000Y-19197500D02*
X20700000Y-19197500D01*
G75*
G02*
X20775000Y-19272500I0J-75000D01*
G01*
X20775000Y-19422500D01*
G75*
G02*
X20700000Y-19497500I-75000J0D01*
G01*
X19375000Y-19497500D01*
G75*
G02*
X19300000Y-19422500I0J75000D01*
G01*
X19300000Y-19272500D01*
G75*
G02*
X19375000Y-19197500I75000J0D01*
G01*
G37*
G36*
G01*
X19375000Y-19697500D02*
X20700000Y-19697500D01*
G75*
G02*
X20775000Y-19772500I0J-75000D01*
G01*
X20775000Y-19922500D01*
G75*
G02*
X20700000Y-19997500I-75000J0D01*
G01*
X19375000Y-19997500D01*
G75*
G02*
X19300000Y-19922500I0J75000D01*
G01*
X19300000Y-19772500D01*
G75*
G02*
X19375000Y-19697500I75000J0D01*
G01*
G37*
G36*
G01*
X19375000Y-20197500D02*
X20700000Y-20197500D01*
G75*
G02*
X20775000Y-20272500I0J-75000D01*
G01*
X20775000Y-20422500D01*
G75*
G02*
X20700000Y-20497500I-75000J0D01*
G01*
X19375000Y-20497500D01*
G75*
G02*
X19300000Y-20422500I0J75000D01*
G01*
X19300000Y-20272500D01*
G75*
G02*
X19375000Y-20197500I75000J0D01*
G01*
G37*
G36*
G01*
X19375000Y-20697500D02*
X20700000Y-20697500D01*
G75*
G02*
X20775000Y-20772500I0J-75000D01*
G01*
X20775000Y-20922500D01*
G75*
G02*
X20700000Y-20997500I-75000J0D01*
G01*
X19375000Y-20997500D01*
G75*
G02*
X19300000Y-20922500I0J75000D01*
G01*
X19300000Y-20772500D01*
G75*
G02*
X19375000Y-20697500I75000J0D01*
G01*
G37*
G36*
G01*
X18550000Y-21522500D02*
X18700000Y-21522500D01*
G75*
G02*
X18775000Y-21597500I0J-75000D01*
G01*
X18775000Y-22922500D01*
G75*
G02*
X18700000Y-22997500I-75000J0D01*
G01*
X18550000Y-22997500D01*
G75*
G02*
X18475000Y-22922500I0J75000D01*
G01*
X18475000Y-21597500D01*
G75*
G02*
X18550000Y-21522500I75000J0D01*
G01*
G37*
G36*
G01*
X18050000Y-21522500D02*
X18200000Y-21522500D01*
G75*
G02*
X18275000Y-21597500I0J-75000D01*
G01*
X18275000Y-22922500D01*
G75*
G02*
X18200000Y-22997500I-75000J0D01*
G01*
X18050000Y-22997500D01*
G75*
G02*
X17975000Y-22922500I0J75000D01*
G01*
X17975000Y-21597500D01*
G75*
G02*
X18050000Y-21522500I75000J0D01*
G01*
G37*
G36*
G01*
X17550000Y-21522500D02*
X17700000Y-21522500D01*
G75*
G02*
X17775000Y-21597500I0J-75000D01*
G01*
X17775000Y-22922500D01*
G75*
G02*
X17700000Y-22997500I-75000J0D01*
G01*
X17550000Y-22997500D01*
G75*
G02*
X17475000Y-22922500I0J75000D01*
G01*
X17475000Y-21597500D01*
G75*
G02*
X17550000Y-21522500I75000J0D01*
G01*
G37*
G36*
G01*
X17050000Y-21522500D02*
X17200000Y-21522500D01*
G75*
G02*
X17275000Y-21597500I0J-75000D01*
G01*
X17275000Y-22922500D01*
G75*
G02*
X17200000Y-22997500I-75000J0D01*
G01*
X17050000Y-22997500D01*
G75*
G02*
X16975000Y-22922500I0J75000D01*
G01*
X16975000Y-21597500D01*
G75*
G02*
X17050000Y-21522500I75000J0D01*
G01*
G37*
G36*
G01*
X16550000Y-21522500D02*
X16700000Y-21522500D01*
G75*
G02*
X16775000Y-21597500I0J-75000D01*
G01*
X16775000Y-22922500D01*
G75*
G02*
X16700000Y-22997500I-75000J0D01*
G01*
X16550000Y-22997500D01*
G75*
G02*
X16475000Y-22922500I0J75000D01*
G01*
X16475000Y-21597500D01*
G75*
G02*
X16550000Y-21522500I75000J0D01*
G01*
G37*
G36*
G01*
X16050000Y-21522500D02*
X16200000Y-21522500D01*
G75*
G02*
X16275000Y-21597500I0J-75000D01*
G01*
X16275000Y-22922500D01*
G75*
G02*
X16200000Y-22997500I-75000J0D01*
G01*
X16050000Y-22997500D01*
G75*
G02*
X15975000Y-22922500I0J75000D01*
G01*
X15975000Y-21597500D01*
G75*
G02*
X16050000Y-21522500I75000J0D01*
G01*
G37*
G36*
G01*
X15550000Y-21522500D02*
X15700000Y-21522500D01*
G75*
G02*
X15775000Y-21597500I0J-75000D01*
G01*
X15775000Y-22922500D01*
G75*
G02*
X15700000Y-22997500I-75000J0D01*
G01*
X15550000Y-22997500D01*
G75*
G02*
X15475000Y-22922500I0J75000D01*
G01*
X15475000Y-21597500D01*
G75*
G02*
X15550000Y-21522500I75000J0D01*
G01*
G37*
G36*
G01*
X15050000Y-21522500D02*
X15200000Y-21522500D01*
G75*
G02*
X15275000Y-21597500I0J-75000D01*
G01*
X15275000Y-22922500D01*
G75*
G02*
X15200000Y-22997500I-75000J0D01*
G01*
X15050000Y-22997500D01*
G75*
G02*
X14975000Y-22922500I0J75000D01*
G01*
X14975000Y-21597500D01*
G75*
G02*
X15050000Y-21522500I75000J0D01*
G01*
G37*
G36*
G01*
X14550000Y-21522500D02*
X14700000Y-21522500D01*
G75*
G02*
X14775000Y-21597500I0J-75000D01*
G01*
X14775000Y-22922500D01*
G75*
G02*
X14700000Y-22997500I-75000J0D01*
G01*
X14550000Y-22997500D01*
G75*
G02*
X14475000Y-22922500I0J75000D01*
G01*
X14475000Y-21597500D01*
G75*
G02*
X14550000Y-21522500I75000J0D01*
G01*
G37*
G36*
G01*
X14050000Y-21522500D02*
X14200000Y-21522500D01*
G75*
G02*
X14275000Y-21597500I0J-75000D01*
G01*
X14275000Y-22922500D01*
G75*
G02*
X14200000Y-22997500I-75000J0D01*
G01*
X14050000Y-22997500D01*
G75*
G02*
X13975000Y-22922500I0J75000D01*
G01*
X13975000Y-21597500D01*
G75*
G02*
X14050000Y-21522500I75000J0D01*
G01*
G37*
G36*
G01*
X13550000Y-21522500D02*
X13700000Y-21522500D01*
G75*
G02*
X13775000Y-21597500I0J-75000D01*
G01*
X13775000Y-22922500D01*
G75*
G02*
X13700000Y-22997500I-75000J0D01*
G01*
X13550000Y-22997500D01*
G75*
G02*
X13475000Y-22922500I0J75000D01*
G01*
X13475000Y-21597500D01*
G75*
G02*
X13550000Y-21522500I75000J0D01*
G01*
G37*
G36*
G01*
X13050000Y-21522500D02*
X13200000Y-21522500D01*
G75*
G02*
X13275000Y-21597500I0J-75000D01*
G01*
X13275000Y-22922500D01*
G75*
G02*
X13200000Y-22997500I-75000J0D01*
G01*
X13050000Y-22997500D01*
G75*
G02*
X12975000Y-22922500I0J75000D01*
G01*
X12975000Y-21597500D01*
G75*
G02*
X13050000Y-21522500I75000J0D01*
G01*
G37*
G36*
G01*
X11050000Y-20697500D02*
X12375000Y-20697500D01*
G75*
G02*
X12450000Y-20772500I0J-75000D01*
G01*
X12450000Y-20922500D01*
G75*
G02*
X12375000Y-20997500I-75000J0D01*
G01*
X11050000Y-20997500D01*
G75*
G02*
X10975000Y-20922500I0J75000D01*
G01*
X10975000Y-20772500D01*
G75*
G02*
X11050000Y-20697500I75000J0D01*
G01*
G37*
G36*
G01*
X11050000Y-20197500D02*
X12375000Y-20197500D01*
G75*
G02*
X12450000Y-20272500I0J-75000D01*
G01*
X12450000Y-20422500D01*
G75*
G02*
X12375000Y-20497500I-75000J0D01*
G01*
X11050000Y-20497500D01*
G75*
G02*
X10975000Y-20422500I0J75000D01*
G01*
X10975000Y-20272500D01*
G75*
G02*
X11050000Y-20197500I75000J0D01*
G01*
G37*
G36*
G01*
X11050000Y-19697500D02*
X12375000Y-19697500D01*
G75*
G02*
X12450000Y-19772500I0J-75000D01*
G01*
X12450000Y-19922500D01*
G75*
G02*
X12375000Y-19997500I-75000J0D01*
G01*
X11050000Y-19997500D01*
G75*
G02*
X10975000Y-19922500I0J75000D01*
G01*
X10975000Y-19772500D01*
G75*
G02*
X11050000Y-19697500I75000J0D01*
G01*
G37*
G36*
G01*
X11050000Y-19197500D02*
X12375000Y-19197500D01*
G75*
G02*
X12450000Y-19272500I0J-75000D01*
G01*
X12450000Y-19422500D01*
G75*
G02*
X12375000Y-19497500I-75000J0D01*
G01*
X11050000Y-19497500D01*
G75*
G02*
X10975000Y-19422500I0J75000D01*
G01*
X10975000Y-19272500D01*
G75*
G02*
X11050000Y-19197500I75000J0D01*
G01*
G37*
G36*
G01*
X11050000Y-18697500D02*
X12375000Y-18697500D01*
G75*
G02*
X12450000Y-18772500I0J-75000D01*
G01*
X12450000Y-18922500D01*
G75*
G02*
X12375000Y-18997500I-75000J0D01*
G01*
X11050000Y-18997500D01*
G75*
G02*
X10975000Y-18922500I0J75000D01*
G01*
X10975000Y-18772500D01*
G75*
G02*
X11050000Y-18697500I75000J0D01*
G01*
G37*
G36*
G01*
X11050000Y-18197500D02*
X12375000Y-18197500D01*
G75*
G02*
X12450000Y-18272500I0J-75000D01*
G01*
X12450000Y-18422500D01*
G75*
G02*
X12375000Y-18497500I-75000J0D01*
G01*
X11050000Y-18497500D01*
G75*
G02*
X10975000Y-18422500I0J75000D01*
G01*
X10975000Y-18272500D01*
G75*
G02*
X11050000Y-18197500I75000J0D01*
G01*
G37*
G36*
G01*
X11050000Y-17697500D02*
X12375000Y-17697500D01*
G75*
G02*
X12450000Y-17772500I0J-75000D01*
G01*
X12450000Y-17922500D01*
G75*
G02*
X12375000Y-17997500I-75000J0D01*
G01*
X11050000Y-17997500D01*
G75*
G02*
X10975000Y-17922500I0J75000D01*
G01*
X10975000Y-17772500D01*
G75*
G02*
X11050000Y-17697500I75000J0D01*
G01*
G37*
G36*
G01*
X11050000Y-17197500D02*
X12375000Y-17197500D01*
G75*
G02*
X12450000Y-17272500I0J-75000D01*
G01*
X12450000Y-17422500D01*
G75*
G02*
X12375000Y-17497500I-75000J0D01*
G01*
X11050000Y-17497500D01*
G75*
G02*
X10975000Y-17422500I0J75000D01*
G01*
X10975000Y-17272500D01*
G75*
G02*
X11050000Y-17197500I75000J0D01*
G01*
G37*
G36*
G01*
X11050000Y-16697500D02*
X12375000Y-16697500D01*
G75*
G02*
X12450000Y-16772500I0J-75000D01*
G01*
X12450000Y-16922500D01*
G75*
G02*
X12375000Y-16997500I-75000J0D01*
G01*
X11050000Y-16997500D01*
G75*
G02*
X10975000Y-16922500I0J75000D01*
G01*
X10975000Y-16772500D01*
G75*
G02*
X11050000Y-16697500I75000J0D01*
G01*
G37*
G36*
G01*
X11050000Y-16197500D02*
X12375000Y-16197500D01*
G75*
G02*
X12450000Y-16272500I0J-75000D01*
G01*
X12450000Y-16422500D01*
G75*
G02*
X12375000Y-16497500I-75000J0D01*
G01*
X11050000Y-16497500D01*
G75*
G02*
X10975000Y-16422500I0J75000D01*
G01*
X10975000Y-16272500D01*
G75*
G02*
X11050000Y-16197500I75000J0D01*
G01*
G37*
G36*
G01*
X11050000Y-15697500D02*
X12375000Y-15697500D01*
G75*
G02*
X12450000Y-15772500I0J-75000D01*
G01*
X12450000Y-15922500D01*
G75*
G02*
X12375000Y-15997500I-75000J0D01*
G01*
X11050000Y-15997500D01*
G75*
G02*
X10975000Y-15922500I0J75000D01*
G01*
X10975000Y-15772500D01*
G75*
G02*
X11050000Y-15697500I75000J0D01*
G01*
G37*
G36*
G01*
X11050000Y-15197500D02*
X12375000Y-15197500D01*
G75*
G02*
X12450000Y-15272500I0J-75000D01*
G01*
X12450000Y-15422500D01*
G75*
G02*
X12375000Y-15497500I-75000J0D01*
G01*
X11050000Y-15497500D01*
G75*
G02*
X10975000Y-15422500I0J75000D01*
G01*
X10975000Y-15272500D01*
G75*
G02*
X11050000Y-15197500I75000J0D01*
G01*
G37*
%TD*%
%TO.C,C9*%
G36*
G01*
X14805000Y-9045000D02*
X14805000Y-8735000D01*
G75*
G02*
X14960000Y-8580000I155000J0D01*
G01*
X15385000Y-8580000D01*
G75*
G02*
X15540000Y-8735000I0J-155000D01*
G01*
X15540000Y-9045000D01*
G75*
G02*
X15385000Y-9200000I-155000J0D01*
G01*
X14960000Y-9200000D01*
G75*
G02*
X14805000Y-9045000I0J155000D01*
G01*
G37*
G36*
G01*
X13670000Y-9045000D02*
X13670000Y-8735000D01*
G75*
G02*
X13825000Y-8580000I155000J0D01*
G01*
X14250000Y-8580000D01*
G75*
G02*
X14405000Y-8735000I0J-155000D01*
G01*
X14405000Y-9045000D01*
G75*
G02*
X14250000Y-9200000I-155000J0D01*
G01*
X13825000Y-9200000D01*
G75*
G02*
X13670000Y-9045000I0J155000D01*
G01*
G37*
%TD*%
D10*
%TO.C,J2*%
X2465000Y-1100000D03*
X2465000Y-11600000D03*
D11*
X5675000Y-3600000D03*
X5675000Y-4100000D03*
X5675000Y-4600000D03*
X5675000Y-5100000D03*
X5675000Y-5600000D03*
X5675000Y-7100000D03*
X5675000Y-7600000D03*
X5675000Y-8100000D03*
X5675000Y-8600000D03*
X5675000Y-9100000D03*
X5675000Y-6100000D03*
X5675000Y-6600000D03*
D12*
X5675000Y-10100000D03*
X5675000Y-2600000D03*
%TD*%
D13*
%TO.C,J1*%
X21200000Y-3000000D03*
D14*
X21200000Y-9982500D03*
D15*
X23525000Y-8600000D03*
X23525000Y-8100000D03*
X23525000Y-7600000D03*
X23525000Y-7100000D03*
X23525000Y-6600000D03*
X23525000Y-6100000D03*
X23525000Y-5600000D03*
X23525000Y-5100000D03*
X23525000Y-4600000D03*
X23525000Y-4100000D03*
D16*
X23525000Y-9175000D03*
X23525000Y-3525000D03*
D17*
X23275000Y-2945000D03*
X23275000Y-9755000D03*
%TD*%
%TO.C,U1*%
G36*
G01*
X18078000Y-3213000D02*
X18078000Y-3413000D01*
G75*
G02*
X17978000Y-3513000I-100000J0D01*
G01*
X16703000Y-3513000D01*
G75*
G02*
X16603000Y-3413000I0J100000D01*
G01*
X16603000Y-3213000D01*
G75*
G02*
X16703000Y-3113000I100000J0D01*
G01*
X17978000Y-3113000D01*
G75*
G02*
X18078000Y-3213000I0J-100000D01*
G01*
G37*
G36*
G01*
X18078000Y-3863000D02*
X18078000Y-4063000D01*
G75*
G02*
X17978000Y-4163000I-100000J0D01*
G01*
X16703000Y-4163000D01*
G75*
G02*
X16603000Y-4063000I0J100000D01*
G01*
X16603000Y-3863000D01*
G75*
G02*
X16703000Y-3763000I100000J0D01*
G01*
X17978000Y-3763000D01*
G75*
G02*
X18078000Y-3863000I0J-100000D01*
G01*
G37*
G36*
G01*
X18078000Y-4513000D02*
X18078000Y-4713000D01*
G75*
G02*
X17978000Y-4813000I-100000J0D01*
G01*
X16703000Y-4813000D01*
G75*
G02*
X16603000Y-4713000I0J100000D01*
G01*
X16603000Y-4513000D01*
G75*
G02*
X16703000Y-4413000I100000J0D01*
G01*
X17978000Y-4413000D01*
G75*
G02*
X18078000Y-4513000I0J-100000D01*
G01*
G37*
G36*
G01*
X18078000Y-5163000D02*
X18078000Y-5363000D01*
G75*
G02*
X17978000Y-5463000I-100000J0D01*
G01*
X16703000Y-5463000D01*
G75*
G02*
X16603000Y-5363000I0J100000D01*
G01*
X16603000Y-5163000D01*
G75*
G02*
X16703000Y-5063000I100000J0D01*
G01*
X17978000Y-5063000D01*
G75*
G02*
X18078000Y-5163000I0J-100000D01*
G01*
G37*
G36*
G01*
X18078000Y-5813000D02*
X18078000Y-6013000D01*
G75*
G02*
X17978000Y-6113000I-100000J0D01*
G01*
X16703000Y-6113000D01*
G75*
G02*
X16603000Y-6013000I0J100000D01*
G01*
X16603000Y-5813000D01*
G75*
G02*
X16703000Y-5713000I100000J0D01*
G01*
X17978000Y-5713000D01*
G75*
G02*
X18078000Y-5813000I0J-100000D01*
G01*
G37*
G36*
G01*
X18078000Y-6463000D02*
X18078000Y-6663000D01*
G75*
G02*
X17978000Y-6763000I-100000J0D01*
G01*
X16703000Y-6763000D01*
G75*
G02*
X16603000Y-6663000I0J100000D01*
G01*
X16603000Y-6463000D01*
G75*
G02*
X16703000Y-6363000I100000J0D01*
G01*
X17978000Y-6363000D01*
G75*
G02*
X18078000Y-6463000I0J-100000D01*
G01*
G37*
G36*
G01*
X18078000Y-7113000D02*
X18078000Y-7313000D01*
G75*
G02*
X17978000Y-7413000I-100000J0D01*
G01*
X16703000Y-7413000D01*
G75*
G02*
X16603000Y-7313000I0J100000D01*
G01*
X16603000Y-7113000D01*
G75*
G02*
X16703000Y-7013000I100000J0D01*
G01*
X17978000Y-7013000D01*
G75*
G02*
X18078000Y-7113000I0J-100000D01*
G01*
G37*
G36*
G01*
X18078000Y-7763000D02*
X18078000Y-7963000D01*
G75*
G02*
X17978000Y-8063000I-100000J0D01*
G01*
X16703000Y-8063000D01*
G75*
G02*
X16603000Y-7963000I0J100000D01*
G01*
X16603000Y-7763000D01*
G75*
G02*
X16703000Y-7663000I100000J0D01*
G01*
X17978000Y-7663000D01*
G75*
G02*
X18078000Y-7763000I0J-100000D01*
G01*
G37*
G36*
G01*
X12353000Y-7763000D02*
X12353000Y-7963000D01*
G75*
G02*
X12253000Y-8063000I-100000J0D01*
G01*
X10978000Y-8063000D01*
G75*
G02*
X10878000Y-7963000I0J100000D01*
G01*
X10878000Y-7763000D01*
G75*
G02*
X10978000Y-7663000I100000J0D01*
G01*
X12253000Y-7663000D01*
G75*
G02*
X12353000Y-7763000I0J-100000D01*
G01*
G37*
G36*
G01*
X12353000Y-7113000D02*
X12353000Y-7313000D01*
G75*
G02*
X12253000Y-7413000I-100000J0D01*
G01*
X10978000Y-7413000D01*
G75*
G02*
X10878000Y-7313000I0J100000D01*
G01*
X10878000Y-7113000D01*
G75*
G02*
X10978000Y-7013000I100000J0D01*
G01*
X12253000Y-7013000D01*
G75*
G02*
X12353000Y-7113000I0J-100000D01*
G01*
G37*
G36*
G01*
X12353000Y-6463000D02*
X12353000Y-6663000D01*
G75*
G02*
X12253000Y-6763000I-100000J0D01*
G01*
X10978000Y-6763000D01*
G75*
G02*
X10878000Y-6663000I0J100000D01*
G01*
X10878000Y-6463000D01*
G75*
G02*
X10978000Y-6363000I100000J0D01*
G01*
X12253000Y-6363000D01*
G75*
G02*
X12353000Y-6463000I0J-100000D01*
G01*
G37*
G36*
G01*
X12353000Y-5813000D02*
X12353000Y-6013000D01*
G75*
G02*
X12253000Y-6113000I-100000J0D01*
G01*
X10978000Y-6113000D01*
G75*
G02*
X10878000Y-6013000I0J100000D01*
G01*
X10878000Y-5813000D01*
G75*
G02*
X10978000Y-5713000I100000J0D01*
G01*
X12253000Y-5713000D01*
G75*
G02*
X12353000Y-5813000I0J-100000D01*
G01*
G37*
G36*
G01*
X12353000Y-5163000D02*
X12353000Y-5363000D01*
G75*
G02*
X12253000Y-5463000I-100000J0D01*
G01*
X10978000Y-5463000D01*
G75*
G02*
X10878000Y-5363000I0J100000D01*
G01*
X10878000Y-5163000D01*
G75*
G02*
X10978000Y-5063000I100000J0D01*
G01*
X12253000Y-5063000D01*
G75*
G02*
X12353000Y-5163000I0J-100000D01*
G01*
G37*
G36*
G01*
X12353000Y-4513000D02*
X12353000Y-4713000D01*
G75*
G02*
X12253000Y-4813000I-100000J0D01*
G01*
X10978000Y-4813000D01*
G75*
G02*
X10878000Y-4713000I0J100000D01*
G01*
X10878000Y-4513000D01*
G75*
G02*
X10978000Y-4413000I100000J0D01*
G01*
X12253000Y-4413000D01*
G75*
G02*
X12353000Y-4513000I0J-100000D01*
G01*
G37*
G36*
G01*
X12353000Y-3863000D02*
X12353000Y-4063000D01*
G75*
G02*
X12253000Y-4163000I-100000J0D01*
G01*
X10978000Y-4163000D01*
G75*
G02*
X10878000Y-4063000I0J100000D01*
G01*
X10878000Y-3863000D01*
G75*
G02*
X10978000Y-3763000I100000J0D01*
G01*
X12253000Y-3763000D01*
G75*
G02*
X12353000Y-3863000I0J-100000D01*
G01*
G37*
G36*
G01*
X12353000Y-3213000D02*
X12353000Y-3413000D01*
G75*
G02*
X12253000Y-3513000I-100000J0D01*
G01*
X10978000Y-3513000D01*
G75*
G02*
X10878000Y-3413000I0J100000D01*
G01*
X10878000Y-3213000D01*
G75*
G02*
X10978000Y-3113000I100000J0D01*
G01*
X12253000Y-3113000D01*
G75*
G02*
X12353000Y-3213000I0J-100000D01*
G01*
G37*
%TD*%
D18*
%TO.C,U3*%
X6284000Y-16684000D03*
X4384000Y-16684000D03*
X4384000Y-19384000D03*
X5334000Y-19384000D03*
X6284000Y-19384000D03*
%TD*%
%TO.C,R4*%
G36*
G01*
X19318000Y-24097000D02*
X19318000Y-24417000D01*
G75*
G02*
X19158000Y-24577000I-160000J0D01*
G01*
X18763000Y-24577000D01*
G75*
G02*
X18603000Y-24417000I0J160000D01*
G01*
X18603000Y-24097000D01*
G75*
G02*
X18763000Y-23937000I160000J0D01*
G01*
X19158000Y-23937000D01*
G75*
G02*
X19318000Y-24097000I0J-160000D01*
G01*
G37*
G36*
G01*
X20513000Y-24097000D02*
X20513000Y-24417000D01*
G75*
G02*
X20353000Y-24577000I-160000J0D01*
G01*
X19958000Y-24577000D01*
G75*
G02*
X19798000Y-24417000I0J160000D01*
G01*
X19798000Y-24097000D01*
G75*
G02*
X19958000Y-23937000I160000J0D01*
G01*
X20353000Y-23937000D01*
G75*
G02*
X20513000Y-24097000I0J-160000D01*
G01*
G37*
%TD*%
%TO.C,R3*%
G36*
G01*
X22512000Y-20207000D02*
X22192000Y-20207000D01*
G75*
G02*
X22032000Y-20047000I0J160000D01*
G01*
X22032000Y-19652000D01*
G75*
G02*
X22192000Y-19492000I160000J0D01*
G01*
X22512000Y-19492000D01*
G75*
G02*
X22672000Y-19652000I0J-160000D01*
G01*
X22672000Y-20047000D01*
G75*
G02*
X22512000Y-20207000I-160000J0D01*
G01*
G37*
G36*
G01*
X22512000Y-21402000D02*
X22192000Y-21402000D01*
G75*
G02*
X22032000Y-21242000I0J160000D01*
G01*
X22032000Y-20847000D01*
G75*
G02*
X22192000Y-20687000I160000J0D01*
G01*
X22512000Y-20687000D01*
G75*
G02*
X22672000Y-20847000I0J-160000D01*
G01*
X22672000Y-21242000D01*
G75*
G02*
X22512000Y-21402000I-160000J0D01*
G01*
G37*
%TD*%
%TO.C,R2*%
G36*
G01*
X23763000Y-20922000D02*
X23763000Y-21242000D01*
G75*
G02*
X23603000Y-21402000I-160000J0D01*
G01*
X23208000Y-21402000D01*
G75*
G02*
X23048000Y-21242000I0J160000D01*
G01*
X23048000Y-20922000D01*
G75*
G02*
X23208000Y-20762000I160000J0D01*
G01*
X23603000Y-20762000D01*
G75*
G02*
X23763000Y-20922000I0J-160000D01*
G01*
G37*
G36*
G01*
X24958000Y-20922000D02*
X24958000Y-21242000D01*
G75*
G02*
X24798000Y-21402000I-160000J0D01*
G01*
X24403000Y-21402000D01*
G75*
G02*
X24243000Y-21242000I0J160000D01*
G01*
X24243000Y-20922000D01*
G75*
G02*
X24403000Y-20762000I160000J0D01*
G01*
X24798000Y-20762000D01*
G75*
G02*
X24958000Y-20922000I0J-160000D01*
G01*
G37*
%TD*%
%TO.C,FB1*%
G36*
G01*
X3874000Y-21557000D02*
X3874000Y-21877000D01*
G75*
G02*
X3714000Y-22037000I-160000J0D01*
G01*
X3269000Y-22037000D01*
G75*
G02*
X3109000Y-21877000I0J160000D01*
G01*
X3109000Y-21557000D01*
G75*
G02*
X3269000Y-21397000I160000J0D01*
G01*
X3714000Y-21397000D01*
G75*
G02*
X3874000Y-21557000I0J-160000D01*
G01*
G37*
G36*
G01*
X5019000Y-21557000D02*
X5019000Y-21877000D01*
G75*
G02*
X4859000Y-22037000I-160000J0D01*
G01*
X4414000Y-22037000D01*
G75*
G02*
X4254000Y-21877000I0J160000D01*
G01*
X4254000Y-21557000D01*
G75*
G02*
X4414000Y-21397000I160000J0D01*
G01*
X4859000Y-21397000D01*
G75*
G02*
X5019000Y-21557000I0J-160000D01*
G01*
G37*
%TD*%
D19*
%TO.C,DS1*%
X24237000Y-24195000D03*
X21737000Y-24195000D03*
X21737000Y-22795000D03*
X24237000Y-22795000D03*
%TD*%
D20*
%TO.C,D1*%
X6984000Y-23622000D03*
X3684000Y-23622000D03*
%TD*%
%TO.C,C8*%
G36*
G01*
X11402000Y-22869500D02*
X11712000Y-22869500D01*
G75*
G02*
X11867000Y-23024500I0J-155000D01*
G01*
X11867000Y-23449500D01*
G75*
G02*
X11712000Y-23604500I-155000J0D01*
G01*
X11402000Y-23604500D01*
G75*
G02*
X11247000Y-23449500I0J155000D01*
G01*
X11247000Y-23024500D01*
G75*
G02*
X11402000Y-22869500I155000J0D01*
G01*
G37*
G36*
G01*
X11402000Y-21734500D02*
X11712000Y-21734500D01*
G75*
G02*
X11867000Y-21889500I0J-155000D01*
G01*
X11867000Y-22314500D01*
G75*
G02*
X11712000Y-22469500I-155000J0D01*
G01*
X11402000Y-22469500D01*
G75*
G02*
X11247000Y-22314500I0J155000D01*
G01*
X11247000Y-21889500D01*
G75*
G02*
X11402000Y-21734500I155000J0D01*
G01*
G37*
%TD*%
%TO.C,C7*%
G36*
G01*
X12944500Y-24229000D02*
X12944500Y-24539000D01*
G75*
G02*
X12789500Y-24694000I-155000J0D01*
G01*
X12364500Y-24694000D01*
G75*
G02*
X12209500Y-24539000I0J155000D01*
G01*
X12209500Y-24229000D01*
G75*
G02*
X12364500Y-24074000I155000J0D01*
G01*
X12789500Y-24074000D01*
G75*
G02*
X12944500Y-24229000I0J-155000D01*
G01*
G37*
G36*
G01*
X14079500Y-24229000D02*
X14079500Y-24539000D01*
G75*
G02*
X13924500Y-24694000I-155000J0D01*
G01*
X13499500Y-24694000D01*
G75*
G02*
X13344500Y-24539000I0J155000D01*
G01*
X13344500Y-24229000D01*
G75*
G02*
X13499500Y-24074000I155000J0D01*
G01*
X13924500Y-24074000D01*
G75*
G02*
X14079500Y-24229000I0J-155000D01*
G01*
G37*
%TD*%
%TO.C,C3*%
G36*
G01*
X20038000Y-22679000D02*
X20348000Y-22679000D01*
G75*
G02*
X20503000Y-22834000I0J-155000D01*
G01*
X20503000Y-23259000D01*
G75*
G02*
X20348000Y-23414000I-155000J0D01*
G01*
X20038000Y-23414000D01*
G75*
G02*
X19883000Y-23259000I0J155000D01*
G01*
X19883000Y-22834000D01*
G75*
G02*
X20038000Y-22679000I155000J0D01*
G01*
G37*
G36*
G01*
X20038000Y-21544000D02*
X20348000Y-21544000D01*
G75*
G02*
X20503000Y-21699000I0J-155000D01*
G01*
X20503000Y-22124000D01*
G75*
G02*
X20348000Y-22279000I-155000J0D01*
G01*
X20038000Y-22279000D01*
G75*
G02*
X19883000Y-22124000I0J155000D01*
G01*
X19883000Y-21699000D01*
G75*
G02*
X20038000Y-21544000I155000J0D01*
G01*
G37*
%TD*%
%TO.C,C1*%
G36*
G01*
X6804000Y-21872000D02*
X6804000Y-21562000D01*
G75*
G02*
X6959000Y-21407000I155000J0D01*
G01*
X7384000Y-21407000D01*
G75*
G02*
X7539000Y-21562000I0J-155000D01*
G01*
X7539000Y-21872000D01*
G75*
G02*
X7384000Y-22027000I-155000J0D01*
G01*
X6959000Y-22027000D01*
G75*
G02*
X6804000Y-21872000I0J155000D01*
G01*
G37*
G36*
G01*
X5669000Y-21872000D02*
X5669000Y-21562000D01*
G75*
G02*
X5824000Y-21407000I155000J0D01*
G01*
X6249000Y-21407000D01*
G75*
G02*
X6404000Y-21562000I0J-155000D01*
G01*
X6404000Y-21872000D01*
G75*
G02*
X6249000Y-22027000I-155000J0D01*
G01*
X5824000Y-22027000D01*
G75*
G02*
X5669000Y-21872000I0J155000D01*
G01*
G37*
%TD*%
M02*
