M48
; DRILL file {KiCad (5.1.7)-1} date 11/06/20 21:28:12
; FORMAT={-:-/ absolute / inch / decimal}
; #@! TF.CreationDate,2020-11-06T21:28:12+01:00
; #@! TF.GenerationSoftware,Kicad,Pcbnew,(5.1.7)-1
; #@! TF.FileFunction,Plated,1,4,PTH
FMAT,2
INCH
T1C0.0100
T2C0.0120
T3C0.0217
T4C0.0335
%
G90
G05
T1
X0.11Y-0.54
X0.1575Y-0.595
X0.1925Y-0.545
X0.255Y-0.09
X0.255Y-0.115
X0.255Y-0.385
X0.255Y-0.41
X0.2714Y-0.5906
X0.2983Y-0.5911
X0.3184Y-0.2366
X0.3387Y-0.2007
X0.3439Y-0.261
X0.3676Y-0.5139
X0.405Y-0.415
X0.405Y-0.625
X0.4088Y-0.8166
X0.41Y-0.23
X0.4125Y-0.85
X0.42Y-0.54
X0.4218Y-0.6982
X0.425Y-0.5
X0.44Y-0.335
X0.44Y-0.415
X0.5075Y-0.2525
X0.5239Y-0.7608
X0.545Y-0.505
X0.55Y-0.415
X0.5516Y-0.7888
X0.555Y-0.235
X0.5564Y-0.6183
X0.565Y-0.81
X0.5716Y-0.92
X0.575Y-0.415
X0.575Y-0.635
X0.5775Y-0.305
X0.5969Y-0.2162
X0.5996Y-0.92
X0.6Y-0.415
X0.61Y-0.61
X0.615Y-0.81
X0.625Y-0.415
X0.65Y-0.415
X0.6612Y-0.81
X0.695Y-0.81
X0.725Y-0.64
X0.725Y-0.81
X0.729Y-0.7699
X0.745Y-0.335
X0.745Y-0.93
X0.75Y-0.505
X0.75Y-0.535
X0.755Y-0.58
X0.785Y-0.58
X0.8225Y-0.065
X0.835Y-0.6825
X0.835Y-0.735
X0.84Y-0.6445
X0.84Y-0.235
X0.845Y-0.515
X0.8566Y-0.7684
X0.87Y-0.115
X0.87Y-0.385
X0.9425Y-0.8075
T2
X0.15Y-0.82
X0.185Y-0.7125
X0.2Y-0.0425
X0.2Y-0.455
X0.21Y-0.7125
X0.22Y-0.64
X0.22Y-0.675
X0.235Y-0.7125
X0.2837Y-0.3065
X0.2968Y-0.1818
X0.2986Y-0.3214
X0.3118Y-0.1668
X0.3136Y-0.3364
X0.3268Y-0.1518
X0.35Y-0.6
X0.355Y-0.655
X0.405Y-0.13
X0.405Y-0.155
X0.405Y-0.18
X0.405Y-0.26
X0.405Y-0.285
X0.405Y-0.31
X0.4875Y-0.9275
X0.4898Y-0.8702
X0.505Y-0.285
X0.515Y-0.155
X0.515Y-0.415
X0.5281Y-0.6678
X0.53Y-0.805
X0.545Y-0.31
X0.5575Y-0.1875
X0.575Y-0.705
X0.62Y-0.155
X0.625Y-0.704
X0.6259Y-0.1884
X0.6275Y-0.225
X0.67Y-0.615
X0.68Y-0.705
X0.73Y-0.13
X0.73Y-0.155
X0.73Y-0.18
X0.73Y-0.2225
X0.7675Y-0.9075
X0.77Y-0.26
X0.77Y-0.285
X0.77Y-0.31
X0.775Y-0.84
X0.815Y-0.19
X0.815Y-0.315
X0.835Y-0.315
X0.835Y-0.4225
X0.835Y-0.805
X0.84Y-0.19
X0.855Y-0.315
X0.865Y-0.2
X0.9109Y-0.4827
X0.915Y-0.92
X0.9225Y-0.755
T3
G00X0.0574Y-0.904
M15
G01X0.0574Y-0.9296
M16
G05
G00X0.3626Y-0.904
M15
G01X0.3626Y-0.9296
M16
G05
T4
G00X0.0633Y-0.7563
M15
G01X0.0633Y-0.778
M16
G05
G00X0.3567Y-0.7563
M15
G01X0.3567Y-0.778
M16
G05
T0
M30
