%TF.GenerationSoftware,KiCad,Pcbnew,(5.1.7)-1*%
%TF.CreationDate,2020-11-06T21:26:38+01:00*%
%TF.ProjectId,twonkie,74776f6e-6b69-4652-9e6b-696361645f70,rev?*%
%TF.SameCoordinates,PX448d510PY20b3950*%
%TF.FileFunction,Profile,NP*%
%FSLAX46Y46*%
G04 Gerber Fmt 4.6, Leading zero omitted, Abs format (unit mm)*
G04 Created by KiCad (PCBNEW (5.1.7)-1) date 2020-11-06 21:26:38*
%MOMM*%
%LPD*%
G01*
G04 APERTURE LIST*
%TA.AperFunction,Profile*%
%ADD10C,0.050000*%
%TD*%
%TA.AperFunction,Profile*%
%ADD11C,0.100000*%
%TD*%
G04 APERTURE END LIST*
D10*
X25400000Y-25400000D02*
X0Y-25400000D01*
X25400000Y-10650000D02*
X25400000Y-25400000D01*
X25400000Y0D02*
X0Y0D01*
X25400000Y-2225000D02*
X25400000Y0D01*
X0Y-10795000D02*
X0Y-25400000D01*
X5207000Y-10795000D02*
X0Y-10795000D01*
X5207000Y-1905000D02*
X5207000Y-10795000D01*
X0Y-1905000D02*
X5207000Y-1905000D01*
X0Y0D02*
X0Y-1905000D01*
D11*
%TO.C,J1*%
X22150000Y-10250000D02*
X22150000Y-10650000D01*
X24250000Y-10250000D02*
X22150000Y-10250000D01*
X24750000Y-9950000D02*
X24250000Y-10250000D01*
X25000000Y-6650000D02*
X25200000Y-6650000D01*
X25400000Y-6850000D02*
X25400000Y-9100000D01*
X25200000Y-9300000D02*
X24950000Y-9300000D01*
X24750000Y-9500000D02*
X24750000Y-9950000D01*
X25400000Y-3600000D02*
X25400000Y-5050000D01*
X25200000Y-5250000D02*
X25000000Y-5250000D01*
X24800000Y-5450000D02*
X24800000Y-6450000D01*
X24750000Y-2750000D02*
X24750000Y-3200000D01*
X24950000Y-3400000D02*
X25200000Y-3400000D01*
X24750000Y-2750000D02*
X24250000Y-2450000D01*
X24250000Y-2450000D02*
X21250000Y-2450000D01*
X21250000Y-2450000D02*
X21250000Y-2225000D01*
X22150000Y-10650000D02*
X25400000Y-10650000D01*
X21250000Y-2225000D02*
X25400000Y-2225000D01*
X25200000Y-3400000D02*
G75*
G02*
X25400000Y-3600000I0J-200000D01*
G01*
X24750000Y-3200000D02*
G75*
G03*
X24950000Y-3400000I200000J0D01*
G01*
X24800000Y-6450000D02*
G75*
G03*
X25000000Y-6650000I200000J0D01*
G01*
X25000000Y-5250000D02*
G75*
G03*
X24800000Y-5450000I0J-200000D01*
G01*
X25400000Y-5050000D02*
G75*
G02*
X25200000Y-5250000I-200000J0D01*
G01*
X24950000Y-9300000D02*
G75*
G03*
X24750000Y-9500000I0J-200000D01*
G01*
X25400000Y-9100000D02*
G75*
G02*
X25200000Y-9300000I-200000J0D01*
G01*
X25200000Y-6650000D02*
G75*
G02*
X25400000Y-6850000I0J-200000D01*
G01*
%TD*%
M02*
