%TF.GenerationSoftware,KiCad,Pcbnew,(5.1.7)-1*%
%TF.CreationDate,2020-11-06T21:26:38+01:00*%
%TF.ProjectId,twonkie,74776f6e-6b69-4652-9e6b-696361645f70,rev?*%
%TF.SameCoordinates,PX448d510PY20b3950*%
%TF.FileFunction,Legend,Top*%
%TF.FilePolarity,Positive*%
%FSLAX46Y46*%
G04 Gerber Fmt 4.6, Leading zero omitted, Abs format (unit mm)*
G04 Created by KiCad (PCBNEW (5.1.7)-1) date 2020-11-06 21:26:38*
%MOMM*%
%LPD*%
G01*
G04 APERTURE LIST*
%ADD10C,0.127000*%
%ADD11C,0.120000*%
%ADD12C,0.150000*%
%ADD13C,0.200000*%
G04 APERTURE END LIST*
D10*
X22396450Y-979714D02*
X22577878Y-1487714D01*
X22759307Y-979714D01*
X23194735Y-725714D02*
X23267307Y-725714D01*
X23339878Y-762000D01*
X23376164Y-798285D01*
X23412450Y-870857D01*
X23448735Y-1016000D01*
X23448735Y-1197428D01*
X23412450Y-1342571D01*
X23376164Y-1415142D01*
X23339878Y-1451428D01*
X23267307Y-1487714D01*
X23194735Y-1487714D01*
X23122164Y-1451428D01*
X23085878Y-1415142D01*
X23049592Y-1342571D01*
X23013307Y-1197428D01*
X23013307Y-1016000D01*
X23049592Y-870857D01*
X23085878Y-798285D01*
X23122164Y-762000D01*
X23194735Y-725714D01*
X23775307Y-1415142D02*
X23811592Y-1451428D01*
X23775307Y-1487714D01*
X23739021Y-1451428D01*
X23775307Y-1415142D01*
X23775307Y-1487714D01*
X24174450Y-1487714D02*
X24319592Y-1487714D01*
X24392164Y-1451428D01*
X24428450Y-1415142D01*
X24501021Y-1306285D01*
X24537307Y-1161142D01*
X24537307Y-870857D01*
X24501021Y-798285D01*
X24464735Y-762000D01*
X24392164Y-725714D01*
X24247021Y-725714D01*
X24174450Y-762000D01*
X24138164Y-798285D01*
X24101878Y-870857D01*
X24101878Y-1052285D01*
X24138164Y-1124857D01*
X24174450Y-1161142D01*
X24247021Y-1197428D01*
X24392164Y-1197428D01*
X24464735Y-1161142D01*
X24501021Y-1124857D01*
X24537307Y-1052285D01*
X6803571Y-725714D02*
X7239000Y-725714D01*
X7021285Y-1487714D02*
X7021285Y-725714D01*
X7420428Y-979714D02*
X7565571Y-1487714D01*
X7710714Y-1124857D01*
X7855857Y-1487714D01*
X8001000Y-979714D01*
X8400142Y-1487714D02*
X8327571Y-1451428D01*
X8291285Y-1415142D01*
X8255000Y-1342571D01*
X8255000Y-1124857D01*
X8291285Y-1052285D01*
X8327571Y-1016000D01*
X8400142Y-979714D01*
X8509000Y-979714D01*
X8581571Y-1016000D01*
X8617857Y-1052285D01*
X8654142Y-1124857D01*
X8654142Y-1342571D01*
X8617857Y-1415142D01*
X8581571Y-1451428D01*
X8509000Y-1487714D01*
X8400142Y-1487714D01*
X8980714Y-979714D02*
X8980714Y-1487714D01*
X8980714Y-1052285D02*
X9017000Y-1016000D01*
X9089571Y-979714D01*
X9198428Y-979714D01*
X9271000Y-1016000D01*
X9307285Y-1088571D01*
X9307285Y-1487714D01*
X9670142Y-1487714D02*
X9670142Y-725714D01*
X9742714Y-1197428D02*
X9960428Y-1487714D01*
X9960428Y-979714D02*
X9670142Y-1270000D01*
X10287000Y-1487714D02*
X10287000Y-979714D01*
X10287000Y-725714D02*
X10250714Y-762000D01*
X10287000Y-798285D01*
X10323285Y-762000D01*
X10287000Y-725714D01*
X10287000Y-798285D01*
X10940142Y-1451428D02*
X10867571Y-1487714D01*
X10722428Y-1487714D01*
X10649857Y-1451428D01*
X10613571Y-1378857D01*
X10613571Y-1088571D01*
X10649857Y-1016000D01*
X10722428Y-979714D01*
X10867571Y-979714D01*
X10940142Y-1016000D01*
X10976428Y-1088571D01*
X10976428Y-1161142D01*
X10613571Y-1233714D01*
X11883571Y-725714D02*
X11883571Y-1342571D01*
X11919857Y-1415142D01*
X11956142Y-1451428D01*
X12028714Y-1487714D01*
X12173857Y-1487714D01*
X12246428Y-1451428D01*
X12282714Y-1415142D01*
X12319000Y-1342571D01*
X12319000Y-725714D01*
X12645571Y-1451428D02*
X12754428Y-1487714D01*
X12935857Y-1487714D01*
X13008428Y-1451428D01*
X13044714Y-1415142D01*
X13081000Y-1342571D01*
X13081000Y-1270000D01*
X13044714Y-1197428D01*
X13008428Y-1161142D01*
X12935857Y-1124857D01*
X12790714Y-1088571D01*
X12718142Y-1052285D01*
X12681857Y-1016000D01*
X12645571Y-943428D01*
X12645571Y-870857D01*
X12681857Y-798285D01*
X12718142Y-762000D01*
X12790714Y-725714D01*
X12972142Y-725714D01*
X13081000Y-762000D01*
X13661571Y-1088571D02*
X13770428Y-1124857D01*
X13806714Y-1161142D01*
X13843000Y-1233714D01*
X13843000Y-1342571D01*
X13806714Y-1415142D01*
X13770428Y-1451428D01*
X13697857Y-1487714D01*
X13407571Y-1487714D01*
X13407571Y-725714D01*
X13661571Y-725714D01*
X13734142Y-762000D01*
X13770428Y-798285D01*
X13806714Y-870857D01*
X13806714Y-943428D01*
X13770428Y-1016000D01*
X13734142Y-1052285D01*
X13661571Y-1088571D01*
X13407571Y-1088571D01*
X14750142Y-1487714D02*
X14750142Y-725714D01*
X15040428Y-725714D01*
X15113000Y-762000D01*
X15149285Y-798285D01*
X15185571Y-870857D01*
X15185571Y-979714D01*
X15149285Y-1052285D01*
X15113000Y-1088571D01*
X15040428Y-1124857D01*
X14750142Y-1124857D01*
X15512142Y-1487714D02*
X15512142Y-725714D01*
X15693571Y-725714D01*
X15802428Y-762000D01*
X15875000Y-834571D01*
X15911285Y-907142D01*
X15947571Y-1052285D01*
X15947571Y-1161142D01*
X15911285Y-1306285D01*
X15875000Y-1378857D01*
X15802428Y-1451428D01*
X15693571Y-1487714D01*
X15512142Y-1487714D01*
X16818428Y-1451428D02*
X16927285Y-1487714D01*
X17108714Y-1487714D01*
X17181285Y-1451428D01*
X17217571Y-1415142D01*
X17253857Y-1342571D01*
X17253857Y-1270000D01*
X17217571Y-1197428D01*
X17181285Y-1161142D01*
X17108714Y-1124857D01*
X16963571Y-1088571D01*
X16891000Y-1052285D01*
X16854714Y-1016000D01*
X16818428Y-943428D01*
X16818428Y-870857D01*
X16854714Y-798285D01*
X16891000Y-762000D01*
X16963571Y-725714D01*
X17145000Y-725714D01*
X17253857Y-762000D01*
X17580428Y-979714D02*
X17580428Y-1487714D01*
X17580428Y-1052285D02*
X17616714Y-1016000D01*
X17689285Y-979714D01*
X17798142Y-979714D01*
X17870714Y-1016000D01*
X17907000Y-1088571D01*
X17907000Y-1487714D01*
X18269857Y-1487714D02*
X18269857Y-979714D01*
X18269857Y-725714D02*
X18233571Y-762000D01*
X18269857Y-798285D01*
X18306142Y-762000D01*
X18269857Y-725714D01*
X18269857Y-798285D01*
X18523857Y-979714D02*
X18814142Y-979714D01*
X18632714Y-1487714D02*
X18632714Y-834571D01*
X18669000Y-762000D01*
X18741571Y-725714D01*
X18814142Y-725714D01*
X18959285Y-979714D02*
X19249571Y-979714D01*
X19068142Y-1487714D02*
X19068142Y-834571D01*
X19104428Y-762000D01*
X19177000Y-725714D01*
X19249571Y-725714D01*
X19793857Y-1451428D02*
X19721285Y-1487714D01*
X19576142Y-1487714D01*
X19503571Y-1451428D01*
X19467285Y-1378857D01*
X19467285Y-1088571D01*
X19503571Y-1016000D01*
X19576142Y-979714D01*
X19721285Y-979714D01*
X19793857Y-1016000D01*
X19830142Y-1088571D01*
X19830142Y-1161142D01*
X19467285Y-1233714D01*
X20156714Y-1487714D02*
X20156714Y-979714D01*
X20156714Y-1124857D02*
X20193000Y-1052285D01*
X20229285Y-1016000D01*
X20301857Y-979714D01*
X20374428Y-979714D01*
D11*
%TO.C,Q3*%
X10031500Y-12971000D02*
X11431500Y-12971000D01*
X11431500Y-10651000D02*
X9531500Y-10651000D01*
%TO.C,C2*%
X14641565Y-18736900D02*
X14873235Y-18736900D01*
X14641565Y-18016900D02*
X14873235Y-18016900D01*
%TO.C,C4*%
X14641565Y-17733600D02*
X14873235Y-17733600D01*
X14641565Y-17013600D02*
X14873235Y-17013600D01*
D12*
%TO.C,J3*%
X7134000Y-18936000D02*
X8134000Y-18936000D01*
X3534000Y-18936000D02*
X2534000Y-18936000D01*
X3534000Y-18511000D02*
X3534000Y-18936000D01*
X4259000Y-18511000D02*
X3534000Y-18511000D01*
X9484000Y-22086000D02*
X9484000Y-20686000D01*
X9484000Y-24636000D02*
X9484000Y-24486000D01*
X9184000Y-24636000D02*
X9484000Y-24636000D01*
X9184000Y-25086000D02*
X9184000Y-24636000D01*
X1484000Y-24636000D02*
X1484000Y-25086000D01*
X1184000Y-24636000D02*
X1484000Y-24636000D01*
X1184000Y-24486000D02*
X1184000Y-24636000D01*
X1184000Y-20686000D02*
X1184000Y-22086000D01*
D11*
%TO.C,R14*%
X1800879Y-16763000D02*
X2136121Y-16763000D01*
X1800879Y-16003000D02*
X2136121Y-16003000D01*
%TO.C,R16*%
X13294379Y-12064000D02*
X13629621Y-12064000D01*
X13294379Y-11304000D02*
X13629621Y-11304000D01*
%TO.C,SW1*%
X24727500Y-15052000D02*
X25377500Y-15052000D01*
X25377500Y-15052000D02*
X25377500Y-16952000D01*
X25377500Y-16952000D02*
X24727500Y-16952000D01*
X21627500Y-17752000D02*
X21627500Y-14252000D01*
X24727500Y-14252000D02*
X24727500Y-17752000D01*
D13*
%TO.C,J1*%
X22250000Y-3525000D02*
G75*
G03*
X22250000Y-3525000I-100000J0D01*
G01*
D10*
X24750000Y-9950000D02*
X24750000Y-9500000D01*
X24950000Y-9300000D02*
X25200000Y-9300000D01*
X25400000Y-9100000D02*
X25400000Y-6850000D01*
X25200000Y-6650000D02*
X25000000Y-6650000D01*
X24800000Y-6450000D02*
X24800000Y-5450000D01*
X25000000Y-5250000D02*
X25200000Y-5250000D01*
X25400000Y-5050000D02*
X25400000Y-3600000D01*
X25200000Y-3400000D02*
X24950000Y-3400000D01*
X24750000Y-3200000D02*
X24750000Y-2750000D01*
X24250000Y-10250000D02*
X21250000Y-10250000D01*
X24250000Y-2450000D02*
X21250000Y-2450000D01*
X24950000Y-3400000D02*
G75*
G02*
X24750000Y-3200000I0J200000D01*
G01*
X25400000Y-3600000D02*
G75*
G03*
X25200000Y-3400000I-200000J0D01*
G01*
X25200000Y-5250000D02*
G75*
G03*
X25400000Y-5050000I0J200000D01*
G01*
X24800000Y-5450000D02*
G75*
G02*
X25000000Y-5250000I200000J0D01*
G01*
X25000000Y-6650000D02*
G75*
G02*
X24800000Y-6450000I0J200000D01*
G01*
X25400000Y-6850000D02*
G75*
G03*
X25200000Y-6650000I-200000J0D01*
G01*
X25200000Y-9300000D02*
G75*
G03*
X25400000Y-9100000I0J200000D01*
G01*
X24750000Y-9500000D02*
G75*
G02*
X24950000Y-9300000I200000J0D01*
G01*
D11*
%TO.C,U2*%
X14478000Y-2853000D02*
X12278000Y-2853000D01*
X14478000Y-2853000D02*
X16678000Y-2853000D01*
X14478000Y-8323000D02*
X12278000Y-8323000D01*
X14478000Y-8323000D02*
X18078000Y-8323000D01*
%TO.C,U5*%
X18161000Y-11280500D02*
X15236000Y-11280500D01*
X18161000Y-11280500D02*
X19661000Y-11280500D01*
X18161000Y-14500500D02*
X16661000Y-14500500D01*
X18161000Y-14500500D02*
X19661000Y-14500500D01*
%TO.C,R23*%
X12574000Y-13167379D02*
X12574000Y-13502621D01*
X13334000Y-13167379D02*
X13334000Y-13502621D01*
%TO.C,R22*%
X10581621Y-16257000D02*
X10246379Y-16257000D01*
X10581621Y-17017000D02*
X10246379Y-17017000D01*
%TO.C,R21*%
X18098500Y-21739879D02*
X18098500Y-22075121D01*
X18858500Y-21739879D02*
X18858500Y-22075121D01*
%TO.C,R20*%
X17082500Y-21739879D02*
X17082500Y-22075121D01*
X17842500Y-21739879D02*
X17842500Y-22075121D01*
%TO.C,R19*%
X16066500Y-21739879D02*
X16066500Y-22075121D01*
X16826500Y-21739879D02*
X16826500Y-22075121D01*
%TO.C,R18*%
X15050500Y-21739879D02*
X15050500Y-22075121D01*
X15810500Y-21739879D02*
X15810500Y-22075121D01*
%TO.C,R17*%
X14034500Y-21739879D02*
X14034500Y-22075121D01*
X14794500Y-21739879D02*
X14794500Y-22075121D01*
%TO.C,R15*%
X3112500Y-13548379D02*
X3112500Y-13883621D01*
X3872500Y-13548379D02*
X3872500Y-13883621D01*
%TO.C,R13*%
X4888500Y-13883621D02*
X4888500Y-13548379D01*
X4128500Y-13883621D02*
X4128500Y-13548379D01*
%TO.C,R12*%
X5904500Y-13883621D02*
X5904500Y-13548379D01*
X5144500Y-13883621D02*
X5144500Y-13548379D01*
%TO.C,R11*%
X6920500Y-13883621D02*
X6920500Y-13548379D01*
X6160500Y-13883621D02*
X6160500Y-13548379D01*
%TO.C,R10*%
X7936500Y-13883621D02*
X7936500Y-13548379D01*
X7176500Y-13883621D02*
X7176500Y-13548379D01*
%TO.C,R9*%
X8952500Y-13883621D02*
X8952500Y-13548379D01*
X8192500Y-13883621D02*
X8192500Y-13548379D01*
%TO.C,R8*%
X8105121Y-11621500D02*
X7769879Y-11621500D01*
X8105121Y-12381500D02*
X7769879Y-12381500D01*
%TO.C,R7*%
X19725621Y-23877000D02*
X19390379Y-23877000D01*
X19725621Y-24637000D02*
X19390379Y-24637000D01*
%TO.C,R6*%
X22732000Y-20614621D02*
X22732000Y-20279379D01*
X21972000Y-20614621D02*
X21972000Y-20279379D01*
%TO.C,R5*%
X24170621Y-20702000D02*
X23835379Y-20702000D01*
X24170621Y-21462000D02*
X23835379Y-21462000D01*
%TO.C,R1*%
X23835379Y-20192000D02*
X24170621Y-20192000D01*
X23835379Y-19432000D02*
X24170621Y-19432000D01*
%TO.C,Q2*%
X11431500Y-13508500D02*
X10031500Y-13508500D01*
X10031500Y-15828500D02*
X11931500Y-15828500D01*
%TO.C,Q1*%
X364000Y-13524000D02*
X364000Y-14924000D01*
X2684000Y-14924000D02*
X2684000Y-13024000D01*
%TO.C,FB2*%
X18013000Y-15848200D02*
X18013000Y-15647800D01*
X17293000Y-15848200D02*
X17293000Y-15647800D01*
%TO.C,DS2*%
X24937000Y-21995000D02*
X21037000Y-21995000D01*
X24937000Y-24995000D02*
X21037000Y-24995000D01*
X24937000Y-24195000D02*
X24937000Y-24995000D01*
%TO.C,C6*%
X17108435Y-17013600D02*
X16876765Y-17013600D01*
X17108435Y-17733600D02*
X16876765Y-17733600D01*
%TO.C,C5*%
X17108435Y-18016900D02*
X16876765Y-18016900D01*
X17108435Y-18736900D02*
X16876765Y-18736900D01*
%TO.C,*%
D12*
%TO.C,Q3*%
D10*
X9261928Y-10513785D02*
X9189357Y-10477500D01*
X9116785Y-10404928D01*
X9007928Y-10296071D01*
X8935357Y-10259785D01*
X8862785Y-10259785D01*
X8899071Y-10441214D02*
X8826500Y-10404928D01*
X8753928Y-10332357D01*
X8717642Y-10187214D01*
X8717642Y-9933214D01*
X8753928Y-9788071D01*
X8826500Y-9715500D01*
X8899071Y-9679214D01*
X9044214Y-9679214D01*
X9116785Y-9715500D01*
X9189357Y-9788071D01*
X9225642Y-9933214D01*
X9225642Y-10187214D01*
X9189357Y-10332357D01*
X9116785Y-10404928D01*
X9044214Y-10441214D01*
X8899071Y-10441214D01*
X9479642Y-9679214D02*
X9951357Y-9679214D01*
X9697357Y-9969500D01*
X9806214Y-9969500D01*
X9878785Y-10005785D01*
X9915071Y-10042071D01*
X9951357Y-10114642D01*
X9951357Y-10296071D01*
X9915071Y-10368642D01*
X9878785Y-10404928D01*
X9806214Y-10441214D01*
X9588500Y-10441214D01*
X9515928Y-10404928D01*
X9479642Y-10368642D01*
%TO.C,C2*%
X14859000Y-19703142D02*
X14822714Y-19739428D01*
X14713857Y-19775714D01*
X14641285Y-19775714D01*
X14532428Y-19739428D01*
X14459857Y-19666857D01*
X14423571Y-19594285D01*
X14387285Y-19449142D01*
X14387285Y-19340285D01*
X14423571Y-19195142D01*
X14459857Y-19122571D01*
X14532428Y-19050000D01*
X14641285Y-19013714D01*
X14713857Y-19013714D01*
X14822714Y-19050000D01*
X14859000Y-19086285D01*
X15149285Y-19086285D02*
X15185571Y-19050000D01*
X15258142Y-19013714D01*
X15439571Y-19013714D01*
X15512142Y-19050000D01*
X15548428Y-19086285D01*
X15584714Y-19158857D01*
X15584714Y-19231428D01*
X15548428Y-19340285D01*
X15113000Y-19775714D01*
X15584714Y-19775714D01*
%TO.C,C4*%
X14732000Y-16655142D02*
X14695714Y-16691428D01*
X14586857Y-16727714D01*
X14514285Y-16727714D01*
X14405428Y-16691428D01*
X14332857Y-16618857D01*
X14296571Y-16546285D01*
X14260285Y-16401142D01*
X14260285Y-16292285D01*
X14296571Y-16147142D01*
X14332857Y-16074571D01*
X14405428Y-16002000D01*
X14514285Y-15965714D01*
X14586857Y-15965714D01*
X14695714Y-16002000D01*
X14732000Y-16038285D01*
X15385142Y-16219714D02*
X15385142Y-16727714D01*
X15203714Y-15929428D02*
X15022285Y-16473714D01*
X15494000Y-16473714D01*
%TO.C,R14*%
X1415142Y-17807214D02*
X1161142Y-17444357D01*
X979714Y-17807214D02*
X979714Y-17045214D01*
X1270000Y-17045214D01*
X1342571Y-17081500D01*
X1378857Y-17117785D01*
X1415142Y-17190357D01*
X1415142Y-17299214D01*
X1378857Y-17371785D01*
X1342571Y-17408071D01*
X1270000Y-17444357D01*
X979714Y-17444357D01*
X2140857Y-17807214D02*
X1705428Y-17807214D01*
X1923142Y-17807214D02*
X1923142Y-17045214D01*
X1850571Y-17154071D01*
X1778000Y-17226642D01*
X1705428Y-17262928D01*
X2794000Y-17299214D02*
X2794000Y-17807214D01*
X2612571Y-17008928D02*
X2431142Y-17553214D01*
X2902857Y-17553214D01*
%TO.C,R16*%
X12718142Y-10758714D02*
X12464142Y-10395857D01*
X12282714Y-10758714D02*
X12282714Y-9996714D01*
X12573000Y-9996714D01*
X12645571Y-10033000D01*
X12681857Y-10069285D01*
X12718142Y-10141857D01*
X12718142Y-10250714D01*
X12681857Y-10323285D01*
X12645571Y-10359571D01*
X12573000Y-10395857D01*
X12282714Y-10395857D01*
X13443857Y-10758714D02*
X13008428Y-10758714D01*
X13226142Y-10758714D02*
X13226142Y-9996714D01*
X13153571Y-10105571D01*
X13081000Y-10178142D01*
X13008428Y-10214428D01*
X14097000Y-9996714D02*
X13951857Y-9996714D01*
X13879285Y-10033000D01*
X13843000Y-10069285D01*
X13770428Y-10178142D01*
X13734142Y-10323285D01*
X13734142Y-10613571D01*
X13770428Y-10686142D01*
X13806714Y-10722428D01*
X13879285Y-10758714D01*
X14024428Y-10758714D01*
X14097000Y-10722428D01*
X14133285Y-10686142D01*
X14169571Y-10613571D01*
X14169571Y-10432142D01*
X14133285Y-10359571D01*
X14097000Y-10323285D01*
X14024428Y-10287000D01*
X13879285Y-10287000D01*
X13806714Y-10323285D01*
X13770428Y-10359571D01*
X13734142Y-10432142D01*
%TO.C,SW1*%
X24628928Y-13081000D02*
X24665214Y-12972142D01*
X24665214Y-12790714D01*
X24628928Y-12718142D01*
X24592642Y-12681857D01*
X24520071Y-12645571D01*
X24447500Y-12645571D01*
X24374928Y-12681857D01*
X24338642Y-12718142D01*
X24302357Y-12790714D01*
X24266071Y-12935857D01*
X24229785Y-13008428D01*
X24193500Y-13044714D01*
X24120928Y-13081000D01*
X24048357Y-13081000D01*
X23975785Y-13044714D01*
X23939500Y-13008428D01*
X23903214Y-12935857D01*
X23903214Y-12754428D01*
X23939500Y-12645571D01*
X23903214Y-12391571D02*
X24665214Y-12210142D01*
X24120928Y-12065000D01*
X24665214Y-11919857D01*
X23903214Y-11738428D01*
X24665214Y-11049000D02*
X24665214Y-11484428D01*
X24665214Y-11266714D02*
X23903214Y-11266714D01*
X24012071Y-11339285D01*
X24084642Y-11411857D01*
X24120928Y-11484428D01*
%TO.C,U2*%
X16818428Y-8599714D02*
X16818428Y-9216571D01*
X16854714Y-9289142D01*
X16891000Y-9325428D01*
X16963571Y-9361714D01*
X17108714Y-9361714D01*
X17181285Y-9325428D01*
X17217571Y-9289142D01*
X17253857Y-9216571D01*
X17253857Y-8599714D01*
X17580428Y-8672285D02*
X17616714Y-8636000D01*
X17689285Y-8599714D01*
X17870714Y-8599714D01*
X17943285Y-8636000D01*
X17979571Y-8672285D01*
X18015857Y-8744857D01*
X18015857Y-8817428D01*
X17979571Y-8926285D01*
X17544142Y-9361714D01*
X18015857Y-9361714D01*
%TO.C,U5*%
X14913428Y-9996714D02*
X14913428Y-10613571D01*
X14949714Y-10686142D01*
X14986000Y-10722428D01*
X15058571Y-10758714D01*
X15203714Y-10758714D01*
X15276285Y-10722428D01*
X15312571Y-10686142D01*
X15348857Y-10613571D01*
X15348857Y-9996714D01*
X16074571Y-9996714D02*
X15711714Y-9996714D01*
X15675428Y-10359571D01*
X15711714Y-10323285D01*
X15784285Y-10287000D01*
X15965714Y-10287000D01*
X16038285Y-10323285D01*
X16074571Y-10359571D01*
X16110857Y-10432142D01*
X16110857Y-10613571D01*
X16074571Y-10686142D01*
X16038285Y-10722428D01*
X15965714Y-10758714D01*
X15784285Y-10758714D01*
X15711714Y-10722428D01*
X15675428Y-10686142D01*
%TO.C,R23*%
X14251214Y-13824857D02*
X13888357Y-14078857D01*
X14251214Y-14260285D02*
X13489214Y-14260285D01*
X13489214Y-13970000D01*
X13525500Y-13897428D01*
X13561785Y-13861142D01*
X13634357Y-13824857D01*
X13743214Y-13824857D01*
X13815785Y-13861142D01*
X13852071Y-13897428D01*
X13888357Y-13970000D01*
X13888357Y-14260285D01*
X13561785Y-13534571D02*
X13525500Y-13498285D01*
X13489214Y-13425714D01*
X13489214Y-13244285D01*
X13525500Y-13171714D01*
X13561785Y-13135428D01*
X13634357Y-13099142D01*
X13706928Y-13099142D01*
X13815785Y-13135428D01*
X14251214Y-13570857D01*
X14251214Y-13099142D01*
X13489214Y-12845142D02*
X13489214Y-12373428D01*
X13779500Y-12627428D01*
X13779500Y-12518571D01*
X13815785Y-12446000D01*
X13852071Y-12409714D01*
X13924642Y-12373428D01*
X14106071Y-12373428D01*
X14178642Y-12409714D01*
X14214928Y-12446000D01*
X14251214Y-12518571D01*
X14251214Y-12736285D01*
X14214928Y-12808857D01*
X14178642Y-12845142D01*
%TO.C,R22*%
X9797142Y-17997714D02*
X9543142Y-17634857D01*
X9361714Y-17997714D02*
X9361714Y-17235714D01*
X9652000Y-17235714D01*
X9724571Y-17272000D01*
X9760857Y-17308285D01*
X9797142Y-17380857D01*
X9797142Y-17489714D01*
X9760857Y-17562285D01*
X9724571Y-17598571D01*
X9652000Y-17634857D01*
X9361714Y-17634857D01*
X10087428Y-17308285D02*
X10123714Y-17272000D01*
X10196285Y-17235714D01*
X10377714Y-17235714D01*
X10450285Y-17272000D01*
X10486571Y-17308285D01*
X10522857Y-17380857D01*
X10522857Y-17453428D01*
X10486571Y-17562285D01*
X10051142Y-17997714D01*
X10522857Y-17997714D01*
X10813142Y-17308285D02*
X10849428Y-17272000D01*
X10922000Y-17235714D01*
X11103428Y-17235714D01*
X11176000Y-17272000D01*
X11212285Y-17308285D01*
X11248571Y-17380857D01*
X11248571Y-17453428D01*
X11212285Y-17562285D01*
X10776857Y-17997714D01*
X11248571Y-17997714D01*
%TO.C,R21*%
X18505714Y-24619857D02*
X18142857Y-24873857D01*
X18505714Y-25055285D02*
X17743714Y-25055285D01*
X17743714Y-24765000D01*
X17780000Y-24692428D01*
X17816285Y-24656142D01*
X17888857Y-24619857D01*
X17997714Y-24619857D01*
X18070285Y-24656142D01*
X18106571Y-24692428D01*
X18142857Y-24765000D01*
X18142857Y-25055285D01*
X17816285Y-24329571D02*
X17780000Y-24293285D01*
X17743714Y-24220714D01*
X17743714Y-24039285D01*
X17780000Y-23966714D01*
X17816285Y-23930428D01*
X17888857Y-23894142D01*
X17961428Y-23894142D01*
X18070285Y-23930428D01*
X18505714Y-24365857D01*
X18505714Y-23894142D01*
X18505714Y-23168428D02*
X18505714Y-23603857D01*
X18505714Y-23386142D02*
X17743714Y-23386142D01*
X17852571Y-23458714D01*
X17925142Y-23531285D01*
X17961428Y-23603857D01*
%TO.C,R20*%
X17489714Y-24619857D02*
X17126857Y-24873857D01*
X17489714Y-25055285D02*
X16727714Y-25055285D01*
X16727714Y-24765000D01*
X16764000Y-24692428D01*
X16800285Y-24656142D01*
X16872857Y-24619857D01*
X16981714Y-24619857D01*
X17054285Y-24656142D01*
X17090571Y-24692428D01*
X17126857Y-24765000D01*
X17126857Y-25055285D01*
X16800285Y-24329571D02*
X16764000Y-24293285D01*
X16727714Y-24220714D01*
X16727714Y-24039285D01*
X16764000Y-23966714D01*
X16800285Y-23930428D01*
X16872857Y-23894142D01*
X16945428Y-23894142D01*
X17054285Y-23930428D01*
X17489714Y-24365857D01*
X17489714Y-23894142D01*
X16727714Y-23422428D02*
X16727714Y-23349857D01*
X16764000Y-23277285D01*
X16800285Y-23241000D01*
X16872857Y-23204714D01*
X17018000Y-23168428D01*
X17199428Y-23168428D01*
X17344571Y-23204714D01*
X17417142Y-23241000D01*
X17453428Y-23277285D01*
X17489714Y-23349857D01*
X17489714Y-23422428D01*
X17453428Y-23495000D01*
X17417142Y-23531285D01*
X17344571Y-23567571D01*
X17199428Y-23603857D01*
X17018000Y-23603857D01*
X16872857Y-23567571D01*
X16800285Y-23531285D01*
X16764000Y-23495000D01*
X16727714Y-23422428D01*
%TO.C,R19*%
X16473714Y-24619857D02*
X16110857Y-24873857D01*
X16473714Y-25055285D02*
X15711714Y-25055285D01*
X15711714Y-24765000D01*
X15748000Y-24692428D01*
X15784285Y-24656142D01*
X15856857Y-24619857D01*
X15965714Y-24619857D01*
X16038285Y-24656142D01*
X16074571Y-24692428D01*
X16110857Y-24765000D01*
X16110857Y-25055285D01*
X16473714Y-23894142D02*
X16473714Y-24329571D01*
X16473714Y-24111857D02*
X15711714Y-24111857D01*
X15820571Y-24184428D01*
X15893142Y-24257000D01*
X15929428Y-24329571D01*
X16473714Y-23531285D02*
X16473714Y-23386142D01*
X16437428Y-23313571D01*
X16401142Y-23277285D01*
X16292285Y-23204714D01*
X16147142Y-23168428D01*
X15856857Y-23168428D01*
X15784285Y-23204714D01*
X15748000Y-23241000D01*
X15711714Y-23313571D01*
X15711714Y-23458714D01*
X15748000Y-23531285D01*
X15784285Y-23567571D01*
X15856857Y-23603857D01*
X16038285Y-23603857D01*
X16110857Y-23567571D01*
X16147142Y-23531285D01*
X16183428Y-23458714D01*
X16183428Y-23313571D01*
X16147142Y-23241000D01*
X16110857Y-23204714D01*
X16038285Y-23168428D01*
%TO.C,R18*%
X15457714Y-24619857D02*
X15094857Y-24873857D01*
X15457714Y-25055285D02*
X14695714Y-25055285D01*
X14695714Y-24765000D01*
X14732000Y-24692428D01*
X14768285Y-24656142D01*
X14840857Y-24619857D01*
X14949714Y-24619857D01*
X15022285Y-24656142D01*
X15058571Y-24692428D01*
X15094857Y-24765000D01*
X15094857Y-25055285D01*
X15457714Y-23894142D02*
X15457714Y-24329571D01*
X15457714Y-24111857D02*
X14695714Y-24111857D01*
X14804571Y-24184428D01*
X14877142Y-24257000D01*
X14913428Y-24329571D01*
X15022285Y-23458714D02*
X14986000Y-23531285D01*
X14949714Y-23567571D01*
X14877142Y-23603857D01*
X14840857Y-23603857D01*
X14768285Y-23567571D01*
X14732000Y-23531285D01*
X14695714Y-23458714D01*
X14695714Y-23313571D01*
X14732000Y-23241000D01*
X14768285Y-23204714D01*
X14840857Y-23168428D01*
X14877142Y-23168428D01*
X14949714Y-23204714D01*
X14986000Y-23241000D01*
X15022285Y-23313571D01*
X15022285Y-23458714D01*
X15058571Y-23531285D01*
X15094857Y-23567571D01*
X15167428Y-23603857D01*
X15312571Y-23603857D01*
X15385142Y-23567571D01*
X15421428Y-23531285D01*
X15457714Y-23458714D01*
X15457714Y-23313571D01*
X15421428Y-23241000D01*
X15385142Y-23204714D01*
X15312571Y-23168428D01*
X15167428Y-23168428D01*
X15094857Y-23204714D01*
X15058571Y-23241000D01*
X15022285Y-23313571D01*
%TO.C,R17*%
X14441714Y-24619857D02*
X14078857Y-24873857D01*
X14441714Y-25055285D02*
X13679714Y-25055285D01*
X13679714Y-24765000D01*
X13716000Y-24692428D01*
X13752285Y-24656142D01*
X13824857Y-24619857D01*
X13933714Y-24619857D01*
X14006285Y-24656142D01*
X14042571Y-24692428D01*
X14078857Y-24765000D01*
X14078857Y-25055285D01*
X14441714Y-23894142D02*
X14441714Y-24329571D01*
X14441714Y-24111857D02*
X13679714Y-24111857D01*
X13788571Y-24184428D01*
X13861142Y-24257000D01*
X13897428Y-24329571D01*
X13679714Y-23640142D02*
X13679714Y-23132142D01*
X14441714Y-23458714D01*
%TO.C,R15*%
X3837214Y-16428357D02*
X3474357Y-16682357D01*
X3837214Y-16863785D02*
X3075214Y-16863785D01*
X3075214Y-16573500D01*
X3111500Y-16500928D01*
X3147785Y-16464642D01*
X3220357Y-16428357D01*
X3329214Y-16428357D01*
X3401785Y-16464642D01*
X3438071Y-16500928D01*
X3474357Y-16573500D01*
X3474357Y-16863785D01*
X3837214Y-15702642D02*
X3837214Y-16138071D01*
X3837214Y-15920357D02*
X3075214Y-15920357D01*
X3184071Y-15992928D01*
X3256642Y-16065500D01*
X3292928Y-16138071D01*
X3075214Y-15013214D02*
X3075214Y-15376071D01*
X3438071Y-15412357D01*
X3401785Y-15376071D01*
X3365500Y-15303500D01*
X3365500Y-15122071D01*
X3401785Y-15049500D01*
X3438071Y-15013214D01*
X3510642Y-14976928D01*
X3692071Y-14976928D01*
X3764642Y-15013214D01*
X3800928Y-15049500D01*
X3837214Y-15122071D01*
X3837214Y-15303500D01*
X3800928Y-15376071D01*
X3764642Y-15412357D01*
%TO.C,R13*%
X4980214Y-16428357D02*
X4617357Y-16682357D01*
X4980214Y-16863785D02*
X4218214Y-16863785D01*
X4218214Y-16573500D01*
X4254500Y-16500928D01*
X4290785Y-16464642D01*
X4363357Y-16428357D01*
X4472214Y-16428357D01*
X4544785Y-16464642D01*
X4581071Y-16500928D01*
X4617357Y-16573500D01*
X4617357Y-16863785D01*
X4980214Y-15702642D02*
X4980214Y-16138071D01*
X4980214Y-15920357D02*
X4218214Y-15920357D01*
X4327071Y-15992928D01*
X4399642Y-16065500D01*
X4435928Y-16138071D01*
X4218214Y-15448642D02*
X4218214Y-14976928D01*
X4508500Y-15230928D01*
X4508500Y-15122071D01*
X4544785Y-15049500D01*
X4581071Y-15013214D01*
X4653642Y-14976928D01*
X4835071Y-14976928D01*
X4907642Y-15013214D01*
X4943928Y-15049500D01*
X4980214Y-15122071D01*
X4980214Y-15339785D01*
X4943928Y-15412357D01*
X4907642Y-15448642D01*
%TO.C,R12*%
X5932714Y-16428357D02*
X5569857Y-16682357D01*
X5932714Y-16863785D02*
X5170714Y-16863785D01*
X5170714Y-16573500D01*
X5207000Y-16500928D01*
X5243285Y-16464642D01*
X5315857Y-16428357D01*
X5424714Y-16428357D01*
X5497285Y-16464642D01*
X5533571Y-16500928D01*
X5569857Y-16573500D01*
X5569857Y-16863785D01*
X5932714Y-15702642D02*
X5932714Y-16138071D01*
X5932714Y-15920357D02*
X5170714Y-15920357D01*
X5279571Y-15992928D01*
X5352142Y-16065500D01*
X5388428Y-16138071D01*
X5243285Y-15412357D02*
X5207000Y-15376071D01*
X5170714Y-15303500D01*
X5170714Y-15122071D01*
X5207000Y-15049500D01*
X5243285Y-15013214D01*
X5315857Y-14976928D01*
X5388428Y-14976928D01*
X5497285Y-15013214D01*
X5932714Y-15448642D01*
X5932714Y-14976928D01*
%TO.C,R11*%
X6948714Y-16682357D02*
X6585857Y-16936357D01*
X6948714Y-17117785D02*
X6186714Y-17117785D01*
X6186714Y-16827500D01*
X6223000Y-16754928D01*
X6259285Y-16718642D01*
X6331857Y-16682357D01*
X6440714Y-16682357D01*
X6513285Y-16718642D01*
X6549571Y-16754928D01*
X6585857Y-16827500D01*
X6585857Y-17117785D01*
X6948714Y-15956642D02*
X6948714Y-16392071D01*
X6948714Y-16174357D02*
X6186714Y-16174357D01*
X6295571Y-16246928D01*
X6368142Y-16319500D01*
X6404428Y-16392071D01*
X6948714Y-15230928D02*
X6948714Y-15666357D01*
X6948714Y-15448642D02*
X6186714Y-15448642D01*
X6295571Y-15521214D01*
X6368142Y-15593785D01*
X6404428Y-15666357D01*
%TO.C,R10*%
X7964714Y-16682357D02*
X7601857Y-16936357D01*
X7964714Y-17117785D02*
X7202714Y-17117785D01*
X7202714Y-16827500D01*
X7239000Y-16754928D01*
X7275285Y-16718642D01*
X7347857Y-16682357D01*
X7456714Y-16682357D01*
X7529285Y-16718642D01*
X7565571Y-16754928D01*
X7601857Y-16827500D01*
X7601857Y-17117785D01*
X7964714Y-15956642D02*
X7964714Y-16392071D01*
X7964714Y-16174357D02*
X7202714Y-16174357D01*
X7311571Y-16246928D01*
X7384142Y-16319500D01*
X7420428Y-16392071D01*
X7202714Y-15484928D02*
X7202714Y-15412357D01*
X7239000Y-15339785D01*
X7275285Y-15303500D01*
X7347857Y-15267214D01*
X7493000Y-15230928D01*
X7674428Y-15230928D01*
X7819571Y-15267214D01*
X7892142Y-15303500D01*
X7928428Y-15339785D01*
X7964714Y-15412357D01*
X7964714Y-15484928D01*
X7928428Y-15557500D01*
X7892142Y-15593785D01*
X7819571Y-15630071D01*
X7674428Y-15666357D01*
X7493000Y-15666357D01*
X7347857Y-15630071D01*
X7275285Y-15593785D01*
X7239000Y-15557500D01*
X7202714Y-15484928D01*
%TO.C,R9*%
X8980714Y-16383000D02*
X8617857Y-16637000D01*
X8980714Y-16818428D02*
X8218714Y-16818428D01*
X8218714Y-16528142D01*
X8255000Y-16455571D01*
X8291285Y-16419285D01*
X8363857Y-16383000D01*
X8472714Y-16383000D01*
X8545285Y-16419285D01*
X8581571Y-16455571D01*
X8617857Y-16528142D01*
X8617857Y-16818428D01*
X8980714Y-16020142D02*
X8980714Y-15875000D01*
X8944428Y-15802428D01*
X8908142Y-15766142D01*
X8799285Y-15693571D01*
X8654142Y-15657285D01*
X8363857Y-15657285D01*
X8291285Y-15693571D01*
X8255000Y-15729857D01*
X8218714Y-15802428D01*
X8218714Y-15947571D01*
X8255000Y-16020142D01*
X8291285Y-16056428D01*
X8363857Y-16092714D01*
X8545285Y-16092714D01*
X8617857Y-16056428D01*
X8654142Y-16020142D01*
X8690428Y-15947571D01*
X8690428Y-15802428D01*
X8654142Y-15729857D01*
X8617857Y-15693571D01*
X8545285Y-15657285D01*
%TO.C,R8*%
X7874000Y-11266714D02*
X7620000Y-10903857D01*
X7438571Y-11266714D02*
X7438571Y-10504714D01*
X7728857Y-10504714D01*
X7801428Y-10541000D01*
X7837714Y-10577285D01*
X7874000Y-10649857D01*
X7874000Y-10758714D01*
X7837714Y-10831285D01*
X7801428Y-10867571D01*
X7728857Y-10903857D01*
X7438571Y-10903857D01*
X8309428Y-10831285D02*
X8236857Y-10795000D01*
X8200571Y-10758714D01*
X8164285Y-10686142D01*
X8164285Y-10649857D01*
X8200571Y-10577285D01*
X8236857Y-10541000D01*
X8309428Y-10504714D01*
X8454571Y-10504714D01*
X8527142Y-10541000D01*
X8563428Y-10577285D01*
X8599714Y-10649857D01*
X8599714Y-10686142D01*
X8563428Y-10758714D01*
X8527142Y-10795000D01*
X8454571Y-10831285D01*
X8309428Y-10831285D01*
X8236857Y-10867571D01*
X8200571Y-10903857D01*
X8164285Y-10976428D01*
X8164285Y-11121571D01*
X8200571Y-11194142D01*
X8236857Y-11230428D01*
X8309428Y-11266714D01*
X8454571Y-11266714D01*
X8527142Y-11230428D01*
X8563428Y-11194142D01*
X8599714Y-11121571D01*
X8599714Y-10976428D01*
X8563428Y-10903857D01*
X8527142Y-10867571D01*
X8454571Y-10831285D01*
%TO.C,R7*%
X19812000Y-23585714D02*
X19558000Y-23222857D01*
X19376571Y-23585714D02*
X19376571Y-22823714D01*
X19666857Y-22823714D01*
X19739428Y-22860000D01*
X19775714Y-22896285D01*
X19812000Y-22968857D01*
X19812000Y-23077714D01*
X19775714Y-23150285D01*
X19739428Y-23186571D01*
X19666857Y-23222857D01*
X19376571Y-23222857D01*
X20066000Y-22823714D02*
X20574000Y-22823714D01*
X20247428Y-23585714D01*
%TO.C,R6*%
X20410714Y-20510500D02*
X20047857Y-20764500D01*
X20410714Y-20945928D02*
X19648714Y-20945928D01*
X19648714Y-20655642D01*
X19685000Y-20583071D01*
X19721285Y-20546785D01*
X19793857Y-20510500D01*
X19902714Y-20510500D01*
X19975285Y-20546785D01*
X20011571Y-20583071D01*
X20047857Y-20655642D01*
X20047857Y-20945928D01*
X19648714Y-19857357D02*
X19648714Y-20002500D01*
X19685000Y-20075071D01*
X19721285Y-20111357D01*
X19830142Y-20183928D01*
X19975285Y-20220214D01*
X20265571Y-20220214D01*
X20338142Y-20183928D01*
X20374428Y-20147642D01*
X20410714Y-20075071D01*
X20410714Y-19929928D01*
X20374428Y-19857357D01*
X20338142Y-19821071D01*
X20265571Y-19784785D01*
X20084142Y-19784785D01*
X20011571Y-19821071D01*
X19975285Y-19857357D01*
X19939000Y-19929928D01*
X19939000Y-20075071D01*
X19975285Y-20147642D01*
X20011571Y-20183928D01*
X20084142Y-20220214D01*
%TO.C,R5*%
X21082000Y-21617214D02*
X20828000Y-21254357D01*
X20646571Y-21617214D02*
X20646571Y-20855214D01*
X20936857Y-20855214D01*
X21009428Y-20891500D01*
X21045714Y-20927785D01*
X21082000Y-21000357D01*
X21082000Y-21109214D01*
X21045714Y-21181785D01*
X21009428Y-21218071D01*
X20936857Y-21254357D01*
X20646571Y-21254357D01*
X21771428Y-20855214D02*
X21408571Y-20855214D01*
X21372285Y-21218071D01*
X21408571Y-21181785D01*
X21481142Y-21145500D01*
X21662571Y-21145500D01*
X21735142Y-21181785D01*
X21771428Y-21218071D01*
X21807714Y-21290642D01*
X21807714Y-21472071D01*
X21771428Y-21544642D01*
X21735142Y-21580928D01*
X21662571Y-21617214D01*
X21481142Y-21617214D01*
X21408571Y-21580928D01*
X21372285Y-21544642D01*
%TO.C,R1*%
X21018500Y-20029714D02*
X20764500Y-19666857D01*
X20583071Y-20029714D02*
X20583071Y-19267714D01*
X20873357Y-19267714D01*
X20945928Y-19304000D01*
X20982214Y-19340285D01*
X21018500Y-19412857D01*
X21018500Y-19521714D01*
X20982214Y-19594285D01*
X20945928Y-19630571D01*
X20873357Y-19666857D01*
X20583071Y-19666857D01*
X21744214Y-20029714D02*
X21308785Y-20029714D01*
X21526500Y-20029714D02*
X21526500Y-19267714D01*
X21453928Y-19376571D01*
X21381357Y-19449142D01*
X21308785Y-19485428D01*
%TO.C,Q2*%
X11928928Y-16800285D02*
X11856357Y-16764000D01*
X11783785Y-16691428D01*
X11674928Y-16582571D01*
X11602357Y-16546285D01*
X11529785Y-16546285D01*
X11566071Y-16727714D02*
X11493500Y-16691428D01*
X11420928Y-16618857D01*
X11384642Y-16473714D01*
X11384642Y-16219714D01*
X11420928Y-16074571D01*
X11493500Y-16002000D01*
X11566071Y-15965714D01*
X11711214Y-15965714D01*
X11783785Y-16002000D01*
X11856357Y-16074571D01*
X11892642Y-16219714D01*
X11892642Y-16473714D01*
X11856357Y-16618857D01*
X11783785Y-16691428D01*
X11711214Y-16727714D01*
X11566071Y-16727714D01*
X12182928Y-16038285D02*
X12219214Y-16002000D01*
X12291785Y-15965714D01*
X12473214Y-15965714D01*
X12545785Y-16002000D01*
X12582071Y-16038285D01*
X12618357Y-16110857D01*
X12618357Y-16183428D01*
X12582071Y-16292285D01*
X12146642Y-16727714D01*
X12618357Y-16727714D01*
%TO.C,Q1*%
X1451428Y-14641285D02*
X1378857Y-14605000D01*
X1306285Y-14532428D01*
X1197428Y-14423571D01*
X1124857Y-14387285D01*
X1052285Y-14387285D01*
X1088571Y-14568714D02*
X1016000Y-14532428D01*
X943428Y-14459857D01*
X907142Y-14314714D01*
X907142Y-14060714D01*
X943428Y-13915571D01*
X1016000Y-13843000D01*
X1088571Y-13806714D01*
X1233714Y-13806714D01*
X1306285Y-13843000D01*
X1378857Y-13915571D01*
X1415142Y-14060714D01*
X1415142Y-14314714D01*
X1378857Y-14459857D01*
X1306285Y-14532428D01*
X1233714Y-14568714D01*
X1088571Y-14568714D01*
X2140857Y-14568714D02*
X1705428Y-14568714D01*
X1923142Y-14568714D02*
X1923142Y-13806714D01*
X1850571Y-13915571D01*
X1778000Y-13988142D01*
X1705428Y-14024428D01*
%TO.C,FB2*%
X18614571Y-16383000D02*
X18614571Y-16637000D01*
X19013714Y-16637000D02*
X18251714Y-16637000D01*
X18251714Y-16274142D01*
X18614571Y-15729857D02*
X18650857Y-15621000D01*
X18687142Y-15584714D01*
X18759714Y-15548428D01*
X18868571Y-15548428D01*
X18941142Y-15584714D01*
X18977428Y-15621000D01*
X19013714Y-15693571D01*
X19013714Y-15983857D01*
X18251714Y-15983857D01*
X18251714Y-15729857D01*
X18288000Y-15657285D01*
X18324285Y-15621000D01*
X18396857Y-15584714D01*
X18469428Y-15584714D01*
X18542000Y-15621000D01*
X18578285Y-15657285D01*
X18614571Y-15729857D01*
X18614571Y-15983857D01*
X18324285Y-15258142D02*
X18288000Y-15221857D01*
X18251714Y-15149285D01*
X18251714Y-14967857D01*
X18288000Y-14895285D01*
X18324285Y-14859000D01*
X18396857Y-14822714D01*
X18469428Y-14822714D01*
X18578285Y-14859000D01*
X19013714Y-15294428D01*
X19013714Y-14822714D01*
%TO.C,DS2*%
X23204714Y-24356785D02*
X22442714Y-24356785D01*
X22442714Y-24175357D01*
X22479000Y-24066500D01*
X22551571Y-23993928D01*
X22624142Y-23957642D01*
X22769285Y-23921357D01*
X22878142Y-23921357D01*
X23023285Y-23957642D01*
X23095857Y-23993928D01*
X23168428Y-24066500D01*
X23204714Y-24175357D01*
X23204714Y-24356785D01*
X23168428Y-23631071D02*
X23204714Y-23522214D01*
X23204714Y-23340785D01*
X23168428Y-23268214D01*
X23132142Y-23231928D01*
X23059571Y-23195642D01*
X22987000Y-23195642D01*
X22914428Y-23231928D01*
X22878142Y-23268214D01*
X22841857Y-23340785D01*
X22805571Y-23485928D01*
X22769285Y-23558500D01*
X22733000Y-23594785D01*
X22660428Y-23631071D01*
X22587857Y-23631071D01*
X22515285Y-23594785D01*
X22479000Y-23558500D01*
X22442714Y-23485928D01*
X22442714Y-23304500D01*
X22479000Y-23195642D01*
X22515285Y-22905357D02*
X22479000Y-22869071D01*
X22442714Y-22796500D01*
X22442714Y-22615071D01*
X22479000Y-22542500D01*
X22515285Y-22506214D01*
X22587857Y-22469928D01*
X22660428Y-22469928D01*
X22769285Y-22506214D01*
X23204714Y-22941642D01*
X23204714Y-22469928D01*
%TO.C,C6*%
X16383000Y-16655142D02*
X16346714Y-16691428D01*
X16237857Y-16727714D01*
X16165285Y-16727714D01*
X16056428Y-16691428D01*
X15983857Y-16618857D01*
X15947571Y-16546285D01*
X15911285Y-16401142D01*
X15911285Y-16292285D01*
X15947571Y-16147142D01*
X15983857Y-16074571D01*
X16056428Y-16002000D01*
X16165285Y-15965714D01*
X16237857Y-15965714D01*
X16346714Y-16002000D01*
X16383000Y-16038285D01*
X17036142Y-15965714D02*
X16891000Y-15965714D01*
X16818428Y-16002000D01*
X16782142Y-16038285D01*
X16709571Y-16147142D01*
X16673285Y-16292285D01*
X16673285Y-16582571D01*
X16709571Y-16655142D01*
X16745857Y-16691428D01*
X16818428Y-16727714D01*
X16963571Y-16727714D01*
X17036142Y-16691428D01*
X17072428Y-16655142D01*
X17108714Y-16582571D01*
X17108714Y-16401142D01*
X17072428Y-16328571D01*
X17036142Y-16292285D01*
X16963571Y-16256000D01*
X16818428Y-16256000D01*
X16745857Y-16292285D01*
X16709571Y-16328571D01*
X16673285Y-16401142D01*
%TO.C,C5*%
X16510000Y-19703142D02*
X16473714Y-19739428D01*
X16364857Y-19775714D01*
X16292285Y-19775714D01*
X16183428Y-19739428D01*
X16110857Y-19666857D01*
X16074571Y-19594285D01*
X16038285Y-19449142D01*
X16038285Y-19340285D01*
X16074571Y-19195142D01*
X16110857Y-19122571D01*
X16183428Y-19050000D01*
X16292285Y-19013714D01*
X16364857Y-19013714D01*
X16473714Y-19050000D01*
X16510000Y-19086285D01*
X17199428Y-19013714D02*
X16836571Y-19013714D01*
X16800285Y-19376571D01*
X16836571Y-19340285D01*
X16909142Y-19304000D01*
X17090571Y-19304000D01*
X17163142Y-19340285D01*
X17199428Y-19376571D01*
X17235714Y-19449142D01*
X17235714Y-19630571D01*
X17199428Y-19703142D01*
X17163142Y-19739428D01*
X17090571Y-19775714D01*
X16909142Y-19775714D01*
X16836571Y-19739428D01*
X16800285Y-19703142D01*
%TD*%
M02*
