%TF.GenerationSoftware,KiCad,Pcbnew,(5.1.7)-1*%
%TF.CreationDate,2020-11-06T21:26:38+01:00*%
%TF.ProjectId,twonkie,74776f6e-6b69-4652-9e6b-696361645f70,rev?*%
%TF.SameCoordinates,PX448d510PY20b3950*%
%TF.FileFunction,Copper,L1,Top*%
%TF.FilePolarity,Positive*%
%FSLAX46Y46*%
G04 Gerber Fmt 4.6, Leading zero omitted, Abs format (unit mm)*
G04 Created by KiCad (PCBNEW (5.1.7)-1) date 2020-11-06 21:26:38*
%MOMM*%
%LPD*%
G01*
G04 APERTURE LIST*
%TA.AperFunction,SMDPad,CuDef*%
%ADD10R,0.650000X0.400000*%
%TD*%
%TA.AperFunction,ComponentPad*%
%ADD11O,1.150000X1.800000*%
%TD*%
%TA.AperFunction,ComponentPad*%
%ADD12O,1.450000X2.000000*%
%TD*%
%TA.AperFunction,SMDPad,CuDef*%
%ADD13R,0.450000X1.300000*%
%TD*%
%TA.AperFunction,SMDPad,CuDef*%
%ADD14R,1.050000X1.400000*%
%TD*%
%TA.AperFunction,SMDPad,CuDef*%
%ADD15R,4.000000X1.500000*%
%TD*%
%TA.AperFunction,SMDPad,CuDef*%
%ADD16R,1.000000X0.300000*%
%TD*%
%TA.AperFunction,SMDPad,CuDef*%
%ADD17R,1.000000X1.000000*%
%TD*%
%TA.AperFunction,SMDPad,CuDef*%
%ADD18R,1.550000X0.260000*%
%TD*%
%TA.AperFunction,SMDPad,CuDef*%
%ADD19R,1.550000X0.410000*%
%TD*%
%TA.AperFunction,SMDPad,CuDef*%
%ADD20R,1.750000X0.360000*%
%TD*%
%TA.AperFunction,SMDPad,CuDef*%
%ADD21R,0.400000X0.650000*%
%TD*%
%TA.AperFunction,SMDPad,CuDef*%
%ADD22R,1.000000X0.800000*%
%TD*%
%TA.AperFunction,ViaPad*%
%ADD23C,0.508000*%
%TD*%
%TA.AperFunction,ViaPad*%
%ADD24C,0.609600*%
%TD*%
%TA.AperFunction,Conductor*%
%ADD25C,0.508000*%
%TD*%
%TA.AperFunction,Conductor*%
%ADD26C,0.203200*%
%TD*%
%TA.AperFunction,Conductor*%
%ADD27C,0.304800*%
%TD*%
%TA.AperFunction,Conductor*%
%ADD28C,0.248920*%
%TD*%
%TA.AperFunction,Conductor*%
%ADD29C,0.254000*%
%TD*%
%TA.AperFunction,Conductor*%
%ADD30C,0.100000*%
%TD*%
G04 APERTURE END LIST*
D10*
%TO.P,Q3,6*%
%TO.N,/CC1_RECEP*%
X11681500Y-11161000D03*
%TO.P,Q3,4*%
%TO.N,/CC2*%
X11681500Y-12461000D03*
%TO.P,Q3,2*%
%TO.N,/CC1_EN*%
X9781500Y-11811000D03*
%TO.P,Q3,5*%
%TO.N,/CC2_EN*%
X11681500Y-11811000D03*
%TO.P,Q3,3*%
%TO.N,/CC2_RECEP*%
X9781500Y-12461000D03*
%TO.P,Q3,1*%
%TO.N,/CC1*%
X9781500Y-11161000D03*
%TD*%
%TO.P,C2,2*%
%TO.N,GND*%
%TA.AperFunction,SMDPad,CuDef*%
G36*
G01*
X14957400Y-18531900D02*
X14957400Y-18221900D01*
G75*
G02*
X15112400Y-18066900I155000J0D01*
G01*
X15537400Y-18066900D01*
G75*
G02*
X15692400Y-18221900I0J-155000D01*
G01*
X15692400Y-18531900D01*
G75*
G02*
X15537400Y-18686900I-155000J0D01*
G01*
X15112400Y-18686900D01*
G75*
G02*
X14957400Y-18531900I0J155000D01*
G01*
G37*
%TD.AperFunction*%
%TO.P,C2,1*%
%TO.N,+3V3*%
%TA.AperFunction,SMDPad,CuDef*%
G36*
G01*
X13822400Y-18531900D02*
X13822400Y-18221900D01*
G75*
G02*
X13977400Y-18066900I155000J0D01*
G01*
X14402400Y-18066900D01*
G75*
G02*
X14557400Y-18221900I0J-155000D01*
G01*
X14557400Y-18531900D01*
G75*
G02*
X14402400Y-18686900I-155000J0D01*
G01*
X13977400Y-18686900D01*
G75*
G02*
X13822400Y-18531900I0J155000D01*
G01*
G37*
%TD.AperFunction*%
%TD*%
%TO.P,C4,2*%
%TO.N,GND*%
%TA.AperFunction,SMDPad,CuDef*%
G36*
G01*
X14957400Y-17528600D02*
X14957400Y-17218600D01*
G75*
G02*
X15112400Y-17063600I155000J0D01*
G01*
X15537400Y-17063600D01*
G75*
G02*
X15692400Y-17218600I0J-155000D01*
G01*
X15692400Y-17528600D01*
G75*
G02*
X15537400Y-17683600I-155000J0D01*
G01*
X15112400Y-17683600D01*
G75*
G02*
X14957400Y-17528600I0J155000D01*
G01*
G37*
%TD.AperFunction*%
%TO.P,C4,1*%
%TO.N,+3V3*%
%TA.AperFunction,SMDPad,CuDef*%
G36*
G01*
X13822400Y-17528600D02*
X13822400Y-17218600D01*
G75*
G02*
X13977400Y-17063600I155000J0D01*
G01*
X14402400Y-17063600D01*
G75*
G02*
X14557400Y-17218600I0J-155000D01*
G01*
X14557400Y-17528600D01*
G75*
G02*
X14402400Y-17683600I-155000J0D01*
G01*
X13977400Y-17683600D01*
G75*
G02*
X13822400Y-17528600I0J155000D01*
G01*
G37*
%TD.AperFunction*%
%TD*%
D11*
%TO.P,J3,6*%
%TO.N,GND*%
X9209000Y-23286000D03*
X1459000Y-23286000D03*
D12*
X9059000Y-19486000D03*
X1609000Y-19486000D03*
D13*
%TO.P,J3,5*%
X6634000Y-19436000D03*
%TO.P,J3,4*%
%TO.N,Net-(J3-Pad4)*%
X5984000Y-19436000D03*
%TO.P,J3,3*%
%TO.N,/USB_B_D+*%
X5334000Y-19436000D03*
%TO.P,J3,2*%
%TO.N,/USB_B_D-*%
X4684000Y-19436000D03*
%TO.P,J3,1*%
%TO.N,Net-(D1-Pad1)*%
X4034000Y-19436000D03*
%TD*%
%TO.P,R14,2*%
%TO.N,+3V3*%
%TA.AperFunction,SMDPad,CuDef*%
G36*
G01*
X2208500Y-16543000D02*
X2208500Y-16223000D01*
G75*
G02*
X2368500Y-16063000I160000J0D01*
G01*
X2763500Y-16063000D01*
G75*
G02*
X2923500Y-16223000I0J-160000D01*
G01*
X2923500Y-16543000D01*
G75*
G02*
X2763500Y-16703000I-160000J0D01*
G01*
X2368500Y-16703000D01*
G75*
G02*
X2208500Y-16543000I0J160000D01*
G01*
G37*
%TD.AperFunction*%
%TO.P,R14,1*%
%TO.N,Net-(Q1-Pad6)*%
%TA.AperFunction,SMDPad,CuDef*%
G36*
G01*
X1013500Y-16543000D02*
X1013500Y-16223000D01*
G75*
G02*
X1173500Y-16063000I160000J0D01*
G01*
X1568500Y-16063000D01*
G75*
G02*
X1728500Y-16223000I0J-160000D01*
G01*
X1728500Y-16543000D01*
G75*
G02*
X1568500Y-16703000I-160000J0D01*
G01*
X1173500Y-16703000D01*
G75*
G02*
X1013500Y-16543000I0J160000D01*
G01*
G37*
%TD.AperFunction*%
%TD*%
%TO.P,R16,2*%
%TO.N,GND*%
%TA.AperFunction,SMDPad,CuDef*%
G36*
G01*
X13702000Y-11844000D02*
X13702000Y-11524000D01*
G75*
G02*
X13862000Y-11364000I160000J0D01*
G01*
X14257000Y-11364000D01*
G75*
G02*
X14417000Y-11524000I0J-160000D01*
G01*
X14417000Y-11844000D01*
G75*
G02*
X14257000Y-12004000I-160000J0D01*
G01*
X13862000Y-12004000D01*
G75*
G02*
X13702000Y-11844000I0J160000D01*
G01*
G37*
%TD.AperFunction*%
%TO.P,R16,1*%
%TO.N,/CC2_EN*%
%TA.AperFunction,SMDPad,CuDef*%
G36*
G01*
X12507000Y-11844000D02*
X12507000Y-11524000D01*
G75*
G02*
X12667000Y-11364000I160000J0D01*
G01*
X13062000Y-11364000D01*
G75*
G02*
X13222000Y-11524000I0J-160000D01*
G01*
X13222000Y-11844000D01*
G75*
G02*
X13062000Y-12004000I-160000J0D01*
G01*
X12667000Y-12004000D01*
G75*
G02*
X12507000Y-11844000I0J160000D01*
G01*
G37*
%TD.AperFunction*%
%TD*%
D14*
%TO.P,SW1,2*%
%TO.N,/BOOT*%
X23897500Y-17802000D03*
X23897500Y-14202000D03*
%TO.P,SW1,1*%
%TO.N,GND*%
X22457500Y-17802000D03*
X22457500Y-14202000D03*
%TD*%
D15*
%TO.P,J2,S6*%
%TO.N,GND*%
X2465000Y-11600000D03*
%TO.P,J2,S5*%
X2465000Y-1100000D03*
D16*
%TO.P,J2,A12*%
X5675000Y-9100000D03*
%TO.P,J2,A11*%
%TO.N,/RX2+*%
X5675000Y-8600000D03*
%TO.P,J2,A10*%
%TO.N,/RX2-*%
X5675000Y-8100000D03*
%TO.P,J2,A9*%
%TO.N,/VBUS_RECEP*%
X5675000Y-7600000D03*
%TO.P,J2,A8*%
%TO.N,/SBU1*%
X5675000Y-7100000D03*
%TO.P,J2,A7*%
%TO.N,/USBC_D-*%
X5675000Y-6600000D03*
%TO.P,J2,A6*%
%TO.N,/USBC_D+*%
X5675000Y-6100000D03*
%TO.P,J2,A5*%
%TO.N,/CC1_RECEP*%
X5675000Y-5600000D03*
%TO.P,J2,A4*%
%TO.N,/VBUS_RECEP*%
X5675000Y-5100000D03*
%TO.P,J2,A3*%
%TO.N,/TX1-*%
X5675000Y-4600000D03*
%TO.P,J2,A2*%
%TO.N,/TX1+*%
X5675000Y-4100000D03*
%TO.P,J2,A1*%
%TO.N,GND*%
X5675000Y-3600000D03*
D17*
%TO.P,J2,S1*%
X5675000Y-2600000D03*
%TO.P,J2,S2*%
X5675000Y-10100000D03*
%TD*%
D18*
%TO.P,J1,A11*%
%TO.N,/RX2+*%
X23525000Y-8600000D03*
%TO.P,J1,A10*%
%TO.N,/RX2-*%
X23525000Y-8100000D03*
%TO.P,J1,A9*%
%TO.N,/VBUS_PLUG*%
X23525000Y-7600000D03*
%TO.P,J1,A8*%
%TO.N,/SBU1*%
X23525000Y-7100000D03*
%TO.P,J1,A7*%
%TO.N,/USBC_D-*%
X23525000Y-6600000D03*
%TO.P,J1,A6*%
%TO.N,/USBC_D+*%
X23525000Y-6100000D03*
%TO.P,J1,A5*%
%TO.N,/CC1_RECEP*%
X23525000Y-5600000D03*
%TO.P,J1,A4*%
%TO.N,/VBUS_PLUG*%
X23525000Y-5100000D03*
%TO.P,J1,A3*%
%TO.N,/TX1-*%
X23525000Y-4600000D03*
%TO.P,J1,A2*%
%TO.N,/TX1+*%
X23525000Y-4100000D03*
D19*
%TO.P,J1,A12*%
%TO.N,GND*%
X23525000Y-9175000D03*
%TO.P,J1,A1*%
X23525000Y-3525000D03*
D20*
%TO.P,J1,S2*%
X23425000Y-2945000D03*
%TO.P,J1,S1*%
X23425000Y-9755000D03*
%TD*%
%TO.P,U2,1*%
%TO.N,/CC2_PLUG*%
%TA.AperFunction,SMDPad,CuDef*%
G36*
G01*
X18078000Y-7763000D02*
X18078000Y-7963000D01*
G75*
G02*
X17978000Y-8063000I-100000J0D01*
G01*
X16703000Y-8063000D01*
G75*
G02*
X16603000Y-7963000I0J100000D01*
G01*
X16603000Y-7763000D01*
G75*
G02*
X16703000Y-7663000I100000J0D01*
G01*
X17978000Y-7663000D01*
G75*
G02*
X18078000Y-7763000I0J-100000D01*
G01*
G37*
%TD.AperFunction*%
%TO.P,U2,2*%
%TA.AperFunction,SMDPad,CuDef*%
G36*
G01*
X18078000Y-7113000D02*
X18078000Y-7313000D01*
G75*
G02*
X17978000Y-7413000I-100000J0D01*
G01*
X16703000Y-7413000D01*
G75*
G02*
X16603000Y-7313000I0J100000D01*
G01*
X16603000Y-7113000D01*
G75*
G02*
X16703000Y-7013000I100000J0D01*
G01*
X17978000Y-7013000D01*
G75*
G02*
X18078000Y-7113000I0J-100000D01*
G01*
G37*
%TD.AperFunction*%
%TO.P,U2,3*%
%TA.AperFunction,SMDPad,CuDef*%
G36*
G01*
X18078000Y-6463000D02*
X18078000Y-6663000D01*
G75*
G02*
X17978000Y-6763000I-100000J0D01*
G01*
X16703000Y-6763000D01*
G75*
G02*
X16603000Y-6663000I0J100000D01*
G01*
X16603000Y-6463000D01*
G75*
G02*
X16703000Y-6363000I100000J0D01*
G01*
X17978000Y-6363000D01*
G75*
G02*
X18078000Y-6463000I0J-100000D01*
G01*
G37*
%TD.AperFunction*%
%TO.P,U2,4*%
%TO.N,GND*%
%TA.AperFunction,SMDPad,CuDef*%
G36*
G01*
X18078000Y-5813000D02*
X18078000Y-6013000D01*
G75*
G02*
X17978000Y-6113000I-100000J0D01*
G01*
X16703000Y-6113000D01*
G75*
G02*
X16603000Y-6013000I0J100000D01*
G01*
X16603000Y-5813000D01*
G75*
G02*
X16703000Y-5713000I100000J0D01*
G01*
X17978000Y-5713000D01*
G75*
G02*
X18078000Y-5813000I0J-100000D01*
G01*
G37*
%TD.AperFunction*%
%TO.P,U2,5*%
%TO.N,+3V3*%
%TA.AperFunction,SMDPad,CuDef*%
G36*
G01*
X18078000Y-5163000D02*
X18078000Y-5363000D01*
G75*
G02*
X17978000Y-5463000I-100000J0D01*
G01*
X16703000Y-5463000D01*
G75*
G02*
X16603000Y-5363000I0J100000D01*
G01*
X16603000Y-5163000D01*
G75*
G02*
X16703000Y-5063000I100000J0D01*
G01*
X17978000Y-5063000D01*
G75*
G02*
X18078000Y-5163000I0J-100000D01*
G01*
G37*
%TD.AperFunction*%
%TO.P,U2,6*%
%TO.N,GND*%
%TA.AperFunction,SMDPad,CuDef*%
G36*
G01*
X18078000Y-4513000D02*
X18078000Y-4713000D01*
G75*
G02*
X17978000Y-4813000I-100000J0D01*
G01*
X16703000Y-4813000D01*
G75*
G02*
X16603000Y-4713000I0J100000D01*
G01*
X16603000Y-4513000D01*
G75*
G02*
X16703000Y-4413000I100000J0D01*
G01*
X17978000Y-4413000D01*
G75*
G02*
X18078000Y-4513000I0J-100000D01*
G01*
G37*
%TD.AperFunction*%
%TO.P,U2,7*%
%TO.N,/VCONN_ALERT_L*%
%TA.AperFunction,SMDPad,CuDef*%
G36*
G01*
X18078000Y-3863000D02*
X18078000Y-4063000D01*
G75*
G02*
X17978000Y-4163000I-100000J0D01*
G01*
X16703000Y-4163000D01*
G75*
G02*
X16603000Y-4063000I0J100000D01*
G01*
X16603000Y-3863000D01*
G75*
G02*
X16703000Y-3763000I100000J0D01*
G01*
X17978000Y-3763000D01*
G75*
G02*
X18078000Y-3863000I0J-100000D01*
G01*
G37*
%TD.AperFunction*%
%TO.P,U2,8*%
%TO.N,/INA_SDA*%
%TA.AperFunction,SMDPad,CuDef*%
G36*
G01*
X18078000Y-3213000D02*
X18078000Y-3413000D01*
G75*
G02*
X17978000Y-3513000I-100000J0D01*
G01*
X16703000Y-3513000D01*
G75*
G02*
X16603000Y-3413000I0J100000D01*
G01*
X16603000Y-3213000D01*
G75*
G02*
X16703000Y-3113000I100000J0D01*
G01*
X17978000Y-3113000D01*
G75*
G02*
X18078000Y-3213000I0J-100000D01*
G01*
G37*
%TD.AperFunction*%
%TO.P,U2,9*%
%TO.N,/INA_SCL*%
%TA.AperFunction,SMDPad,CuDef*%
G36*
G01*
X12353000Y-3213000D02*
X12353000Y-3413000D01*
G75*
G02*
X12253000Y-3513000I-100000J0D01*
G01*
X10978000Y-3513000D01*
G75*
G02*
X10878000Y-3413000I0J100000D01*
G01*
X10878000Y-3213000D01*
G75*
G02*
X10978000Y-3113000I100000J0D01*
G01*
X12253000Y-3113000D01*
G75*
G02*
X12353000Y-3213000I0J-100000D01*
G01*
G37*
%TD.AperFunction*%
%TO.P,U2,10*%
%TO.N,+3V3*%
%TA.AperFunction,SMDPad,CuDef*%
G36*
G01*
X12353000Y-3863000D02*
X12353000Y-4063000D01*
G75*
G02*
X12253000Y-4163000I-100000J0D01*
G01*
X10978000Y-4163000D01*
G75*
G02*
X10878000Y-4063000I0J100000D01*
G01*
X10878000Y-3863000D01*
G75*
G02*
X10978000Y-3763000I100000J0D01*
G01*
X12253000Y-3763000D01*
G75*
G02*
X12353000Y-3863000I0J-100000D01*
G01*
G37*
%TD.AperFunction*%
%TO.P,U2,11*%
%TO.N,GND*%
%TA.AperFunction,SMDPad,CuDef*%
G36*
G01*
X12353000Y-4513000D02*
X12353000Y-4713000D01*
G75*
G02*
X12253000Y-4813000I-100000J0D01*
G01*
X10978000Y-4813000D01*
G75*
G02*
X10878000Y-4713000I0J100000D01*
G01*
X10878000Y-4513000D01*
G75*
G02*
X10978000Y-4413000I100000J0D01*
G01*
X12253000Y-4413000D01*
G75*
G02*
X12353000Y-4513000I0J-100000D01*
G01*
G37*
%TD.AperFunction*%
%TO.P,U2,12*%
%TO.N,/CC2_PLUG*%
%TA.AperFunction,SMDPad,CuDef*%
G36*
G01*
X12353000Y-5163000D02*
X12353000Y-5363000D01*
G75*
G02*
X12253000Y-5463000I-100000J0D01*
G01*
X10978000Y-5463000D01*
G75*
G02*
X10878000Y-5363000I0J100000D01*
G01*
X10878000Y-5163000D01*
G75*
G02*
X10978000Y-5063000I100000J0D01*
G01*
X12253000Y-5063000D01*
G75*
G02*
X12353000Y-5163000I0J-100000D01*
G01*
G37*
%TD.AperFunction*%
%TO.P,U2,13*%
%TO.N,Net-(U2-Pad13)*%
%TA.AperFunction,SMDPad,CuDef*%
G36*
G01*
X12353000Y-5813000D02*
X12353000Y-6013000D01*
G75*
G02*
X12253000Y-6113000I-100000J0D01*
G01*
X10978000Y-6113000D01*
G75*
G02*
X10878000Y-6013000I0J100000D01*
G01*
X10878000Y-5813000D01*
G75*
G02*
X10978000Y-5713000I100000J0D01*
G01*
X12253000Y-5713000D01*
G75*
G02*
X12353000Y-5813000I0J-100000D01*
G01*
G37*
%TD.AperFunction*%
%TO.P,U2,14*%
%TO.N,/CC2_RECEP*%
%TA.AperFunction,SMDPad,CuDef*%
G36*
G01*
X12353000Y-6463000D02*
X12353000Y-6663000D01*
G75*
G02*
X12253000Y-6763000I-100000J0D01*
G01*
X10978000Y-6763000D01*
G75*
G02*
X10878000Y-6663000I0J100000D01*
G01*
X10878000Y-6463000D01*
G75*
G02*
X10978000Y-6363000I100000J0D01*
G01*
X12253000Y-6363000D01*
G75*
G02*
X12353000Y-6463000I0J-100000D01*
G01*
G37*
%TD.AperFunction*%
%TO.P,U2,15*%
%TA.AperFunction,SMDPad,CuDef*%
G36*
G01*
X12353000Y-7113000D02*
X12353000Y-7313000D01*
G75*
G02*
X12253000Y-7413000I-100000J0D01*
G01*
X10978000Y-7413000D01*
G75*
G02*
X10878000Y-7313000I0J100000D01*
G01*
X10878000Y-7113000D01*
G75*
G02*
X10978000Y-7013000I100000J0D01*
G01*
X12253000Y-7013000D01*
G75*
G02*
X12353000Y-7113000I0J-100000D01*
G01*
G37*
%TD.AperFunction*%
%TO.P,U2,16*%
%TA.AperFunction,SMDPad,CuDef*%
G36*
G01*
X12353000Y-7763000D02*
X12353000Y-7963000D01*
G75*
G02*
X12253000Y-8063000I-100000J0D01*
G01*
X10978000Y-8063000D01*
G75*
G02*
X10878000Y-7963000I0J100000D01*
G01*
X10878000Y-7763000D01*
G75*
G02*
X10978000Y-7663000I100000J0D01*
G01*
X12253000Y-7663000D01*
G75*
G02*
X12353000Y-7763000I0J-100000D01*
G01*
G37*
%TD.AperFunction*%
%TD*%
%TO.P,U5,8*%
%TO.N,+3V3*%
%TA.AperFunction,SMDPad,CuDef*%
G36*
G01*
X19461000Y-12015500D02*
X19461000Y-11815500D01*
G75*
G02*
X19561000Y-11715500I100000J0D01*
G01*
X20986000Y-11715500D01*
G75*
G02*
X21086000Y-11815500I0J-100000D01*
G01*
X21086000Y-12015500D01*
G75*
G02*
X20986000Y-12115500I-100000J0D01*
G01*
X19561000Y-12115500D01*
G75*
G02*
X19461000Y-12015500I0J100000D01*
G01*
G37*
%TD.AperFunction*%
%TO.P,U5,7*%
%TO.N,/CC2_BUF*%
%TA.AperFunction,SMDPad,CuDef*%
G36*
G01*
X19461000Y-12665500D02*
X19461000Y-12465500D01*
G75*
G02*
X19561000Y-12365500I100000J0D01*
G01*
X20986000Y-12365500D01*
G75*
G02*
X21086000Y-12465500I0J-100000D01*
G01*
X21086000Y-12665500D01*
G75*
G02*
X20986000Y-12765500I-100000J0D01*
G01*
X19561000Y-12765500D01*
G75*
G02*
X19461000Y-12665500I0J100000D01*
G01*
G37*
%TD.AperFunction*%
%TO.P,U5,6*%
%TA.AperFunction,SMDPad,CuDef*%
G36*
G01*
X19461000Y-13315500D02*
X19461000Y-13115500D01*
G75*
G02*
X19561000Y-13015500I100000J0D01*
G01*
X20986000Y-13015500D01*
G75*
G02*
X21086000Y-13115500I0J-100000D01*
G01*
X21086000Y-13315500D01*
G75*
G02*
X20986000Y-13415500I-100000J0D01*
G01*
X19561000Y-13415500D01*
G75*
G02*
X19461000Y-13315500I0J100000D01*
G01*
G37*
%TD.AperFunction*%
%TO.P,U5,5*%
%TO.N,/CC2*%
%TA.AperFunction,SMDPad,CuDef*%
G36*
G01*
X19461000Y-13965500D02*
X19461000Y-13765500D01*
G75*
G02*
X19561000Y-13665500I100000J0D01*
G01*
X20986000Y-13665500D01*
G75*
G02*
X21086000Y-13765500I0J-100000D01*
G01*
X21086000Y-13965500D01*
G75*
G02*
X20986000Y-14065500I-100000J0D01*
G01*
X19561000Y-14065500D01*
G75*
G02*
X19461000Y-13965500I0J100000D01*
G01*
G37*
%TD.AperFunction*%
%TO.P,U5,4*%
%TO.N,GND*%
%TA.AperFunction,SMDPad,CuDef*%
G36*
G01*
X15236000Y-13965500D02*
X15236000Y-13765500D01*
G75*
G02*
X15336000Y-13665500I100000J0D01*
G01*
X16761000Y-13665500D01*
G75*
G02*
X16861000Y-13765500I0J-100000D01*
G01*
X16861000Y-13965500D01*
G75*
G02*
X16761000Y-14065500I-100000J0D01*
G01*
X15336000Y-14065500D01*
G75*
G02*
X15236000Y-13965500I0J100000D01*
G01*
G37*
%TD.AperFunction*%
%TO.P,U5,3*%
%TO.N,/CC1*%
%TA.AperFunction,SMDPad,CuDef*%
G36*
G01*
X15236000Y-13315500D02*
X15236000Y-13115500D01*
G75*
G02*
X15336000Y-13015500I100000J0D01*
G01*
X16761000Y-13015500D01*
G75*
G02*
X16861000Y-13115500I0J-100000D01*
G01*
X16861000Y-13315500D01*
G75*
G02*
X16761000Y-13415500I-100000J0D01*
G01*
X15336000Y-13415500D01*
G75*
G02*
X15236000Y-13315500I0J100000D01*
G01*
G37*
%TD.AperFunction*%
%TO.P,U5,2*%
%TO.N,/CC1_BUF*%
%TA.AperFunction,SMDPad,CuDef*%
G36*
G01*
X15236000Y-12665500D02*
X15236000Y-12465500D01*
G75*
G02*
X15336000Y-12365500I100000J0D01*
G01*
X16761000Y-12365500D01*
G75*
G02*
X16861000Y-12465500I0J-100000D01*
G01*
X16861000Y-12665500D01*
G75*
G02*
X16761000Y-12765500I-100000J0D01*
G01*
X15336000Y-12765500D01*
G75*
G02*
X15236000Y-12665500I0J100000D01*
G01*
G37*
%TD.AperFunction*%
%TO.P,U5,1*%
%TA.AperFunction,SMDPad,CuDef*%
G36*
G01*
X15236000Y-12015500D02*
X15236000Y-11815500D01*
G75*
G02*
X15336000Y-11715500I100000J0D01*
G01*
X16761000Y-11715500D01*
G75*
G02*
X16861000Y-11815500I0J-100000D01*
G01*
X16861000Y-12015500D01*
G75*
G02*
X16761000Y-12115500I-100000J0D01*
G01*
X15336000Y-12115500D01*
G75*
G02*
X15236000Y-12015500I0J100000D01*
G01*
G37*
%TD.AperFunction*%
%TD*%
%TO.P,R23,2*%
%TO.N,Net-(Q2-Pad3)*%
%TA.AperFunction,SMDPad,CuDef*%
G36*
G01*
X12794000Y-13575000D02*
X13114000Y-13575000D01*
G75*
G02*
X13274000Y-13735000I0J-160000D01*
G01*
X13274000Y-14130000D01*
G75*
G02*
X13114000Y-14290000I-160000J0D01*
G01*
X12794000Y-14290000D01*
G75*
G02*
X12634000Y-14130000I0J160000D01*
G01*
X12634000Y-13735000D01*
G75*
G02*
X12794000Y-13575000I160000J0D01*
G01*
G37*
%TD.AperFunction*%
%TO.P,R23,1*%
%TO.N,/CC2*%
%TA.AperFunction,SMDPad,CuDef*%
G36*
G01*
X12794000Y-12380000D02*
X13114000Y-12380000D01*
G75*
G02*
X13274000Y-12540000I0J-160000D01*
G01*
X13274000Y-12935000D01*
G75*
G02*
X13114000Y-13095000I-160000J0D01*
G01*
X12794000Y-13095000D01*
G75*
G02*
X12634000Y-12935000I0J160000D01*
G01*
X12634000Y-12540000D01*
G75*
G02*
X12794000Y-12380000I160000J0D01*
G01*
G37*
%TD.AperFunction*%
%TD*%
%TO.P,R22,2*%
%TO.N,+3V3*%
%TA.AperFunction,SMDPad,CuDef*%
G36*
G01*
X10174000Y-16477000D02*
X10174000Y-16797000D01*
G75*
G02*
X10014000Y-16957000I-160000J0D01*
G01*
X9619000Y-16957000D01*
G75*
G02*
X9459000Y-16797000I0J160000D01*
G01*
X9459000Y-16477000D01*
G75*
G02*
X9619000Y-16317000I160000J0D01*
G01*
X10014000Y-16317000D01*
G75*
G02*
X10174000Y-16477000I0J-160000D01*
G01*
G37*
%TD.AperFunction*%
%TO.P,R22,1*%
%TO.N,Net-(Q2-Pad6)*%
%TA.AperFunction,SMDPad,CuDef*%
G36*
G01*
X11369000Y-16477000D02*
X11369000Y-16797000D01*
G75*
G02*
X11209000Y-16957000I-160000J0D01*
G01*
X10814000Y-16957000D01*
G75*
G02*
X10654000Y-16797000I0J160000D01*
G01*
X10654000Y-16477000D01*
G75*
G02*
X10814000Y-16317000I160000J0D01*
G01*
X11209000Y-16317000D01*
G75*
G02*
X11369000Y-16477000I0J-160000D01*
G01*
G37*
%TD.AperFunction*%
%TD*%
%TO.P,R21,2*%
%TO.N,/CC2*%
%TA.AperFunction,SMDPad,CuDef*%
G36*
G01*
X18318500Y-22147500D02*
X18638500Y-22147500D01*
G75*
G02*
X18798500Y-22307500I0J-160000D01*
G01*
X18798500Y-22702500D01*
G75*
G02*
X18638500Y-22862500I-160000J0D01*
G01*
X18318500Y-22862500D01*
G75*
G02*
X18158500Y-22702500I0J160000D01*
G01*
X18158500Y-22307500D01*
G75*
G02*
X18318500Y-22147500I160000J0D01*
G01*
G37*
%TD.AperFunction*%
%TO.P,R21,1*%
%TO.N,/CC2_RPUSB*%
%TA.AperFunction,SMDPad,CuDef*%
G36*
G01*
X18318500Y-20952500D02*
X18638500Y-20952500D01*
G75*
G02*
X18798500Y-21112500I0J-160000D01*
G01*
X18798500Y-21507500D01*
G75*
G02*
X18638500Y-21667500I-160000J0D01*
G01*
X18318500Y-21667500D01*
G75*
G02*
X18158500Y-21507500I0J160000D01*
G01*
X18158500Y-21112500D01*
G75*
G02*
X18318500Y-20952500I160000J0D01*
G01*
G37*
%TD.AperFunction*%
%TD*%
%TO.P,R20,2*%
%TO.N,/CC2*%
%TA.AperFunction,SMDPad,CuDef*%
G36*
G01*
X17302500Y-22147500D02*
X17622500Y-22147500D01*
G75*
G02*
X17782500Y-22307500I0J-160000D01*
G01*
X17782500Y-22702500D01*
G75*
G02*
X17622500Y-22862500I-160000J0D01*
G01*
X17302500Y-22862500D01*
G75*
G02*
X17142500Y-22702500I0J160000D01*
G01*
X17142500Y-22307500D01*
G75*
G02*
X17302500Y-22147500I160000J0D01*
G01*
G37*
%TD.AperFunction*%
%TO.P,R20,1*%
%TO.N,/CC2_RD*%
%TA.AperFunction,SMDPad,CuDef*%
G36*
G01*
X17302500Y-20952500D02*
X17622500Y-20952500D01*
G75*
G02*
X17782500Y-21112500I0J-160000D01*
G01*
X17782500Y-21507500D01*
G75*
G02*
X17622500Y-21667500I-160000J0D01*
G01*
X17302500Y-21667500D01*
G75*
G02*
X17142500Y-21507500I0J160000D01*
G01*
X17142500Y-21112500D01*
G75*
G02*
X17302500Y-20952500I160000J0D01*
G01*
G37*
%TD.AperFunction*%
%TD*%
%TO.P,R19,2*%
%TO.N,/CC2*%
%TA.AperFunction,SMDPad,CuDef*%
G36*
G01*
X16286500Y-22147500D02*
X16606500Y-22147500D01*
G75*
G02*
X16766500Y-22307500I0J-160000D01*
G01*
X16766500Y-22702500D01*
G75*
G02*
X16606500Y-22862500I-160000J0D01*
G01*
X16286500Y-22862500D01*
G75*
G02*
X16126500Y-22702500I0J160000D01*
G01*
X16126500Y-22307500D01*
G75*
G02*
X16286500Y-22147500I160000J0D01*
G01*
G37*
%TD.AperFunction*%
%TO.P,R19,1*%
%TO.N,/CC2_RP1A5*%
%TA.AperFunction,SMDPad,CuDef*%
G36*
G01*
X16286500Y-20952500D02*
X16606500Y-20952500D01*
G75*
G02*
X16766500Y-21112500I0J-160000D01*
G01*
X16766500Y-21507500D01*
G75*
G02*
X16606500Y-21667500I-160000J0D01*
G01*
X16286500Y-21667500D01*
G75*
G02*
X16126500Y-21507500I0J160000D01*
G01*
X16126500Y-21112500D01*
G75*
G02*
X16286500Y-20952500I160000J0D01*
G01*
G37*
%TD.AperFunction*%
%TD*%
%TO.P,R18,2*%
%TO.N,/CC2*%
%TA.AperFunction,SMDPad,CuDef*%
G36*
G01*
X15270500Y-22147500D02*
X15590500Y-22147500D01*
G75*
G02*
X15750500Y-22307500I0J-160000D01*
G01*
X15750500Y-22702500D01*
G75*
G02*
X15590500Y-22862500I-160000J0D01*
G01*
X15270500Y-22862500D01*
G75*
G02*
X15110500Y-22702500I0J160000D01*
G01*
X15110500Y-22307500D01*
G75*
G02*
X15270500Y-22147500I160000J0D01*
G01*
G37*
%TD.AperFunction*%
%TO.P,R18,1*%
%TO.N,/CC2_RA*%
%TA.AperFunction,SMDPad,CuDef*%
G36*
G01*
X15270500Y-20952500D02*
X15590500Y-20952500D01*
G75*
G02*
X15750500Y-21112500I0J-160000D01*
G01*
X15750500Y-21507500D01*
G75*
G02*
X15590500Y-21667500I-160000J0D01*
G01*
X15270500Y-21667500D01*
G75*
G02*
X15110500Y-21507500I0J160000D01*
G01*
X15110500Y-21112500D01*
G75*
G02*
X15270500Y-20952500I160000J0D01*
G01*
G37*
%TD.AperFunction*%
%TD*%
%TO.P,R17,2*%
%TO.N,/CC2*%
%TA.AperFunction,SMDPad,CuDef*%
G36*
G01*
X14254500Y-22147500D02*
X14574500Y-22147500D01*
G75*
G02*
X14734500Y-22307500I0J-160000D01*
G01*
X14734500Y-22702500D01*
G75*
G02*
X14574500Y-22862500I-160000J0D01*
G01*
X14254500Y-22862500D01*
G75*
G02*
X14094500Y-22702500I0J160000D01*
G01*
X14094500Y-22307500D01*
G75*
G02*
X14254500Y-22147500I160000J0D01*
G01*
G37*
%TD.AperFunction*%
%TO.P,R17,1*%
%TO.N,/CC2_RP3A0*%
%TA.AperFunction,SMDPad,CuDef*%
G36*
G01*
X14254500Y-20952500D02*
X14574500Y-20952500D01*
G75*
G02*
X14734500Y-21112500I0J-160000D01*
G01*
X14734500Y-21507500D01*
G75*
G02*
X14574500Y-21667500I-160000J0D01*
G01*
X14254500Y-21667500D01*
G75*
G02*
X14094500Y-21507500I0J160000D01*
G01*
X14094500Y-21112500D01*
G75*
G02*
X14254500Y-20952500I160000J0D01*
G01*
G37*
%TD.AperFunction*%
%TD*%
%TO.P,R15,2*%
%TO.N,Net-(Q1-Pad3)*%
%TA.AperFunction,SMDPad,CuDef*%
G36*
G01*
X3332500Y-13956000D02*
X3652500Y-13956000D01*
G75*
G02*
X3812500Y-14116000I0J-160000D01*
G01*
X3812500Y-14511000D01*
G75*
G02*
X3652500Y-14671000I-160000J0D01*
G01*
X3332500Y-14671000D01*
G75*
G02*
X3172500Y-14511000I0J160000D01*
G01*
X3172500Y-14116000D01*
G75*
G02*
X3332500Y-13956000I160000J0D01*
G01*
G37*
%TD.AperFunction*%
%TO.P,R15,1*%
%TO.N,/CC1*%
%TA.AperFunction,SMDPad,CuDef*%
G36*
G01*
X3332500Y-12761000D02*
X3652500Y-12761000D01*
G75*
G02*
X3812500Y-12921000I0J-160000D01*
G01*
X3812500Y-13316000D01*
G75*
G02*
X3652500Y-13476000I-160000J0D01*
G01*
X3332500Y-13476000D01*
G75*
G02*
X3172500Y-13316000I0J160000D01*
G01*
X3172500Y-12921000D01*
G75*
G02*
X3332500Y-12761000I160000J0D01*
G01*
G37*
%TD.AperFunction*%
%TD*%
%TO.P,R13,2*%
%TO.N,/CC1*%
%TA.AperFunction,SMDPad,CuDef*%
G36*
G01*
X4668500Y-13476000D02*
X4348500Y-13476000D01*
G75*
G02*
X4188500Y-13316000I0J160000D01*
G01*
X4188500Y-12921000D01*
G75*
G02*
X4348500Y-12761000I160000J0D01*
G01*
X4668500Y-12761000D01*
G75*
G02*
X4828500Y-12921000I0J-160000D01*
G01*
X4828500Y-13316000D01*
G75*
G02*
X4668500Y-13476000I-160000J0D01*
G01*
G37*
%TD.AperFunction*%
%TO.P,R13,1*%
%TO.N,/CC1_RPUSB*%
%TA.AperFunction,SMDPad,CuDef*%
G36*
G01*
X4668500Y-14671000D02*
X4348500Y-14671000D01*
G75*
G02*
X4188500Y-14511000I0J160000D01*
G01*
X4188500Y-14116000D01*
G75*
G02*
X4348500Y-13956000I160000J0D01*
G01*
X4668500Y-13956000D01*
G75*
G02*
X4828500Y-14116000I0J-160000D01*
G01*
X4828500Y-14511000D01*
G75*
G02*
X4668500Y-14671000I-160000J0D01*
G01*
G37*
%TD.AperFunction*%
%TD*%
%TO.P,R12,2*%
%TO.N,/CC1*%
%TA.AperFunction,SMDPad,CuDef*%
G36*
G01*
X5684500Y-13476000D02*
X5364500Y-13476000D01*
G75*
G02*
X5204500Y-13316000I0J160000D01*
G01*
X5204500Y-12921000D01*
G75*
G02*
X5364500Y-12761000I160000J0D01*
G01*
X5684500Y-12761000D01*
G75*
G02*
X5844500Y-12921000I0J-160000D01*
G01*
X5844500Y-13316000D01*
G75*
G02*
X5684500Y-13476000I-160000J0D01*
G01*
G37*
%TD.AperFunction*%
%TO.P,R12,1*%
%TO.N,/CC1_RD*%
%TA.AperFunction,SMDPad,CuDef*%
G36*
G01*
X5684500Y-14671000D02*
X5364500Y-14671000D01*
G75*
G02*
X5204500Y-14511000I0J160000D01*
G01*
X5204500Y-14116000D01*
G75*
G02*
X5364500Y-13956000I160000J0D01*
G01*
X5684500Y-13956000D01*
G75*
G02*
X5844500Y-14116000I0J-160000D01*
G01*
X5844500Y-14511000D01*
G75*
G02*
X5684500Y-14671000I-160000J0D01*
G01*
G37*
%TD.AperFunction*%
%TD*%
%TO.P,R11,2*%
%TO.N,/CC1*%
%TA.AperFunction,SMDPad,CuDef*%
G36*
G01*
X6700500Y-13476000D02*
X6380500Y-13476000D01*
G75*
G02*
X6220500Y-13316000I0J160000D01*
G01*
X6220500Y-12921000D01*
G75*
G02*
X6380500Y-12761000I160000J0D01*
G01*
X6700500Y-12761000D01*
G75*
G02*
X6860500Y-12921000I0J-160000D01*
G01*
X6860500Y-13316000D01*
G75*
G02*
X6700500Y-13476000I-160000J0D01*
G01*
G37*
%TD.AperFunction*%
%TO.P,R11,1*%
%TO.N,/CC1_RP1A5*%
%TA.AperFunction,SMDPad,CuDef*%
G36*
G01*
X6700500Y-14671000D02*
X6380500Y-14671000D01*
G75*
G02*
X6220500Y-14511000I0J160000D01*
G01*
X6220500Y-14116000D01*
G75*
G02*
X6380500Y-13956000I160000J0D01*
G01*
X6700500Y-13956000D01*
G75*
G02*
X6860500Y-14116000I0J-160000D01*
G01*
X6860500Y-14511000D01*
G75*
G02*
X6700500Y-14671000I-160000J0D01*
G01*
G37*
%TD.AperFunction*%
%TD*%
%TO.P,R10,2*%
%TO.N,/CC1*%
%TA.AperFunction,SMDPad,CuDef*%
G36*
G01*
X7716500Y-13476000D02*
X7396500Y-13476000D01*
G75*
G02*
X7236500Y-13316000I0J160000D01*
G01*
X7236500Y-12921000D01*
G75*
G02*
X7396500Y-12761000I160000J0D01*
G01*
X7716500Y-12761000D01*
G75*
G02*
X7876500Y-12921000I0J-160000D01*
G01*
X7876500Y-13316000D01*
G75*
G02*
X7716500Y-13476000I-160000J0D01*
G01*
G37*
%TD.AperFunction*%
%TO.P,R10,1*%
%TO.N,/CC1_RA*%
%TA.AperFunction,SMDPad,CuDef*%
G36*
G01*
X7716500Y-14671000D02*
X7396500Y-14671000D01*
G75*
G02*
X7236500Y-14511000I0J160000D01*
G01*
X7236500Y-14116000D01*
G75*
G02*
X7396500Y-13956000I160000J0D01*
G01*
X7716500Y-13956000D01*
G75*
G02*
X7876500Y-14116000I0J-160000D01*
G01*
X7876500Y-14511000D01*
G75*
G02*
X7716500Y-14671000I-160000J0D01*
G01*
G37*
%TD.AperFunction*%
%TD*%
%TO.P,R9,2*%
%TO.N,/CC1*%
%TA.AperFunction,SMDPad,CuDef*%
G36*
G01*
X8732500Y-13476000D02*
X8412500Y-13476000D01*
G75*
G02*
X8252500Y-13316000I0J160000D01*
G01*
X8252500Y-12921000D01*
G75*
G02*
X8412500Y-12761000I160000J0D01*
G01*
X8732500Y-12761000D01*
G75*
G02*
X8892500Y-12921000I0J-160000D01*
G01*
X8892500Y-13316000D01*
G75*
G02*
X8732500Y-13476000I-160000J0D01*
G01*
G37*
%TD.AperFunction*%
%TO.P,R9,1*%
%TO.N,/CC1_RP3A0*%
%TA.AperFunction,SMDPad,CuDef*%
G36*
G01*
X8732500Y-14671000D02*
X8412500Y-14671000D01*
G75*
G02*
X8252500Y-14511000I0J160000D01*
G01*
X8252500Y-14116000D01*
G75*
G02*
X8412500Y-13956000I160000J0D01*
G01*
X8732500Y-13956000D01*
G75*
G02*
X8892500Y-14116000I0J-160000D01*
G01*
X8892500Y-14511000D01*
G75*
G02*
X8732500Y-14671000I-160000J0D01*
G01*
G37*
%TD.AperFunction*%
%TD*%
%TO.P,R8,2*%
%TO.N,GND*%
%TA.AperFunction,SMDPad,CuDef*%
G36*
G01*
X7697500Y-11841500D02*
X7697500Y-12161500D01*
G75*
G02*
X7537500Y-12321500I-160000J0D01*
G01*
X7142500Y-12321500D01*
G75*
G02*
X6982500Y-12161500I0J160000D01*
G01*
X6982500Y-11841500D01*
G75*
G02*
X7142500Y-11681500I160000J0D01*
G01*
X7537500Y-11681500D01*
G75*
G02*
X7697500Y-11841500I0J-160000D01*
G01*
G37*
%TD.AperFunction*%
%TO.P,R8,1*%
%TO.N,/CC1_EN*%
%TA.AperFunction,SMDPad,CuDef*%
G36*
G01*
X8892500Y-11841500D02*
X8892500Y-12161500D01*
G75*
G02*
X8732500Y-12321500I-160000J0D01*
G01*
X8337500Y-12321500D01*
G75*
G02*
X8177500Y-12161500I0J160000D01*
G01*
X8177500Y-11841500D01*
G75*
G02*
X8337500Y-11681500I160000J0D01*
G01*
X8732500Y-11681500D01*
G75*
G02*
X8892500Y-11841500I0J-160000D01*
G01*
G37*
%TD.AperFunction*%
%TD*%
%TO.P,R7,2*%
%TO.N,/LED_B_L*%
%TA.AperFunction,SMDPad,CuDef*%
G36*
G01*
X19318000Y-24097000D02*
X19318000Y-24417000D01*
G75*
G02*
X19158000Y-24577000I-160000J0D01*
G01*
X18763000Y-24577000D01*
G75*
G02*
X18603000Y-24417000I0J160000D01*
G01*
X18603000Y-24097000D01*
G75*
G02*
X18763000Y-23937000I160000J0D01*
G01*
X19158000Y-23937000D01*
G75*
G02*
X19318000Y-24097000I0J-160000D01*
G01*
G37*
%TD.AperFunction*%
%TO.P,R7,1*%
%TO.N,Net-(DS2-Pad3)*%
%TA.AperFunction,SMDPad,CuDef*%
G36*
G01*
X20513000Y-24097000D02*
X20513000Y-24417000D01*
G75*
G02*
X20353000Y-24577000I-160000J0D01*
G01*
X19958000Y-24577000D01*
G75*
G02*
X19798000Y-24417000I0J160000D01*
G01*
X19798000Y-24097000D01*
G75*
G02*
X19958000Y-23937000I160000J0D01*
G01*
X20353000Y-23937000D01*
G75*
G02*
X20513000Y-24097000I0J-160000D01*
G01*
G37*
%TD.AperFunction*%
%TD*%
%TO.P,R6,2*%
%TO.N,/LED_G_L*%
%TA.AperFunction,SMDPad,CuDef*%
G36*
G01*
X22512000Y-20207000D02*
X22192000Y-20207000D01*
G75*
G02*
X22032000Y-20047000I0J160000D01*
G01*
X22032000Y-19652000D01*
G75*
G02*
X22192000Y-19492000I160000J0D01*
G01*
X22512000Y-19492000D01*
G75*
G02*
X22672000Y-19652000I0J-160000D01*
G01*
X22672000Y-20047000D01*
G75*
G02*
X22512000Y-20207000I-160000J0D01*
G01*
G37*
%TD.AperFunction*%
%TO.P,R6,1*%
%TO.N,Net-(DS2-Pad4)*%
%TA.AperFunction,SMDPad,CuDef*%
G36*
G01*
X22512000Y-21402000D02*
X22192000Y-21402000D01*
G75*
G02*
X22032000Y-21242000I0J160000D01*
G01*
X22032000Y-20847000D01*
G75*
G02*
X22192000Y-20687000I160000J0D01*
G01*
X22512000Y-20687000D01*
G75*
G02*
X22672000Y-20847000I0J-160000D01*
G01*
X22672000Y-21242000D01*
G75*
G02*
X22512000Y-21402000I-160000J0D01*
G01*
G37*
%TD.AperFunction*%
%TD*%
%TO.P,R5,2*%
%TO.N,/LED_R_L*%
%TA.AperFunction,SMDPad,CuDef*%
G36*
G01*
X23763000Y-20922000D02*
X23763000Y-21242000D01*
G75*
G02*
X23603000Y-21402000I-160000J0D01*
G01*
X23208000Y-21402000D01*
G75*
G02*
X23048000Y-21242000I0J160000D01*
G01*
X23048000Y-20922000D01*
G75*
G02*
X23208000Y-20762000I160000J0D01*
G01*
X23603000Y-20762000D01*
G75*
G02*
X23763000Y-20922000I0J-160000D01*
G01*
G37*
%TD.AperFunction*%
%TO.P,R5,1*%
%TO.N,Net-(DS2-Pad1)*%
%TA.AperFunction,SMDPad,CuDef*%
G36*
G01*
X24958000Y-20922000D02*
X24958000Y-21242000D01*
G75*
G02*
X24798000Y-21402000I-160000J0D01*
G01*
X24403000Y-21402000D01*
G75*
G02*
X24243000Y-21242000I0J160000D01*
G01*
X24243000Y-20922000D01*
G75*
G02*
X24403000Y-20762000I160000J0D01*
G01*
X24798000Y-20762000D01*
G75*
G02*
X24958000Y-20922000I0J-160000D01*
G01*
G37*
%TD.AperFunction*%
%TD*%
%TO.P,R1,2*%
%TO.N,/BOOT*%
%TA.AperFunction,SMDPad,CuDef*%
G36*
G01*
X24243000Y-19972000D02*
X24243000Y-19652000D01*
G75*
G02*
X24403000Y-19492000I160000J0D01*
G01*
X24798000Y-19492000D01*
G75*
G02*
X24958000Y-19652000I0J-160000D01*
G01*
X24958000Y-19972000D01*
G75*
G02*
X24798000Y-20132000I-160000J0D01*
G01*
X24403000Y-20132000D01*
G75*
G02*
X24243000Y-19972000I0J160000D01*
G01*
G37*
%TD.AperFunction*%
%TO.P,R1,1*%
%TO.N,+3V3*%
%TA.AperFunction,SMDPad,CuDef*%
G36*
G01*
X23048000Y-19972000D02*
X23048000Y-19652000D01*
G75*
G02*
X23208000Y-19492000I160000J0D01*
G01*
X23603000Y-19492000D01*
G75*
G02*
X23763000Y-19652000I0J-160000D01*
G01*
X23763000Y-19972000D01*
G75*
G02*
X23603000Y-20132000I-160000J0D01*
G01*
X23208000Y-20132000D01*
G75*
G02*
X23048000Y-19972000I0J160000D01*
G01*
G37*
%TD.AperFunction*%
%TD*%
D10*
%TO.P,Q2,6*%
%TO.N,Net-(Q2-Pad6)*%
X9781500Y-15318500D03*
%TO.P,Q2,4*%
%TO.N,GND*%
X9781500Y-14018500D03*
%TO.P,Q2,2*%
%TO.N,/CC2_TX_DATA*%
X11681500Y-14668500D03*
%TO.P,Q2,5*%
%TO.N,/CC2_TX_EN*%
X9781500Y-14668500D03*
%TO.P,Q2,3*%
%TO.N,Net-(Q2-Pad3)*%
X11681500Y-14018500D03*
%TO.P,Q2,1*%
%TO.N,/CC2*%
X11681500Y-15318500D03*
%TD*%
D21*
%TO.P,Q1,6*%
%TO.N,Net-(Q1-Pad6)*%
X2174000Y-15174000D03*
%TO.P,Q1,4*%
%TO.N,GND*%
X874000Y-15174000D03*
%TO.P,Q1,2*%
%TO.N,/CC1_TX_DATA*%
X1524000Y-13274000D03*
%TO.P,Q1,5*%
%TO.N,/CC1_TX_EN*%
X1524000Y-15174000D03*
%TO.P,Q1,3*%
%TO.N,Net-(Q1-Pad3)*%
X874000Y-13274000D03*
%TO.P,Q1,1*%
%TO.N,/CC1*%
X2174000Y-13274000D03*
%TD*%
%TO.P,FB2,2*%
%TO.N,Net-(FB2-Pad2)*%
%TA.AperFunction,SMDPad,CuDef*%
G36*
G01*
X17813000Y-15558000D02*
X17493000Y-15558000D01*
G75*
G02*
X17333000Y-15398000I0J160000D01*
G01*
X17333000Y-14953000D01*
G75*
G02*
X17493000Y-14793000I160000J0D01*
G01*
X17813000Y-14793000D01*
G75*
G02*
X17973000Y-14953000I0J-160000D01*
G01*
X17973000Y-15398000D01*
G75*
G02*
X17813000Y-15558000I-160000J0D01*
G01*
G37*
%TD.AperFunction*%
%TO.P,FB2,1*%
%TO.N,+3V3*%
%TA.AperFunction,SMDPad,CuDef*%
G36*
G01*
X17813000Y-16703000D02*
X17493000Y-16703000D01*
G75*
G02*
X17333000Y-16543000I0J160000D01*
G01*
X17333000Y-16098000D01*
G75*
G02*
X17493000Y-15938000I160000J0D01*
G01*
X17813000Y-15938000D01*
G75*
G02*
X17973000Y-16098000I0J-160000D01*
G01*
X17973000Y-16543000D01*
G75*
G02*
X17813000Y-16703000I-160000J0D01*
G01*
G37*
%TD.AperFunction*%
%TD*%
D22*
%TO.P,DS2,2*%
%TO.N,+5V*%
X24237000Y-22795000D03*
%TO.P,DS2,3*%
%TO.N,Net-(DS2-Pad3)*%
X21737000Y-22795000D03*
%TO.P,DS2,4*%
%TO.N,Net-(DS2-Pad4)*%
X21737000Y-24195000D03*
%TO.P,DS2,1*%
%TO.N,Net-(DS2-Pad1)*%
X24237000Y-24195000D03*
%TD*%
%TO.P,C6,2*%
%TO.N,GND*%
%TA.AperFunction,SMDPad,CuDef*%
G36*
G01*
X16792600Y-17218600D02*
X16792600Y-17528600D01*
G75*
G02*
X16637600Y-17683600I-155000J0D01*
G01*
X16212600Y-17683600D01*
G75*
G02*
X16057600Y-17528600I0J155000D01*
G01*
X16057600Y-17218600D01*
G75*
G02*
X16212600Y-17063600I155000J0D01*
G01*
X16637600Y-17063600D01*
G75*
G02*
X16792600Y-17218600I0J-155000D01*
G01*
G37*
%TD.AperFunction*%
%TO.P,C6,1*%
%TO.N,+3V3*%
%TA.AperFunction,SMDPad,CuDef*%
G36*
G01*
X17927600Y-17218600D02*
X17927600Y-17528600D01*
G75*
G02*
X17772600Y-17683600I-155000J0D01*
G01*
X17347600Y-17683600D01*
G75*
G02*
X17192600Y-17528600I0J155000D01*
G01*
X17192600Y-17218600D01*
G75*
G02*
X17347600Y-17063600I155000J0D01*
G01*
X17772600Y-17063600D01*
G75*
G02*
X17927600Y-17218600I0J-155000D01*
G01*
G37*
%TD.AperFunction*%
%TD*%
%TO.P,C5,2*%
%TO.N,GND*%
%TA.AperFunction,SMDPad,CuDef*%
G36*
G01*
X16792600Y-18221900D02*
X16792600Y-18531900D01*
G75*
G02*
X16637600Y-18686900I-155000J0D01*
G01*
X16212600Y-18686900D01*
G75*
G02*
X16057600Y-18531900I0J155000D01*
G01*
X16057600Y-18221900D01*
G75*
G02*
X16212600Y-18066900I155000J0D01*
G01*
X16637600Y-18066900D01*
G75*
G02*
X16792600Y-18221900I0J-155000D01*
G01*
G37*
%TD.AperFunction*%
%TO.P,C5,1*%
%TO.N,+3V3*%
%TA.AperFunction,SMDPad,CuDef*%
G36*
G01*
X17927600Y-18221900D02*
X17927600Y-18531900D01*
G75*
G02*
X17772600Y-18686900I-155000J0D01*
G01*
X17347600Y-18686900D01*
G75*
G02*
X17192600Y-18531900I0J155000D01*
G01*
X17192600Y-18221900D01*
G75*
G02*
X17347600Y-18066900I155000J0D01*
G01*
X17772600Y-18066900D01*
G75*
G02*
X17927600Y-18221900I0J-155000D01*
G01*
G37*
%TD.AperFunction*%
%TD*%
D23*
%TO.N,GND*%
X14668500Y-7747000D03*
X6477000Y-10414000D03*
X6477000Y-9779000D03*
X6477000Y-2921000D03*
X6477000Y-2286000D03*
D24*
X5080000Y-11557000D03*
X5080000Y-1079500D03*
D23*
X22098000Y-9779000D03*
X22098000Y-2921000D03*
D24*
X18542000Y-5651500D03*
D23*
X12890500Y-6413500D03*
D24*
X15898066Y-4785566D03*
X14160500Y-4762500D03*
X19494500Y-23050500D03*
X21209000Y-20447000D03*
X12382500Y-23558500D03*
X5334000Y-18097500D03*
X4699000Y-18097500D03*
X5969000Y-18097500D03*
D23*
X20891500Y-1651000D03*
D24*
X21209000Y-10731500D03*
X8890000Y-15240000D03*
X13462000Y-20447000D03*
D23*
X19177000Y-14732000D03*
D24*
X15875000Y-17881600D03*
X13412792Y-16961149D03*
%TO.N,+5V*%
X23241000Y-23368000D03*
%TO.N,+3V3*%
X23431500Y-19177000D03*
X5588000Y-17145000D03*
X13081000Y-3937000D03*
X15938500Y-5715000D03*
X12827000Y-7239000D03*
X12442000Y-22102000D03*
X13081000Y-10541000D03*
X13843000Y-7874000D03*
X23136125Y-12260201D03*
X19685000Y-21336000D03*
X5588000Y-16256000D03*
X14605000Y-17907000D03*
X17272000Y-17907000D03*
X9017000Y-16637000D03*
%TO.N,Net-(D1-Pad1)*%
X3810000Y-20828000D03*
D23*
%TO.N,/CC1_RECEP*%
X21336000Y-5969000D03*
X10414000Y-5842000D03*
X8603668Y-5098269D03*
X18923000Y-8509000D03*
X11176000Y-8509000D03*
X11176000Y-10541000D03*
D24*
%TO.N,/CC2_RECEP*%
X10287000Y-6604000D03*
X10287000Y-7239000D03*
X10287000Y-7874000D03*
D23*
X10287000Y-10541000D03*
%TO.N,/CC1_TX_DATA*%
X10383547Y-20741506D03*
X2794000Y-13716000D03*
X4000500Y-15113000D03*
%TO.N,/CC1_TX_EN*%
X10477500Y-21590000D03*
%TO.N,/CC2_TX_DATA*%
X15494000Y-15494000D03*
%TO.N,/CC2_TX_EN*%
X14132613Y-15704645D03*
%TO.N,/CC2*%
X10668000Y-13716000D03*
X19939000Y-14732000D03*
X10795000Y-12700000D03*
%TO.N,/CC1_EN*%
X9337588Y-13053528D03*
X18415000Y-16256000D03*
%TO.N,/CC2_EN*%
X13843000Y-12827000D03*
X19050000Y-13589000D03*
%TO.N,/BOOT*%
X18516600Y-19555981D03*
%TO.N,/LED_R_L*%
X23939500Y-20510500D03*
%TO.N,/LED_G_L*%
X21758605Y-19516395D03*
%TO.N,/LED_B_L*%
X18923000Y-23622000D03*
%TO.N,/CC1_RP3A0*%
X14605000Y-16129000D03*
%TO.N,/CC1_RA*%
X7576582Y-15013987D03*
%TO.N,/CC1_RP1A5*%
X6893653Y-15000138D03*
%TO.N,/CC1_RD*%
X14010642Y-20035519D03*
%TO.N,/CC1_RPUSB*%
X4889500Y-13843000D03*
%TO.N,/CC2_RP3A0*%
X14351000Y-20574000D03*
%TO.N,/CC2_RA*%
X15621000Y-20574000D03*
%TO.N,/CC2_RP1A5*%
X16793347Y-20574000D03*
%TO.N,/CC2_RD*%
X17653000Y-20574000D03*
%TO.N,/CC2_RPUSB*%
X18415000Y-20574000D03*
%TO.N,/INA_SCL*%
X14097000Y-5969000D03*
X14605000Y-10541000D03*
X13307848Y-19323564D03*
%TO.N,/INA_SDA*%
X15161801Y-5492043D03*
X15875000Y-10541000D03*
X13969997Y-10541000D03*
X10714245Y-17733755D03*
%TO.N,/VBUS_ALERT_L*%
X16510000Y-10541000D03*
X21209000Y-18669000D03*
D24*
%TO.N,/VCONN_ALERT_L*%
X15748000Y-3937000D03*
D23*
X21209000Y-17335500D03*
X15240000Y-10541000D03*
%TO.N,/CC2_BUF*%
X21463000Y-13081000D03*
%TO.N,/CC1_BUF*%
X19050000Y-12827000D03*
D24*
%TO.N,Net-(FB2-Pad2)*%
X17018000Y-15621000D03*
%TO.N,/VBUS_PLUG*%
X21717000Y-8001000D03*
X21336000Y-4826000D03*
X18542000Y-3302000D03*
X18542000Y-3937000D03*
X18542000Y-4572000D03*
X20701000Y-4826000D03*
X20701000Y-8001000D03*
X21209000Y-8001000D03*
X21971000Y-5080000D03*
%TO.N,/CC2_PLUG*%
X19558000Y-6604000D03*
X19558000Y-7874000D03*
X19558000Y-7239000D03*
%TO.N,/VBUS_RECEP*%
X7538185Y-4617185D03*
X7919185Y-4236185D03*
X8300185Y-3855185D03*
X7206621Y-7784100D03*
X7585260Y-8162740D03*
X7966260Y-8543740D03*
X10287000Y-3302000D03*
X10287000Y-3937000D03*
X10287000Y-4572000D03*
D23*
%TO.N,/USBC_D-*%
X8735060Y-6629400D03*
%TO.N,/USBC_D+*%
X8088085Y-6008915D03*
%TO.N,/USB_B_D+*%
X14519400Y-23368000D03*
%TO.N,/USB_B_D-*%
X15230600Y-23368000D03*
%TO.N,/TX_CLK*%
X21335742Y-16370299D03*
X10287000Y-15875000D03*
%TD*%
D25*
%TO.N,GND*%
X5675000Y-10100000D02*
X5675000Y-9171001D01*
X5675000Y-2600000D02*
X5675000Y-3528999D01*
X18280500Y-5913000D02*
X18542000Y-5651500D01*
X17340500Y-5913000D02*
X18280500Y-5913000D01*
X16070632Y-4613000D02*
X15898066Y-4785566D01*
X17340500Y-4613000D02*
X16070632Y-4613000D01*
D26*
X20919786Y-9779000D02*
X22098000Y-9779000D01*
X19268786Y-11430000D02*
X20919786Y-9779000D01*
D25*
X874000Y-15174000D02*
X874000Y-15572500D01*
X874000Y-15572500D02*
X571500Y-15875000D01*
D27*
X9177099Y-14952901D02*
X8890000Y-15240000D01*
X9177099Y-14244979D02*
X9177099Y-14952901D01*
X9403578Y-14018500D02*
X9177099Y-14244979D01*
X9781500Y-14018500D02*
X9403578Y-14018500D01*
D25*
X15379700Y-18376900D02*
X15875000Y-17881600D01*
X15324900Y-18376900D02*
X15379700Y-18376900D01*
X16370300Y-18376900D02*
X15875000Y-17881600D01*
X16425100Y-18376900D02*
X16370300Y-18376900D01*
X16383000Y-17373600D02*
X15875000Y-17881600D01*
X16425100Y-17373600D02*
X16383000Y-17373600D01*
X15367000Y-17373600D02*
X15875000Y-17881600D01*
X15324900Y-17373600D02*
X15367000Y-17373600D01*
D26*
X14059500Y-11684000D02*
X14732000Y-11684000D01*
X14732000Y-11684000D02*
X14986000Y-11430000D01*
X14986000Y-11430000D02*
X18415000Y-11430000D01*
D27*
%TO.N,+5V*%
X23814000Y-22795000D02*
X23241000Y-23368000D01*
X24237000Y-22795000D02*
X23814000Y-22795000D01*
D25*
%TO.N,+3V3*%
X13055000Y-3963000D02*
X13081000Y-3937000D01*
X11615500Y-3963000D02*
X13055000Y-3963000D01*
X16390500Y-5263000D02*
X15938500Y-5715000D01*
X17340500Y-5263000D02*
X16390500Y-5263000D01*
X23405500Y-19203000D02*
X23431500Y-19177000D01*
X23405500Y-19812000D02*
X23405500Y-19203000D01*
X2693000Y-16256000D02*
X2566000Y-16383000D01*
X5588000Y-16256000D02*
X2693000Y-16256000D01*
D27*
X14189900Y-17491900D02*
X14189900Y-17373600D01*
X14605000Y-17907000D02*
X14189900Y-17491900D01*
X14189900Y-18322100D02*
X14605000Y-17907000D01*
X14189900Y-18376900D02*
X14189900Y-18322100D01*
X14189900Y-18376900D02*
X14189900Y-17373600D01*
D25*
X17653000Y-17280700D02*
X17560100Y-17373600D01*
X17653000Y-16320500D02*
X17653000Y-17280700D01*
X17306100Y-17872900D02*
X17272000Y-17907000D01*
X17560100Y-17872900D02*
X17306100Y-17872900D01*
X17560100Y-18376900D02*
X17560100Y-17872900D01*
X17560100Y-17872900D02*
X17560100Y-17373600D01*
X14189900Y-18376900D02*
X14189900Y-18761900D01*
X14189900Y-18761900D02*
X14859000Y-19431000D01*
X14859000Y-19431000D02*
X16891000Y-19431000D01*
X17560100Y-18761900D02*
X17560100Y-18376900D01*
X16891000Y-19431000D02*
X17560100Y-18761900D01*
D27*
X9816500Y-16637000D02*
X9017000Y-16637000D01*
D25*
X22791424Y-11915500D02*
X23136125Y-12260201D01*
X20273500Y-11915500D02*
X22791424Y-11915500D01*
%TO.N,Net-(D1-Pad1)*%
X4034000Y-20604000D02*
X3810000Y-20828000D01*
X4034000Y-19436000D02*
X4034000Y-20604000D01*
D26*
%TO.N,Net-(DS2-Pad3)*%
X20312500Y-24219500D02*
X21737000Y-22795000D01*
X20155500Y-24257000D02*
X20155500Y-24137500D01*
%TO.N,Net-(DS2-Pad4)*%
X21737000Y-24195000D02*
X22669500Y-23262500D01*
X22669500Y-23262500D02*
X22669500Y-21907500D01*
X22352000Y-21590000D02*
X22352000Y-21044500D01*
X22669500Y-21907500D02*
X22352000Y-21590000D01*
%TO.N,/CC1_RECEP*%
X21844000Y-5969000D02*
X22240434Y-5600000D01*
X22240434Y-5600000D02*
X23525000Y-5600000D01*
X21336000Y-5969000D02*
X21844000Y-5969000D01*
X7782750Y-5600000D02*
X8284481Y-5098269D01*
X5675000Y-5600000D02*
X7782750Y-5600000D01*
X8284481Y-5098269D02*
X8603668Y-5098269D01*
X11176000Y-10655500D02*
X11681500Y-11161000D01*
X11176000Y-10541000D02*
X11176000Y-10655500D01*
D25*
%TO.N,/CC2_RECEP*%
X11589500Y-7239000D02*
X11615500Y-7213000D01*
X10328000Y-6563000D02*
X10287000Y-6604000D01*
X10313000Y-7213000D02*
X10287000Y-7239000D01*
X10298000Y-7863000D02*
X10287000Y-7874000D01*
D26*
X10540999Y-10794999D02*
X10287000Y-10541000D01*
X10540999Y-12229701D02*
X10540999Y-10794999D01*
X10309700Y-12461000D02*
X10540999Y-12229701D01*
X9781500Y-12461000D02*
X10309700Y-12461000D01*
%TO.N,Net-(Q1-Pad6)*%
X2174000Y-15834000D02*
X2174000Y-15174000D01*
X1625000Y-16383000D02*
X2174000Y-15834000D01*
%TO.N,/CC1_TX_DATA*%
X2682399Y-13827601D02*
X2794000Y-13716000D01*
X1762601Y-13827601D02*
X2682399Y-13827601D01*
X1524000Y-13589000D02*
X1762601Y-13827601D01*
X1524000Y-13274000D02*
X1524000Y-13589000D01*
X10637546Y-20487507D02*
X10637546Y-18806558D01*
X8607700Y-17919712D02*
X5800988Y-15113000D01*
X10637546Y-18806558D02*
X9750700Y-17919712D01*
X5800988Y-15113000D02*
X4000500Y-15113000D01*
X10383547Y-20741506D02*
X10637546Y-20487507D01*
X9750700Y-17919712D02*
X8607700Y-17919712D01*
%TO.N,/CC1_TX_EN*%
X9900946Y-21013446D02*
X10477500Y-21590000D01*
X10287000Y-18923000D02*
X10287000Y-20129500D01*
X9900946Y-20515554D02*
X9900946Y-21013446D01*
X5842000Y-15621000D02*
X8478390Y-18257390D01*
X3557482Y-15621000D02*
X5842000Y-15621000D01*
X9621390Y-18257390D02*
X10287000Y-18923000D01*
X2556881Y-14620399D02*
X3557482Y-15621000D01*
X8478390Y-18257390D02*
X9621390Y-18257390D01*
X1549401Y-14620399D02*
X2556881Y-14620399D01*
X1524000Y-14645800D02*
X1549401Y-14620399D01*
X10287000Y-20129500D02*
X9900946Y-20515554D01*
X1524000Y-15174000D02*
X1524000Y-14645800D01*
%TO.N,Net-(Q1-Pad3)*%
X1521312Y-14290188D02*
X3469188Y-14290188D01*
X3469188Y-14290188D02*
X3492500Y-14313500D01*
X874000Y-13642876D02*
X1521312Y-14290188D01*
X874000Y-13274000D02*
X874000Y-13642876D01*
%TO.N,/CC1*%
X8572500Y-13118500D02*
X7556500Y-13118500D01*
X7556500Y-13118500D02*
X6540500Y-13118500D01*
X6540500Y-13118500D02*
X5524500Y-13118500D01*
X5524500Y-13118500D02*
X4508500Y-13118500D01*
X4508500Y-13118500D02*
X3492500Y-13118500D01*
X2329500Y-13118500D02*
X2174000Y-13274000D01*
X3492500Y-13118500D02*
X2329500Y-13118500D01*
X7926110Y-11250890D02*
X7926110Y-12748890D01*
X9781500Y-11161000D02*
X8016000Y-11161000D01*
X7926110Y-12748890D02*
X7556500Y-13118500D01*
X8016000Y-11161000D02*
X7926110Y-11250890D01*
X15940390Y-13323610D02*
X16048500Y-13215500D01*
X10899649Y-13233399D02*
X10989860Y-13323610D01*
X10989860Y-13323610D02*
X15940390Y-13323610D01*
X10134601Y-13233399D02*
X10899649Y-13233399D01*
X9779000Y-13589000D02*
X10134601Y-13233399D01*
X9043000Y-13589000D02*
X9779000Y-13589000D01*
X8572500Y-13118500D02*
X9043000Y-13589000D01*
%TO.N,Net-(Q2-Pad6)*%
X10797689Y-16423189D02*
X11011500Y-16637000D01*
X10797689Y-15671439D02*
X10797689Y-16423189D01*
X10444750Y-15318500D02*
X10797689Y-15671439D01*
X9781500Y-15318500D02*
X10444750Y-15318500D01*
%TO.N,/CC2_TX_DATA*%
X14668500Y-14668500D02*
X11681500Y-14668500D01*
X15494000Y-15494000D02*
X14668500Y-14668500D01*
%TO.N,/CC2_TX_EN*%
X10604500Y-14668500D02*
X9781500Y-14668500D01*
X10797689Y-14861689D02*
X10604500Y-14668500D01*
X10797689Y-15188158D02*
X10797689Y-14861689D01*
X11292781Y-15866263D02*
X11127899Y-15701381D01*
X11127899Y-15701381D02*
X11127899Y-15518368D01*
X13970995Y-15866263D02*
X11292781Y-15866263D01*
X11127899Y-15518368D02*
X10797689Y-15188158D01*
X14132613Y-15704645D02*
X13970995Y-15866263D01*
%TO.N,Net-(Q2-Pad3)*%
X12868000Y-14018500D02*
X12954000Y-13932500D01*
X11681500Y-14018500D02*
X12868000Y-14018500D01*
%TO.N,/CC2*%
X10668000Y-13716000D02*
X10829700Y-13716000D01*
X11395018Y-15318500D02*
X11681500Y-15318500D01*
X11127899Y-15051381D02*
X11395018Y-15318500D01*
X11127899Y-14175899D02*
X11127899Y-15051381D01*
X10668000Y-13716000D02*
X11127899Y-14175899D01*
X18478500Y-22632000D02*
X17462500Y-22632000D01*
X17462500Y-22632000D02*
X16446500Y-22632000D01*
X16446500Y-22632000D02*
X15430500Y-22632000D01*
X15430500Y-22632000D02*
X14414500Y-22632000D01*
X11681500Y-12461000D02*
X12334000Y-12461000D01*
X12610500Y-12737500D02*
X12954000Y-12737500D01*
X12334000Y-12461000D02*
X12610500Y-12737500D01*
X11034000Y-12461000D02*
X10795000Y-12700000D01*
X11681500Y-12461000D02*
X11034000Y-12461000D01*
X19027110Y-20471860D02*
X19027110Y-21956390D01*
X18646649Y-20091399D02*
X19027110Y-20471860D01*
X19027110Y-21956390D02*
X18478500Y-22505000D01*
X18034000Y-19812000D02*
X18313399Y-20091399D01*
X18415000Y-18923000D02*
X18034000Y-19304000D01*
X18415000Y-18081750D02*
X18415000Y-18923000D01*
X18313399Y-20091399D02*
X18646649Y-20091399D01*
X19939000Y-16557750D02*
X18415000Y-18081750D01*
X18034000Y-19304000D02*
X18034000Y-19812000D01*
X19939000Y-14732000D02*
X19939000Y-16557750D01*
X20273500Y-14397500D02*
X19939000Y-14732000D01*
X20273500Y-13865500D02*
X20273500Y-14397500D01*
%TO.N,/CC1_EN*%
X8725500Y-11811000D02*
X8535000Y-12001500D01*
X9781500Y-11811000D02*
X8725500Y-11811000D01*
X9121110Y-12837050D02*
X9337588Y-13053528D01*
X9121110Y-12587610D02*
X9121110Y-12837050D01*
X8535000Y-12001500D02*
X9121110Y-12587610D01*
%TO.N,/CC2_EN*%
X12737500Y-11811000D02*
X12864500Y-11684000D01*
X11681500Y-11811000D02*
X12737500Y-11811000D01*
X13843000Y-12662500D02*
X13843000Y-12827000D01*
X12864500Y-11684000D02*
X13843000Y-12662500D01*
%TO.N,/BOOT*%
X24600500Y-18505000D02*
X23897500Y-17802000D01*
X24600500Y-19812000D02*
X24600500Y-18505000D01*
X23897500Y-17166500D02*
X23368000Y-16637000D01*
X23897500Y-17802000D02*
X23897500Y-17166500D01*
X23368000Y-16637000D02*
X23368000Y-15494000D01*
X23897500Y-14964500D02*
X23897500Y-14202000D01*
X23368000Y-15494000D02*
X23897500Y-14964500D01*
X21004769Y-19555981D02*
X21637750Y-18923000D01*
X18516600Y-19555981D02*
X21004769Y-19555981D01*
X23897500Y-17921566D02*
X23897500Y-17802000D01*
X22896066Y-18923000D02*
X23897500Y-17921566D01*
X21637750Y-18923000D02*
X22896066Y-18923000D01*
%TO.N,/LED_R_L*%
X23939500Y-20548000D02*
X23405500Y-21082000D01*
X23939500Y-20510500D02*
X23939500Y-20548000D01*
%TO.N,/LED_G_L*%
X22091710Y-19849500D02*
X21758605Y-19516395D01*
X22352000Y-19849500D02*
X22091710Y-19849500D01*
%TO.N,/LED_B_L*%
X18923000Y-24219500D02*
X18960500Y-24257000D01*
X18923000Y-23622000D02*
X18923000Y-24219500D01*
%TO.N,/CC1_RP3A0*%
X11958846Y-17251154D02*
X8873118Y-17251154D01*
X8001000Y-16379036D02*
X8001000Y-15339566D01*
X12827001Y-16382999D02*
X11958846Y-17251154D01*
X8572500Y-14768066D02*
X8572500Y-14313500D01*
X14605000Y-16129000D02*
X14351001Y-16382999D01*
X8001000Y-15339566D02*
X8572500Y-14768066D01*
X8873118Y-17251154D02*
X8001000Y-16379036D01*
X14351001Y-16382999D02*
X12827001Y-16382999D01*
%TO.N,/CC1_RA*%
X7556500Y-14313500D02*
X7556500Y-14993905D01*
X7556500Y-14993905D02*
X7576582Y-15013987D01*
%TO.N,/CC1_RP1A5*%
X6540500Y-14313500D02*
X6540500Y-14646985D01*
X6540500Y-14646985D02*
X6893653Y-15000138D01*
%TO.N,/CC1_RD*%
X5524500Y-14313500D02*
X5524500Y-14369524D01*
X5524500Y-14369524D02*
X6277238Y-15122262D01*
X6179054Y-15024078D02*
X6277238Y-15122262D01*
X12104141Y-19806165D02*
X9887477Y-17589501D01*
X14010642Y-20035519D02*
X13781288Y-19806165D01*
X13781288Y-19806165D02*
X12104141Y-19806165D01*
X8744477Y-17589501D02*
X6277238Y-15122262D01*
X9887477Y-17589501D02*
X8744477Y-17589501D01*
%TO.N,/CC1_RPUSB*%
X4508500Y-14160500D02*
X4508500Y-14313500D01*
X4889500Y-13779500D02*
X4508500Y-14160500D01*
%TO.N,/CC2_RP3A0*%
X14414500Y-20637500D02*
X14351000Y-20574000D01*
X14414500Y-21437000D02*
X14414500Y-20637500D01*
%TO.N,/CC2_RA*%
X15430500Y-21272500D02*
X15430500Y-21437000D01*
X15430500Y-20764500D02*
X15621000Y-20574000D01*
X15430500Y-21310000D02*
X15430500Y-20764500D01*
%TO.N,/CC2_RP1A5*%
X16446500Y-20920847D02*
X16793347Y-20574000D01*
X16446500Y-21310000D02*
X16446500Y-20920847D01*
%TO.N,/CC2_RD*%
X17462500Y-20764500D02*
X17653000Y-20574000D01*
X17462500Y-21310000D02*
X17462500Y-20764500D01*
%TO.N,/CC2_RPUSB*%
X18415000Y-21373500D02*
X18478500Y-21437000D01*
X18478500Y-20637500D02*
X18415000Y-20574000D01*
X18478500Y-21310000D02*
X18478500Y-20637500D01*
%TO.N,/INA_SCL*%
X11615500Y-3313000D02*
X14542871Y-3313000D01*
X14785871Y-3556000D02*
X14785871Y-4920919D01*
X14542871Y-3313000D02*
X14785871Y-3556000D01*
X14785871Y-4920919D02*
X14097000Y-5609790D01*
X14097000Y-5609790D02*
X14097000Y-5969000D01*
%TO.N,/INA_SDA*%
X15356000Y-3313000D02*
X15161801Y-3507199D01*
X17340500Y-3313000D02*
X15356000Y-3313000D01*
X15161801Y-5492043D02*
X15161801Y-3507199D01*
X15621000Y-11049000D02*
X14398750Y-11049000D01*
X15875000Y-10795000D02*
X15621000Y-11049000D01*
X15875000Y-10541000D02*
X15875000Y-10795000D01*
X13969997Y-10620247D02*
X13969997Y-10541000D01*
X14398750Y-11049000D02*
X13969997Y-10620247D01*
%TO.N,/VCONN_ALERT_L*%
X15774000Y-3963000D02*
X15748000Y-3937000D01*
X17340500Y-3963000D02*
X15774000Y-3963000D01*
%TO.N,/CC2_BUF*%
X20273500Y-13215500D02*
X20273500Y-12565500D01*
X21328500Y-13215500D02*
X21463000Y-13081000D01*
X20273500Y-13215500D02*
X21328500Y-13215500D01*
%TO.N,/CC1_BUF*%
X16048500Y-12565500D02*
X16048500Y-11915500D01*
X18788500Y-12565500D02*
X19050000Y-12827000D01*
X18407500Y-12565500D02*
X18788500Y-12565500D01*
X18407500Y-12565500D02*
X16048500Y-12565500D01*
D27*
%TO.N,Net-(FB2-Pad2)*%
X17207500Y-15621000D02*
X17653000Y-15175500D01*
X17018000Y-15621000D02*
X17207500Y-15621000D01*
D28*
%TO.N,/VBUS_PLUG*%
X22354080Y-7747000D02*
X22343316Y-7747000D01*
X22501080Y-7600000D02*
X22354080Y-7747000D01*
X23525000Y-7600000D02*
X22501080Y-7600000D01*
X21991000Y-5100000D02*
X21971000Y-5080000D01*
X23525000Y-5100000D02*
X21991000Y-5100000D01*
D25*
%TO.N,/CC2_PLUG*%
X17340500Y-7863000D02*
X17340500Y-7213000D01*
X17340500Y-6563000D02*
X17340500Y-7213000D01*
D28*
X13802000Y-6563000D02*
X17340500Y-6563000D01*
X13589000Y-6350000D02*
X13802000Y-6563000D01*
X13589000Y-5461000D02*
X13589000Y-6350000D01*
X13391000Y-5263000D02*
X13589000Y-5461000D01*
X11615500Y-5263000D02*
X13391000Y-5263000D01*
%TO.N,/VBUS_RECEP*%
X5675000Y-5100000D02*
X6584000Y-5100000D01*
D25*
X7538185Y-4617185D02*
X7466355Y-4617185D01*
X6983540Y-5100000D02*
X6584000Y-5100000D01*
X7466355Y-4617185D02*
X6983540Y-5100000D01*
D28*
X5675000Y-7600000D02*
X6711000Y-7600000D01*
D25*
X6711000Y-7600000D02*
X6950691Y-7600000D01*
X7134791Y-7784100D02*
X6950691Y-7600000D01*
X7206621Y-7784100D02*
X7134791Y-7784100D01*
X7206621Y-7784100D02*
X7206621Y-7855930D01*
X7513431Y-8162740D02*
X7585260Y-8162740D01*
X7206621Y-7855930D02*
X7513431Y-8162740D01*
X7585260Y-8162740D02*
X7585260Y-8234569D01*
X7894431Y-8543740D02*
X7966260Y-8543740D01*
X7585260Y-8234569D02*
X7894431Y-8543740D01*
X7538185Y-4617185D02*
X7538185Y-4545355D01*
X7847355Y-4236185D02*
X7919185Y-4236185D01*
X7538185Y-4545355D02*
X7847355Y-4236185D01*
X7919185Y-4236185D02*
X7919185Y-4164355D01*
X8228355Y-3855185D02*
X8300185Y-3855185D01*
X7919185Y-4164355D02*
X8228355Y-3855185D01*
D28*
%TO.N,/RX2+*%
X6478362Y-8576060D02*
X7780362Y-9878060D01*
X6448941Y-8576060D02*
X6478362Y-8576060D01*
X7780362Y-9878060D02*
X19651638Y-9878060D01*
X6425001Y-8600000D02*
X6448941Y-8576060D01*
X5675000Y-8600000D02*
X6425001Y-8600000D01*
X19651638Y-9878060D02*
X20286638Y-9243060D01*
X20286638Y-9243060D02*
X21937638Y-9243060D01*
X22880000Y-8600000D02*
X23525000Y-8600000D01*
X22856060Y-8576060D02*
X22880000Y-8600000D01*
X22604638Y-8576060D02*
X22856060Y-8576060D01*
X21937638Y-9243060D02*
X22604638Y-8576060D01*
%TO.N,/RX2-*%
X7967638Y-9425940D02*
X19464362Y-9425940D01*
X6448941Y-8123940D02*
X6665638Y-8123940D01*
X6665638Y-8123940D02*
X7967638Y-9425940D01*
X6425001Y-8100000D02*
X6448941Y-8123940D01*
X5675000Y-8100000D02*
X6425001Y-8100000D01*
X19464362Y-9425940D02*
X20099362Y-8790940D01*
X20099362Y-8790940D02*
X21750362Y-8790940D01*
X22880000Y-8100000D02*
X23525000Y-8100000D01*
X22856060Y-8123940D02*
X22880000Y-8100000D01*
X21750362Y-8790940D02*
X22417362Y-8123940D01*
X22417362Y-8123940D02*
X22856060Y-8123940D01*
D26*
%TO.N,/SBU1*%
X22491000Y-7100000D02*
X23525000Y-7100000D01*
X22153870Y-7437130D02*
X22491000Y-7100000D01*
X20207116Y-7705450D02*
X20207116Y-7605884D01*
X20167599Y-7744967D02*
X20207116Y-7705450D01*
X20167599Y-8053835D02*
X20167599Y-7744967D01*
X19229833Y-8991601D02*
X20167599Y-8053835D01*
X20207116Y-7605884D02*
X20375870Y-7437130D01*
X9880601Y-8991601D02*
X19229833Y-8991601D01*
X7989000Y-7100000D02*
X9880601Y-8991601D01*
X20375870Y-7437130D02*
X22153870Y-7437130D01*
X5675000Y-7100000D02*
X7989000Y-7100000D01*
D28*
%TO.N,/USBC_D-*%
X8681720Y-6576060D02*
X8735060Y-6629400D01*
X5698940Y-6576060D02*
X8681720Y-6576060D01*
X5698940Y-6576060D02*
X5675000Y-6600000D01*
X18575327Y-2512060D02*
X10253638Y-2512060D01*
X9730737Y-3034961D02*
X9730737Y-5332936D01*
X19585940Y-3522673D02*
X18575327Y-2512060D01*
X19585940Y-5681638D02*
X19585940Y-3522673D01*
X8735060Y-6328613D02*
X8735060Y-6629400D01*
X9730737Y-5332936D02*
X8735060Y-6328613D01*
X20988362Y-7084060D02*
X19585940Y-5681638D01*
X10253638Y-2512060D02*
X9730737Y-3034961D01*
X20988362Y-7084060D02*
X21895073Y-7084060D01*
X22880000Y-6600000D02*
X23525000Y-6600000D01*
X22403073Y-6576060D02*
X22856060Y-6576060D01*
X21895073Y-7084060D02*
X22403073Y-6576060D01*
X22856060Y-6576060D02*
X22880000Y-6600000D01*
%TO.N,/USBC_D+*%
X5698940Y-6123940D02*
X5675000Y-6100000D01*
X7973060Y-6123940D02*
X8088085Y-6008915D01*
X5698940Y-6123940D02*
X7973060Y-6123940D01*
X8415362Y-6008915D02*
X8088085Y-6008915D01*
X9278617Y-5145660D02*
X8415362Y-6008915D01*
X18762588Y-2059940D02*
X10066362Y-2059940D01*
X20038060Y-5494362D02*
X20038060Y-3335412D01*
X10066362Y-2059940D02*
X9278617Y-2847685D01*
X9278617Y-2847685D02*
X9278617Y-5145660D01*
X21175638Y-6631940D02*
X20038060Y-5494362D01*
X20038060Y-3335412D02*
X18762588Y-2059940D01*
X21175638Y-6631940D02*
X21707797Y-6631940D01*
X22880000Y-6100000D02*
X23525000Y-6100000D01*
X22856060Y-6123940D02*
X22880000Y-6100000D01*
X22215797Y-6123940D02*
X22856060Y-6123940D01*
X21707797Y-6631940D02*
X22215797Y-6123940D01*
%TO.N,/TX1-*%
X9618638Y-1496060D02*
X18956362Y-1496060D01*
X6538638Y-4576060D02*
X9618638Y-1496060D01*
X6048940Y-4576060D02*
X6538638Y-4576060D01*
X5675000Y-4600000D02*
X6025000Y-4600000D01*
X6025000Y-4600000D02*
X6048940Y-4576060D01*
X21984041Y-4523739D02*
X18956362Y-1496060D01*
X22286238Y-4523739D02*
X21984041Y-4523739D01*
X22362499Y-4600000D02*
X22286238Y-4523739D01*
X23525000Y-4600000D02*
X22362499Y-4600000D01*
%TO.N,/TX1+*%
X6351362Y-4123940D02*
X9431362Y-1043940D01*
X6048940Y-4123940D02*
X6351362Y-4123940D01*
X6025000Y-4100000D02*
X6048940Y-4123940D01*
X9431362Y-1043940D02*
X19143638Y-1043940D01*
X5675000Y-4100000D02*
X6025000Y-4100000D01*
X22171326Y-4071628D02*
X19143638Y-1043940D01*
X22425276Y-4071628D02*
X22171326Y-4071628D01*
X22453648Y-4100000D02*
X22425276Y-4071628D01*
X23525000Y-4100000D02*
X22453648Y-4100000D01*
%TO.N,/USB_B_D+*%
X14648940Y-23497540D02*
X14519400Y-23368000D01*
X14648940Y-23829862D02*
X14648940Y-23497540D01*
X13876362Y-24602440D02*
X14648940Y-23829862D01*
X7269138Y-24602440D02*
X13876362Y-24602440D01*
X6437627Y-23770929D02*
X7269138Y-24602440D01*
X6395740Y-23718405D02*
X6437627Y-23770929D01*
X6366592Y-23657879D02*
X6395740Y-23718405D01*
X6351644Y-23592386D02*
X6366592Y-23657879D01*
X6351643Y-23525206D02*
X6351644Y-23592386D01*
X6366593Y-23459713D02*
X6351643Y-23525206D01*
X6296204Y-22639557D02*
X6348727Y-22597672D01*
X5900313Y-22993432D02*
X5960840Y-22964286D01*
X5960840Y-22964286D02*
X6013363Y-22922401D01*
X6541926Y-22553575D02*
X6607421Y-22568525D01*
X5834820Y-23008382D02*
X5900313Y-22993432D01*
X5641620Y-22964285D02*
X5702147Y-22993433D01*
X6013363Y-22922401D02*
X6296204Y-22639557D01*
X6720468Y-23063821D02*
X6437626Y-23346664D01*
X5235060Y-22568362D02*
X5589099Y-22922401D01*
X5589099Y-22922401D02*
X5641620Y-22964285D01*
X5235060Y-20509941D02*
X5235060Y-22568362D01*
X6474748Y-22553576D02*
X6541926Y-22553575D01*
X5702147Y-22993433D02*
X5767640Y-23008381D01*
X6409253Y-22568524D02*
X6474748Y-22553576D01*
X5334000Y-20411001D02*
X5235060Y-20509941D01*
X6762353Y-23011298D02*
X6720468Y-23063821D01*
X5334000Y-19436000D02*
X5334000Y-20411001D01*
X6348727Y-22597672D02*
X6409253Y-22568524D01*
X6607421Y-22568525D02*
X6667947Y-22597673D01*
X6395741Y-23399187D02*
X6366593Y-23459713D01*
X6667947Y-22597673D02*
X6720468Y-22639557D01*
X6720468Y-22639557D02*
X6762354Y-22692080D01*
X6762354Y-22692080D02*
X6791500Y-22752605D01*
X6791500Y-22752605D02*
X6806450Y-22818100D01*
X6806450Y-22818100D02*
X6806449Y-22885278D01*
X6806449Y-22885278D02*
X6791501Y-22950773D01*
X5767640Y-23008381D02*
X5834820Y-23008382D01*
X6791501Y-22950773D02*
X6762353Y-23011298D01*
X6437626Y-23346664D02*
X6395741Y-23399187D01*
%TO.N,/USB_B_D-*%
X15230600Y-23368000D02*
X15101060Y-23497540D01*
X15101060Y-23497540D02*
X15101060Y-24017138D01*
X15101060Y-24017138D02*
X14063638Y-25054560D01*
X14063638Y-25054560D02*
X7081862Y-25054560D01*
X4684000Y-20411001D02*
X4684000Y-19436000D01*
X4782940Y-20509941D02*
X4684000Y-20411001D01*
X7081862Y-25054560D02*
X4782940Y-22755638D01*
X4782940Y-22755638D02*
X4782940Y-20509941D01*
D26*
%TO.N,Net-(DS2-Pad1)*%
X24965601Y-23466399D02*
X24237000Y-24195000D01*
X24965601Y-21447101D02*
X24965601Y-23466399D01*
X24600500Y-21082000D02*
X24965601Y-21447101D01*
%TD*%
D29*
%TO.N,GND*%
X355678Y-15711696D02*
X403289Y-15769711D01*
X461304Y-15817322D01*
X527492Y-15852701D01*
X599311Y-15874487D01*
X674000Y-15881843D01*
X705750Y-15880000D01*
X746998Y-15838752D01*
X746998Y-15880000D01*
X859993Y-15880000D01*
X843794Y-15893294D01*
X785807Y-15963952D01*
X742719Y-16044565D01*
X716185Y-16132034D01*
X707226Y-16223000D01*
X707226Y-16543000D01*
X716185Y-16633966D01*
X742719Y-16721435D01*
X785807Y-16802048D01*
X843794Y-16872706D01*
X914452Y-16930693D01*
X995065Y-16973781D01*
X1082534Y-17000315D01*
X1173500Y-17009274D01*
X1568500Y-17009274D01*
X1659466Y-17000315D01*
X1746935Y-16973781D01*
X1827548Y-16930693D01*
X1898206Y-16872706D01*
X1956193Y-16802048D01*
X1968500Y-16779023D01*
X1980807Y-16802048D01*
X2038794Y-16872706D01*
X2109452Y-16930693D01*
X2190065Y-16973781D01*
X2277534Y-17000315D01*
X2368500Y-17009274D01*
X2763500Y-17009274D01*
X2854466Y-17000315D01*
X2941935Y-16973781D01*
X3022548Y-16930693D01*
X3093206Y-16872706D01*
X3140728Y-16814800D01*
X5075472Y-16814800D01*
X5047779Y-16856246D01*
X5001826Y-16967186D01*
X4978400Y-17084960D01*
X4978400Y-17205040D01*
X5001826Y-17322814D01*
X5047779Y-17433754D01*
X5114492Y-17533598D01*
X5199402Y-17618508D01*
X5299246Y-17685221D01*
X5410186Y-17731174D01*
X5527960Y-17754600D01*
X5648040Y-17754600D01*
X5765814Y-17731174D01*
X5876754Y-17685221D01*
X5976598Y-17618508D01*
X6061508Y-17533598D01*
X6128221Y-17433754D01*
X6174174Y-17322814D01*
X6197600Y-17205040D01*
X6197600Y-17084960D01*
X6174174Y-16967186D01*
X6128221Y-16856246D01*
X6061508Y-16756402D01*
X6005606Y-16700500D01*
X6061508Y-16644598D01*
X6128221Y-16544754D01*
X6146614Y-16500350D01*
X8176908Y-18530644D01*
X8179935Y-18534332D01*
X8085790Y-18670419D01*
X7999028Y-18870670D01*
X7953000Y-19084000D01*
X7953000Y-19359000D01*
X8932000Y-19359000D01*
X8932000Y-19339000D01*
X9186000Y-19339000D01*
X9186000Y-19359000D01*
X9206000Y-19359000D01*
X9206000Y-19613000D01*
X9186000Y-19613000D01*
X9186000Y-20763740D01*
X9356308Y-20826290D01*
X9494547Y-20777199D01*
X9494547Y-20993484D01*
X9492581Y-21013446D01*
X9500427Y-21093114D01*
X9523665Y-21169720D01*
X9541232Y-21202584D01*
X9561403Y-21240322D01*
X9571431Y-21252541D01*
X9599464Y-21286700D01*
X9599470Y-21286706D01*
X9612189Y-21302204D01*
X9627687Y-21314923D01*
X9918700Y-21605936D01*
X9918700Y-21645037D01*
X9940174Y-21752996D01*
X9982298Y-21854691D01*
X10043452Y-21946214D01*
X10121286Y-22024048D01*
X10212809Y-22085202D01*
X10314504Y-22127326D01*
X10422463Y-22148800D01*
X10532537Y-22148800D01*
X10640496Y-22127326D01*
X10742191Y-22085202D01*
X10806906Y-22041960D01*
X11832400Y-22041960D01*
X11832400Y-22162040D01*
X11855826Y-22279814D01*
X11901779Y-22390754D01*
X11968492Y-22490598D01*
X12053402Y-22575508D01*
X12153246Y-22642221D01*
X12264186Y-22688174D01*
X12381960Y-22711600D01*
X12502040Y-22711600D01*
X12619814Y-22688174D01*
X12730754Y-22642221D01*
X12830598Y-22575508D01*
X12915508Y-22490598D01*
X12982221Y-22390754D01*
X13028174Y-22279814D01*
X13051600Y-22162040D01*
X13051600Y-22041960D01*
X13028174Y-21924186D01*
X12982221Y-21813246D01*
X12915508Y-21713402D01*
X12830598Y-21628492D01*
X12730754Y-21561779D01*
X12619814Y-21515826D01*
X12502040Y-21492400D01*
X12381960Y-21492400D01*
X12264186Y-21515826D01*
X12153246Y-21561779D01*
X12053402Y-21628492D01*
X11968492Y-21713402D01*
X11901779Y-21813246D01*
X11855826Y-21924186D01*
X11832400Y-22041960D01*
X10806906Y-22041960D01*
X10833714Y-22024048D01*
X10911548Y-21946214D01*
X10972702Y-21854691D01*
X11014826Y-21752996D01*
X11036300Y-21645037D01*
X11036300Y-21534963D01*
X11014826Y-21427004D01*
X10972702Y-21325309D01*
X10911548Y-21233786D01*
X10833714Y-21155952D01*
X10789144Y-21126171D01*
X10817595Y-21097720D01*
X10878749Y-21006197D01*
X10920873Y-20904502D01*
X10942347Y-20796543D01*
X10942347Y-20756717D01*
X10977090Y-20714383D01*
X11014827Y-20643782D01*
X11026567Y-20605081D01*
X11038065Y-20567176D01*
X11039606Y-20551528D01*
X11043946Y-20507467D01*
X11043946Y-20507460D01*
X11045911Y-20487507D01*
X11043946Y-20467554D01*
X11043946Y-19320706D01*
X11802659Y-20079419D01*
X11815383Y-20094923D01*
X11877265Y-20145709D01*
X11947866Y-20183446D01*
X11997543Y-20198515D01*
X12024472Y-20206684D01*
X12032476Y-20207472D01*
X12084181Y-20212565D01*
X12084187Y-20212565D01*
X12104140Y-20214530D01*
X12124093Y-20212565D01*
X13479136Y-20212565D01*
X13515440Y-20300210D01*
X13576594Y-20391733D01*
X13654428Y-20469567D01*
X13745951Y-20530721D01*
X13792200Y-20549878D01*
X13792200Y-20629037D01*
X13813674Y-20736996D01*
X13855798Y-20838691D01*
X13866298Y-20854405D01*
X13823719Y-20934065D01*
X13797185Y-21021534D01*
X13788226Y-21112500D01*
X13788226Y-21507500D01*
X13797185Y-21598466D01*
X13823719Y-21685935D01*
X13866807Y-21766548D01*
X13924794Y-21837206D01*
X13995452Y-21895193D01*
X14018477Y-21907500D01*
X13995452Y-21919807D01*
X13924794Y-21977794D01*
X13866807Y-22048452D01*
X13823719Y-22129065D01*
X13797185Y-22216534D01*
X13788226Y-22307500D01*
X13788226Y-22702500D01*
X13797185Y-22793466D01*
X13823719Y-22880935D01*
X13866807Y-22961548D01*
X13924794Y-23032206D01*
X13995452Y-23090193D01*
X14023435Y-23105150D01*
X13982074Y-23205004D01*
X13960600Y-23312963D01*
X13960600Y-23423037D01*
X13982074Y-23530996D01*
X14024198Y-23632691D01*
X14085352Y-23724214D01*
X14116438Y-23755300D01*
X13698557Y-24173180D01*
X9986876Y-24173180D01*
X10043628Y-24094178D01*
X10121854Y-23922066D01*
X10165000Y-23738000D01*
X10165000Y-23413000D01*
X9336000Y-23413000D01*
X9336000Y-23433000D01*
X9082000Y-23433000D01*
X9082000Y-23413000D01*
X8253000Y-23413000D01*
X8253000Y-23738000D01*
X8296146Y-23922066D01*
X8374372Y-24094178D01*
X8431124Y-24173180D01*
X7446944Y-24173180D01*
X6832558Y-23558795D01*
X6996252Y-23395101D01*
X6998757Y-23393376D01*
X7026145Y-23365208D01*
X7038912Y-23352441D01*
X7040825Y-23350110D01*
X7042931Y-23347944D01*
X7054205Y-23333807D01*
X7079112Y-23303458D01*
X7080545Y-23300777D01*
X7088578Y-23290704D01*
X7106993Y-23270671D01*
X7125852Y-23239702D01*
X7145574Y-23209270D01*
X7155635Y-23183982D01*
X7171720Y-23150582D01*
X7185220Y-23126945D01*
X7196710Y-23092566D01*
X7209165Y-23058514D01*
X7213350Y-23031606D01*
X7221595Y-22995478D01*
X7229496Y-22969434D01*
X7233051Y-22933346D01*
X7237616Y-22897371D01*
X7235709Y-22870222D01*
X7235709Y-22834000D01*
X8253000Y-22834000D01*
X8253000Y-23159000D01*
X9082000Y-23159000D01*
X9082000Y-22109671D01*
X9336000Y-22109671D01*
X9336000Y-23159000D01*
X10165000Y-23159000D01*
X10165000Y-22834000D01*
X10121854Y-22649934D01*
X10043628Y-22477822D01*
X9933328Y-22324278D01*
X9795192Y-22195203D01*
X9634529Y-22095557D01*
X9482662Y-22045006D01*
X9336000Y-22109671D01*
X9082000Y-22109671D01*
X8935338Y-22045006D01*
X8783471Y-22095557D01*
X8622808Y-22195203D01*
X8484672Y-22324278D01*
X8374372Y-22477822D01*
X8296146Y-22649934D01*
X8253000Y-22834000D01*
X7235709Y-22834000D01*
X7235709Y-22833158D01*
X7237617Y-22805995D01*
X7233053Y-22770042D01*
X7229500Y-22733957D01*
X7221595Y-22707896D01*
X7213348Y-22671767D01*
X7209167Y-22644875D01*
X7196714Y-22610824D01*
X7185214Y-22576421D01*
X7171714Y-22552786D01*
X7155639Y-22519404D01*
X7145573Y-22494104D01*
X7125853Y-22463676D01*
X7107001Y-22432716D01*
X7088573Y-22412668D01*
X7065466Y-22383693D01*
X7050025Y-22361271D01*
X7024019Y-22335984D01*
X6998753Y-22309999D01*
X6976338Y-22294563D01*
X6947354Y-22271449D01*
X6927318Y-22253032D01*
X6896355Y-22234177D01*
X6865922Y-22214454D01*
X6840632Y-22204392D01*
X6807234Y-22188308D01*
X6783605Y-22174812D01*
X6749225Y-22163320D01*
X6715159Y-22150861D01*
X6688264Y-22146678D01*
X6652131Y-22138430D01*
X6626069Y-22130525D01*
X6589985Y-22126972D01*
X6554030Y-22122408D01*
X6526868Y-22124316D01*
X6489804Y-22124316D01*
X6462655Y-22122409D01*
X6426680Y-22126974D01*
X6390592Y-22130529D01*
X6364548Y-22138430D01*
X6328423Y-22146675D01*
X6301515Y-22150859D01*
X6267456Y-22163316D01*
X6233081Y-22174805D01*
X6209444Y-22188305D01*
X6176048Y-22204388D01*
X6150755Y-22214451D01*
X6120308Y-22234183D01*
X6089356Y-22253031D01*
X6069322Y-22271446D01*
X6059246Y-22279481D01*
X6056564Y-22280915D01*
X6026220Y-22305819D01*
X6012081Y-22317094D01*
X6009913Y-22319202D01*
X6007582Y-22321115D01*
X5994823Y-22333874D01*
X5966649Y-22361268D01*
X5964923Y-22363775D01*
X5801231Y-22527468D01*
X5664320Y-22390557D01*
X5664320Y-20685151D01*
X5692644Y-20650639D01*
X5732503Y-20576067D01*
X5750332Y-20517294D01*
X5757049Y-20495152D01*
X5758855Y-20476815D01*
X5763260Y-20432089D01*
X5763260Y-20432083D01*
X5765336Y-20411002D01*
X5763492Y-20392274D01*
X6181623Y-20392274D01*
X6196304Y-20404322D01*
X6262492Y-20439701D01*
X6334311Y-20461487D01*
X6409000Y-20468843D01*
X6440750Y-20467000D01*
X6536000Y-20371750D01*
X6536000Y-19563000D01*
X6732000Y-19563000D01*
X6732000Y-20371750D01*
X6827250Y-20467000D01*
X6859000Y-20468843D01*
X6933689Y-20461487D01*
X7005508Y-20439701D01*
X7071696Y-20404322D01*
X7129711Y-20356711D01*
X7161376Y-20318127D01*
X7156285Y-20330417D01*
X7129200Y-20466583D01*
X7129200Y-20605417D01*
X7156285Y-20741583D01*
X7209415Y-20869848D01*
X7286546Y-20985284D01*
X7384716Y-21083454D01*
X7500152Y-21160585D01*
X7628417Y-21213715D01*
X7764583Y-21240800D01*
X7903417Y-21240800D01*
X8039583Y-21213715D01*
X8167848Y-21160585D01*
X8283284Y-21083454D01*
X8381454Y-20985284D01*
X8458585Y-20869848D01*
X8511715Y-20741583D01*
X8514395Y-20728108D01*
X8550137Y-20751163D01*
X8761692Y-20826290D01*
X8932000Y-20763740D01*
X8932000Y-19613000D01*
X7953000Y-19613000D01*
X7953000Y-19841063D01*
X7903417Y-19831200D01*
X7764583Y-19831200D01*
X7628417Y-19858285D01*
X7500152Y-19911415D01*
X7384716Y-19988546D01*
X7286546Y-20086716D01*
X7232298Y-20167904D01*
X7234487Y-20160689D01*
X7241843Y-20086000D01*
X7240000Y-19658250D01*
X7144750Y-19563000D01*
X6732000Y-19563000D01*
X6536000Y-19563000D01*
X6515274Y-19563000D01*
X6515274Y-19309000D01*
X6536000Y-19309000D01*
X6536000Y-18500250D01*
X6732000Y-18500250D01*
X6732000Y-19309000D01*
X7144750Y-19309000D01*
X7240000Y-19213750D01*
X7241843Y-18786000D01*
X7234487Y-18711311D01*
X7212701Y-18639492D01*
X7177322Y-18573304D01*
X7129711Y-18515289D01*
X7071696Y-18467678D01*
X7005508Y-18432299D01*
X6933689Y-18410513D01*
X6859000Y-18403157D01*
X6827250Y-18405000D01*
X6732000Y-18500250D01*
X6536000Y-18500250D01*
X6440750Y-18405000D01*
X6409000Y-18403157D01*
X6334311Y-18410513D01*
X6262492Y-18432299D01*
X6196304Y-18467678D01*
X6181623Y-18479726D01*
X5759000Y-18479726D01*
X5699249Y-18485611D01*
X5659000Y-18497821D01*
X5618751Y-18485611D01*
X5559000Y-18479726D01*
X5109000Y-18479726D01*
X5049249Y-18485611D01*
X5009000Y-18497821D01*
X4968751Y-18485611D01*
X4909000Y-18479726D01*
X4459000Y-18479726D01*
X4399249Y-18485611D01*
X4359000Y-18497821D01*
X4318751Y-18485611D01*
X4259000Y-18479726D01*
X3809000Y-18479726D01*
X3749249Y-18485611D01*
X3691794Y-18503040D01*
X3638843Y-18531342D01*
X3592432Y-18569432D01*
X3554342Y-18615843D01*
X3526040Y-18668794D01*
X3508611Y-18726249D01*
X3502726Y-18786000D01*
X3502726Y-19262372D01*
X3483286Y-19326457D01*
X3475200Y-19408557D01*
X3475201Y-20242265D01*
X3458585Y-20202152D01*
X3381454Y-20086716D01*
X3283284Y-19988546D01*
X3167848Y-19911415D01*
X3039583Y-19858285D01*
X2903417Y-19831200D01*
X2764583Y-19831200D01*
X2715000Y-19841063D01*
X2715000Y-19613000D01*
X1736000Y-19613000D01*
X1736000Y-20763740D01*
X1906308Y-20826290D01*
X2117863Y-20751163D01*
X2153605Y-20728108D01*
X2156285Y-20741583D01*
X2209415Y-20869848D01*
X2286546Y-20985284D01*
X2384716Y-21083454D01*
X2500152Y-21160585D01*
X2628417Y-21213715D01*
X2764583Y-21240800D01*
X2903417Y-21240800D01*
X3039583Y-21213715D01*
X3167848Y-21160585D01*
X3261903Y-21097740D01*
X3269779Y-21116754D01*
X3336492Y-21216598D01*
X3421402Y-21301508D01*
X3521246Y-21368221D01*
X3632186Y-21414174D01*
X3749960Y-21437600D01*
X3870040Y-21437600D01*
X3987814Y-21414174D01*
X4098754Y-21368221D01*
X4198598Y-21301508D01*
X4283508Y-21216598D01*
X4350221Y-21116754D01*
X4353681Y-21108402D01*
X4353680Y-22734557D01*
X4351604Y-22755638D01*
X4353680Y-22776718D01*
X4353680Y-22776725D01*
X4359891Y-22839787D01*
X4384437Y-22920703D01*
X4424296Y-22995275D01*
X4477939Y-23060639D01*
X4494319Y-23074082D01*
X6490437Y-25070200D01*
X329800Y-25070200D01*
X329800Y-23413000D01*
X503000Y-23413000D01*
X503000Y-23738000D01*
X546146Y-23922066D01*
X624372Y-24094178D01*
X734672Y-24247722D01*
X872808Y-24376797D01*
X1033471Y-24476443D01*
X1185338Y-24526994D01*
X1332000Y-24462329D01*
X1332000Y-23413000D01*
X1586000Y-23413000D01*
X1586000Y-24462329D01*
X1732662Y-24526994D01*
X1884529Y-24476443D01*
X2045192Y-24376797D01*
X2183328Y-24247722D01*
X2293628Y-24094178D01*
X2371854Y-23922066D01*
X2415000Y-23738000D01*
X2415000Y-23413000D01*
X1586000Y-23413000D01*
X1332000Y-23413000D01*
X503000Y-23413000D01*
X329800Y-23413000D01*
X329800Y-22834000D01*
X503000Y-22834000D01*
X503000Y-23159000D01*
X1332000Y-23159000D01*
X1332000Y-22109671D01*
X1586000Y-22109671D01*
X1586000Y-23159000D01*
X2415000Y-23159000D01*
X2415000Y-22834000D01*
X2371854Y-22649934D01*
X2293628Y-22477822D01*
X2183328Y-22324278D01*
X2045192Y-22195203D01*
X1884529Y-22095557D01*
X1732662Y-22045006D01*
X1586000Y-22109671D01*
X1332000Y-22109671D01*
X1185338Y-22045006D01*
X1033471Y-22095557D01*
X872808Y-22195203D01*
X734672Y-22324278D01*
X624372Y-22477822D01*
X546146Y-22649934D01*
X503000Y-22834000D01*
X329800Y-22834000D01*
X329800Y-19613000D01*
X503000Y-19613000D01*
X503000Y-19888000D01*
X549028Y-20101330D01*
X635790Y-20301581D01*
X759952Y-20481058D01*
X916743Y-20632863D01*
X1100137Y-20751163D01*
X1311692Y-20826290D01*
X1482000Y-20763740D01*
X1482000Y-19613000D01*
X503000Y-19613000D01*
X329800Y-19613000D01*
X329800Y-19084000D01*
X503000Y-19084000D01*
X503000Y-19359000D01*
X1482000Y-19359000D01*
X1482000Y-18208260D01*
X1736000Y-18208260D01*
X1736000Y-19359000D01*
X2715000Y-19359000D01*
X2715000Y-19084000D01*
X2668972Y-18870670D01*
X2582210Y-18670419D01*
X2458048Y-18490942D01*
X2301257Y-18339137D01*
X2117863Y-18220837D01*
X1906308Y-18145710D01*
X1736000Y-18208260D01*
X1482000Y-18208260D01*
X1311692Y-18145710D01*
X1100137Y-18220837D01*
X916743Y-18339137D01*
X759952Y-18490942D01*
X635790Y-18670419D01*
X549028Y-18870670D01*
X503000Y-19084000D01*
X329800Y-19084000D01*
X329800Y-15663283D01*
X355678Y-15711696D01*
%TA.AperFunction,Conductor*%
D30*
G36*
X355678Y-15711696D02*
G01*
X403289Y-15769711D01*
X461304Y-15817322D01*
X527492Y-15852701D01*
X599311Y-15874487D01*
X674000Y-15881843D01*
X705750Y-15880000D01*
X746998Y-15838752D01*
X746998Y-15880000D01*
X859993Y-15880000D01*
X843794Y-15893294D01*
X785807Y-15963952D01*
X742719Y-16044565D01*
X716185Y-16132034D01*
X707226Y-16223000D01*
X707226Y-16543000D01*
X716185Y-16633966D01*
X742719Y-16721435D01*
X785807Y-16802048D01*
X843794Y-16872706D01*
X914452Y-16930693D01*
X995065Y-16973781D01*
X1082534Y-17000315D01*
X1173500Y-17009274D01*
X1568500Y-17009274D01*
X1659466Y-17000315D01*
X1746935Y-16973781D01*
X1827548Y-16930693D01*
X1898206Y-16872706D01*
X1956193Y-16802048D01*
X1968500Y-16779023D01*
X1980807Y-16802048D01*
X2038794Y-16872706D01*
X2109452Y-16930693D01*
X2190065Y-16973781D01*
X2277534Y-17000315D01*
X2368500Y-17009274D01*
X2763500Y-17009274D01*
X2854466Y-17000315D01*
X2941935Y-16973781D01*
X3022548Y-16930693D01*
X3093206Y-16872706D01*
X3140728Y-16814800D01*
X5075472Y-16814800D01*
X5047779Y-16856246D01*
X5001826Y-16967186D01*
X4978400Y-17084960D01*
X4978400Y-17205040D01*
X5001826Y-17322814D01*
X5047779Y-17433754D01*
X5114492Y-17533598D01*
X5199402Y-17618508D01*
X5299246Y-17685221D01*
X5410186Y-17731174D01*
X5527960Y-17754600D01*
X5648040Y-17754600D01*
X5765814Y-17731174D01*
X5876754Y-17685221D01*
X5976598Y-17618508D01*
X6061508Y-17533598D01*
X6128221Y-17433754D01*
X6174174Y-17322814D01*
X6197600Y-17205040D01*
X6197600Y-17084960D01*
X6174174Y-16967186D01*
X6128221Y-16856246D01*
X6061508Y-16756402D01*
X6005606Y-16700500D01*
X6061508Y-16644598D01*
X6128221Y-16544754D01*
X6146614Y-16500350D01*
X8176908Y-18530644D01*
X8179935Y-18534332D01*
X8085790Y-18670419D01*
X7999028Y-18870670D01*
X7953000Y-19084000D01*
X7953000Y-19359000D01*
X8932000Y-19359000D01*
X8932000Y-19339000D01*
X9186000Y-19339000D01*
X9186000Y-19359000D01*
X9206000Y-19359000D01*
X9206000Y-19613000D01*
X9186000Y-19613000D01*
X9186000Y-20763740D01*
X9356308Y-20826290D01*
X9494547Y-20777199D01*
X9494547Y-20993484D01*
X9492581Y-21013446D01*
X9500427Y-21093114D01*
X9523665Y-21169720D01*
X9541232Y-21202584D01*
X9561403Y-21240322D01*
X9571431Y-21252541D01*
X9599464Y-21286700D01*
X9599470Y-21286706D01*
X9612189Y-21302204D01*
X9627687Y-21314923D01*
X9918700Y-21605936D01*
X9918700Y-21645037D01*
X9940174Y-21752996D01*
X9982298Y-21854691D01*
X10043452Y-21946214D01*
X10121286Y-22024048D01*
X10212809Y-22085202D01*
X10314504Y-22127326D01*
X10422463Y-22148800D01*
X10532537Y-22148800D01*
X10640496Y-22127326D01*
X10742191Y-22085202D01*
X10806906Y-22041960D01*
X11832400Y-22041960D01*
X11832400Y-22162040D01*
X11855826Y-22279814D01*
X11901779Y-22390754D01*
X11968492Y-22490598D01*
X12053402Y-22575508D01*
X12153246Y-22642221D01*
X12264186Y-22688174D01*
X12381960Y-22711600D01*
X12502040Y-22711600D01*
X12619814Y-22688174D01*
X12730754Y-22642221D01*
X12830598Y-22575508D01*
X12915508Y-22490598D01*
X12982221Y-22390754D01*
X13028174Y-22279814D01*
X13051600Y-22162040D01*
X13051600Y-22041960D01*
X13028174Y-21924186D01*
X12982221Y-21813246D01*
X12915508Y-21713402D01*
X12830598Y-21628492D01*
X12730754Y-21561779D01*
X12619814Y-21515826D01*
X12502040Y-21492400D01*
X12381960Y-21492400D01*
X12264186Y-21515826D01*
X12153246Y-21561779D01*
X12053402Y-21628492D01*
X11968492Y-21713402D01*
X11901779Y-21813246D01*
X11855826Y-21924186D01*
X11832400Y-22041960D01*
X10806906Y-22041960D01*
X10833714Y-22024048D01*
X10911548Y-21946214D01*
X10972702Y-21854691D01*
X11014826Y-21752996D01*
X11036300Y-21645037D01*
X11036300Y-21534963D01*
X11014826Y-21427004D01*
X10972702Y-21325309D01*
X10911548Y-21233786D01*
X10833714Y-21155952D01*
X10789144Y-21126171D01*
X10817595Y-21097720D01*
X10878749Y-21006197D01*
X10920873Y-20904502D01*
X10942347Y-20796543D01*
X10942347Y-20756717D01*
X10977090Y-20714383D01*
X11014827Y-20643782D01*
X11026567Y-20605081D01*
X11038065Y-20567176D01*
X11039606Y-20551528D01*
X11043946Y-20507467D01*
X11043946Y-20507460D01*
X11045911Y-20487507D01*
X11043946Y-20467554D01*
X11043946Y-19320706D01*
X11802659Y-20079419D01*
X11815383Y-20094923D01*
X11877265Y-20145709D01*
X11947866Y-20183446D01*
X11997543Y-20198515D01*
X12024472Y-20206684D01*
X12032476Y-20207472D01*
X12084181Y-20212565D01*
X12084187Y-20212565D01*
X12104140Y-20214530D01*
X12124093Y-20212565D01*
X13479136Y-20212565D01*
X13515440Y-20300210D01*
X13576594Y-20391733D01*
X13654428Y-20469567D01*
X13745951Y-20530721D01*
X13792200Y-20549878D01*
X13792200Y-20629037D01*
X13813674Y-20736996D01*
X13855798Y-20838691D01*
X13866298Y-20854405D01*
X13823719Y-20934065D01*
X13797185Y-21021534D01*
X13788226Y-21112500D01*
X13788226Y-21507500D01*
X13797185Y-21598466D01*
X13823719Y-21685935D01*
X13866807Y-21766548D01*
X13924794Y-21837206D01*
X13995452Y-21895193D01*
X14018477Y-21907500D01*
X13995452Y-21919807D01*
X13924794Y-21977794D01*
X13866807Y-22048452D01*
X13823719Y-22129065D01*
X13797185Y-22216534D01*
X13788226Y-22307500D01*
X13788226Y-22702500D01*
X13797185Y-22793466D01*
X13823719Y-22880935D01*
X13866807Y-22961548D01*
X13924794Y-23032206D01*
X13995452Y-23090193D01*
X14023435Y-23105150D01*
X13982074Y-23205004D01*
X13960600Y-23312963D01*
X13960600Y-23423037D01*
X13982074Y-23530996D01*
X14024198Y-23632691D01*
X14085352Y-23724214D01*
X14116438Y-23755300D01*
X13698557Y-24173180D01*
X9986876Y-24173180D01*
X10043628Y-24094178D01*
X10121854Y-23922066D01*
X10165000Y-23738000D01*
X10165000Y-23413000D01*
X9336000Y-23413000D01*
X9336000Y-23433000D01*
X9082000Y-23433000D01*
X9082000Y-23413000D01*
X8253000Y-23413000D01*
X8253000Y-23738000D01*
X8296146Y-23922066D01*
X8374372Y-24094178D01*
X8431124Y-24173180D01*
X7446944Y-24173180D01*
X6832558Y-23558795D01*
X6996252Y-23395101D01*
X6998757Y-23393376D01*
X7026145Y-23365208D01*
X7038912Y-23352441D01*
X7040825Y-23350110D01*
X7042931Y-23347944D01*
X7054205Y-23333807D01*
X7079112Y-23303458D01*
X7080545Y-23300777D01*
X7088578Y-23290704D01*
X7106993Y-23270671D01*
X7125852Y-23239702D01*
X7145574Y-23209270D01*
X7155635Y-23183982D01*
X7171720Y-23150582D01*
X7185220Y-23126945D01*
X7196710Y-23092566D01*
X7209165Y-23058514D01*
X7213350Y-23031606D01*
X7221595Y-22995478D01*
X7229496Y-22969434D01*
X7233051Y-22933346D01*
X7237616Y-22897371D01*
X7235709Y-22870222D01*
X7235709Y-22834000D01*
X8253000Y-22834000D01*
X8253000Y-23159000D01*
X9082000Y-23159000D01*
X9082000Y-22109671D01*
X9336000Y-22109671D01*
X9336000Y-23159000D01*
X10165000Y-23159000D01*
X10165000Y-22834000D01*
X10121854Y-22649934D01*
X10043628Y-22477822D01*
X9933328Y-22324278D01*
X9795192Y-22195203D01*
X9634529Y-22095557D01*
X9482662Y-22045006D01*
X9336000Y-22109671D01*
X9082000Y-22109671D01*
X8935338Y-22045006D01*
X8783471Y-22095557D01*
X8622808Y-22195203D01*
X8484672Y-22324278D01*
X8374372Y-22477822D01*
X8296146Y-22649934D01*
X8253000Y-22834000D01*
X7235709Y-22834000D01*
X7235709Y-22833158D01*
X7237617Y-22805995D01*
X7233053Y-22770042D01*
X7229500Y-22733957D01*
X7221595Y-22707896D01*
X7213348Y-22671767D01*
X7209167Y-22644875D01*
X7196714Y-22610824D01*
X7185214Y-22576421D01*
X7171714Y-22552786D01*
X7155639Y-22519404D01*
X7145573Y-22494104D01*
X7125853Y-22463676D01*
X7107001Y-22432716D01*
X7088573Y-22412668D01*
X7065466Y-22383693D01*
X7050025Y-22361271D01*
X7024019Y-22335984D01*
X6998753Y-22309999D01*
X6976338Y-22294563D01*
X6947354Y-22271449D01*
X6927318Y-22253032D01*
X6896355Y-22234177D01*
X6865922Y-22214454D01*
X6840632Y-22204392D01*
X6807234Y-22188308D01*
X6783605Y-22174812D01*
X6749225Y-22163320D01*
X6715159Y-22150861D01*
X6688264Y-22146678D01*
X6652131Y-22138430D01*
X6626069Y-22130525D01*
X6589985Y-22126972D01*
X6554030Y-22122408D01*
X6526868Y-22124316D01*
X6489804Y-22124316D01*
X6462655Y-22122409D01*
X6426680Y-22126974D01*
X6390592Y-22130529D01*
X6364548Y-22138430D01*
X6328423Y-22146675D01*
X6301515Y-22150859D01*
X6267456Y-22163316D01*
X6233081Y-22174805D01*
X6209444Y-22188305D01*
X6176048Y-22204388D01*
X6150755Y-22214451D01*
X6120308Y-22234183D01*
X6089356Y-22253031D01*
X6069322Y-22271446D01*
X6059246Y-22279481D01*
X6056564Y-22280915D01*
X6026220Y-22305819D01*
X6012081Y-22317094D01*
X6009913Y-22319202D01*
X6007582Y-22321115D01*
X5994823Y-22333874D01*
X5966649Y-22361268D01*
X5964923Y-22363775D01*
X5801231Y-22527468D01*
X5664320Y-22390557D01*
X5664320Y-20685151D01*
X5692644Y-20650639D01*
X5732503Y-20576067D01*
X5750332Y-20517294D01*
X5757049Y-20495152D01*
X5758855Y-20476815D01*
X5763260Y-20432089D01*
X5763260Y-20432083D01*
X5765336Y-20411002D01*
X5763492Y-20392274D01*
X6181623Y-20392274D01*
X6196304Y-20404322D01*
X6262492Y-20439701D01*
X6334311Y-20461487D01*
X6409000Y-20468843D01*
X6440750Y-20467000D01*
X6536000Y-20371750D01*
X6536000Y-19563000D01*
X6732000Y-19563000D01*
X6732000Y-20371750D01*
X6827250Y-20467000D01*
X6859000Y-20468843D01*
X6933689Y-20461487D01*
X7005508Y-20439701D01*
X7071696Y-20404322D01*
X7129711Y-20356711D01*
X7161376Y-20318127D01*
X7156285Y-20330417D01*
X7129200Y-20466583D01*
X7129200Y-20605417D01*
X7156285Y-20741583D01*
X7209415Y-20869848D01*
X7286546Y-20985284D01*
X7384716Y-21083454D01*
X7500152Y-21160585D01*
X7628417Y-21213715D01*
X7764583Y-21240800D01*
X7903417Y-21240800D01*
X8039583Y-21213715D01*
X8167848Y-21160585D01*
X8283284Y-21083454D01*
X8381454Y-20985284D01*
X8458585Y-20869848D01*
X8511715Y-20741583D01*
X8514395Y-20728108D01*
X8550137Y-20751163D01*
X8761692Y-20826290D01*
X8932000Y-20763740D01*
X8932000Y-19613000D01*
X7953000Y-19613000D01*
X7953000Y-19841063D01*
X7903417Y-19831200D01*
X7764583Y-19831200D01*
X7628417Y-19858285D01*
X7500152Y-19911415D01*
X7384716Y-19988546D01*
X7286546Y-20086716D01*
X7232298Y-20167904D01*
X7234487Y-20160689D01*
X7241843Y-20086000D01*
X7240000Y-19658250D01*
X7144750Y-19563000D01*
X6732000Y-19563000D01*
X6536000Y-19563000D01*
X6515274Y-19563000D01*
X6515274Y-19309000D01*
X6536000Y-19309000D01*
X6536000Y-18500250D01*
X6732000Y-18500250D01*
X6732000Y-19309000D01*
X7144750Y-19309000D01*
X7240000Y-19213750D01*
X7241843Y-18786000D01*
X7234487Y-18711311D01*
X7212701Y-18639492D01*
X7177322Y-18573304D01*
X7129711Y-18515289D01*
X7071696Y-18467678D01*
X7005508Y-18432299D01*
X6933689Y-18410513D01*
X6859000Y-18403157D01*
X6827250Y-18405000D01*
X6732000Y-18500250D01*
X6536000Y-18500250D01*
X6440750Y-18405000D01*
X6409000Y-18403157D01*
X6334311Y-18410513D01*
X6262492Y-18432299D01*
X6196304Y-18467678D01*
X6181623Y-18479726D01*
X5759000Y-18479726D01*
X5699249Y-18485611D01*
X5659000Y-18497821D01*
X5618751Y-18485611D01*
X5559000Y-18479726D01*
X5109000Y-18479726D01*
X5049249Y-18485611D01*
X5009000Y-18497821D01*
X4968751Y-18485611D01*
X4909000Y-18479726D01*
X4459000Y-18479726D01*
X4399249Y-18485611D01*
X4359000Y-18497821D01*
X4318751Y-18485611D01*
X4259000Y-18479726D01*
X3809000Y-18479726D01*
X3749249Y-18485611D01*
X3691794Y-18503040D01*
X3638843Y-18531342D01*
X3592432Y-18569432D01*
X3554342Y-18615843D01*
X3526040Y-18668794D01*
X3508611Y-18726249D01*
X3502726Y-18786000D01*
X3502726Y-19262372D01*
X3483286Y-19326457D01*
X3475200Y-19408557D01*
X3475201Y-20242265D01*
X3458585Y-20202152D01*
X3381454Y-20086716D01*
X3283284Y-19988546D01*
X3167848Y-19911415D01*
X3039583Y-19858285D01*
X2903417Y-19831200D01*
X2764583Y-19831200D01*
X2715000Y-19841063D01*
X2715000Y-19613000D01*
X1736000Y-19613000D01*
X1736000Y-20763740D01*
X1906308Y-20826290D01*
X2117863Y-20751163D01*
X2153605Y-20728108D01*
X2156285Y-20741583D01*
X2209415Y-20869848D01*
X2286546Y-20985284D01*
X2384716Y-21083454D01*
X2500152Y-21160585D01*
X2628417Y-21213715D01*
X2764583Y-21240800D01*
X2903417Y-21240800D01*
X3039583Y-21213715D01*
X3167848Y-21160585D01*
X3261903Y-21097740D01*
X3269779Y-21116754D01*
X3336492Y-21216598D01*
X3421402Y-21301508D01*
X3521246Y-21368221D01*
X3632186Y-21414174D01*
X3749960Y-21437600D01*
X3870040Y-21437600D01*
X3987814Y-21414174D01*
X4098754Y-21368221D01*
X4198598Y-21301508D01*
X4283508Y-21216598D01*
X4350221Y-21116754D01*
X4353681Y-21108402D01*
X4353680Y-22734557D01*
X4351604Y-22755638D01*
X4353680Y-22776718D01*
X4353680Y-22776725D01*
X4359891Y-22839787D01*
X4384437Y-22920703D01*
X4424296Y-22995275D01*
X4477939Y-23060639D01*
X4494319Y-23074082D01*
X6490437Y-25070200D01*
X329800Y-25070200D01*
X329800Y-23413000D01*
X503000Y-23413000D01*
X503000Y-23738000D01*
X546146Y-23922066D01*
X624372Y-24094178D01*
X734672Y-24247722D01*
X872808Y-24376797D01*
X1033471Y-24476443D01*
X1185338Y-24526994D01*
X1332000Y-24462329D01*
X1332000Y-23413000D01*
X1586000Y-23413000D01*
X1586000Y-24462329D01*
X1732662Y-24526994D01*
X1884529Y-24476443D01*
X2045192Y-24376797D01*
X2183328Y-24247722D01*
X2293628Y-24094178D01*
X2371854Y-23922066D01*
X2415000Y-23738000D01*
X2415000Y-23413000D01*
X1586000Y-23413000D01*
X1332000Y-23413000D01*
X503000Y-23413000D01*
X329800Y-23413000D01*
X329800Y-22834000D01*
X503000Y-22834000D01*
X503000Y-23159000D01*
X1332000Y-23159000D01*
X1332000Y-22109671D01*
X1586000Y-22109671D01*
X1586000Y-23159000D01*
X2415000Y-23159000D01*
X2415000Y-22834000D01*
X2371854Y-22649934D01*
X2293628Y-22477822D01*
X2183328Y-22324278D01*
X2045192Y-22195203D01*
X1884529Y-22095557D01*
X1732662Y-22045006D01*
X1586000Y-22109671D01*
X1332000Y-22109671D01*
X1185338Y-22045006D01*
X1033471Y-22095557D01*
X872808Y-22195203D01*
X734672Y-22324278D01*
X624372Y-22477822D01*
X546146Y-22649934D01*
X503000Y-22834000D01*
X329800Y-22834000D01*
X329800Y-19613000D01*
X503000Y-19613000D01*
X503000Y-19888000D01*
X549028Y-20101330D01*
X635790Y-20301581D01*
X759952Y-20481058D01*
X916743Y-20632863D01*
X1100137Y-20751163D01*
X1311692Y-20826290D01*
X1482000Y-20763740D01*
X1482000Y-19613000D01*
X503000Y-19613000D01*
X329800Y-19613000D01*
X329800Y-19084000D01*
X503000Y-19084000D01*
X503000Y-19359000D01*
X1482000Y-19359000D01*
X1482000Y-18208260D01*
X1736000Y-18208260D01*
X1736000Y-19359000D01*
X2715000Y-19359000D01*
X2715000Y-19084000D01*
X2668972Y-18870670D01*
X2582210Y-18670419D01*
X2458048Y-18490942D01*
X2301257Y-18339137D01*
X2117863Y-18220837D01*
X1906308Y-18145710D01*
X1736000Y-18208260D01*
X1482000Y-18208260D01*
X1311692Y-18145710D01*
X1100137Y-18220837D01*
X916743Y-18339137D01*
X759952Y-18490942D01*
X635790Y-18670419D01*
X549028Y-18870670D01*
X503000Y-19084000D01*
X329800Y-19084000D01*
X329800Y-15663283D01*
X355678Y-15711696D01*
G37*
%TD.AperFunction*%
D29*
X21324557Y-19872609D02*
X21402391Y-19950443D01*
X21493914Y-20011597D01*
X21595609Y-20053721D01*
X21703568Y-20075195D01*
X21728503Y-20075195D01*
X21734685Y-20137966D01*
X21761219Y-20225435D01*
X21804307Y-20306048D01*
X21862294Y-20376706D01*
X21932952Y-20434693D01*
X21955977Y-20447000D01*
X21932952Y-20459307D01*
X21862294Y-20517294D01*
X21804307Y-20587952D01*
X21761219Y-20668565D01*
X21734685Y-20756034D01*
X21725726Y-20847000D01*
X21725726Y-21242000D01*
X21734685Y-21332966D01*
X21761219Y-21420435D01*
X21804307Y-21501048D01*
X21862294Y-21571706D01*
X21932952Y-21629693D01*
X21948355Y-21637926D01*
X21951481Y-21669668D01*
X21966253Y-21718366D01*
X21974719Y-21746274D01*
X22012456Y-21816875D01*
X22063242Y-21878758D01*
X22078745Y-21891481D01*
X22263101Y-22075837D01*
X22263101Y-22091297D01*
X22237000Y-22088726D01*
X21237000Y-22088726D01*
X21177249Y-22094611D01*
X21119794Y-22112040D01*
X21066843Y-22140342D01*
X21020432Y-22178432D01*
X20982342Y-22224843D01*
X20954040Y-22277794D01*
X20936611Y-22335249D01*
X20930726Y-22395000D01*
X20930726Y-23026538D01*
X20326538Y-23630726D01*
X19958000Y-23630726D01*
X19867034Y-23639685D01*
X19779565Y-23666219D01*
X19698952Y-23709307D01*
X19628294Y-23767294D01*
X19570307Y-23837952D01*
X19558000Y-23860977D01*
X19545693Y-23837952D01*
X19487706Y-23767294D01*
X19467195Y-23750461D01*
X19481800Y-23677037D01*
X19481800Y-23566963D01*
X19460326Y-23459004D01*
X19418202Y-23357309D01*
X19357048Y-23265786D01*
X19279214Y-23187952D01*
X19187691Y-23126798D01*
X19085996Y-23084674D01*
X18978037Y-23063200D01*
X18930439Y-23063200D01*
X18968206Y-23032206D01*
X19026193Y-22961548D01*
X19069281Y-22880935D01*
X19095815Y-22793466D01*
X19104774Y-22702500D01*
X19104774Y-22453463D01*
X19300369Y-22257868D01*
X19315868Y-22245148D01*
X19328587Y-22229650D01*
X19328592Y-22229645D01*
X19355376Y-22197008D01*
X19366654Y-22183266D01*
X19404391Y-22112665D01*
X19419222Y-22063774D01*
X19427629Y-22036059D01*
X19428812Y-22024048D01*
X19433510Y-21976350D01*
X19433510Y-21976343D01*
X19435475Y-21956390D01*
X19433510Y-21936437D01*
X19433510Y-21891656D01*
X19507186Y-21922174D01*
X19624960Y-21945600D01*
X19745040Y-21945600D01*
X19862814Y-21922174D01*
X19973754Y-21876221D01*
X20073598Y-21809508D01*
X20158508Y-21724598D01*
X20225221Y-21624754D01*
X20271174Y-21513814D01*
X20294600Y-21396040D01*
X20294600Y-21275960D01*
X20271174Y-21158186D01*
X20225221Y-21047246D01*
X20158508Y-20947402D01*
X20073598Y-20862492D01*
X19973754Y-20795779D01*
X19862814Y-20749826D01*
X19745040Y-20726400D01*
X19624960Y-20726400D01*
X19507186Y-20749826D01*
X19433510Y-20780344D01*
X19433510Y-20491812D01*
X19435475Y-20471859D01*
X19433510Y-20451906D01*
X19433510Y-20451900D01*
X19427629Y-20392192D01*
X19426121Y-20387219D01*
X19418687Y-20362714D01*
X19404391Y-20315585D01*
X19366654Y-20244984D01*
X19315868Y-20183102D01*
X19300365Y-20170379D01*
X19092367Y-19962381D01*
X20984816Y-19962381D01*
X21004769Y-19964346D01*
X21024722Y-19962381D01*
X21024729Y-19962381D01*
X21084437Y-19956500D01*
X21161044Y-19933262D01*
X21231645Y-19895525D01*
X21293527Y-19844739D01*
X21300366Y-19836405D01*
X21324557Y-19872609D01*
%TA.AperFunction,Conductor*%
D30*
G36*
X21324557Y-19872609D02*
G01*
X21402391Y-19950443D01*
X21493914Y-20011597D01*
X21595609Y-20053721D01*
X21703568Y-20075195D01*
X21728503Y-20075195D01*
X21734685Y-20137966D01*
X21761219Y-20225435D01*
X21804307Y-20306048D01*
X21862294Y-20376706D01*
X21932952Y-20434693D01*
X21955977Y-20447000D01*
X21932952Y-20459307D01*
X21862294Y-20517294D01*
X21804307Y-20587952D01*
X21761219Y-20668565D01*
X21734685Y-20756034D01*
X21725726Y-20847000D01*
X21725726Y-21242000D01*
X21734685Y-21332966D01*
X21761219Y-21420435D01*
X21804307Y-21501048D01*
X21862294Y-21571706D01*
X21932952Y-21629693D01*
X21948355Y-21637926D01*
X21951481Y-21669668D01*
X21966253Y-21718366D01*
X21974719Y-21746274D01*
X22012456Y-21816875D01*
X22063242Y-21878758D01*
X22078745Y-21891481D01*
X22263101Y-22075837D01*
X22263101Y-22091297D01*
X22237000Y-22088726D01*
X21237000Y-22088726D01*
X21177249Y-22094611D01*
X21119794Y-22112040D01*
X21066843Y-22140342D01*
X21020432Y-22178432D01*
X20982342Y-22224843D01*
X20954040Y-22277794D01*
X20936611Y-22335249D01*
X20930726Y-22395000D01*
X20930726Y-23026538D01*
X20326538Y-23630726D01*
X19958000Y-23630726D01*
X19867034Y-23639685D01*
X19779565Y-23666219D01*
X19698952Y-23709307D01*
X19628294Y-23767294D01*
X19570307Y-23837952D01*
X19558000Y-23860977D01*
X19545693Y-23837952D01*
X19487706Y-23767294D01*
X19467195Y-23750461D01*
X19481800Y-23677037D01*
X19481800Y-23566963D01*
X19460326Y-23459004D01*
X19418202Y-23357309D01*
X19357048Y-23265786D01*
X19279214Y-23187952D01*
X19187691Y-23126798D01*
X19085996Y-23084674D01*
X18978037Y-23063200D01*
X18930439Y-23063200D01*
X18968206Y-23032206D01*
X19026193Y-22961548D01*
X19069281Y-22880935D01*
X19095815Y-22793466D01*
X19104774Y-22702500D01*
X19104774Y-22453463D01*
X19300369Y-22257868D01*
X19315868Y-22245148D01*
X19328587Y-22229650D01*
X19328592Y-22229645D01*
X19355376Y-22197008D01*
X19366654Y-22183266D01*
X19404391Y-22112665D01*
X19419222Y-22063774D01*
X19427629Y-22036059D01*
X19428812Y-22024048D01*
X19433510Y-21976350D01*
X19433510Y-21976343D01*
X19435475Y-21956390D01*
X19433510Y-21936437D01*
X19433510Y-21891656D01*
X19507186Y-21922174D01*
X19624960Y-21945600D01*
X19745040Y-21945600D01*
X19862814Y-21922174D01*
X19973754Y-21876221D01*
X20073598Y-21809508D01*
X20158508Y-21724598D01*
X20225221Y-21624754D01*
X20271174Y-21513814D01*
X20294600Y-21396040D01*
X20294600Y-21275960D01*
X20271174Y-21158186D01*
X20225221Y-21047246D01*
X20158508Y-20947402D01*
X20073598Y-20862492D01*
X19973754Y-20795779D01*
X19862814Y-20749826D01*
X19745040Y-20726400D01*
X19624960Y-20726400D01*
X19507186Y-20749826D01*
X19433510Y-20780344D01*
X19433510Y-20491812D01*
X19435475Y-20471859D01*
X19433510Y-20451906D01*
X19433510Y-20451900D01*
X19427629Y-20392192D01*
X19426121Y-20387219D01*
X19418687Y-20362714D01*
X19404391Y-20315585D01*
X19366654Y-20244984D01*
X19315868Y-20183102D01*
X19300365Y-20170379D01*
X19092367Y-19962381D01*
X20984816Y-19962381D01*
X21004769Y-19964346D01*
X21024722Y-19962381D01*
X21024729Y-19962381D01*
X21084437Y-19956500D01*
X21161044Y-19933262D01*
X21231645Y-19895525D01*
X21293527Y-19844739D01*
X21300366Y-19836405D01*
X21324557Y-19872609D01*
G37*
%TD.AperFunction*%
D29*
X13800878Y-16792438D02*
X13721130Y-16835065D01*
X13651230Y-16892430D01*
X13593865Y-16962330D01*
X13551238Y-17042078D01*
X13524989Y-17128610D01*
X13516126Y-17218600D01*
X13516126Y-17528600D01*
X13524989Y-17618590D01*
X13551238Y-17705122D01*
X13593865Y-17784870D01*
X13651230Y-17854770D01*
X13676185Y-17875250D01*
X13651230Y-17895730D01*
X13593865Y-17965630D01*
X13551238Y-18045378D01*
X13524989Y-18131910D01*
X13516126Y-18221900D01*
X13516126Y-18531900D01*
X13524989Y-18621890D01*
X13551238Y-18708422D01*
X13593865Y-18788170D01*
X13636047Y-18839569D01*
X13639186Y-18871444D01*
X13639738Y-18873263D01*
X13572539Y-18828362D01*
X13470844Y-18786238D01*
X13362885Y-18764764D01*
X13252811Y-18764764D01*
X13144852Y-18786238D01*
X13043157Y-18828362D01*
X12951634Y-18889516D01*
X12873800Y-18967350D01*
X12812646Y-19058873D01*
X12770522Y-19160568D01*
X12749048Y-19268527D01*
X12749048Y-19378601D01*
X12753258Y-19399765D01*
X12272477Y-19399765D01*
X11052509Y-18179797D01*
X11070459Y-18167803D01*
X11148293Y-18089969D01*
X11209447Y-17998446D01*
X11251571Y-17896751D01*
X11273045Y-17788792D01*
X11273045Y-17678718D01*
X11268835Y-17657554D01*
X11938893Y-17657554D01*
X11958846Y-17659519D01*
X11978799Y-17657554D01*
X11978806Y-17657554D01*
X12038514Y-17651673D01*
X12115121Y-17628435D01*
X12185722Y-17590698D01*
X12247604Y-17539912D01*
X12260328Y-17524408D01*
X12995338Y-16789399D01*
X13810896Y-16789399D01*
X13800878Y-16792438D01*
%TA.AperFunction,Conductor*%
D30*
G36*
X13800878Y-16792438D02*
G01*
X13721130Y-16835065D01*
X13651230Y-16892430D01*
X13593865Y-16962330D01*
X13551238Y-17042078D01*
X13524989Y-17128610D01*
X13516126Y-17218600D01*
X13516126Y-17528600D01*
X13524989Y-17618590D01*
X13551238Y-17705122D01*
X13593865Y-17784870D01*
X13651230Y-17854770D01*
X13676185Y-17875250D01*
X13651230Y-17895730D01*
X13593865Y-17965630D01*
X13551238Y-18045378D01*
X13524989Y-18131910D01*
X13516126Y-18221900D01*
X13516126Y-18531900D01*
X13524989Y-18621890D01*
X13551238Y-18708422D01*
X13593865Y-18788170D01*
X13636047Y-18839569D01*
X13639186Y-18871444D01*
X13639738Y-18873263D01*
X13572539Y-18828362D01*
X13470844Y-18786238D01*
X13362885Y-18764764D01*
X13252811Y-18764764D01*
X13144852Y-18786238D01*
X13043157Y-18828362D01*
X12951634Y-18889516D01*
X12873800Y-18967350D01*
X12812646Y-19058873D01*
X12770522Y-19160568D01*
X12749048Y-19268527D01*
X12749048Y-19378601D01*
X12753258Y-19399765D01*
X12272477Y-19399765D01*
X11052509Y-18179797D01*
X11070459Y-18167803D01*
X11148293Y-18089969D01*
X11209447Y-17998446D01*
X11251571Y-17896751D01*
X11273045Y-17788792D01*
X11273045Y-17678718D01*
X11268835Y-17657554D01*
X11938893Y-17657554D01*
X11958846Y-17659519D01*
X11978799Y-17657554D01*
X11978806Y-17657554D01*
X12038514Y-17651673D01*
X12115121Y-17628435D01*
X12185722Y-17590698D01*
X12247604Y-17539912D01*
X12260328Y-17524408D01*
X12995338Y-16789399D01*
X13810896Y-16789399D01*
X13800878Y-16792438D01*
G37*
%TD.AperFunction*%
D29*
X23652000Y-9097000D02*
X23672000Y-9097000D01*
X23672000Y-9193930D01*
X23647250Y-9194000D01*
X23552000Y-9289250D01*
X23552000Y-9702000D01*
X23572000Y-9702000D01*
X23572000Y-9808000D01*
X23552000Y-9808000D01*
X23552000Y-9895200D01*
X23298000Y-9895200D01*
X23298000Y-9808000D01*
X22264250Y-9808000D01*
X22177050Y-9895200D01*
X22167424Y-9895200D01*
X22150000Y-9893484D01*
X22132576Y-9895200D01*
X22080447Y-9900334D01*
X22013567Y-9920622D01*
X21951930Y-9953568D01*
X21897905Y-9997905D01*
X21853568Y-10051930D01*
X21820622Y-10113567D01*
X21800334Y-10180447D01*
X21793484Y-10250000D01*
X21795200Y-10267424D01*
X21795200Y-10632576D01*
X21793484Y-10650000D01*
X21800334Y-10719553D01*
X21820622Y-10786433D01*
X21853568Y-10848070D01*
X21897905Y-10902095D01*
X21951930Y-10946432D01*
X22013567Y-10979378D01*
X22080447Y-10999666D01*
X22132576Y-11004800D01*
X22150000Y-11006516D01*
X22167424Y-11004800D01*
X25070200Y-11004800D01*
X25070201Y-19275101D01*
X25057048Y-19264307D01*
X25006900Y-19237503D01*
X25006900Y-18524952D01*
X25008865Y-18504999D01*
X25006900Y-18485046D01*
X25006900Y-18485040D01*
X25001019Y-18425332D01*
X24977781Y-18348725D01*
X24940044Y-18278124D01*
X24889258Y-18216242D01*
X24873754Y-18203518D01*
X24728774Y-18058538D01*
X24728774Y-17102000D01*
X24722889Y-17042249D01*
X24705460Y-16984794D01*
X24677158Y-16931843D01*
X24639068Y-16885432D01*
X24592657Y-16847342D01*
X24539706Y-16819040D01*
X24482251Y-16801611D01*
X24422500Y-16795726D01*
X24101462Y-16795726D01*
X23950003Y-16644267D01*
X24013008Y-16656800D01*
X24141992Y-16656800D01*
X24268498Y-16631636D01*
X24387664Y-16582276D01*
X24494910Y-16510616D01*
X24586116Y-16419410D01*
X24657776Y-16312164D01*
X24707136Y-16192998D01*
X24732300Y-16066492D01*
X24732300Y-15937508D01*
X24707136Y-15811002D01*
X24657776Y-15691836D01*
X24586116Y-15584590D01*
X24494910Y-15493384D01*
X24387664Y-15421724D01*
X24268498Y-15372364D01*
X24141992Y-15347200D01*
X24089536Y-15347200D01*
X24170755Y-15265981D01*
X24186258Y-15253258D01*
X24223176Y-15208274D01*
X24422500Y-15208274D01*
X24482251Y-15202389D01*
X24539706Y-15184960D01*
X24592657Y-15156658D01*
X24639068Y-15118568D01*
X24677158Y-15072157D01*
X24705460Y-15019206D01*
X24722889Y-14961751D01*
X24728774Y-14902000D01*
X24728774Y-13502000D01*
X24722889Y-13442249D01*
X24705460Y-13384794D01*
X24677158Y-13331843D01*
X24639068Y-13285432D01*
X24592657Y-13247342D01*
X24539706Y-13219040D01*
X24482251Y-13201611D01*
X24422500Y-13195726D01*
X23372500Y-13195726D01*
X23312749Y-13201611D01*
X23255294Y-13219040D01*
X23244994Y-13224545D01*
X23195196Y-13183678D01*
X23129008Y-13148299D01*
X23057189Y-13126513D01*
X22982500Y-13119157D01*
X22679750Y-13121000D01*
X22584500Y-13216250D01*
X22584500Y-14075000D01*
X22604500Y-14075000D01*
X22604500Y-14329000D01*
X22584500Y-14329000D01*
X22584500Y-15187750D01*
X22679750Y-15283000D01*
X22982500Y-15284843D01*
X23021013Y-15281050D01*
X23010424Y-15300862D01*
X22990719Y-15337726D01*
X22967481Y-15414332D01*
X22959635Y-15494000D01*
X22961601Y-15513962D01*
X22961600Y-16617047D01*
X22959635Y-16637000D01*
X22961600Y-16656953D01*
X22961600Y-16656959D01*
X22965489Y-16696443D01*
X22967481Y-16716668D01*
X22968262Y-16719244D01*
X22679750Y-16721000D01*
X22584500Y-16816250D01*
X22584500Y-17675000D01*
X22604500Y-17675000D01*
X22604500Y-17929000D01*
X22584500Y-17929000D01*
X22584500Y-17949000D01*
X22330500Y-17949000D01*
X22330500Y-17929000D01*
X21646750Y-17929000D01*
X21551500Y-18024250D01*
X21550725Y-18225270D01*
X21473691Y-18173798D01*
X21371996Y-18131674D01*
X21264037Y-18110200D01*
X21153963Y-18110200D01*
X21046004Y-18131674D01*
X20944309Y-18173798D01*
X20852786Y-18234952D01*
X20774952Y-18312786D01*
X20713798Y-18404309D01*
X20671674Y-18506004D01*
X20650200Y-18613963D01*
X20650200Y-18724037D01*
X20671674Y-18831996D01*
X20713798Y-18933691D01*
X20774952Y-19025214D01*
X20852786Y-19103048D01*
X20870878Y-19115136D01*
X20836433Y-19149581D01*
X18900462Y-19149581D01*
X18872814Y-19121933D01*
X18795094Y-19070002D01*
X18809900Y-19021193D01*
X18815519Y-19002669D01*
X18818069Y-18976777D01*
X18821400Y-18942960D01*
X18821400Y-18942954D01*
X18823365Y-18923001D01*
X18821400Y-18903048D01*
X18821400Y-18250086D01*
X19791023Y-17280463D01*
X20650200Y-17280463D01*
X20650200Y-17390537D01*
X20671674Y-17498496D01*
X20713798Y-17600191D01*
X20774952Y-17691714D01*
X20852786Y-17769548D01*
X20944309Y-17830702D01*
X21046004Y-17872826D01*
X21153963Y-17894300D01*
X21264037Y-17894300D01*
X21371996Y-17872826D01*
X21473691Y-17830702D01*
X21565214Y-17769548D01*
X21643048Y-17691714D01*
X21654216Y-17675000D01*
X22330500Y-17675000D01*
X22330500Y-16816250D01*
X22235250Y-16721000D01*
X21932500Y-16719157D01*
X21857811Y-16726513D01*
X21785992Y-16748299D01*
X21719804Y-16783678D01*
X21661789Y-16831289D01*
X21614178Y-16889304D01*
X21592891Y-16929129D01*
X21565214Y-16901452D01*
X21545478Y-16888265D01*
X21600433Y-16865501D01*
X21691956Y-16804347D01*
X21769790Y-16726513D01*
X21830944Y-16634990D01*
X21873068Y-16533295D01*
X21875527Y-16520931D01*
X21967336Y-16582276D01*
X22086502Y-16631636D01*
X22213008Y-16656800D01*
X22341992Y-16656800D01*
X22468498Y-16631636D01*
X22587664Y-16582276D01*
X22694910Y-16510616D01*
X22786116Y-16419410D01*
X22857776Y-16312164D01*
X22907136Y-16192998D01*
X22932300Y-16066492D01*
X22932300Y-15937508D01*
X22907136Y-15811002D01*
X22857776Y-15691836D01*
X22786116Y-15584590D01*
X22694910Y-15493384D01*
X22587664Y-15421724D01*
X22468498Y-15372364D01*
X22341992Y-15347200D01*
X22213008Y-15347200D01*
X22086502Y-15372364D01*
X21967336Y-15421724D01*
X21860090Y-15493384D01*
X21768884Y-15584590D01*
X21697224Y-15691836D01*
X21647864Y-15811002D01*
X21631046Y-15895552D01*
X21600433Y-15875097D01*
X21498738Y-15832973D01*
X21390779Y-15811499D01*
X21280705Y-15811499D01*
X21172746Y-15832973D01*
X21071051Y-15875097D01*
X20979528Y-15936251D01*
X20901694Y-16014085D01*
X20840540Y-16105608D01*
X20798416Y-16207303D01*
X20776942Y-16315262D01*
X20776942Y-16425336D01*
X20798416Y-16533295D01*
X20840540Y-16634990D01*
X20901694Y-16726513D01*
X20979528Y-16804347D01*
X20999264Y-16817534D01*
X20944309Y-16840298D01*
X20852786Y-16901452D01*
X20774952Y-16979286D01*
X20713798Y-17070809D01*
X20671674Y-17172504D01*
X20650200Y-17280463D01*
X19791023Y-17280463D01*
X20212254Y-16859232D01*
X20227758Y-16846508D01*
X20278544Y-16784626D01*
X20316281Y-16714025D01*
X20339519Y-16637418D01*
X20345400Y-16577710D01*
X20345400Y-16577704D01*
X20347365Y-16557751D01*
X20345400Y-16537798D01*
X20345400Y-15115862D01*
X20373048Y-15088214D01*
X20434202Y-14996691D01*
X20473424Y-14902000D01*
X21549657Y-14902000D01*
X21557013Y-14976689D01*
X21578799Y-15048508D01*
X21614178Y-15114696D01*
X21661789Y-15172711D01*
X21719804Y-15220322D01*
X21785992Y-15255701D01*
X21857811Y-15277487D01*
X21932500Y-15284843D01*
X22235250Y-15283000D01*
X22330500Y-15187750D01*
X22330500Y-14329000D01*
X21646750Y-14329000D01*
X21551500Y-14424250D01*
X21549657Y-14902000D01*
X20473424Y-14902000D01*
X20476326Y-14894996D01*
X20497800Y-14787037D01*
X20497800Y-14747936D01*
X20546754Y-14698982D01*
X20562258Y-14686258D01*
X20613044Y-14624376D01*
X20650781Y-14553775D01*
X20674019Y-14477168D01*
X20679900Y-14417460D01*
X20679900Y-14417454D01*
X20681865Y-14397501D01*
X20679900Y-14377548D01*
X20679900Y-14371774D01*
X20986000Y-14371774D01*
X21065260Y-14363968D01*
X21141474Y-14340848D01*
X21211714Y-14303304D01*
X21273279Y-14252779D01*
X21323804Y-14191214D01*
X21361348Y-14120974D01*
X21384468Y-14044760D01*
X21392274Y-13965500D01*
X21392274Y-13765500D01*
X21384468Y-13686240D01*
X21367967Y-13631844D01*
X21407963Y-13639800D01*
X21518037Y-13639800D01*
X21550164Y-13633410D01*
X21551500Y-13979750D01*
X21646750Y-14075000D01*
X22330500Y-14075000D01*
X22330500Y-13216250D01*
X22235250Y-13121000D01*
X22021800Y-13119701D01*
X22021800Y-13025963D01*
X22000326Y-12918004D01*
X21958202Y-12816309D01*
X21897048Y-12724786D01*
X21819214Y-12646952D01*
X21727691Y-12585798D01*
X21625996Y-12543674D01*
X21518037Y-12522200D01*
X21407963Y-12522200D01*
X21392274Y-12525321D01*
X21392274Y-12474300D01*
X22559962Y-12474300D01*
X22568530Y-12482868D01*
X22595904Y-12548955D01*
X22662617Y-12648799D01*
X22747527Y-12733709D01*
X22847371Y-12800422D01*
X22958311Y-12846375D01*
X23076085Y-12869801D01*
X23196165Y-12869801D01*
X23313939Y-12846375D01*
X23424879Y-12800422D01*
X23524723Y-12733709D01*
X23609633Y-12648799D01*
X23676346Y-12548955D01*
X23722299Y-12438015D01*
X23745725Y-12320241D01*
X23745725Y-12200161D01*
X23722299Y-12082387D01*
X23676346Y-11971447D01*
X23609633Y-11871603D01*
X23524723Y-11786693D01*
X23424879Y-11719980D01*
X23358792Y-11692606D01*
X23205967Y-11539781D01*
X23188467Y-11518457D01*
X23103378Y-11448627D01*
X23006302Y-11396739D01*
X22900968Y-11364786D01*
X22818868Y-11356700D01*
X22818866Y-11356700D01*
X22791424Y-11353997D01*
X22763982Y-11356700D01*
X20246056Y-11356700D01*
X20163956Y-11364786D01*
X20058622Y-11396739D01*
X20035260Y-11409226D01*
X19561000Y-11409226D01*
X19481740Y-11417032D01*
X19405526Y-11440152D01*
X19335286Y-11477696D01*
X19273721Y-11528221D01*
X19223196Y-11589786D01*
X19185652Y-11660026D01*
X19162532Y-11736240D01*
X19154726Y-11815500D01*
X19154726Y-12015500D01*
X19162532Y-12094760D01*
X19185652Y-12170974D01*
X19222814Y-12240500D01*
X19198113Y-12286714D01*
X19105037Y-12268200D01*
X19066850Y-12268200D01*
X19015376Y-12225956D01*
X18944775Y-12188219D01*
X18868168Y-12164981D01*
X18808460Y-12159100D01*
X18808453Y-12159100D01*
X18788500Y-12157135D01*
X18768547Y-12159100D01*
X17139950Y-12159100D01*
X17159468Y-12094760D01*
X17167274Y-12015500D01*
X17167274Y-11815500D01*
X17159468Y-11736240D01*
X17136348Y-11660026D01*
X17098804Y-11589786D01*
X17048279Y-11528221D01*
X16986714Y-11477696D01*
X16916474Y-11440152D01*
X16840260Y-11417032D01*
X16761000Y-11409226D01*
X15809183Y-11409226D01*
X15847876Y-11388544D01*
X15909758Y-11337758D01*
X15922482Y-11322253D01*
X16148249Y-11096486D01*
X16163758Y-11083758D01*
X16214544Y-11021876D01*
X16216998Y-11017285D01*
X16245309Y-11036202D01*
X16347004Y-11078326D01*
X16454963Y-11099800D01*
X16565037Y-11099800D01*
X16672996Y-11078326D01*
X16774691Y-11036202D01*
X16866214Y-10975048D01*
X16944048Y-10897214D01*
X17005202Y-10805691D01*
X17047326Y-10703996D01*
X17068800Y-10596037D01*
X17068800Y-10485963D01*
X17047326Y-10378004D01*
X17018047Y-10307320D01*
X19630558Y-10307320D01*
X19651638Y-10309396D01*
X19672718Y-10307320D01*
X19672726Y-10307320D01*
X19735788Y-10301109D01*
X19816704Y-10276563D01*
X19891276Y-10236704D01*
X19956639Y-10183061D01*
X19970082Y-10166681D01*
X20464443Y-9672320D01*
X21916558Y-9672320D01*
X21937638Y-9674396D01*
X21958718Y-9672320D01*
X21958726Y-9672320D01*
X22021788Y-9666109D01*
X22102704Y-9641563D01*
X22168965Y-9606146D01*
X22169000Y-9606750D01*
X22264250Y-9702000D01*
X22544185Y-9702000D01*
X22603492Y-9733701D01*
X22675311Y-9755487D01*
X22750000Y-9762843D01*
X23302750Y-9761000D01*
X23398000Y-9665750D01*
X23398000Y-9253000D01*
X23378000Y-9253000D01*
X23378000Y-9097000D01*
X23398000Y-9097000D01*
X23398000Y-9036274D01*
X23652000Y-9036274D01*
X23652000Y-9097000D01*
%TA.AperFunction,Conductor*%
D30*
G36*
X23652000Y-9097000D02*
G01*
X23672000Y-9097000D01*
X23672000Y-9193930D01*
X23647250Y-9194000D01*
X23552000Y-9289250D01*
X23552000Y-9702000D01*
X23572000Y-9702000D01*
X23572000Y-9808000D01*
X23552000Y-9808000D01*
X23552000Y-9895200D01*
X23298000Y-9895200D01*
X23298000Y-9808000D01*
X22264250Y-9808000D01*
X22177050Y-9895200D01*
X22167424Y-9895200D01*
X22150000Y-9893484D01*
X22132576Y-9895200D01*
X22080447Y-9900334D01*
X22013567Y-9920622D01*
X21951930Y-9953568D01*
X21897905Y-9997905D01*
X21853568Y-10051930D01*
X21820622Y-10113567D01*
X21800334Y-10180447D01*
X21793484Y-10250000D01*
X21795200Y-10267424D01*
X21795200Y-10632576D01*
X21793484Y-10650000D01*
X21800334Y-10719553D01*
X21820622Y-10786433D01*
X21853568Y-10848070D01*
X21897905Y-10902095D01*
X21951930Y-10946432D01*
X22013567Y-10979378D01*
X22080447Y-10999666D01*
X22132576Y-11004800D01*
X22150000Y-11006516D01*
X22167424Y-11004800D01*
X25070200Y-11004800D01*
X25070201Y-19275101D01*
X25057048Y-19264307D01*
X25006900Y-19237503D01*
X25006900Y-18524952D01*
X25008865Y-18504999D01*
X25006900Y-18485046D01*
X25006900Y-18485040D01*
X25001019Y-18425332D01*
X24977781Y-18348725D01*
X24940044Y-18278124D01*
X24889258Y-18216242D01*
X24873754Y-18203518D01*
X24728774Y-18058538D01*
X24728774Y-17102000D01*
X24722889Y-17042249D01*
X24705460Y-16984794D01*
X24677158Y-16931843D01*
X24639068Y-16885432D01*
X24592657Y-16847342D01*
X24539706Y-16819040D01*
X24482251Y-16801611D01*
X24422500Y-16795726D01*
X24101462Y-16795726D01*
X23950003Y-16644267D01*
X24013008Y-16656800D01*
X24141992Y-16656800D01*
X24268498Y-16631636D01*
X24387664Y-16582276D01*
X24494910Y-16510616D01*
X24586116Y-16419410D01*
X24657776Y-16312164D01*
X24707136Y-16192998D01*
X24732300Y-16066492D01*
X24732300Y-15937508D01*
X24707136Y-15811002D01*
X24657776Y-15691836D01*
X24586116Y-15584590D01*
X24494910Y-15493384D01*
X24387664Y-15421724D01*
X24268498Y-15372364D01*
X24141992Y-15347200D01*
X24089536Y-15347200D01*
X24170755Y-15265981D01*
X24186258Y-15253258D01*
X24223176Y-15208274D01*
X24422500Y-15208274D01*
X24482251Y-15202389D01*
X24539706Y-15184960D01*
X24592657Y-15156658D01*
X24639068Y-15118568D01*
X24677158Y-15072157D01*
X24705460Y-15019206D01*
X24722889Y-14961751D01*
X24728774Y-14902000D01*
X24728774Y-13502000D01*
X24722889Y-13442249D01*
X24705460Y-13384794D01*
X24677158Y-13331843D01*
X24639068Y-13285432D01*
X24592657Y-13247342D01*
X24539706Y-13219040D01*
X24482251Y-13201611D01*
X24422500Y-13195726D01*
X23372500Y-13195726D01*
X23312749Y-13201611D01*
X23255294Y-13219040D01*
X23244994Y-13224545D01*
X23195196Y-13183678D01*
X23129008Y-13148299D01*
X23057189Y-13126513D01*
X22982500Y-13119157D01*
X22679750Y-13121000D01*
X22584500Y-13216250D01*
X22584500Y-14075000D01*
X22604500Y-14075000D01*
X22604500Y-14329000D01*
X22584500Y-14329000D01*
X22584500Y-15187750D01*
X22679750Y-15283000D01*
X22982500Y-15284843D01*
X23021013Y-15281050D01*
X23010424Y-15300862D01*
X22990719Y-15337726D01*
X22967481Y-15414332D01*
X22959635Y-15494000D01*
X22961601Y-15513962D01*
X22961600Y-16617047D01*
X22959635Y-16637000D01*
X22961600Y-16656953D01*
X22961600Y-16656959D01*
X22965489Y-16696443D01*
X22967481Y-16716668D01*
X22968262Y-16719244D01*
X22679750Y-16721000D01*
X22584500Y-16816250D01*
X22584500Y-17675000D01*
X22604500Y-17675000D01*
X22604500Y-17929000D01*
X22584500Y-17929000D01*
X22584500Y-17949000D01*
X22330500Y-17949000D01*
X22330500Y-17929000D01*
X21646750Y-17929000D01*
X21551500Y-18024250D01*
X21550725Y-18225270D01*
X21473691Y-18173798D01*
X21371996Y-18131674D01*
X21264037Y-18110200D01*
X21153963Y-18110200D01*
X21046004Y-18131674D01*
X20944309Y-18173798D01*
X20852786Y-18234952D01*
X20774952Y-18312786D01*
X20713798Y-18404309D01*
X20671674Y-18506004D01*
X20650200Y-18613963D01*
X20650200Y-18724037D01*
X20671674Y-18831996D01*
X20713798Y-18933691D01*
X20774952Y-19025214D01*
X20852786Y-19103048D01*
X20870878Y-19115136D01*
X20836433Y-19149581D01*
X18900462Y-19149581D01*
X18872814Y-19121933D01*
X18795094Y-19070002D01*
X18809900Y-19021193D01*
X18815519Y-19002669D01*
X18818069Y-18976777D01*
X18821400Y-18942960D01*
X18821400Y-18942954D01*
X18823365Y-18923001D01*
X18821400Y-18903048D01*
X18821400Y-18250086D01*
X19791023Y-17280463D01*
X20650200Y-17280463D01*
X20650200Y-17390537D01*
X20671674Y-17498496D01*
X20713798Y-17600191D01*
X20774952Y-17691714D01*
X20852786Y-17769548D01*
X20944309Y-17830702D01*
X21046004Y-17872826D01*
X21153963Y-17894300D01*
X21264037Y-17894300D01*
X21371996Y-17872826D01*
X21473691Y-17830702D01*
X21565214Y-17769548D01*
X21643048Y-17691714D01*
X21654216Y-17675000D01*
X22330500Y-17675000D01*
X22330500Y-16816250D01*
X22235250Y-16721000D01*
X21932500Y-16719157D01*
X21857811Y-16726513D01*
X21785992Y-16748299D01*
X21719804Y-16783678D01*
X21661789Y-16831289D01*
X21614178Y-16889304D01*
X21592891Y-16929129D01*
X21565214Y-16901452D01*
X21545478Y-16888265D01*
X21600433Y-16865501D01*
X21691956Y-16804347D01*
X21769790Y-16726513D01*
X21830944Y-16634990D01*
X21873068Y-16533295D01*
X21875527Y-16520931D01*
X21967336Y-16582276D01*
X22086502Y-16631636D01*
X22213008Y-16656800D01*
X22341992Y-16656800D01*
X22468498Y-16631636D01*
X22587664Y-16582276D01*
X22694910Y-16510616D01*
X22786116Y-16419410D01*
X22857776Y-16312164D01*
X22907136Y-16192998D01*
X22932300Y-16066492D01*
X22932300Y-15937508D01*
X22907136Y-15811002D01*
X22857776Y-15691836D01*
X22786116Y-15584590D01*
X22694910Y-15493384D01*
X22587664Y-15421724D01*
X22468498Y-15372364D01*
X22341992Y-15347200D01*
X22213008Y-15347200D01*
X22086502Y-15372364D01*
X21967336Y-15421724D01*
X21860090Y-15493384D01*
X21768884Y-15584590D01*
X21697224Y-15691836D01*
X21647864Y-15811002D01*
X21631046Y-15895552D01*
X21600433Y-15875097D01*
X21498738Y-15832973D01*
X21390779Y-15811499D01*
X21280705Y-15811499D01*
X21172746Y-15832973D01*
X21071051Y-15875097D01*
X20979528Y-15936251D01*
X20901694Y-16014085D01*
X20840540Y-16105608D01*
X20798416Y-16207303D01*
X20776942Y-16315262D01*
X20776942Y-16425336D01*
X20798416Y-16533295D01*
X20840540Y-16634990D01*
X20901694Y-16726513D01*
X20979528Y-16804347D01*
X20999264Y-16817534D01*
X20944309Y-16840298D01*
X20852786Y-16901452D01*
X20774952Y-16979286D01*
X20713798Y-17070809D01*
X20671674Y-17172504D01*
X20650200Y-17280463D01*
X19791023Y-17280463D01*
X20212254Y-16859232D01*
X20227758Y-16846508D01*
X20278544Y-16784626D01*
X20316281Y-16714025D01*
X20339519Y-16637418D01*
X20345400Y-16577710D01*
X20345400Y-16577704D01*
X20347365Y-16557751D01*
X20345400Y-16537798D01*
X20345400Y-15115862D01*
X20373048Y-15088214D01*
X20434202Y-14996691D01*
X20473424Y-14902000D01*
X21549657Y-14902000D01*
X21557013Y-14976689D01*
X21578799Y-15048508D01*
X21614178Y-15114696D01*
X21661789Y-15172711D01*
X21719804Y-15220322D01*
X21785992Y-15255701D01*
X21857811Y-15277487D01*
X21932500Y-15284843D01*
X22235250Y-15283000D01*
X22330500Y-15187750D01*
X22330500Y-14329000D01*
X21646750Y-14329000D01*
X21551500Y-14424250D01*
X21549657Y-14902000D01*
X20473424Y-14902000D01*
X20476326Y-14894996D01*
X20497800Y-14787037D01*
X20497800Y-14747936D01*
X20546754Y-14698982D01*
X20562258Y-14686258D01*
X20613044Y-14624376D01*
X20650781Y-14553775D01*
X20674019Y-14477168D01*
X20679900Y-14417460D01*
X20679900Y-14417454D01*
X20681865Y-14397501D01*
X20679900Y-14377548D01*
X20679900Y-14371774D01*
X20986000Y-14371774D01*
X21065260Y-14363968D01*
X21141474Y-14340848D01*
X21211714Y-14303304D01*
X21273279Y-14252779D01*
X21323804Y-14191214D01*
X21361348Y-14120974D01*
X21384468Y-14044760D01*
X21392274Y-13965500D01*
X21392274Y-13765500D01*
X21384468Y-13686240D01*
X21367967Y-13631844D01*
X21407963Y-13639800D01*
X21518037Y-13639800D01*
X21550164Y-13633410D01*
X21551500Y-13979750D01*
X21646750Y-14075000D01*
X22330500Y-14075000D01*
X22330500Y-13216250D01*
X22235250Y-13121000D01*
X22021800Y-13119701D01*
X22021800Y-13025963D01*
X22000326Y-12918004D01*
X21958202Y-12816309D01*
X21897048Y-12724786D01*
X21819214Y-12646952D01*
X21727691Y-12585798D01*
X21625996Y-12543674D01*
X21518037Y-12522200D01*
X21407963Y-12522200D01*
X21392274Y-12525321D01*
X21392274Y-12474300D01*
X22559962Y-12474300D01*
X22568530Y-12482868D01*
X22595904Y-12548955D01*
X22662617Y-12648799D01*
X22747527Y-12733709D01*
X22847371Y-12800422D01*
X22958311Y-12846375D01*
X23076085Y-12869801D01*
X23196165Y-12869801D01*
X23313939Y-12846375D01*
X23424879Y-12800422D01*
X23524723Y-12733709D01*
X23609633Y-12648799D01*
X23676346Y-12548955D01*
X23722299Y-12438015D01*
X23745725Y-12320241D01*
X23745725Y-12200161D01*
X23722299Y-12082387D01*
X23676346Y-11971447D01*
X23609633Y-11871603D01*
X23524723Y-11786693D01*
X23424879Y-11719980D01*
X23358792Y-11692606D01*
X23205967Y-11539781D01*
X23188467Y-11518457D01*
X23103378Y-11448627D01*
X23006302Y-11396739D01*
X22900968Y-11364786D01*
X22818868Y-11356700D01*
X22818866Y-11356700D01*
X22791424Y-11353997D01*
X22763982Y-11356700D01*
X20246056Y-11356700D01*
X20163956Y-11364786D01*
X20058622Y-11396739D01*
X20035260Y-11409226D01*
X19561000Y-11409226D01*
X19481740Y-11417032D01*
X19405526Y-11440152D01*
X19335286Y-11477696D01*
X19273721Y-11528221D01*
X19223196Y-11589786D01*
X19185652Y-11660026D01*
X19162532Y-11736240D01*
X19154726Y-11815500D01*
X19154726Y-12015500D01*
X19162532Y-12094760D01*
X19185652Y-12170974D01*
X19222814Y-12240500D01*
X19198113Y-12286714D01*
X19105037Y-12268200D01*
X19066850Y-12268200D01*
X19015376Y-12225956D01*
X18944775Y-12188219D01*
X18868168Y-12164981D01*
X18808460Y-12159100D01*
X18808453Y-12159100D01*
X18788500Y-12157135D01*
X18768547Y-12159100D01*
X17139950Y-12159100D01*
X17159468Y-12094760D01*
X17167274Y-12015500D01*
X17167274Y-11815500D01*
X17159468Y-11736240D01*
X17136348Y-11660026D01*
X17098804Y-11589786D01*
X17048279Y-11528221D01*
X16986714Y-11477696D01*
X16916474Y-11440152D01*
X16840260Y-11417032D01*
X16761000Y-11409226D01*
X15809183Y-11409226D01*
X15847876Y-11388544D01*
X15909758Y-11337758D01*
X15922482Y-11322253D01*
X16148249Y-11096486D01*
X16163758Y-11083758D01*
X16214544Y-11021876D01*
X16216998Y-11017285D01*
X16245309Y-11036202D01*
X16347004Y-11078326D01*
X16454963Y-11099800D01*
X16565037Y-11099800D01*
X16672996Y-11078326D01*
X16774691Y-11036202D01*
X16866214Y-10975048D01*
X16944048Y-10897214D01*
X17005202Y-10805691D01*
X17047326Y-10703996D01*
X17068800Y-10596037D01*
X17068800Y-10485963D01*
X17047326Y-10378004D01*
X17018047Y-10307320D01*
X19630558Y-10307320D01*
X19651638Y-10309396D01*
X19672718Y-10307320D01*
X19672726Y-10307320D01*
X19735788Y-10301109D01*
X19816704Y-10276563D01*
X19891276Y-10236704D01*
X19956639Y-10183061D01*
X19970082Y-10166681D01*
X20464443Y-9672320D01*
X21916558Y-9672320D01*
X21937638Y-9674396D01*
X21958718Y-9672320D01*
X21958726Y-9672320D01*
X22021788Y-9666109D01*
X22102704Y-9641563D01*
X22168965Y-9606146D01*
X22169000Y-9606750D01*
X22264250Y-9702000D01*
X22544185Y-9702000D01*
X22603492Y-9733701D01*
X22675311Y-9755487D01*
X22750000Y-9762843D01*
X23302750Y-9761000D01*
X23398000Y-9665750D01*
X23398000Y-9253000D01*
X23378000Y-9253000D01*
X23378000Y-9097000D01*
X23398000Y-9097000D01*
X23398000Y-9036274D01*
X23652000Y-9036274D01*
X23652000Y-9097000D01*
G37*
%TD.AperFunction*%
D29*
X18512674Y-12989996D02*
X18554798Y-13091691D01*
X18615952Y-13183214D01*
X18640738Y-13208000D01*
X18615952Y-13232786D01*
X18554798Y-13324309D01*
X18512674Y-13426004D01*
X18491200Y-13533963D01*
X18491200Y-13644037D01*
X18512674Y-13751996D01*
X18554798Y-13853691D01*
X18615952Y-13945214D01*
X18693786Y-14023048D01*
X18785309Y-14084202D01*
X18887004Y-14126326D01*
X18994963Y-14147800D01*
X19105037Y-14147800D01*
X19190866Y-14130728D01*
X19223196Y-14191214D01*
X19273721Y-14252779D01*
X19335286Y-14303304D01*
X19405526Y-14340848D01*
X19481740Y-14363968D01*
X19513629Y-14367109D01*
X19504952Y-14375786D01*
X19443798Y-14467309D01*
X19401674Y-14569004D01*
X19380200Y-14676963D01*
X19380200Y-14787037D01*
X19401674Y-14894996D01*
X19443798Y-14996691D01*
X19504952Y-15088214D01*
X19532600Y-15115862D01*
X19532601Y-16389413D01*
X18177943Y-17744071D01*
X18198762Y-17705122D01*
X18225011Y-17618590D01*
X18233874Y-17528600D01*
X18233874Y-17218600D01*
X18225011Y-17128610D01*
X18211800Y-17085059D01*
X18211800Y-16781268D01*
X18213811Y-16777506D01*
X18252004Y-16793326D01*
X18359963Y-16814800D01*
X18470037Y-16814800D01*
X18577996Y-16793326D01*
X18679691Y-16751202D01*
X18771214Y-16690048D01*
X18849048Y-16612214D01*
X18910202Y-16520691D01*
X18952326Y-16418996D01*
X18973800Y-16311037D01*
X18973800Y-16200963D01*
X18952326Y-16093004D01*
X18910202Y-15991309D01*
X18849048Y-15899786D01*
X18771214Y-15821952D01*
X18679691Y-15760798D01*
X18577996Y-15718674D01*
X18470037Y-15697200D01*
X18359963Y-15697200D01*
X18252004Y-15718674D01*
X18150309Y-15760798D01*
X18141083Y-15766962D01*
X18117977Y-15748000D01*
X18142706Y-15727706D01*
X18200693Y-15657048D01*
X18243781Y-15576435D01*
X18270315Y-15488966D01*
X18279274Y-15398000D01*
X18279274Y-14953000D01*
X18270315Y-14862034D01*
X18243781Y-14774565D01*
X18200693Y-14693952D01*
X18142706Y-14623294D01*
X18072048Y-14565307D01*
X17991435Y-14522219D01*
X17903966Y-14495685D01*
X17813000Y-14486726D01*
X17493000Y-14486726D01*
X17402034Y-14495685D01*
X17314565Y-14522219D01*
X17233952Y-14565307D01*
X17163294Y-14623294D01*
X17105307Y-14693952D01*
X17062219Y-14774565D01*
X17035685Y-14862034D01*
X17026726Y-14953000D01*
X17026726Y-15011400D01*
X16957960Y-15011400D01*
X16840186Y-15034826D01*
X16729246Y-15080779D01*
X16629402Y-15147492D01*
X16544492Y-15232402D01*
X16477779Y-15332246D01*
X16431826Y-15443186D01*
X16408400Y-15560960D01*
X16408400Y-15681040D01*
X16431826Y-15798814D01*
X16477779Y-15909754D01*
X16544492Y-16009598D01*
X16629402Y-16094508D01*
X16729246Y-16161221D01*
X16840186Y-16207174D01*
X16957960Y-16230600D01*
X17026726Y-16230600D01*
X17026726Y-16543000D01*
X17035685Y-16633966D01*
X17062219Y-16721435D01*
X17094200Y-16781269D01*
X17094201Y-16830529D01*
X17063311Y-16792889D01*
X17005296Y-16745278D01*
X16939108Y-16709899D01*
X16867289Y-16688113D01*
X16792600Y-16680757D01*
X16647350Y-16682600D01*
X16552100Y-16777850D01*
X16552100Y-17246600D01*
X16572100Y-17246600D01*
X16572100Y-17500600D01*
X16552100Y-17500600D01*
X16552100Y-18249900D01*
X16572100Y-18249900D01*
X16572100Y-18503900D01*
X16552100Y-18503900D01*
X16552100Y-18523900D01*
X16298100Y-18523900D01*
X16298100Y-18503900D01*
X15451900Y-18503900D01*
X15451900Y-18523900D01*
X15197900Y-18523900D01*
X15197900Y-18503900D01*
X15177900Y-18503900D01*
X15177900Y-18249900D01*
X15197900Y-18249900D01*
X15197900Y-18050999D01*
X15214600Y-17967040D01*
X15214600Y-17846960D01*
X15197900Y-17763001D01*
X15197900Y-17500600D01*
X15451900Y-17500600D01*
X15451900Y-18249900D01*
X16298100Y-18249900D01*
X16298100Y-17500600D01*
X15451900Y-17500600D01*
X15197900Y-17500600D01*
X15177900Y-17500600D01*
X15177900Y-17246600D01*
X15197900Y-17246600D01*
X15197900Y-16777850D01*
X15451900Y-16777850D01*
X15451900Y-17246600D01*
X16298100Y-17246600D01*
X16298100Y-16777850D01*
X16202850Y-16682600D01*
X16057600Y-16680757D01*
X15982911Y-16688113D01*
X15911092Y-16709899D01*
X15875000Y-16729191D01*
X15838908Y-16709899D01*
X15767089Y-16688113D01*
X15692400Y-16680757D01*
X15547150Y-16682600D01*
X15451900Y-16777850D01*
X15197900Y-16777850D01*
X15102650Y-16682600D01*
X14957400Y-16680757D01*
X14882711Y-16688113D01*
X14810892Y-16709899D01*
X14744704Y-16745278D01*
X14686689Y-16792889D01*
X14654087Y-16832615D01*
X14578922Y-16792438D01*
X14492390Y-16766189D01*
X14488922Y-16765847D01*
X14507276Y-16760280D01*
X14577877Y-16722543D01*
X14620211Y-16687800D01*
X14660037Y-16687800D01*
X14767996Y-16666326D01*
X14869691Y-16624202D01*
X14961214Y-16563048D01*
X15039048Y-16485214D01*
X15100202Y-16393691D01*
X15142326Y-16291996D01*
X15163800Y-16184037D01*
X15163800Y-16073963D01*
X15142326Y-15966004D01*
X15118697Y-15908959D01*
X15137786Y-15928048D01*
X15229309Y-15989202D01*
X15331004Y-16031326D01*
X15438963Y-16052800D01*
X15549037Y-16052800D01*
X15656996Y-16031326D01*
X15758691Y-15989202D01*
X15850214Y-15928048D01*
X15928048Y-15850214D01*
X15989202Y-15758691D01*
X16031326Y-15656996D01*
X16052800Y-15549037D01*
X16052800Y-15438963D01*
X16031326Y-15331004D01*
X15989202Y-15229309D01*
X15928048Y-15137786D01*
X15850214Y-15059952D01*
X15758691Y-14998798D01*
X15656996Y-14956674D01*
X15549037Y-14935200D01*
X15509936Y-14935200D01*
X14969982Y-14395246D01*
X14957258Y-14379742D01*
X14895376Y-14328956D01*
X14824775Y-14291219D01*
X14748168Y-14267981D01*
X14688460Y-14262100D01*
X14688453Y-14262100D01*
X14668500Y-14260135D01*
X14648547Y-14262100D01*
X13558837Y-14262100D01*
X13571315Y-14220966D01*
X13580274Y-14130000D01*
X13580274Y-14065500D01*
X14853157Y-14065500D01*
X14860513Y-14140189D01*
X14882299Y-14212008D01*
X14917678Y-14278196D01*
X14965289Y-14336211D01*
X15023304Y-14383822D01*
X15089492Y-14419201D01*
X15161311Y-14440987D01*
X15236000Y-14448343D01*
X15826250Y-14446500D01*
X15921500Y-14351250D01*
X15921500Y-13938500D01*
X16175500Y-13938500D01*
X16175500Y-14351250D01*
X16270750Y-14446500D01*
X16861000Y-14448343D01*
X16935689Y-14440987D01*
X17007508Y-14419201D01*
X17073696Y-14383822D01*
X17131711Y-14336211D01*
X17179322Y-14278196D01*
X17214701Y-14212008D01*
X17236487Y-14140189D01*
X17243843Y-14065500D01*
X17242000Y-14033750D01*
X17146750Y-13938500D01*
X16175500Y-13938500D01*
X15921500Y-13938500D01*
X14950250Y-13938500D01*
X14855000Y-14033750D01*
X14853157Y-14065500D01*
X13580274Y-14065500D01*
X13580274Y-13735000D01*
X13579783Y-13730010D01*
X14887760Y-13730010D01*
X14950250Y-13792500D01*
X15921500Y-13792500D01*
X15921500Y-13730115D01*
X15940390Y-13731975D01*
X15960343Y-13730010D01*
X15960350Y-13730010D01*
X16020058Y-13724129D01*
X16027822Y-13721774D01*
X16175500Y-13721774D01*
X16175500Y-13792500D01*
X17146750Y-13792500D01*
X17242000Y-13697250D01*
X17243843Y-13665500D01*
X17236487Y-13590811D01*
X17214701Y-13518992D01*
X17179322Y-13452804D01*
X17151970Y-13419475D01*
X17159468Y-13394760D01*
X17167274Y-13315500D01*
X17167274Y-13115500D01*
X17159468Y-13036240D01*
X17139950Y-12971900D01*
X18509075Y-12971900D01*
X18512674Y-12989996D01*
%TA.AperFunction,Conductor*%
D30*
G36*
X18512674Y-12989996D02*
G01*
X18554798Y-13091691D01*
X18615952Y-13183214D01*
X18640738Y-13208000D01*
X18615952Y-13232786D01*
X18554798Y-13324309D01*
X18512674Y-13426004D01*
X18491200Y-13533963D01*
X18491200Y-13644037D01*
X18512674Y-13751996D01*
X18554798Y-13853691D01*
X18615952Y-13945214D01*
X18693786Y-14023048D01*
X18785309Y-14084202D01*
X18887004Y-14126326D01*
X18994963Y-14147800D01*
X19105037Y-14147800D01*
X19190866Y-14130728D01*
X19223196Y-14191214D01*
X19273721Y-14252779D01*
X19335286Y-14303304D01*
X19405526Y-14340848D01*
X19481740Y-14363968D01*
X19513629Y-14367109D01*
X19504952Y-14375786D01*
X19443798Y-14467309D01*
X19401674Y-14569004D01*
X19380200Y-14676963D01*
X19380200Y-14787037D01*
X19401674Y-14894996D01*
X19443798Y-14996691D01*
X19504952Y-15088214D01*
X19532600Y-15115862D01*
X19532601Y-16389413D01*
X18177943Y-17744071D01*
X18198762Y-17705122D01*
X18225011Y-17618590D01*
X18233874Y-17528600D01*
X18233874Y-17218600D01*
X18225011Y-17128610D01*
X18211800Y-17085059D01*
X18211800Y-16781268D01*
X18213811Y-16777506D01*
X18252004Y-16793326D01*
X18359963Y-16814800D01*
X18470037Y-16814800D01*
X18577996Y-16793326D01*
X18679691Y-16751202D01*
X18771214Y-16690048D01*
X18849048Y-16612214D01*
X18910202Y-16520691D01*
X18952326Y-16418996D01*
X18973800Y-16311037D01*
X18973800Y-16200963D01*
X18952326Y-16093004D01*
X18910202Y-15991309D01*
X18849048Y-15899786D01*
X18771214Y-15821952D01*
X18679691Y-15760798D01*
X18577996Y-15718674D01*
X18470037Y-15697200D01*
X18359963Y-15697200D01*
X18252004Y-15718674D01*
X18150309Y-15760798D01*
X18141083Y-15766962D01*
X18117977Y-15748000D01*
X18142706Y-15727706D01*
X18200693Y-15657048D01*
X18243781Y-15576435D01*
X18270315Y-15488966D01*
X18279274Y-15398000D01*
X18279274Y-14953000D01*
X18270315Y-14862034D01*
X18243781Y-14774565D01*
X18200693Y-14693952D01*
X18142706Y-14623294D01*
X18072048Y-14565307D01*
X17991435Y-14522219D01*
X17903966Y-14495685D01*
X17813000Y-14486726D01*
X17493000Y-14486726D01*
X17402034Y-14495685D01*
X17314565Y-14522219D01*
X17233952Y-14565307D01*
X17163294Y-14623294D01*
X17105307Y-14693952D01*
X17062219Y-14774565D01*
X17035685Y-14862034D01*
X17026726Y-14953000D01*
X17026726Y-15011400D01*
X16957960Y-15011400D01*
X16840186Y-15034826D01*
X16729246Y-15080779D01*
X16629402Y-15147492D01*
X16544492Y-15232402D01*
X16477779Y-15332246D01*
X16431826Y-15443186D01*
X16408400Y-15560960D01*
X16408400Y-15681040D01*
X16431826Y-15798814D01*
X16477779Y-15909754D01*
X16544492Y-16009598D01*
X16629402Y-16094508D01*
X16729246Y-16161221D01*
X16840186Y-16207174D01*
X16957960Y-16230600D01*
X17026726Y-16230600D01*
X17026726Y-16543000D01*
X17035685Y-16633966D01*
X17062219Y-16721435D01*
X17094200Y-16781269D01*
X17094201Y-16830529D01*
X17063311Y-16792889D01*
X17005296Y-16745278D01*
X16939108Y-16709899D01*
X16867289Y-16688113D01*
X16792600Y-16680757D01*
X16647350Y-16682600D01*
X16552100Y-16777850D01*
X16552100Y-17246600D01*
X16572100Y-17246600D01*
X16572100Y-17500600D01*
X16552100Y-17500600D01*
X16552100Y-18249900D01*
X16572100Y-18249900D01*
X16572100Y-18503900D01*
X16552100Y-18503900D01*
X16552100Y-18523900D01*
X16298100Y-18523900D01*
X16298100Y-18503900D01*
X15451900Y-18503900D01*
X15451900Y-18523900D01*
X15197900Y-18523900D01*
X15197900Y-18503900D01*
X15177900Y-18503900D01*
X15177900Y-18249900D01*
X15197900Y-18249900D01*
X15197900Y-18050999D01*
X15214600Y-17967040D01*
X15214600Y-17846960D01*
X15197900Y-17763001D01*
X15197900Y-17500600D01*
X15451900Y-17500600D01*
X15451900Y-18249900D01*
X16298100Y-18249900D01*
X16298100Y-17500600D01*
X15451900Y-17500600D01*
X15197900Y-17500600D01*
X15177900Y-17500600D01*
X15177900Y-17246600D01*
X15197900Y-17246600D01*
X15197900Y-16777850D01*
X15451900Y-16777850D01*
X15451900Y-17246600D01*
X16298100Y-17246600D01*
X16298100Y-16777850D01*
X16202850Y-16682600D01*
X16057600Y-16680757D01*
X15982911Y-16688113D01*
X15911092Y-16709899D01*
X15875000Y-16729191D01*
X15838908Y-16709899D01*
X15767089Y-16688113D01*
X15692400Y-16680757D01*
X15547150Y-16682600D01*
X15451900Y-16777850D01*
X15197900Y-16777850D01*
X15102650Y-16682600D01*
X14957400Y-16680757D01*
X14882711Y-16688113D01*
X14810892Y-16709899D01*
X14744704Y-16745278D01*
X14686689Y-16792889D01*
X14654087Y-16832615D01*
X14578922Y-16792438D01*
X14492390Y-16766189D01*
X14488922Y-16765847D01*
X14507276Y-16760280D01*
X14577877Y-16722543D01*
X14620211Y-16687800D01*
X14660037Y-16687800D01*
X14767996Y-16666326D01*
X14869691Y-16624202D01*
X14961214Y-16563048D01*
X15039048Y-16485214D01*
X15100202Y-16393691D01*
X15142326Y-16291996D01*
X15163800Y-16184037D01*
X15163800Y-16073963D01*
X15142326Y-15966004D01*
X15118697Y-15908959D01*
X15137786Y-15928048D01*
X15229309Y-15989202D01*
X15331004Y-16031326D01*
X15438963Y-16052800D01*
X15549037Y-16052800D01*
X15656996Y-16031326D01*
X15758691Y-15989202D01*
X15850214Y-15928048D01*
X15928048Y-15850214D01*
X15989202Y-15758691D01*
X16031326Y-15656996D01*
X16052800Y-15549037D01*
X16052800Y-15438963D01*
X16031326Y-15331004D01*
X15989202Y-15229309D01*
X15928048Y-15137786D01*
X15850214Y-15059952D01*
X15758691Y-14998798D01*
X15656996Y-14956674D01*
X15549037Y-14935200D01*
X15509936Y-14935200D01*
X14969982Y-14395246D01*
X14957258Y-14379742D01*
X14895376Y-14328956D01*
X14824775Y-14291219D01*
X14748168Y-14267981D01*
X14688460Y-14262100D01*
X14688453Y-14262100D01*
X14668500Y-14260135D01*
X14648547Y-14262100D01*
X13558837Y-14262100D01*
X13571315Y-14220966D01*
X13580274Y-14130000D01*
X13580274Y-14065500D01*
X14853157Y-14065500D01*
X14860513Y-14140189D01*
X14882299Y-14212008D01*
X14917678Y-14278196D01*
X14965289Y-14336211D01*
X15023304Y-14383822D01*
X15089492Y-14419201D01*
X15161311Y-14440987D01*
X15236000Y-14448343D01*
X15826250Y-14446500D01*
X15921500Y-14351250D01*
X15921500Y-13938500D01*
X16175500Y-13938500D01*
X16175500Y-14351250D01*
X16270750Y-14446500D01*
X16861000Y-14448343D01*
X16935689Y-14440987D01*
X17007508Y-14419201D01*
X17073696Y-14383822D01*
X17131711Y-14336211D01*
X17179322Y-14278196D01*
X17214701Y-14212008D01*
X17236487Y-14140189D01*
X17243843Y-14065500D01*
X17242000Y-14033750D01*
X17146750Y-13938500D01*
X16175500Y-13938500D01*
X15921500Y-13938500D01*
X14950250Y-13938500D01*
X14855000Y-14033750D01*
X14853157Y-14065500D01*
X13580274Y-14065500D01*
X13580274Y-13735000D01*
X13579783Y-13730010D01*
X14887760Y-13730010D01*
X14950250Y-13792500D01*
X15921500Y-13792500D01*
X15921500Y-13730115D01*
X15940390Y-13731975D01*
X15960343Y-13730010D01*
X15960350Y-13730010D01*
X16020058Y-13724129D01*
X16027822Y-13721774D01*
X16175500Y-13721774D01*
X16175500Y-13792500D01*
X17146750Y-13792500D01*
X17242000Y-13697250D01*
X17243843Y-13665500D01*
X17236487Y-13590811D01*
X17214701Y-13518992D01*
X17179322Y-13452804D01*
X17151970Y-13419475D01*
X17159468Y-13394760D01*
X17167274Y-13315500D01*
X17167274Y-13115500D01*
X17159468Y-13036240D01*
X17139950Y-12971900D01*
X18509075Y-12971900D01*
X18512674Y-12989996D01*
G37*
%TD.AperFunction*%
D29*
X9150226Y-14868500D02*
X9156111Y-14928251D01*
X9173540Y-14985706D01*
X9177706Y-14993500D01*
X9173540Y-15001294D01*
X9156111Y-15058749D01*
X9150226Y-15118500D01*
X9150226Y-15518500D01*
X9156111Y-15578251D01*
X9173540Y-15635706D01*
X9201842Y-15688657D01*
X9239932Y-15735068D01*
X9286343Y-15773158D01*
X9339294Y-15801460D01*
X9396749Y-15818889D01*
X9456500Y-15824774D01*
X9728200Y-15824774D01*
X9728200Y-15930037D01*
X9744250Y-16010726D01*
X9619000Y-16010726D01*
X9528034Y-16019685D01*
X9440565Y-16046219D01*
X9359952Y-16089307D01*
X9330610Y-16113387D01*
X9305754Y-16096779D01*
X9194814Y-16050826D01*
X9077040Y-16027400D01*
X8956960Y-16027400D01*
X8839186Y-16050826D01*
X8728246Y-16096779D01*
X8628402Y-16163492D01*
X8543492Y-16248402D01*
X8504083Y-16307383D01*
X8407400Y-16210700D01*
X8407400Y-15507902D01*
X8845760Y-15069542D01*
X8861258Y-15056824D01*
X8873977Y-15041326D01*
X8873982Y-15041321D01*
X8901291Y-15008044D01*
X8912044Y-14994942D01*
X8949781Y-14924341D01*
X8950984Y-14920375D01*
X8991548Y-14898693D01*
X9062206Y-14840706D01*
X9120193Y-14770048D01*
X9150226Y-14713859D01*
X9150226Y-14868500D01*
%TA.AperFunction,Conductor*%
D30*
G36*
X9150226Y-14868500D02*
G01*
X9156111Y-14928251D01*
X9173540Y-14985706D01*
X9177706Y-14993500D01*
X9173540Y-15001294D01*
X9156111Y-15058749D01*
X9150226Y-15118500D01*
X9150226Y-15518500D01*
X9156111Y-15578251D01*
X9173540Y-15635706D01*
X9201842Y-15688657D01*
X9239932Y-15735068D01*
X9286343Y-15773158D01*
X9339294Y-15801460D01*
X9396749Y-15818889D01*
X9456500Y-15824774D01*
X9728200Y-15824774D01*
X9728200Y-15930037D01*
X9744250Y-16010726D01*
X9619000Y-16010726D01*
X9528034Y-16019685D01*
X9440565Y-16046219D01*
X9359952Y-16089307D01*
X9330610Y-16113387D01*
X9305754Y-16096779D01*
X9194814Y-16050826D01*
X9077040Y-16027400D01*
X8956960Y-16027400D01*
X8839186Y-16050826D01*
X8728246Y-16096779D01*
X8628402Y-16163492D01*
X8543492Y-16248402D01*
X8504083Y-16307383D01*
X8407400Y-16210700D01*
X8407400Y-15507902D01*
X8845760Y-15069542D01*
X8861258Y-15056824D01*
X8873977Y-15041326D01*
X8873982Y-15041321D01*
X8901291Y-15008044D01*
X8912044Y-14994942D01*
X8949781Y-14924341D01*
X8950984Y-14920375D01*
X8991548Y-14898693D01*
X9062206Y-14840706D01*
X9120193Y-14770048D01*
X9150226Y-14713859D01*
X9150226Y-14868500D01*
G37*
%TD.AperFunction*%
D29*
X390311Y-12725487D02*
X457796Y-12732133D01*
X457432Y-12732432D01*
X419342Y-12778843D01*
X391040Y-12831794D01*
X373611Y-12889249D01*
X367726Y-12949000D01*
X367726Y-13599000D01*
X373611Y-13658751D01*
X391040Y-13716206D01*
X419342Y-13769157D01*
X457432Y-13815568D01*
X503843Y-13853658D01*
X534850Y-13870231D01*
X544364Y-13881823D01*
X572518Y-13916130D01*
X572524Y-13916136D01*
X585243Y-13931634D01*
X600741Y-13944353D01*
X1127848Y-14471460D01*
X1074000Y-14466157D01*
X1042250Y-14468000D01*
X947000Y-14563250D01*
X947000Y-15047000D01*
X1017726Y-15047000D01*
X1017726Y-15301000D01*
X947000Y-15301000D01*
X947000Y-15321000D01*
X801000Y-15321000D01*
X801000Y-15301000D01*
X727000Y-15301000D01*
X727000Y-15047000D01*
X801000Y-15047000D01*
X801000Y-14563250D01*
X705750Y-14468000D01*
X674000Y-14466157D01*
X599311Y-14473513D01*
X527492Y-14495299D01*
X461304Y-14530678D01*
X403289Y-14578289D01*
X355678Y-14636304D01*
X329800Y-14684717D01*
X329800Y-12707131D01*
X390311Y-12725487D01*
%TA.AperFunction,Conductor*%
D30*
G36*
X390311Y-12725487D02*
G01*
X457796Y-12732133D01*
X457432Y-12732432D01*
X419342Y-12778843D01*
X391040Y-12831794D01*
X373611Y-12889249D01*
X367726Y-12949000D01*
X367726Y-13599000D01*
X373611Y-13658751D01*
X391040Y-13716206D01*
X419342Y-13769157D01*
X457432Y-13815568D01*
X503843Y-13853658D01*
X534850Y-13870231D01*
X544364Y-13881823D01*
X572518Y-13916130D01*
X572524Y-13916136D01*
X585243Y-13931634D01*
X600741Y-13944353D01*
X1127848Y-14471460D01*
X1074000Y-14466157D01*
X1042250Y-14468000D01*
X947000Y-14563250D01*
X947000Y-15047000D01*
X1017726Y-15047000D01*
X1017726Y-15301000D01*
X947000Y-15301000D01*
X947000Y-15321000D01*
X801000Y-15321000D01*
X801000Y-15301000D01*
X727000Y-15301000D01*
X727000Y-15047000D01*
X801000Y-15047000D01*
X801000Y-14563250D01*
X705750Y-14468000D01*
X674000Y-14466157D01*
X599311Y-14473513D01*
X527492Y-14495299D01*
X461304Y-14530678D01*
X403289Y-14578289D01*
X355678Y-14636304D01*
X329800Y-14684717D01*
X329800Y-12707131D01*
X390311Y-12725487D01*
G37*
%TD.AperFunction*%
D29*
X9928500Y-14091500D02*
X9908500Y-14091500D01*
X9908500Y-14162226D01*
X9654500Y-14162226D01*
X9654500Y-14091500D01*
X9634500Y-14091500D01*
X9634500Y-13995400D01*
X9759047Y-13995400D01*
X9779000Y-13997365D01*
X9798953Y-13995400D01*
X9798960Y-13995400D01*
X9858668Y-13989519D01*
X9928500Y-13968336D01*
X9928500Y-14091500D01*
%TA.AperFunction,Conductor*%
D30*
G36*
X9928500Y-14091500D02*
G01*
X9908500Y-14091500D01*
X9908500Y-14162226D01*
X9654500Y-14162226D01*
X9654500Y-14091500D01*
X9634500Y-14091500D01*
X9634500Y-13995400D01*
X9759047Y-13995400D01*
X9779000Y-13997365D01*
X9798953Y-13995400D01*
X9798960Y-13995400D01*
X9858668Y-13989519D01*
X9928500Y-13968336D01*
X9928500Y-14091500D01*
G37*
%TD.AperFunction*%
D29*
X15110286Y-11477696D02*
X15048721Y-11528221D01*
X14998196Y-11589786D01*
X14960652Y-11660026D01*
X14937532Y-11736240D01*
X14929726Y-11815500D01*
X14929726Y-12015500D01*
X14937532Y-12094760D01*
X14960652Y-12170974D01*
X14997814Y-12240500D01*
X14960652Y-12310026D01*
X14937532Y-12386240D01*
X14929726Y-12465500D01*
X14929726Y-12665500D01*
X14937532Y-12744760D01*
X14960652Y-12820974D01*
X14997814Y-12890500D01*
X14983538Y-12917210D01*
X14394804Y-12917210D01*
X14401800Y-12882037D01*
X14401800Y-12771963D01*
X14380326Y-12664004D01*
X14338202Y-12562309D01*
X14277048Y-12470786D01*
X14199214Y-12392952D01*
X14186502Y-12384458D01*
X14186502Y-12289752D01*
X14281750Y-12385000D01*
X14417000Y-12386843D01*
X14491689Y-12379487D01*
X14563508Y-12357701D01*
X14629696Y-12322322D01*
X14687711Y-12274711D01*
X14735322Y-12216696D01*
X14770701Y-12150508D01*
X14792487Y-12078689D01*
X14799843Y-12004000D01*
X14798000Y-11906250D01*
X14702750Y-11811000D01*
X14186500Y-11811000D01*
X14186500Y-11831000D01*
X13932500Y-11831000D01*
X13932500Y-11811000D01*
X13912500Y-11811000D01*
X13912500Y-11557000D01*
X13932500Y-11557000D01*
X13932500Y-11537000D01*
X14186500Y-11537000D01*
X14186500Y-11557000D01*
X14702750Y-11557000D01*
X14798000Y-11461750D01*
X14798120Y-11455400D01*
X15151999Y-11455400D01*
X15110286Y-11477696D01*
%TA.AperFunction,Conductor*%
D30*
G36*
X15110286Y-11477696D02*
G01*
X15048721Y-11528221D01*
X14998196Y-11589786D01*
X14960652Y-11660026D01*
X14937532Y-11736240D01*
X14929726Y-11815500D01*
X14929726Y-12015500D01*
X14937532Y-12094760D01*
X14960652Y-12170974D01*
X14997814Y-12240500D01*
X14960652Y-12310026D01*
X14937532Y-12386240D01*
X14929726Y-12465500D01*
X14929726Y-12665500D01*
X14937532Y-12744760D01*
X14960652Y-12820974D01*
X14997814Y-12890500D01*
X14983538Y-12917210D01*
X14394804Y-12917210D01*
X14401800Y-12882037D01*
X14401800Y-12771963D01*
X14380326Y-12664004D01*
X14338202Y-12562309D01*
X14277048Y-12470786D01*
X14199214Y-12392952D01*
X14186502Y-12384458D01*
X14186502Y-12289752D01*
X14281750Y-12385000D01*
X14417000Y-12386843D01*
X14491689Y-12379487D01*
X14563508Y-12357701D01*
X14629696Y-12322322D01*
X14687711Y-12274711D01*
X14735322Y-12216696D01*
X14770701Y-12150508D01*
X14792487Y-12078689D01*
X14799843Y-12004000D01*
X14798000Y-11906250D01*
X14702750Y-11811000D01*
X14186500Y-11811000D01*
X14186500Y-11831000D01*
X13932500Y-11831000D01*
X13932500Y-11811000D01*
X13912500Y-11811000D01*
X13912500Y-11557000D01*
X13932500Y-11557000D01*
X13932500Y-11537000D01*
X14186500Y-11537000D01*
X14186500Y-11557000D01*
X14702750Y-11557000D01*
X14798000Y-11461750D01*
X14798120Y-11455400D01*
X15151999Y-11455400D01*
X15110286Y-11477696D01*
G37*
%TD.AperFunction*%
D29*
X5802000Y-9077000D02*
X5822000Y-9077000D01*
X5822000Y-9123000D01*
X5802000Y-9123000D01*
X5802000Y-9973000D01*
X6460750Y-9973000D01*
X6556000Y-9877750D01*
X6557843Y-9600000D01*
X6550487Y-9525311D01*
X6528701Y-9453492D01*
X6513471Y-9425000D01*
X6528701Y-9396508D01*
X6550487Y-9324689D01*
X6556713Y-9261476D01*
X7461923Y-10166687D01*
X7475361Y-10183061D01*
X7491735Y-10196499D01*
X7491740Y-10196504D01*
X7510479Y-10211882D01*
X7540724Y-10236704D01*
X7615296Y-10276563D01*
X7696212Y-10301109D01*
X7759274Y-10307320D01*
X7759281Y-10307320D01*
X7780361Y-10309396D01*
X7801442Y-10307320D01*
X9778953Y-10307320D01*
X9749674Y-10378004D01*
X9728200Y-10485963D01*
X9728200Y-10596037D01*
X9739874Y-10654726D01*
X9456500Y-10654726D01*
X9396749Y-10660611D01*
X9339294Y-10678040D01*
X9286343Y-10706342D01*
X9239932Y-10744432D01*
X9231587Y-10754600D01*
X8035953Y-10754600D01*
X8016000Y-10752635D01*
X7996047Y-10754600D01*
X7996040Y-10754600D01*
X7943604Y-10759765D01*
X7936331Y-10760481D01*
X7898029Y-10772100D01*
X7859725Y-10783719D01*
X7789124Y-10821456D01*
X7727242Y-10872242D01*
X7714519Y-10887745D01*
X7652856Y-10949408D01*
X7637352Y-10962132D01*
X7624629Y-10977635D01*
X7624628Y-10977636D01*
X7620355Y-10982843D01*
X7586566Y-11024015D01*
X7548829Y-11094616D01*
X7525591Y-11171223D01*
X7519710Y-11230931D01*
X7519710Y-11230937D01*
X7517745Y-11250890D01*
X7519710Y-11270843D01*
X7519710Y-11343040D01*
X7467000Y-11395750D01*
X7467000Y-11874500D01*
X7487000Y-11874500D01*
X7487000Y-12128500D01*
X7467000Y-12128500D01*
X7467000Y-12148500D01*
X7213000Y-12148500D01*
X7213000Y-12128500D01*
X6696750Y-12128500D01*
X6601500Y-12223750D01*
X6599657Y-12321500D01*
X6607013Y-12396189D01*
X6624770Y-12454726D01*
X6380500Y-12454726D01*
X6289534Y-12463685D01*
X6202065Y-12490219D01*
X6121452Y-12533307D01*
X6050794Y-12591294D01*
X6032500Y-12613586D01*
X6014206Y-12591294D01*
X5943548Y-12533307D01*
X5862935Y-12490219D01*
X5775466Y-12463685D01*
X5684500Y-12454726D01*
X5364500Y-12454726D01*
X5273534Y-12463685D01*
X5186065Y-12490219D01*
X5105452Y-12533307D01*
X5034794Y-12591294D01*
X5016500Y-12613586D01*
X4998206Y-12591294D01*
X4927548Y-12533307D01*
X4846935Y-12490219D01*
X4822827Y-12482906D01*
X4840487Y-12424689D01*
X4847843Y-12350000D01*
X4846000Y-11822250D01*
X4750750Y-11727000D01*
X2592000Y-11727000D01*
X2592000Y-11747000D01*
X2338000Y-11747000D01*
X2338000Y-11727000D01*
X2318000Y-11727000D01*
X2318000Y-11681500D01*
X6599657Y-11681500D01*
X6601500Y-11779250D01*
X6696750Y-11874500D01*
X7213000Y-11874500D01*
X7213000Y-11395750D01*
X7117750Y-11300500D01*
X6982500Y-11298657D01*
X6907811Y-11306013D01*
X6835992Y-11327799D01*
X6769804Y-11363178D01*
X6711789Y-11410789D01*
X6664178Y-11468804D01*
X6628799Y-11534992D01*
X6607013Y-11606811D01*
X6599657Y-11681500D01*
X2318000Y-11681500D01*
X2318000Y-11473000D01*
X2338000Y-11473000D01*
X2338000Y-11453000D01*
X2592000Y-11453000D01*
X2592000Y-11473000D01*
X4750750Y-11473000D01*
X4846000Y-11377750D01*
X4846883Y-11124800D01*
X5190807Y-11124800D01*
X5207000Y-11126395D01*
X5223193Y-11124800D01*
X5271652Y-11120027D01*
X5333819Y-11101169D01*
X5391113Y-11070545D01*
X5441332Y-11029332D01*
X5482545Y-10979113D01*
X5513169Y-10921819D01*
X5513708Y-10920042D01*
X5548000Y-10885750D01*
X5548000Y-10227000D01*
X5802000Y-10227000D01*
X5802000Y-10885750D01*
X5897250Y-10981000D01*
X6175000Y-10982843D01*
X6249689Y-10975487D01*
X6321508Y-10953701D01*
X6387696Y-10918322D01*
X6445711Y-10870711D01*
X6493322Y-10812696D01*
X6528701Y-10746508D01*
X6550487Y-10674689D01*
X6557843Y-10600000D01*
X6556000Y-10322250D01*
X6460750Y-10227000D01*
X5802000Y-10227000D01*
X5548000Y-10227000D01*
X5536800Y-10227000D01*
X5536800Y-9973000D01*
X5548000Y-9973000D01*
X5548000Y-9123000D01*
X5536800Y-9123000D01*
X5536800Y-9077000D01*
X5548000Y-9077000D01*
X5548000Y-9056274D01*
X5802000Y-9056274D01*
X5802000Y-9077000D01*
%TA.AperFunction,Conductor*%
D30*
G36*
X5802000Y-9077000D02*
G01*
X5822000Y-9077000D01*
X5822000Y-9123000D01*
X5802000Y-9123000D01*
X5802000Y-9973000D01*
X6460750Y-9973000D01*
X6556000Y-9877750D01*
X6557843Y-9600000D01*
X6550487Y-9525311D01*
X6528701Y-9453492D01*
X6513471Y-9425000D01*
X6528701Y-9396508D01*
X6550487Y-9324689D01*
X6556713Y-9261476D01*
X7461923Y-10166687D01*
X7475361Y-10183061D01*
X7491735Y-10196499D01*
X7491740Y-10196504D01*
X7510479Y-10211882D01*
X7540724Y-10236704D01*
X7615296Y-10276563D01*
X7696212Y-10301109D01*
X7759274Y-10307320D01*
X7759281Y-10307320D01*
X7780361Y-10309396D01*
X7801442Y-10307320D01*
X9778953Y-10307320D01*
X9749674Y-10378004D01*
X9728200Y-10485963D01*
X9728200Y-10596037D01*
X9739874Y-10654726D01*
X9456500Y-10654726D01*
X9396749Y-10660611D01*
X9339294Y-10678040D01*
X9286343Y-10706342D01*
X9239932Y-10744432D01*
X9231587Y-10754600D01*
X8035953Y-10754600D01*
X8016000Y-10752635D01*
X7996047Y-10754600D01*
X7996040Y-10754600D01*
X7943604Y-10759765D01*
X7936331Y-10760481D01*
X7898029Y-10772100D01*
X7859725Y-10783719D01*
X7789124Y-10821456D01*
X7727242Y-10872242D01*
X7714519Y-10887745D01*
X7652856Y-10949408D01*
X7637352Y-10962132D01*
X7624629Y-10977635D01*
X7624628Y-10977636D01*
X7620355Y-10982843D01*
X7586566Y-11024015D01*
X7548829Y-11094616D01*
X7525591Y-11171223D01*
X7519710Y-11230931D01*
X7519710Y-11230937D01*
X7517745Y-11250890D01*
X7519710Y-11270843D01*
X7519710Y-11343040D01*
X7467000Y-11395750D01*
X7467000Y-11874500D01*
X7487000Y-11874500D01*
X7487000Y-12128500D01*
X7467000Y-12128500D01*
X7467000Y-12148500D01*
X7213000Y-12148500D01*
X7213000Y-12128500D01*
X6696750Y-12128500D01*
X6601500Y-12223750D01*
X6599657Y-12321500D01*
X6607013Y-12396189D01*
X6624770Y-12454726D01*
X6380500Y-12454726D01*
X6289534Y-12463685D01*
X6202065Y-12490219D01*
X6121452Y-12533307D01*
X6050794Y-12591294D01*
X6032500Y-12613586D01*
X6014206Y-12591294D01*
X5943548Y-12533307D01*
X5862935Y-12490219D01*
X5775466Y-12463685D01*
X5684500Y-12454726D01*
X5364500Y-12454726D01*
X5273534Y-12463685D01*
X5186065Y-12490219D01*
X5105452Y-12533307D01*
X5034794Y-12591294D01*
X5016500Y-12613586D01*
X4998206Y-12591294D01*
X4927548Y-12533307D01*
X4846935Y-12490219D01*
X4822827Y-12482906D01*
X4840487Y-12424689D01*
X4847843Y-12350000D01*
X4846000Y-11822250D01*
X4750750Y-11727000D01*
X2592000Y-11727000D01*
X2592000Y-11747000D01*
X2338000Y-11747000D01*
X2338000Y-11727000D01*
X2318000Y-11727000D01*
X2318000Y-11681500D01*
X6599657Y-11681500D01*
X6601500Y-11779250D01*
X6696750Y-11874500D01*
X7213000Y-11874500D01*
X7213000Y-11395750D01*
X7117750Y-11300500D01*
X6982500Y-11298657D01*
X6907811Y-11306013D01*
X6835992Y-11327799D01*
X6769804Y-11363178D01*
X6711789Y-11410789D01*
X6664178Y-11468804D01*
X6628799Y-11534992D01*
X6607013Y-11606811D01*
X6599657Y-11681500D01*
X2318000Y-11681500D01*
X2318000Y-11473000D01*
X2338000Y-11473000D01*
X2338000Y-11453000D01*
X2592000Y-11453000D01*
X2592000Y-11473000D01*
X4750750Y-11473000D01*
X4846000Y-11377750D01*
X4846883Y-11124800D01*
X5190807Y-11124800D01*
X5207000Y-11126395D01*
X5223193Y-11124800D01*
X5271652Y-11120027D01*
X5333819Y-11101169D01*
X5391113Y-11070545D01*
X5441332Y-11029332D01*
X5482545Y-10979113D01*
X5513169Y-10921819D01*
X5513708Y-10920042D01*
X5548000Y-10885750D01*
X5548000Y-10227000D01*
X5802000Y-10227000D01*
X5802000Y-10885750D01*
X5897250Y-10981000D01*
X6175000Y-10982843D01*
X6249689Y-10975487D01*
X6321508Y-10953701D01*
X6387696Y-10918322D01*
X6445711Y-10870711D01*
X6493322Y-10812696D01*
X6528701Y-10746508D01*
X6550487Y-10674689D01*
X6557843Y-10600000D01*
X6556000Y-10322250D01*
X6460750Y-10227000D01*
X5802000Y-10227000D01*
X5548000Y-10227000D01*
X5536800Y-10227000D01*
X5536800Y-9973000D01*
X5548000Y-9973000D01*
X5548000Y-9123000D01*
X5536800Y-9123000D01*
X5536800Y-9077000D01*
X5548000Y-9077000D01*
X5548000Y-9056274D01*
X5802000Y-9056274D01*
X5802000Y-9077000D01*
G37*
%TD.AperFunction*%
D29*
X13159741Y-6328910D02*
X13157664Y-6350000D01*
X13165951Y-6434149D01*
X13189859Y-6512960D01*
X13190498Y-6515066D01*
X13230357Y-6589638D01*
X13241466Y-6603174D01*
X13270556Y-6638621D01*
X13270562Y-6638627D01*
X13284000Y-6655001D01*
X13300375Y-6668440D01*
X13483552Y-6851616D01*
X13496999Y-6868001D01*
X13562362Y-6921644D01*
X13636934Y-6961503D01*
X13717850Y-6986049D01*
X13780912Y-6992260D01*
X13780921Y-6992260D01*
X13801999Y-6994336D01*
X13823077Y-6992260D01*
X16065500Y-6992260D01*
X16065500Y-8191500D01*
X16072821Y-8265829D01*
X16094502Y-8337302D01*
X16129710Y-8403172D01*
X16177092Y-8460908D01*
X16234828Y-8508290D01*
X16300698Y-8543498D01*
X16372171Y-8565179D01*
X16446500Y-8572500D01*
X18365883Y-8572500D01*
X18368410Y-8585201D01*
X12767318Y-8585201D01*
X12797998Y-8527802D01*
X12819679Y-8456329D01*
X12827000Y-8382000D01*
X12827000Y-7848600D01*
X12887040Y-7848600D01*
X13004814Y-7825174D01*
X13115754Y-7779221D01*
X13215598Y-7712508D01*
X13274437Y-7653669D01*
X13256826Y-7696186D01*
X13233400Y-7813960D01*
X13233400Y-7934040D01*
X13256826Y-8051814D01*
X13302779Y-8162754D01*
X13369492Y-8262598D01*
X13454402Y-8347508D01*
X13554246Y-8414221D01*
X13665186Y-8460174D01*
X13782960Y-8483600D01*
X13903040Y-8483600D01*
X14020814Y-8460174D01*
X14131754Y-8414221D01*
X14231598Y-8347508D01*
X14316508Y-8262598D01*
X14383221Y-8162754D01*
X14429174Y-8051814D01*
X14452600Y-7934040D01*
X14452600Y-7813960D01*
X14429174Y-7696186D01*
X14383221Y-7585246D01*
X14316508Y-7485402D01*
X14231598Y-7400492D01*
X14131754Y-7333779D01*
X14020814Y-7287826D01*
X13903040Y-7264400D01*
X13782960Y-7264400D01*
X13665186Y-7287826D01*
X13554246Y-7333779D01*
X13454402Y-7400492D01*
X13395563Y-7459331D01*
X13413174Y-7416814D01*
X13436600Y-7299040D01*
X13436600Y-7178960D01*
X13413174Y-7061186D01*
X13367221Y-6950246D01*
X13300508Y-6850402D01*
X13215598Y-6765492D01*
X13115754Y-6698779D01*
X13004814Y-6652826D01*
X12887040Y-6629400D01*
X12827000Y-6629400D01*
X12827000Y-6223000D01*
X12819679Y-6148671D01*
X12797998Y-6077198D01*
X12762790Y-6011328D01*
X12715408Y-5953592D01*
X12659274Y-5907525D01*
X12659274Y-5813000D01*
X12651468Y-5733740D01*
X12638885Y-5692260D01*
X13159740Y-5692260D01*
X13159741Y-6328910D01*
%TA.AperFunction,Conductor*%
D30*
G36*
X13159741Y-6328910D02*
G01*
X13157664Y-6350000D01*
X13165951Y-6434149D01*
X13189859Y-6512960D01*
X13190498Y-6515066D01*
X13230357Y-6589638D01*
X13241466Y-6603174D01*
X13270556Y-6638621D01*
X13270562Y-6638627D01*
X13284000Y-6655001D01*
X13300375Y-6668440D01*
X13483552Y-6851616D01*
X13496999Y-6868001D01*
X13562362Y-6921644D01*
X13636934Y-6961503D01*
X13717850Y-6986049D01*
X13780912Y-6992260D01*
X13780921Y-6992260D01*
X13801999Y-6994336D01*
X13823077Y-6992260D01*
X16065500Y-6992260D01*
X16065500Y-8191500D01*
X16072821Y-8265829D01*
X16094502Y-8337302D01*
X16129710Y-8403172D01*
X16177092Y-8460908D01*
X16234828Y-8508290D01*
X16300698Y-8543498D01*
X16372171Y-8565179D01*
X16446500Y-8572500D01*
X18365883Y-8572500D01*
X18368410Y-8585201D01*
X12767318Y-8585201D01*
X12797998Y-8527802D01*
X12819679Y-8456329D01*
X12827000Y-8382000D01*
X12827000Y-7848600D01*
X12887040Y-7848600D01*
X13004814Y-7825174D01*
X13115754Y-7779221D01*
X13215598Y-7712508D01*
X13274437Y-7653669D01*
X13256826Y-7696186D01*
X13233400Y-7813960D01*
X13233400Y-7934040D01*
X13256826Y-8051814D01*
X13302779Y-8162754D01*
X13369492Y-8262598D01*
X13454402Y-8347508D01*
X13554246Y-8414221D01*
X13665186Y-8460174D01*
X13782960Y-8483600D01*
X13903040Y-8483600D01*
X14020814Y-8460174D01*
X14131754Y-8414221D01*
X14231598Y-8347508D01*
X14316508Y-8262598D01*
X14383221Y-8162754D01*
X14429174Y-8051814D01*
X14452600Y-7934040D01*
X14452600Y-7813960D01*
X14429174Y-7696186D01*
X14383221Y-7585246D01*
X14316508Y-7485402D01*
X14231598Y-7400492D01*
X14131754Y-7333779D01*
X14020814Y-7287826D01*
X13903040Y-7264400D01*
X13782960Y-7264400D01*
X13665186Y-7287826D01*
X13554246Y-7333779D01*
X13454402Y-7400492D01*
X13395563Y-7459331D01*
X13413174Y-7416814D01*
X13436600Y-7299040D01*
X13436600Y-7178960D01*
X13413174Y-7061186D01*
X13367221Y-6950246D01*
X13300508Y-6850402D01*
X13215598Y-6765492D01*
X13115754Y-6698779D01*
X13004814Y-6652826D01*
X12887040Y-6629400D01*
X12827000Y-6629400D01*
X12827000Y-6223000D01*
X12819679Y-6148671D01*
X12797998Y-6077198D01*
X12762790Y-6011328D01*
X12715408Y-5953592D01*
X12659274Y-5907525D01*
X12659274Y-5813000D01*
X12651468Y-5733740D01*
X12638885Y-5692260D01*
X13159740Y-5692260D01*
X13159741Y-6328910D01*
G37*
%TD.AperFunction*%
D29*
X17467500Y-5840000D02*
X17487500Y-5840000D01*
X17487500Y-5842000D01*
X17193500Y-5842000D01*
X17193500Y-5840000D01*
X17213500Y-5840000D01*
X17213500Y-5821800D01*
X17367944Y-5821800D01*
X17450044Y-5813714D01*
X17467500Y-5808419D01*
X17467500Y-5840000D01*
%TA.AperFunction,Conductor*%
D30*
G36*
X17467500Y-5840000D02*
G01*
X17487500Y-5840000D01*
X17487500Y-5842000D01*
X17193500Y-5842000D01*
X17193500Y-5840000D01*
X17213500Y-5840000D01*
X17213500Y-5821800D01*
X17367944Y-5821800D01*
X17450044Y-5813714D01*
X17467500Y-5808419D01*
X17467500Y-5840000D01*
G37*
%TD.AperFunction*%
D29*
X19156681Y-3700479D02*
X19156680Y-5660557D01*
X19154604Y-5681638D01*
X19156680Y-5702718D01*
X19156680Y-5702725D01*
X19162891Y-5765787D01*
X19186010Y-5842000D01*
X18459000Y-5842000D01*
X18459000Y-5785998D01*
X18417752Y-5785998D01*
X18459000Y-5744750D01*
X18460843Y-5713000D01*
X18453487Y-5638311D01*
X18431701Y-5566492D01*
X18396322Y-5500304D01*
X18368970Y-5466975D01*
X18376468Y-5442260D01*
X18384274Y-5363000D01*
X18384274Y-5163000D01*
X18384191Y-5162153D01*
X18481960Y-5181600D01*
X18602040Y-5181600D01*
X18719814Y-5158174D01*
X18830754Y-5112221D01*
X18930598Y-5045508D01*
X19015508Y-4960598D01*
X19082221Y-4860754D01*
X19128174Y-4749814D01*
X19151600Y-4632040D01*
X19151600Y-4511960D01*
X19128174Y-4394186D01*
X19082221Y-4283246D01*
X19063014Y-4254500D01*
X19082221Y-4225754D01*
X19128174Y-4114814D01*
X19151600Y-3997040D01*
X19151600Y-3876960D01*
X19128174Y-3759186D01*
X19082221Y-3648246D01*
X19063014Y-3619500D01*
X19068096Y-3611894D01*
X19156681Y-3700479D01*
%TA.AperFunction,Conductor*%
D30*
G36*
X19156681Y-3700479D02*
G01*
X19156680Y-5660557D01*
X19154604Y-5681638D01*
X19156680Y-5702718D01*
X19156680Y-5702725D01*
X19162891Y-5765787D01*
X19186010Y-5842000D01*
X18459000Y-5842000D01*
X18459000Y-5785998D01*
X18417752Y-5785998D01*
X18459000Y-5744750D01*
X18460843Y-5713000D01*
X18453487Y-5638311D01*
X18431701Y-5566492D01*
X18396322Y-5500304D01*
X18368970Y-5466975D01*
X18376468Y-5442260D01*
X18384274Y-5363000D01*
X18384274Y-5163000D01*
X18384191Y-5162153D01*
X18481960Y-5181600D01*
X18602040Y-5181600D01*
X18719814Y-5158174D01*
X18830754Y-5112221D01*
X18930598Y-5045508D01*
X19015508Y-4960598D01*
X19082221Y-4860754D01*
X19128174Y-4749814D01*
X19151600Y-4632040D01*
X19151600Y-4511960D01*
X19128174Y-4394186D01*
X19082221Y-4283246D01*
X19063014Y-4254500D01*
X19082221Y-4225754D01*
X19128174Y-4114814D01*
X19151600Y-3997040D01*
X19151600Y-3876960D01*
X19128174Y-3759186D01*
X19082221Y-3648246D01*
X19063014Y-3619500D01*
X19068096Y-3611894D01*
X19156681Y-3700479D01*
G37*
%TD.AperFunction*%
D29*
X14379471Y-3724336D02*
X14379472Y-4752581D01*
X13930987Y-5201066D01*
X13894001Y-5155999D01*
X13877618Y-5142553D01*
X13709444Y-4974380D01*
X13696001Y-4957999D01*
X13630638Y-4904356D01*
X13556066Y-4864497D01*
X13475150Y-4839951D01*
X13412088Y-4833740D01*
X13412080Y-4833740D01*
X13391000Y-4831664D01*
X13369920Y-4833740D01*
X12733800Y-4833740D01*
X12735843Y-4813000D01*
X12734000Y-4781250D01*
X12638750Y-4686000D01*
X11742500Y-4686000D01*
X11742500Y-4756726D01*
X11488500Y-4756726D01*
X11488500Y-4686000D01*
X11468500Y-4686000D01*
X11468500Y-4540000D01*
X11488500Y-4540000D01*
X11488500Y-4508419D01*
X11505956Y-4513714D01*
X11588056Y-4521800D01*
X11742500Y-4521800D01*
X11742500Y-4540000D01*
X12638750Y-4540000D01*
X12656950Y-4521800D01*
X12899869Y-4521800D01*
X12903186Y-4523174D01*
X13020960Y-4546600D01*
X13141040Y-4546600D01*
X13258814Y-4523174D01*
X13369754Y-4477221D01*
X13469598Y-4410508D01*
X13554508Y-4325598D01*
X13621221Y-4225754D01*
X13667174Y-4114814D01*
X13690600Y-3997040D01*
X13690600Y-3876960D01*
X13667174Y-3759186D01*
X13650694Y-3719400D01*
X14374535Y-3719400D01*
X14379471Y-3724336D01*
%TA.AperFunction,Conductor*%
D30*
G36*
X14379471Y-3724336D02*
G01*
X14379472Y-4752581D01*
X13930987Y-5201066D01*
X13894001Y-5155999D01*
X13877618Y-5142553D01*
X13709444Y-4974380D01*
X13696001Y-4957999D01*
X13630638Y-4904356D01*
X13556066Y-4864497D01*
X13475150Y-4839951D01*
X13412088Y-4833740D01*
X13412080Y-4833740D01*
X13391000Y-4831664D01*
X13369920Y-4833740D01*
X12733800Y-4833740D01*
X12735843Y-4813000D01*
X12734000Y-4781250D01*
X12638750Y-4686000D01*
X11742500Y-4686000D01*
X11742500Y-4756726D01*
X11488500Y-4756726D01*
X11488500Y-4686000D01*
X11468500Y-4686000D01*
X11468500Y-4540000D01*
X11488500Y-4540000D01*
X11488500Y-4508419D01*
X11505956Y-4513714D01*
X11588056Y-4521800D01*
X11742500Y-4521800D01*
X11742500Y-4540000D01*
X12638750Y-4540000D01*
X12656950Y-4521800D01*
X12899869Y-4521800D01*
X12903186Y-4523174D01*
X13020960Y-4546600D01*
X13141040Y-4546600D01*
X13258814Y-4523174D01*
X13369754Y-4477221D01*
X13469598Y-4410508D01*
X13554508Y-4325598D01*
X13621221Y-4225754D01*
X13667174Y-4114814D01*
X13690600Y-3997040D01*
X13690600Y-3876960D01*
X13667174Y-3759186D01*
X13650694Y-3719400D01*
X14374535Y-3719400D01*
X14379471Y-3724336D01*
G37*
%TD.AperFunction*%
D29*
X16220157Y-4413000D02*
X16222000Y-4444750D01*
X16317250Y-4540000D01*
X17213500Y-4540000D01*
X17213500Y-4469274D01*
X17467500Y-4469274D01*
X17467500Y-4540000D01*
X17487500Y-4540000D01*
X17487500Y-4686000D01*
X17467500Y-4686000D01*
X17467500Y-4717581D01*
X17450044Y-4712286D01*
X17367944Y-4704200D01*
X17213500Y-4704200D01*
X17213500Y-4686000D01*
X16317250Y-4686000D01*
X16292057Y-4711193D01*
X16280956Y-4712286D01*
X16175622Y-4744239D01*
X16078546Y-4796127D01*
X15993457Y-4865957D01*
X15975961Y-4887276D01*
X15715833Y-5147405D01*
X15649746Y-5174779D01*
X15630477Y-5187654D01*
X15595849Y-5135829D01*
X15568201Y-5108181D01*
X15568201Y-4522352D01*
X15570186Y-4523174D01*
X15687960Y-4546600D01*
X15808040Y-4546600D01*
X15925814Y-4523174D01*
X16036754Y-4477221D01*
X16136598Y-4410508D01*
X16177706Y-4369400D01*
X16224451Y-4369400D01*
X16220157Y-4413000D01*
%TA.AperFunction,Conductor*%
D30*
G36*
X16220157Y-4413000D02*
G01*
X16222000Y-4444750D01*
X16317250Y-4540000D01*
X17213500Y-4540000D01*
X17213500Y-4469274D01*
X17467500Y-4469274D01*
X17467500Y-4540000D01*
X17487500Y-4540000D01*
X17487500Y-4686000D01*
X17467500Y-4686000D01*
X17467500Y-4717581D01*
X17450044Y-4712286D01*
X17367944Y-4704200D01*
X17213500Y-4704200D01*
X17213500Y-4686000D01*
X16317250Y-4686000D01*
X16292057Y-4711193D01*
X16280956Y-4712286D01*
X16175622Y-4744239D01*
X16078546Y-4796127D01*
X15993457Y-4865957D01*
X15975961Y-4887276D01*
X15715833Y-5147405D01*
X15649746Y-5174779D01*
X15630477Y-5187654D01*
X15595849Y-5135829D01*
X15568201Y-5108181D01*
X15568201Y-4522352D01*
X15570186Y-4523174D01*
X15687960Y-4546600D01*
X15808040Y-4546600D01*
X15925814Y-4523174D01*
X16036754Y-4477221D01*
X16136598Y-4410508D01*
X16177706Y-4369400D01*
X16224451Y-4369400D01*
X16220157Y-4413000D01*
G37*
%TD.AperFunction*%
D29*
X22264250Y-2892000D02*
X23298000Y-2892000D01*
X23298000Y-2804800D01*
X23552000Y-2804800D01*
X23552000Y-2892000D01*
X23572000Y-2892000D01*
X23572000Y-2998000D01*
X23552000Y-2998000D01*
X23552000Y-3410750D01*
X23647250Y-3506000D01*
X23672000Y-3506070D01*
X23672000Y-3603000D01*
X23652000Y-3603000D01*
X23652000Y-3663726D01*
X23398000Y-3663726D01*
X23398000Y-3603000D01*
X22464250Y-3603000D01*
X22426807Y-3640443D01*
X22425276Y-3640292D01*
X22404196Y-3642368D01*
X22349131Y-3642368D01*
X21831763Y-3125000D01*
X22167157Y-3125000D01*
X22174513Y-3199689D01*
X22196299Y-3271508D01*
X22231678Y-3337696D01*
X22279289Y-3395711D01*
X22337304Y-3443322D01*
X22403492Y-3478701D01*
X22475311Y-3500487D01*
X22550000Y-3507843D01*
X23202750Y-3506000D01*
X23261750Y-3447000D01*
X23398000Y-3447000D01*
X23398000Y-3034250D01*
X23302750Y-2939000D01*
X22750000Y-2937157D01*
X22675311Y-2944513D01*
X22603492Y-2966299D01*
X22544185Y-2998000D01*
X22264250Y-2998000D01*
X22169000Y-3093250D01*
X22167157Y-3125000D01*
X21831763Y-3125000D01*
X21511563Y-2804800D01*
X22177050Y-2804800D01*
X22264250Y-2892000D01*
%TA.AperFunction,Conductor*%
D30*
G36*
X22264250Y-2892000D02*
G01*
X23298000Y-2892000D01*
X23298000Y-2804800D01*
X23552000Y-2804800D01*
X23552000Y-2892000D01*
X23572000Y-2892000D01*
X23572000Y-2998000D01*
X23552000Y-2998000D01*
X23552000Y-3410750D01*
X23647250Y-3506000D01*
X23672000Y-3506070D01*
X23672000Y-3603000D01*
X23652000Y-3603000D01*
X23652000Y-3663726D01*
X23398000Y-3663726D01*
X23398000Y-3603000D01*
X22464250Y-3603000D01*
X22426807Y-3640443D01*
X22425276Y-3640292D01*
X22404196Y-3642368D01*
X22349131Y-3642368D01*
X21831763Y-3125000D01*
X22167157Y-3125000D01*
X22174513Y-3199689D01*
X22196299Y-3271508D01*
X22231678Y-3337696D01*
X22279289Y-3395711D01*
X22337304Y-3443322D01*
X22403492Y-3478701D01*
X22475311Y-3500487D01*
X22550000Y-3507843D01*
X23202750Y-3506000D01*
X23261750Y-3447000D01*
X23398000Y-3447000D01*
X23398000Y-3034250D01*
X23302750Y-2939000D01*
X22750000Y-2937157D01*
X22675311Y-2944513D01*
X22603492Y-2966299D01*
X22544185Y-2998000D01*
X22264250Y-2998000D01*
X22169000Y-3093250D01*
X22167157Y-3125000D01*
X21831763Y-3125000D01*
X21511563Y-2804800D01*
X22177050Y-2804800D01*
X22264250Y-2892000D01*
G37*
%TD.AperFunction*%
D29*
X25070200Y-1870200D02*
X21267424Y-1870200D01*
X21250000Y-1868484D01*
X21232576Y-1870200D01*
X21180447Y-1875334D01*
X21113567Y-1895622D01*
X21051930Y-1928568D01*
X20997905Y-1972905D01*
X20953568Y-2026930D01*
X20920622Y-2088567D01*
X20900334Y-2155447D01*
X20896916Y-2190153D01*
X19462082Y-755319D01*
X19448639Y-738939D01*
X19383276Y-685296D01*
X19308704Y-645437D01*
X19227788Y-620891D01*
X19164726Y-614680D01*
X19164718Y-614680D01*
X19143638Y-612604D01*
X19122558Y-614680D01*
X9452443Y-614680D01*
X9431362Y-612604D01*
X9410281Y-614680D01*
X9410274Y-614680D01*
X9347212Y-620891D01*
X9266296Y-645437D01*
X9191724Y-685296D01*
X9142740Y-725496D01*
X9142735Y-725501D01*
X9126361Y-738939D01*
X9112923Y-755313D01*
X6537090Y-3331147D01*
X6528701Y-3303492D01*
X6513471Y-3275000D01*
X6528701Y-3246508D01*
X6550487Y-3174689D01*
X6557843Y-3100000D01*
X6556000Y-2822250D01*
X6460750Y-2727000D01*
X5802000Y-2727000D01*
X5802000Y-3577000D01*
X5822000Y-3577000D01*
X5822000Y-3623000D01*
X5802000Y-3623000D01*
X5802000Y-3643726D01*
X5548000Y-3643726D01*
X5548000Y-3623000D01*
X5536800Y-3623000D01*
X5536800Y-3577000D01*
X5548000Y-3577000D01*
X5548000Y-2727000D01*
X5536800Y-2727000D01*
X5536800Y-2473000D01*
X5548000Y-2473000D01*
X5548000Y-1814250D01*
X5802000Y-1814250D01*
X5802000Y-2473000D01*
X6460750Y-2473000D01*
X6556000Y-2377750D01*
X6557843Y-2100000D01*
X6550487Y-2025311D01*
X6528701Y-1953492D01*
X6493322Y-1887304D01*
X6445711Y-1829289D01*
X6387696Y-1781678D01*
X6321508Y-1746299D01*
X6249689Y-1724513D01*
X6175000Y-1717157D01*
X5897250Y-1719000D01*
X5802000Y-1814250D01*
X5548000Y-1814250D01*
X5513708Y-1779958D01*
X5513169Y-1778181D01*
X5482545Y-1720887D01*
X5441332Y-1670668D01*
X5391113Y-1629455D01*
X5333819Y-1598831D01*
X5271652Y-1579973D01*
X5223193Y-1575200D01*
X5207000Y-1573605D01*
X5190807Y-1575200D01*
X4846883Y-1575200D01*
X4846000Y-1322250D01*
X4750750Y-1227000D01*
X2592000Y-1227000D01*
X2592000Y-1247000D01*
X2338000Y-1247000D01*
X2338000Y-1227000D01*
X2318000Y-1227000D01*
X2318000Y-973000D01*
X2338000Y-973000D01*
X2338000Y-953000D01*
X2592000Y-953000D01*
X2592000Y-973000D01*
X4750750Y-973000D01*
X4846000Y-877750D01*
X4847843Y-350000D01*
X4845854Y-329800D01*
X25070201Y-329800D01*
X25070200Y-1870200D01*
%TA.AperFunction,Conductor*%
D30*
G36*
X25070200Y-1870200D02*
G01*
X21267424Y-1870200D01*
X21250000Y-1868484D01*
X21232576Y-1870200D01*
X21180447Y-1875334D01*
X21113567Y-1895622D01*
X21051930Y-1928568D01*
X20997905Y-1972905D01*
X20953568Y-2026930D01*
X20920622Y-2088567D01*
X20900334Y-2155447D01*
X20896916Y-2190153D01*
X19462082Y-755319D01*
X19448639Y-738939D01*
X19383276Y-685296D01*
X19308704Y-645437D01*
X19227788Y-620891D01*
X19164726Y-614680D01*
X19164718Y-614680D01*
X19143638Y-612604D01*
X19122558Y-614680D01*
X9452443Y-614680D01*
X9431362Y-612604D01*
X9410281Y-614680D01*
X9410274Y-614680D01*
X9347212Y-620891D01*
X9266296Y-645437D01*
X9191724Y-685296D01*
X9142740Y-725496D01*
X9142735Y-725501D01*
X9126361Y-738939D01*
X9112923Y-755313D01*
X6537090Y-3331147D01*
X6528701Y-3303492D01*
X6513471Y-3275000D01*
X6528701Y-3246508D01*
X6550487Y-3174689D01*
X6557843Y-3100000D01*
X6556000Y-2822250D01*
X6460750Y-2727000D01*
X5802000Y-2727000D01*
X5802000Y-3577000D01*
X5822000Y-3577000D01*
X5822000Y-3623000D01*
X5802000Y-3623000D01*
X5802000Y-3643726D01*
X5548000Y-3643726D01*
X5548000Y-3623000D01*
X5536800Y-3623000D01*
X5536800Y-3577000D01*
X5548000Y-3577000D01*
X5548000Y-2727000D01*
X5536800Y-2727000D01*
X5536800Y-2473000D01*
X5548000Y-2473000D01*
X5548000Y-1814250D01*
X5802000Y-1814250D01*
X5802000Y-2473000D01*
X6460750Y-2473000D01*
X6556000Y-2377750D01*
X6557843Y-2100000D01*
X6550487Y-2025311D01*
X6528701Y-1953492D01*
X6493322Y-1887304D01*
X6445711Y-1829289D01*
X6387696Y-1781678D01*
X6321508Y-1746299D01*
X6249689Y-1724513D01*
X6175000Y-1717157D01*
X5897250Y-1719000D01*
X5802000Y-1814250D01*
X5548000Y-1814250D01*
X5513708Y-1779958D01*
X5513169Y-1778181D01*
X5482545Y-1720887D01*
X5441332Y-1670668D01*
X5391113Y-1629455D01*
X5333819Y-1598831D01*
X5271652Y-1579973D01*
X5223193Y-1575200D01*
X5207000Y-1573605D01*
X5190807Y-1575200D01*
X4846883Y-1575200D01*
X4846000Y-1322250D01*
X4750750Y-1227000D01*
X2592000Y-1227000D01*
X2592000Y-1247000D01*
X2338000Y-1247000D01*
X2338000Y-1227000D01*
X2318000Y-1227000D01*
X2318000Y-973000D01*
X2338000Y-973000D01*
X2338000Y-953000D01*
X2592000Y-953000D01*
X2592000Y-973000D01*
X4750750Y-973000D01*
X4846000Y-877750D01*
X4847843Y-350000D01*
X4845854Y-329800D01*
X25070201Y-329800D01*
X25070200Y-1870200D01*
G37*
%TD.AperFunction*%
%TD*%
D29*
%TO.N,/CC2_RECEP*%
X10113215Y-6404729D02*
X10228777Y-6452597D01*
X10351458Y-6477000D01*
X10476542Y-6477000D01*
X10599223Y-6452597D01*
X10703550Y-6409383D01*
X10709747Y-6414469D01*
X10793224Y-6459089D01*
X10883802Y-6486565D01*
X10978000Y-6495843D01*
X12253000Y-6495843D01*
X12259315Y-6495221D01*
X12279903Y-6598723D01*
X12319000Y-6693110D01*
X12319000Y-6777133D01*
X12294305Y-6801828D01*
X12219252Y-6914152D01*
X12167555Y-7038960D01*
X12141200Y-7171455D01*
X12141200Y-7306545D01*
X12167555Y-7439040D01*
X12219252Y-7563848D01*
X12294305Y-7676172D01*
X12319000Y-7700867D01*
X12319000Y-8255000D01*
X11758108Y-8255000D01*
X11738729Y-8208215D01*
X11669236Y-8104211D01*
X11580789Y-8015764D01*
X11476785Y-7946271D01*
X11361223Y-7898403D01*
X11238542Y-7874000D01*
X11113458Y-7874000D01*
X10990777Y-7898403D01*
X10875215Y-7946271D01*
X10771211Y-8015764D01*
X10682764Y-8104211D01*
X10613271Y-8208215D01*
X10593892Y-8255000D01*
X10033000Y-8255000D01*
X10033000Y-6351131D01*
X10113215Y-6404729D01*
%TA.AperFunction,Conductor*%
D30*
G36*
X10113215Y-6404729D02*
G01*
X10228777Y-6452597D01*
X10351458Y-6477000D01*
X10476542Y-6477000D01*
X10599223Y-6452597D01*
X10703550Y-6409383D01*
X10709747Y-6414469D01*
X10793224Y-6459089D01*
X10883802Y-6486565D01*
X10978000Y-6495843D01*
X12253000Y-6495843D01*
X12259315Y-6495221D01*
X12279903Y-6598723D01*
X12319000Y-6693110D01*
X12319000Y-6777133D01*
X12294305Y-6801828D01*
X12219252Y-6914152D01*
X12167555Y-7038960D01*
X12141200Y-7171455D01*
X12141200Y-7306545D01*
X12167555Y-7439040D01*
X12219252Y-7563848D01*
X12294305Y-7676172D01*
X12319000Y-7700867D01*
X12319000Y-8255000D01*
X11758108Y-8255000D01*
X11738729Y-8208215D01*
X11669236Y-8104211D01*
X11580789Y-8015764D01*
X11476785Y-7946271D01*
X11361223Y-7898403D01*
X11238542Y-7874000D01*
X11113458Y-7874000D01*
X10990777Y-7898403D01*
X10875215Y-7946271D01*
X10771211Y-8015764D01*
X10682764Y-8104211D01*
X10613271Y-8208215D01*
X10593892Y-8255000D01*
X10033000Y-8255000D01*
X10033000Y-6351131D01*
X10113215Y-6404729D01*
G37*
%TD.AperFunction*%
%TD*%
D29*
%TO.N,/VBUS_PLUG*%
X21703286Y-4778207D02*
X21715135Y-4792645D01*
X21729573Y-4804494D01*
X21729575Y-4804496D01*
X21772762Y-4839939D01*
X21795514Y-4852100D01*
X21838510Y-4875082D01*
X21909850Y-4896723D01*
X21965450Y-4902199D01*
X21965460Y-4902199D01*
X21984041Y-4904029D01*
X22002622Y-4902199D01*
X22134161Y-4902199D01*
X22144243Y-4910473D01*
X22151221Y-4916200D01*
X22216968Y-4951343D01*
X22288308Y-4972984D01*
X22343908Y-4978460D01*
X22343917Y-4978460D01*
X22362498Y-4980290D01*
X22381079Y-4978460D01*
X22622441Y-4978460D01*
X22623000Y-5065250D01*
X22654750Y-5097000D01*
X22860000Y-5097000D01*
X22860000Y-5103000D01*
X22654750Y-5103000D01*
X22623000Y-5134750D01*
X22622386Y-5230000D01*
X22623804Y-5244400D01*
X22264285Y-5244400D01*
X22253232Y-5242910D01*
X22229362Y-5244400D01*
X22222971Y-5244400D01*
X22211911Y-5245489D01*
X22183321Y-5247274D01*
X22177114Y-5248917D01*
X22170724Y-5249546D01*
X22143302Y-5257864D01*
X22115604Y-5265194D01*
X22109838Y-5268015D01*
X22103694Y-5269879D01*
X22078420Y-5283388D01*
X22052686Y-5295980D01*
X22047581Y-5299872D01*
X22041918Y-5302899D01*
X22019771Y-5321075D01*
X22010937Y-5327810D01*
X22006261Y-5332162D01*
X22004021Y-5334000D01*
X21985465Y-5334000D01*
X20447000Y-4978970D01*
X20447000Y-4572000D01*
X21497079Y-4572000D01*
X21703286Y-4778207D01*
%TA.AperFunction,Conductor*%
D30*
G36*
X21703286Y-4778207D02*
G01*
X21715135Y-4792645D01*
X21729573Y-4804494D01*
X21729575Y-4804496D01*
X21772762Y-4839939D01*
X21795514Y-4852100D01*
X21838510Y-4875082D01*
X21909850Y-4896723D01*
X21965450Y-4902199D01*
X21965460Y-4902199D01*
X21984041Y-4904029D01*
X22002622Y-4902199D01*
X22134161Y-4902199D01*
X22144243Y-4910473D01*
X22151221Y-4916200D01*
X22216968Y-4951343D01*
X22288308Y-4972984D01*
X22343908Y-4978460D01*
X22343917Y-4978460D01*
X22362498Y-4980290D01*
X22381079Y-4978460D01*
X22622441Y-4978460D01*
X22623000Y-5065250D01*
X22654750Y-5097000D01*
X22860000Y-5097000D01*
X22860000Y-5103000D01*
X22654750Y-5103000D01*
X22623000Y-5134750D01*
X22622386Y-5230000D01*
X22623804Y-5244400D01*
X22264285Y-5244400D01*
X22253232Y-5242910D01*
X22229362Y-5244400D01*
X22222971Y-5244400D01*
X22211911Y-5245489D01*
X22183321Y-5247274D01*
X22177114Y-5248917D01*
X22170724Y-5249546D01*
X22143302Y-5257864D01*
X22115604Y-5265194D01*
X22109838Y-5268015D01*
X22103694Y-5269879D01*
X22078420Y-5283388D01*
X22052686Y-5295980D01*
X22047581Y-5299872D01*
X22041918Y-5302899D01*
X22019771Y-5321075D01*
X22010937Y-5327810D01*
X22006261Y-5332162D01*
X22004021Y-5334000D01*
X21985465Y-5334000D01*
X20447000Y-4978970D01*
X20447000Y-4572000D01*
X21497079Y-4572000D01*
X21703286Y-4778207D01*
G37*
%TD.AperFunction*%
%TD*%
D29*
%TO.N,/VBUS_PLUG*%
X22260159Y-7778836D02*
X22206083Y-7807740D01*
X22162895Y-7843183D01*
X22162888Y-7843190D01*
X22148456Y-7855034D01*
X22136612Y-7869467D01*
X21624080Y-8382000D01*
X20637500Y-8382000D01*
X20496143Y-8193525D01*
X20497720Y-8190575D01*
X20518053Y-8123545D01*
X20523199Y-8071298D01*
X20523199Y-8071289D01*
X20524918Y-8053836D01*
X20523199Y-8036383D01*
X20523199Y-7868453D01*
X20537237Y-7842190D01*
X20552240Y-7792730D01*
X22136415Y-7792730D01*
X22153870Y-7794449D01*
X22171325Y-7792730D01*
X22171333Y-7792730D01*
X22223580Y-7787584D01*
X22270315Y-7773407D01*
X22260159Y-7778836D01*
%TA.AperFunction,Conductor*%
D30*
G36*
X22260159Y-7778836D02*
G01*
X22206083Y-7807740D01*
X22162895Y-7843183D01*
X22162888Y-7843190D01*
X22148456Y-7855034D01*
X22136612Y-7869467D01*
X21624080Y-8382000D01*
X20637500Y-8382000D01*
X20496143Y-8193525D01*
X20497720Y-8190575D01*
X20518053Y-8123545D01*
X20523199Y-8071298D01*
X20523199Y-8071289D01*
X20524918Y-8053836D01*
X20523199Y-8036383D01*
X20523199Y-7868453D01*
X20537237Y-7842190D01*
X20552240Y-7792730D01*
X22136415Y-7792730D01*
X22153870Y-7794449D01*
X22171325Y-7792730D01*
X22171333Y-7792730D01*
X22223580Y-7787584D01*
X22270315Y-7773407D01*
X22260159Y-7778836D01*
G37*
%TD.AperFunction*%
D29*
X22623000Y-7565250D02*
X22654750Y-7597000D01*
X22860000Y-7597000D01*
X22860000Y-7603000D01*
X22654750Y-7603000D01*
X22623000Y-7634750D01*
X22622386Y-7730000D01*
X22623911Y-7745480D01*
X22435939Y-7745480D01*
X22417361Y-7743650D01*
X22398783Y-7745480D01*
X22398771Y-7745480D01*
X22343171Y-7750956D01*
X22292127Y-7766440D01*
X22352386Y-7734231D01*
X22406533Y-7689793D01*
X22417669Y-7676225D01*
X22600894Y-7493000D01*
X22622535Y-7493000D01*
X22623000Y-7565250D01*
%TA.AperFunction,Conductor*%
D30*
G36*
X22623000Y-7565250D02*
G01*
X22654750Y-7597000D01*
X22860000Y-7597000D01*
X22860000Y-7603000D01*
X22654750Y-7603000D01*
X22623000Y-7634750D01*
X22622386Y-7730000D01*
X22623911Y-7745480D01*
X22435939Y-7745480D01*
X22417361Y-7743650D01*
X22398783Y-7745480D01*
X22398771Y-7745480D01*
X22343171Y-7750956D01*
X22292127Y-7766440D01*
X22352386Y-7734231D01*
X22406533Y-7689793D01*
X22417669Y-7676225D01*
X22600894Y-7493000D01*
X22622535Y-7493000D01*
X22623000Y-7565250D01*
G37*
%TD.AperFunction*%
%TD*%
D29*
%TO.N,/CC2_PLUG*%
X19812000Y-6622526D02*
X19812000Y-7326608D01*
X19803907Y-7336469D01*
X19759094Y-7420307D01*
X19731499Y-7511278D01*
X19728383Y-7542917D01*
X19719577Y-7559391D01*
X19712665Y-7582178D01*
X19691982Y-7650361D01*
X19686016Y-7710935D01*
X19682664Y-7744967D01*
X19684999Y-7768672D01*
X19684999Y-7853936D01*
X19474435Y-8064500D01*
X19376525Y-8064500D01*
X19327789Y-8015764D01*
X19223785Y-7946271D01*
X19108223Y-7898403D01*
X18985542Y-7874000D01*
X18860458Y-7874000D01*
X18737777Y-7898403D01*
X18622215Y-7946271D01*
X18518211Y-8015764D01*
X18469475Y-8064500D01*
X16573500Y-8064500D01*
X16573500Y-6475856D01*
X16608802Y-6486565D01*
X16703000Y-6495843D01*
X17083862Y-6495843D01*
X17096320Y-6502502D01*
X17216018Y-6538812D01*
X17309308Y-6548000D01*
X18249319Y-6548000D01*
X18280500Y-6551071D01*
X18311681Y-6548000D01*
X18311692Y-6548000D01*
X18404982Y-6538812D01*
X18524680Y-6502502D01*
X18634994Y-6443537D01*
X18731685Y-6364185D01*
X18743326Y-6350000D01*
X19539474Y-6350000D01*
X19812000Y-6622526D01*
%TA.AperFunction,Conductor*%
D30*
G36*
X19812000Y-6622526D02*
G01*
X19812000Y-7326608D01*
X19803907Y-7336469D01*
X19759094Y-7420307D01*
X19731499Y-7511278D01*
X19728383Y-7542917D01*
X19719577Y-7559391D01*
X19712665Y-7582178D01*
X19691982Y-7650361D01*
X19686016Y-7710935D01*
X19682664Y-7744967D01*
X19684999Y-7768672D01*
X19684999Y-7853936D01*
X19474435Y-8064500D01*
X19376525Y-8064500D01*
X19327789Y-8015764D01*
X19223785Y-7946271D01*
X19108223Y-7898403D01*
X18985542Y-7874000D01*
X18860458Y-7874000D01*
X18737777Y-7898403D01*
X18622215Y-7946271D01*
X18518211Y-8015764D01*
X18469475Y-8064500D01*
X16573500Y-8064500D01*
X16573500Y-6475856D01*
X16608802Y-6486565D01*
X16703000Y-6495843D01*
X17083862Y-6495843D01*
X17096320Y-6502502D01*
X17216018Y-6538812D01*
X17309308Y-6548000D01*
X18249319Y-6548000D01*
X18280500Y-6551071D01*
X18311681Y-6548000D01*
X18311692Y-6548000D01*
X18404982Y-6538812D01*
X18524680Y-6502502D01*
X18634994Y-6443537D01*
X18731685Y-6364185D01*
X18743326Y-6350000D01*
X19539474Y-6350000D01*
X19812000Y-6622526D01*
G37*
%TD.AperFunction*%
%TD*%
M02*
