%TF.GenerationSoftware,KiCad,Pcbnew,(5.1.7)-1*%
%TF.CreationDate,2021-02-13T17:52:44+01:00*%
%TF.ProjectId,twonkie,74776f6e-6b69-4652-9e6b-696361645f70,rev?*%
%TF.SameCoordinates,PX448d510PY20b3950*%
%TF.FileFunction,Soldermask,Bot*%
%TF.FilePolarity,Negative*%
%FSLAX46Y46*%
G04 Gerber Fmt 4.6, Leading zero omitted, Abs format (unit mm)*
G04 Created by KiCad (PCBNEW (5.1.7)-1) date 2021-02-13 17:52:44*
%MOMM*%
%LPD*%
G01*
G04 APERTURE LIST*
%ADD10C,0.002540*%
%ADD11O,2.601600X1.401600*%
%ADD12O,1.551600X2.101600*%
%ADD13O,1.251600X1.901600*%
%ADD14O,0.901600X0.901600*%
%ADD15C,1.101600*%
%ADD16C,0.801600*%
G04 APERTURE END LIST*
D10*
%TO.C,G\u002A\u002A\u002A*%
G36*
X3091180Y-17320260D02*
G01*
X3073400Y-17310100D01*
X3032760Y-17284700D01*
X2974340Y-17246600D01*
X2905760Y-17198340D01*
X2834640Y-17152620D01*
X2778760Y-17114520D01*
X2738120Y-17089120D01*
X2722880Y-17078960D01*
X2712720Y-17081500D01*
X2679700Y-17099280D01*
X2631440Y-17122140D01*
X2606040Y-17137380D01*
X2560320Y-17157700D01*
X2540000Y-17160240D01*
X2534920Y-17155160D01*
X2519680Y-17119600D01*
X2494280Y-17063720D01*
X2461260Y-16987520D01*
X2423160Y-16898620D01*
X2382520Y-16802100D01*
X2341880Y-16705580D01*
X2303780Y-16611600D01*
X2268220Y-16527780D01*
X2242820Y-16459200D01*
X2222500Y-16413480D01*
X2217420Y-16393160D01*
X2219960Y-16388080D01*
X2240280Y-16367760D01*
X2278380Y-16337280D01*
X2362200Y-16271240D01*
X2443480Y-16169640D01*
X2494280Y-16052800D01*
X2509520Y-15923260D01*
X2496820Y-15803880D01*
X2448560Y-15692120D01*
X2369820Y-15587980D01*
X2273300Y-15511780D01*
X2159000Y-15463520D01*
X2032000Y-15448280D01*
X1910080Y-15460980D01*
X1793240Y-15506700D01*
X1691640Y-15585440D01*
X1645920Y-15636240D01*
X1587500Y-15740380D01*
X1551940Y-15852140D01*
X1549400Y-15880080D01*
X1554480Y-16002000D01*
X1590040Y-16121380D01*
X1656080Y-16225520D01*
X1744980Y-16311880D01*
X1757680Y-16319500D01*
X1798320Y-16352520D01*
X1826260Y-16372840D01*
X1849120Y-16390620D01*
X1691640Y-16766540D01*
X1666240Y-16827500D01*
X1623060Y-16931640D01*
X1584960Y-17020540D01*
X1557020Y-17089120D01*
X1534160Y-17137380D01*
X1526540Y-17155160D01*
X1524000Y-17157700D01*
X1511300Y-17160240D01*
X1483360Y-17150080D01*
X1430020Y-17124680D01*
X1394460Y-17106900D01*
X1353820Y-17086580D01*
X1336040Y-17078960D01*
X1320800Y-17086580D01*
X1282700Y-17111980D01*
X1226820Y-17150080D01*
X1160780Y-17195800D01*
X1094740Y-17238980D01*
X1036320Y-17277080D01*
X993140Y-17305020D01*
X972820Y-17317720D01*
X970280Y-17317720D01*
X949960Y-17307560D01*
X916940Y-17277080D01*
X866140Y-17228820D01*
X792480Y-17157700D01*
X782320Y-17147540D01*
X721360Y-17086580D01*
X673100Y-17035780D01*
X642620Y-17000220D01*
X629920Y-16982440D01*
X640080Y-16962120D01*
X668020Y-16918940D01*
X706120Y-16860520D01*
X754380Y-16789400D01*
X878840Y-16609060D01*
X810260Y-16436340D01*
X789940Y-16385540D01*
X762000Y-16322040D01*
X744220Y-16276320D01*
X734060Y-16256000D01*
X713740Y-16248380D01*
X668020Y-16238220D01*
X599440Y-16225520D01*
X518160Y-16210280D01*
X441960Y-16195040D01*
X370840Y-16182340D01*
X322580Y-16172180D01*
X299720Y-16167100D01*
X294640Y-16164560D01*
X289560Y-16154400D01*
X287020Y-16129000D01*
X284480Y-16088360D01*
X284480Y-16019780D01*
X284480Y-15923260D01*
X284480Y-15913100D01*
X284480Y-15821660D01*
X287020Y-15748000D01*
X289560Y-15702280D01*
X292100Y-15681960D01*
X312420Y-15676880D01*
X363220Y-15666720D01*
X431800Y-15654020D01*
X515620Y-15638780D01*
X520700Y-15636240D01*
X604520Y-15621000D01*
X673100Y-15605760D01*
X721360Y-15595600D01*
X741680Y-15587980D01*
X746760Y-15582900D01*
X762000Y-15549880D01*
X787400Y-15499080D01*
X812800Y-15435580D01*
X840740Y-15372080D01*
X863600Y-15313660D01*
X878840Y-15270480D01*
X883920Y-15250160D01*
X871220Y-15229840D01*
X843280Y-15186660D01*
X802640Y-15128240D01*
X754380Y-15057120D01*
X751840Y-15052040D01*
X703580Y-14980920D01*
X665480Y-14922500D01*
X640080Y-14879320D01*
X629920Y-14861540D01*
X629920Y-14859000D01*
X645160Y-14838680D01*
X680720Y-14798040D01*
X731520Y-14744700D01*
X795020Y-14683740D01*
X812800Y-14665960D01*
X881380Y-14597380D01*
X929640Y-14554200D01*
X957580Y-14531340D01*
X972820Y-14526260D01*
X993140Y-14538960D01*
X1038860Y-14569440D01*
X1097280Y-14610080D01*
X1168400Y-14658340D01*
X1173480Y-14660880D01*
X1244600Y-14709140D01*
X1303020Y-14747240D01*
X1343660Y-14775180D01*
X1361440Y-14785340D01*
X1363980Y-14785340D01*
X1391920Y-14777720D01*
X1442720Y-14759940D01*
X1503680Y-14737080D01*
X1569720Y-14711680D01*
X1628140Y-14686280D01*
X1671320Y-14665960D01*
X1691640Y-14653260D01*
X1694180Y-14653260D01*
X1699260Y-14627860D01*
X1711960Y-14574520D01*
X1727200Y-14503400D01*
X1742440Y-14417040D01*
X1744980Y-14404340D01*
X1762760Y-14320520D01*
X1775460Y-14251940D01*
X1785620Y-14203680D01*
X1790700Y-14183360D01*
X1800860Y-14180820D01*
X1841500Y-14178280D01*
X1905000Y-14178280D01*
X1981200Y-14175740D01*
X2057400Y-14175740D01*
X2136140Y-14178280D01*
X2202180Y-14180820D01*
X2247900Y-14183360D01*
X2268220Y-14188440D01*
X2275840Y-14213840D01*
X2288540Y-14267180D01*
X2301240Y-14340840D01*
X2319020Y-14424660D01*
X2321560Y-14439900D01*
X2336800Y-14523720D01*
X2352040Y-14592300D01*
X2362200Y-14638020D01*
X2367280Y-14658340D01*
X2374900Y-14660880D01*
X2407920Y-14676120D01*
X2463800Y-14698980D01*
X2532380Y-14726920D01*
X2692400Y-14792960D01*
X2890520Y-14658340D01*
X2908300Y-14645640D01*
X2979420Y-14597380D01*
X3035300Y-14559280D01*
X3075940Y-14533880D01*
X3093720Y-14523720D01*
X3114040Y-14541500D01*
X3154680Y-14577060D01*
X3205480Y-14630400D01*
X3268980Y-14691360D01*
X3314700Y-14737080D01*
X3368040Y-14792960D01*
X3403600Y-14828520D01*
X3421380Y-14853920D01*
X3429000Y-14866620D01*
X3426460Y-14876780D01*
X3413760Y-14897100D01*
X3385820Y-14940280D01*
X3345180Y-14998700D01*
X3296920Y-15069820D01*
X3256280Y-15128240D01*
X3215640Y-15194280D01*
X3187700Y-15240000D01*
X3177540Y-15262860D01*
X3180080Y-15273020D01*
X3192780Y-15311120D01*
X3215640Y-15369540D01*
X3246120Y-15438120D01*
X3314700Y-15593060D01*
X3416300Y-15613380D01*
X3477260Y-15626080D01*
X3563620Y-15641320D01*
X3647440Y-15659100D01*
X3776980Y-15681960D01*
X3782060Y-16154400D01*
X3761740Y-16164560D01*
X3741420Y-16169640D01*
X3693160Y-16179800D01*
X3624580Y-16192500D01*
X3545840Y-16207740D01*
X3477260Y-16220440D01*
X3408680Y-16235680D01*
X3357880Y-16243300D01*
X3335020Y-16248380D01*
X3329940Y-16256000D01*
X3312160Y-16289020D01*
X3289300Y-16342360D01*
X3261360Y-16405860D01*
X3233420Y-16474440D01*
X3208020Y-16535400D01*
X3192780Y-16581120D01*
X3185160Y-16606520D01*
X3195320Y-16624300D01*
X3220720Y-16664940D01*
X3258820Y-16723360D01*
X3307080Y-16791940D01*
X3352800Y-16860520D01*
X3393440Y-16918940D01*
X3421380Y-16959580D01*
X3431540Y-16979900D01*
X3426460Y-16992600D01*
X3398520Y-17025620D01*
X3347720Y-17078960D01*
X3268980Y-17155160D01*
X3256280Y-17167860D01*
X3195320Y-17226280D01*
X3144520Y-17274540D01*
X3108960Y-17307560D01*
X3091180Y-17320260D01*
G37*
X3091180Y-17320260D02*
X3073400Y-17310100D01*
X3032760Y-17284700D01*
X2974340Y-17246600D01*
X2905760Y-17198340D01*
X2834640Y-17152620D01*
X2778760Y-17114520D01*
X2738120Y-17089120D01*
X2722880Y-17078960D01*
X2712720Y-17081500D01*
X2679700Y-17099280D01*
X2631440Y-17122140D01*
X2606040Y-17137380D01*
X2560320Y-17157700D01*
X2540000Y-17160240D01*
X2534920Y-17155160D01*
X2519680Y-17119600D01*
X2494280Y-17063720D01*
X2461260Y-16987520D01*
X2423160Y-16898620D01*
X2382520Y-16802100D01*
X2341880Y-16705580D01*
X2303780Y-16611600D01*
X2268220Y-16527780D01*
X2242820Y-16459200D01*
X2222500Y-16413480D01*
X2217420Y-16393160D01*
X2219960Y-16388080D01*
X2240280Y-16367760D01*
X2278380Y-16337280D01*
X2362200Y-16271240D01*
X2443480Y-16169640D01*
X2494280Y-16052800D01*
X2509520Y-15923260D01*
X2496820Y-15803880D01*
X2448560Y-15692120D01*
X2369820Y-15587980D01*
X2273300Y-15511780D01*
X2159000Y-15463520D01*
X2032000Y-15448280D01*
X1910080Y-15460980D01*
X1793240Y-15506700D01*
X1691640Y-15585440D01*
X1645920Y-15636240D01*
X1587500Y-15740380D01*
X1551940Y-15852140D01*
X1549400Y-15880080D01*
X1554480Y-16002000D01*
X1590040Y-16121380D01*
X1656080Y-16225520D01*
X1744980Y-16311880D01*
X1757680Y-16319500D01*
X1798320Y-16352520D01*
X1826260Y-16372840D01*
X1849120Y-16390620D01*
X1691640Y-16766540D01*
X1666240Y-16827500D01*
X1623060Y-16931640D01*
X1584960Y-17020540D01*
X1557020Y-17089120D01*
X1534160Y-17137380D01*
X1526540Y-17155160D01*
X1524000Y-17157700D01*
X1511300Y-17160240D01*
X1483360Y-17150080D01*
X1430020Y-17124680D01*
X1394460Y-17106900D01*
X1353820Y-17086580D01*
X1336040Y-17078960D01*
X1320800Y-17086580D01*
X1282700Y-17111980D01*
X1226820Y-17150080D01*
X1160780Y-17195800D01*
X1094740Y-17238980D01*
X1036320Y-17277080D01*
X993140Y-17305020D01*
X972820Y-17317720D01*
X970280Y-17317720D01*
X949960Y-17307560D01*
X916940Y-17277080D01*
X866140Y-17228820D01*
X792480Y-17157700D01*
X782320Y-17147540D01*
X721360Y-17086580D01*
X673100Y-17035780D01*
X642620Y-17000220D01*
X629920Y-16982440D01*
X640080Y-16962120D01*
X668020Y-16918940D01*
X706120Y-16860520D01*
X754380Y-16789400D01*
X878840Y-16609060D01*
X810260Y-16436340D01*
X789940Y-16385540D01*
X762000Y-16322040D01*
X744220Y-16276320D01*
X734060Y-16256000D01*
X713740Y-16248380D01*
X668020Y-16238220D01*
X599440Y-16225520D01*
X518160Y-16210280D01*
X441960Y-16195040D01*
X370840Y-16182340D01*
X322580Y-16172180D01*
X299720Y-16167100D01*
X294640Y-16164560D01*
X289560Y-16154400D01*
X287020Y-16129000D01*
X284480Y-16088360D01*
X284480Y-16019780D01*
X284480Y-15923260D01*
X284480Y-15913100D01*
X284480Y-15821660D01*
X287020Y-15748000D01*
X289560Y-15702280D01*
X292100Y-15681960D01*
X312420Y-15676880D01*
X363220Y-15666720D01*
X431800Y-15654020D01*
X515620Y-15638780D01*
X520700Y-15636240D01*
X604520Y-15621000D01*
X673100Y-15605760D01*
X721360Y-15595600D01*
X741680Y-15587980D01*
X746760Y-15582900D01*
X762000Y-15549880D01*
X787400Y-15499080D01*
X812800Y-15435580D01*
X840740Y-15372080D01*
X863600Y-15313660D01*
X878840Y-15270480D01*
X883920Y-15250160D01*
X871220Y-15229840D01*
X843280Y-15186660D01*
X802640Y-15128240D01*
X754380Y-15057120D01*
X751840Y-15052040D01*
X703580Y-14980920D01*
X665480Y-14922500D01*
X640080Y-14879320D01*
X629920Y-14861540D01*
X629920Y-14859000D01*
X645160Y-14838680D01*
X680720Y-14798040D01*
X731520Y-14744700D01*
X795020Y-14683740D01*
X812800Y-14665960D01*
X881380Y-14597380D01*
X929640Y-14554200D01*
X957580Y-14531340D01*
X972820Y-14526260D01*
X993140Y-14538960D01*
X1038860Y-14569440D01*
X1097280Y-14610080D01*
X1168400Y-14658340D01*
X1173480Y-14660880D01*
X1244600Y-14709140D01*
X1303020Y-14747240D01*
X1343660Y-14775180D01*
X1361440Y-14785340D01*
X1363980Y-14785340D01*
X1391920Y-14777720D01*
X1442720Y-14759940D01*
X1503680Y-14737080D01*
X1569720Y-14711680D01*
X1628140Y-14686280D01*
X1671320Y-14665960D01*
X1691640Y-14653260D01*
X1694180Y-14653260D01*
X1699260Y-14627860D01*
X1711960Y-14574520D01*
X1727200Y-14503400D01*
X1742440Y-14417040D01*
X1744980Y-14404340D01*
X1762760Y-14320520D01*
X1775460Y-14251940D01*
X1785620Y-14203680D01*
X1790700Y-14183360D01*
X1800860Y-14180820D01*
X1841500Y-14178280D01*
X1905000Y-14178280D01*
X1981200Y-14175740D01*
X2057400Y-14175740D01*
X2136140Y-14178280D01*
X2202180Y-14180820D01*
X2247900Y-14183360D01*
X2268220Y-14188440D01*
X2275840Y-14213840D01*
X2288540Y-14267180D01*
X2301240Y-14340840D01*
X2319020Y-14424660D01*
X2321560Y-14439900D01*
X2336800Y-14523720D01*
X2352040Y-14592300D01*
X2362200Y-14638020D01*
X2367280Y-14658340D01*
X2374900Y-14660880D01*
X2407920Y-14676120D01*
X2463800Y-14698980D01*
X2532380Y-14726920D01*
X2692400Y-14792960D01*
X2890520Y-14658340D01*
X2908300Y-14645640D01*
X2979420Y-14597380D01*
X3035300Y-14559280D01*
X3075940Y-14533880D01*
X3093720Y-14523720D01*
X3114040Y-14541500D01*
X3154680Y-14577060D01*
X3205480Y-14630400D01*
X3268980Y-14691360D01*
X3314700Y-14737080D01*
X3368040Y-14792960D01*
X3403600Y-14828520D01*
X3421380Y-14853920D01*
X3429000Y-14866620D01*
X3426460Y-14876780D01*
X3413760Y-14897100D01*
X3385820Y-14940280D01*
X3345180Y-14998700D01*
X3296920Y-15069820D01*
X3256280Y-15128240D01*
X3215640Y-15194280D01*
X3187700Y-15240000D01*
X3177540Y-15262860D01*
X3180080Y-15273020D01*
X3192780Y-15311120D01*
X3215640Y-15369540D01*
X3246120Y-15438120D01*
X3314700Y-15593060D01*
X3416300Y-15613380D01*
X3477260Y-15626080D01*
X3563620Y-15641320D01*
X3647440Y-15659100D01*
X3776980Y-15681960D01*
X3782060Y-16154400D01*
X3761740Y-16164560D01*
X3741420Y-16169640D01*
X3693160Y-16179800D01*
X3624580Y-16192500D01*
X3545840Y-16207740D01*
X3477260Y-16220440D01*
X3408680Y-16235680D01*
X3357880Y-16243300D01*
X3335020Y-16248380D01*
X3329940Y-16256000D01*
X3312160Y-16289020D01*
X3289300Y-16342360D01*
X3261360Y-16405860D01*
X3233420Y-16474440D01*
X3208020Y-16535400D01*
X3192780Y-16581120D01*
X3185160Y-16606520D01*
X3195320Y-16624300D01*
X3220720Y-16664940D01*
X3258820Y-16723360D01*
X3307080Y-16791940D01*
X3352800Y-16860520D01*
X3393440Y-16918940D01*
X3421380Y-16959580D01*
X3431540Y-16979900D01*
X3426460Y-16992600D01*
X3398520Y-17025620D01*
X3347720Y-17078960D01*
X3268980Y-17155160D01*
X3256280Y-17167860D01*
X3195320Y-17226280D01*
X3144520Y-17274540D01*
X3108960Y-17307560D01*
X3091180Y-17320260D01*
%TD*%
%TO.C,C8*%
G36*
G01*
X11440100Y-22818700D02*
X11800900Y-22818700D01*
G75*
G02*
X11981300Y-22999100I0J-180400D01*
G01*
X11981300Y-23474900D01*
G75*
G02*
X11800900Y-23655300I-180400J0D01*
G01*
X11440100Y-23655300D01*
G75*
G02*
X11259700Y-23474900I0J180400D01*
G01*
X11259700Y-22999100D01*
G75*
G02*
X11440100Y-22818700I180400J0D01*
G01*
G37*
G36*
G01*
X11440100Y-21683700D02*
X11800900Y-21683700D01*
G75*
G02*
X11981300Y-21864100I0J-180400D01*
G01*
X11981300Y-22339900D01*
G75*
G02*
X11800900Y-22520300I-180400J0D01*
G01*
X11440100Y-22520300D01*
G75*
G02*
X11259700Y-22339900I0J180400D01*
G01*
X11259700Y-21864100D01*
G75*
G02*
X11440100Y-21683700I180400J0D01*
G01*
G37*
%TD*%
%TO.C,Q4*%
G36*
G01*
X23749200Y-18503000D02*
X23749200Y-18103000D01*
G75*
G02*
X23800000Y-18052200I50800J0D01*
G01*
X24450000Y-18052200D01*
G75*
G02*
X24500800Y-18103000I0J-50800D01*
G01*
X24500800Y-18503000D01*
G75*
G02*
X24450000Y-18553800I-50800J0D01*
G01*
X23800000Y-18553800D01*
G75*
G02*
X23749200Y-18503000I0J50800D01*
G01*
G37*
G36*
G01*
X23749200Y-17203000D02*
X23749200Y-16803000D01*
G75*
G02*
X23800000Y-16752200I50800J0D01*
G01*
X24450000Y-16752200D01*
G75*
G02*
X24500800Y-16803000I0J-50800D01*
G01*
X24500800Y-17203000D01*
G75*
G02*
X24450000Y-17253800I-50800J0D01*
G01*
X23800000Y-17253800D01*
G75*
G02*
X23749200Y-17203000I0J50800D01*
G01*
G37*
G36*
G01*
X21849200Y-17853000D02*
X21849200Y-17453000D01*
G75*
G02*
X21900000Y-17402200I50800J0D01*
G01*
X22550000Y-17402200D01*
G75*
G02*
X22600800Y-17453000I0J-50800D01*
G01*
X22600800Y-17853000D01*
G75*
G02*
X22550000Y-17903800I-50800J0D01*
G01*
X21900000Y-17903800D01*
G75*
G02*
X21849200Y-17853000I0J50800D01*
G01*
G37*
G36*
G01*
X23749200Y-17853000D02*
X23749200Y-17453000D01*
G75*
G02*
X23800000Y-17402200I50800J0D01*
G01*
X24450000Y-17402200D01*
G75*
G02*
X24500800Y-17453000I0J-50800D01*
G01*
X24500800Y-17853000D01*
G75*
G02*
X24450000Y-17903800I-50800J0D01*
G01*
X23800000Y-17903800D01*
G75*
G02*
X23749200Y-17853000I0J50800D01*
G01*
G37*
G36*
G01*
X21849200Y-17203000D02*
X21849200Y-16803000D01*
G75*
G02*
X21900000Y-16752200I50800J0D01*
G01*
X22550000Y-16752200D01*
G75*
G02*
X22600800Y-16803000I0J-50800D01*
G01*
X22600800Y-17203000D01*
G75*
G02*
X22550000Y-17253800I-50800J0D01*
G01*
X21900000Y-17253800D01*
G75*
G02*
X21849200Y-17203000I0J50800D01*
G01*
G37*
G36*
G01*
X21849200Y-18503000D02*
X21849200Y-18103000D01*
G75*
G02*
X21900000Y-18052200I50800J0D01*
G01*
X22550000Y-18052200D01*
G75*
G02*
X22600800Y-18103000I0J-50800D01*
G01*
X22600800Y-18503000D01*
G75*
G02*
X22550000Y-18553800I-50800J0D01*
G01*
X21900000Y-18553800D01*
G75*
G02*
X21849200Y-18503000I0J50800D01*
G01*
G37*
%TD*%
%TO.C,J1*%
G36*
G01*
X21590000Y-8780800D02*
X20590000Y-8780800D01*
G75*
G02*
X20539200Y-8730000I0J50800D01*
G01*
X20539200Y-8470000D01*
G75*
G02*
X20590000Y-8419200I50800J0D01*
G01*
X21590000Y-8419200D01*
G75*
G02*
X21640800Y-8470000I0J-50800D01*
G01*
X21640800Y-8730000D01*
G75*
G02*
X21590000Y-8780800I-50800J0D01*
G01*
G37*
G36*
G01*
X21590000Y-8280800D02*
X20590000Y-8280800D01*
G75*
G02*
X20539200Y-8230000I0J50800D01*
G01*
X20539200Y-7970000D01*
G75*
G02*
X20590000Y-7919200I50800J0D01*
G01*
X21590000Y-7919200D01*
G75*
G02*
X21640800Y-7970000I0J-50800D01*
G01*
X21640800Y-8230000D01*
G75*
G02*
X21590000Y-8280800I-50800J0D01*
G01*
G37*
G36*
G01*
X21590000Y-7780800D02*
X20590000Y-7780800D01*
G75*
G02*
X20539200Y-7730000I0J50800D01*
G01*
X20539200Y-7470000D01*
G75*
G02*
X20590000Y-7419200I50800J0D01*
G01*
X21590000Y-7419200D01*
G75*
G02*
X21640800Y-7470000I0J-50800D01*
G01*
X21640800Y-7730000D01*
G75*
G02*
X21590000Y-7780800I-50800J0D01*
G01*
G37*
G36*
G01*
X21590000Y-7280800D02*
X20590000Y-7280800D01*
G75*
G02*
X20539200Y-7230000I0J50800D01*
G01*
X20539200Y-6970000D01*
G75*
G02*
X20590000Y-6919200I50800J0D01*
G01*
X21590000Y-6919200D01*
G75*
G02*
X21640800Y-6970000I0J-50800D01*
G01*
X21640800Y-7230000D01*
G75*
G02*
X21590000Y-7280800I-50800J0D01*
G01*
G37*
G36*
G01*
X21590000Y-6780800D02*
X20590000Y-6780800D01*
G75*
G02*
X20539200Y-6730000I0J50800D01*
G01*
X20539200Y-6470000D01*
G75*
G02*
X20590000Y-6419200I50800J0D01*
G01*
X21590000Y-6419200D01*
G75*
G02*
X21640800Y-6470000I0J-50800D01*
G01*
X21640800Y-6730000D01*
G75*
G02*
X21590000Y-6780800I-50800J0D01*
G01*
G37*
G36*
G01*
X21590000Y-6280800D02*
X20590000Y-6280800D01*
G75*
G02*
X20539200Y-6230000I0J50800D01*
G01*
X20539200Y-5970000D01*
G75*
G02*
X20590000Y-5919200I50800J0D01*
G01*
X21590000Y-5919200D01*
G75*
G02*
X21640800Y-5970000I0J-50800D01*
G01*
X21640800Y-6230000D01*
G75*
G02*
X21590000Y-6280800I-50800J0D01*
G01*
G37*
G36*
G01*
X21590000Y-5780800D02*
X20590000Y-5780800D01*
G75*
G02*
X20539200Y-5730000I0J50800D01*
G01*
X20539200Y-5470000D01*
G75*
G02*
X20590000Y-5419200I50800J0D01*
G01*
X21590000Y-5419200D01*
G75*
G02*
X21640800Y-5470000I0J-50800D01*
G01*
X21640800Y-5730000D01*
G75*
G02*
X21590000Y-5780800I-50800J0D01*
G01*
G37*
G36*
G01*
X21590000Y-5280800D02*
X20590000Y-5280800D01*
G75*
G02*
X20539200Y-5230000I0J50800D01*
G01*
X20539200Y-4970000D01*
G75*
G02*
X20590000Y-4919200I50800J0D01*
G01*
X21590000Y-4919200D01*
G75*
G02*
X21640800Y-4970000I0J-50800D01*
G01*
X21640800Y-5230000D01*
G75*
G02*
X21590000Y-5280800I-50800J0D01*
G01*
G37*
G36*
G01*
X21590000Y-4780800D02*
X20590000Y-4780800D01*
G75*
G02*
X20539200Y-4730000I0J50800D01*
G01*
X20539200Y-4470000D01*
G75*
G02*
X20590000Y-4419200I50800J0D01*
G01*
X21590000Y-4419200D01*
G75*
G02*
X21640800Y-4470000I0J-50800D01*
G01*
X21640800Y-4730000D01*
G75*
G02*
X21590000Y-4780800I-50800J0D01*
G01*
G37*
G36*
G01*
X21590000Y-4280800D02*
X20590000Y-4280800D01*
G75*
G02*
X20539200Y-4230000I0J50800D01*
G01*
X20539200Y-3970000D01*
G75*
G02*
X20590000Y-3919200I50800J0D01*
G01*
X21590000Y-3919200D01*
G75*
G02*
X21640800Y-3970000I0J-50800D01*
G01*
X21640800Y-4230000D01*
G75*
G02*
X21590000Y-4280800I-50800J0D01*
G01*
G37*
G36*
G01*
X21590000Y-9430800D02*
X20340000Y-9430800D01*
G75*
G02*
X20289200Y-9380000I0J50800D01*
G01*
X20289200Y-8970000D01*
G75*
G02*
X20340000Y-8919200I50800J0D01*
G01*
X21590000Y-8919200D01*
G75*
G02*
X21640800Y-8970000I0J-50800D01*
G01*
X21640800Y-9380000D01*
G75*
G02*
X21590000Y-9430800I-50800J0D01*
G01*
G37*
G36*
G01*
X21590000Y-3780800D02*
X20340000Y-3780800D01*
G75*
G02*
X20289200Y-3730000I0J50800D01*
G01*
X20289200Y-3320000D01*
G75*
G02*
X20340000Y-3269200I50800J0D01*
G01*
X21590000Y-3269200D01*
G75*
G02*
X21640800Y-3320000I0J-50800D01*
G01*
X21640800Y-3730000D01*
G75*
G02*
X21590000Y-3780800I-50800J0D01*
G01*
G37*
D11*
X21190000Y-10360000D03*
X21190000Y-2340000D03*
G36*
G01*
X25390000Y-12100800D02*
X23190000Y-12100800D01*
G75*
G02*
X23139200Y-12050000I0J50800D01*
G01*
X23139200Y-10550000D01*
G75*
G02*
X23190000Y-10499200I50800J0D01*
G01*
X25390000Y-10499200D01*
G75*
G02*
X25440800Y-10550000I0J-50800D01*
G01*
X25440800Y-12050000D01*
G75*
G02*
X25390000Y-12100800I-50800J0D01*
G01*
G37*
G36*
G01*
X25390000Y-2200800D02*
X23190000Y-2200800D01*
G75*
G02*
X23139200Y-2150000I0J50800D01*
G01*
X23139200Y-650000D01*
G75*
G02*
X23190000Y-599200I50800J0D01*
G01*
X25390000Y-599200D01*
G75*
G02*
X25440800Y-650000I0J-50800D01*
G01*
X25440800Y-2150000D01*
G75*
G02*
X25390000Y-2200800I-50800J0D01*
G01*
G37*
%TD*%
D12*
%TO.C,J3*%
X1304200Y-19790800D03*
X8754200Y-19790800D03*
D13*
X1154200Y-23590800D03*
X8904200Y-23590800D03*
D14*
X2529200Y-20840800D03*
X7529200Y-20840800D03*
%TD*%
%TO.C,U4*%
G36*
G01*
X12037100Y-15671700D02*
X12837900Y-15671700D01*
G75*
G02*
X12925800Y-15759600I0J-87900D01*
G01*
X12925800Y-15935400D01*
G75*
G02*
X12837900Y-16023300I-87900J0D01*
G01*
X12037100Y-16023300D01*
G75*
G02*
X11949200Y-15935400I0J87900D01*
G01*
X11949200Y-15759600D01*
G75*
G02*
X12037100Y-15671700I87900J0D01*
G01*
G37*
G36*
G01*
X12037100Y-16171700D02*
X12837900Y-16171700D01*
G75*
G02*
X12925800Y-16259600I0J-87900D01*
G01*
X12925800Y-16435400D01*
G75*
G02*
X12837900Y-16523300I-87900J0D01*
G01*
X12037100Y-16523300D01*
G75*
G02*
X11949200Y-16435400I0J87900D01*
G01*
X11949200Y-16259600D01*
G75*
G02*
X12037100Y-16171700I87900J0D01*
G01*
G37*
G36*
G01*
X12037100Y-17171700D02*
X12837900Y-17171700D01*
G75*
G02*
X12925800Y-17259600I0J-87900D01*
G01*
X12925800Y-17435400D01*
G75*
G02*
X12837900Y-17523300I-87900J0D01*
G01*
X12037100Y-17523300D01*
G75*
G02*
X11949200Y-17435400I0J87900D01*
G01*
X11949200Y-17259600D01*
G75*
G02*
X12037100Y-17171700I87900J0D01*
G01*
G37*
G36*
G01*
X12037100Y-17671700D02*
X12837900Y-17671700D01*
G75*
G02*
X12925800Y-17759600I0J-87900D01*
G01*
X12925800Y-17935400D01*
G75*
G02*
X12837900Y-18023300I-87900J0D01*
G01*
X12037100Y-18023300D01*
G75*
G02*
X11949200Y-17935400I0J87900D01*
G01*
X11949200Y-17759600D01*
G75*
G02*
X12037100Y-17671700I87900J0D01*
G01*
G37*
G36*
G01*
X12037100Y-18171700D02*
X12837900Y-18171700D01*
G75*
G02*
X12925800Y-18259600I0J-87900D01*
G01*
X12925800Y-18435400D01*
G75*
G02*
X12837900Y-18523300I-87900J0D01*
G01*
X12037100Y-18523300D01*
G75*
G02*
X11949200Y-18435400I0J87900D01*
G01*
X11949200Y-18259600D01*
G75*
G02*
X12037100Y-18171700I87900J0D01*
G01*
G37*
G36*
G01*
X12037100Y-15171700D02*
X12837900Y-15171700D01*
G75*
G02*
X12925800Y-15259600I0J-87900D01*
G01*
X12925800Y-15435400D01*
G75*
G02*
X12837900Y-15523300I-87900J0D01*
G01*
X12037100Y-15523300D01*
G75*
G02*
X11949200Y-15435400I0J87900D01*
G01*
X11949200Y-15259600D01*
G75*
G02*
X12037100Y-15171700I87900J0D01*
G01*
G37*
G36*
G01*
X12037100Y-16671700D02*
X12837900Y-16671700D01*
G75*
G02*
X12925800Y-16759600I0J-87900D01*
G01*
X12925800Y-16935400D01*
G75*
G02*
X12837900Y-17023300I-87900J0D01*
G01*
X12037100Y-17023300D01*
G75*
G02*
X11949200Y-16935400I0J87900D01*
G01*
X11949200Y-16759600D01*
G75*
G02*
X12037100Y-16671700I87900J0D01*
G01*
G37*
G36*
G01*
X18912100Y-19671700D02*
X19712900Y-19671700D01*
G75*
G02*
X19800800Y-19759600I0J-87900D01*
G01*
X19800800Y-19935400D01*
G75*
G02*
X19712900Y-20023300I-87900J0D01*
G01*
X18912100Y-20023300D01*
G75*
G02*
X18824200Y-19935400I0J87900D01*
G01*
X18824200Y-19759600D01*
G75*
G02*
X18912100Y-19671700I87900J0D01*
G01*
G37*
G36*
G01*
X14537100Y-14171700D02*
X14712900Y-14171700D01*
G75*
G02*
X14800800Y-14259600I0J-87900D01*
G01*
X14800800Y-15060400D01*
G75*
G02*
X14712900Y-15148300I-87900J0D01*
G01*
X14537100Y-15148300D01*
G75*
G02*
X14449200Y-15060400I0J87900D01*
G01*
X14449200Y-14259600D01*
G75*
G02*
X14537100Y-14171700I87900J0D01*
G01*
G37*
G36*
G01*
X17037100Y-14171700D02*
X17212900Y-14171700D01*
G75*
G02*
X17300800Y-14259600I0J-87900D01*
G01*
X17300800Y-15060400D01*
G75*
G02*
X17212900Y-15148300I-87900J0D01*
G01*
X17037100Y-15148300D01*
G75*
G02*
X16949200Y-15060400I0J87900D01*
G01*
X16949200Y-14259600D01*
G75*
G02*
X17037100Y-14171700I87900J0D01*
G01*
G37*
G36*
G01*
X17537100Y-14171700D02*
X17712900Y-14171700D01*
G75*
G02*
X17800800Y-14259600I0J-87900D01*
G01*
X17800800Y-15060400D01*
G75*
G02*
X17712900Y-15148300I-87900J0D01*
G01*
X17537100Y-15148300D01*
G75*
G02*
X17449200Y-15060400I0J87900D01*
G01*
X17449200Y-14259600D01*
G75*
G02*
X17537100Y-14171700I87900J0D01*
G01*
G37*
G36*
G01*
X16037100Y-14171700D02*
X16212900Y-14171700D01*
G75*
G02*
X16300800Y-14259600I0J-87900D01*
G01*
X16300800Y-15060400D01*
G75*
G02*
X16212900Y-15148300I-87900J0D01*
G01*
X16037100Y-15148300D01*
G75*
G02*
X15949200Y-15060400I0J87900D01*
G01*
X15949200Y-14259600D01*
G75*
G02*
X16037100Y-14171700I87900J0D01*
G01*
G37*
G36*
G01*
X13037100Y-14171700D02*
X13212900Y-14171700D01*
G75*
G02*
X13300800Y-14259600I0J-87900D01*
G01*
X13300800Y-15060400D01*
G75*
G02*
X13212900Y-15148300I-87900J0D01*
G01*
X13037100Y-15148300D01*
G75*
G02*
X12949200Y-15060400I0J87900D01*
G01*
X12949200Y-14259600D01*
G75*
G02*
X13037100Y-14171700I87900J0D01*
G01*
G37*
G36*
G01*
X16537100Y-21046700D02*
X16712900Y-21046700D01*
G75*
G02*
X16800800Y-21134600I0J-87900D01*
G01*
X16800800Y-21935400D01*
G75*
G02*
X16712900Y-22023300I-87900J0D01*
G01*
X16537100Y-22023300D01*
G75*
G02*
X16449200Y-21935400I0J87900D01*
G01*
X16449200Y-21134600D01*
G75*
G02*
X16537100Y-21046700I87900J0D01*
G01*
G37*
G36*
G01*
X17037100Y-21046700D02*
X17212900Y-21046700D01*
G75*
G02*
X17300800Y-21134600I0J-87900D01*
G01*
X17300800Y-21935400D01*
G75*
G02*
X17212900Y-22023300I-87900J0D01*
G01*
X17037100Y-22023300D01*
G75*
G02*
X16949200Y-21935400I0J87900D01*
G01*
X16949200Y-21134600D01*
G75*
G02*
X17037100Y-21046700I87900J0D01*
G01*
G37*
G36*
G01*
X16537100Y-14171700D02*
X16712900Y-14171700D01*
G75*
G02*
X16800800Y-14259600I0J-87900D01*
G01*
X16800800Y-15060400D01*
G75*
G02*
X16712900Y-15148300I-87900J0D01*
G01*
X16537100Y-15148300D01*
G75*
G02*
X16449200Y-15060400I0J87900D01*
G01*
X16449200Y-14259600D01*
G75*
G02*
X16537100Y-14171700I87900J0D01*
G01*
G37*
G36*
G01*
X16037100Y-21046700D02*
X16212900Y-21046700D01*
G75*
G02*
X16300800Y-21134600I0J-87900D01*
G01*
X16300800Y-21935400D01*
G75*
G02*
X16212900Y-22023300I-87900J0D01*
G01*
X16037100Y-22023300D01*
G75*
G02*
X15949200Y-21935400I0J87900D01*
G01*
X15949200Y-21134600D01*
G75*
G02*
X16037100Y-21046700I87900J0D01*
G01*
G37*
G36*
G01*
X15537100Y-21046700D02*
X15712900Y-21046700D01*
G75*
G02*
X15800800Y-21134600I0J-87900D01*
G01*
X15800800Y-21935400D01*
G75*
G02*
X15712900Y-22023300I-87900J0D01*
G01*
X15537100Y-22023300D01*
G75*
G02*
X15449200Y-21935400I0J87900D01*
G01*
X15449200Y-21134600D01*
G75*
G02*
X15537100Y-21046700I87900J0D01*
G01*
G37*
G36*
G01*
X18912100Y-17171700D02*
X19712900Y-17171700D01*
G75*
G02*
X19800800Y-17259600I0J-87900D01*
G01*
X19800800Y-17435400D01*
G75*
G02*
X19712900Y-17523300I-87900J0D01*
G01*
X18912100Y-17523300D01*
G75*
G02*
X18824200Y-17435400I0J87900D01*
G01*
X18824200Y-17259600D01*
G75*
G02*
X18912100Y-17171700I87900J0D01*
G01*
G37*
G36*
G01*
X18912100Y-16671700D02*
X19712900Y-16671700D01*
G75*
G02*
X19800800Y-16759600I0J-87900D01*
G01*
X19800800Y-16935400D01*
G75*
G02*
X19712900Y-17023300I-87900J0D01*
G01*
X18912100Y-17023300D01*
G75*
G02*
X18824200Y-16935400I0J87900D01*
G01*
X18824200Y-16759600D01*
G75*
G02*
X18912100Y-16671700I87900J0D01*
G01*
G37*
G36*
G01*
X18912100Y-16171700D02*
X19712900Y-16171700D01*
G75*
G02*
X19800800Y-16259600I0J-87900D01*
G01*
X19800800Y-16435400D01*
G75*
G02*
X19712900Y-16523300I-87900J0D01*
G01*
X18912100Y-16523300D01*
G75*
G02*
X18824200Y-16435400I0J87900D01*
G01*
X18824200Y-16259600D01*
G75*
G02*
X18912100Y-16171700I87900J0D01*
G01*
G37*
G36*
G01*
X18912100Y-17671700D02*
X19712900Y-17671700D01*
G75*
G02*
X19800800Y-17759600I0J-87900D01*
G01*
X19800800Y-17935400D01*
G75*
G02*
X19712900Y-18023300I-87900J0D01*
G01*
X18912100Y-18023300D01*
G75*
G02*
X18824200Y-17935400I0J87900D01*
G01*
X18824200Y-17759600D01*
G75*
G02*
X18912100Y-17671700I87900J0D01*
G01*
G37*
G36*
G01*
X18912100Y-19171700D02*
X19712900Y-19171700D01*
G75*
G02*
X19800800Y-19259600I0J-87900D01*
G01*
X19800800Y-19435400D01*
G75*
G02*
X19712900Y-19523300I-87900J0D01*
G01*
X18912100Y-19523300D01*
G75*
G02*
X18824200Y-19435400I0J87900D01*
G01*
X18824200Y-19259600D01*
G75*
G02*
X18912100Y-19171700I87900J0D01*
G01*
G37*
G36*
G01*
X14037100Y-14171700D02*
X14212900Y-14171700D01*
G75*
G02*
X14300800Y-14259600I0J-87900D01*
G01*
X14300800Y-15060400D01*
G75*
G02*
X14212900Y-15148300I-87900J0D01*
G01*
X14037100Y-15148300D01*
G75*
G02*
X13949200Y-15060400I0J87900D01*
G01*
X13949200Y-14259600D01*
G75*
G02*
X14037100Y-14171700I87900J0D01*
G01*
G37*
G36*
G01*
X18537100Y-21046700D02*
X18712900Y-21046700D01*
G75*
G02*
X18800800Y-21134600I0J-87900D01*
G01*
X18800800Y-21935400D01*
G75*
G02*
X18712900Y-22023300I-87900J0D01*
G01*
X18537100Y-22023300D01*
G75*
G02*
X18449200Y-21935400I0J87900D01*
G01*
X18449200Y-21134600D01*
G75*
G02*
X18537100Y-21046700I87900J0D01*
G01*
G37*
G36*
G01*
X18037100Y-14171700D02*
X18212900Y-14171700D01*
G75*
G02*
X18300800Y-14259600I0J-87900D01*
G01*
X18300800Y-15060400D01*
G75*
G02*
X18212900Y-15148300I-87900J0D01*
G01*
X18037100Y-15148300D01*
G75*
G02*
X17949200Y-15060400I0J87900D01*
G01*
X17949200Y-14259600D01*
G75*
G02*
X18037100Y-14171700I87900J0D01*
G01*
G37*
G36*
G01*
X18912100Y-20171700D02*
X19712900Y-20171700D01*
G75*
G02*
X19800800Y-20259600I0J-87900D01*
G01*
X19800800Y-20435400D01*
G75*
G02*
X19712900Y-20523300I-87900J0D01*
G01*
X18912100Y-20523300D01*
G75*
G02*
X18824200Y-20435400I0J87900D01*
G01*
X18824200Y-20259600D01*
G75*
G02*
X18912100Y-20171700I87900J0D01*
G01*
G37*
G36*
G01*
X13037100Y-21046700D02*
X13212900Y-21046700D01*
G75*
G02*
X13300800Y-21134600I0J-87900D01*
G01*
X13300800Y-21935400D01*
G75*
G02*
X13212900Y-22023300I-87900J0D01*
G01*
X13037100Y-22023300D01*
G75*
G02*
X12949200Y-21935400I0J87900D01*
G01*
X12949200Y-21134600D01*
G75*
G02*
X13037100Y-21046700I87900J0D01*
G01*
G37*
G36*
G01*
X12037100Y-19171700D02*
X12837900Y-19171700D01*
G75*
G02*
X12925800Y-19259600I0J-87900D01*
G01*
X12925800Y-19435400D01*
G75*
G02*
X12837900Y-19523300I-87900J0D01*
G01*
X12037100Y-19523300D01*
G75*
G02*
X11949200Y-19435400I0J87900D01*
G01*
X11949200Y-19259600D01*
G75*
G02*
X12037100Y-19171700I87900J0D01*
G01*
G37*
G36*
G01*
X14037100Y-21046700D02*
X14212900Y-21046700D01*
G75*
G02*
X14300800Y-21134600I0J-87900D01*
G01*
X14300800Y-21935400D01*
G75*
G02*
X14212900Y-22023300I-87900J0D01*
G01*
X14037100Y-22023300D01*
G75*
G02*
X13949200Y-21935400I0J87900D01*
G01*
X13949200Y-21134600D01*
G75*
G02*
X14037100Y-21046700I87900J0D01*
G01*
G37*
G36*
G01*
X17537100Y-21046700D02*
X17712900Y-21046700D01*
G75*
G02*
X17800800Y-21134600I0J-87900D01*
G01*
X17800800Y-21935400D01*
G75*
G02*
X17712900Y-22023300I-87900J0D01*
G01*
X17537100Y-22023300D01*
G75*
G02*
X17449200Y-21935400I0J87900D01*
G01*
X17449200Y-21134600D01*
G75*
G02*
X17537100Y-21046700I87900J0D01*
G01*
G37*
G36*
G01*
X18912100Y-15171700D02*
X19712900Y-15171700D01*
G75*
G02*
X19800800Y-15259600I0J-87900D01*
G01*
X19800800Y-15435400D01*
G75*
G02*
X19712900Y-15523300I-87900J0D01*
G01*
X18912100Y-15523300D01*
G75*
G02*
X18824200Y-15435400I0J87900D01*
G01*
X18824200Y-15259600D01*
G75*
G02*
X18912100Y-15171700I87900J0D01*
G01*
G37*
G36*
G01*
X15037100Y-14171700D02*
X15212900Y-14171700D01*
G75*
G02*
X15300800Y-14259600I0J-87900D01*
G01*
X15300800Y-15060400D01*
G75*
G02*
X15212900Y-15148300I-87900J0D01*
G01*
X15037100Y-15148300D01*
G75*
G02*
X14949200Y-15060400I0J87900D01*
G01*
X14949200Y-14259600D01*
G75*
G02*
X15037100Y-14171700I87900J0D01*
G01*
G37*
G36*
G01*
X12037100Y-19671700D02*
X12837900Y-19671700D01*
G75*
G02*
X12925800Y-19759600I0J-87900D01*
G01*
X12925800Y-19935400D01*
G75*
G02*
X12837900Y-20023300I-87900J0D01*
G01*
X12037100Y-20023300D01*
G75*
G02*
X11949200Y-19935400I0J87900D01*
G01*
X11949200Y-19759600D01*
G75*
G02*
X12037100Y-19671700I87900J0D01*
G01*
G37*
G36*
G01*
X14537100Y-21046700D02*
X14712900Y-21046700D01*
G75*
G02*
X14800800Y-21134600I0J-87900D01*
G01*
X14800800Y-21935400D01*
G75*
G02*
X14712900Y-22023300I-87900J0D01*
G01*
X14537100Y-22023300D01*
G75*
G02*
X14449200Y-21935400I0J87900D01*
G01*
X14449200Y-21134600D01*
G75*
G02*
X14537100Y-21046700I87900J0D01*
G01*
G37*
G36*
G01*
X18912100Y-20671700D02*
X19712900Y-20671700D01*
G75*
G02*
X19800800Y-20759600I0J-87900D01*
G01*
X19800800Y-20935400D01*
G75*
G02*
X19712900Y-21023300I-87900J0D01*
G01*
X18912100Y-21023300D01*
G75*
G02*
X18824200Y-20935400I0J87900D01*
G01*
X18824200Y-20759600D01*
G75*
G02*
X18912100Y-20671700I87900J0D01*
G01*
G37*
G36*
G01*
X15537100Y-14171700D02*
X15712900Y-14171700D01*
G75*
G02*
X15800800Y-14259600I0J-87900D01*
G01*
X15800800Y-15060400D01*
G75*
G02*
X15712900Y-15148300I-87900J0D01*
G01*
X15537100Y-15148300D01*
G75*
G02*
X15449200Y-15060400I0J87900D01*
G01*
X15449200Y-14259600D01*
G75*
G02*
X15537100Y-14171700I87900J0D01*
G01*
G37*
G36*
G01*
X12037100Y-20671700D02*
X12837900Y-20671700D01*
G75*
G02*
X12925800Y-20759600I0J-87900D01*
G01*
X12925800Y-20935400D01*
G75*
G02*
X12837900Y-21023300I-87900J0D01*
G01*
X12037100Y-21023300D01*
G75*
G02*
X11949200Y-20935400I0J87900D01*
G01*
X11949200Y-20759600D01*
G75*
G02*
X12037100Y-20671700I87900J0D01*
G01*
G37*
G36*
G01*
X18912100Y-18171700D02*
X19712900Y-18171700D01*
G75*
G02*
X19800800Y-18259600I0J-87900D01*
G01*
X19800800Y-18435400D01*
G75*
G02*
X19712900Y-18523300I-87900J0D01*
G01*
X18912100Y-18523300D01*
G75*
G02*
X18824200Y-18435400I0J87900D01*
G01*
X18824200Y-18259600D01*
G75*
G02*
X18912100Y-18171700I87900J0D01*
G01*
G37*
G36*
G01*
X18912100Y-15671700D02*
X19712900Y-15671700D01*
G75*
G02*
X19800800Y-15759600I0J-87900D01*
G01*
X19800800Y-15935400D01*
G75*
G02*
X19712900Y-16023300I-87900J0D01*
G01*
X18912100Y-16023300D01*
G75*
G02*
X18824200Y-15935400I0J87900D01*
G01*
X18824200Y-15759600D01*
G75*
G02*
X18912100Y-15671700I87900J0D01*
G01*
G37*
G36*
G01*
X13537100Y-14171700D02*
X13712900Y-14171700D01*
G75*
G02*
X13800800Y-14259600I0J-87900D01*
G01*
X13800800Y-15060400D01*
G75*
G02*
X13712900Y-15148300I-87900J0D01*
G01*
X13537100Y-15148300D01*
G75*
G02*
X13449200Y-15060400I0J87900D01*
G01*
X13449200Y-14259600D01*
G75*
G02*
X13537100Y-14171700I87900J0D01*
G01*
G37*
G36*
G01*
X13537100Y-21046700D02*
X13712900Y-21046700D01*
G75*
G02*
X13800800Y-21134600I0J-87900D01*
G01*
X13800800Y-21935400D01*
G75*
G02*
X13712900Y-22023300I-87900J0D01*
G01*
X13537100Y-22023300D01*
G75*
G02*
X13449200Y-21935400I0J87900D01*
G01*
X13449200Y-21134600D01*
G75*
G02*
X13537100Y-21046700I87900J0D01*
G01*
G37*
G36*
G01*
X18537100Y-14171700D02*
X18712900Y-14171700D01*
G75*
G02*
X18800800Y-14259600I0J-87900D01*
G01*
X18800800Y-15060400D01*
G75*
G02*
X18712900Y-15148300I-87900J0D01*
G01*
X18537100Y-15148300D01*
G75*
G02*
X18449200Y-15060400I0J87900D01*
G01*
X18449200Y-14259600D01*
G75*
G02*
X18537100Y-14171700I87900J0D01*
G01*
G37*
G36*
G01*
X12037100Y-18671700D02*
X12837900Y-18671700D01*
G75*
G02*
X12925800Y-18759600I0J-87900D01*
G01*
X12925800Y-18935400D01*
G75*
G02*
X12837900Y-19023300I-87900J0D01*
G01*
X12037100Y-19023300D01*
G75*
G02*
X11949200Y-18935400I0J87900D01*
G01*
X11949200Y-18759600D01*
G75*
G02*
X12037100Y-18671700I87900J0D01*
G01*
G37*
G36*
G01*
X18912100Y-18671700D02*
X19712900Y-18671700D01*
G75*
G02*
X19800800Y-18759600I0J-87900D01*
G01*
X19800800Y-18935400D01*
G75*
G02*
X19712900Y-19023300I-87900J0D01*
G01*
X18912100Y-19023300D01*
G75*
G02*
X18824200Y-18935400I0J87900D01*
G01*
X18824200Y-18759600D01*
G75*
G02*
X18912100Y-18671700I87900J0D01*
G01*
G37*
G36*
G01*
X18037100Y-21046700D02*
X18212900Y-21046700D01*
G75*
G02*
X18300800Y-21134600I0J-87900D01*
G01*
X18300800Y-21935400D01*
G75*
G02*
X18212900Y-22023300I-87900J0D01*
G01*
X18037100Y-22023300D01*
G75*
G02*
X17949200Y-21935400I0J87900D01*
G01*
X17949200Y-21134600D01*
G75*
G02*
X18037100Y-21046700I87900J0D01*
G01*
G37*
G36*
G01*
X12037100Y-20171700D02*
X12837900Y-20171700D01*
G75*
G02*
X12925800Y-20259600I0J-87900D01*
G01*
X12925800Y-20435400D01*
G75*
G02*
X12837900Y-20523300I-87900J0D01*
G01*
X12037100Y-20523300D01*
G75*
G02*
X11949200Y-20435400I0J87900D01*
G01*
X11949200Y-20259600D01*
G75*
G02*
X12037100Y-20171700I87900J0D01*
G01*
G37*
G36*
G01*
X15037100Y-21046700D02*
X15212900Y-21046700D01*
G75*
G02*
X15300800Y-21134600I0J-87900D01*
G01*
X15300800Y-21935400D01*
G75*
G02*
X15212900Y-22023300I-87900J0D01*
G01*
X15037100Y-22023300D01*
G75*
G02*
X14949200Y-21935400I0J87900D01*
G01*
X14949200Y-21134600D01*
G75*
G02*
X15037100Y-21046700I87900J0D01*
G01*
G37*
G36*
G01*
X13024600Y-13146700D02*
X13225400Y-13146700D01*
G75*
G02*
X13325800Y-13247100I0J-100400D01*
G01*
X13325800Y-14622900D01*
G75*
G02*
X13225400Y-14723300I-100400J0D01*
G01*
X13024600Y-14723300D01*
G75*
G02*
X12924200Y-14622900I0J100400D01*
G01*
X12924200Y-13247100D01*
G75*
G02*
X13024600Y-13146700I100400J0D01*
G01*
G37*
G36*
G01*
X13524600Y-13146700D02*
X13725400Y-13146700D01*
G75*
G02*
X13825800Y-13247100I0J-100400D01*
G01*
X13825800Y-14622900D01*
G75*
G02*
X13725400Y-14723300I-100400J0D01*
G01*
X13524600Y-14723300D01*
G75*
G02*
X13424200Y-14622900I0J100400D01*
G01*
X13424200Y-13247100D01*
G75*
G02*
X13524600Y-13146700I100400J0D01*
G01*
G37*
G36*
G01*
X14024600Y-13146700D02*
X14225400Y-13146700D01*
G75*
G02*
X14325800Y-13247100I0J-100400D01*
G01*
X14325800Y-14622900D01*
G75*
G02*
X14225400Y-14723300I-100400J0D01*
G01*
X14024600Y-14723300D01*
G75*
G02*
X13924200Y-14622900I0J100400D01*
G01*
X13924200Y-13247100D01*
G75*
G02*
X14024600Y-13146700I100400J0D01*
G01*
G37*
G36*
G01*
X14524600Y-13146700D02*
X14725400Y-13146700D01*
G75*
G02*
X14825800Y-13247100I0J-100400D01*
G01*
X14825800Y-14622900D01*
G75*
G02*
X14725400Y-14723300I-100400J0D01*
G01*
X14524600Y-14723300D01*
G75*
G02*
X14424200Y-14622900I0J100400D01*
G01*
X14424200Y-13247100D01*
G75*
G02*
X14524600Y-13146700I100400J0D01*
G01*
G37*
G36*
G01*
X15024600Y-13146700D02*
X15225400Y-13146700D01*
G75*
G02*
X15325800Y-13247100I0J-100400D01*
G01*
X15325800Y-14622900D01*
G75*
G02*
X15225400Y-14723300I-100400J0D01*
G01*
X15024600Y-14723300D01*
G75*
G02*
X14924200Y-14622900I0J100400D01*
G01*
X14924200Y-13247100D01*
G75*
G02*
X15024600Y-13146700I100400J0D01*
G01*
G37*
G36*
G01*
X15524600Y-13146700D02*
X15725400Y-13146700D01*
G75*
G02*
X15825800Y-13247100I0J-100400D01*
G01*
X15825800Y-14622900D01*
G75*
G02*
X15725400Y-14723300I-100400J0D01*
G01*
X15524600Y-14723300D01*
G75*
G02*
X15424200Y-14622900I0J100400D01*
G01*
X15424200Y-13247100D01*
G75*
G02*
X15524600Y-13146700I100400J0D01*
G01*
G37*
G36*
G01*
X16024600Y-13146700D02*
X16225400Y-13146700D01*
G75*
G02*
X16325800Y-13247100I0J-100400D01*
G01*
X16325800Y-14622900D01*
G75*
G02*
X16225400Y-14723300I-100400J0D01*
G01*
X16024600Y-14723300D01*
G75*
G02*
X15924200Y-14622900I0J100400D01*
G01*
X15924200Y-13247100D01*
G75*
G02*
X16024600Y-13146700I100400J0D01*
G01*
G37*
G36*
G01*
X16524600Y-13146700D02*
X16725400Y-13146700D01*
G75*
G02*
X16825800Y-13247100I0J-100400D01*
G01*
X16825800Y-14622900D01*
G75*
G02*
X16725400Y-14723300I-100400J0D01*
G01*
X16524600Y-14723300D01*
G75*
G02*
X16424200Y-14622900I0J100400D01*
G01*
X16424200Y-13247100D01*
G75*
G02*
X16524600Y-13146700I100400J0D01*
G01*
G37*
G36*
G01*
X17024600Y-13146700D02*
X17225400Y-13146700D01*
G75*
G02*
X17325800Y-13247100I0J-100400D01*
G01*
X17325800Y-14622900D01*
G75*
G02*
X17225400Y-14723300I-100400J0D01*
G01*
X17024600Y-14723300D01*
G75*
G02*
X16924200Y-14622900I0J100400D01*
G01*
X16924200Y-13247100D01*
G75*
G02*
X17024600Y-13146700I100400J0D01*
G01*
G37*
G36*
G01*
X17524600Y-13146700D02*
X17725400Y-13146700D01*
G75*
G02*
X17825800Y-13247100I0J-100400D01*
G01*
X17825800Y-14622900D01*
G75*
G02*
X17725400Y-14723300I-100400J0D01*
G01*
X17524600Y-14723300D01*
G75*
G02*
X17424200Y-14622900I0J100400D01*
G01*
X17424200Y-13247100D01*
G75*
G02*
X17524600Y-13146700I100400J0D01*
G01*
G37*
G36*
G01*
X18024600Y-13146700D02*
X18225400Y-13146700D01*
G75*
G02*
X18325800Y-13247100I0J-100400D01*
G01*
X18325800Y-14622900D01*
G75*
G02*
X18225400Y-14723300I-100400J0D01*
G01*
X18024600Y-14723300D01*
G75*
G02*
X17924200Y-14622900I0J100400D01*
G01*
X17924200Y-13247100D01*
G75*
G02*
X18024600Y-13146700I100400J0D01*
G01*
G37*
G36*
G01*
X18524600Y-13146700D02*
X18725400Y-13146700D01*
G75*
G02*
X18825800Y-13247100I0J-100400D01*
G01*
X18825800Y-14622900D01*
G75*
G02*
X18725400Y-14723300I-100400J0D01*
G01*
X18524600Y-14723300D01*
G75*
G02*
X18424200Y-14622900I0J100400D01*
G01*
X18424200Y-13247100D01*
G75*
G02*
X18524600Y-13146700I100400J0D01*
G01*
G37*
G36*
G01*
X19349600Y-15146700D02*
X20725400Y-15146700D01*
G75*
G02*
X20825800Y-15247100I0J-100400D01*
G01*
X20825800Y-15447900D01*
G75*
G02*
X20725400Y-15548300I-100400J0D01*
G01*
X19349600Y-15548300D01*
G75*
G02*
X19249200Y-15447900I0J100400D01*
G01*
X19249200Y-15247100D01*
G75*
G02*
X19349600Y-15146700I100400J0D01*
G01*
G37*
G36*
G01*
X19349600Y-15646700D02*
X20725400Y-15646700D01*
G75*
G02*
X20825800Y-15747100I0J-100400D01*
G01*
X20825800Y-15947900D01*
G75*
G02*
X20725400Y-16048300I-100400J0D01*
G01*
X19349600Y-16048300D01*
G75*
G02*
X19249200Y-15947900I0J100400D01*
G01*
X19249200Y-15747100D01*
G75*
G02*
X19349600Y-15646700I100400J0D01*
G01*
G37*
G36*
G01*
X19349600Y-16146700D02*
X20725400Y-16146700D01*
G75*
G02*
X20825800Y-16247100I0J-100400D01*
G01*
X20825800Y-16447900D01*
G75*
G02*
X20725400Y-16548300I-100400J0D01*
G01*
X19349600Y-16548300D01*
G75*
G02*
X19249200Y-16447900I0J100400D01*
G01*
X19249200Y-16247100D01*
G75*
G02*
X19349600Y-16146700I100400J0D01*
G01*
G37*
G36*
G01*
X19349600Y-16646700D02*
X20725400Y-16646700D01*
G75*
G02*
X20825800Y-16747100I0J-100400D01*
G01*
X20825800Y-16947900D01*
G75*
G02*
X20725400Y-17048300I-100400J0D01*
G01*
X19349600Y-17048300D01*
G75*
G02*
X19249200Y-16947900I0J100400D01*
G01*
X19249200Y-16747100D01*
G75*
G02*
X19349600Y-16646700I100400J0D01*
G01*
G37*
G36*
G01*
X19349600Y-17146700D02*
X20725400Y-17146700D01*
G75*
G02*
X20825800Y-17247100I0J-100400D01*
G01*
X20825800Y-17447900D01*
G75*
G02*
X20725400Y-17548300I-100400J0D01*
G01*
X19349600Y-17548300D01*
G75*
G02*
X19249200Y-17447900I0J100400D01*
G01*
X19249200Y-17247100D01*
G75*
G02*
X19349600Y-17146700I100400J0D01*
G01*
G37*
G36*
G01*
X19349600Y-17646700D02*
X20725400Y-17646700D01*
G75*
G02*
X20825800Y-17747100I0J-100400D01*
G01*
X20825800Y-17947900D01*
G75*
G02*
X20725400Y-18048300I-100400J0D01*
G01*
X19349600Y-18048300D01*
G75*
G02*
X19249200Y-17947900I0J100400D01*
G01*
X19249200Y-17747100D01*
G75*
G02*
X19349600Y-17646700I100400J0D01*
G01*
G37*
G36*
G01*
X19349600Y-18146700D02*
X20725400Y-18146700D01*
G75*
G02*
X20825800Y-18247100I0J-100400D01*
G01*
X20825800Y-18447900D01*
G75*
G02*
X20725400Y-18548300I-100400J0D01*
G01*
X19349600Y-18548300D01*
G75*
G02*
X19249200Y-18447900I0J100400D01*
G01*
X19249200Y-18247100D01*
G75*
G02*
X19349600Y-18146700I100400J0D01*
G01*
G37*
G36*
G01*
X19349600Y-18646700D02*
X20725400Y-18646700D01*
G75*
G02*
X20825800Y-18747100I0J-100400D01*
G01*
X20825800Y-18947900D01*
G75*
G02*
X20725400Y-19048300I-100400J0D01*
G01*
X19349600Y-19048300D01*
G75*
G02*
X19249200Y-18947900I0J100400D01*
G01*
X19249200Y-18747100D01*
G75*
G02*
X19349600Y-18646700I100400J0D01*
G01*
G37*
G36*
G01*
X19349600Y-19146700D02*
X20725400Y-19146700D01*
G75*
G02*
X20825800Y-19247100I0J-100400D01*
G01*
X20825800Y-19447900D01*
G75*
G02*
X20725400Y-19548300I-100400J0D01*
G01*
X19349600Y-19548300D01*
G75*
G02*
X19249200Y-19447900I0J100400D01*
G01*
X19249200Y-19247100D01*
G75*
G02*
X19349600Y-19146700I100400J0D01*
G01*
G37*
G36*
G01*
X19349600Y-19646700D02*
X20725400Y-19646700D01*
G75*
G02*
X20825800Y-19747100I0J-100400D01*
G01*
X20825800Y-19947900D01*
G75*
G02*
X20725400Y-20048300I-100400J0D01*
G01*
X19349600Y-20048300D01*
G75*
G02*
X19249200Y-19947900I0J100400D01*
G01*
X19249200Y-19747100D01*
G75*
G02*
X19349600Y-19646700I100400J0D01*
G01*
G37*
G36*
G01*
X19349600Y-20146700D02*
X20725400Y-20146700D01*
G75*
G02*
X20825800Y-20247100I0J-100400D01*
G01*
X20825800Y-20447900D01*
G75*
G02*
X20725400Y-20548300I-100400J0D01*
G01*
X19349600Y-20548300D01*
G75*
G02*
X19249200Y-20447900I0J100400D01*
G01*
X19249200Y-20247100D01*
G75*
G02*
X19349600Y-20146700I100400J0D01*
G01*
G37*
G36*
G01*
X19349600Y-20646700D02*
X20725400Y-20646700D01*
G75*
G02*
X20825800Y-20747100I0J-100400D01*
G01*
X20825800Y-20947900D01*
G75*
G02*
X20725400Y-21048300I-100400J0D01*
G01*
X19349600Y-21048300D01*
G75*
G02*
X19249200Y-20947900I0J100400D01*
G01*
X19249200Y-20747100D01*
G75*
G02*
X19349600Y-20646700I100400J0D01*
G01*
G37*
G36*
G01*
X18524600Y-21471700D02*
X18725400Y-21471700D01*
G75*
G02*
X18825800Y-21572100I0J-100400D01*
G01*
X18825800Y-22947900D01*
G75*
G02*
X18725400Y-23048300I-100400J0D01*
G01*
X18524600Y-23048300D01*
G75*
G02*
X18424200Y-22947900I0J100400D01*
G01*
X18424200Y-21572100D01*
G75*
G02*
X18524600Y-21471700I100400J0D01*
G01*
G37*
G36*
G01*
X18024600Y-21471700D02*
X18225400Y-21471700D01*
G75*
G02*
X18325800Y-21572100I0J-100400D01*
G01*
X18325800Y-22947900D01*
G75*
G02*
X18225400Y-23048300I-100400J0D01*
G01*
X18024600Y-23048300D01*
G75*
G02*
X17924200Y-22947900I0J100400D01*
G01*
X17924200Y-21572100D01*
G75*
G02*
X18024600Y-21471700I100400J0D01*
G01*
G37*
G36*
G01*
X17524600Y-21471700D02*
X17725400Y-21471700D01*
G75*
G02*
X17825800Y-21572100I0J-100400D01*
G01*
X17825800Y-22947900D01*
G75*
G02*
X17725400Y-23048300I-100400J0D01*
G01*
X17524600Y-23048300D01*
G75*
G02*
X17424200Y-22947900I0J100400D01*
G01*
X17424200Y-21572100D01*
G75*
G02*
X17524600Y-21471700I100400J0D01*
G01*
G37*
G36*
G01*
X17024600Y-21471700D02*
X17225400Y-21471700D01*
G75*
G02*
X17325800Y-21572100I0J-100400D01*
G01*
X17325800Y-22947900D01*
G75*
G02*
X17225400Y-23048300I-100400J0D01*
G01*
X17024600Y-23048300D01*
G75*
G02*
X16924200Y-22947900I0J100400D01*
G01*
X16924200Y-21572100D01*
G75*
G02*
X17024600Y-21471700I100400J0D01*
G01*
G37*
G36*
G01*
X16524600Y-21471700D02*
X16725400Y-21471700D01*
G75*
G02*
X16825800Y-21572100I0J-100400D01*
G01*
X16825800Y-22947900D01*
G75*
G02*
X16725400Y-23048300I-100400J0D01*
G01*
X16524600Y-23048300D01*
G75*
G02*
X16424200Y-22947900I0J100400D01*
G01*
X16424200Y-21572100D01*
G75*
G02*
X16524600Y-21471700I100400J0D01*
G01*
G37*
G36*
G01*
X16024600Y-21471700D02*
X16225400Y-21471700D01*
G75*
G02*
X16325800Y-21572100I0J-100400D01*
G01*
X16325800Y-22947900D01*
G75*
G02*
X16225400Y-23048300I-100400J0D01*
G01*
X16024600Y-23048300D01*
G75*
G02*
X15924200Y-22947900I0J100400D01*
G01*
X15924200Y-21572100D01*
G75*
G02*
X16024600Y-21471700I100400J0D01*
G01*
G37*
G36*
G01*
X15524600Y-21471700D02*
X15725400Y-21471700D01*
G75*
G02*
X15825800Y-21572100I0J-100400D01*
G01*
X15825800Y-22947900D01*
G75*
G02*
X15725400Y-23048300I-100400J0D01*
G01*
X15524600Y-23048300D01*
G75*
G02*
X15424200Y-22947900I0J100400D01*
G01*
X15424200Y-21572100D01*
G75*
G02*
X15524600Y-21471700I100400J0D01*
G01*
G37*
G36*
G01*
X15024600Y-21471700D02*
X15225400Y-21471700D01*
G75*
G02*
X15325800Y-21572100I0J-100400D01*
G01*
X15325800Y-22947900D01*
G75*
G02*
X15225400Y-23048300I-100400J0D01*
G01*
X15024600Y-23048300D01*
G75*
G02*
X14924200Y-22947900I0J100400D01*
G01*
X14924200Y-21572100D01*
G75*
G02*
X15024600Y-21471700I100400J0D01*
G01*
G37*
G36*
G01*
X14524600Y-21471700D02*
X14725400Y-21471700D01*
G75*
G02*
X14825800Y-21572100I0J-100400D01*
G01*
X14825800Y-22947900D01*
G75*
G02*
X14725400Y-23048300I-100400J0D01*
G01*
X14524600Y-23048300D01*
G75*
G02*
X14424200Y-22947900I0J100400D01*
G01*
X14424200Y-21572100D01*
G75*
G02*
X14524600Y-21471700I100400J0D01*
G01*
G37*
G36*
G01*
X14024600Y-21471700D02*
X14225400Y-21471700D01*
G75*
G02*
X14325800Y-21572100I0J-100400D01*
G01*
X14325800Y-22947900D01*
G75*
G02*
X14225400Y-23048300I-100400J0D01*
G01*
X14024600Y-23048300D01*
G75*
G02*
X13924200Y-22947900I0J100400D01*
G01*
X13924200Y-21572100D01*
G75*
G02*
X14024600Y-21471700I100400J0D01*
G01*
G37*
G36*
G01*
X13524600Y-21471700D02*
X13725400Y-21471700D01*
G75*
G02*
X13825800Y-21572100I0J-100400D01*
G01*
X13825800Y-22947900D01*
G75*
G02*
X13725400Y-23048300I-100400J0D01*
G01*
X13524600Y-23048300D01*
G75*
G02*
X13424200Y-22947900I0J100400D01*
G01*
X13424200Y-21572100D01*
G75*
G02*
X13524600Y-21471700I100400J0D01*
G01*
G37*
G36*
G01*
X13024600Y-21471700D02*
X13225400Y-21471700D01*
G75*
G02*
X13325800Y-21572100I0J-100400D01*
G01*
X13325800Y-22947900D01*
G75*
G02*
X13225400Y-23048300I-100400J0D01*
G01*
X13024600Y-23048300D01*
G75*
G02*
X12924200Y-22947900I0J100400D01*
G01*
X12924200Y-21572100D01*
G75*
G02*
X13024600Y-21471700I100400J0D01*
G01*
G37*
G36*
G01*
X11024600Y-20646700D02*
X12400400Y-20646700D01*
G75*
G02*
X12500800Y-20747100I0J-100400D01*
G01*
X12500800Y-20947900D01*
G75*
G02*
X12400400Y-21048300I-100400J0D01*
G01*
X11024600Y-21048300D01*
G75*
G02*
X10924200Y-20947900I0J100400D01*
G01*
X10924200Y-20747100D01*
G75*
G02*
X11024600Y-20646700I100400J0D01*
G01*
G37*
G36*
G01*
X11024600Y-20146700D02*
X12400400Y-20146700D01*
G75*
G02*
X12500800Y-20247100I0J-100400D01*
G01*
X12500800Y-20447900D01*
G75*
G02*
X12400400Y-20548300I-100400J0D01*
G01*
X11024600Y-20548300D01*
G75*
G02*
X10924200Y-20447900I0J100400D01*
G01*
X10924200Y-20247100D01*
G75*
G02*
X11024600Y-20146700I100400J0D01*
G01*
G37*
G36*
G01*
X11024600Y-19646700D02*
X12400400Y-19646700D01*
G75*
G02*
X12500800Y-19747100I0J-100400D01*
G01*
X12500800Y-19947900D01*
G75*
G02*
X12400400Y-20048300I-100400J0D01*
G01*
X11024600Y-20048300D01*
G75*
G02*
X10924200Y-19947900I0J100400D01*
G01*
X10924200Y-19747100D01*
G75*
G02*
X11024600Y-19646700I100400J0D01*
G01*
G37*
G36*
G01*
X11024600Y-19146700D02*
X12400400Y-19146700D01*
G75*
G02*
X12500800Y-19247100I0J-100400D01*
G01*
X12500800Y-19447900D01*
G75*
G02*
X12400400Y-19548300I-100400J0D01*
G01*
X11024600Y-19548300D01*
G75*
G02*
X10924200Y-19447900I0J100400D01*
G01*
X10924200Y-19247100D01*
G75*
G02*
X11024600Y-19146700I100400J0D01*
G01*
G37*
G36*
G01*
X11024600Y-18646700D02*
X12400400Y-18646700D01*
G75*
G02*
X12500800Y-18747100I0J-100400D01*
G01*
X12500800Y-18947900D01*
G75*
G02*
X12400400Y-19048300I-100400J0D01*
G01*
X11024600Y-19048300D01*
G75*
G02*
X10924200Y-18947900I0J100400D01*
G01*
X10924200Y-18747100D01*
G75*
G02*
X11024600Y-18646700I100400J0D01*
G01*
G37*
G36*
G01*
X11024600Y-18146700D02*
X12400400Y-18146700D01*
G75*
G02*
X12500800Y-18247100I0J-100400D01*
G01*
X12500800Y-18447900D01*
G75*
G02*
X12400400Y-18548300I-100400J0D01*
G01*
X11024600Y-18548300D01*
G75*
G02*
X10924200Y-18447900I0J100400D01*
G01*
X10924200Y-18247100D01*
G75*
G02*
X11024600Y-18146700I100400J0D01*
G01*
G37*
G36*
G01*
X11024600Y-17646700D02*
X12400400Y-17646700D01*
G75*
G02*
X12500800Y-17747100I0J-100400D01*
G01*
X12500800Y-17947900D01*
G75*
G02*
X12400400Y-18048300I-100400J0D01*
G01*
X11024600Y-18048300D01*
G75*
G02*
X10924200Y-17947900I0J100400D01*
G01*
X10924200Y-17747100D01*
G75*
G02*
X11024600Y-17646700I100400J0D01*
G01*
G37*
G36*
G01*
X11024600Y-17146700D02*
X12400400Y-17146700D01*
G75*
G02*
X12500800Y-17247100I0J-100400D01*
G01*
X12500800Y-17447900D01*
G75*
G02*
X12400400Y-17548300I-100400J0D01*
G01*
X11024600Y-17548300D01*
G75*
G02*
X10924200Y-17447900I0J100400D01*
G01*
X10924200Y-17247100D01*
G75*
G02*
X11024600Y-17146700I100400J0D01*
G01*
G37*
G36*
G01*
X11024600Y-16646700D02*
X12400400Y-16646700D01*
G75*
G02*
X12500800Y-16747100I0J-100400D01*
G01*
X12500800Y-16947900D01*
G75*
G02*
X12400400Y-17048300I-100400J0D01*
G01*
X11024600Y-17048300D01*
G75*
G02*
X10924200Y-16947900I0J100400D01*
G01*
X10924200Y-16747100D01*
G75*
G02*
X11024600Y-16646700I100400J0D01*
G01*
G37*
G36*
G01*
X11024600Y-16146700D02*
X12400400Y-16146700D01*
G75*
G02*
X12500800Y-16247100I0J-100400D01*
G01*
X12500800Y-16447900D01*
G75*
G02*
X12400400Y-16548300I-100400J0D01*
G01*
X11024600Y-16548300D01*
G75*
G02*
X10924200Y-16447900I0J100400D01*
G01*
X10924200Y-16247100D01*
G75*
G02*
X11024600Y-16146700I100400J0D01*
G01*
G37*
G36*
G01*
X11024600Y-15646700D02*
X12400400Y-15646700D01*
G75*
G02*
X12500800Y-15747100I0J-100400D01*
G01*
X12500800Y-15947900D01*
G75*
G02*
X12400400Y-16048300I-100400J0D01*
G01*
X11024600Y-16048300D01*
G75*
G02*
X10924200Y-15947900I0J100400D01*
G01*
X10924200Y-15747100D01*
G75*
G02*
X11024600Y-15646700I100400J0D01*
G01*
G37*
G36*
G01*
X11024600Y-15146700D02*
X12400400Y-15146700D01*
G75*
G02*
X12500800Y-15247100I0J-100400D01*
G01*
X12500800Y-15447900D01*
G75*
G02*
X12400400Y-15548300I-100400J0D01*
G01*
X11024600Y-15548300D01*
G75*
G02*
X10924200Y-15447900I0J100400D01*
G01*
X10924200Y-15247100D01*
G75*
G02*
X11024600Y-15146700I100400J0D01*
G01*
G37*
%TD*%
%TO.C,J2*%
G36*
G01*
X215000Y-299200D02*
X4215000Y-299200D01*
G75*
G02*
X4265800Y-350000I0J-50800D01*
G01*
X4265800Y-1850000D01*
G75*
G02*
X4215000Y-1900800I-50800J0D01*
G01*
X215000Y-1900800D01*
G75*
G02*
X164200Y-1850000I0J50800D01*
G01*
X164200Y-350000D01*
G75*
G02*
X215000Y-299200I50800J0D01*
G01*
G37*
G36*
G01*
X215000Y-10799200D02*
X4215000Y-10799200D01*
G75*
G02*
X4265800Y-10850000I0J-50800D01*
G01*
X4265800Y-12350000D01*
G75*
G02*
X4215000Y-12400800I-50800J0D01*
G01*
X215000Y-12400800D01*
G75*
G02*
X164200Y-12350000I0J50800D01*
G01*
X164200Y-10850000D01*
G75*
G02*
X215000Y-10799200I50800J0D01*
G01*
G37*
G36*
G01*
X5175000Y-3399200D02*
X6175000Y-3399200D01*
G75*
G02*
X6225800Y-3450000I0J-50800D01*
G01*
X6225800Y-3750000D01*
G75*
G02*
X6175000Y-3800800I-50800J0D01*
G01*
X5175000Y-3800800D01*
G75*
G02*
X5124200Y-3750000I0J50800D01*
G01*
X5124200Y-3450000D01*
G75*
G02*
X5175000Y-3399200I50800J0D01*
G01*
G37*
G36*
G01*
X5175000Y-3899200D02*
X6175000Y-3899200D01*
G75*
G02*
X6225800Y-3950000I0J-50800D01*
G01*
X6225800Y-4250000D01*
G75*
G02*
X6175000Y-4300800I-50800J0D01*
G01*
X5175000Y-4300800D01*
G75*
G02*
X5124200Y-4250000I0J50800D01*
G01*
X5124200Y-3950000D01*
G75*
G02*
X5175000Y-3899200I50800J0D01*
G01*
G37*
G36*
G01*
X5175000Y-4399200D02*
X6175000Y-4399200D01*
G75*
G02*
X6225800Y-4450000I0J-50800D01*
G01*
X6225800Y-4750000D01*
G75*
G02*
X6175000Y-4800800I-50800J0D01*
G01*
X5175000Y-4800800D01*
G75*
G02*
X5124200Y-4750000I0J50800D01*
G01*
X5124200Y-4450000D01*
G75*
G02*
X5175000Y-4399200I50800J0D01*
G01*
G37*
G36*
G01*
X5175000Y-4899200D02*
X6175000Y-4899200D01*
G75*
G02*
X6225800Y-4950000I0J-50800D01*
G01*
X6225800Y-5250000D01*
G75*
G02*
X6175000Y-5300800I-50800J0D01*
G01*
X5175000Y-5300800D01*
G75*
G02*
X5124200Y-5250000I0J50800D01*
G01*
X5124200Y-4950000D01*
G75*
G02*
X5175000Y-4899200I50800J0D01*
G01*
G37*
G36*
G01*
X5175000Y-5399200D02*
X6175000Y-5399200D01*
G75*
G02*
X6225800Y-5450000I0J-50800D01*
G01*
X6225800Y-5750000D01*
G75*
G02*
X6175000Y-5800800I-50800J0D01*
G01*
X5175000Y-5800800D01*
G75*
G02*
X5124200Y-5750000I0J50800D01*
G01*
X5124200Y-5450000D01*
G75*
G02*
X5175000Y-5399200I50800J0D01*
G01*
G37*
G36*
G01*
X5175000Y-6899200D02*
X6175000Y-6899200D01*
G75*
G02*
X6225800Y-6950000I0J-50800D01*
G01*
X6225800Y-7250000D01*
G75*
G02*
X6175000Y-7300800I-50800J0D01*
G01*
X5175000Y-7300800D01*
G75*
G02*
X5124200Y-7250000I0J50800D01*
G01*
X5124200Y-6950000D01*
G75*
G02*
X5175000Y-6899200I50800J0D01*
G01*
G37*
G36*
G01*
X5175000Y-7399200D02*
X6175000Y-7399200D01*
G75*
G02*
X6225800Y-7450000I0J-50800D01*
G01*
X6225800Y-7750000D01*
G75*
G02*
X6175000Y-7800800I-50800J0D01*
G01*
X5175000Y-7800800D01*
G75*
G02*
X5124200Y-7750000I0J50800D01*
G01*
X5124200Y-7450000D01*
G75*
G02*
X5175000Y-7399200I50800J0D01*
G01*
G37*
G36*
G01*
X5175000Y-7899200D02*
X6175000Y-7899200D01*
G75*
G02*
X6225800Y-7950000I0J-50800D01*
G01*
X6225800Y-8250000D01*
G75*
G02*
X6175000Y-8300800I-50800J0D01*
G01*
X5175000Y-8300800D01*
G75*
G02*
X5124200Y-8250000I0J50800D01*
G01*
X5124200Y-7950000D01*
G75*
G02*
X5175000Y-7899200I50800J0D01*
G01*
G37*
G36*
G01*
X5175000Y-8399200D02*
X6175000Y-8399200D01*
G75*
G02*
X6225800Y-8450000I0J-50800D01*
G01*
X6225800Y-8750000D01*
G75*
G02*
X6175000Y-8800800I-50800J0D01*
G01*
X5175000Y-8800800D01*
G75*
G02*
X5124200Y-8750000I0J50800D01*
G01*
X5124200Y-8450000D01*
G75*
G02*
X5175000Y-8399200I50800J0D01*
G01*
G37*
G36*
G01*
X5175000Y-8899200D02*
X6175000Y-8899200D01*
G75*
G02*
X6225800Y-8950000I0J-50800D01*
G01*
X6225800Y-9250000D01*
G75*
G02*
X6175000Y-9300800I-50800J0D01*
G01*
X5175000Y-9300800D01*
G75*
G02*
X5124200Y-9250000I0J50800D01*
G01*
X5124200Y-8950000D01*
G75*
G02*
X5175000Y-8899200I50800J0D01*
G01*
G37*
G36*
G01*
X5175000Y-5899200D02*
X6175000Y-5899200D01*
G75*
G02*
X6225800Y-5950000I0J-50800D01*
G01*
X6225800Y-6250000D01*
G75*
G02*
X6175000Y-6300800I-50800J0D01*
G01*
X5175000Y-6300800D01*
G75*
G02*
X5124200Y-6250000I0J50800D01*
G01*
X5124200Y-5950000D01*
G75*
G02*
X5175000Y-5899200I50800J0D01*
G01*
G37*
G36*
G01*
X5175000Y-6399200D02*
X6175000Y-6399200D01*
G75*
G02*
X6225800Y-6450000I0J-50800D01*
G01*
X6225800Y-6750000D01*
G75*
G02*
X6175000Y-6800800I-50800J0D01*
G01*
X5175000Y-6800800D01*
G75*
G02*
X5124200Y-6750000I0J50800D01*
G01*
X5124200Y-6450000D01*
G75*
G02*
X5175000Y-6399200I50800J0D01*
G01*
G37*
G36*
G01*
X5175000Y-9549200D02*
X6175000Y-9549200D01*
G75*
G02*
X6225800Y-9600000I0J-50800D01*
G01*
X6225800Y-10600000D01*
G75*
G02*
X6175000Y-10650800I-50800J0D01*
G01*
X5175000Y-10650800D01*
G75*
G02*
X5124200Y-10600000I0J50800D01*
G01*
X5124200Y-9600000D01*
G75*
G02*
X5175000Y-9549200I50800J0D01*
G01*
G37*
G36*
G01*
X5175000Y-2049200D02*
X6175000Y-2049200D01*
G75*
G02*
X6225800Y-2100000I0J-50800D01*
G01*
X6225800Y-3100000D01*
G75*
G02*
X6175000Y-3150800I-50800J0D01*
G01*
X5175000Y-3150800D01*
G75*
G02*
X5124200Y-3100000I0J50800D01*
G01*
X5124200Y-2100000D01*
G75*
G02*
X5175000Y-2049200I50800J0D01*
G01*
G37*
%TD*%
D15*
%TO.C,TP1*%
X20320000Y-13462000D03*
%TD*%
%TO.C,TP2*%
X17399000Y-24257000D03*
%TD*%
%TO.C,TP3*%
X15367000Y-24257000D03*
%TD*%
D16*
%TO.C,SW1*%
X24077500Y-16002000D03*
X22277500Y-16002000D03*
%TD*%
%TO.C,C9*%
G36*
G01*
X13611200Y-9070400D02*
X13611200Y-8709600D01*
G75*
G02*
X13791600Y-8529200I180400J0D01*
G01*
X14267400Y-8529200D01*
G75*
G02*
X14447800Y-8709600I0J-180400D01*
G01*
X14447800Y-9070400D01*
G75*
G02*
X14267400Y-9250800I-180400J0D01*
G01*
X13791600Y-9250800D01*
G75*
G02*
X13611200Y-9070400I0J180400D01*
G01*
G37*
G36*
G01*
X12476200Y-9070400D02*
X12476200Y-8709600D01*
G75*
G02*
X12656600Y-8529200I180400J0D01*
G01*
X13132400Y-8529200D01*
G75*
G02*
X13312800Y-8709600I0J-180400D01*
G01*
X13312800Y-9070400D01*
G75*
G02*
X13132400Y-9250800I-180400J0D01*
G01*
X12656600Y-9250800D01*
G75*
G02*
X12476200Y-9070400I0J180400D01*
G01*
G37*
%TD*%
%TO.C,U1*%
G36*
G01*
X16985800Y-3187600D02*
X16985800Y-3438400D01*
G75*
G02*
X16860400Y-3563800I-125400J0D01*
G01*
X15534600Y-3563800D01*
G75*
G02*
X15409200Y-3438400I0J125400D01*
G01*
X15409200Y-3187600D01*
G75*
G02*
X15534600Y-3062200I125400J0D01*
G01*
X16860400Y-3062200D01*
G75*
G02*
X16985800Y-3187600I0J-125400D01*
G01*
G37*
G36*
G01*
X16985800Y-3837600D02*
X16985800Y-4088400D01*
G75*
G02*
X16860400Y-4213800I-125400J0D01*
G01*
X15534600Y-4213800D01*
G75*
G02*
X15409200Y-4088400I0J125400D01*
G01*
X15409200Y-3837600D01*
G75*
G02*
X15534600Y-3712200I125400J0D01*
G01*
X16860400Y-3712200D01*
G75*
G02*
X16985800Y-3837600I0J-125400D01*
G01*
G37*
G36*
G01*
X16985800Y-4487600D02*
X16985800Y-4738400D01*
G75*
G02*
X16860400Y-4863800I-125400J0D01*
G01*
X15534600Y-4863800D01*
G75*
G02*
X15409200Y-4738400I0J125400D01*
G01*
X15409200Y-4487600D01*
G75*
G02*
X15534600Y-4362200I125400J0D01*
G01*
X16860400Y-4362200D01*
G75*
G02*
X16985800Y-4487600I0J-125400D01*
G01*
G37*
G36*
G01*
X16985800Y-5137600D02*
X16985800Y-5388400D01*
G75*
G02*
X16860400Y-5513800I-125400J0D01*
G01*
X15534600Y-5513800D01*
G75*
G02*
X15409200Y-5388400I0J125400D01*
G01*
X15409200Y-5137600D01*
G75*
G02*
X15534600Y-5012200I125400J0D01*
G01*
X16860400Y-5012200D01*
G75*
G02*
X16985800Y-5137600I0J-125400D01*
G01*
G37*
G36*
G01*
X16985800Y-5787600D02*
X16985800Y-6038400D01*
G75*
G02*
X16860400Y-6163800I-125400J0D01*
G01*
X15534600Y-6163800D01*
G75*
G02*
X15409200Y-6038400I0J125400D01*
G01*
X15409200Y-5787600D01*
G75*
G02*
X15534600Y-5662200I125400J0D01*
G01*
X16860400Y-5662200D01*
G75*
G02*
X16985800Y-5787600I0J-125400D01*
G01*
G37*
G36*
G01*
X16985800Y-6437600D02*
X16985800Y-6688400D01*
G75*
G02*
X16860400Y-6813800I-125400J0D01*
G01*
X15534600Y-6813800D01*
G75*
G02*
X15409200Y-6688400I0J125400D01*
G01*
X15409200Y-6437600D01*
G75*
G02*
X15534600Y-6312200I125400J0D01*
G01*
X16860400Y-6312200D01*
G75*
G02*
X16985800Y-6437600I0J-125400D01*
G01*
G37*
G36*
G01*
X16985800Y-7087600D02*
X16985800Y-7338400D01*
G75*
G02*
X16860400Y-7463800I-125400J0D01*
G01*
X15534600Y-7463800D01*
G75*
G02*
X15409200Y-7338400I0J125400D01*
G01*
X15409200Y-7087600D01*
G75*
G02*
X15534600Y-6962200I125400J0D01*
G01*
X16860400Y-6962200D01*
G75*
G02*
X16985800Y-7087600I0J-125400D01*
G01*
G37*
G36*
G01*
X16985800Y-7737600D02*
X16985800Y-7988400D01*
G75*
G02*
X16860400Y-8113800I-125400J0D01*
G01*
X15534600Y-8113800D01*
G75*
G02*
X15409200Y-7988400I0J125400D01*
G01*
X15409200Y-7737600D01*
G75*
G02*
X15534600Y-7612200I125400J0D01*
G01*
X16860400Y-7612200D01*
G75*
G02*
X16985800Y-7737600I0J-125400D01*
G01*
G37*
G36*
G01*
X11260800Y-7737600D02*
X11260800Y-7988400D01*
G75*
G02*
X11135400Y-8113800I-125400J0D01*
G01*
X9809600Y-8113800D01*
G75*
G02*
X9684200Y-7988400I0J125400D01*
G01*
X9684200Y-7737600D01*
G75*
G02*
X9809600Y-7612200I125400J0D01*
G01*
X11135400Y-7612200D01*
G75*
G02*
X11260800Y-7737600I0J-125400D01*
G01*
G37*
G36*
G01*
X11260800Y-7087600D02*
X11260800Y-7338400D01*
G75*
G02*
X11135400Y-7463800I-125400J0D01*
G01*
X9809600Y-7463800D01*
G75*
G02*
X9684200Y-7338400I0J125400D01*
G01*
X9684200Y-7087600D01*
G75*
G02*
X9809600Y-6962200I125400J0D01*
G01*
X11135400Y-6962200D01*
G75*
G02*
X11260800Y-7087600I0J-125400D01*
G01*
G37*
G36*
G01*
X11260800Y-6437600D02*
X11260800Y-6688400D01*
G75*
G02*
X11135400Y-6813800I-125400J0D01*
G01*
X9809600Y-6813800D01*
G75*
G02*
X9684200Y-6688400I0J125400D01*
G01*
X9684200Y-6437600D01*
G75*
G02*
X9809600Y-6312200I125400J0D01*
G01*
X11135400Y-6312200D01*
G75*
G02*
X11260800Y-6437600I0J-125400D01*
G01*
G37*
G36*
G01*
X11260800Y-5787600D02*
X11260800Y-6038400D01*
G75*
G02*
X11135400Y-6163800I-125400J0D01*
G01*
X9809600Y-6163800D01*
G75*
G02*
X9684200Y-6038400I0J125400D01*
G01*
X9684200Y-5787600D01*
G75*
G02*
X9809600Y-5662200I125400J0D01*
G01*
X11135400Y-5662200D01*
G75*
G02*
X11260800Y-5787600I0J-125400D01*
G01*
G37*
G36*
G01*
X11260800Y-5137600D02*
X11260800Y-5388400D01*
G75*
G02*
X11135400Y-5513800I-125400J0D01*
G01*
X9809600Y-5513800D01*
G75*
G02*
X9684200Y-5388400I0J125400D01*
G01*
X9684200Y-5137600D01*
G75*
G02*
X9809600Y-5012200I125400J0D01*
G01*
X11135400Y-5012200D01*
G75*
G02*
X11260800Y-5137600I0J-125400D01*
G01*
G37*
G36*
G01*
X11260800Y-4487600D02*
X11260800Y-4738400D01*
G75*
G02*
X11135400Y-4863800I-125400J0D01*
G01*
X9809600Y-4863800D01*
G75*
G02*
X9684200Y-4738400I0J125400D01*
G01*
X9684200Y-4487600D01*
G75*
G02*
X9809600Y-4362200I125400J0D01*
G01*
X11135400Y-4362200D01*
G75*
G02*
X11260800Y-4487600I0J-125400D01*
G01*
G37*
G36*
G01*
X11260800Y-3837600D02*
X11260800Y-4088400D01*
G75*
G02*
X11135400Y-4213800I-125400J0D01*
G01*
X9809600Y-4213800D01*
G75*
G02*
X9684200Y-4088400I0J125400D01*
G01*
X9684200Y-3837600D01*
G75*
G02*
X9809600Y-3712200I125400J0D01*
G01*
X11135400Y-3712200D01*
G75*
G02*
X11260800Y-3837600I0J-125400D01*
G01*
G37*
G36*
G01*
X11260800Y-3187600D02*
X11260800Y-3438400D01*
G75*
G02*
X11135400Y-3563800I-125400J0D01*
G01*
X9809600Y-3563800D01*
G75*
G02*
X9684200Y-3438400I0J125400D01*
G01*
X9684200Y-3187600D01*
G75*
G02*
X9809600Y-3062200I125400J0D01*
G01*
X11135400Y-3062200D01*
G75*
G02*
X11260800Y-3187600I0J-125400D01*
G01*
G37*
%TD*%
%TO.C,U3*%
G36*
G01*
X6609000Y-17413200D02*
X5959000Y-17413200D01*
G75*
G02*
X5908200Y-17362400I0J50800D01*
G01*
X5908200Y-15802400D01*
G75*
G02*
X5959000Y-15751600I50800J0D01*
G01*
X6609000Y-15751600D01*
G75*
G02*
X6659800Y-15802400I0J-50800D01*
G01*
X6659800Y-17362400D01*
G75*
G02*
X6609000Y-17413200I-50800J0D01*
G01*
G37*
G36*
G01*
X4709000Y-17413200D02*
X4059000Y-17413200D01*
G75*
G02*
X4008200Y-17362400I0J50800D01*
G01*
X4008200Y-15802400D01*
G75*
G02*
X4059000Y-15751600I50800J0D01*
G01*
X4709000Y-15751600D01*
G75*
G02*
X4759800Y-15802400I0J-50800D01*
G01*
X4759800Y-17362400D01*
G75*
G02*
X4709000Y-17413200I-50800J0D01*
G01*
G37*
G36*
G01*
X4709000Y-20113200D02*
X4059000Y-20113200D01*
G75*
G02*
X4008200Y-20062400I0J50800D01*
G01*
X4008200Y-18502400D01*
G75*
G02*
X4059000Y-18451600I50800J0D01*
G01*
X4709000Y-18451600D01*
G75*
G02*
X4759800Y-18502400I0J-50800D01*
G01*
X4759800Y-20062400D01*
G75*
G02*
X4709000Y-20113200I-50800J0D01*
G01*
G37*
G36*
G01*
X5659000Y-20113200D02*
X5009000Y-20113200D01*
G75*
G02*
X4958200Y-20062400I0J50800D01*
G01*
X4958200Y-18502400D01*
G75*
G02*
X5009000Y-18451600I50800J0D01*
G01*
X5659000Y-18451600D01*
G75*
G02*
X5709800Y-18502400I0J-50800D01*
G01*
X5709800Y-20062400D01*
G75*
G02*
X5659000Y-20113200I-50800J0D01*
G01*
G37*
G36*
G01*
X6609000Y-20113200D02*
X5959000Y-20113200D01*
G75*
G02*
X5908200Y-20062400I0J50800D01*
G01*
X5908200Y-18502400D01*
G75*
G02*
X5959000Y-18451600I50800J0D01*
G01*
X6609000Y-18451600D01*
G75*
G02*
X6659800Y-18502400I0J-50800D01*
G01*
X6659800Y-20062400D01*
G75*
G02*
X6609000Y-20113200I-50800J0D01*
G01*
G37*
%TD*%
%TO.C,R5*%
G36*
G01*
X24569400Y-20257800D02*
X24198600Y-20257800D01*
G75*
G02*
X24013200Y-20072400I0J185400D01*
G01*
X24013200Y-19626600D01*
G75*
G02*
X24198600Y-19441200I185400J0D01*
G01*
X24569400Y-19441200D01*
G75*
G02*
X24754800Y-19626600I0J-185400D01*
G01*
X24754800Y-20072400D01*
G75*
G02*
X24569400Y-20257800I-185400J0D01*
G01*
G37*
G36*
G01*
X24569400Y-21452800D02*
X24198600Y-21452800D01*
G75*
G02*
X24013200Y-21267400I0J185400D01*
G01*
X24013200Y-20821600D01*
G75*
G02*
X24198600Y-20636200I185400J0D01*
G01*
X24569400Y-20636200D01*
G75*
G02*
X24754800Y-20821600I0J-185400D01*
G01*
X24754800Y-21267400D01*
G75*
G02*
X24569400Y-21452800I-185400J0D01*
G01*
G37*
%TD*%
%TO.C,R4*%
G36*
G01*
X19368800Y-24071600D02*
X19368800Y-24442400D01*
G75*
G02*
X19183400Y-24627800I-185400J0D01*
G01*
X18737600Y-24627800D01*
G75*
G02*
X18552200Y-24442400I0J185400D01*
G01*
X18552200Y-24071600D01*
G75*
G02*
X18737600Y-23886200I185400J0D01*
G01*
X19183400Y-23886200D01*
G75*
G02*
X19368800Y-24071600I0J-185400D01*
G01*
G37*
G36*
G01*
X20563800Y-24071600D02*
X20563800Y-24442400D01*
G75*
G02*
X20378400Y-24627800I-185400J0D01*
G01*
X19932600Y-24627800D01*
G75*
G02*
X19747200Y-24442400I0J185400D01*
G01*
X19747200Y-24071600D01*
G75*
G02*
X19932600Y-23886200I185400J0D01*
G01*
X20378400Y-23886200D01*
G75*
G02*
X20563800Y-24071600I0J-185400D01*
G01*
G37*
%TD*%
%TO.C,R3*%
G36*
G01*
X22537400Y-20257800D02*
X22166600Y-20257800D01*
G75*
G02*
X21981200Y-20072400I0J185400D01*
G01*
X21981200Y-19626600D01*
G75*
G02*
X22166600Y-19441200I185400J0D01*
G01*
X22537400Y-19441200D01*
G75*
G02*
X22722800Y-19626600I0J-185400D01*
G01*
X22722800Y-20072400D01*
G75*
G02*
X22537400Y-20257800I-185400J0D01*
G01*
G37*
G36*
G01*
X22537400Y-21452800D02*
X22166600Y-21452800D01*
G75*
G02*
X21981200Y-21267400I0J185400D01*
G01*
X21981200Y-20821600D01*
G75*
G02*
X22166600Y-20636200I185400J0D01*
G01*
X22537400Y-20636200D01*
G75*
G02*
X22722800Y-20821600I0J-185400D01*
G01*
X22722800Y-21267400D01*
G75*
G02*
X22537400Y-21452800I-185400J0D01*
G01*
G37*
%TD*%
%TO.C,R2*%
G36*
G01*
X23553400Y-20257800D02*
X23182600Y-20257800D01*
G75*
G02*
X22997200Y-20072400I0J185400D01*
G01*
X22997200Y-19626600D01*
G75*
G02*
X23182600Y-19441200I185400J0D01*
G01*
X23553400Y-19441200D01*
G75*
G02*
X23738800Y-19626600I0J-185400D01*
G01*
X23738800Y-20072400D01*
G75*
G02*
X23553400Y-20257800I-185400J0D01*
G01*
G37*
G36*
G01*
X23553400Y-21452800D02*
X23182600Y-21452800D01*
G75*
G02*
X22997200Y-21267400I0J185400D01*
G01*
X22997200Y-20821600D01*
G75*
G02*
X23182600Y-20636200I185400J0D01*
G01*
X23553400Y-20636200D01*
G75*
G02*
X23738800Y-20821600I0J-185400D01*
G01*
X23738800Y-21267400D01*
G75*
G02*
X23553400Y-21452800I-185400J0D01*
G01*
G37*
%TD*%
%TO.C,FB1*%
G36*
G01*
X3924800Y-20845800D02*
X3924800Y-21216600D01*
G75*
G02*
X3739400Y-21402000I-185400J0D01*
G01*
X3243600Y-21402000D01*
G75*
G02*
X3058200Y-21216600I0J185400D01*
G01*
X3058200Y-20845800D01*
G75*
G02*
X3243600Y-20660400I185400J0D01*
G01*
X3739400Y-20660400D01*
G75*
G02*
X3924800Y-20845800I0J-185400D01*
G01*
G37*
G36*
G01*
X5069800Y-20845800D02*
X5069800Y-21216600D01*
G75*
G02*
X4884400Y-21402000I-185400J0D01*
G01*
X4388600Y-21402000D01*
G75*
G02*
X4203200Y-21216600I0J185400D01*
G01*
X4203200Y-20845800D01*
G75*
G02*
X4388600Y-20660400I185400J0D01*
G01*
X4884400Y-20660400D01*
G75*
G02*
X5069800Y-20845800I0J-185400D01*
G01*
G37*
%TD*%
%TO.C,DS1*%
G36*
G01*
X24787800Y-23795000D02*
X24787800Y-24595000D01*
G75*
G02*
X24737000Y-24645800I-50800J0D01*
G01*
X23737000Y-24645800D01*
G75*
G02*
X23686200Y-24595000I0J50800D01*
G01*
X23686200Y-23795000D01*
G75*
G02*
X23737000Y-23744200I50800J0D01*
G01*
X24737000Y-23744200D01*
G75*
G02*
X24787800Y-23795000I0J-50800D01*
G01*
G37*
G36*
G01*
X22287800Y-23795000D02*
X22287800Y-24595000D01*
G75*
G02*
X22237000Y-24645800I-50800J0D01*
G01*
X21237000Y-24645800D01*
G75*
G02*
X21186200Y-24595000I0J50800D01*
G01*
X21186200Y-23795000D01*
G75*
G02*
X21237000Y-23744200I50800J0D01*
G01*
X22237000Y-23744200D01*
G75*
G02*
X22287800Y-23795000I0J-50800D01*
G01*
G37*
G36*
G01*
X22287800Y-22395000D02*
X22287800Y-23195000D01*
G75*
G02*
X22237000Y-23245800I-50800J0D01*
G01*
X21237000Y-23245800D01*
G75*
G02*
X21186200Y-23195000I0J50800D01*
G01*
X21186200Y-22395000D01*
G75*
G02*
X21237000Y-22344200I50800J0D01*
G01*
X22237000Y-22344200D01*
G75*
G02*
X22287800Y-22395000I0J-50800D01*
G01*
G37*
G36*
G01*
X24787800Y-22395000D02*
X24787800Y-23195000D01*
G75*
G02*
X24737000Y-23245800I-50800J0D01*
G01*
X23737000Y-23245800D01*
G75*
G02*
X23686200Y-23195000I0J50800D01*
G01*
X23686200Y-22395000D01*
G75*
G02*
X23737000Y-22344200I50800J0D01*
G01*
X24737000Y-22344200D01*
G75*
G02*
X24787800Y-22395000I0J-50800D01*
G01*
G37*
%TD*%
%TO.C,D1*%
G36*
G01*
X3183200Y-24425200D02*
X3183200Y-23225200D01*
G75*
G02*
X3234000Y-23174400I50800J0D01*
G01*
X4134000Y-23174400D01*
G75*
G02*
X4184800Y-23225200I0J-50800D01*
G01*
X4184800Y-24425200D01*
G75*
G02*
X4134000Y-24476000I-50800J0D01*
G01*
X3234000Y-24476000D01*
G75*
G02*
X3183200Y-24425200I0J50800D01*
G01*
G37*
G36*
G01*
X6483200Y-24425200D02*
X6483200Y-23225200D01*
G75*
G02*
X6534000Y-23174400I50800J0D01*
G01*
X7434000Y-23174400D01*
G75*
G02*
X7484800Y-23225200I0J-50800D01*
G01*
X7484800Y-24425200D01*
G75*
G02*
X7434000Y-24476000I-50800J0D01*
G01*
X6534000Y-24476000D01*
G75*
G02*
X6483200Y-24425200I0J50800D01*
G01*
G37*
%TD*%
%TO.C,C7*%
G36*
G01*
X12995300Y-24203600D02*
X12995300Y-24564400D01*
G75*
G02*
X12814900Y-24744800I-180400J0D01*
G01*
X12339100Y-24744800D01*
G75*
G02*
X12158700Y-24564400I0J180400D01*
G01*
X12158700Y-24203600D01*
G75*
G02*
X12339100Y-24023200I180400J0D01*
G01*
X12814900Y-24023200D01*
G75*
G02*
X12995300Y-24203600I0J-180400D01*
G01*
G37*
G36*
G01*
X14130300Y-24203600D02*
X14130300Y-24564400D01*
G75*
G02*
X13949900Y-24744800I-180400J0D01*
G01*
X13474100Y-24744800D01*
G75*
G02*
X13293700Y-24564400I0J180400D01*
G01*
X13293700Y-24203600D01*
G75*
G02*
X13474100Y-24023200I180400J0D01*
G01*
X13949900Y-24023200D01*
G75*
G02*
X14130300Y-24203600I0J-180400D01*
G01*
G37*
%TD*%
%TO.C,C3*%
G36*
G01*
X20012600Y-22628200D02*
X20373400Y-22628200D01*
G75*
G02*
X20553800Y-22808600I0J-180400D01*
G01*
X20553800Y-23284400D01*
G75*
G02*
X20373400Y-23464800I-180400J0D01*
G01*
X20012600Y-23464800D01*
G75*
G02*
X19832200Y-23284400I0J180400D01*
G01*
X19832200Y-22808600D01*
G75*
G02*
X20012600Y-22628200I180400J0D01*
G01*
G37*
G36*
G01*
X20012600Y-21493200D02*
X20373400Y-21493200D01*
G75*
G02*
X20553800Y-21673600I0J-180400D01*
G01*
X20553800Y-22149400D01*
G75*
G02*
X20373400Y-22329800I-180400J0D01*
G01*
X20012600Y-22329800D01*
G75*
G02*
X19832200Y-22149400I0J180400D01*
G01*
X19832200Y-21673600D01*
G75*
G02*
X20012600Y-21493200I180400J0D01*
G01*
G37*
%TD*%
%TO.C,C1*%
G36*
G01*
X6753200Y-22227600D02*
X6753200Y-21866800D01*
G75*
G02*
X6933600Y-21686400I180400J0D01*
G01*
X7409400Y-21686400D01*
G75*
G02*
X7589800Y-21866800I0J-180400D01*
G01*
X7589800Y-22227600D01*
G75*
G02*
X7409400Y-22408000I-180400J0D01*
G01*
X6933600Y-22408000D01*
G75*
G02*
X6753200Y-22227600I0J180400D01*
G01*
G37*
G36*
G01*
X5618200Y-22227600D02*
X5618200Y-21866800D01*
G75*
G02*
X5798600Y-21686400I180400J0D01*
G01*
X6274400Y-21686400D01*
G75*
G02*
X6454800Y-21866800I0J-180400D01*
G01*
X6454800Y-22227600D01*
G75*
G02*
X6274400Y-22408000I-180400J0D01*
G01*
X5798600Y-22408000D01*
G75*
G02*
X5618200Y-22227600I0J180400D01*
G01*
G37*
%TD*%
M02*
