%TF.GenerationSoftware,KiCad,Pcbnew,(5.1.7)-1*%
%TF.CreationDate,2021-02-13T17:52:43+01:00*%
%TF.ProjectId,twonkie,74776f6e-6b69-4652-9e6b-696361645f70,rev?*%
%TF.SameCoordinates,PX448d510PY20b3950*%
%TF.FileFunction,Copper,L2,Inr*%
%TF.FilePolarity,Positive*%
%FSLAX46Y46*%
G04 Gerber Fmt 4.6, Leading zero omitted, Abs format (unit mm)*
G04 Created by KiCad (PCBNEW (5.1.7)-1) date 2021-02-13 17:52:43*
%MOMM*%
%LPD*%
G01*
G04 APERTURE LIST*
%TA.AperFunction,ComponentPad*%
%ADD10O,2.500000X1.300000*%
%TD*%
%TA.AperFunction,ComponentPad*%
%ADD11O,1.450000X2.000000*%
%TD*%
%TA.AperFunction,ComponentPad*%
%ADD12O,1.150000X1.800000*%
%TD*%
%TA.AperFunction,ViaPad*%
%ADD13C,0.609600*%
%TD*%
%TA.AperFunction,ViaPad*%
%ADD14C,0.508000*%
%TD*%
%TA.AperFunction,ViaPad*%
%ADD15C,0.457200*%
%TD*%
%TA.AperFunction,Conductor*%
%ADD16C,0.508000*%
%TD*%
%TA.AperFunction,Conductor*%
%ADD17C,0.203200*%
%TD*%
%TA.AperFunction,Conductor*%
%ADD18C,0.254000*%
%TD*%
%TA.AperFunction,Conductor*%
%ADD19C,0.100000*%
%TD*%
G04 APERTURE END LIST*
D10*
%TO.N,GND*%
%TO.C,J1*%
X21190000Y-10360000D03*
X21190000Y-2340000D03*
%TD*%
D11*
%TO.N,GND*%
%TO.C,J3*%
X1304200Y-19790800D03*
X8754200Y-19790800D03*
D12*
X1154200Y-23590800D03*
X8904200Y-23590800D03*
%TD*%
D13*
%TO.N,GND*%
X13462000Y-20447000D03*
X12192000Y-4699000D03*
X635000Y-698500D03*
D14*
X6477000Y-10414000D03*
X6477000Y-9779000D03*
X6477000Y-2921000D03*
X6477000Y-2286000D03*
D13*
X5334000Y-17881600D03*
X13412792Y-16961149D03*
D14*
X19177000Y-14732000D03*
D13*
X8890000Y-15240000D03*
X4673600Y-17881600D03*
X571500Y-12001500D03*
X22288500Y-889000D03*
X20320000Y-3492500D03*
X19939000Y-3048000D03*
X19431000Y-10414000D03*
X20256500Y-9271000D03*
X19558000Y-11303000D03*
X24257000Y-12636500D03*
X23558500Y-1016000D03*
X5715000Y-11303000D03*
X3873500Y-12001500D03*
X3873500Y-698500D03*
X13906500Y-8102590D03*
X14922500Y-4445000D03*
X5715000Y-1460500D03*
X24257000Y-11620500D03*
X19514320Y-23067117D03*
X21526500Y-21399500D03*
X16256000Y-15621000D03*
%TO.N,+5V*%
X23241000Y-23368000D03*
%TO.N,+3V3*%
X5588000Y-16967200D03*
X11684000Y-7239000D03*
X12442000Y-22102000D03*
X12700000Y-7874000D03*
X19685000Y-21336000D03*
X5588000Y-16154400D03*
X9017000Y-16637000D03*
X12206419Y-3951419D03*
D14*
X14993294Y-5261560D03*
D13*
X8890000Y-10350500D03*
X22415500Y-11811000D03*
X14859000Y-17843500D03*
%TO.N,Net-(D1-Pad1)*%
X3491500Y-21959300D03*
D14*
%TO.N,/CC1_RECEP*%
X10033000Y-8509000D03*
X17399000Y-5588000D03*
X9271000Y-5524500D03*
X11049000Y-10350500D03*
D13*
%TO.N,/CC2_RECEP*%
X9144000Y-7239000D03*
D14*
X10414000Y-10350500D03*
%TO.N,/CC1_TX_DATA*%
X2794000Y-13716000D03*
X4000500Y-15113000D03*
%TO.N,/CC1_TX_EN*%
X10414000Y-20701000D03*
%TO.N,/CC2_TX_DATA*%
X18391125Y-15914625D03*
%TO.N,/CC2_TX_EN*%
X14132613Y-15704645D03*
%TO.N,/CC2*%
X10668000Y-13716000D03*
X19939000Y-14732000D03*
X10795000Y-12700000D03*
%TO.N,/CC1_EN*%
X9337588Y-13053528D03*
X17780000Y-15557500D03*
%TO.N,/CC2_EN*%
X13843000Y-12827000D03*
X19050000Y-13589000D03*
%TO.N,/BOOT*%
X21526500Y-18796000D03*
X18516599Y-19558000D03*
%TO.N,/LED_G_L*%
X22796500Y-19240500D03*
%TO.N,/LED_B_L*%
X18923000Y-23622000D03*
%TO.N,/CC1_RP3A0*%
X14605000Y-16129000D03*
%TO.N,/CC1_RA*%
X7576582Y-15013987D03*
%TO.N,/CC1_RP1A5*%
X6893953Y-14999838D03*
%TO.N,/CC1_RD*%
X14010642Y-20035519D03*
%TO.N,/CC1_RPUSB*%
X10414000Y-20002500D03*
%TO.N,/CC2_RP3A0*%
X14351000Y-20574000D03*
%TO.N,/CC2_RA*%
X15621000Y-20574000D03*
%TO.N,/CC2_RP1A5*%
X16793347Y-20574000D03*
%TO.N,/CC2_RD*%
X17653000Y-20574000D03*
%TO.N,/CC2_RPUSB*%
X18415000Y-20574000D03*
%TO.N,/INA_SCL*%
X12954000Y-5461000D03*
X13307848Y-19323564D03*
X13462000Y-10350500D03*
%TO.N,/INA_SDA*%
X10714245Y-17733755D03*
X14097000Y-4572000D03*
X12826997Y-10350500D03*
X14732000Y-10350500D03*
%TO.N,/VBUS_ALERT_L*%
X15367000Y-10350500D03*
X21209000Y-17970500D03*
%TO.N,/VCONN_ALERT_L*%
X21209000Y-17335500D03*
X14351000Y-3937000D03*
X14097000Y-10350500D03*
%TO.N,/CC2_BUF*%
X21463000Y-13081000D03*
%TO.N,/CC1_BUF*%
X19050000Y-12827000D03*
D13*
%TO.N,/VBUS_PLUG*%
X17907000Y-3746500D03*
X17399000Y-3429000D03*
X17399000Y-4064000D03*
X17907000Y-3175000D03*
X19240500Y-7683500D03*
X18923000Y-8128000D03*
X18669000Y-7683500D03*
X17907000Y-4318000D03*
%TO.N,/CC2_PLUG*%
X17843500Y-7747000D03*
D14*
X12992474Y-4699000D03*
X13017500Y-7239000D03*
D13*
%TO.N,/VBUS_RECEP*%
X8636000Y-3492500D03*
X8636000Y-4064000D03*
X9144000Y-3238500D03*
X9144000Y-3810000D03*
X7206621Y-7784100D03*
X7585260Y-8162740D03*
X9144000Y-4381500D03*
X8064500Y-8445500D03*
D14*
%TO.N,/SBU2*%
X17335500Y-4889500D03*
X8763000Y-4953000D03*
%TO.N,/SBU1*%
X13850496Y-7201516D03*
X11747500Y-8382000D03*
D15*
%TO.N,/USBC_D-*%
X6784653Y-6273790D03*
%TO.N,/USBC_D+*%
X7350212Y-6007090D03*
D14*
%TO.N,/USB_B_D+*%
X14122400Y-23520400D03*
%TO.N,/USB_B_D-*%
X14478000Y-24066500D03*
%TO.N,/TX_CLK*%
X21335742Y-16370299D03*
X10287000Y-15875000D03*
%TO.N,Net-(DS2-Pad1)*%
X24965601Y-21706899D03*
D13*
%TO.N,Net-(C5-Pad1)*%
X17018000Y-15621000D03*
D14*
%TO.N,/USB_B_ID*%
X22923500Y-16637000D03*
%TD*%
D16*
%TO.N,+3V3*%
X8890000Y-10350500D02*
X8890000Y-11430000D01*
D17*
%TO.N,/INA_SCL*%
X13360399Y-10452101D02*
X13462000Y-10350500D01*
X14572968Y-16859250D02*
X13360399Y-15646681D01*
X13360399Y-15646681D02*
X13360399Y-10452101D01*
X14763750Y-16859250D02*
X14572968Y-16859250D01*
X15430500Y-18097500D02*
X15430500Y-17526000D01*
X14204436Y-19323564D02*
X15430500Y-18097500D01*
X15430500Y-17526000D02*
X14763750Y-16859250D01*
X13307848Y-19323564D02*
X14204436Y-19323564D01*
%TO.N,/INA_SDA*%
X12826997Y-15621003D02*
X10714245Y-17733755D01*
X12826997Y-10350500D02*
X12826997Y-15621003D01*
%TO.N,/VBUS_ALERT_L*%
X18669000Y-14747750D02*
X15367000Y-11445750D01*
X15367000Y-11445750D02*
X15367000Y-10350500D01*
X18669000Y-14986000D02*
X18669000Y-14747750D01*
X18923000Y-15240000D02*
X18669000Y-14986000D01*
X21440649Y-16852899D02*
X20774149Y-16852899D01*
X20774149Y-16852899D02*
X19161250Y-15240000D01*
X21691601Y-17103851D02*
X21440649Y-16852899D01*
X19161250Y-15240000D02*
X18923000Y-15240000D01*
X21691601Y-17567149D02*
X21691601Y-17103851D01*
X21440649Y-17818101D02*
X21691601Y-17567149D01*
X21297899Y-17818101D02*
X21440649Y-17818101D01*
X21209000Y-17907000D02*
X21297899Y-17818101D01*
X21209000Y-17970500D02*
X21209000Y-17907000D01*
%TO.N,/VCONN_ALERT_L*%
X14097000Y-10350500D02*
X14097000Y-10642736D01*
X19075264Y-15621000D02*
X20789764Y-17335500D01*
X14097000Y-10642736D02*
X18288000Y-14833736D01*
X18288000Y-14833736D02*
X18288000Y-15113000D01*
X18288000Y-15113000D02*
X18796000Y-15621000D01*
X18796000Y-15621000D02*
X19075264Y-15621000D01*
X20789764Y-17335500D02*
X21209000Y-17335500D01*
%TO.N,/SBU1*%
X13373099Y-7678913D02*
X13850496Y-7201516D01*
X13373099Y-7990335D02*
X13373099Y-7678913D01*
X12956033Y-8407401D02*
X13373099Y-7990335D01*
X11772901Y-8407401D02*
X12956033Y-8407401D01*
X11747500Y-8382000D02*
X11772901Y-8407401D01*
%TD*%
D18*
%TO.N,+3V3*%
X12420598Y-15452665D02*
X10698309Y-17174955D01*
X10659208Y-17174955D01*
X10551249Y-17196429D01*
X10449554Y-17238553D01*
X10358031Y-17299707D01*
X10280197Y-17377541D01*
X10219043Y-17469064D01*
X10176919Y-17570759D01*
X10155445Y-17678718D01*
X10155445Y-17788792D01*
X10176919Y-17896751D01*
X10219043Y-17998446D01*
X10280197Y-18089969D01*
X10358031Y-18167803D01*
X10449554Y-18228957D01*
X10551249Y-18271081D01*
X10659208Y-18292555D01*
X10769282Y-18292555D01*
X10877241Y-18271081D01*
X10978936Y-18228957D01*
X11070459Y-18167803D01*
X11148293Y-18089969D01*
X11209447Y-17998446D01*
X11251571Y-17896751D01*
X11273045Y-17788792D01*
X11273045Y-17749691D01*
X13080240Y-15942497D01*
X13087145Y-15948163D01*
X13494925Y-16355943D01*
X13472832Y-16351549D01*
X13352752Y-16351549D01*
X13234978Y-16374975D01*
X13124038Y-16420928D01*
X13024194Y-16487641D01*
X12939284Y-16572551D01*
X12872571Y-16672395D01*
X12826618Y-16783335D01*
X12803192Y-16901109D01*
X12803192Y-17021189D01*
X12826618Y-17138963D01*
X12872571Y-17249903D01*
X12939284Y-17349747D01*
X13024194Y-17434657D01*
X13124038Y-17501370D01*
X13234978Y-17547323D01*
X13352752Y-17570749D01*
X13472832Y-17570749D01*
X13590606Y-17547323D01*
X13701546Y-17501370D01*
X13801390Y-17434657D01*
X13886300Y-17349747D01*
X13953013Y-17249903D01*
X13998966Y-17138963D01*
X14022392Y-17021189D01*
X14022392Y-16901109D01*
X14017998Y-16879016D01*
X14271491Y-17132509D01*
X14284210Y-17148008D01*
X14299708Y-17160727D01*
X14299713Y-17160732D01*
X14320714Y-17177967D01*
X14346092Y-17198794D01*
X14416693Y-17236531D01*
X14493300Y-17259769D01*
X14553008Y-17265650D01*
X14553015Y-17265650D01*
X14572968Y-17267615D01*
X14592921Y-17265650D01*
X14595414Y-17265650D01*
X15024101Y-17694338D01*
X15024100Y-17929164D01*
X14036100Y-18917164D01*
X13691710Y-18917164D01*
X13664062Y-18889516D01*
X13572539Y-18828362D01*
X13470844Y-18786238D01*
X13362885Y-18764764D01*
X13252811Y-18764764D01*
X13144852Y-18786238D01*
X13043157Y-18828362D01*
X12951634Y-18889516D01*
X12873800Y-18967350D01*
X12812646Y-19058873D01*
X12770522Y-19160568D01*
X12749048Y-19268527D01*
X12749048Y-19378601D01*
X12770522Y-19486560D01*
X12812646Y-19588255D01*
X12873800Y-19679778D01*
X12951634Y-19757612D01*
X13043157Y-19818766D01*
X13144852Y-19860890D01*
X13238879Y-19879593D01*
X13173246Y-19906779D01*
X13073402Y-19973492D01*
X12988492Y-20058402D01*
X12921779Y-20158246D01*
X12875826Y-20269186D01*
X12852400Y-20386960D01*
X12852400Y-20507040D01*
X12875826Y-20624814D01*
X12921779Y-20735754D01*
X12988492Y-20835598D01*
X13073402Y-20920508D01*
X13173246Y-20987221D01*
X13284186Y-21033174D01*
X13401960Y-21056600D01*
X13522040Y-21056600D01*
X13639814Y-21033174D01*
X13750754Y-20987221D01*
X13850598Y-20920508D01*
X13886487Y-20884619D01*
X13916952Y-20930214D01*
X13994786Y-21008048D01*
X14086309Y-21069202D01*
X14188004Y-21111326D01*
X14295963Y-21132800D01*
X14406037Y-21132800D01*
X14513996Y-21111326D01*
X14615691Y-21069202D01*
X14707214Y-21008048D01*
X14785048Y-20930214D01*
X14846202Y-20838691D01*
X14888326Y-20736996D01*
X14909800Y-20629037D01*
X14909800Y-20518963D01*
X15062200Y-20518963D01*
X15062200Y-20629037D01*
X15083674Y-20736996D01*
X15125798Y-20838691D01*
X15186952Y-20930214D01*
X15264786Y-21008048D01*
X15356309Y-21069202D01*
X15458004Y-21111326D01*
X15565963Y-21132800D01*
X15676037Y-21132800D01*
X15783996Y-21111326D01*
X15885691Y-21069202D01*
X15977214Y-21008048D01*
X16055048Y-20930214D01*
X16116202Y-20838691D01*
X16158326Y-20736996D01*
X16179800Y-20629037D01*
X16179800Y-20518963D01*
X16234547Y-20518963D01*
X16234547Y-20629037D01*
X16256021Y-20736996D01*
X16298145Y-20838691D01*
X16359299Y-20930214D01*
X16437133Y-21008048D01*
X16528656Y-21069202D01*
X16630351Y-21111326D01*
X16738310Y-21132800D01*
X16848384Y-21132800D01*
X16956343Y-21111326D01*
X17058038Y-21069202D01*
X17149561Y-21008048D01*
X17223174Y-20934436D01*
X17296786Y-21008048D01*
X17388309Y-21069202D01*
X17490004Y-21111326D01*
X17597963Y-21132800D01*
X17708037Y-21132800D01*
X17815996Y-21111326D01*
X17917691Y-21069202D01*
X18009214Y-21008048D01*
X18034000Y-20983262D01*
X18058786Y-21008048D01*
X18150309Y-21069202D01*
X18252004Y-21111326D01*
X18359963Y-21132800D01*
X18470037Y-21132800D01*
X18577996Y-21111326D01*
X18679691Y-21069202D01*
X18771214Y-21008048D01*
X18849048Y-20930214D01*
X18910202Y-20838691D01*
X18952326Y-20736996D01*
X18973800Y-20629037D01*
X18973800Y-20518963D01*
X18952326Y-20411004D01*
X18910202Y-20309309D01*
X18849048Y-20217786D01*
X18771214Y-20139952D01*
X18694924Y-20088976D01*
X18781290Y-20053202D01*
X18872813Y-19992048D01*
X18950647Y-19914214D01*
X19011801Y-19822691D01*
X19053925Y-19720996D01*
X19075399Y-19613037D01*
X19075399Y-19502963D01*
X19053925Y-19395004D01*
X19011801Y-19293309D01*
X18950647Y-19201786D01*
X18872813Y-19123952D01*
X18781290Y-19062798D01*
X18679595Y-19020674D01*
X18571636Y-18999200D01*
X18461562Y-18999200D01*
X18353603Y-19020674D01*
X18251908Y-19062798D01*
X18160385Y-19123952D01*
X18082551Y-19201786D01*
X18021397Y-19293309D01*
X17979273Y-19395004D01*
X17957799Y-19502963D01*
X17957799Y-19613037D01*
X17979273Y-19720996D01*
X18021397Y-19822691D01*
X18082551Y-19914214D01*
X18160385Y-19992048D01*
X18236675Y-20043024D01*
X18150309Y-20078798D01*
X18058786Y-20139952D01*
X18034000Y-20164738D01*
X18009214Y-20139952D01*
X17917691Y-20078798D01*
X17815996Y-20036674D01*
X17708037Y-20015200D01*
X17597963Y-20015200D01*
X17490004Y-20036674D01*
X17388309Y-20078798D01*
X17296786Y-20139952D01*
X17223174Y-20213565D01*
X17149561Y-20139952D01*
X17058038Y-20078798D01*
X16956343Y-20036674D01*
X16848384Y-20015200D01*
X16738310Y-20015200D01*
X16630351Y-20036674D01*
X16528656Y-20078798D01*
X16437133Y-20139952D01*
X16359299Y-20217786D01*
X16298145Y-20309309D01*
X16256021Y-20411004D01*
X16234547Y-20518963D01*
X16179800Y-20518963D01*
X16158326Y-20411004D01*
X16116202Y-20309309D01*
X16055048Y-20217786D01*
X15977214Y-20139952D01*
X15885691Y-20078798D01*
X15783996Y-20036674D01*
X15676037Y-20015200D01*
X15565963Y-20015200D01*
X15458004Y-20036674D01*
X15356309Y-20078798D01*
X15264786Y-20139952D01*
X15186952Y-20217786D01*
X15125798Y-20309309D01*
X15083674Y-20411004D01*
X15062200Y-20518963D01*
X14909800Y-20518963D01*
X14888326Y-20411004D01*
X14846202Y-20309309D01*
X14785048Y-20217786D01*
X14707214Y-20139952D01*
X14615691Y-20078798D01*
X14569442Y-20059641D01*
X14569442Y-19980482D01*
X14547968Y-19872523D01*
X14505844Y-19770828D01*
X14444690Y-19679305D01*
X14429475Y-19664090D01*
X14431312Y-19663108D01*
X14493194Y-19612322D01*
X14505918Y-19596818D01*
X15703755Y-18398981D01*
X15719258Y-18386258D01*
X15770044Y-18324376D01*
X15807781Y-18253775D01*
X15831019Y-18177168D01*
X15836900Y-18117460D01*
X15836900Y-18117454D01*
X15838865Y-18097501D01*
X15836900Y-18077548D01*
X15836900Y-17545953D01*
X15838865Y-17526000D01*
X15836900Y-17506047D01*
X15836900Y-17506040D01*
X15831019Y-17446332D01*
X15829348Y-17440821D01*
X15807781Y-17369725D01*
X15770044Y-17299124D01*
X15742586Y-17265667D01*
X15731982Y-17252745D01*
X15731977Y-17252740D01*
X15719258Y-17237242D01*
X15703759Y-17224522D01*
X15065231Y-16585995D01*
X15052508Y-16570492D01*
X14998277Y-16525985D01*
X15039048Y-16485214D01*
X15100202Y-16393691D01*
X15142326Y-16291996D01*
X15163800Y-16184037D01*
X15163800Y-16073963D01*
X15142326Y-15966004D01*
X15100202Y-15864309D01*
X15039048Y-15772786D01*
X14961214Y-15694952D01*
X14869691Y-15633798D01*
X14767996Y-15591674D01*
X14676260Y-15573427D01*
X14669939Y-15541649D01*
X14627815Y-15439954D01*
X14566661Y-15348431D01*
X14488827Y-15270597D01*
X14397304Y-15209443D01*
X14295609Y-15167319D01*
X14187650Y-15145845D01*
X14077576Y-15145845D01*
X13969617Y-15167319D01*
X13867922Y-15209443D01*
X13776399Y-15270597D01*
X13766799Y-15280197D01*
X13766799Y-13381590D01*
X13787963Y-13385800D01*
X13898037Y-13385800D01*
X14005996Y-13364326D01*
X14107691Y-13322202D01*
X14199214Y-13261048D01*
X14277048Y-13183214D01*
X14338202Y-13091691D01*
X14380326Y-12989996D01*
X14401800Y-12882037D01*
X14401800Y-12771963D01*
X14380326Y-12664004D01*
X14338202Y-12562309D01*
X14277048Y-12470786D01*
X14199214Y-12392952D01*
X14107691Y-12331798D01*
X14005996Y-12289674D01*
X13898037Y-12268200D01*
X13787963Y-12268200D01*
X13766799Y-12272410D01*
X13766799Y-11049000D01*
X13928528Y-11049000D01*
X17881600Y-15002073D01*
X17881600Y-15007962D01*
X17835037Y-14998700D01*
X17724963Y-14998700D01*
X17617004Y-15020174D01*
X17515309Y-15062298D01*
X17423786Y-15123452D01*
X17402491Y-15144747D01*
X17306754Y-15080779D01*
X17195814Y-15034826D01*
X17078040Y-15011400D01*
X16957960Y-15011400D01*
X16840186Y-15034826D01*
X16729246Y-15080779D01*
X16637000Y-15142415D01*
X16544754Y-15080779D01*
X16433814Y-15034826D01*
X16316040Y-15011400D01*
X16195960Y-15011400D01*
X16078186Y-15034826D01*
X15967246Y-15080779D01*
X15867402Y-15147492D01*
X15782492Y-15232402D01*
X15715779Y-15332246D01*
X15669826Y-15443186D01*
X15646400Y-15560960D01*
X15646400Y-15681040D01*
X15669826Y-15798814D01*
X15715779Y-15909754D01*
X15782492Y-16009598D01*
X15867402Y-16094508D01*
X15967246Y-16161221D01*
X16078186Y-16207174D01*
X16195960Y-16230600D01*
X16316040Y-16230600D01*
X16433814Y-16207174D01*
X16544754Y-16161221D01*
X16637000Y-16099585D01*
X16729246Y-16161221D01*
X16840186Y-16207174D01*
X16957960Y-16230600D01*
X17078040Y-16230600D01*
X17195814Y-16207174D01*
X17306754Y-16161221D01*
X17406598Y-16094508D01*
X17475202Y-16025904D01*
X17515309Y-16052702D01*
X17617004Y-16094826D01*
X17724963Y-16116300D01*
X17835037Y-16116300D01*
X17867173Y-16109908D01*
X17895923Y-16179316D01*
X17957077Y-16270839D01*
X18034911Y-16348673D01*
X18126434Y-16409827D01*
X18228129Y-16451951D01*
X18336088Y-16473425D01*
X18446162Y-16473425D01*
X18554121Y-16451951D01*
X18655816Y-16409827D01*
X18747339Y-16348673D01*
X18825173Y-16270839D01*
X18886327Y-16179316D01*
X18928451Y-16077621D01*
X18933212Y-16053684D01*
X20488282Y-17608754D01*
X20501006Y-17624258D01*
X20562888Y-17675044D01*
X20633489Y-17712781D01*
X20692266Y-17730610D01*
X20702268Y-17733645D01*
X20671674Y-17807504D01*
X20650200Y-17915463D01*
X20650200Y-18025537D01*
X20671674Y-18133496D01*
X20713798Y-18235191D01*
X20774952Y-18326714D01*
X20852786Y-18404548D01*
X20944309Y-18465702D01*
X21046004Y-18507826D01*
X21046873Y-18507999D01*
X21031298Y-18531309D01*
X20989174Y-18633004D01*
X20967700Y-18740963D01*
X20967700Y-18851037D01*
X20989174Y-18958996D01*
X21031298Y-19060691D01*
X21092452Y-19152214D01*
X21170286Y-19230048D01*
X21261809Y-19291202D01*
X21363504Y-19333326D01*
X21471463Y-19354800D01*
X21581537Y-19354800D01*
X21689496Y-19333326D01*
X21791191Y-19291202D01*
X21882714Y-19230048D01*
X21927299Y-19185463D01*
X22237700Y-19185463D01*
X22237700Y-19295537D01*
X22259174Y-19403496D01*
X22301298Y-19505191D01*
X22362452Y-19596714D01*
X22440286Y-19674548D01*
X22531809Y-19735702D01*
X22633504Y-19777826D01*
X22741463Y-19799300D01*
X22851537Y-19799300D01*
X22959496Y-19777826D01*
X23061191Y-19735702D01*
X23152714Y-19674548D01*
X23230548Y-19596714D01*
X23291702Y-19505191D01*
X23333826Y-19403496D01*
X23355300Y-19295537D01*
X23355300Y-19185463D01*
X23333826Y-19077504D01*
X23291702Y-18975809D01*
X23230548Y-18884286D01*
X23152714Y-18806452D01*
X23061191Y-18745298D01*
X22959496Y-18703174D01*
X22851537Y-18681700D01*
X22741463Y-18681700D01*
X22633504Y-18703174D01*
X22531809Y-18745298D01*
X22440286Y-18806452D01*
X22362452Y-18884286D01*
X22301298Y-18975809D01*
X22259174Y-19077504D01*
X22237700Y-19185463D01*
X21927299Y-19185463D01*
X21960548Y-19152214D01*
X22021702Y-19060691D01*
X22063826Y-18958996D01*
X22085300Y-18851037D01*
X22085300Y-18740963D01*
X22063826Y-18633004D01*
X22021702Y-18531309D01*
X21960548Y-18439786D01*
X21882714Y-18361952D01*
X21791191Y-18300798D01*
X21689496Y-18258674D01*
X21688627Y-18258501D01*
X21704202Y-18235191D01*
X21746326Y-18133496D01*
X21757831Y-18075655D01*
X21964856Y-17868630D01*
X21980359Y-17855907D01*
X22031145Y-17794025D01*
X22068882Y-17723424D01*
X22079283Y-17689135D01*
X22092120Y-17646818D01*
X22094342Y-17624258D01*
X22098001Y-17587109D01*
X22098001Y-17587102D01*
X22099966Y-17567149D01*
X22098001Y-17547196D01*
X22098001Y-17123804D01*
X22099966Y-17103851D01*
X22098001Y-17083898D01*
X22098001Y-17083891D01*
X22092120Y-17024183D01*
X22089494Y-17015524D01*
X22068882Y-16947576D01*
X22062150Y-16934981D01*
X22031145Y-16876975D01*
X21980359Y-16815093D01*
X21964855Y-16802369D01*
X21817539Y-16655053D01*
X21830944Y-16634990D01*
X21873068Y-16533295D01*
X21875527Y-16520931D01*
X21967336Y-16582276D01*
X22086502Y-16631636D01*
X22213008Y-16656800D01*
X22341992Y-16656800D01*
X22364700Y-16652283D01*
X22364700Y-16692037D01*
X22386174Y-16799996D01*
X22428298Y-16901691D01*
X22489452Y-16993214D01*
X22567286Y-17071048D01*
X22658809Y-17132202D01*
X22760504Y-17174326D01*
X22868463Y-17195800D01*
X22978537Y-17195800D01*
X23086496Y-17174326D01*
X23188191Y-17132202D01*
X23279714Y-17071048D01*
X23357548Y-16993214D01*
X23418702Y-16901691D01*
X23460826Y-16799996D01*
X23482300Y-16692037D01*
X23482300Y-16581963D01*
X23460826Y-16474004D01*
X23418702Y-16372309D01*
X23357548Y-16280786D01*
X23279714Y-16202952D01*
X23188191Y-16141798D01*
X23086496Y-16099674D01*
X22978537Y-16078200D01*
X22929971Y-16078200D01*
X22932300Y-16066492D01*
X22932300Y-15937508D01*
X23422700Y-15937508D01*
X23422700Y-16066492D01*
X23447864Y-16192998D01*
X23497224Y-16312164D01*
X23568884Y-16419410D01*
X23660090Y-16510616D01*
X23767336Y-16582276D01*
X23886502Y-16631636D01*
X24013008Y-16656800D01*
X24141992Y-16656800D01*
X24268498Y-16631636D01*
X24387664Y-16582276D01*
X24494910Y-16510616D01*
X24586116Y-16419410D01*
X24657776Y-16312164D01*
X24707136Y-16192998D01*
X24732300Y-16066492D01*
X24732300Y-15937508D01*
X24707136Y-15811002D01*
X24657776Y-15691836D01*
X24586116Y-15584590D01*
X24494910Y-15493384D01*
X24387664Y-15421724D01*
X24268498Y-15372364D01*
X24141992Y-15347200D01*
X24013008Y-15347200D01*
X23886502Y-15372364D01*
X23767336Y-15421724D01*
X23660090Y-15493384D01*
X23568884Y-15584590D01*
X23497224Y-15691836D01*
X23447864Y-15811002D01*
X23422700Y-15937508D01*
X22932300Y-15937508D01*
X22907136Y-15811002D01*
X22857776Y-15691836D01*
X22786116Y-15584590D01*
X22694910Y-15493384D01*
X22587664Y-15421724D01*
X22468498Y-15372364D01*
X22341992Y-15347200D01*
X22213008Y-15347200D01*
X22086502Y-15372364D01*
X21967336Y-15421724D01*
X21860090Y-15493384D01*
X21768884Y-15584590D01*
X21697224Y-15691836D01*
X21647864Y-15811002D01*
X21631046Y-15895552D01*
X21600433Y-15875097D01*
X21498738Y-15832973D01*
X21390779Y-15811499D01*
X21280705Y-15811499D01*
X21172746Y-15832973D01*
X21071051Y-15875097D01*
X20979528Y-15936251D01*
X20901694Y-16014085D01*
X20840540Y-16105608D01*
X20798416Y-16207303D01*
X20782634Y-16286647D01*
X19757752Y-15261766D01*
X19776004Y-15269326D01*
X19883963Y-15290800D01*
X19994037Y-15290800D01*
X20101996Y-15269326D01*
X20203691Y-15227202D01*
X20295214Y-15166048D01*
X20373048Y-15088214D01*
X20434202Y-14996691D01*
X20476326Y-14894996D01*
X20497800Y-14787037D01*
X20497800Y-14676963D01*
X20476326Y-14569004D01*
X20434202Y-14467309D01*
X20373048Y-14375786D01*
X20295214Y-14297952D01*
X20203691Y-14236798D01*
X20101996Y-14194674D01*
X19994037Y-14173200D01*
X19883963Y-14173200D01*
X19776004Y-14194674D01*
X19674309Y-14236798D01*
X19582786Y-14297952D01*
X19558000Y-14322738D01*
X19533214Y-14297952D01*
X19441691Y-14236798D01*
X19339996Y-14194674D01*
X19232037Y-14173200D01*
X19121963Y-14173200D01*
X19014004Y-14194674D01*
X18912309Y-14236798D01*
X18820786Y-14297952D01*
X18807362Y-14311376D01*
X17267949Y-12771963D01*
X18491200Y-12771963D01*
X18491200Y-12882037D01*
X18512674Y-12989996D01*
X18554798Y-13091691D01*
X18615952Y-13183214D01*
X18640738Y-13208000D01*
X18615952Y-13232786D01*
X18554798Y-13324309D01*
X18512674Y-13426004D01*
X18491200Y-13533963D01*
X18491200Y-13644037D01*
X18512674Y-13751996D01*
X18554798Y-13853691D01*
X18615952Y-13945214D01*
X18693786Y-14023048D01*
X18785309Y-14084202D01*
X18887004Y-14126326D01*
X18994963Y-14147800D01*
X19105037Y-14147800D01*
X19212996Y-14126326D01*
X19314691Y-14084202D01*
X19406214Y-14023048D01*
X19484048Y-13945214D01*
X19545202Y-13853691D01*
X19587326Y-13751996D01*
X19608800Y-13644037D01*
X19608800Y-13533963D01*
X19587326Y-13426004D01*
X19545202Y-13324309D01*
X19484048Y-13232786D01*
X19459262Y-13208000D01*
X19484048Y-13183214D01*
X19545202Y-13091691D01*
X19572427Y-13025963D01*
X20904200Y-13025963D01*
X20904200Y-13136037D01*
X20925674Y-13243996D01*
X20967798Y-13345691D01*
X21028952Y-13437214D01*
X21106786Y-13515048D01*
X21198309Y-13576202D01*
X21300004Y-13618326D01*
X21407963Y-13639800D01*
X21518037Y-13639800D01*
X21625996Y-13618326D01*
X21727691Y-13576202D01*
X21819214Y-13515048D01*
X21897048Y-13437214D01*
X21958202Y-13345691D01*
X22000326Y-13243996D01*
X22021800Y-13136037D01*
X22021800Y-13025963D01*
X22000326Y-12918004D01*
X21958202Y-12816309D01*
X21897048Y-12724786D01*
X21819214Y-12646952D01*
X21727691Y-12585798D01*
X21625996Y-12543674D01*
X21518037Y-12522200D01*
X21407963Y-12522200D01*
X21300004Y-12543674D01*
X21198309Y-12585798D01*
X21106786Y-12646952D01*
X21028952Y-12724786D01*
X20967798Y-12816309D01*
X20925674Y-12918004D01*
X20904200Y-13025963D01*
X19572427Y-13025963D01*
X19587326Y-12989996D01*
X19608800Y-12882037D01*
X19608800Y-12771963D01*
X19587326Y-12664004D01*
X19545202Y-12562309D01*
X19484048Y-12470786D01*
X19406214Y-12392952D01*
X19314691Y-12331798D01*
X19212996Y-12289674D01*
X19105037Y-12268200D01*
X18994963Y-12268200D01*
X18887004Y-12289674D01*
X18785309Y-12331798D01*
X18693786Y-12392952D01*
X18615952Y-12470786D01*
X18554798Y-12562309D01*
X18512674Y-12664004D01*
X18491200Y-12771963D01*
X17267949Y-12771963D01*
X15773400Y-11277414D01*
X15773400Y-11049000D01*
X19003383Y-11049000D01*
X18971826Y-11125186D01*
X18948400Y-11242960D01*
X18948400Y-11363040D01*
X18971826Y-11480814D01*
X19017779Y-11591754D01*
X19084492Y-11691598D01*
X19169402Y-11776508D01*
X19269246Y-11843221D01*
X19380186Y-11889174D01*
X19497960Y-11912600D01*
X19618040Y-11912600D01*
X19735814Y-11889174D01*
X19846754Y-11843221D01*
X19946598Y-11776508D01*
X20031508Y-11691598D01*
X20098221Y-11591754D01*
X20144174Y-11480814D01*
X20167600Y-11363040D01*
X20167600Y-11242960D01*
X20161791Y-11213753D01*
X20222846Y-11246388D01*
X20402827Y-11300984D01*
X20543103Y-11314800D01*
X21294360Y-11314800D01*
X21330799Y-11359201D01*
X21364575Y-11386920D01*
X21386347Y-11404788D01*
X21449722Y-11438662D01*
X21518487Y-11459522D01*
X21590000Y-11466565D01*
X21607921Y-11464800D01*
X23172079Y-11464800D01*
X23190000Y-11466565D01*
X23207921Y-11464800D01*
X23261513Y-11459522D01*
X23330278Y-11438662D01*
X23393653Y-11404788D01*
X23449201Y-11359201D01*
X23494788Y-11303653D01*
X23528662Y-11240278D01*
X23549522Y-11171513D01*
X23556565Y-11100000D01*
X23554800Y-11082079D01*
X23554800Y-11049000D01*
X24043760Y-11049000D01*
X23968246Y-11080279D01*
X23868402Y-11146992D01*
X23783492Y-11231902D01*
X23716779Y-11331746D01*
X23670826Y-11442686D01*
X23647400Y-11560460D01*
X23647400Y-11680540D01*
X23670826Y-11798314D01*
X23716779Y-11909254D01*
X23783492Y-12009098D01*
X23868402Y-12094008D01*
X23920023Y-12128500D01*
X23868402Y-12162992D01*
X23783492Y-12247902D01*
X23716779Y-12347746D01*
X23670826Y-12458686D01*
X23647400Y-12576460D01*
X23647400Y-12696540D01*
X23670826Y-12814314D01*
X23716779Y-12925254D01*
X23783492Y-13025098D01*
X23868402Y-13110008D01*
X23968246Y-13176721D01*
X24079186Y-13222674D01*
X24196960Y-13246100D01*
X24317040Y-13246100D01*
X24434814Y-13222674D01*
X24545754Y-13176721D01*
X24645598Y-13110008D01*
X24730508Y-13025098D01*
X24797221Y-12925254D01*
X24843174Y-12814314D01*
X24866600Y-12696540D01*
X24866600Y-12576460D01*
X24843174Y-12458686D01*
X24797221Y-12347746D01*
X24730508Y-12247902D01*
X24645598Y-12162992D01*
X24593977Y-12128500D01*
X24645598Y-12094008D01*
X24730508Y-12009098D01*
X24797221Y-11909254D01*
X24843174Y-11798314D01*
X24866600Y-11680540D01*
X24866600Y-11560460D01*
X24843174Y-11442686D01*
X24797221Y-11331746D01*
X24730508Y-11231902D01*
X24645598Y-11146992D01*
X24545754Y-11080279D01*
X24470240Y-11049000D01*
X25035200Y-11049000D01*
X25035201Y-12209921D01*
X25040479Y-12263513D01*
X25061339Y-12332278D01*
X25070200Y-12348856D01*
X25070201Y-21157957D01*
X25020638Y-21148099D01*
X24910564Y-21148099D01*
X24802605Y-21169573D01*
X24700910Y-21211697D01*
X24609387Y-21272851D01*
X24531553Y-21350685D01*
X24470399Y-21442208D01*
X24428275Y-21543903D01*
X24406801Y-21651862D01*
X24406801Y-21761936D01*
X24428275Y-21869895D01*
X24470399Y-21971590D01*
X24531553Y-22063113D01*
X24609387Y-22140947D01*
X24700910Y-22202101D01*
X24802605Y-22244225D01*
X24910564Y-22265699D01*
X25020638Y-22265699D01*
X25070201Y-22255841D01*
X25070201Y-24875859D01*
X25065255Y-24926305D01*
X25055292Y-24959303D01*
X25039107Y-24989742D01*
X25017324Y-25016450D01*
X24990765Y-25038422D01*
X24960439Y-25054819D01*
X24927514Y-25065011D01*
X24878148Y-25070200D01*
X524131Y-25070200D01*
X473695Y-25065255D01*
X440697Y-25055292D01*
X410258Y-25039107D01*
X383550Y-25017324D01*
X361578Y-24990765D01*
X345181Y-24960439D01*
X334989Y-24927514D01*
X329800Y-24878148D01*
X329800Y-24228929D01*
X337440Y-24254114D01*
X419135Y-24406955D01*
X529079Y-24540922D01*
X663046Y-24650866D01*
X815887Y-24732561D01*
X981730Y-24782869D01*
X1154200Y-24799856D01*
X1326671Y-24782869D01*
X1492514Y-24732561D01*
X1645355Y-24650866D01*
X1779322Y-24540922D01*
X1889266Y-24406955D01*
X1970961Y-24254114D01*
X2021269Y-24088271D01*
X2034000Y-23959012D01*
X2034000Y-23222589D01*
X8024400Y-23222589D01*
X8024400Y-23959012D01*
X8037131Y-24088271D01*
X8087440Y-24254114D01*
X8169135Y-24406955D01*
X8279079Y-24540922D01*
X8413046Y-24650866D01*
X8565887Y-24732561D01*
X8731730Y-24782869D01*
X8904200Y-24799856D01*
X9076671Y-24782869D01*
X9242514Y-24732561D01*
X9395355Y-24650866D01*
X9529322Y-24540922D01*
X9639266Y-24406955D01*
X9720961Y-24254114D01*
X9771269Y-24088271D01*
X9784000Y-23959012D01*
X9784000Y-23465363D01*
X13563600Y-23465363D01*
X13563600Y-23575437D01*
X13585074Y-23683396D01*
X13627198Y-23785091D01*
X13688352Y-23876614D01*
X13766186Y-23954448D01*
X13857709Y-24015602D01*
X13919200Y-24041073D01*
X13919200Y-24121537D01*
X13940674Y-24229496D01*
X13982798Y-24331191D01*
X14043952Y-24422714D01*
X14121786Y-24500548D01*
X14213309Y-24561702D01*
X14315004Y-24603826D01*
X14422963Y-24625300D01*
X14533037Y-24625300D01*
X14640996Y-24603826D01*
X14742691Y-24561702D01*
X14834214Y-24500548D01*
X14912048Y-24422714D01*
X14973202Y-24331191D01*
X15015326Y-24229496D01*
X15036800Y-24121537D01*
X15036800Y-24011463D01*
X15015326Y-23903504D01*
X14973202Y-23801809D01*
X14912048Y-23710286D01*
X14834214Y-23632452D01*
X14742691Y-23571298D01*
X14732226Y-23566963D01*
X18364200Y-23566963D01*
X18364200Y-23677037D01*
X18385674Y-23784996D01*
X18427798Y-23886691D01*
X18488952Y-23978214D01*
X18566786Y-24056048D01*
X18658309Y-24117202D01*
X18760004Y-24159326D01*
X18867963Y-24180800D01*
X18978037Y-24180800D01*
X19085996Y-24159326D01*
X19187691Y-24117202D01*
X19279214Y-24056048D01*
X19357048Y-23978214D01*
X19418202Y-23886691D01*
X19460326Y-23784996D01*
X19481800Y-23677037D01*
X19481800Y-23676717D01*
X19574360Y-23676717D01*
X19692134Y-23653291D01*
X19803074Y-23607338D01*
X19902918Y-23540625D01*
X19987828Y-23455715D01*
X20054541Y-23355871D01*
X20074386Y-23307960D01*
X22631400Y-23307960D01*
X22631400Y-23428040D01*
X22654826Y-23545814D01*
X22700779Y-23656754D01*
X22767492Y-23756598D01*
X22852402Y-23841508D01*
X22952246Y-23908221D01*
X23063186Y-23954174D01*
X23180960Y-23977600D01*
X23301040Y-23977600D01*
X23418814Y-23954174D01*
X23529754Y-23908221D01*
X23629598Y-23841508D01*
X23714508Y-23756598D01*
X23781221Y-23656754D01*
X23827174Y-23545814D01*
X23850600Y-23428040D01*
X23850600Y-23307960D01*
X23827174Y-23190186D01*
X23781221Y-23079246D01*
X23714508Y-22979402D01*
X23629598Y-22894492D01*
X23529754Y-22827779D01*
X23418814Y-22781826D01*
X23301040Y-22758400D01*
X23180960Y-22758400D01*
X23063186Y-22781826D01*
X22952246Y-22827779D01*
X22852402Y-22894492D01*
X22767492Y-22979402D01*
X22700779Y-23079246D01*
X22654826Y-23190186D01*
X22631400Y-23307960D01*
X20074386Y-23307960D01*
X20100494Y-23244931D01*
X20123920Y-23127157D01*
X20123920Y-23007077D01*
X20100494Y-22889303D01*
X20054541Y-22778363D01*
X19987828Y-22678519D01*
X19902918Y-22593609D01*
X19803074Y-22526896D01*
X19692134Y-22480943D01*
X19574360Y-22457517D01*
X19454280Y-22457517D01*
X19336506Y-22480943D01*
X19225566Y-22526896D01*
X19125722Y-22593609D01*
X19040812Y-22678519D01*
X18974099Y-22778363D01*
X18928146Y-22889303D01*
X18904720Y-23007077D01*
X18904720Y-23063200D01*
X18867963Y-23063200D01*
X18760004Y-23084674D01*
X18658309Y-23126798D01*
X18566786Y-23187952D01*
X18488952Y-23265786D01*
X18427798Y-23357309D01*
X18385674Y-23459004D01*
X18364200Y-23566963D01*
X14732226Y-23566963D01*
X14681200Y-23545827D01*
X14681200Y-23465363D01*
X14659726Y-23357404D01*
X14617602Y-23255709D01*
X14556448Y-23164186D01*
X14478614Y-23086352D01*
X14387091Y-23025198D01*
X14285396Y-22983074D01*
X14177437Y-22961600D01*
X14067363Y-22961600D01*
X13959404Y-22983074D01*
X13857709Y-23025198D01*
X13766186Y-23086352D01*
X13688352Y-23164186D01*
X13627198Y-23255709D01*
X13585074Y-23357404D01*
X13563600Y-23465363D01*
X9784000Y-23465363D01*
X9784000Y-23222588D01*
X9771269Y-23093329D01*
X9720961Y-22927486D01*
X9639266Y-22774645D01*
X9529322Y-22640678D01*
X9395354Y-22530734D01*
X9242513Y-22449039D01*
X9076670Y-22398731D01*
X8904200Y-22381744D01*
X8731729Y-22398731D01*
X8565886Y-22449039D01*
X8413045Y-22530734D01*
X8279078Y-22640678D01*
X8169134Y-22774646D01*
X8087439Y-22927487D01*
X8037131Y-23093330D01*
X8024400Y-23222589D01*
X2034000Y-23222589D01*
X2034000Y-23222588D01*
X2021269Y-23093329D01*
X1970961Y-22927486D01*
X1889266Y-22774645D01*
X1779322Y-22640678D01*
X1645354Y-22530734D01*
X1492513Y-22449039D01*
X1326670Y-22398731D01*
X1154200Y-22381744D01*
X981729Y-22398731D01*
X815886Y-22449039D01*
X663045Y-22530734D01*
X529078Y-22640678D01*
X419134Y-22774646D01*
X337439Y-22927487D01*
X329800Y-22952669D01*
X329800Y-21899260D01*
X2881900Y-21899260D01*
X2881900Y-22019340D01*
X2905326Y-22137114D01*
X2951279Y-22248054D01*
X3017992Y-22347898D01*
X3102902Y-22432808D01*
X3202746Y-22499521D01*
X3313686Y-22545474D01*
X3431460Y-22568900D01*
X3551540Y-22568900D01*
X3669314Y-22545474D01*
X3780254Y-22499521D01*
X3880098Y-22432808D01*
X3965008Y-22347898D01*
X4031721Y-22248054D01*
X4077674Y-22137114D01*
X4101100Y-22019340D01*
X4101100Y-21899260D01*
X4077674Y-21781486D01*
X4031721Y-21670546D01*
X3965008Y-21570702D01*
X3880098Y-21485792D01*
X3780254Y-21419079D01*
X3669314Y-21373126D01*
X3551540Y-21349700D01*
X3431460Y-21349700D01*
X3313686Y-21373126D01*
X3202746Y-21419079D01*
X3102902Y-21485792D01*
X3017992Y-21570702D01*
X2951279Y-21670546D01*
X2905326Y-21781486D01*
X2881900Y-21899260D01*
X329800Y-21899260D01*
X329800Y-20401183D01*
X348186Y-20461794D01*
X443811Y-20640694D01*
X572500Y-20797501D01*
X729307Y-20926190D01*
X908207Y-21021814D01*
X1102325Y-21080699D01*
X1304200Y-21100582D01*
X1506076Y-21080699D01*
X1700194Y-21021814D01*
X1832528Y-20951080D01*
X1851485Y-21046383D01*
X1904615Y-21174648D01*
X1981746Y-21290084D01*
X2079916Y-21388254D01*
X2195352Y-21465385D01*
X2323617Y-21518515D01*
X2459783Y-21545600D01*
X2598617Y-21545600D01*
X2734783Y-21518515D01*
X2863048Y-21465385D01*
X2978484Y-21388254D01*
X3076654Y-21290084D01*
X3153785Y-21174648D01*
X3206915Y-21046383D01*
X3234000Y-20910217D01*
X3234000Y-20771383D01*
X6824400Y-20771383D01*
X6824400Y-20910217D01*
X6851485Y-21046383D01*
X6904615Y-21174648D01*
X6981746Y-21290084D01*
X7079916Y-21388254D01*
X7195352Y-21465385D01*
X7323617Y-21518515D01*
X7459783Y-21545600D01*
X7598617Y-21545600D01*
X7734783Y-21518515D01*
X7863048Y-21465385D01*
X7978484Y-21388254D01*
X8027278Y-21339460D01*
X20916900Y-21339460D01*
X20916900Y-21459540D01*
X20940326Y-21577314D01*
X20986279Y-21688254D01*
X21052992Y-21788098D01*
X21137902Y-21873008D01*
X21237746Y-21939721D01*
X21348686Y-21985674D01*
X21466460Y-22009100D01*
X21586540Y-22009100D01*
X21704314Y-21985674D01*
X21815254Y-21939721D01*
X21915098Y-21873008D01*
X22000008Y-21788098D01*
X22066721Y-21688254D01*
X22112674Y-21577314D01*
X22136100Y-21459540D01*
X22136100Y-21339460D01*
X22112674Y-21221686D01*
X22066721Y-21110746D01*
X22000008Y-21010902D01*
X21915098Y-20925992D01*
X21815254Y-20859279D01*
X21704314Y-20813326D01*
X21586540Y-20789900D01*
X21466460Y-20789900D01*
X21348686Y-20813326D01*
X21237746Y-20859279D01*
X21137902Y-20925992D01*
X21052992Y-21010902D01*
X20986279Y-21110746D01*
X20940326Y-21221686D01*
X20916900Y-21339460D01*
X8027278Y-21339460D01*
X8076654Y-21290084D01*
X8153785Y-21174648D01*
X8206915Y-21046383D01*
X8225872Y-20951079D01*
X8358207Y-21021814D01*
X8552325Y-21080699D01*
X8754200Y-21100582D01*
X8956076Y-21080699D01*
X9150194Y-21021814D01*
X9329094Y-20926190D01*
X9485901Y-20797501D01*
X9614590Y-20640694D01*
X9710214Y-20461793D01*
X9769099Y-20267675D01*
X9784000Y-20116382D01*
X9784000Y-19947463D01*
X9855200Y-19947463D01*
X9855200Y-20057537D01*
X9876674Y-20165496D01*
X9918798Y-20267191D01*
X9975299Y-20351750D01*
X9918798Y-20436309D01*
X9876674Y-20538004D01*
X9855200Y-20645963D01*
X9855200Y-20756037D01*
X9876674Y-20863996D01*
X9918798Y-20965691D01*
X9979952Y-21057214D01*
X10057786Y-21135048D01*
X10149309Y-21196202D01*
X10251004Y-21238326D01*
X10358963Y-21259800D01*
X10469037Y-21259800D01*
X10576996Y-21238326D01*
X10678691Y-21196202D01*
X10770214Y-21135048D01*
X10848048Y-21057214D01*
X10909202Y-20965691D01*
X10951326Y-20863996D01*
X10972800Y-20756037D01*
X10972800Y-20645963D01*
X10951326Y-20538004D01*
X10909202Y-20436309D01*
X10852701Y-20351750D01*
X10909202Y-20267191D01*
X10951326Y-20165496D01*
X10972800Y-20057537D01*
X10972800Y-19947463D01*
X10951326Y-19839504D01*
X10909202Y-19737809D01*
X10848048Y-19646286D01*
X10770214Y-19568452D01*
X10678691Y-19507298D01*
X10576996Y-19465174D01*
X10469037Y-19443700D01*
X10358963Y-19443700D01*
X10251004Y-19465174D01*
X10149309Y-19507298D01*
X10057786Y-19568452D01*
X9979952Y-19646286D01*
X9918798Y-19737809D01*
X9876674Y-19839504D01*
X9855200Y-19947463D01*
X9784000Y-19947463D01*
X9784000Y-19465217D01*
X9769099Y-19313924D01*
X9710214Y-19119806D01*
X9614590Y-18940906D01*
X9485901Y-18784099D01*
X9329094Y-18655410D01*
X9150193Y-18559786D01*
X8956075Y-18500901D01*
X8754200Y-18481018D01*
X8552324Y-18500901D01*
X8358206Y-18559786D01*
X8179306Y-18655410D01*
X8022499Y-18784099D01*
X7893810Y-18940906D01*
X7798186Y-19119807D01*
X7739301Y-19313925D01*
X7724400Y-19465218D01*
X7724400Y-20116383D01*
X7728884Y-20161912D01*
X7598617Y-20136000D01*
X7459783Y-20136000D01*
X7323617Y-20163085D01*
X7195352Y-20216215D01*
X7079916Y-20293346D01*
X6981746Y-20391516D01*
X6904615Y-20506952D01*
X6851485Y-20635217D01*
X6824400Y-20771383D01*
X3234000Y-20771383D01*
X3206915Y-20635217D01*
X3153785Y-20506952D01*
X3076654Y-20391516D01*
X2978484Y-20293346D01*
X2863048Y-20216215D01*
X2734783Y-20163085D01*
X2598617Y-20136000D01*
X2459783Y-20136000D01*
X2329516Y-20161912D01*
X2334000Y-20116382D01*
X2334000Y-19465217D01*
X2319099Y-19313924D01*
X2260214Y-19119806D01*
X2164590Y-18940906D01*
X2035901Y-18784099D01*
X1879094Y-18655410D01*
X1700193Y-18559786D01*
X1506075Y-18500901D01*
X1304200Y-18481018D01*
X1102324Y-18500901D01*
X908206Y-18559786D01*
X729306Y-18655410D01*
X572499Y-18784099D01*
X443810Y-18940906D01*
X348186Y-19119807D01*
X329800Y-19180418D01*
X329800Y-17821560D01*
X4064000Y-17821560D01*
X4064000Y-17941640D01*
X4087426Y-18059414D01*
X4133379Y-18170354D01*
X4200092Y-18270198D01*
X4285002Y-18355108D01*
X4384846Y-18421821D01*
X4495786Y-18467774D01*
X4613560Y-18491200D01*
X4733640Y-18491200D01*
X4851414Y-18467774D01*
X4962354Y-18421821D01*
X5003800Y-18394128D01*
X5045246Y-18421821D01*
X5156186Y-18467774D01*
X5273960Y-18491200D01*
X5394040Y-18491200D01*
X5511814Y-18467774D01*
X5622754Y-18421821D01*
X5722598Y-18355108D01*
X5807508Y-18270198D01*
X5874221Y-18170354D01*
X5920174Y-18059414D01*
X5943600Y-17941640D01*
X5943600Y-17821560D01*
X5920174Y-17703786D01*
X5874221Y-17592846D01*
X5807508Y-17493002D01*
X5722598Y-17408092D01*
X5622754Y-17341379D01*
X5511814Y-17295426D01*
X5394040Y-17272000D01*
X5273960Y-17272000D01*
X5156186Y-17295426D01*
X5045246Y-17341379D01*
X5003800Y-17369072D01*
X4962354Y-17341379D01*
X4851414Y-17295426D01*
X4733640Y-17272000D01*
X4613560Y-17272000D01*
X4495786Y-17295426D01*
X4384846Y-17341379D01*
X4285002Y-17408092D01*
X4200092Y-17493002D01*
X4133379Y-17592846D01*
X4087426Y-17703786D01*
X4064000Y-17821560D01*
X329800Y-17821560D01*
X329800Y-15057963D01*
X3441700Y-15057963D01*
X3441700Y-15168037D01*
X3463174Y-15275996D01*
X3505298Y-15377691D01*
X3566452Y-15469214D01*
X3644286Y-15547048D01*
X3735809Y-15608202D01*
X3837504Y-15650326D01*
X3945463Y-15671800D01*
X4055537Y-15671800D01*
X4163496Y-15650326D01*
X4265191Y-15608202D01*
X4356714Y-15547048D01*
X4434548Y-15469214D01*
X4495702Y-15377691D01*
X4537826Y-15275996D01*
X4559300Y-15168037D01*
X4559300Y-15057963D01*
X4537826Y-14950004D01*
X4535671Y-14944801D01*
X6335153Y-14944801D01*
X6335153Y-15054875D01*
X6356627Y-15162834D01*
X6398751Y-15264529D01*
X6459905Y-15356052D01*
X6537739Y-15433886D01*
X6629262Y-15495040D01*
X6730957Y-15537164D01*
X6838916Y-15558638D01*
X6948990Y-15558638D01*
X7056949Y-15537164D01*
X7158644Y-15495040D01*
X7224680Y-15450916D01*
X7311891Y-15509189D01*
X7413586Y-15551313D01*
X7521545Y-15572787D01*
X7631619Y-15572787D01*
X7739578Y-15551313D01*
X7841273Y-15509189D01*
X7932796Y-15448035D01*
X8010630Y-15370201D01*
X8071784Y-15278678D01*
X8112674Y-15179960D01*
X8280400Y-15179960D01*
X8280400Y-15300040D01*
X8303826Y-15417814D01*
X8349779Y-15528754D01*
X8416492Y-15628598D01*
X8501402Y-15713508D01*
X8601246Y-15780221D01*
X8712186Y-15826174D01*
X8829960Y-15849600D01*
X8950040Y-15849600D01*
X9067814Y-15826174D01*
X9082808Y-15819963D01*
X9728200Y-15819963D01*
X9728200Y-15930037D01*
X9749674Y-16037996D01*
X9791798Y-16139691D01*
X9852952Y-16231214D01*
X9930786Y-16309048D01*
X10022309Y-16370202D01*
X10124004Y-16412326D01*
X10231963Y-16433800D01*
X10342037Y-16433800D01*
X10449996Y-16412326D01*
X10551691Y-16370202D01*
X10643214Y-16309048D01*
X10721048Y-16231214D01*
X10782202Y-16139691D01*
X10824326Y-16037996D01*
X10845800Y-15930037D01*
X10845800Y-15819963D01*
X10824326Y-15712004D01*
X10782202Y-15610309D01*
X10721048Y-15518786D01*
X10643214Y-15440952D01*
X10551691Y-15379798D01*
X10449996Y-15337674D01*
X10342037Y-15316200D01*
X10231963Y-15316200D01*
X10124004Y-15337674D01*
X10022309Y-15379798D01*
X9930786Y-15440952D01*
X9852952Y-15518786D01*
X9791798Y-15610309D01*
X9749674Y-15712004D01*
X9728200Y-15819963D01*
X9082808Y-15819963D01*
X9178754Y-15780221D01*
X9278598Y-15713508D01*
X9363508Y-15628598D01*
X9430221Y-15528754D01*
X9476174Y-15417814D01*
X9499600Y-15300040D01*
X9499600Y-15179960D01*
X9476174Y-15062186D01*
X9430221Y-14951246D01*
X9363508Y-14851402D01*
X9278598Y-14766492D01*
X9178754Y-14699779D01*
X9067814Y-14653826D01*
X8950040Y-14630400D01*
X8829960Y-14630400D01*
X8712186Y-14653826D01*
X8601246Y-14699779D01*
X8501402Y-14766492D01*
X8416492Y-14851402D01*
X8349779Y-14951246D01*
X8303826Y-15062186D01*
X8280400Y-15179960D01*
X8112674Y-15179960D01*
X8113908Y-15176983D01*
X8135382Y-15069024D01*
X8135382Y-14958950D01*
X8113908Y-14850991D01*
X8071784Y-14749296D01*
X8010630Y-14657773D01*
X7932796Y-14579939D01*
X7841273Y-14518785D01*
X7739578Y-14476661D01*
X7631619Y-14455187D01*
X7521545Y-14455187D01*
X7413586Y-14476661D01*
X7311891Y-14518785D01*
X7245855Y-14562909D01*
X7158644Y-14504636D01*
X7056949Y-14462512D01*
X6948990Y-14441038D01*
X6838916Y-14441038D01*
X6730957Y-14462512D01*
X6629262Y-14504636D01*
X6537739Y-14565790D01*
X6459905Y-14643624D01*
X6398751Y-14735147D01*
X6356627Y-14836842D01*
X6335153Y-14944801D01*
X4535671Y-14944801D01*
X4495702Y-14848309D01*
X4434548Y-14756786D01*
X4356714Y-14678952D01*
X4265191Y-14617798D01*
X4163496Y-14575674D01*
X4055537Y-14554200D01*
X3945463Y-14554200D01*
X3837504Y-14575674D01*
X3735809Y-14617798D01*
X3644286Y-14678952D01*
X3566452Y-14756786D01*
X3505298Y-14848309D01*
X3463174Y-14950004D01*
X3441700Y-15057963D01*
X329800Y-15057963D01*
X329800Y-13660963D01*
X2235200Y-13660963D01*
X2235200Y-13771037D01*
X2256674Y-13878996D01*
X2298798Y-13980691D01*
X2359952Y-14072214D01*
X2437786Y-14150048D01*
X2529309Y-14211202D01*
X2631004Y-14253326D01*
X2738963Y-14274800D01*
X2849037Y-14274800D01*
X2956996Y-14253326D01*
X3058691Y-14211202D01*
X3150214Y-14150048D01*
X3228048Y-14072214D01*
X3289202Y-13980691D01*
X3331326Y-13878996D01*
X3352800Y-13771037D01*
X3352800Y-13660963D01*
X10109200Y-13660963D01*
X10109200Y-13771037D01*
X10130674Y-13878996D01*
X10172798Y-13980691D01*
X10233952Y-14072214D01*
X10311786Y-14150048D01*
X10403309Y-14211202D01*
X10505004Y-14253326D01*
X10612963Y-14274800D01*
X10723037Y-14274800D01*
X10830996Y-14253326D01*
X10932691Y-14211202D01*
X11024214Y-14150048D01*
X11102048Y-14072214D01*
X11163202Y-13980691D01*
X11205326Y-13878996D01*
X11226800Y-13771037D01*
X11226800Y-13660963D01*
X11205326Y-13553004D01*
X11163202Y-13451309D01*
X11102048Y-13359786D01*
X11024214Y-13281952D01*
X10957557Y-13237413D01*
X10957996Y-13237326D01*
X11059691Y-13195202D01*
X11151214Y-13134048D01*
X11229048Y-13056214D01*
X11290202Y-12964691D01*
X11332326Y-12862996D01*
X11353800Y-12755037D01*
X11353800Y-12644963D01*
X11332326Y-12537004D01*
X11290202Y-12435309D01*
X11229048Y-12343786D01*
X11151214Y-12265952D01*
X11059691Y-12204798D01*
X10957996Y-12162674D01*
X10850037Y-12141200D01*
X10739963Y-12141200D01*
X10632004Y-12162674D01*
X10530309Y-12204798D01*
X10438786Y-12265952D01*
X10360952Y-12343786D01*
X10299798Y-12435309D01*
X10257674Y-12537004D01*
X10236200Y-12644963D01*
X10236200Y-12755037D01*
X10257674Y-12862996D01*
X10299798Y-12964691D01*
X10360952Y-13056214D01*
X10438786Y-13134048D01*
X10505443Y-13178587D01*
X10505004Y-13178674D01*
X10403309Y-13220798D01*
X10311786Y-13281952D01*
X10233952Y-13359786D01*
X10172798Y-13451309D01*
X10130674Y-13553004D01*
X10109200Y-13660963D01*
X3352800Y-13660963D01*
X3331326Y-13553004D01*
X3289202Y-13451309D01*
X3228048Y-13359786D01*
X3150214Y-13281952D01*
X3058691Y-13220798D01*
X2956996Y-13178674D01*
X2849037Y-13157200D01*
X2738963Y-13157200D01*
X2631004Y-13178674D01*
X2529309Y-13220798D01*
X2437786Y-13281952D01*
X2359952Y-13359786D01*
X2298798Y-13451309D01*
X2256674Y-13553004D01*
X2235200Y-13660963D01*
X329800Y-13660963D01*
X329800Y-12998491D01*
X8778788Y-12998491D01*
X8778788Y-13108565D01*
X8800262Y-13216524D01*
X8842386Y-13318219D01*
X8903540Y-13409742D01*
X8981374Y-13487576D01*
X9072897Y-13548730D01*
X9174592Y-13590854D01*
X9282551Y-13612328D01*
X9392625Y-13612328D01*
X9500584Y-13590854D01*
X9602279Y-13548730D01*
X9693802Y-13487576D01*
X9771636Y-13409742D01*
X9832790Y-13318219D01*
X9874914Y-13216524D01*
X9896388Y-13108565D01*
X9896388Y-12998491D01*
X9874914Y-12890532D01*
X9832790Y-12788837D01*
X9771636Y-12697314D01*
X9693802Y-12619480D01*
X9602279Y-12558326D01*
X9500584Y-12516202D01*
X9392625Y-12494728D01*
X9282551Y-12494728D01*
X9174592Y-12516202D01*
X9072897Y-12558326D01*
X8981374Y-12619480D01*
X8903540Y-12697314D01*
X8842386Y-12788837D01*
X8800262Y-12890532D01*
X8778788Y-12998491D01*
X329800Y-12998491D01*
X329800Y-12561211D01*
X393686Y-12587674D01*
X511460Y-12611100D01*
X631540Y-12611100D01*
X749314Y-12587674D01*
X860254Y-12541721D01*
X960098Y-12475008D01*
X1045008Y-12390098D01*
X1111721Y-12290254D01*
X1157674Y-12179314D01*
X1181100Y-12061540D01*
X1181100Y-11941460D01*
X3263900Y-11941460D01*
X3263900Y-12061540D01*
X3287326Y-12179314D01*
X3333279Y-12290254D01*
X3399992Y-12390098D01*
X3484902Y-12475008D01*
X3584746Y-12541721D01*
X3695686Y-12587674D01*
X3813460Y-12611100D01*
X3933540Y-12611100D01*
X4051314Y-12587674D01*
X4162254Y-12541721D01*
X4262098Y-12475008D01*
X4347008Y-12390098D01*
X4413721Y-12290254D01*
X4459674Y-12179314D01*
X4483100Y-12061540D01*
X4483100Y-11941460D01*
X4459674Y-11823686D01*
X4413721Y-11712746D01*
X4347008Y-11612902D01*
X4262098Y-11527992D01*
X4162254Y-11461279D01*
X4051314Y-11415326D01*
X3933540Y-11391900D01*
X3813460Y-11391900D01*
X3695686Y-11415326D01*
X3584746Y-11461279D01*
X3484902Y-11527992D01*
X3399992Y-11612902D01*
X3333279Y-11712746D01*
X3287326Y-11823686D01*
X3263900Y-11941460D01*
X1181100Y-11941460D01*
X1157674Y-11823686D01*
X1111721Y-11712746D01*
X1045008Y-11612902D01*
X960098Y-11527992D01*
X860254Y-11461279D01*
X749314Y-11415326D01*
X631540Y-11391900D01*
X511460Y-11391900D01*
X393686Y-11415326D01*
X329800Y-11441789D01*
X329800Y-11124800D01*
X3818764Y-11124800D01*
X3876894Y-11171205D01*
X3901997Y-11187507D01*
X3926865Y-11204155D01*
X3930943Y-11206305D01*
X4086545Y-11286961D01*
X4114332Y-11298075D01*
X4141961Y-11309576D01*
X4146379Y-11310893D01*
X4314684Y-11359790D01*
X4344082Y-11365291D01*
X4373439Y-11371211D01*
X4378029Y-11371645D01*
X4552626Y-11386920D01*
X4582553Y-11386606D01*
X4612478Y-11386711D01*
X4617065Y-11386245D01*
X4791304Y-11367317D01*
X4820618Y-11361193D01*
X4849977Y-11355486D01*
X4854386Y-11354138D01*
X5021630Y-11301727D01*
X5049151Y-11290045D01*
X5076888Y-11278726D01*
X5080951Y-11276547D01*
X5105400Y-11263217D01*
X5105400Y-11363040D01*
X5128826Y-11480814D01*
X5174779Y-11591754D01*
X5241492Y-11691598D01*
X5326402Y-11776508D01*
X5426246Y-11843221D01*
X5537186Y-11889174D01*
X5654960Y-11912600D01*
X5775040Y-11912600D01*
X5892814Y-11889174D01*
X6003754Y-11843221D01*
X6103598Y-11776508D01*
X6188508Y-11691598D01*
X6255221Y-11591754D01*
X6301174Y-11480814D01*
X6324600Y-11363040D01*
X6324600Y-11242960D01*
X6301174Y-11125186D01*
X6269617Y-11049000D01*
X12420597Y-11049000D01*
X12420598Y-15452665D01*
%TA.AperFunction,Conductor*%
D19*
G36*
X12420598Y-15452665D02*
G01*
X10698309Y-17174955D01*
X10659208Y-17174955D01*
X10551249Y-17196429D01*
X10449554Y-17238553D01*
X10358031Y-17299707D01*
X10280197Y-17377541D01*
X10219043Y-17469064D01*
X10176919Y-17570759D01*
X10155445Y-17678718D01*
X10155445Y-17788792D01*
X10176919Y-17896751D01*
X10219043Y-17998446D01*
X10280197Y-18089969D01*
X10358031Y-18167803D01*
X10449554Y-18228957D01*
X10551249Y-18271081D01*
X10659208Y-18292555D01*
X10769282Y-18292555D01*
X10877241Y-18271081D01*
X10978936Y-18228957D01*
X11070459Y-18167803D01*
X11148293Y-18089969D01*
X11209447Y-17998446D01*
X11251571Y-17896751D01*
X11273045Y-17788792D01*
X11273045Y-17749691D01*
X13080240Y-15942497D01*
X13087145Y-15948163D01*
X13494925Y-16355943D01*
X13472832Y-16351549D01*
X13352752Y-16351549D01*
X13234978Y-16374975D01*
X13124038Y-16420928D01*
X13024194Y-16487641D01*
X12939284Y-16572551D01*
X12872571Y-16672395D01*
X12826618Y-16783335D01*
X12803192Y-16901109D01*
X12803192Y-17021189D01*
X12826618Y-17138963D01*
X12872571Y-17249903D01*
X12939284Y-17349747D01*
X13024194Y-17434657D01*
X13124038Y-17501370D01*
X13234978Y-17547323D01*
X13352752Y-17570749D01*
X13472832Y-17570749D01*
X13590606Y-17547323D01*
X13701546Y-17501370D01*
X13801390Y-17434657D01*
X13886300Y-17349747D01*
X13953013Y-17249903D01*
X13998966Y-17138963D01*
X14022392Y-17021189D01*
X14022392Y-16901109D01*
X14017998Y-16879016D01*
X14271491Y-17132509D01*
X14284210Y-17148008D01*
X14299708Y-17160727D01*
X14299713Y-17160732D01*
X14320714Y-17177967D01*
X14346092Y-17198794D01*
X14416693Y-17236531D01*
X14493300Y-17259769D01*
X14553008Y-17265650D01*
X14553015Y-17265650D01*
X14572968Y-17267615D01*
X14592921Y-17265650D01*
X14595414Y-17265650D01*
X15024101Y-17694338D01*
X15024100Y-17929164D01*
X14036100Y-18917164D01*
X13691710Y-18917164D01*
X13664062Y-18889516D01*
X13572539Y-18828362D01*
X13470844Y-18786238D01*
X13362885Y-18764764D01*
X13252811Y-18764764D01*
X13144852Y-18786238D01*
X13043157Y-18828362D01*
X12951634Y-18889516D01*
X12873800Y-18967350D01*
X12812646Y-19058873D01*
X12770522Y-19160568D01*
X12749048Y-19268527D01*
X12749048Y-19378601D01*
X12770522Y-19486560D01*
X12812646Y-19588255D01*
X12873800Y-19679778D01*
X12951634Y-19757612D01*
X13043157Y-19818766D01*
X13144852Y-19860890D01*
X13238879Y-19879593D01*
X13173246Y-19906779D01*
X13073402Y-19973492D01*
X12988492Y-20058402D01*
X12921779Y-20158246D01*
X12875826Y-20269186D01*
X12852400Y-20386960D01*
X12852400Y-20507040D01*
X12875826Y-20624814D01*
X12921779Y-20735754D01*
X12988492Y-20835598D01*
X13073402Y-20920508D01*
X13173246Y-20987221D01*
X13284186Y-21033174D01*
X13401960Y-21056600D01*
X13522040Y-21056600D01*
X13639814Y-21033174D01*
X13750754Y-20987221D01*
X13850598Y-20920508D01*
X13886487Y-20884619D01*
X13916952Y-20930214D01*
X13994786Y-21008048D01*
X14086309Y-21069202D01*
X14188004Y-21111326D01*
X14295963Y-21132800D01*
X14406037Y-21132800D01*
X14513996Y-21111326D01*
X14615691Y-21069202D01*
X14707214Y-21008048D01*
X14785048Y-20930214D01*
X14846202Y-20838691D01*
X14888326Y-20736996D01*
X14909800Y-20629037D01*
X14909800Y-20518963D01*
X15062200Y-20518963D01*
X15062200Y-20629037D01*
X15083674Y-20736996D01*
X15125798Y-20838691D01*
X15186952Y-20930214D01*
X15264786Y-21008048D01*
X15356309Y-21069202D01*
X15458004Y-21111326D01*
X15565963Y-21132800D01*
X15676037Y-21132800D01*
X15783996Y-21111326D01*
X15885691Y-21069202D01*
X15977214Y-21008048D01*
X16055048Y-20930214D01*
X16116202Y-20838691D01*
X16158326Y-20736996D01*
X16179800Y-20629037D01*
X16179800Y-20518963D01*
X16234547Y-20518963D01*
X16234547Y-20629037D01*
X16256021Y-20736996D01*
X16298145Y-20838691D01*
X16359299Y-20930214D01*
X16437133Y-21008048D01*
X16528656Y-21069202D01*
X16630351Y-21111326D01*
X16738310Y-21132800D01*
X16848384Y-21132800D01*
X16956343Y-21111326D01*
X17058038Y-21069202D01*
X17149561Y-21008048D01*
X17223174Y-20934436D01*
X17296786Y-21008048D01*
X17388309Y-21069202D01*
X17490004Y-21111326D01*
X17597963Y-21132800D01*
X17708037Y-21132800D01*
X17815996Y-21111326D01*
X17917691Y-21069202D01*
X18009214Y-21008048D01*
X18034000Y-20983262D01*
X18058786Y-21008048D01*
X18150309Y-21069202D01*
X18252004Y-21111326D01*
X18359963Y-21132800D01*
X18470037Y-21132800D01*
X18577996Y-21111326D01*
X18679691Y-21069202D01*
X18771214Y-21008048D01*
X18849048Y-20930214D01*
X18910202Y-20838691D01*
X18952326Y-20736996D01*
X18973800Y-20629037D01*
X18973800Y-20518963D01*
X18952326Y-20411004D01*
X18910202Y-20309309D01*
X18849048Y-20217786D01*
X18771214Y-20139952D01*
X18694924Y-20088976D01*
X18781290Y-20053202D01*
X18872813Y-19992048D01*
X18950647Y-19914214D01*
X19011801Y-19822691D01*
X19053925Y-19720996D01*
X19075399Y-19613037D01*
X19075399Y-19502963D01*
X19053925Y-19395004D01*
X19011801Y-19293309D01*
X18950647Y-19201786D01*
X18872813Y-19123952D01*
X18781290Y-19062798D01*
X18679595Y-19020674D01*
X18571636Y-18999200D01*
X18461562Y-18999200D01*
X18353603Y-19020674D01*
X18251908Y-19062798D01*
X18160385Y-19123952D01*
X18082551Y-19201786D01*
X18021397Y-19293309D01*
X17979273Y-19395004D01*
X17957799Y-19502963D01*
X17957799Y-19613037D01*
X17979273Y-19720996D01*
X18021397Y-19822691D01*
X18082551Y-19914214D01*
X18160385Y-19992048D01*
X18236675Y-20043024D01*
X18150309Y-20078798D01*
X18058786Y-20139952D01*
X18034000Y-20164738D01*
X18009214Y-20139952D01*
X17917691Y-20078798D01*
X17815996Y-20036674D01*
X17708037Y-20015200D01*
X17597963Y-20015200D01*
X17490004Y-20036674D01*
X17388309Y-20078798D01*
X17296786Y-20139952D01*
X17223174Y-20213565D01*
X17149561Y-20139952D01*
X17058038Y-20078798D01*
X16956343Y-20036674D01*
X16848384Y-20015200D01*
X16738310Y-20015200D01*
X16630351Y-20036674D01*
X16528656Y-20078798D01*
X16437133Y-20139952D01*
X16359299Y-20217786D01*
X16298145Y-20309309D01*
X16256021Y-20411004D01*
X16234547Y-20518963D01*
X16179800Y-20518963D01*
X16158326Y-20411004D01*
X16116202Y-20309309D01*
X16055048Y-20217786D01*
X15977214Y-20139952D01*
X15885691Y-20078798D01*
X15783996Y-20036674D01*
X15676037Y-20015200D01*
X15565963Y-20015200D01*
X15458004Y-20036674D01*
X15356309Y-20078798D01*
X15264786Y-20139952D01*
X15186952Y-20217786D01*
X15125798Y-20309309D01*
X15083674Y-20411004D01*
X15062200Y-20518963D01*
X14909800Y-20518963D01*
X14888326Y-20411004D01*
X14846202Y-20309309D01*
X14785048Y-20217786D01*
X14707214Y-20139952D01*
X14615691Y-20078798D01*
X14569442Y-20059641D01*
X14569442Y-19980482D01*
X14547968Y-19872523D01*
X14505844Y-19770828D01*
X14444690Y-19679305D01*
X14429475Y-19664090D01*
X14431312Y-19663108D01*
X14493194Y-19612322D01*
X14505918Y-19596818D01*
X15703755Y-18398981D01*
X15719258Y-18386258D01*
X15770044Y-18324376D01*
X15807781Y-18253775D01*
X15831019Y-18177168D01*
X15836900Y-18117460D01*
X15836900Y-18117454D01*
X15838865Y-18097501D01*
X15836900Y-18077548D01*
X15836900Y-17545953D01*
X15838865Y-17526000D01*
X15836900Y-17506047D01*
X15836900Y-17506040D01*
X15831019Y-17446332D01*
X15829348Y-17440821D01*
X15807781Y-17369725D01*
X15770044Y-17299124D01*
X15742586Y-17265667D01*
X15731982Y-17252745D01*
X15731977Y-17252740D01*
X15719258Y-17237242D01*
X15703759Y-17224522D01*
X15065231Y-16585995D01*
X15052508Y-16570492D01*
X14998277Y-16525985D01*
X15039048Y-16485214D01*
X15100202Y-16393691D01*
X15142326Y-16291996D01*
X15163800Y-16184037D01*
X15163800Y-16073963D01*
X15142326Y-15966004D01*
X15100202Y-15864309D01*
X15039048Y-15772786D01*
X14961214Y-15694952D01*
X14869691Y-15633798D01*
X14767996Y-15591674D01*
X14676260Y-15573427D01*
X14669939Y-15541649D01*
X14627815Y-15439954D01*
X14566661Y-15348431D01*
X14488827Y-15270597D01*
X14397304Y-15209443D01*
X14295609Y-15167319D01*
X14187650Y-15145845D01*
X14077576Y-15145845D01*
X13969617Y-15167319D01*
X13867922Y-15209443D01*
X13776399Y-15270597D01*
X13766799Y-15280197D01*
X13766799Y-13381590D01*
X13787963Y-13385800D01*
X13898037Y-13385800D01*
X14005996Y-13364326D01*
X14107691Y-13322202D01*
X14199214Y-13261048D01*
X14277048Y-13183214D01*
X14338202Y-13091691D01*
X14380326Y-12989996D01*
X14401800Y-12882037D01*
X14401800Y-12771963D01*
X14380326Y-12664004D01*
X14338202Y-12562309D01*
X14277048Y-12470786D01*
X14199214Y-12392952D01*
X14107691Y-12331798D01*
X14005996Y-12289674D01*
X13898037Y-12268200D01*
X13787963Y-12268200D01*
X13766799Y-12272410D01*
X13766799Y-11049000D01*
X13928528Y-11049000D01*
X17881600Y-15002073D01*
X17881600Y-15007962D01*
X17835037Y-14998700D01*
X17724963Y-14998700D01*
X17617004Y-15020174D01*
X17515309Y-15062298D01*
X17423786Y-15123452D01*
X17402491Y-15144747D01*
X17306754Y-15080779D01*
X17195814Y-15034826D01*
X17078040Y-15011400D01*
X16957960Y-15011400D01*
X16840186Y-15034826D01*
X16729246Y-15080779D01*
X16637000Y-15142415D01*
X16544754Y-15080779D01*
X16433814Y-15034826D01*
X16316040Y-15011400D01*
X16195960Y-15011400D01*
X16078186Y-15034826D01*
X15967246Y-15080779D01*
X15867402Y-15147492D01*
X15782492Y-15232402D01*
X15715779Y-15332246D01*
X15669826Y-15443186D01*
X15646400Y-15560960D01*
X15646400Y-15681040D01*
X15669826Y-15798814D01*
X15715779Y-15909754D01*
X15782492Y-16009598D01*
X15867402Y-16094508D01*
X15967246Y-16161221D01*
X16078186Y-16207174D01*
X16195960Y-16230600D01*
X16316040Y-16230600D01*
X16433814Y-16207174D01*
X16544754Y-16161221D01*
X16637000Y-16099585D01*
X16729246Y-16161221D01*
X16840186Y-16207174D01*
X16957960Y-16230600D01*
X17078040Y-16230600D01*
X17195814Y-16207174D01*
X17306754Y-16161221D01*
X17406598Y-16094508D01*
X17475202Y-16025904D01*
X17515309Y-16052702D01*
X17617004Y-16094826D01*
X17724963Y-16116300D01*
X17835037Y-16116300D01*
X17867173Y-16109908D01*
X17895923Y-16179316D01*
X17957077Y-16270839D01*
X18034911Y-16348673D01*
X18126434Y-16409827D01*
X18228129Y-16451951D01*
X18336088Y-16473425D01*
X18446162Y-16473425D01*
X18554121Y-16451951D01*
X18655816Y-16409827D01*
X18747339Y-16348673D01*
X18825173Y-16270839D01*
X18886327Y-16179316D01*
X18928451Y-16077621D01*
X18933212Y-16053684D01*
X20488282Y-17608754D01*
X20501006Y-17624258D01*
X20562888Y-17675044D01*
X20633489Y-17712781D01*
X20692266Y-17730610D01*
X20702268Y-17733645D01*
X20671674Y-17807504D01*
X20650200Y-17915463D01*
X20650200Y-18025537D01*
X20671674Y-18133496D01*
X20713798Y-18235191D01*
X20774952Y-18326714D01*
X20852786Y-18404548D01*
X20944309Y-18465702D01*
X21046004Y-18507826D01*
X21046873Y-18507999D01*
X21031298Y-18531309D01*
X20989174Y-18633004D01*
X20967700Y-18740963D01*
X20967700Y-18851037D01*
X20989174Y-18958996D01*
X21031298Y-19060691D01*
X21092452Y-19152214D01*
X21170286Y-19230048D01*
X21261809Y-19291202D01*
X21363504Y-19333326D01*
X21471463Y-19354800D01*
X21581537Y-19354800D01*
X21689496Y-19333326D01*
X21791191Y-19291202D01*
X21882714Y-19230048D01*
X21927299Y-19185463D01*
X22237700Y-19185463D01*
X22237700Y-19295537D01*
X22259174Y-19403496D01*
X22301298Y-19505191D01*
X22362452Y-19596714D01*
X22440286Y-19674548D01*
X22531809Y-19735702D01*
X22633504Y-19777826D01*
X22741463Y-19799300D01*
X22851537Y-19799300D01*
X22959496Y-19777826D01*
X23061191Y-19735702D01*
X23152714Y-19674548D01*
X23230548Y-19596714D01*
X23291702Y-19505191D01*
X23333826Y-19403496D01*
X23355300Y-19295537D01*
X23355300Y-19185463D01*
X23333826Y-19077504D01*
X23291702Y-18975809D01*
X23230548Y-18884286D01*
X23152714Y-18806452D01*
X23061191Y-18745298D01*
X22959496Y-18703174D01*
X22851537Y-18681700D01*
X22741463Y-18681700D01*
X22633504Y-18703174D01*
X22531809Y-18745298D01*
X22440286Y-18806452D01*
X22362452Y-18884286D01*
X22301298Y-18975809D01*
X22259174Y-19077504D01*
X22237700Y-19185463D01*
X21927299Y-19185463D01*
X21960548Y-19152214D01*
X22021702Y-19060691D01*
X22063826Y-18958996D01*
X22085300Y-18851037D01*
X22085300Y-18740963D01*
X22063826Y-18633004D01*
X22021702Y-18531309D01*
X21960548Y-18439786D01*
X21882714Y-18361952D01*
X21791191Y-18300798D01*
X21689496Y-18258674D01*
X21688627Y-18258501D01*
X21704202Y-18235191D01*
X21746326Y-18133496D01*
X21757831Y-18075655D01*
X21964856Y-17868630D01*
X21980359Y-17855907D01*
X22031145Y-17794025D01*
X22068882Y-17723424D01*
X22079283Y-17689135D01*
X22092120Y-17646818D01*
X22094342Y-17624258D01*
X22098001Y-17587109D01*
X22098001Y-17587102D01*
X22099966Y-17567149D01*
X22098001Y-17547196D01*
X22098001Y-17123804D01*
X22099966Y-17103851D01*
X22098001Y-17083898D01*
X22098001Y-17083891D01*
X22092120Y-17024183D01*
X22089494Y-17015524D01*
X22068882Y-16947576D01*
X22062150Y-16934981D01*
X22031145Y-16876975D01*
X21980359Y-16815093D01*
X21964855Y-16802369D01*
X21817539Y-16655053D01*
X21830944Y-16634990D01*
X21873068Y-16533295D01*
X21875527Y-16520931D01*
X21967336Y-16582276D01*
X22086502Y-16631636D01*
X22213008Y-16656800D01*
X22341992Y-16656800D01*
X22364700Y-16652283D01*
X22364700Y-16692037D01*
X22386174Y-16799996D01*
X22428298Y-16901691D01*
X22489452Y-16993214D01*
X22567286Y-17071048D01*
X22658809Y-17132202D01*
X22760504Y-17174326D01*
X22868463Y-17195800D01*
X22978537Y-17195800D01*
X23086496Y-17174326D01*
X23188191Y-17132202D01*
X23279714Y-17071048D01*
X23357548Y-16993214D01*
X23418702Y-16901691D01*
X23460826Y-16799996D01*
X23482300Y-16692037D01*
X23482300Y-16581963D01*
X23460826Y-16474004D01*
X23418702Y-16372309D01*
X23357548Y-16280786D01*
X23279714Y-16202952D01*
X23188191Y-16141798D01*
X23086496Y-16099674D01*
X22978537Y-16078200D01*
X22929971Y-16078200D01*
X22932300Y-16066492D01*
X22932300Y-15937508D01*
X23422700Y-15937508D01*
X23422700Y-16066492D01*
X23447864Y-16192998D01*
X23497224Y-16312164D01*
X23568884Y-16419410D01*
X23660090Y-16510616D01*
X23767336Y-16582276D01*
X23886502Y-16631636D01*
X24013008Y-16656800D01*
X24141992Y-16656800D01*
X24268498Y-16631636D01*
X24387664Y-16582276D01*
X24494910Y-16510616D01*
X24586116Y-16419410D01*
X24657776Y-16312164D01*
X24707136Y-16192998D01*
X24732300Y-16066492D01*
X24732300Y-15937508D01*
X24707136Y-15811002D01*
X24657776Y-15691836D01*
X24586116Y-15584590D01*
X24494910Y-15493384D01*
X24387664Y-15421724D01*
X24268498Y-15372364D01*
X24141992Y-15347200D01*
X24013008Y-15347200D01*
X23886502Y-15372364D01*
X23767336Y-15421724D01*
X23660090Y-15493384D01*
X23568884Y-15584590D01*
X23497224Y-15691836D01*
X23447864Y-15811002D01*
X23422700Y-15937508D01*
X22932300Y-15937508D01*
X22907136Y-15811002D01*
X22857776Y-15691836D01*
X22786116Y-15584590D01*
X22694910Y-15493384D01*
X22587664Y-15421724D01*
X22468498Y-15372364D01*
X22341992Y-15347200D01*
X22213008Y-15347200D01*
X22086502Y-15372364D01*
X21967336Y-15421724D01*
X21860090Y-15493384D01*
X21768884Y-15584590D01*
X21697224Y-15691836D01*
X21647864Y-15811002D01*
X21631046Y-15895552D01*
X21600433Y-15875097D01*
X21498738Y-15832973D01*
X21390779Y-15811499D01*
X21280705Y-15811499D01*
X21172746Y-15832973D01*
X21071051Y-15875097D01*
X20979528Y-15936251D01*
X20901694Y-16014085D01*
X20840540Y-16105608D01*
X20798416Y-16207303D01*
X20782634Y-16286647D01*
X19757752Y-15261766D01*
X19776004Y-15269326D01*
X19883963Y-15290800D01*
X19994037Y-15290800D01*
X20101996Y-15269326D01*
X20203691Y-15227202D01*
X20295214Y-15166048D01*
X20373048Y-15088214D01*
X20434202Y-14996691D01*
X20476326Y-14894996D01*
X20497800Y-14787037D01*
X20497800Y-14676963D01*
X20476326Y-14569004D01*
X20434202Y-14467309D01*
X20373048Y-14375786D01*
X20295214Y-14297952D01*
X20203691Y-14236798D01*
X20101996Y-14194674D01*
X19994037Y-14173200D01*
X19883963Y-14173200D01*
X19776004Y-14194674D01*
X19674309Y-14236798D01*
X19582786Y-14297952D01*
X19558000Y-14322738D01*
X19533214Y-14297952D01*
X19441691Y-14236798D01*
X19339996Y-14194674D01*
X19232037Y-14173200D01*
X19121963Y-14173200D01*
X19014004Y-14194674D01*
X18912309Y-14236798D01*
X18820786Y-14297952D01*
X18807362Y-14311376D01*
X17267949Y-12771963D01*
X18491200Y-12771963D01*
X18491200Y-12882037D01*
X18512674Y-12989996D01*
X18554798Y-13091691D01*
X18615952Y-13183214D01*
X18640738Y-13208000D01*
X18615952Y-13232786D01*
X18554798Y-13324309D01*
X18512674Y-13426004D01*
X18491200Y-13533963D01*
X18491200Y-13644037D01*
X18512674Y-13751996D01*
X18554798Y-13853691D01*
X18615952Y-13945214D01*
X18693786Y-14023048D01*
X18785309Y-14084202D01*
X18887004Y-14126326D01*
X18994963Y-14147800D01*
X19105037Y-14147800D01*
X19212996Y-14126326D01*
X19314691Y-14084202D01*
X19406214Y-14023048D01*
X19484048Y-13945214D01*
X19545202Y-13853691D01*
X19587326Y-13751996D01*
X19608800Y-13644037D01*
X19608800Y-13533963D01*
X19587326Y-13426004D01*
X19545202Y-13324309D01*
X19484048Y-13232786D01*
X19459262Y-13208000D01*
X19484048Y-13183214D01*
X19545202Y-13091691D01*
X19572427Y-13025963D01*
X20904200Y-13025963D01*
X20904200Y-13136037D01*
X20925674Y-13243996D01*
X20967798Y-13345691D01*
X21028952Y-13437214D01*
X21106786Y-13515048D01*
X21198309Y-13576202D01*
X21300004Y-13618326D01*
X21407963Y-13639800D01*
X21518037Y-13639800D01*
X21625996Y-13618326D01*
X21727691Y-13576202D01*
X21819214Y-13515048D01*
X21897048Y-13437214D01*
X21958202Y-13345691D01*
X22000326Y-13243996D01*
X22021800Y-13136037D01*
X22021800Y-13025963D01*
X22000326Y-12918004D01*
X21958202Y-12816309D01*
X21897048Y-12724786D01*
X21819214Y-12646952D01*
X21727691Y-12585798D01*
X21625996Y-12543674D01*
X21518037Y-12522200D01*
X21407963Y-12522200D01*
X21300004Y-12543674D01*
X21198309Y-12585798D01*
X21106786Y-12646952D01*
X21028952Y-12724786D01*
X20967798Y-12816309D01*
X20925674Y-12918004D01*
X20904200Y-13025963D01*
X19572427Y-13025963D01*
X19587326Y-12989996D01*
X19608800Y-12882037D01*
X19608800Y-12771963D01*
X19587326Y-12664004D01*
X19545202Y-12562309D01*
X19484048Y-12470786D01*
X19406214Y-12392952D01*
X19314691Y-12331798D01*
X19212996Y-12289674D01*
X19105037Y-12268200D01*
X18994963Y-12268200D01*
X18887004Y-12289674D01*
X18785309Y-12331798D01*
X18693786Y-12392952D01*
X18615952Y-12470786D01*
X18554798Y-12562309D01*
X18512674Y-12664004D01*
X18491200Y-12771963D01*
X17267949Y-12771963D01*
X15773400Y-11277414D01*
X15773400Y-11049000D01*
X19003383Y-11049000D01*
X18971826Y-11125186D01*
X18948400Y-11242960D01*
X18948400Y-11363040D01*
X18971826Y-11480814D01*
X19017779Y-11591754D01*
X19084492Y-11691598D01*
X19169402Y-11776508D01*
X19269246Y-11843221D01*
X19380186Y-11889174D01*
X19497960Y-11912600D01*
X19618040Y-11912600D01*
X19735814Y-11889174D01*
X19846754Y-11843221D01*
X19946598Y-11776508D01*
X20031508Y-11691598D01*
X20098221Y-11591754D01*
X20144174Y-11480814D01*
X20167600Y-11363040D01*
X20167600Y-11242960D01*
X20161791Y-11213753D01*
X20222846Y-11246388D01*
X20402827Y-11300984D01*
X20543103Y-11314800D01*
X21294360Y-11314800D01*
X21330799Y-11359201D01*
X21364575Y-11386920D01*
X21386347Y-11404788D01*
X21449722Y-11438662D01*
X21518487Y-11459522D01*
X21590000Y-11466565D01*
X21607921Y-11464800D01*
X23172079Y-11464800D01*
X23190000Y-11466565D01*
X23207921Y-11464800D01*
X23261513Y-11459522D01*
X23330278Y-11438662D01*
X23393653Y-11404788D01*
X23449201Y-11359201D01*
X23494788Y-11303653D01*
X23528662Y-11240278D01*
X23549522Y-11171513D01*
X23556565Y-11100000D01*
X23554800Y-11082079D01*
X23554800Y-11049000D01*
X24043760Y-11049000D01*
X23968246Y-11080279D01*
X23868402Y-11146992D01*
X23783492Y-11231902D01*
X23716779Y-11331746D01*
X23670826Y-11442686D01*
X23647400Y-11560460D01*
X23647400Y-11680540D01*
X23670826Y-11798314D01*
X23716779Y-11909254D01*
X23783492Y-12009098D01*
X23868402Y-12094008D01*
X23920023Y-12128500D01*
X23868402Y-12162992D01*
X23783492Y-12247902D01*
X23716779Y-12347746D01*
X23670826Y-12458686D01*
X23647400Y-12576460D01*
X23647400Y-12696540D01*
X23670826Y-12814314D01*
X23716779Y-12925254D01*
X23783492Y-13025098D01*
X23868402Y-13110008D01*
X23968246Y-13176721D01*
X24079186Y-13222674D01*
X24196960Y-13246100D01*
X24317040Y-13246100D01*
X24434814Y-13222674D01*
X24545754Y-13176721D01*
X24645598Y-13110008D01*
X24730508Y-13025098D01*
X24797221Y-12925254D01*
X24843174Y-12814314D01*
X24866600Y-12696540D01*
X24866600Y-12576460D01*
X24843174Y-12458686D01*
X24797221Y-12347746D01*
X24730508Y-12247902D01*
X24645598Y-12162992D01*
X24593977Y-12128500D01*
X24645598Y-12094008D01*
X24730508Y-12009098D01*
X24797221Y-11909254D01*
X24843174Y-11798314D01*
X24866600Y-11680540D01*
X24866600Y-11560460D01*
X24843174Y-11442686D01*
X24797221Y-11331746D01*
X24730508Y-11231902D01*
X24645598Y-11146992D01*
X24545754Y-11080279D01*
X24470240Y-11049000D01*
X25035200Y-11049000D01*
X25035201Y-12209921D01*
X25040479Y-12263513D01*
X25061339Y-12332278D01*
X25070200Y-12348856D01*
X25070201Y-21157957D01*
X25020638Y-21148099D01*
X24910564Y-21148099D01*
X24802605Y-21169573D01*
X24700910Y-21211697D01*
X24609387Y-21272851D01*
X24531553Y-21350685D01*
X24470399Y-21442208D01*
X24428275Y-21543903D01*
X24406801Y-21651862D01*
X24406801Y-21761936D01*
X24428275Y-21869895D01*
X24470399Y-21971590D01*
X24531553Y-22063113D01*
X24609387Y-22140947D01*
X24700910Y-22202101D01*
X24802605Y-22244225D01*
X24910564Y-22265699D01*
X25020638Y-22265699D01*
X25070201Y-22255841D01*
X25070201Y-24875859D01*
X25065255Y-24926305D01*
X25055292Y-24959303D01*
X25039107Y-24989742D01*
X25017324Y-25016450D01*
X24990765Y-25038422D01*
X24960439Y-25054819D01*
X24927514Y-25065011D01*
X24878148Y-25070200D01*
X524131Y-25070200D01*
X473695Y-25065255D01*
X440697Y-25055292D01*
X410258Y-25039107D01*
X383550Y-25017324D01*
X361578Y-24990765D01*
X345181Y-24960439D01*
X334989Y-24927514D01*
X329800Y-24878148D01*
X329800Y-24228929D01*
X337440Y-24254114D01*
X419135Y-24406955D01*
X529079Y-24540922D01*
X663046Y-24650866D01*
X815887Y-24732561D01*
X981730Y-24782869D01*
X1154200Y-24799856D01*
X1326671Y-24782869D01*
X1492514Y-24732561D01*
X1645355Y-24650866D01*
X1779322Y-24540922D01*
X1889266Y-24406955D01*
X1970961Y-24254114D01*
X2021269Y-24088271D01*
X2034000Y-23959012D01*
X2034000Y-23222589D01*
X8024400Y-23222589D01*
X8024400Y-23959012D01*
X8037131Y-24088271D01*
X8087440Y-24254114D01*
X8169135Y-24406955D01*
X8279079Y-24540922D01*
X8413046Y-24650866D01*
X8565887Y-24732561D01*
X8731730Y-24782869D01*
X8904200Y-24799856D01*
X9076671Y-24782869D01*
X9242514Y-24732561D01*
X9395355Y-24650866D01*
X9529322Y-24540922D01*
X9639266Y-24406955D01*
X9720961Y-24254114D01*
X9771269Y-24088271D01*
X9784000Y-23959012D01*
X9784000Y-23465363D01*
X13563600Y-23465363D01*
X13563600Y-23575437D01*
X13585074Y-23683396D01*
X13627198Y-23785091D01*
X13688352Y-23876614D01*
X13766186Y-23954448D01*
X13857709Y-24015602D01*
X13919200Y-24041073D01*
X13919200Y-24121537D01*
X13940674Y-24229496D01*
X13982798Y-24331191D01*
X14043952Y-24422714D01*
X14121786Y-24500548D01*
X14213309Y-24561702D01*
X14315004Y-24603826D01*
X14422963Y-24625300D01*
X14533037Y-24625300D01*
X14640996Y-24603826D01*
X14742691Y-24561702D01*
X14834214Y-24500548D01*
X14912048Y-24422714D01*
X14973202Y-24331191D01*
X15015326Y-24229496D01*
X15036800Y-24121537D01*
X15036800Y-24011463D01*
X15015326Y-23903504D01*
X14973202Y-23801809D01*
X14912048Y-23710286D01*
X14834214Y-23632452D01*
X14742691Y-23571298D01*
X14732226Y-23566963D01*
X18364200Y-23566963D01*
X18364200Y-23677037D01*
X18385674Y-23784996D01*
X18427798Y-23886691D01*
X18488952Y-23978214D01*
X18566786Y-24056048D01*
X18658309Y-24117202D01*
X18760004Y-24159326D01*
X18867963Y-24180800D01*
X18978037Y-24180800D01*
X19085996Y-24159326D01*
X19187691Y-24117202D01*
X19279214Y-24056048D01*
X19357048Y-23978214D01*
X19418202Y-23886691D01*
X19460326Y-23784996D01*
X19481800Y-23677037D01*
X19481800Y-23676717D01*
X19574360Y-23676717D01*
X19692134Y-23653291D01*
X19803074Y-23607338D01*
X19902918Y-23540625D01*
X19987828Y-23455715D01*
X20054541Y-23355871D01*
X20074386Y-23307960D01*
X22631400Y-23307960D01*
X22631400Y-23428040D01*
X22654826Y-23545814D01*
X22700779Y-23656754D01*
X22767492Y-23756598D01*
X22852402Y-23841508D01*
X22952246Y-23908221D01*
X23063186Y-23954174D01*
X23180960Y-23977600D01*
X23301040Y-23977600D01*
X23418814Y-23954174D01*
X23529754Y-23908221D01*
X23629598Y-23841508D01*
X23714508Y-23756598D01*
X23781221Y-23656754D01*
X23827174Y-23545814D01*
X23850600Y-23428040D01*
X23850600Y-23307960D01*
X23827174Y-23190186D01*
X23781221Y-23079246D01*
X23714508Y-22979402D01*
X23629598Y-22894492D01*
X23529754Y-22827779D01*
X23418814Y-22781826D01*
X23301040Y-22758400D01*
X23180960Y-22758400D01*
X23063186Y-22781826D01*
X22952246Y-22827779D01*
X22852402Y-22894492D01*
X22767492Y-22979402D01*
X22700779Y-23079246D01*
X22654826Y-23190186D01*
X22631400Y-23307960D01*
X20074386Y-23307960D01*
X20100494Y-23244931D01*
X20123920Y-23127157D01*
X20123920Y-23007077D01*
X20100494Y-22889303D01*
X20054541Y-22778363D01*
X19987828Y-22678519D01*
X19902918Y-22593609D01*
X19803074Y-22526896D01*
X19692134Y-22480943D01*
X19574360Y-22457517D01*
X19454280Y-22457517D01*
X19336506Y-22480943D01*
X19225566Y-22526896D01*
X19125722Y-22593609D01*
X19040812Y-22678519D01*
X18974099Y-22778363D01*
X18928146Y-22889303D01*
X18904720Y-23007077D01*
X18904720Y-23063200D01*
X18867963Y-23063200D01*
X18760004Y-23084674D01*
X18658309Y-23126798D01*
X18566786Y-23187952D01*
X18488952Y-23265786D01*
X18427798Y-23357309D01*
X18385674Y-23459004D01*
X18364200Y-23566963D01*
X14732226Y-23566963D01*
X14681200Y-23545827D01*
X14681200Y-23465363D01*
X14659726Y-23357404D01*
X14617602Y-23255709D01*
X14556448Y-23164186D01*
X14478614Y-23086352D01*
X14387091Y-23025198D01*
X14285396Y-22983074D01*
X14177437Y-22961600D01*
X14067363Y-22961600D01*
X13959404Y-22983074D01*
X13857709Y-23025198D01*
X13766186Y-23086352D01*
X13688352Y-23164186D01*
X13627198Y-23255709D01*
X13585074Y-23357404D01*
X13563600Y-23465363D01*
X9784000Y-23465363D01*
X9784000Y-23222588D01*
X9771269Y-23093329D01*
X9720961Y-22927486D01*
X9639266Y-22774645D01*
X9529322Y-22640678D01*
X9395354Y-22530734D01*
X9242513Y-22449039D01*
X9076670Y-22398731D01*
X8904200Y-22381744D01*
X8731729Y-22398731D01*
X8565886Y-22449039D01*
X8413045Y-22530734D01*
X8279078Y-22640678D01*
X8169134Y-22774646D01*
X8087439Y-22927487D01*
X8037131Y-23093330D01*
X8024400Y-23222589D01*
X2034000Y-23222589D01*
X2034000Y-23222588D01*
X2021269Y-23093329D01*
X1970961Y-22927486D01*
X1889266Y-22774645D01*
X1779322Y-22640678D01*
X1645354Y-22530734D01*
X1492513Y-22449039D01*
X1326670Y-22398731D01*
X1154200Y-22381744D01*
X981729Y-22398731D01*
X815886Y-22449039D01*
X663045Y-22530734D01*
X529078Y-22640678D01*
X419134Y-22774646D01*
X337439Y-22927487D01*
X329800Y-22952669D01*
X329800Y-21899260D01*
X2881900Y-21899260D01*
X2881900Y-22019340D01*
X2905326Y-22137114D01*
X2951279Y-22248054D01*
X3017992Y-22347898D01*
X3102902Y-22432808D01*
X3202746Y-22499521D01*
X3313686Y-22545474D01*
X3431460Y-22568900D01*
X3551540Y-22568900D01*
X3669314Y-22545474D01*
X3780254Y-22499521D01*
X3880098Y-22432808D01*
X3965008Y-22347898D01*
X4031721Y-22248054D01*
X4077674Y-22137114D01*
X4101100Y-22019340D01*
X4101100Y-21899260D01*
X4077674Y-21781486D01*
X4031721Y-21670546D01*
X3965008Y-21570702D01*
X3880098Y-21485792D01*
X3780254Y-21419079D01*
X3669314Y-21373126D01*
X3551540Y-21349700D01*
X3431460Y-21349700D01*
X3313686Y-21373126D01*
X3202746Y-21419079D01*
X3102902Y-21485792D01*
X3017992Y-21570702D01*
X2951279Y-21670546D01*
X2905326Y-21781486D01*
X2881900Y-21899260D01*
X329800Y-21899260D01*
X329800Y-20401183D01*
X348186Y-20461794D01*
X443811Y-20640694D01*
X572500Y-20797501D01*
X729307Y-20926190D01*
X908207Y-21021814D01*
X1102325Y-21080699D01*
X1304200Y-21100582D01*
X1506076Y-21080699D01*
X1700194Y-21021814D01*
X1832528Y-20951080D01*
X1851485Y-21046383D01*
X1904615Y-21174648D01*
X1981746Y-21290084D01*
X2079916Y-21388254D01*
X2195352Y-21465385D01*
X2323617Y-21518515D01*
X2459783Y-21545600D01*
X2598617Y-21545600D01*
X2734783Y-21518515D01*
X2863048Y-21465385D01*
X2978484Y-21388254D01*
X3076654Y-21290084D01*
X3153785Y-21174648D01*
X3206915Y-21046383D01*
X3234000Y-20910217D01*
X3234000Y-20771383D01*
X6824400Y-20771383D01*
X6824400Y-20910217D01*
X6851485Y-21046383D01*
X6904615Y-21174648D01*
X6981746Y-21290084D01*
X7079916Y-21388254D01*
X7195352Y-21465385D01*
X7323617Y-21518515D01*
X7459783Y-21545600D01*
X7598617Y-21545600D01*
X7734783Y-21518515D01*
X7863048Y-21465385D01*
X7978484Y-21388254D01*
X8027278Y-21339460D01*
X20916900Y-21339460D01*
X20916900Y-21459540D01*
X20940326Y-21577314D01*
X20986279Y-21688254D01*
X21052992Y-21788098D01*
X21137902Y-21873008D01*
X21237746Y-21939721D01*
X21348686Y-21985674D01*
X21466460Y-22009100D01*
X21586540Y-22009100D01*
X21704314Y-21985674D01*
X21815254Y-21939721D01*
X21915098Y-21873008D01*
X22000008Y-21788098D01*
X22066721Y-21688254D01*
X22112674Y-21577314D01*
X22136100Y-21459540D01*
X22136100Y-21339460D01*
X22112674Y-21221686D01*
X22066721Y-21110746D01*
X22000008Y-21010902D01*
X21915098Y-20925992D01*
X21815254Y-20859279D01*
X21704314Y-20813326D01*
X21586540Y-20789900D01*
X21466460Y-20789900D01*
X21348686Y-20813326D01*
X21237746Y-20859279D01*
X21137902Y-20925992D01*
X21052992Y-21010902D01*
X20986279Y-21110746D01*
X20940326Y-21221686D01*
X20916900Y-21339460D01*
X8027278Y-21339460D01*
X8076654Y-21290084D01*
X8153785Y-21174648D01*
X8206915Y-21046383D01*
X8225872Y-20951079D01*
X8358207Y-21021814D01*
X8552325Y-21080699D01*
X8754200Y-21100582D01*
X8956076Y-21080699D01*
X9150194Y-21021814D01*
X9329094Y-20926190D01*
X9485901Y-20797501D01*
X9614590Y-20640694D01*
X9710214Y-20461793D01*
X9769099Y-20267675D01*
X9784000Y-20116382D01*
X9784000Y-19947463D01*
X9855200Y-19947463D01*
X9855200Y-20057537D01*
X9876674Y-20165496D01*
X9918798Y-20267191D01*
X9975299Y-20351750D01*
X9918798Y-20436309D01*
X9876674Y-20538004D01*
X9855200Y-20645963D01*
X9855200Y-20756037D01*
X9876674Y-20863996D01*
X9918798Y-20965691D01*
X9979952Y-21057214D01*
X10057786Y-21135048D01*
X10149309Y-21196202D01*
X10251004Y-21238326D01*
X10358963Y-21259800D01*
X10469037Y-21259800D01*
X10576996Y-21238326D01*
X10678691Y-21196202D01*
X10770214Y-21135048D01*
X10848048Y-21057214D01*
X10909202Y-20965691D01*
X10951326Y-20863996D01*
X10972800Y-20756037D01*
X10972800Y-20645963D01*
X10951326Y-20538004D01*
X10909202Y-20436309D01*
X10852701Y-20351750D01*
X10909202Y-20267191D01*
X10951326Y-20165496D01*
X10972800Y-20057537D01*
X10972800Y-19947463D01*
X10951326Y-19839504D01*
X10909202Y-19737809D01*
X10848048Y-19646286D01*
X10770214Y-19568452D01*
X10678691Y-19507298D01*
X10576996Y-19465174D01*
X10469037Y-19443700D01*
X10358963Y-19443700D01*
X10251004Y-19465174D01*
X10149309Y-19507298D01*
X10057786Y-19568452D01*
X9979952Y-19646286D01*
X9918798Y-19737809D01*
X9876674Y-19839504D01*
X9855200Y-19947463D01*
X9784000Y-19947463D01*
X9784000Y-19465217D01*
X9769099Y-19313924D01*
X9710214Y-19119806D01*
X9614590Y-18940906D01*
X9485901Y-18784099D01*
X9329094Y-18655410D01*
X9150193Y-18559786D01*
X8956075Y-18500901D01*
X8754200Y-18481018D01*
X8552324Y-18500901D01*
X8358206Y-18559786D01*
X8179306Y-18655410D01*
X8022499Y-18784099D01*
X7893810Y-18940906D01*
X7798186Y-19119807D01*
X7739301Y-19313925D01*
X7724400Y-19465218D01*
X7724400Y-20116383D01*
X7728884Y-20161912D01*
X7598617Y-20136000D01*
X7459783Y-20136000D01*
X7323617Y-20163085D01*
X7195352Y-20216215D01*
X7079916Y-20293346D01*
X6981746Y-20391516D01*
X6904615Y-20506952D01*
X6851485Y-20635217D01*
X6824400Y-20771383D01*
X3234000Y-20771383D01*
X3206915Y-20635217D01*
X3153785Y-20506952D01*
X3076654Y-20391516D01*
X2978484Y-20293346D01*
X2863048Y-20216215D01*
X2734783Y-20163085D01*
X2598617Y-20136000D01*
X2459783Y-20136000D01*
X2329516Y-20161912D01*
X2334000Y-20116382D01*
X2334000Y-19465217D01*
X2319099Y-19313924D01*
X2260214Y-19119806D01*
X2164590Y-18940906D01*
X2035901Y-18784099D01*
X1879094Y-18655410D01*
X1700193Y-18559786D01*
X1506075Y-18500901D01*
X1304200Y-18481018D01*
X1102324Y-18500901D01*
X908206Y-18559786D01*
X729306Y-18655410D01*
X572499Y-18784099D01*
X443810Y-18940906D01*
X348186Y-19119807D01*
X329800Y-19180418D01*
X329800Y-17821560D01*
X4064000Y-17821560D01*
X4064000Y-17941640D01*
X4087426Y-18059414D01*
X4133379Y-18170354D01*
X4200092Y-18270198D01*
X4285002Y-18355108D01*
X4384846Y-18421821D01*
X4495786Y-18467774D01*
X4613560Y-18491200D01*
X4733640Y-18491200D01*
X4851414Y-18467774D01*
X4962354Y-18421821D01*
X5003800Y-18394128D01*
X5045246Y-18421821D01*
X5156186Y-18467774D01*
X5273960Y-18491200D01*
X5394040Y-18491200D01*
X5511814Y-18467774D01*
X5622754Y-18421821D01*
X5722598Y-18355108D01*
X5807508Y-18270198D01*
X5874221Y-18170354D01*
X5920174Y-18059414D01*
X5943600Y-17941640D01*
X5943600Y-17821560D01*
X5920174Y-17703786D01*
X5874221Y-17592846D01*
X5807508Y-17493002D01*
X5722598Y-17408092D01*
X5622754Y-17341379D01*
X5511814Y-17295426D01*
X5394040Y-17272000D01*
X5273960Y-17272000D01*
X5156186Y-17295426D01*
X5045246Y-17341379D01*
X5003800Y-17369072D01*
X4962354Y-17341379D01*
X4851414Y-17295426D01*
X4733640Y-17272000D01*
X4613560Y-17272000D01*
X4495786Y-17295426D01*
X4384846Y-17341379D01*
X4285002Y-17408092D01*
X4200092Y-17493002D01*
X4133379Y-17592846D01*
X4087426Y-17703786D01*
X4064000Y-17821560D01*
X329800Y-17821560D01*
X329800Y-15057963D01*
X3441700Y-15057963D01*
X3441700Y-15168037D01*
X3463174Y-15275996D01*
X3505298Y-15377691D01*
X3566452Y-15469214D01*
X3644286Y-15547048D01*
X3735809Y-15608202D01*
X3837504Y-15650326D01*
X3945463Y-15671800D01*
X4055537Y-15671800D01*
X4163496Y-15650326D01*
X4265191Y-15608202D01*
X4356714Y-15547048D01*
X4434548Y-15469214D01*
X4495702Y-15377691D01*
X4537826Y-15275996D01*
X4559300Y-15168037D01*
X4559300Y-15057963D01*
X4537826Y-14950004D01*
X4535671Y-14944801D01*
X6335153Y-14944801D01*
X6335153Y-15054875D01*
X6356627Y-15162834D01*
X6398751Y-15264529D01*
X6459905Y-15356052D01*
X6537739Y-15433886D01*
X6629262Y-15495040D01*
X6730957Y-15537164D01*
X6838916Y-15558638D01*
X6948990Y-15558638D01*
X7056949Y-15537164D01*
X7158644Y-15495040D01*
X7224680Y-15450916D01*
X7311891Y-15509189D01*
X7413586Y-15551313D01*
X7521545Y-15572787D01*
X7631619Y-15572787D01*
X7739578Y-15551313D01*
X7841273Y-15509189D01*
X7932796Y-15448035D01*
X8010630Y-15370201D01*
X8071784Y-15278678D01*
X8112674Y-15179960D01*
X8280400Y-15179960D01*
X8280400Y-15300040D01*
X8303826Y-15417814D01*
X8349779Y-15528754D01*
X8416492Y-15628598D01*
X8501402Y-15713508D01*
X8601246Y-15780221D01*
X8712186Y-15826174D01*
X8829960Y-15849600D01*
X8950040Y-15849600D01*
X9067814Y-15826174D01*
X9082808Y-15819963D01*
X9728200Y-15819963D01*
X9728200Y-15930037D01*
X9749674Y-16037996D01*
X9791798Y-16139691D01*
X9852952Y-16231214D01*
X9930786Y-16309048D01*
X10022309Y-16370202D01*
X10124004Y-16412326D01*
X10231963Y-16433800D01*
X10342037Y-16433800D01*
X10449996Y-16412326D01*
X10551691Y-16370202D01*
X10643214Y-16309048D01*
X10721048Y-16231214D01*
X10782202Y-16139691D01*
X10824326Y-16037996D01*
X10845800Y-15930037D01*
X10845800Y-15819963D01*
X10824326Y-15712004D01*
X10782202Y-15610309D01*
X10721048Y-15518786D01*
X10643214Y-15440952D01*
X10551691Y-15379798D01*
X10449996Y-15337674D01*
X10342037Y-15316200D01*
X10231963Y-15316200D01*
X10124004Y-15337674D01*
X10022309Y-15379798D01*
X9930786Y-15440952D01*
X9852952Y-15518786D01*
X9791798Y-15610309D01*
X9749674Y-15712004D01*
X9728200Y-15819963D01*
X9082808Y-15819963D01*
X9178754Y-15780221D01*
X9278598Y-15713508D01*
X9363508Y-15628598D01*
X9430221Y-15528754D01*
X9476174Y-15417814D01*
X9499600Y-15300040D01*
X9499600Y-15179960D01*
X9476174Y-15062186D01*
X9430221Y-14951246D01*
X9363508Y-14851402D01*
X9278598Y-14766492D01*
X9178754Y-14699779D01*
X9067814Y-14653826D01*
X8950040Y-14630400D01*
X8829960Y-14630400D01*
X8712186Y-14653826D01*
X8601246Y-14699779D01*
X8501402Y-14766492D01*
X8416492Y-14851402D01*
X8349779Y-14951246D01*
X8303826Y-15062186D01*
X8280400Y-15179960D01*
X8112674Y-15179960D01*
X8113908Y-15176983D01*
X8135382Y-15069024D01*
X8135382Y-14958950D01*
X8113908Y-14850991D01*
X8071784Y-14749296D01*
X8010630Y-14657773D01*
X7932796Y-14579939D01*
X7841273Y-14518785D01*
X7739578Y-14476661D01*
X7631619Y-14455187D01*
X7521545Y-14455187D01*
X7413586Y-14476661D01*
X7311891Y-14518785D01*
X7245855Y-14562909D01*
X7158644Y-14504636D01*
X7056949Y-14462512D01*
X6948990Y-14441038D01*
X6838916Y-14441038D01*
X6730957Y-14462512D01*
X6629262Y-14504636D01*
X6537739Y-14565790D01*
X6459905Y-14643624D01*
X6398751Y-14735147D01*
X6356627Y-14836842D01*
X6335153Y-14944801D01*
X4535671Y-14944801D01*
X4495702Y-14848309D01*
X4434548Y-14756786D01*
X4356714Y-14678952D01*
X4265191Y-14617798D01*
X4163496Y-14575674D01*
X4055537Y-14554200D01*
X3945463Y-14554200D01*
X3837504Y-14575674D01*
X3735809Y-14617798D01*
X3644286Y-14678952D01*
X3566452Y-14756786D01*
X3505298Y-14848309D01*
X3463174Y-14950004D01*
X3441700Y-15057963D01*
X329800Y-15057963D01*
X329800Y-13660963D01*
X2235200Y-13660963D01*
X2235200Y-13771037D01*
X2256674Y-13878996D01*
X2298798Y-13980691D01*
X2359952Y-14072214D01*
X2437786Y-14150048D01*
X2529309Y-14211202D01*
X2631004Y-14253326D01*
X2738963Y-14274800D01*
X2849037Y-14274800D01*
X2956996Y-14253326D01*
X3058691Y-14211202D01*
X3150214Y-14150048D01*
X3228048Y-14072214D01*
X3289202Y-13980691D01*
X3331326Y-13878996D01*
X3352800Y-13771037D01*
X3352800Y-13660963D01*
X10109200Y-13660963D01*
X10109200Y-13771037D01*
X10130674Y-13878996D01*
X10172798Y-13980691D01*
X10233952Y-14072214D01*
X10311786Y-14150048D01*
X10403309Y-14211202D01*
X10505004Y-14253326D01*
X10612963Y-14274800D01*
X10723037Y-14274800D01*
X10830996Y-14253326D01*
X10932691Y-14211202D01*
X11024214Y-14150048D01*
X11102048Y-14072214D01*
X11163202Y-13980691D01*
X11205326Y-13878996D01*
X11226800Y-13771037D01*
X11226800Y-13660963D01*
X11205326Y-13553004D01*
X11163202Y-13451309D01*
X11102048Y-13359786D01*
X11024214Y-13281952D01*
X10957557Y-13237413D01*
X10957996Y-13237326D01*
X11059691Y-13195202D01*
X11151214Y-13134048D01*
X11229048Y-13056214D01*
X11290202Y-12964691D01*
X11332326Y-12862996D01*
X11353800Y-12755037D01*
X11353800Y-12644963D01*
X11332326Y-12537004D01*
X11290202Y-12435309D01*
X11229048Y-12343786D01*
X11151214Y-12265952D01*
X11059691Y-12204798D01*
X10957996Y-12162674D01*
X10850037Y-12141200D01*
X10739963Y-12141200D01*
X10632004Y-12162674D01*
X10530309Y-12204798D01*
X10438786Y-12265952D01*
X10360952Y-12343786D01*
X10299798Y-12435309D01*
X10257674Y-12537004D01*
X10236200Y-12644963D01*
X10236200Y-12755037D01*
X10257674Y-12862996D01*
X10299798Y-12964691D01*
X10360952Y-13056214D01*
X10438786Y-13134048D01*
X10505443Y-13178587D01*
X10505004Y-13178674D01*
X10403309Y-13220798D01*
X10311786Y-13281952D01*
X10233952Y-13359786D01*
X10172798Y-13451309D01*
X10130674Y-13553004D01*
X10109200Y-13660963D01*
X3352800Y-13660963D01*
X3331326Y-13553004D01*
X3289202Y-13451309D01*
X3228048Y-13359786D01*
X3150214Y-13281952D01*
X3058691Y-13220798D01*
X2956996Y-13178674D01*
X2849037Y-13157200D01*
X2738963Y-13157200D01*
X2631004Y-13178674D01*
X2529309Y-13220798D01*
X2437786Y-13281952D01*
X2359952Y-13359786D01*
X2298798Y-13451309D01*
X2256674Y-13553004D01*
X2235200Y-13660963D01*
X329800Y-13660963D01*
X329800Y-12998491D01*
X8778788Y-12998491D01*
X8778788Y-13108565D01*
X8800262Y-13216524D01*
X8842386Y-13318219D01*
X8903540Y-13409742D01*
X8981374Y-13487576D01*
X9072897Y-13548730D01*
X9174592Y-13590854D01*
X9282551Y-13612328D01*
X9392625Y-13612328D01*
X9500584Y-13590854D01*
X9602279Y-13548730D01*
X9693802Y-13487576D01*
X9771636Y-13409742D01*
X9832790Y-13318219D01*
X9874914Y-13216524D01*
X9896388Y-13108565D01*
X9896388Y-12998491D01*
X9874914Y-12890532D01*
X9832790Y-12788837D01*
X9771636Y-12697314D01*
X9693802Y-12619480D01*
X9602279Y-12558326D01*
X9500584Y-12516202D01*
X9392625Y-12494728D01*
X9282551Y-12494728D01*
X9174592Y-12516202D01*
X9072897Y-12558326D01*
X8981374Y-12619480D01*
X8903540Y-12697314D01*
X8842386Y-12788837D01*
X8800262Y-12890532D01*
X8778788Y-12998491D01*
X329800Y-12998491D01*
X329800Y-12561211D01*
X393686Y-12587674D01*
X511460Y-12611100D01*
X631540Y-12611100D01*
X749314Y-12587674D01*
X860254Y-12541721D01*
X960098Y-12475008D01*
X1045008Y-12390098D01*
X1111721Y-12290254D01*
X1157674Y-12179314D01*
X1181100Y-12061540D01*
X1181100Y-11941460D01*
X3263900Y-11941460D01*
X3263900Y-12061540D01*
X3287326Y-12179314D01*
X3333279Y-12290254D01*
X3399992Y-12390098D01*
X3484902Y-12475008D01*
X3584746Y-12541721D01*
X3695686Y-12587674D01*
X3813460Y-12611100D01*
X3933540Y-12611100D01*
X4051314Y-12587674D01*
X4162254Y-12541721D01*
X4262098Y-12475008D01*
X4347008Y-12390098D01*
X4413721Y-12290254D01*
X4459674Y-12179314D01*
X4483100Y-12061540D01*
X4483100Y-11941460D01*
X4459674Y-11823686D01*
X4413721Y-11712746D01*
X4347008Y-11612902D01*
X4262098Y-11527992D01*
X4162254Y-11461279D01*
X4051314Y-11415326D01*
X3933540Y-11391900D01*
X3813460Y-11391900D01*
X3695686Y-11415326D01*
X3584746Y-11461279D01*
X3484902Y-11527992D01*
X3399992Y-11612902D01*
X3333279Y-11712746D01*
X3287326Y-11823686D01*
X3263900Y-11941460D01*
X1181100Y-11941460D01*
X1157674Y-11823686D01*
X1111721Y-11712746D01*
X1045008Y-11612902D01*
X960098Y-11527992D01*
X860254Y-11461279D01*
X749314Y-11415326D01*
X631540Y-11391900D01*
X511460Y-11391900D01*
X393686Y-11415326D01*
X329800Y-11441789D01*
X329800Y-11124800D01*
X3818764Y-11124800D01*
X3876894Y-11171205D01*
X3901997Y-11187507D01*
X3926865Y-11204155D01*
X3930943Y-11206305D01*
X4086545Y-11286961D01*
X4114332Y-11298075D01*
X4141961Y-11309576D01*
X4146379Y-11310893D01*
X4314684Y-11359790D01*
X4344082Y-11365291D01*
X4373439Y-11371211D01*
X4378029Y-11371645D01*
X4552626Y-11386920D01*
X4582553Y-11386606D01*
X4612478Y-11386711D01*
X4617065Y-11386245D01*
X4791304Y-11367317D01*
X4820618Y-11361193D01*
X4849977Y-11355486D01*
X4854386Y-11354138D01*
X5021630Y-11301727D01*
X5049151Y-11290045D01*
X5076888Y-11278726D01*
X5080951Y-11276547D01*
X5105400Y-11263217D01*
X5105400Y-11363040D01*
X5128826Y-11480814D01*
X5174779Y-11591754D01*
X5241492Y-11691598D01*
X5326402Y-11776508D01*
X5426246Y-11843221D01*
X5537186Y-11889174D01*
X5654960Y-11912600D01*
X5775040Y-11912600D01*
X5892814Y-11889174D01*
X6003754Y-11843221D01*
X6103598Y-11776508D01*
X6188508Y-11691598D01*
X6255221Y-11591754D01*
X6301174Y-11480814D01*
X6324600Y-11363040D01*
X6324600Y-11242960D01*
X6301174Y-11125186D01*
X6269617Y-11049000D01*
X12420597Y-11049000D01*
X12420598Y-15452665D01*
G37*
%TD.AperFunction*%
%TD*%
D18*
%TO.N,GND*%
X24926305Y-334745D02*
X24959302Y-344708D01*
X24989742Y-360893D01*
X25016451Y-382676D01*
X25038421Y-409233D01*
X25045036Y-421466D01*
X25040479Y-436487D01*
X25035201Y-490079D01*
X25035200Y-1785200D01*
X23554800Y-1785200D01*
X23554800Y-1617921D01*
X23556565Y-1600000D01*
X23549522Y-1528487D01*
X23528662Y-1459722D01*
X23494788Y-1396347D01*
X23449201Y-1340799D01*
X23393653Y-1295212D01*
X23330278Y-1261338D01*
X23261513Y-1240478D01*
X23207921Y-1235200D01*
X23190000Y-1233435D01*
X23172079Y-1235200D01*
X21607921Y-1235200D01*
X21590000Y-1233435D01*
X21572079Y-1235200D01*
X21518487Y-1240478D01*
X21449722Y-1261338D01*
X21386347Y-1295212D01*
X21369546Y-1309000D01*
X21317000Y-1309000D01*
X21317000Y-1357613D01*
X21285212Y-1396347D01*
X21251338Y-1459722D01*
X21230478Y-1528487D01*
X21223435Y-1600000D01*
X21225201Y-1617932D01*
X21225200Y-10507000D01*
X21063000Y-10507000D01*
X21063000Y-10487000D01*
X19662908Y-10487000D01*
X19610668Y-10617200D01*
X15860860Y-10617200D01*
X15862202Y-10615191D01*
X15904326Y-10513496D01*
X15925800Y-10405537D01*
X15925800Y-10295463D01*
X15904326Y-10187504D01*
X15862202Y-10085809D01*
X15854651Y-10074508D01*
X19599316Y-10074508D01*
X19662908Y-10233000D01*
X21063000Y-10233000D01*
X21063000Y-9329000D01*
X20463000Y-9329000D01*
X20264302Y-9373587D01*
X20078121Y-9456081D01*
X19911611Y-9573312D01*
X19771171Y-9720775D01*
X19662198Y-9892803D01*
X19599316Y-10074508D01*
X15854651Y-10074508D01*
X15801048Y-9994286D01*
X15723214Y-9916452D01*
X15631691Y-9855298D01*
X15529996Y-9813174D01*
X15422037Y-9791700D01*
X15311963Y-9791700D01*
X15204004Y-9813174D01*
X15102309Y-9855298D01*
X15049500Y-9890584D01*
X14996691Y-9855298D01*
X14894996Y-9813174D01*
X14787037Y-9791700D01*
X14676963Y-9791700D01*
X14569004Y-9813174D01*
X14467309Y-9855298D01*
X14414500Y-9890584D01*
X14361691Y-9855298D01*
X14259996Y-9813174D01*
X14152037Y-9791700D01*
X14041963Y-9791700D01*
X13934004Y-9813174D01*
X13832309Y-9855298D01*
X13779500Y-9890584D01*
X13726691Y-9855298D01*
X13624996Y-9813174D01*
X13517037Y-9791700D01*
X13406963Y-9791700D01*
X13299004Y-9813174D01*
X13197309Y-9855298D01*
X13144499Y-9890585D01*
X13091688Y-9855298D01*
X12989993Y-9813174D01*
X12882034Y-9791700D01*
X12771960Y-9791700D01*
X12664001Y-9813174D01*
X12562306Y-9855298D01*
X12470783Y-9916452D01*
X12392949Y-9994286D01*
X12331795Y-10085809D01*
X12289671Y-10187504D01*
X12268197Y-10295463D01*
X12268197Y-10405537D01*
X12289671Y-10513496D01*
X12331795Y-10615191D01*
X12333137Y-10617200D01*
X11542860Y-10617200D01*
X11544202Y-10615191D01*
X11586326Y-10513496D01*
X11607800Y-10405537D01*
X11607800Y-10295463D01*
X11586326Y-10187504D01*
X11544202Y-10085809D01*
X11483048Y-9994286D01*
X11405214Y-9916452D01*
X11313691Y-9855298D01*
X11211996Y-9813174D01*
X11104037Y-9791700D01*
X10993963Y-9791700D01*
X10886004Y-9813174D01*
X10784309Y-9855298D01*
X10731500Y-9890584D01*
X10678691Y-9855298D01*
X10576996Y-9813174D01*
X10469037Y-9791700D01*
X10358963Y-9791700D01*
X10251004Y-9813174D01*
X10149309Y-9855298D01*
X10057786Y-9916452D01*
X9979952Y-9994286D01*
X9918798Y-10085809D01*
X9876674Y-10187504D01*
X9855200Y-10295463D01*
X9855200Y-10405537D01*
X9876674Y-10513496D01*
X9918798Y-10615191D01*
X9920140Y-10617200D01*
X9448800Y-10617200D01*
X9448800Y-10594400D01*
X9476174Y-10528314D01*
X9499600Y-10410540D01*
X9499600Y-10290460D01*
X9476174Y-10172686D01*
X9430221Y-10061746D01*
X9363508Y-9961902D01*
X9278598Y-9876992D01*
X9178754Y-9810279D01*
X9067814Y-9764326D01*
X8950040Y-9740900D01*
X8829960Y-9740900D01*
X8712186Y-9764326D01*
X8601246Y-9810279D01*
X8501402Y-9876992D01*
X8416492Y-9961902D01*
X8349779Y-10061746D01*
X8303826Y-10172686D01*
X8280400Y-10290460D01*
X8280400Y-10410540D01*
X8303826Y-10528314D01*
X8331200Y-10594401D01*
X8331200Y-10617200D01*
X5710418Y-10617200D01*
X5718545Y-10598054D01*
X5719893Y-10593645D01*
X5769964Y-10425685D01*
X5775668Y-10396338D01*
X5781795Y-10367012D01*
X5782261Y-10362426D01*
X5798755Y-10187940D01*
X5798650Y-10158014D01*
X5798964Y-10128087D01*
X5798530Y-10123497D01*
X5780819Y-9949131D01*
X5774905Y-9919799D01*
X5769398Y-9890374D01*
X5768080Y-9885956D01*
X5716837Y-9718351D01*
X5705361Y-9690783D01*
X5694223Y-9662935D01*
X5692073Y-9658857D01*
X5609252Y-9504396D01*
X5592600Y-9479523D01*
X5576303Y-9454426D01*
X5573401Y-9450844D01*
X5536800Y-9406285D01*
X5536800Y-7724060D01*
X6597021Y-7724060D01*
X6597021Y-7844140D01*
X6620447Y-7961914D01*
X6666400Y-8072854D01*
X6733113Y-8172698D01*
X6818023Y-8257608D01*
X6917867Y-8324321D01*
X7007791Y-8361569D01*
X7045039Y-8451494D01*
X7111752Y-8551338D01*
X7196662Y-8636248D01*
X7296506Y-8702961D01*
X7407446Y-8748914D01*
X7525220Y-8772340D01*
X7549727Y-8772340D01*
X7590992Y-8834098D01*
X7675902Y-8919008D01*
X7775746Y-8985721D01*
X7886686Y-9031674D01*
X8004460Y-9055100D01*
X8124540Y-9055100D01*
X8242314Y-9031674D01*
X8353254Y-8985721D01*
X8453098Y-8919008D01*
X8538008Y-8834098D01*
X8604721Y-8734254D01*
X8650674Y-8623314D01*
X8674100Y-8505540D01*
X8674100Y-8453963D01*
X9474200Y-8453963D01*
X9474200Y-8564037D01*
X9495674Y-8671996D01*
X9537798Y-8773691D01*
X9598952Y-8865214D01*
X9676786Y-8943048D01*
X9768309Y-9004202D01*
X9870004Y-9046326D01*
X9977963Y-9067800D01*
X10088037Y-9067800D01*
X10195996Y-9046326D01*
X10297691Y-9004202D01*
X10389214Y-8943048D01*
X10467048Y-8865214D01*
X10528202Y-8773691D01*
X10570326Y-8671996D01*
X10591800Y-8564037D01*
X10591800Y-8453963D01*
X10570326Y-8346004D01*
X10528202Y-8244309D01*
X10467048Y-8152786D01*
X10389214Y-8074952D01*
X10297691Y-8013798D01*
X10195996Y-7971674D01*
X10088037Y-7950200D01*
X9977963Y-7950200D01*
X9870004Y-7971674D01*
X9768309Y-8013798D01*
X9676786Y-8074952D01*
X9598952Y-8152786D01*
X9537798Y-8244309D01*
X9495674Y-8346004D01*
X9474200Y-8453963D01*
X8674100Y-8453963D01*
X8674100Y-8385460D01*
X8650674Y-8267686D01*
X8604721Y-8156746D01*
X8538008Y-8056902D01*
X8453098Y-7971992D01*
X8353254Y-7905279D01*
X8242314Y-7859326D01*
X8124540Y-7835900D01*
X8100033Y-7835900D01*
X8058768Y-7774142D01*
X7973858Y-7689232D01*
X7874014Y-7622519D01*
X7784090Y-7585271D01*
X7746842Y-7495346D01*
X7680129Y-7395502D01*
X7595219Y-7310592D01*
X7495375Y-7243879D01*
X7384435Y-7197926D01*
X7289084Y-7178960D01*
X8534400Y-7178960D01*
X8534400Y-7299040D01*
X8557826Y-7416814D01*
X8603779Y-7527754D01*
X8670492Y-7627598D01*
X8755402Y-7712508D01*
X8855246Y-7779221D01*
X8966186Y-7825174D01*
X9083960Y-7848600D01*
X9204040Y-7848600D01*
X9321814Y-7825174D01*
X9432754Y-7779221D01*
X9532598Y-7712508D01*
X9617508Y-7627598D01*
X9684221Y-7527754D01*
X9730174Y-7416814D01*
X9753600Y-7299040D01*
X9753600Y-7178960D01*
X11074400Y-7178960D01*
X11074400Y-7299040D01*
X11097826Y-7416814D01*
X11143779Y-7527754D01*
X11210492Y-7627598D01*
X11295402Y-7712508D01*
X11395246Y-7779221D01*
X11506186Y-7825174D01*
X11594363Y-7842713D01*
X11584504Y-7844674D01*
X11482809Y-7886798D01*
X11391286Y-7947952D01*
X11313452Y-8025786D01*
X11252298Y-8117309D01*
X11210174Y-8219004D01*
X11188700Y-8326963D01*
X11188700Y-8437037D01*
X11210174Y-8544996D01*
X11252298Y-8646691D01*
X11313452Y-8738214D01*
X11391286Y-8816048D01*
X11482809Y-8877202D01*
X11584504Y-8919326D01*
X11692463Y-8940800D01*
X11802537Y-8940800D01*
X11910496Y-8919326D01*
X12012191Y-8877202D01*
X12103714Y-8816048D01*
X12105961Y-8813801D01*
X12936080Y-8813801D01*
X12956033Y-8815766D01*
X12975986Y-8813801D01*
X12975993Y-8813801D01*
X13035701Y-8807920D01*
X13112308Y-8784682D01*
X13182909Y-8746945D01*
X13244791Y-8696159D01*
X13257515Y-8680655D01*
X13646354Y-8291816D01*
X13661857Y-8279093D01*
X13712643Y-8217211D01*
X13750380Y-8146610D01*
X13768378Y-8087278D01*
X13773618Y-8070004D01*
X13774978Y-8056194D01*
X13779499Y-8010295D01*
X13779499Y-8010289D01*
X13781464Y-7990336D01*
X13779499Y-7970383D01*
X13779499Y-7847249D01*
X13866432Y-7760316D01*
X13905533Y-7760316D01*
X14013492Y-7738842D01*
X14115187Y-7696718D01*
X14129790Y-7686960D01*
X17233900Y-7686960D01*
X17233900Y-7807040D01*
X17257326Y-7924814D01*
X17303279Y-8035754D01*
X17369992Y-8135598D01*
X17454902Y-8220508D01*
X17554746Y-8287221D01*
X17665686Y-8333174D01*
X17783460Y-8356600D01*
X17903540Y-8356600D01*
X18021314Y-8333174D01*
X18132254Y-8287221D01*
X18232098Y-8220508D01*
X18289511Y-8163095D01*
X18313400Y-8179056D01*
X18313400Y-8188040D01*
X18336826Y-8305814D01*
X18382779Y-8416754D01*
X18449492Y-8516598D01*
X18534402Y-8601508D01*
X18634246Y-8668221D01*
X18745186Y-8714174D01*
X18862960Y-8737600D01*
X18983040Y-8737600D01*
X19100814Y-8714174D01*
X19211754Y-8668221D01*
X19311598Y-8601508D01*
X19396508Y-8516598D01*
X19463221Y-8416754D01*
X19509174Y-8305814D01*
X19525166Y-8225414D01*
X19529254Y-8223721D01*
X19629098Y-8157008D01*
X19714008Y-8072098D01*
X19780721Y-7972254D01*
X19826674Y-7861314D01*
X19850100Y-7743540D01*
X19850100Y-7623460D01*
X19826674Y-7505686D01*
X19780721Y-7394746D01*
X19714008Y-7294902D01*
X19629098Y-7209992D01*
X19529254Y-7143279D01*
X19418314Y-7097326D01*
X19300540Y-7073900D01*
X19180460Y-7073900D01*
X19062686Y-7097326D01*
X18954750Y-7142035D01*
X18846814Y-7097326D01*
X18729040Y-7073900D01*
X18608960Y-7073900D01*
X18491186Y-7097326D01*
X18380246Y-7143279D01*
X18280402Y-7209992D01*
X18222989Y-7267405D01*
X18132254Y-7206779D01*
X18021314Y-7160826D01*
X17903540Y-7137400D01*
X17783460Y-7137400D01*
X17665686Y-7160826D01*
X17554746Y-7206779D01*
X17454902Y-7273492D01*
X17369992Y-7358402D01*
X17303279Y-7458246D01*
X17257326Y-7569186D01*
X17233900Y-7686960D01*
X14129790Y-7686960D01*
X14206710Y-7635564D01*
X14284544Y-7557730D01*
X14345698Y-7466207D01*
X14387822Y-7364512D01*
X14409296Y-7256553D01*
X14409296Y-7146479D01*
X14387822Y-7038520D01*
X14345698Y-6936825D01*
X14284544Y-6845302D01*
X14206710Y-6767468D01*
X14115187Y-6706314D01*
X14013492Y-6664190D01*
X13905533Y-6642716D01*
X13795459Y-6642716D01*
X13687500Y-6664190D01*
X13585805Y-6706314D01*
X13494282Y-6767468D01*
X13416448Y-6845302D01*
X13415493Y-6846731D01*
X13373714Y-6804952D01*
X13282191Y-6743798D01*
X13180496Y-6701674D01*
X13072537Y-6680200D01*
X12962463Y-6680200D01*
X12854504Y-6701674D01*
X12752809Y-6743798D01*
X12661286Y-6804952D01*
X12583452Y-6882786D01*
X12522298Y-6974309D01*
X12480174Y-7076004D01*
X12458700Y-7183963D01*
X12458700Y-7294037D01*
X12462391Y-7312594D01*
X12411246Y-7333779D01*
X12311402Y-7400492D01*
X12252563Y-7459331D01*
X12270174Y-7416814D01*
X12293600Y-7299040D01*
X12293600Y-7178960D01*
X12270174Y-7061186D01*
X12224221Y-6950246D01*
X12157508Y-6850402D01*
X12072598Y-6765492D01*
X11972754Y-6698779D01*
X11861814Y-6652826D01*
X11744040Y-6629400D01*
X11623960Y-6629400D01*
X11506186Y-6652826D01*
X11395246Y-6698779D01*
X11295402Y-6765492D01*
X11210492Y-6850402D01*
X11143779Y-6950246D01*
X11097826Y-7061186D01*
X11074400Y-7178960D01*
X9753600Y-7178960D01*
X9730174Y-7061186D01*
X9684221Y-6950246D01*
X9617508Y-6850402D01*
X9532598Y-6765492D01*
X9432754Y-6698779D01*
X9321814Y-6652826D01*
X9204040Y-6629400D01*
X9083960Y-6629400D01*
X8966186Y-6652826D01*
X8855246Y-6698779D01*
X8755402Y-6765492D01*
X8670492Y-6850402D01*
X8603779Y-6950246D01*
X8557826Y-7061186D01*
X8534400Y-7178960D01*
X7289084Y-7178960D01*
X7266661Y-7174500D01*
X7146581Y-7174500D01*
X7028807Y-7197926D01*
X6917867Y-7243879D01*
X6818023Y-7310592D01*
X6733113Y-7395502D01*
X6666400Y-7495346D01*
X6620447Y-7606286D01*
X6597021Y-7724060D01*
X5536800Y-7724060D01*
X5536800Y-6221255D01*
X6251253Y-6221255D01*
X6251253Y-6326325D01*
X6271751Y-6429377D01*
X6311960Y-6526450D01*
X6370334Y-6613813D01*
X6444630Y-6688109D01*
X6531993Y-6746483D01*
X6629066Y-6786692D01*
X6732118Y-6807190D01*
X6837188Y-6807190D01*
X6940240Y-6786692D01*
X7037313Y-6746483D01*
X7124676Y-6688109D01*
X7198972Y-6613813D01*
X7253797Y-6531762D01*
X7297677Y-6540490D01*
X7402747Y-6540490D01*
X7505799Y-6519992D01*
X7602872Y-6479783D01*
X7690235Y-6421409D01*
X7764531Y-6347113D01*
X7822905Y-6259750D01*
X7863114Y-6162677D01*
X7883612Y-6059625D01*
X7883612Y-5954555D01*
X7863114Y-5851503D01*
X7822905Y-5754430D01*
X7764531Y-5667067D01*
X7690235Y-5592771D01*
X7602872Y-5534397D01*
X7505799Y-5494188D01*
X7402747Y-5473690D01*
X7297677Y-5473690D01*
X7194625Y-5494188D01*
X7097552Y-5534397D01*
X7010189Y-5592771D01*
X6935893Y-5667067D01*
X6881068Y-5749118D01*
X6837188Y-5740390D01*
X6732118Y-5740390D01*
X6629066Y-5760888D01*
X6531993Y-5801097D01*
X6444630Y-5859471D01*
X6370334Y-5933767D01*
X6311960Y-6021130D01*
X6271751Y-6118203D01*
X6251253Y-6221255D01*
X5536800Y-6221255D01*
X5536800Y-3432460D01*
X8026400Y-3432460D01*
X8026400Y-3552540D01*
X8049826Y-3670314D01*
X8094535Y-3778250D01*
X8049826Y-3886186D01*
X8026400Y-4003960D01*
X8026400Y-4124040D01*
X8049826Y-4241814D01*
X8095779Y-4352754D01*
X8162492Y-4452598D01*
X8247402Y-4537508D01*
X8331823Y-4593915D01*
X8328952Y-4596786D01*
X8267798Y-4688309D01*
X8225674Y-4790004D01*
X8204200Y-4897963D01*
X8204200Y-5008037D01*
X8225674Y-5115996D01*
X8267798Y-5217691D01*
X8328952Y-5309214D01*
X8406786Y-5387048D01*
X8498309Y-5448202D01*
X8600004Y-5490326D01*
X8707963Y-5511800D01*
X8712200Y-5511800D01*
X8712200Y-5579537D01*
X8733674Y-5687496D01*
X8775798Y-5789191D01*
X8836952Y-5880714D01*
X8914786Y-5958548D01*
X9006309Y-6019702D01*
X9108004Y-6061826D01*
X9215963Y-6083300D01*
X9326037Y-6083300D01*
X9433996Y-6061826D01*
X9535691Y-6019702D01*
X9627214Y-5958548D01*
X9705048Y-5880714D01*
X9766202Y-5789191D01*
X9808326Y-5687496D01*
X9829800Y-5579537D01*
X9829800Y-5469463D01*
X9808326Y-5361504D01*
X9766202Y-5259809D01*
X9705048Y-5168286D01*
X9627214Y-5090452D01*
X9535691Y-5029298D01*
X9433996Y-4987174D01*
X9326404Y-4965773D01*
X9432754Y-4921721D01*
X9532598Y-4855008D01*
X9617508Y-4770098D01*
X9684221Y-4670254D01*
X9730174Y-4559314D01*
X9753600Y-4441540D01*
X9753600Y-4321460D01*
X9730174Y-4203686D01*
X9685465Y-4095750D01*
X9730174Y-3987814D01*
X9749355Y-3891379D01*
X11596819Y-3891379D01*
X11596819Y-4011459D01*
X11620245Y-4129233D01*
X11666198Y-4240173D01*
X11732911Y-4340017D01*
X11817821Y-4424927D01*
X11917665Y-4491640D01*
X12028605Y-4537593D01*
X12146379Y-4561019D01*
X12266459Y-4561019D01*
X12384233Y-4537593D01*
X12469041Y-4502464D01*
X12455148Y-4536004D01*
X12433674Y-4643963D01*
X12433674Y-4754037D01*
X12455148Y-4861996D01*
X12497272Y-4963691D01*
X12558426Y-5055214D01*
X12563975Y-5060763D01*
X12519952Y-5104786D01*
X12458798Y-5196309D01*
X12416674Y-5298004D01*
X12395200Y-5405963D01*
X12395200Y-5516037D01*
X12416674Y-5623996D01*
X12458798Y-5725691D01*
X12519952Y-5817214D01*
X12597786Y-5895048D01*
X12689309Y-5956202D01*
X12791004Y-5998326D01*
X12898963Y-6019800D01*
X13009037Y-6019800D01*
X13116996Y-5998326D01*
X13218691Y-5956202D01*
X13310214Y-5895048D01*
X13388048Y-5817214D01*
X13449202Y-5725691D01*
X13491326Y-5623996D01*
X13512800Y-5516037D01*
X13512800Y-5405963D01*
X13491326Y-5298004D01*
X13453433Y-5206523D01*
X14434494Y-5206523D01*
X14434494Y-5316597D01*
X14455968Y-5424556D01*
X14498092Y-5526251D01*
X14559246Y-5617774D01*
X14637080Y-5695608D01*
X14728603Y-5756762D01*
X14830298Y-5798886D01*
X14938257Y-5820360D01*
X15048331Y-5820360D01*
X15156290Y-5798886D01*
X15257985Y-5756762D01*
X15349508Y-5695608D01*
X15427342Y-5617774D01*
X15488496Y-5526251D01*
X15530620Y-5424556D01*
X15552094Y-5316597D01*
X15552094Y-5206523D01*
X15530620Y-5098564D01*
X15488496Y-4996869D01*
X15427342Y-4905346D01*
X15356459Y-4834463D01*
X16776700Y-4834463D01*
X16776700Y-4944537D01*
X16798174Y-5052496D01*
X16840298Y-5154191D01*
X16901452Y-5245714D01*
X16933939Y-5278201D01*
X16903798Y-5323309D01*
X16861674Y-5425004D01*
X16840200Y-5532963D01*
X16840200Y-5643037D01*
X16861674Y-5750996D01*
X16903798Y-5852691D01*
X16964952Y-5944214D01*
X17042786Y-6022048D01*
X17134309Y-6083202D01*
X17236004Y-6125326D01*
X17343963Y-6146800D01*
X17454037Y-6146800D01*
X17561996Y-6125326D01*
X17663691Y-6083202D01*
X17755214Y-6022048D01*
X17833048Y-5944214D01*
X17894202Y-5852691D01*
X17936326Y-5750996D01*
X17957800Y-5643037D01*
X17957800Y-5532963D01*
X17936326Y-5425004D01*
X17894202Y-5323309D01*
X17833048Y-5231786D01*
X17800561Y-5199299D01*
X17830702Y-5154191D01*
X17872826Y-5052496D01*
X17894300Y-4944537D01*
X17894300Y-4927600D01*
X17967040Y-4927600D01*
X18084814Y-4904174D01*
X18195754Y-4858221D01*
X18295598Y-4791508D01*
X18380508Y-4706598D01*
X18447221Y-4606754D01*
X18493174Y-4495814D01*
X18516600Y-4378040D01*
X18516600Y-4257960D01*
X18493174Y-4140186D01*
X18448465Y-4032250D01*
X18493174Y-3924314D01*
X18516600Y-3806540D01*
X18516600Y-3686460D01*
X18493174Y-3568686D01*
X18448465Y-3460750D01*
X18493174Y-3352814D01*
X18516600Y-3235040D01*
X18516600Y-3114960D01*
X18493174Y-2997186D01*
X18447221Y-2886246D01*
X18380508Y-2786402D01*
X18295598Y-2701492D01*
X18195754Y-2634779D01*
X18173334Y-2625492D01*
X19599316Y-2625492D01*
X19662198Y-2807197D01*
X19771171Y-2979225D01*
X19911611Y-3126688D01*
X20078121Y-3243919D01*
X20264302Y-3326413D01*
X20463000Y-3371000D01*
X21063000Y-3371000D01*
X21063000Y-2467000D01*
X19662908Y-2467000D01*
X19599316Y-2625492D01*
X18173334Y-2625492D01*
X18084814Y-2588826D01*
X17967040Y-2565400D01*
X17846960Y-2565400D01*
X17729186Y-2588826D01*
X17618246Y-2634779D01*
X17518402Y-2701492D01*
X17433492Y-2786402D01*
X17411444Y-2819400D01*
X17338960Y-2819400D01*
X17221186Y-2842826D01*
X17110246Y-2888779D01*
X17010402Y-2955492D01*
X16925492Y-3040402D01*
X16858779Y-3140246D01*
X16812826Y-3251186D01*
X16789400Y-3368960D01*
X16789400Y-3489040D01*
X16812826Y-3606814D01*
X16858779Y-3717754D01*
X16877986Y-3746500D01*
X16858779Y-3775246D01*
X16812826Y-3886186D01*
X16789400Y-4003960D01*
X16789400Y-4124040D01*
X16812826Y-4241814D01*
X16858779Y-4352754D01*
X16925492Y-4452598D01*
X16953816Y-4480922D01*
X16901452Y-4533286D01*
X16840298Y-4624809D01*
X16798174Y-4726504D01*
X16776700Y-4834463D01*
X15356459Y-4834463D01*
X15349508Y-4827512D01*
X15257985Y-4766358D01*
X15156290Y-4724234D01*
X15048331Y-4702760D01*
X14938257Y-4702760D01*
X14830298Y-4724234D01*
X14728603Y-4766358D01*
X14637080Y-4827512D01*
X14559246Y-4905346D01*
X14498092Y-4996869D01*
X14455968Y-5098564D01*
X14434494Y-5206523D01*
X13453433Y-5206523D01*
X13449202Y-5196309D01*
X13388048Y-5104786D01*
X13382499Y-5099237D01*
X13426522Y-5055214D01*
X13487676Y-4963691D01*
X13529800Y-4861996D01*
X13551274Y-4754037D01*
X13551274Y-4692766D01*
X13559674Y-4734996D01*
X13601798Y-4836691D01*
X13662952Y-4928214D01*
X13740786Y-5006048D01*
X13832309Y-5067202D01*
X13934004Y-5109326D01*
X14041963Y-5130800D01*
X14152037Y-5130800D01*
X14259996Y-5109326D01*
X14361691Y-5067202D01*
X14453214Y-5006048D01*
X14531048Y-4928214D01*
X14592202Y-4836691D01*
X14634326Y-4734996D01*
X14655800Y-4627037D01*
X14655800Y-4516963D01*
X14636213Y-4418490D01*
X14707214Y-4371048D01*
X14785048Y-4293214D01*
X14846202Y-4201691D01*
X14888326Y-4099996D01*
X14909800Y-3992037D01*
X14909800Y-3881963D01*
X14888326Y-3774004D01*
X14846202Y-3672309D01*
X14785048Y-3580786D01*
X14707214Y-3502952D01*
X14615691Y-3441798D01*
X14513996Y-3399674D01*
X14406037Y-3378200D01*
X14295963Y-3378200D01*
X14188004Y-3399674D01*
X14086309Y-3441798D01*
X13994786Y-3502952D01*
X13916952Y-3580786D01*
X13855798Y-3672309D01*
X13813674Y-3774004D01*
X13792200Y-3881963D01*
X13792200Y-3992037D01*
X13811787Y-4090510D01*
X13740786Y-4137952D01*
X13662952Y-4215786D01*
X13601798Y-4307309D01*
X13559674Y-4409004D01*
X13538200Y-4516963D01*
X13538200Y-4578234D01*
X13529800Y-4536004D01*
X13487676Y-4434309D01*
X13426522Y-4342786D01*
X13348688Y-4264952D01*
X13257165Y-4203798D01*
X13155470Y-4161674D01*
X13047511Y-4140200D01*
X12937437Y-4140200D01*
X12829478Y-4161674D01*
X12768733Y-4186836D01*
X12792593Y-4129233D01*
X12816019Y-4011459D01*
X12816019Y-3891379D01*
X12792593Y-3773605D01*
X12746640Y-3662665D01*
X12679927Y-3562821D01*
X12595017Y-3477911D01*
X12495173Y-3411198D01*
X12384233Y-3365245D01*
X12266459Y-3341819D01*
X12146379Y-3341819D01*
X12028605Y-3365245D01*
X11917665Y-3411198D01*
X11817821Y-3477911D01*
X11732911Y-3562821D01*
X11666198Y-3662665D01*
X11620245Y-3773605D01*
X11596819Y-3891379D01*
X9749355Y-3891379D01*
X9753600Y-3870040D01*
X9753600Y-3749960D01*
X9730174Y-3632186D01*
X9685465Y-3524250D01*
X9730174Y-3416314D01*
X9753600Y-3298540D01*
X9753600Y-3178460D01*
X9730174Y-3060686D01*
X9684221Y-2949746D01*
X9617508Y-2849902D01*
X9532598Y-2764992D01*
X9432754Y-2698279D01*
X9321814Y-2652326D01*
X9204040Y-2628900D01*
X9083960Y-2628900D01*
X8966186Y-2652326D01*
X8855246Y-2698279D01*
X8755402Y-2764992D01*
X8670492Y-2849902D01*
X8648444Y-2882900D01*
X8575960Y-2882900D01*
X8458186Y-2906326D01*
X8347246Y-2952279D01*
X8247402Y-3018992D01*
X8162492Y-3103902D01*
X8095779Y-3203746D01*
X8049826Y-3314686D01*
X8026400Y-3432460D01*
X5536800Y-3432460D01*
X5536800Y-3293236D01*
X5583205Y-3235106D01*
X5599507Y-3210003D01*
X5616155Y-3185135D01*
X5618305Y-3181057D01*
X5698961Y-3025455D01*
X5710075Y-2997668D01*
X5721576Y-2970039D01*
X5722893Y-2965621D01*
X5771790Y-2797316D01*
X5777291Y-2767918D01*
X5783211Y-2738561D01*
X5783645Y-2733971D01*
X5798920Y-2559374D01*
X5798606Y-2529447D01*
X5798711Y-2499522D01*
X5798245Y-2494935D01*
X5779317Y-2320696D01*
X5773193Y-2291382D01*
X5767486Y-2262023D01*
X5766138Y-2257614D01*
X5713727Y-2090370D01*
X5702045Y-2062849D01*
X5698642Y-2054508D01*
X19599316Y-2054508D01*
X19662908Y-2213000D01*
X21063000Y-2213000D01*
X21063000Y-1309000D01*
X20463000Y-1309000D01*
X20264302Y-1353587D01*
X20078121Y-1436081D01*
X19911611Y-1553312D01*
X19771171Y-1700775D01*
X19662198Y-1872803D01*
X19599316Y-2054508D01*
X5698642Y-2054508D01*
X5690726Y-2035112D01*
X5688547Y-2031049D01*
X5604650Y-1877171D01*
X5587820Y-1852406D01*
X5571353Y-1827433D01*
X5568427Y-1823870D01*
X5456238Y-1689217D01*
X5434893Y-1668168D01*
X5413915Y-1646895D01*
X5410353Y-1643969D01*
X5274148Y-1533672D01*
X5249157Y-1517194D01*
X5224408Y-1500374D01*
X5220345Y-1498196D01*
X5065311Y-1416456D01*
X5037612Y-1405153D01*
X5010054Y-1393455D01*
X5005646Y-1392107D01*
X4837685Y-1342036D01*
X4808340Y-1336332D01*
X4779013Y-1330205D01*
X4774426Y-1329739D01*
X4599940Y-1313245D01*
X4570014Y-1313350D01*
X4540087Y-1313036D01*
X4535497Y-1313470D01*
X4361131Y-1331181D01*
X4331799Y-1337095D01*
X4302374Y-1342602D01*
X4297956Y-1343920D01*
X4130351Y-1395163D01*
X4102783Y-1406639D01*
X4074935Y-1417777D01*
X4070857Y-1419927D01*
X3916396Y-1502748D01*
X3891523Y-1519400D01*
X3866426Y-1535697D01*
X3862844Y-1538599D01*
X3818285Y-1575200D01*
X329800Y-1575200D01*
X329800Y-524131D01*
X334745Y-473695D01*
X344708Y-440698D01*
X360893Y-410258D01*
X382676Y-383549D01*
X409233Y-361579D01*
X439561Y-345181D01*
X472486Y-334989D01*
X521852Y-329800D01*
X24875869Y-329800D01*
X24926305Y-334745D01*
%TA.AperFunction,Conductor*%
D19*
G36*
X24926305Y-334745D02*
G01*
X24959302Y-344708D01*
X24989742Y-360893D01*
X25016451Y-382676D01*
X25038421Y-409233D01*
X25045036Y-421466D01*
X25040479Y-436487D01*
X25035201Y-490079D01*
X25035200Y-1785200D01*
X23554800Y-1785200D01*
X23554800Y-1617921D01*
X23556565Y-1600000D01*
X23549522Y-1528487D01*
X23528662Y-1459722D01*
X23494788Y-1396347D01*
X23449201Y-1340799D01*
X23393653Y-1295212D01*
X23330278Y-1261338D01*
X23261513Y-1240478D01*
X23207921Y-1235200D01*
X23190000Y-1233435D01*
X23172079Y-1235200D01*
X21607921Y-1235200D01*
X21590000Y-1233435D01*
X21572079Y-1235200D01*
X21518487Y-1240478D01*
X21449722Y-1261338D01*
X21386347Y-1295212D01*
X21369546Y-1309000D01*
X21317000Y-1309000D01*
X21317000Y-1357613D01*
X21285212Y-1396347D01*
X21251338Y-1459722D01*
X21230478Y-1528487D01*
X21223435Y-1600000D01*
X21225201Y-1617932D01*
X21225200Y-10507000D01*
X21063000Y-10507000D01*
X21063000Y-10487000D01*
X19662908Y-10487000D01*
X19610668Y-10617200D01*
X15860860Y-10617200D01*
X15862202Y-10615191D01*
X15904326Y-10513496D01*
X15925800Y-10405537D01*
X15925800Y-10295463D01*
X15904326Y-10187504D01*
X15862202Y-10085809D01*
X15854651Y-10074508D01*
X19599316Y-10074508D01*
X19662908Y-10233000D01*
X21063000Y-10233000D01*
X21063000Y-9329000D01*
X20463000Y-9329000D01*
X20264302Y-9373587D01*
X20078121Y-9456081D01*
X19911611Y-9573312D01*
X19771171Y-9720775D01*
X19662198Y-9892803D01*
X19599316Y-10074508D01*
X15854651Y-10074508D01*
X15801048Y-9994286D01*
X15723214Y-9916452D01*
X15631691Y-9855298D01*
X15529996Y-9813174D01*
X15422037Y-9791700D01*
X15311963Y-9791700D01*
X15204004Y-9813174D01*
X15102309Y-9855298D01*
X15049500Y-9890584D01*
X14996691Y-9855298D01*
X14894996Y-9813174D01*
X14787037Y-9791700D01*
X14676963Y-9791700D01*
X14569004Y-9813174D01*
X14467309Y-9855298D01*
X14414500Y-9890584D01*
X14361691Y-9855298D01*
X14259996Y-9813174D01*
X14152037Y-9791700D01*
X14041963Y-9791700D01*
X13934004Y-9813174D01*
X13832309Y-9855298D01*
X13779500Y-9890584D01*
X13726691Y-9855298D01*
X13624996Y-9813174D01*
X13517037Y-9791700D01*
X13406963Y-9791700D01*
X13299004Y-9813174D01*
X13197309Y-9855298D01*
X13144499Y-9890585D01*
X13091688Y-9855298D01*
X12989993Y-9813174D01*
X12882034Y-9791700D01*
X12771960Y-9791700D01*
X12664001Y-9813174D01*
X12562306Y-9855298D01*
X12470783Y-9916452D01*
X12392949Y-9994286D01*
X12331795Y-10085809D01*
X12289671Y-10187504D01*
X12268197Y-10295463D01*
X12268197Y-10405537D01*
X12289671Y-10513496D01*
X12331795Y-10615191D01*
X12333137Y-10617200D01*
X11542860Y-10617200D01*
X11544202Y-10615191D01*
X11586326Y-10513496D01*
X11607800Y-10405537D01*
X11607800Y-10295463D01*
X11586326Y-10187504D01*
X11544202Y-10085809D01*
X11483048Y-9994286D01*
X11405214Y-9916452D01*
X11313691Y-9855298D01*
X11211996Y-9813174D01*
X11104037Y-9791700D01*
X10993963Y-9791700D01*
X10886004Y-9813174D01*
X10784309Y-9855298D01*
X10731500Y-9890584D01*
X10678691Y-9855298D01*
X10576996Y-9813174D01*
X10469037Y-9791700D01*
X10358963Y-9791700D01*
X10251004Y-9813174D01*
X10149309Y-9855298D01*
X10057786Y-9916452D01*
X9979952Y-9994286D01*
X9918798Y-10085809D01*
X9876674Y-10187504D01*
X9855200Y-10295463D01*
X9855200Y-10405537D01*
X9876674Y-10513496D01*
X9918798Y-10615191D01*
X9920140Y-10617200D01*
X9448800Y-10617200D01*
X9448800Y-10594400D01*
X9476174Y-10528314D01*
X9499600Y-10410540D01*
X9499600Y-10290460D01*
X9476174Y-10172686D01*
X9430221Y-10061746D01*
X9363508Y-9961902D01*
X9278598Y-9876992D01*
X9178754Y-9810279D01*
X9067814Y-9764326D01*
X8950040Y-9740900D01*
X8829960Y-9740900D01*
X8712186Y-9764326D01*
X8601246Y-9810279D01*
X8501402Y-9876992D01*
X8416492Y-9961902D01*
X8349779Y-10061746D01*
X8303826Y-10172686D01*
X8280400Y-10290460D01*
X8280400Y-10410540D01*
X8303826Y-10528314D01*
X8331200Y-10594401D01*
X8331200Y-10617200D01*
X5710418Y-10617200D01*
X5718545Y-10598054D01*
X5719893Y-10593645D01*
X5769964Y-10425685D01*
X5775668Y-10396338D01*
X5781795Y-10367012D01*
X5782261Y-10362426D01*
X5798755Y-10187940D01*
X5798650Y-10158014D01*
X5798964Y-10128087D01*
X5798530Y-10123497D01*
X5780819Y-9949131D01*
X5774905Y-9919799D01*
X5769398Y-9890374D01*
X5768080Y-9885956D01*
X5716837Y-9718351D01*
X5705361Y-9690783D01*
X5694223Y-9662935D01*
X5692073Y-9658857D01*
X5609252Y-9504396D01*
X5592600Y-9479523D01*
X5576303Y-9454426D01*
X5573401Y-9450844D01*
X5536800Y-9406285D01*
X5536800Y-7724060D01*
X6597021Y-7724060D01*
X6597021Y-7844140D01*
X6620447Y-7961914D01*
X6666400Y-8072854D01*
X6733113Y-8172698D01*
X6818023Y-8257608D01*
X6917867Y-8324321D01*
X7007791Y-8361569D01*
X7045039Y-8451494D01*
X7111752Y-8551338D01*
X7196662Y-8636248D01*
X7296506Y-8702961D01*
X7407446Y-8748914D01*
X7525220Y-8772340D01*
X7549727Y-8772340D01*
X7590992Y-8834098D01*
X7675902Y-8919008D01*
X7775746Y-8985721D01*
X7886686Y-9031674D01*
X8004460Y-9055100D01*
X8124540Y-9055100D01*
X8242314Y-9031674D01*
X8353254Y-8985721D01*
X8453098Y-8919008D01*
X8538008Y-8834098D01*
X8604721Y-8734254D01*
X8650674Y-8623314D01*
X8674100Y-8505540D01*
X8674100Y-8453963D01*
X9474200Y-8453963D01*
X9474200Y-8564037D01*
X9495674Y-8671996D01*
X9537798Y-8773691D01*
X9598952Y-8865214D01*
X9676786Y-8943048D01*
X9768309Y-9004202D01*
X9870004Y-9046326D01*
X9977963Y-9067800D01*
X10088037Y-9067800D01*
X10195996Y-9046326D01*
X10297691Y-9004202D01*
X10389214Y-8943048D01*
X10467048Y-8865214D01*
X10528202Y-8773691D01*
X10570326Y-8671996D01*
X10591800Y-8564037D01*
X10591800Y-8453963D01*
X10570326Y-8346004D01*
X10528202Y-8244309D01*
X10467048Y-8152786D01*
X10389214Y-8074952D01*
X10297691Y-8013798D01*
X10195996Y-7971674D01*
X10088037Y-7950200D01*
X9977963Y-7950200D01*
X9870004Y-7971674D01*
X9768309Y-8013798D01*
X9676786Y-8074952D01*
X9598952Y-8152786D01*
X9537798Y-8244309D01*
X9495674Y-8346004D01*
X9474200Y-8453963D01*
X8674100Y-8453963D01*
X8674100Y-8385460D01*
X8650674Y-8267686D01*
X8604721Y-8156746D01*
X8538008Y-8056902D01*
X8453098Y-7971992D01*
X8353254Y-7905279D01*
X8242314Y-7859326D01*
X8124540Y-7835900D01*
X8100033Y-7835900D01*
X8058768Y-7774142D01*
X7973858Y-7689232D01*
X7874014Y-7622519D01*
X7784090Y-7585271D01*
X7746842Y-7495346D01*
X7680129Y-7395502D01*
X7595219Y-7310592D01*
X7495375Y-7243879D01*
X7384435Y-7197926D01*
X7289084Y-7178960D01*
X8534400Y-7178960D01*
X8534400Y-7299040D01*
X8557826Y-7416814D01*
X8603779Y-7527754D01*
X8670492Y-7627598D01*
X8755402Y-7712508D01*
X8855246Y-7779221D01*
X8966186Y-7825174D01*
X9083960Y-7848600D01*
X9204040Y-7848600D01*
X9321814Y-7825174D01*
X9432754Y-7779221D01*
X9532598Y-7712508D01*
X9617508Y-7627598D01*
X9684221Y-7527754D01*
X9730174Y-7416814D01*
X9753600Y-7299040D01*
X9753600Y-7178960D01*
X11074400Y-7178960D01*
X11074400Y-7299040D01*
X11097826Y-7416814D01*
X11143779Y-7527754D01*
X11210492Y-7627598D01*
X11295402Y-7712508D01*
X11395246Y-7779221D01*
X11506186Y-7825174D01*
X11594363Y-7842713D01*
X11584504Y-7844674D01*
X11482809Y-7886798D01*
X11391286Y-7947952D01*
X11313452Y-8025786D01*
X11252298Y-8117309D01*
X11210174Y-8219004D01*
X11188700Y-8326963D01*
X11188700Y-8437037D01*
X11210174Y-8544996D01*
X11252298Y-8646691D01*
X11313452Y-8738214D01*
X11391286Y-8816048D01*
X11482809Y-8877202D01*
X11584504Y-8919326D01*
X11692463Y-8940800D01*
X11802537Y-8940800D01*
X11910496Y-8919326D01*
X12012191Y-8877202D01*
X12103714Y-8816048D01*
X12105961Y-8813801D01*
X12936080Y-8813801D01*
X12956033Y-8815766D01*
X12975986Y-8813801D01*
X12975993Y-8813801D01*
X13035701Y-8807920D01*
X13112308Y-8784682D01*
X13182909Y-8746945D01*
X13244791Y-8696159D01*
X13257515Y-8680655D01*
X13646354Y-8291816D01*
X13661857Y-8279093D01*
X13712643Y-8217211D01*
X13750380Y-8146610D01*
X13768378Y-8087278D01*
X13773618Y-8070004D01*
X13774978Y-8056194D01*
X13779499Y-8010295D01*
X13779499Y-8010289D01*
X13781464Y-7990336D01*
X13779499Y-7970383D01*
X13779499Y-7847249D01*
X13866432Y-7760316D01*
X13905533Y-7760316D01*
X14013492Y-7738842D01*
X14115187Y-7696718D01*
X14129790Y-7686960D01*
X17233900Y-7686960D01*
X17233900Y-7807040D01*
X17257326Y-7924814D01*
X17303279Y-8035754D01*
X17369992Y-8135598D01*
X17454902Y-8220508D01*
X17554746Y-8287221D01*
X17665686Y-8333174D01*
X17783460Y-8356600D01*
X17903540Y-8356600D01*
X18021314Y-8333174D01*
X18132254Y-8287221D01*
X18232098Y-8220508D01*
X18289511Y-8163095D01*
X18313400Y-8179056D01*
X18313400Y-8188040D01*
X18336826Y-8305814D01*
X18382779Y-8416754D01*
X18449492Y-8516598D01*
X18534402Y-8601508D01*
X18634246Y-8668221D01*
X18745186Y-8714174D01*
X18862960Y-8737600D01*
X18983040Y-8737600D01*
X19100814Y-8714174D01*
X19211754Y-8668221D01*
X19311598Y-8601508D01*
X19396508Y-8516598D01*
X19463221Y-8416754D01*
X19509174Y-8305814D01*
X19525166Y-8225414D01*
X19529254Y-8223721D01*
X19629098Y-8157008D01*
X19714008Y-8072098D01*
X19780721Y-7972254D01*
X19826674Y-7861314D01*
X19850100Y-7743540D01*
X19850100Y-7623460D01*
X19826674Y-7505686D01*
X19780721Y-7394746D01*
X19714008Y-7294902D01*
X19629098Y-7209992D01*
X19529254Y-7143279D01*
X19418314Y-7097326D01*
X19300540Y-7073900D01*
X19180460Y-7073900D01*
X19062686Y-7097326D01*
X18954750Y-7142035D01*
X18846814Y-7097326D01*
X18729040Y-7073900D01*
X18608960Y-7073900D01*
X18491186Y-7097326D01*
X18380246Y-7143279D01*
X18280402Y-7209992D01*
X18222989Y-7267405D01*
X18132254Y-7206779D01*
X18021314Y-7160826D01*
X17903540Y-7137400D01*
X17783460Y-7137400D01*
X17665686Y-7160826D01*
X17554746Y-7206779D01*
X17454902Y-7273492D01*
X17369992Y-7358402D01*
X17303279Y-7458246D01*
X17257326Y-7569186D01*
X17233900Y-7686960D01*
X14129790Y-7686960D01*
X14206710Y-7635564D01*
X14284544Y-7557730D01*
X14345698Y-7466207D01*
X14387822Y-7364512D01*
X14409296Y-7256553D01*
X14409296Y-7146479D01*
X14387822Y-7038520D01*
X14345698Y-6936825D01*
X14284544Y-6845302D01*
X14206710Y-6767468D01*
X14115187Y-6706314D01*
X14013492Y-6664190D01*
X13905533Y-6642716D01*
X13795459Y-6642716D01*
X13687500Y-6664190D01*
X13585805Y-6706314D01*
X13494282Y-6767468D01*
X13416448Y-6845302D01*
X13415493Y-6846731D01*
X13373714Y-6804952D01*
X13282191Y-6743798D01*
X13180496Y-6701674D01*
X13072537Y-6680200D01*
X12962463Y-6680200D01*
X12854504Y-6701674D01*
X12752809Y-6743798D01*
X12661286Y-6804952D01*
X12583452Y-6882786D01*
X12522298Y-6974309D01*
X12480174Y-7076004D01*
X12458700Y-7183963D01*
X12458700Y-7294037D01*
X12462391Y-7312594D01*
X12411246Y-7333779D01*
X12311402Y-7400492D01*
X12252563Y-7459331D01*
X12270174Y-7416814D01*
X12293600Y-7299040D01*
X12293600Y-7178960D01*
X12270174Y-7061186D01*
X12224221Y-6950246D01*
X12157508Y-6850402D01*
X12072598Y-6765492D01*
X11972754Y-6698779D01*
X11861814Y-6652826D01*
X11744040Y-6629400D01*
X11623960Y-6629400D01*
X11506186Y-6652826D01*
X11395246Y-6698779D01*
X11295402Y-6765492D01*
X11210492Y-6850402D01*
X11143779Y-6950246D01*
X11097826Y-7061186D01*
X11074400Y-7178960D01*
X9753600Y-7178960D01*
X9730174Y-7061186D01*
X9684221Y-6950246D01*
X9617508Y-6850402D01*
X9532598Y-6765492D01*
X9432754Y-6698779D01*
X9321814Y-6652826D01*
X9204040Y-6629400D01*
X9083960Y-6629400D01*
X8966186Y-6652826D01*
X8855246Y-6698779D01*
X8755402Y-6765492D01*
X8670492Y-6850402D01*
X8603779Y-6950246D01*
X8557826Y-7061186D01*
X8534400Y-7178960D01*
X7289084Y-7178960D01*
X7266661Y-7174500D01*
X7146581Y-7174500D01*
X7028807Y-7197926D01*
X6917867Y-7243879D01*
X6818023Y-7310592D01*
X6733113Y-7395502D01*
X6666400Y-7495346D01*
X6620447Y-7606286D01*
X6597021Y-7724060D01*
X5536800Y-7724060D01*
X5536800Y-6221255D01*
X6251253Y-6221255D01*
X6251253Y-6326325D01*
X6271751Y-6429377D01*
X6311960Y-6526450D01*
X6370334Y-6613813D01*
X6444630Y-6688109D01*
X6531993Y-6746483D01*
X6629066Y-6786692D01*
X6732118Y-6807190D01*
X6837188Y-6807190D01*
X6940240Y-6786692D01*
X7037313Y-6746483D01*
X7124676Y-6688109D01*
X7198972Y-6613813D01*
X7253797Y-6531762D01*
X7297677Y-6540490D01*
X7402747Y-6540490D01*
X7505799Y-6519992D01*
X7602872Y-6479783D01*
X7690235Y-6421409D01*
X7764531Y-6347113D01*
X7822905Y-6259750D01*
X7863114Y-6162677D01*
X7883612Y-6059625D01*
X7883612Y-5954555D01*
X7863114Y-5851503D01*
X7822905Y-5754430D01*
X7764531Y-5667067D01*
X7690235Y-5592771D01*
X7602872Y-5534397D01*
X7505799Y-5494188D01*
X7402747Y-5473690D01*
X7297677Y-5473690D01*
X7194625Y-5494188D01*
X7097552Y-5534397D01*
X7010189Y-5592771D01*
X6935893Y-5667067D01*
X6881068Y-5749118D01*
X6837188Y-5740390D01*
X6732118Y-5740390D01*
X6629066Y-5760888D01*
X6531993Y-5801097D01*
X6444630Y-5859471D01*
X6370334Y-5933767D01*
X6311960Y-6021130D01*
X6271751Y-6118203D01*
X6251253Y-6221255D01*
X5536800Y-6221255D01*
X5536800Y-3432460D01*
X8026400Y-3432460D01*
X8026400Y-3552540D01*
X8049826Y-3670314D01*
X8094535Y-3778250D01*
X8049826Y-3886186D01*
X8026400Y-4003960D01*
X8026400Y-4124040D01*
X8049826Y-4241814D01*
X8095779Y-4352754D01*
X8162492Y-4452598D01*
X8247402Y-4537508D01*
X8331823Y-4593915D01*
X8328952Y-4596786D01*
X8267798Y-4688309D01*
X8225674Y-4790004D01*
X8204200Y-4897963D01*
X8204200Y-5008037D01*
X8225674Y-5115996D01*
X8267798Y-5217691D01*
X8328952Y-5309214D01*
X8406786Y-5387048D01*
X8498309Y-5448202D01*
X8600004Y-5490326D01*
X8707963Y-5511800D01*
X8712200Y-5511800D01*
X8712200Y-5579537D01*
X8733674Y-5687496D01*
X8775798Y-5789191D01*
X8836952Y-5880714D01*
X8914786Y-5958548D01*
X9006309Y-6019702D01*
X9108004Y-6061826D01*
X9215963Y-6083300D01*
X9326037Y-6083300D01*
X9433996Y-6061826D01*
X9535691Y-6019702D01*
X9627214Y-5958548D01*
X9705048Y-5880714D01*
X9766202Y-5789191D01*
X9808326Y-5687496D01*
X9829800Y-5579537D01*
X9829800Y-5469463D01*
X9808326Y-5361504D01*
X9766202Y-5259809D01*
X9705048Y-5168286D01*
X9627214Y-5090452D01*
X9535691Y-5029298D01*
X9433996Y-4987174D01*
X9326404Y-4965773D01*
X9432754Y-4921721D01*
X9532598Y-4855008D01*
X9617508Y-4770098D01*
X9684221Y-4670254D01*
X9730174Y-4559314D01*
X9753600Y-4441540D01*
X9753600Y-4321460D01*
X9730174Y-4203686D01*
X9685465Y-4095750D01*
X9730174Y-3987814D01*
X9749355Y-3891379D01*
X11596819Y-3891379D01*
X11596819Y-4011459D01*
X11620245Y-4129233D01*
X11666198Y-4240173D01*
X11732911Y-4340017D01*
X11817821Y-4424927D01*
X11917665Y-4491640D01*
X12028605Y-4537593D01*
X12146379Y-4561019D01*
X12266459Y-4561019D01*
X12384233Y-4537593D01*
X12469041Y-4502464D01*
X12455148Y-4536004D01*
X12433674Y-4643963D01*
X12433674Y-4754037D01*
X12455148Y-4861996D01*
X12497272Y-4963691D01*
X12558426Y-5055214D01*
X12563975Y-5060763D01*
X12519952Y-5104786D01*
X12458798Y-5196309D01*
X12416674Y-5298004D01*
X12395200Y-5405963D01*
X12395200Y-5516037D01*
X12416674Y-5623996D01*
X12458798Y-5725691D01*
X12519952Y-5817214D01*
X12597786Y-5895048D01*
X12689309Y-5956202D01*
X12791004Y-5998326D01*
X12898963Y-6019800D01*
X13009037Y-6019800D01*
X13116996Y-5998326D01*
X13218691Y-5956202D01*
X13310214Y-5895048D01*
X13388048Y-5817214D01*
X13449202Y-5725691D01*
X13491326Y-5623996D01*
X13512800Y-5516037D01*
X13512800Y-5405963D01*
X13491326Y-5298004D01*
X13453433Y-5206523D01*
X14434494Y-5206523D01*
X14434494Y-5316597D01*
X14455968Y-5424556D01*
X14498092Y-5526251D01*
X14559246Y-5617774D01*
X14637080Y-5695608D01*
X14728603Y-5756762D01*
X14830298Y-5798886D01*
X14938257Y-5820360D01*
X15048331Y-5820360D01*
X15156290Y-5798886D01*
X15257985Y-5756762D01*
X15349508Y-5695608D01*
X15427342Y-5617774D01*
X15488496Y-5526251D01*
X15530620Y-5424556D01*
X15552094Y-5316597D01*
X15552094Y-5206523D01*
X15530620Y-5098564D01*
X15488496Y-4996869D01*
X15427342Y-4905346D01*
X15356459Y-4834463D01*
X16776700Y-4834463D01*
X16776700Y-4944537D01*
X16798174Y-5052496D01*
X16840298Y-5154191D01*
X16901452Y-5245714D01*
X16933939Y-5278201D01*
X16903798Y-5323309D01*
X16861674Y-5425004D01*
X16840200Y-5532963D01*
X16840200Y-5643037D01*
X16861674Y-5750996D01*
X16903798Y-5852691D01*
X16964952Y-5944214D01*
X17042786Y-6022048D01*
X17134309Y-6083202D01*
X17236004Y-6125326D01*
X17343963Y-6146800D01*
X17454037Y-6146800D01*
X17561996Y-6125326D01*
X17663691Y-6083202D01*
X17755214Y-6022048D01*
X17833048Y-5944214D01*
X17894202Y-5852691D01*
X17936326Y-5750996D01*
X17957800Y-5643037D01*
X17957800Y-5532963D01*
X17936326Y-5425004D01*
X17894202Y-5323309D01*
X17833048Y-5231786D01*
X17800561Y-5199299D01*
X17830702Y-5154191D01*
X17872826Y-5052496D01*
X17894300Y-4944537D01*
X17894300Y-4927600D01*
X17967040Y-4927600D01*
X18084814Y-4904174D01*
X18195754Y-4858221D01*
X18295598Y-4791508D01*
X18380508Y-4706598D01*
X18447221Y-4606754D01*
X18493174Y-4495814D01*
X18516600Y-4378040D01*
X18516600Y-4257960D01*
X18493174Y-4140186D01*
X18448465Y-4032250D01*
X18493174Y-3924314D01*
X18516600Y-3806540D01*
X18516600Y-3686460D01*
X18493174Y-3568686D01*
X18448465Y-3460750D01*
X18493174Y-3352814D01*
X18516600Y-3235040D01*
X18516600Y-3114960D01*
X18493174Y-2997186D01*
X18447221Y-2886246D01*
X18380508Y-2786402D01*
X18295598Y-2701492D01*
X18195754Y-2634779D01*
X18173334Y-2625492D01*
X19599316Y-2625492D01*
X19662198Y-2807197D01*
X19771171Y-2979225D01*
X19911611Y-3126688D01*
X20078121Y-3243919D01*
X20264302Y-3326413D01*
X20463000Y-3371000D01*
X21063000Y-3371000D01*
X21063000Y-2467000D01*
X19662908Y-2467000D01*
X19599316Y-2625492D01*
X18173334Y-2625492D01*
X18084814Y-2588826D01*
X17967040Y-2565400D01*
X17846960Y-2565400D01*
X17729186Y-2588826D01*
X17618246Y-2634779D01*
X17518402Y-2701492D01*
X17433492Y-2786402D01*
X17411444Y-2819400D01*
X17338960Y-2819400D01*
X17221186Y-2842826D01*
X17110246Y-2888779D01*
X17010402Y-2955492D01*
X16925492Y-3040402D01*
X16858779Y-3140246D01*
X16812826Y-3251186D01*
X16789400Y-3368960D01*
X16789400Y-3489040D01*
X16812826Y-3606814D01*
X16858779Y-3717754D01*
X16877986Y-3746500D01*
X16858779Y-3775246D01*
X16812826Y-3886186D01*
X16789400Y-4003960D01*
X16789400Y-4124040D01*
X16812826Y-4241814D01*
X16858779Y-4352754D01*
X16925492Y-4452598D01*
X16953816Y-4480922D01*
X16901452Y-4533286D01*
X16840298Y-4624809D01*
X16798174Y-4726504D01*
X16776700Y-4834463D01*
X15356459Y-4834463D01*
X15349508Y-4827512D01*
X15257985Y-4766358D01*
X15156290Y-4724234D01*
X15048331Y-4702760D01*
X14938257Y-4702760D01*
X14830298Y-4724234D01*
X14728603Y-4766358D01*
X14637080Y-4827512D01*
X14559246Y-4905346D01*
X14498092Y-4996869D01*
X14455968Y-5098564D01*
X14434494Y-5206523D01*
X13453433Y-5206523D01*
X13449202Y-5196309D01*
X13388048Y-5104786D01*
X13382499Y-5099237D01*
X13426522Y-5055214D01*
X13487676Y-4963691D01*
X13529800Y-4861996D01*
X13551274Y-4754037D01*
X13551274Y-4692766D01*
X13559674Y-4734996D01*
X13601798Y-4836691D01*
X13662952Y-4928214D01*
X13740786Y-5006048D01*
X13832309Y-5067202D01*
X13934004Y-5109326D01*
X14041963Y-5130800D01*
X14152037Y-5130800D01*
X14259996Y-5109326D01*
X14361691Y-5067202D01*
X14453214Y-5006048D01*
X14531048Y-4928214D01*
X14592202Y-4836691D01*
X14634326Y-4734996D01*
X14655800Y-4627037D01*
X14655800Y-4516963D01*
X14636213Y-4418490D01*
X14707214Y-4371048D01*
X14785048Y-4293214D01*
X14846202Y-4201691D01*
X14888326Y-4099996D01*
X14909800Y-3992037D01*
X14909800Y-3881963D01*
X14888326Y-3774004D01*
X14846202Y-3672309D01*
X14785048Y-3580786D01*
X14707214Y-3502952D01*
X14615691Y-3441798D01*
X14513996Y-3399674D01*
X14406037Y-3378200D01*
X14295963Y-3378200D01*
X14188004Y-3399674D01*
X14086309Y-3441798D01*
X13994786Y-3502952D01*
X13916952Y-3580786D01*
X13855798Y-3672309D01*
X13813674Y-3774004D01*
X13792200Y-3881963D01*
X13792200Y-3992037D01*
X13811787Y-4090510D01*
X13740786Y-4137952D01*
X13662952Y-4215786D01*
X13601798Y-4307309D01*
X13559674Y-4409004D01*
X13538200Y-4516963D01*
X13538200Y-4578234D01*
X13529800Y-4536004D01*
X13487676Y-4434309D01*
X13426522Y-4342786D01*
X13348688Y-4264952D01*
X13257165Y-4203798D01*
X13155470Y-4161674D01*
X13047511Y-4140200D01*
X12937437Y-4140200D01*
X12829478Y-4161674D01*
X12768733Y-4186836D01*
X12792593Y-4129233D01*
X12816019Y-4011459D01*
X12816019Y-3891379D01*
X12792593Y-3773605D01*
X12746640Y-3662665D01*
X12679927Y-3562821D01*
X12595017Y-3477911D01*
X12495173Y-3411198D01*
X12384233Y-3365245D01*
X12266459Y-3341819D01*
X12146379Y-3341819D01*
X12028605Y-3365245D01*
X11917665Y-3411198D01*
X11817821Y-3477911D01*
X11732911Y-3562821D01*
X11666198Y-3662665D01*
X11620245Y-3773605D01*
X11596819Y-3891379D01*
X9749355Y-3891379D01*
X9753600Y-3870040D01*
X9753600Y-3749960D01*
X9730174Y-3632186D01*
X9685465Y-3524250D01*
X9730174Y-3416314D01*
X9753600Y-3298540D01*
X9753600Y-3178460D01*
X9730174Y-3060686D01*
X9684221Y-2949746D01*
X9617508Y-2849902D01*
X9532598Y-2764992D01*
X9432754Y-2698279D01*
X9321814Y-2652326D01*
X9204040Y-2628900D01*
X9083960Y-2628900D01*
X8966186Y-2652326D01*
X8855246Y-2698279D01*
X8755402Y-2764992D01*
X8670492Y-2849902D01*
X8648444Y-2882900D01*
X8575960Y-2882900D01*
X8458186Y-2906326D01*
X8347246Y-2952279D01*
X8247402Y-3018992D01*
X8162492Y-3103902D01*
X8095779Y-3203746D01*
X8049826Y-3314686D01*
X8026400Y-3432460D01*
X5536800Y-3432460D01*
X5536800Y-3293236D01*
X5583205Y-3235106D01*
X5599507Y-3210003D01*
X5616155Y-3185135D01*
X5618305Y-3181057D01*
X5698961Y-3025455D01*
X5710075Y-2997668D01*
X5721576Y-2970039D01*
X5722893Y-2965621D01*
X5771790Y-2797316D01*
X5777291Y-2767918D01*
X5783211Y-2738561D01*
X5783645Y-2733971D01*
X5798920Y-2559374D01*
X5798606Y-2529447D01*
X5798711Y-2499522D01*
X5798245Y-2494935D01*
X5779317Y-2320696D01*
X5773193Y-2291382D01*
X5767486Y-2262023D01*
X5766138Y-2257614D01*
X5713727Y-2090370D01*
X5702045Y-2062849D01*
X5698642Y-2054508D01*
X19599316Y-2054508D01*
X19662908Y-2213000D01*
X21063000Y-2213000D01*
X21063000Y-1309000D01*
X20463000Y-1309000D01*
X20264302Y-1353587D01*
X20078121Y-1436081D01*
X19911611Y-1553312D01*
X19771171Y-1700775D01*
X19662198Y-1872803D01*
X19599316Y-2054508D01*
X5698642Y-2054508D01*
X5690726Y-2035112D01*
X5688547Y-2031049D01*
X5604650Y-1877171D01*
X5587820Y-1852406D01*
X5571353Y-1827433D01*
X5568427Y-1823870D01*
X5456238Y-1689217D01*
X5434893Y-1668168D01*
X5413915Y-1646895D01*
X5410353Y-1643969D01*
X5274148Y-1533672D01*
X5249157Y-1517194D01*
X5224408Y-1500374D01*
X5220345Y-1498196D01*
X5065311Y-1416456D01*
X5037612Y-1405153D01*
X5010054Y-1393455D01*
X5005646Y-1392107D01*
X4837685Y-1342036D01*
X4808340Y-1336332D01*
X4779013Y-1330205D01*
X4774426Y-1329739D01*
X4599940Y-1313245D01*
X4570014Y-1313350D01*
X4540087Y-1313036D01*
X4535497Y-1313470D01*
X4361131Y-1331181D01*
X4331799Y-1337095D01*
X4302374Y-1342602D01*
X4297956Y-1343920D01*
X4130351Y-1395163D01*
X4102783Y-1406639D01*
X4074935Y-1417777D01*
X4070857Y-1419927D01*
X3916396Y-1502748D01*
X3891523Y-1519400D01*
X3866426Y-1535697D01*
X3862844Y-1538599D01*
X3818285Y-1575200D01*
X329800Y-1575200D01*
X329800Y-524131D01*
X334745Y-473695D01*
X344708Y-440698D01*
X360893Y-410258D01*
X382676Y-383549D01*
X409233Y-361579D01*
X439561Y-345181D01*
X472486Y-334989D01*
X521852Y-329800D01*
X24875869Y-329800D01*
X24926305Y-334745D01*
G37*
%TD.AperFunction*%
%TD*%
M02*
