%TF.GenerationSoftware,KiCad,Pcbnew,(5.1.7)-1*%
%TF.CreationDate,2021-02-13T17:52:43+01:00*%
%TF.ProjectId,twonkie,74776f6e-6b69-4652-9e6b-696361645f70,rev?*%
%TF.SameCoordinates,PX448d510PY20b3950*%
%TF.FileFunction,Copper,L1,Top*%
%TF.FilePolarity,Positive*%
%FSLAX46Y46*%
G04 Gerber Fmt 4.6, Leading zero omitted, Abs format (unit mm)*
G04 Created by KiCad (PCBNEW (5.1.7)-1) date 2021-02-13 17:52:43*
%MOMM*%
%LPD*%
G01*
G04 APERTURE LIST*
%TA.AperFunction,SMDPad,CuDef*%
%ADD10R,1.000000X0.260000*%
%TD*%
%TA.AperFunction,SMDPad,CuDef*%
%ADD11R,1.250000X0.410000*%
%TD*%
%TA.AperFunction,ComponentPad*%
%ADD12O,2.500000X1.300000*%
%TD*%
%TA.AperFunction,SMDPad,CuDef*%
%ADD13R,2.200000X1.500000*%
%TD*%
%TA.AperFunction,SMDPad,CuDef*%
%ADD14R,0.450000X2.000000*%
%TD*%
%TA.AperFunction,ComponentPad*%
%ADD15O,1.450000X2.000000*%
%TD*%
%TA.AperFunction,ComponentPad*%
%ADD16O,1.150000X1.800000*%
%TD*%
%TA.AperFunction,SMDPad,CuDef*%
%ADD17R,4.000000X1.500000*%
%TD*%
%TA.AperFunction,SMDPad,CuDef*%
%ADD18R,1.000000X0.300000*%
%TD*%
%TA.AperFunction,SMDPad,CuDef*%
%ADD19R,1.000000X1.000000*%
%TD*%
%TA.AperFunction,SMDPad,CuDef*%
%ADD20R,0.650000X0.400000*%
%TD*%
%TA.AperFunction,SMDPad,CuDef*%
%ADD21R,1.050000X1.400000*%
%TD*%
%TA.AperFunction,SMDPad,CuDef*%
%ADD22R,0.400000X0.650000*%
%TD*%
%TA.AperFunction,SMDPad,CuDef*%
%ADD23R,1.000000X0.800000*%
%TD*%
%TA.AperFunction,ViaPad*%
%ADD24C,0.609600*%
%TD*%
%TA.AperFunction,ViaPad*%
%ADD25C,0.508000*%
%TD*%
%TA.AperFunction,ViaPad*%
%ADD26C,0.457200*%
%TD*%
%TA.AperFunction,Conductor*%
%ADD27C,0.304800*%
%TD*%
%TA.AperFunction,Conductor*%
%ADD28C,0.203200*%
%TD*%
%TA.AperFunction,Conductor*%
%ADD29C,0.508000*%
%TD*%
%TA.AperFunction,Conductor*%
%ADD30C,0.248920*%
%TD*%
%TA.AperFunction,Conductor*%
%ADD31C,0.127000*%
%TD*%
%TA.AperFunction,Conductor*%
%ADD32C,0.254000*%
%TD*%
%TA.AperFunction,Conductor*%
%ADD33C,0.100000*%
%TD*%
G04 APERTURE END LIST*
%TO.P,R27,1*%
%TO.N,+3V3*%
%TA.AperFunction,SMDPad,CuDef*%
G36*
G01*
X20861000Y-20830500D02*
X20541000Y-20830500D01*
G75*
G02*
X20381000Y-20670500I0J160000D01*
G01*
X20381000Y-20275500D01*
G75*
G02*
X20541000Y-20115500I160000J0D01*
G01*
X20861000Y-20115500D01*
G75*
G02*
X21021000Y-20275500I0J-160000D01*
G01*
X21021000Y-20670500D01*
G75*
G02*
X20861000Y-20830500I-160000J0D01*
G01*
G37*
%TD.AperFunction*%
%TO.P,R27,2*%
%TO.N,/USB_B_ID*%
%TA.AperFunction,SMDPad,CuDef*%
G36*
G01*
X20861000Y-19635500D02*
X20541000Y-19635500D01*
G75*
G02*
X20381000Y-19475500I0J160000D01*
G01*
X20381000Y-19080500D01*
G75*
G02*
X20541000Y-18920500I160000J0D01*
G01*
X20861000Y-18920500D01*
G75*
G02*
X21021000Y-19080500I0J-160000D01*
G01*
X21021000Y-19475500D01*
G75*
G02*
X20861000Y-19635500I-160000J0D01*
G01*
G37*
%TD.AperFunction*%
%TD*%
D10*
%TO.P,J1,A11*%
%TO.N,/RX2+*%
X21090000Y-8600000D03*
%TO.P,J1,A10*%
%TO.N,/RX2-*%
X21090000Y-8100000D03*
%TO.P,J1,A9*%
%TO.N,/VBUS_PLUG*%
X21090000Y-7600000D03*
%TO.P,J1,A8*%
%TO.N,/SBU1*%
X21090000Y-7100000D03*
%TO.P,J1,A7*%
%TO.N,/USBC_D-*%
X21090000Y-6600000D03*
%TO.P,J1,A6*%
%TO.N,/USBC_D+*%
X21090000Y-6100000D03*
%TO.P,J1,A5*%
%TO.N,/CC1_RECEP*%
X21090000Y-5600000D03*
%TO.P,J1,A4*%
%TO.N,/VBUS_PLUG*%
X21090000Y-5100000D03*
%TO.P,J1,A3*%
%TO.N,/TX1-*%
X21090000Y-4600000D03*
%TO.P,J1,A2*%
%TO.N,/TX1+*%
X21090000Y-4100000D03*
D11*
%TO.P,J1,A12*%
%TO.N,GND*%
X20965000Y-9175000D03*
%TO.P,J1,A1*%
X20965000Y-3525000D03*
D12*
%TO.P,J1,S1*%
X21190000Y-10360000D03*
%TO.P,J1,S2*%
X21190000Y-2340000D03*
D13*
%TO.P,J1,S3*%
X24290000Y-11300000D03*
%TO.P,J1,S4*%
X24290000Y-1400000D03*
%TD*%
D14*
%TO.P,J3,1*%
%TO.N,Net-(D1-Pad1)*%
X3729200Y-19390800D03*
%TO.P,J3,2*%
%TO.N,/USB_B_D-*%
X4379200Y-19390800D03*
%TO.P,J3,3*%
%TO.N,/USB_B_D+*%
X5029200Y-19390800D03*
%TO.P,J3,4*%
%TO.N,/USB_B_ID*%
X5679200Y-19390800D03*
%TO.P,J3,5*%
%TO.N,GND*%
X6329200Y-19390800D03*
D15*
%TO.P,J3,6*%
X1304200Y-19790800D03*
X8754200Y-19790800D03*
D16*
X1154200Y-23590800D03*
X8904200Y-23590800D03*
%TD*%
%TO.P,R26,2*%
%TO.N,/INA_SDA*%
%TA.AperFunction,SMDPad,CuDef*%
G36*
G01*
X11825000Y-17683500D02*
X11825000Y-18003500D01*
G75*
G02*
X11665000Y-18163500I-160000J0D01*
G01*
X11270000Y-18163500D01*
G75*
G02*
X11110000Y-18003500I0J160000D01*
G01*
X11110000Y-17683500D01*
G75*
G02*
X11270000Y-17523500I160000J0D01*
G01*
X11665000Y-17523500D01*
G75*
G02*
X11825000Y-17683500I0J-160000D01*
G01*
G37*
%TD.AperFunction*%
%TO.P,R26,1*%
%TO.N,+3V3*%
%TA.AperFunction,SMDPad,CuDef*%
G36*
G01*
X13020000Y-17683500D02*
X13020000Y-18003500D01*
G75*
G02*
X12860000Y-18163500I-160000J0D01*
G01*
X12465000Y-18163500D01*
G75*
G02*
X12305000Y-18003500I0J160000D01*
G01*
X12305000Y-17683500D01*
G75*
G02*
X12465000Y-17523500I160000J0D01*
G01*
X12860000Y-17523500D01*
G75*
G02*
X13020000Y-17683500I0J-160000D01*
G01*
G37*
%TD.AperFunction*%
%TD*%
%TO.P,R25,2*%
%TO.N,/INA_SCL*%
%TA.AperFunction,SMDPad,CuDef*%
G36*
G01*
X12305000Y-19019500D02*
X12305000Y-18699500D01*
G75*
G02*
X12465000Y-18539500I160000J0D01*
G01*
X12860000Y-18539500D01*
G75*
G02*
X13020000Y-18699500I0J-160000D01*
G01*
X13020000Y-19019500D01*
G75*
G02*
X12860000Y-19179500I-160000J0D01*
G01*
X12465000Y-19179500D01*
G75*
G02*
X12305000Y-19019500I0J160000D01*
G01*
G37*
%TD.AperFunction*%
%TO.P,R25,1*%
%TO.N,+3V3*%
%TA.AperFunction,SMDPad,CuDef*%
G36*
G01*
X11110000Y-19019500D02*
X11110000Y-18699500D01*
G75*
G02*
X11270000Y-18539500I160000J0D01*
G01*
X11665000Y-18539500D01*
G75*
G02*
X11825000Y-18699500I0J-160000D01*
G01*
X11825000Y-19019500D01*
G75*
G02*
X11665000Y-19179500I-160000J0D01*
G01*
X11270000Y-19179500D01*
G75*
G02*
X11110000Y-19019500I0J160000D01*
G01*
G37*
%TD.AperFunction*%
%TD*%
%TO.P,R24,2*%
%TO.N,GND*%
%TA.AperFunction,SMDPad,CuDef*%
G36*
G01*
X23525500Y-20687000D02*
X23845500Y-20687000D01*
G75*
G02*
X24005500Y-20847000I0J-160000D01*
G01*
X24005500Y-21242000D01*
G75*
G02*
X23845500Y-21402000I-160000J0D01*
G01*
X23525500Y-21402000D01*
G75*
G02*
X23365500Y-21242000I0J160000D01*
G01*
X23365500Y-20847000D01*
G75*
G02*
X23525500Y-20687000I160000J0D01*
G01*
G37*
%TD.AperFunction*%
%TO.P,R24,1*%
%TO.N,Net-(R24-Pad1)*%
%TA.AperFunction,SMDPad,CuDef*%
G36*
G01*
X23525500Y-19492000D02*
X23845500Y-19492000D01*
G75*
G02*
X24005500Y-19652000I0J-160000D01*
G01*
X24005500Y-20047000D01*
G75*
G02*
X23845500Y-20207000I-160000J0D01*
G01*
X23525500Y-20207000D01*
G75*
G02*
X23365500Y-20047000I0J160000D01*
G01*
X23365500Y-19652000D01*
G75*
G02*
X23525500Y-19492000I160000J0D01*
G01*
G37*
%TD.AperFunction*%
%TD*%
%TO.P,U2,1*%
%TO.N,/CC2_PLUG*%
%TA.AperFunction,SMDPad,CuDef*%
G36*
G01*
X16935000Y-7763000D02*
X16935000Y-7963000D01*
G75*
G02*
X16835000Y-8063000I-100000J0D01*
G01*
X15560000Y-8063000D01*
G75*
G02*
X15460000Y-7963000I0J100000D01*
G01*
X15460000Y-7763000D01*
G75*
G02*
X15560000Y-7663000I100000J0D01*
G01*
X16835000Y-7663000D01*
G75*
G02*
X16935000Y-7763000I0J-100000D01*
G01*
G37*
%TD.AperFunction*%
%TO.P,U2,4*%
%TO.N,GND*%
%TA.AperFunction,SMDPad,CuDef*%
G36*
G01*
X16935000Y-5813000D02*
X16935000Y-6013000D01*
G75*
G02*
X16835000Y-6113000I-100000J0D01*
G01*
X15560000Y-6113000D01*
G75*
G02*
X15460000Y-6013000I0J100000D01*
G01*
X15460000Y-5813000D01*
G75*
G02*
X15560000Y-5713000I100000J0D01*
G01*
X16835000Y-5713000D01*
G75*
G02*
X16935000Y-5813000I0J-100000D01*
G01*
G37*
%TD.AperFunction*%
%TO.P,U2,5*%
%TO.N,+3V3*%
%TA.AperFunction,SMDPad,CuDef*%
G36*
G01*
X16935000Y-5163000D02*
X16935000Y-5363000D01*
G75*
G02*
X16835000Y-5463000I-100000J0D01*
G01*
X15560000Y-5463000D01*
G75*
G02*
X15460000Y-5363000I0J100000D01*
G01*
X15460000Y-5163000D01*
G75*
G02*
X15560000Y-5063000I100000J0D01*
G01*
X16835000Y-5063000D01*
G75*
G02*
X16935000Y-5163000I0J-100000D01*
G01*
G37*
%TD.AperFunction*%
%TO.P,U2,6*%
%TO.N,GND*%
%TA.AperFunction,SMDPad,CuDef*%
G36*
G01*
X16935000Y-4513000D02*
X16935000Y-4713000D01*
G75*
G02*
X16835000Y-4813000I-100000J0D01*
G01*
X15560000Y-4813000D01*
G75*
G02*
X15460000Y-4713000I0J100000D01*
G01*
X15460000Y-4513000D01*
G75*
G02*
X15560000Y-4413000I100000J0D01*
G01*
X16835000Y-4413000D01*
G75*
G02*
X16935000Y-4513000I0J-100000D01*
G01*
G37*
%TD.AperFunction*%
%TO.P,U2,7*%
%TO.N,/VCONN_ALERT_L*%
%TA.AperFunction,SMDPad,CuDef*%
G36*
G01*
X16935000Y-3863000D02*
X16935000Y-4063000D01*
G75*
G02*
X16835000Y-4163000I-100000J0D01*
G01*
X15560000Y-4163000D01*
G75*
G02*
X15460000Y-4063000I0J100000D01*
G01*
X15460000Y-3863000D01*
G75*
G02*
X15560000Y-3763000I100000J0D01*
G01*
X16835000Y-3763000D01*
G75*
G02*
X16935000Y-3863000I0J-100000D01*
G01*
G37*
%TD.AperFunction*%
%TO.P,U2,8*%
%TO.N,/INA_SDA*%
%TA.AperFunction,SMDPad,CuDef*%
G36*
G01*
X16935000Y-3213000D02*
X16935000Y-3413000D01*
G75*
G02*
X16835000Y-3513000I-100000J0D01*
G01*
X15560000Y-3513000D01*
G75*
G02*
X15460000Y-3413000I0J100000D01*
G01*
X15460000Y-3213000D01*
G75*
G02*
X15560000Y-3113000I100000J0D01*
G01*
X16835000Y-3113000D01*
G75*
G02*
X16935000Y-3213000I0J-100000D01*
G01*
G37*
%TD.AperFunction*%
%TO.P,U2,9*%
%TO.N,/INA_SCL*%
%TA.AperFunction,SMDPad,CuDef*%
G36*
G01*
X11210000Y-3213000D02*
X11210000Y-3413000D01*
G75*
G02*
X11110000Y-3513000I-100000J0D01*
G01*
X9835000Y-3513000D01*
G75*
G02*
X9735000Y-3413000I0J100000D01*
G01*
X9735000Y-3213000D01*
G75*
G02*
X9835000Y-3113000I100000J0D01*
G01*
X11110000Y-3113000D01*
G75*
G02*
X11210000Y-3213000I0J-100000D01*
G01*
G37*
%TD.AperFunction*%
%TO.P,U2,10*%
%TO.N,+3V3*%
%TA.AperFunction,SMDPad,CuDef*%
G36*
G01*
X11210000Y-3863000D02*
X11210000Y-4063000D01*
G75*
G02*
X11110000Y-4163000I-100000J0D01*
G01*
X9835000Y-4163000D01*
G75*
G02*
X9735000Y-4063000I0J100000D01*
G01*
X9735000Y-3863000D01*
G75*
G02*
X9835000Y-3763000I100000J0D01*
G01*
X11110000Y-3763000D01*
G75*
G02*
X11210000Y-3863000I0J-100000D01*
G01*
G37*
%TD.AperFunction*%
%TO.P,U2,11*%
%TO.N,GND*%
%TA.AperFunction,SMDPad,CuDef*%
G36*
G01*
X11210000Y-4513000D02*
X11210000Y-4713000D01*
G75*
G02*
X11110000Y-4813000I-100000J0D01*
G01*
X9835000Y-4813000D01*
G75*
G02*
X9735000Y-4713000I0J100000D01*
G01*
X9735000Y-4513000D01*
G75*
G02*
X9835000Y-4413000I100000J0D01*
G01*
X11110000Y-4413000D01*
G75*
G02*
X11210000Y-4513000I0J-100000D01*
G01*
G37*
%TD.AperFunction*%
%TO.P,U2,12*%
%TO.N,/CC2_PLUG*%
%TA.AperFunction,SMDPad,CuDef*%
G36*
G01*
X11210000Y-5163000D02*
X11210000Y-5363000D01*
G75*
G02*
X11110000Y-5463000I-100000J0D01*
G01*
X9835000Y-5463000D01*
G75*
G02*
X9735000Y-5363000I0J100000D01*
G01*
X9735000Y-5163000D01*
G75*
G02*
X9835000Y-5063000I100000J0D01*
G01*
X11110000Y-5063000D01*
G75*
G02*
X11210000Y-5163000I0J-100000D01*
G01*
G37*
%TD.AperFunction*%
%TO.P,U2,15*%
%TO.N,/CC2_RECEP*%
%TA.AperFunction,SMDPad,CuDef*%
G36*
G01*
X11210000Y-7113000D02*
X11210000Y-7313000D01*
G75*
G02*
X11110000Y-7413000I-100000J0D01*
G01*
X9835000Y-7413000D01*
G75*
G02*
X9735000Y-7313000I0J100000D01*
G01*
X9735000Y-7113000D01*
G75*
G02*
X9835000Y-7013000I100000J0D01*
G01*
X11110000Y-7013000D01*
G75*
G02*
X11210000Y-7113000I0J-100000D01*
G01*
G37*
%TD.AperFunction*%
%TD*%
D17*
%TO.P,J2,S6*%
%TO.N,GND*%
X2215000Y-11600000D03*
%TO.P,J2,S5*%
X2215000Y-1100000D03*
D18*
%TO.P,J2,A12*%
X5675000Y-9100000D03*
%TO.P,J2,A11*%
%TO.N,/RX2+*%
X5675000Y-8600000D03*
%TO.P,J2,A10*%
%TO.N,/RX2-*%
X5675000Y-8100000D03*
%TO.P,J2,A9*%
%TO.N,/VBUS_RECEP*%
X5675000Y-7600000D03*
%TO.P,J2,A8*%
%TO.N,/SBU1*%
X5675000Y-7100000D03*
%TO.P,J2,A7*%
%TO.N,/USBC_D-*%
X5675000Y-6600000D03*
%TO.P,J2,A6*%
%TO.N,/USBC_D+*%
X5675000Y-6100000D03*
%TO.P,J2,A5*%
%TO.N,/CC1_RECEP*%
X5675000Y-5600000D03*
%TO.P,J2,A4*%
%TO.N,/VBUS_RECEP*%
X5675000Y-5100000D03*
%TO.P,J2,A3*%
%TO.N,/TX1-*%
X5675000Y-4600000D03*
%TO.P,J2,A2*%
%TO.N,/TX1+*%
X5675000Y-4100000D03*
%TO.P,J2,A1*%
%TO.N,GND*%
X5675000Y-3600000D03*
D19*
%TO.P,J2,S1*%
X5675000Y-2600000D03*
%TO.P,J2,S2*%
X5675000Y-10100000D03*
%TD*%
D20*
%TO.P,Q3,6*%
%TO.N,/CC1_RECEP*%
X11681500Y-11161000D03*
%TO.P,Q3,4*%
%TO.N,/CC2*%
X11681500Y-12461000D03*
%TO.P,Q3,2*%
%TO.N,/CC1_EN*%
X9781500Y-11811000D03*
%TO.P,Q3,5*%
%TO.N,/CC2_EN*%
X11681500Y-11811000D03*
%TO.P,Q3,3*%
%TO.N,/CC2_RECEP*%
X9781500Y-12461000D03*
%TO.P,Q3,1*%
%TO.N,/CC1*%
X9781500Y-11161000D03*
%TD*%
%TO.P,C2,2*%
%TO.N,GND*%
%TA.AperFunction,SMDPad,CuDef*%
G36*
G01*
X15522000Y-17516500D02*
X15212000Y-17516500D01*
G75*
G02*
X15057000Y-17361500I0J155000D01*
G01*
X15057000Y-16936500D01*
G75*
G02*
X15212000Y-16781500I155000J0D01*
G01*
X15522000Y-16781500D01*
G75*
G02*
X15677000Y-16936500I0J-155000D01*
G01*
X15677000Y-17361500D01*
G75*
G02*
X15522000Y-17516500I-155000J0D01*
G01*
G37*
%TD.AperFunction*%
%TO.P,C2,1*%
%TO.N,+3V3*%
%TA.AperFunction,SMDPad,CuDef*%
G36*
G01*
X15522000Y-18651500D02*
X15212000Y-18651500D01*
G75*
G02*
X15057000Y-18496500I0J155000D01*
G01*
X15057000Y-18071500D01*
G75*
G02*
X15212000Y-17916500I155000J0D01*
G01*
X15522000Y-17916500D01*
G75*
G02*
X15677000Y-18071500I0J-155000D01*
G01*
X15677000Y-18496500D01*
G75*
G02*
X15522000Y-18651500I-155000J0D01*
G01*
G37*
%TD.AperFunction*%
%TD*%
%TO.P,C4,2*%
%TO.N,GND*%
%TA.AperFunction,SMDPad,CuDef*%
G36*
G01*
X14506000Y-17516500D02*
X14196000Y-17516500D01*
G75*
G02*
X14041000Y-17361500I0J155000D01*
G01*
X14041000Y-16936500D01*
G75*
G02*
X14196000Y-16781500I155000J0D01*
G01*
X14506000Y-16781500D01*
G75*
G02*
X14661000Y-16936500I0J-155000D01*
G01*
X14661000Y-17361500D01*
G75*
G02*
X14506000Y-17516500I-155000J0D01*
G01*
G37*
%TD.AperFunction*%
%TO.P,C4,1*%
%TO.N,+3V3*%
%TA.AperFunction,SMDPad,CuDef*%
G36*
G01*
X14506000Y-18651500D02*
X14196000Y-18651500D01*
G75*
G02*
X14041000Y-18496500I0J155000D01*
G01*
X14041000Y-18071500D01*
G75*
G02*
X14196000Y-17916500I155000J0D01*
G01*
X14506000Y-17916500D01*
G75*
G02*
X14661000Y-18071500I0J-155000D01*
G01*
X14661000Y-18496500D01*
G75*
G02*
X14506000Y-18651500I-155000J0D01*
G01*
G37*
%TD.AperFunction*%
%TD*%
%TO.P,R14,2*%
%TO.N,+3V3*%
%TA.AperFunction,SMDPad,CuDef*%
G36*
G01*
X2208500Y-16543000D02*
X2208500Y-16223000D01*
G75*
G02*
X2368500Y-16063000I160000J0D01*
G01*
X2763500Y-16063000D01*
G75*
G02*
X2923500Y-16223000I0J-160000D01*
G01*
X2923500Y-16543000D01*
G75*
G02*
X2763500Y-16703000I-160000J0D01*
G01*
X2368500Y-16703000D01*
G75*
G02*
X2208500Y-16543000I0J160000D01*
G01*
G37*
%TD.AperFunction*%
%TO.P,R14,1*%
%TO.N,Net-(Q1-Pad6)*%
%TA.AperFunction,SMDPad,CuDef*%
G36*
G01*
X1013500Y-16543000D02*
X1013500Y-16223000D01*
G75*
G02*
X1173500Y-16063000I160000J0D01*
G01*
X1568500Y-16063000D01*
G75*
G02*
X1728500Y-16223000I0J-160000D01*
G01*
X1728500Y-16543000D01*
G75*
G02*
X1568500Y-16703000I-160000J0D01*
G01*
X1173500Y-16703000D01*
G75*
G02*
X1013500Y-16543000I0J160000D01*
G01*
G37*
%TD.AperFunction*%
%TD*%
%TO.P,R16,2*%
%TO.N,GND*%
%TA.AperFunction,SMDPad,CuDef*%
G36*
G01*
X13702000Y-11844000D02*
X13702000Y-11524000D01*
G75*
G02*
X13862000Y-11364000I160000J0D01*
G01*
X14257000Y-11364000D01*
G75*
G02*
X14417000Y-11524000I0J-160000D01*
G01*
X14417000Y-11844000D01*
G75*
G02*
X14257000Y-12004000I-160000J0D01*
G01*
X13862000Y-12004000D01*
G75*
G02*
X13702000Y-11844000I0J160000D01*
G01*
G37*
%TD.AperFunction*%
%TO.P,R16,1*%
%TO.N,/CC2_EN*%
%TA.AperFunction,SMDPad,CuDef*%
G36*
G01*
X12507000Y-11844000D02*
X12507000Y-11524000D01*
G75*
G02*
X12667000Y-11364000I160000J0D01*
G01*
X13062000Y-11364000D01*
G75*
G02*
X13222000Y-11524000I0J-160000D01*
G01*
X13222000Y-11844000D01*
G75*
G02*
X13062000Y-12004000I-160000J0D01*
G01*
X12667000Y-12004000D01*
G75*
G02*
X12507000Y-11844000I0J160000D01*
G01*
G37*
%TD.AperFunction*%
%TD*%
D21*
%TO.P,SW1,2*%
%TO.N,Net-(R24-Pad1)*%
X23897500Y-17802000D03*
X23897500Y-14202000D03*
%TO.P,SW1,1*%
%TO.N,/USB_B_ID*%
X22457500Y-17802000D03*
X22457500Y-14202000D03*
%TD*%
%TO.P,U5,8*%
%TO.N,+3V3*%
%TA.AperFunction,SMDPad,CuDef*%
G36*
G01*
X19461000Y-12333000D02*
X19461000Y-12133000D01*
G75*
G02*
X19561000Y-12033000I100000J0D01*
G01*
X20986000Y-12033000D01*
G75*
G02*
X21086000Y-12133000I0J-100000D01*
G01*
X21086000Y-12333000D01*
G75*
G02*
X20986000Y-12433000I-100000J0D01*
G01*
X19561000Y-12433000D01*
G75*
G02*
X19461000Y-12333000I0J100000D01*
G01*
G37*
%TD.AperFunction*%
%TO.P,U5,7*%
%TO.N,/CC2_BUF*%
%TA.AperFunction,SMDPad,CuDef*%
G36*
G01*
X19461000Y-12983000D02*
X19461000Y-12783000D01*
G75*
G02*
X19561000Y-12683000I100000J0D01*
G01*
X20986000Y-12683000D01*
G75*
G02*
X21086000Y-12783000I0J-100000D01*
G01*
X21086000Y-12983000D01*
G75*
G02*
X20986000Y-13083000I-100000J0D01*
G01*
X19561000Y-13083000D01*
G75*
G02*
X19461000Y-12983000I0J100000D01*
G01*
G37*
%TD.AperFunction*%
%TO.P,U5,6*%
%TA.AperFunction,SMDPad,CuDef*%
G36*
G01*
X19461000Y-13633000D02*
X19461000Y-13433000D01*
G75*
G02*
X19561000Y-13333000I100000J0D01*
G01*
X20986000Y-13333000D01*
G75*
G02*
X21086000Y-13433000I0J-100000D01*
G01*
X21086000Y-13633000D01*
G75*
G02*
X20986000Y-13733000I-100000J0D01*
G01*
X19561000Y-13733000D01*
G75*
G02*
X19461000Y-13633000I0J100000D01*
G01*
G37*
%TD.AperFunction*%
%TO.P,U5,5*%
%TO.N,/CC2*%
%TA.AperFunction,SMDPad,CuDef*%
G36*
G01*
X19461000Y-14283000D02*
X19461000Y-14083000D01*
G75*
G02*
X19561000Y-13983000I100000J0D01*
G01*
X20986000Y-13983000D01*
G75*
G02*
X21086000Y-14083000I0J-100000D01*
G01*
X21086000Y-14283000D01*
G75*
G02*
X20986000Y-14383000I-100000J0D01*
G01*
X19561000Y-14383000D01*
G75*
G02*
X19461000Y-14283000I0J100000D01*
G01*
G37*
%TD.AperFunction*%
%TO.P,U5,4*%
%TO.N,GND*%
%TA.AperFunction,SMDPad,CuDef*%
G36*
G01*
X15236000Y-14283000D02*
X15236000Y-14083000D01*
G75*
G02*
X15336000Y-13983000I100000J0D01*
G01*
X16761000Y-13983000D01*
G75*
G02*
X16861000Y-14083000I0J-100000D01*
G01*
X16861000Y-14283000D01*
G75*
G02*
X16761000Y-14383000I-100000J0D01*
G01*
X15336000Y-14383000D01*
G75*
G02*
X15236000Y-14283000I0J100000D01*
G01*
G37*
%TD.AperFunction*%
%TO.P,U5,3*%
%TO.N,/CC1*%
%TA.AperFunction,SMDPad,CuDef*%
G36*
G01*
X15236000Y-13633000D02*
X15236000Y-13433000D01*
G75*
G02*
X15336000Y-13333000I100000J0D01*
G01*
X16761000Y-13333000D01*
G75*
G02*
X16861000Y-13433000I0J-100000D01*
G01*
X16861000Y-13633000D01*
G75*
G02*
X16761000Y-13733000I-100000J0D01*
G01*
X15336000Y-13733000D01*
G75*
G02*
X15236000Y-13633000I0J100000D01*
G01*
G37*
%TD.AperFunction*%
%TO.P,U5,2*%
%TO.N,/CC1_BUF*%
%TA.AperFunction,SMDPad,CuDef*%
G36*
G01*
X15236000Y-12983000D02*
X15236000Y-12783000D01*
G75*
G02*
X15336000Y-12683000I100000J0D01*
G01*
X16761000Y-12683000D01*
G75*
G02*
X16861000Y-12783000I0J-100000D01*
G01*
X16861000Y-12983000D01*
G75*
G02*
X16761000Y-13083000I-100000J0D01*
G01*
X15336000Y-13083000D01*
G75*
G02*
X15236000Y-12983000I0J100000D01*
G01*
G37*
%TD.AperFunction*%
%TO.P,U5,1*%
%TA.AperFunction,SMDPad,CuDef*%
G36*
G01*
X15236000Y-12333000D02*
X15236000Y-12133000D01*
G75*
G02*
X15336000Y-12033000I100000J0D01*
G01*
X16761000Y-12033000D01*
G75*
G02*
X16861000Y-12133000I0J-100000D01*
G01*
X16861000Y-12333000D01*
G75*
G02*
X16761000Y-12433000I-100000J0D01*
G01*
X15336000Y-12433000D01*
G75*
G02*
X15236000Y-12333000I0J100000D01*
G01*
G37*
%TD.AperFunction*%
%TD*%
%TO.P,R23,2*%
%TO.N,Net-(Q2-Pad3)*%
%TA.AperFunction,SMDPad,CuDef*%
G36*
G01*
X12794000Y-13575000D02*
X13114000Y-13575000D01*
G75*
G02*
X13274000Y-13735000I0J-160000D01*
G01*
X13274000Y-14130000D01*
G75*
G02*
X13114000Y-14290000I-160000J0D01*
G01*
X12794000Y-14290000D01*
G75*
G02*
X12634000Y-14130000I0J160000D01*
G01*
X12634000Y-13735000D01*
G75*
G02*
X12794000Y-13575000I160000J0D01*
G01*
G37*
%TD.AperFunction*%
%TO.P,R23,1*%
%TO.N,/CC2*%
%TA.AperFunction,SMDPad,CuDef*%
G36*
G01*
X12794000Y-12380000D02*
X13114000Y-12380000D01*
G75*
G02*
X13274000Y-12540000I0J-160000D01*
G01*
X13274000Y-12935000D01*
G75*
G02*
X13114000Y-13095000I-160000J0D01*
G01*
X12794000Y-13095000D01*
G75*
G02*
X12634000Y-12935000I0J160000D01*
G01*
X12634000Y-12540000D01*
G75*
G02*
X12794000Y-12380000I160000J0D01*
G01*
G37*
%TD.AperFunction*%
%TD*%
%TO.P,R22,2*%
%TO.N,+3V3*%
%TA.AperFunction,SMDPad,CuDef*%
G36*
G01*
X10174000Y-16477000D02*
X10174000Y-16797000D01*
G75*
G02*
X10014000Y-16957000I-160000J0D01*
G01*
X9619000Y-16957000D01*
G75*
G02*
X9459000Y-16797000I0J160000D01*
G01*
X9459000Y-16477000D01*
G75*
G02*
X9619000Y-16317000I160000J0D01*
G01*
X10014000Y-16317000D01*
G75*
G02*
X10174000Y-16477000I0J-160000D01*
G01*
G37*
%TD.AperFunction*%
%TO.P,R22,1*%
%TO.N,Net-(Q2-Pad6)*%
%TA.AperFunction,SMDPad,CuDef*%
G36*
G01*
X11369000Y-16477000D02*
X11369000Y-16797000D01*
G75*
G02*
X11209000Y-16957000I-160000J0D01*
G01*
X10814000Y-16957000D01*
G75*
G02*
X10654000Y-16797000I0J160000D01*
G01*
X10654000Y-16477000D01*
G75*
G02*
X10814000Y-16317000I160000J0D01*
G01*
X11209000Y-16317000D01*
G75*
G02*
X11369000Y-16477000I0J-160000D01*
G01*
G37*
%TD.AperFunction*%
%TD*%
%TO.P,R21,2*%
%TO.N,/CC2*%
%TA.AperFunction,SMDPad,CuDef*%
G36*
G01*
X18318500Y-22084000D02*
X18638500Y-22084000D01*
G75*
G02*
X18798500Y-22244000I0J-160000D01*
G01*
X18798500Y-22639000D01*
G75*
G02*
X18638500Y-22799000I-160000J0D01*
G01*
X18318500Y-22799000D01*
G75*
G02*
X18158500Y-22639000I0J160000D01*
G01*
X18158500Y-22244000D01*
G75*
G02*
X18318500Y-22084000I160000J0D01*
G01*
G37*
%TD.AperFunction*%
%TO.P,R21,1*%
%TO.N,/CC2_RPUSB*%
%TA.AperFunction,SMDPad,CuDef*%
G36*
G01*
X18318500Y-20889000D02*
X18638500Y-20889000D01*
G75*
G02*
X18798500Y-21049000I0J-160000D01*
G01*
X18798500Y-21444000D01*
G75*
G02*
X18638500Y-21604000I-160000J0D01*
G01*
X18318500Y-21604000D01*
G75*
G02*
X18158500Y-21444000I0J160000D01*
G01*
X18158500Y-21049000D01*
G75*
G02*
X18318500Y-20889000I160000J0D01*
G01*
G37*
%TD.AperFunction*%
%TD*%
%TO.P,R20,2*%
%TO.N,/CC2*%
%TA.AperFunction,SMDPad,CuDef*%
G36*
G01*
X17302500Y-22084000D02*
X17622500Y-22084000D01*
G75*
G02*
X17782500Y-22244000I0J-160000D01*
G01*
X17782500Y-22639000D01*
G75*
G02*
X17622500Y-22799000I-160000J0D01*
G01*
X17302500Y-22799000D01*
G75*
G02*
X17142500Y-22639000I0J160000D01*
G01*
X17142500Y-22244000D01*
G75*
G02*
X17302500Y-22084000I160000J0D01*
G01*
G37*
%TD.AperFunction*%
%TO.P,R20,1*%
%TO.N,/CC2_RD*%
%TA.AperFunction,SMDPad,CuDef*%
G36*
G01*
X17302500Y-20889000D02*
X17622500Y-20889000D01*
G75*
G02*
X17782500Y-21049000I0J-160000D01*
G01*
X17782500Y-21444000D01*
G75*
G02*
X17622500Y-21604000I-160000J0D01*
G01*
X17302500Y-21604000D01*
G75*
G02*
X17142500Y-21444000I0J160000D01*
G01*
X17142500Y-21049000D01*
G75*
G02*
X17302500Y-20889000I160000J0D01*
G01*
G37*
%TD.AperFunction*%
%TD*%
%TO.P,R19,2*%
%TO.N,/CC2*%
%TA.AperFunction,SMDPad,CuDef*%
G36*
G01*
X16286500Y-22084000D02*
X16606500Y-22084000D01*
G75*
G02*
X16766500Y-22244000I0J-160000D01*
G01*
X16766500Y-22639000D01*
G75*
G02*
X16606500Y-22799000I-160000J0D01*
G01*
X16286500Y-22799000D01*
G75*
G02*
X16126500Y-22639000I0J160000D01*
G01*
X16126500Y-22244000D01*
G75*
G02*
X16286500Y-22084000I160000J0D01*
G01*
G37*
%TD.AperFunction*%
%TO.P,R19,1*%
%TO.N,/CC2_RP1A5*%
%TA.AperFunction,SMDPad,CuDef*%
G36*
G01*
X16286500Y-20889000D02*
X16606500Y-20889000D01*
G75*
G02*
X16766500Y-21049000I0J-160000D01*
G01*
X16766500Y-21444000D01*
G75*
G02*
X16606500Y-21604000I-160000J0D01*
G01*
X16286500Y-21604000D01*
G75*
G02*
X16126500Y-21444000I0J160000D01*
G01*
X16126500Y-21049000D01*
G75*
G02*
X16286500Y-20889000I160000J0D01*
G01*
G37*
%TD.AperFunction*%
%TD*%
%TO.P,R18,2*%
%TO.N,/CC2*%
%TA.AperFunction,SMDPad,CuDef*%
G36*
G01*
X15270500Y-22084000D02*
X15590500Y-22084000D01*
G75*
G02*
X15750500Y-22244000I0J-160000D01*
G01*
X15750500Y-22639000D01*
G75*
G02*
X15590500Y-22799000I-160000J0D01*
G01*
X15270500Y-22799000D01*
G75*
G02*
X15110500Y-22639000I0J160000D01*
G01*
X15110500Y-22244000D01*
G75*
G02*
X15270500Y-22084000I160000J0D01*
G01*
G37*
%TD.AperFunction*%
%TO.P,R18,1*%
%TO.N,/CC2_RA*%
%TA.AperFunction,SMDPad,CuDef*%
G36*
G01*
X15270500Y-20889000D02*
X15590500Y-20889000D01*
G75*
G02*
X15750500Y-21049000I0J-160000D01*
G01*
X15750500Y-21444000D01*
G75*
G02*
X15590500Y-21604000I-160000J0D01*
G01*
X15270500Y-21604000D01*
G75*
G02*
X15110500Y-21444000I0J160000D01*
G01*
X15110500Y-21049000D01*
G75*
G02*
X15270500Y-20889000I160000J0D01*
G01*
G37*
%TD.AperFunction*%
%TD*%
%TO.P,R17,2*%
%TO.N,/CC2*%
%TA.AperFunction,SMDPad,CuDef*%
G36*
G01*
X14254500Y-22084000D02*
X14574500Y-22084000D01*
G75*
G02*
X14734500Y-22244000I0J-160000D01*
G01*
X14734500Y-22639000D01*
G75*
G02*
X14574500Y-22799000I-160000J0D01*
G01*
X14254500Y-22799000D01*
G75*
G02*
X14094500Y-22639000I0J160000D01*
G01*
X14094500Y-22244000D01*
G75*
G02*
X14254500Y-22084000I160000J0D01*
G01*
G37*
%TD.AperFunction*%
%TO.P,R17,1*%
%TO.N,/CC2_RP3A0*%
%TA.AperFunction,SMDPad,CuDef*%
G36*
G01*
X14254500Y-20889000D02*
X14574500Y-20889000D01*
G75*
G02*
X14734500Y-21049000I0J-160000D01*
G01*
X14734500Y-21444000D01*
G75*
G02*
X14574500Y-21604000I-160000J0D01*
G01*
X14254500Y-21604000D01*
G75*
G02*
X14094500Y-21444000I0J160000D01*
G01*
X14094500Y-21049000D01*
G75*
G02*
X14254500Y-20889000I160000J0D01*
G01*
G37*
%TD.AperFunction*%
%TD*%
%TO.P,R15,2*%
%TO.N,Net-(Q1-Pad3)*%
%TA.AperFunction,SMDPad,CuDef*%
G36*
G01*
X3332500Y-13956000D02*
X3652500Y-13956000D01*
G75*
G02*
X3812500Y-14116000I0J-160000D01*
G01*
X3812500Y-14511000D01*
G75*
G02*
X3652500Y-14671000I-160000J0D01*
G01*
X3332500Y-14671000D01*
G75*
G02*
X3172500Y-14511000I0J160000D01*
G01*
X3172500Y-14116000D01*
G75*
G02*
X3332500Y-13956000I160000J0D01*
G01*
G37*
%TD.AperFunction*%
%TO.P,R15,1*%
%TO.N,/CC1*%
%TA.AperFunction,SMDPad,CuDef*%
G36*
G01*
X3332500Y-12761000D02*
X3652500Y-12761000D01*
G75*
G02*
X3812500Y-12921000I0J-160000D01*
G01*
X3812500Y-13316000D01*
G75*
G02*
X3652500Y-13476000I-160000J0D01*
G01*
X3332500Y-13476000D01*
G75*
G02*
X3172500Y-13316000I0J160000D01*
G01*
X3172500Y-12921000D01*
G75*
G02*
X3332500Y-12761000I160000J0D01*
G01*
G37*
%TD.AperFunction*%
%TD*%
%TO.P,R13,2*%
%TO.N,/CC1*%
%TA.AperFunction,SMDPad,CuDef*%
G36*
G01*
X4668500Y-13476000D02*
X4348500Y-13476000D01*
G75*
G02*
X4188500Y-13316000I0J160000D01*
G01*
X4188500Y-12921000D01*
G75*
G02*
X4348500Y-12761000I160000J0D01*
G01*
X4668500Y-12761000D01*
G75*
G02*
X4828500Y-12921000I0J-160000D01*
G01*
X4828500Y-13316000D01*
G75*
G02*
X4668500Y-13476000I-160000J0D01*
G01*
G37*
%TD.AperFunction*%
%TO.P,R13,1*%
%TO.N,/CC1_RPUSB*%
%TA.AperFunction,SMDPad,CuDef*%
G36*
G01*
X4668500Y-14671000D02*
X4348500Y-14671000D01*
G75*
G02*
X4188500Y-14511000I0J160000D01*
G01*
X4188500Y-14116000D01*
G75*
G02*
X4348500Y-13956000I160000J0D01*
G01*
X4668500Y-13956000D01*
G75*
G02*
X4828500Y-14116000I0J-160000D01*
G01*
X4828500Y-14511000D01*
G75*
G02*
X4668500Y-14671000I-160000J0D01*
G01*
G37*
%TD.AperFunction*%
%TD*%
%TO.P,R12,2*%
%TO.N,/CC1*%
%TA.AperFunction,SMDPad,CuDef*%
G36*
G01*
X5684500Y-13476000D02*
X5364500Y-13476000D01*
G75*
G02*
X5204500Y-13316000I0J160000D01*
G01*
X5204500Y-12921000D01*
G75*
G02*
X5364500Y-12761000I160000J0D01*
G01*
X5684500Y-12761000D01*
G75*
G02*
X5844500Y-12921000I0J-160000D01*
G01*
X5844500Y-13316000D01*
G75*
G02*
X5684500Y-13476000I-160000J0D01*
G01*
G37*
%TD.AperFunction*%
%TO.P,R12,1*%
%TO.N,/CC1_RD*%
%TA.AperFunction,SMDPad,CuDef*%
G36*
G01*
X5684500Y-14671000D02*
X5364500Y-14671000D01*
G75*
G02*
X5204500Y-14511000I0J160000D01*
G01*
X5204500Y-14116000D01*
G75*
G02*
X5364500Y-13956000I160000J0D01*
G01*
X5684500Y-13956000D01*
G75*
G02*
X5844500Y-14116000I0J-160000D01*
G01*
X5844500Y-14511000D01*
G75*
G02*
X5684500Y-14671000I-160000J0D01*
G01*
G37*
%TD.AperFunction*%
%TD*%
%TO.P,R11,2*%
%TO.N,/CC1*%
%TA.AperFunction,SMDPad,CuDef*%
G36*
G01*
X6700500Y-13476000D02*
X6380500Y-13476000D01*
G75*
G02*
X6220500Y-13316000I0J160000D01*
G01*
X6220500Y-12921000D01*
G75*
G02*
X6380500Y-12761000I160000J0D01*
G01*
X6700500Y-12761000D01*
G75*
G02*
X6860500Y-12921000I0J-160000D01*
G01*
X6860500Y-13316000D01*
G75*
G02*
X6700500Y-13476000I-160000J0D01*
G01*
G37*
%TD.AperFunction*%
%TO.P,R11,1*%
%TO.N,/CC1_RP1A5*%
%TA.AperFunction,SMDPad,CuDef*%
G36*
G01*
X6700500Y-14671000D02*
X6380500Y-14671000D01*
G75*
G02*
X6220500Y-14511000I0J160000D01*
G01*
X6220500Y-14116000D01*
G75*
G02*
X6380500Y-13956000I160000J0D01*
G01*
X6700500Y-13956000D01*
G75*
G02*
X6860500Y-14116000I0J-160000D01*
G01*
X6860500Y-14511000D01*
G75*
G02*
X6700500Y-14671000I-160000J0D01*
G01*
G37*
%TD.AperFunction*%
%TD*%
%TO.P,R10,2*%
%TO.N,/CC1*%
%TA.AperFunction,SMDPad,CuDef*%
G36*
G01*
X7716500Y-13476000D02*
X7396500Y-13476000D01*
G75*
G02*
X7236500Y-13316000I0J160000D01*
G01*
X7236500Y-12921000D01*
G75*
G02*
X7396500Y-12761000I160000J0D01*
G01*
X7716500Y-12761000D01*
G75*
G02*
X7876500Y-12921000I0J-160000D01*
G01*
X7876500Y-13316000D01*
G75*
G02*
X7716500Y-13476000I-160000J0D01*
G01*
G37*
%TD.AperFunction*%
%TO.P,R10,1*%
%TO.N,/CC1_RA*%
%TA.AperFunction,SMDPad,CuDef*%
G36*
G01*
X7716500Y-14671000D02*
X7396500Y-14671000D01*
G75*
G02*
X7236500Y-14511000I0J160000D01*
G01*
X7236500Y-14116000D01*
G75*
G02*
X7396500Y-13956000I160000J0D01*
G01*
X7716500Y-13956000D01*
G75*
G02*
X7876500Y-14116000I0J-160000D01*
G01*
X7876500Y-14511000D01*
G75*
G02*
X7716500Y-14671000I-160000J0D01*
G01*
G37*
%TD.AperFunction*%
%TD*%
%TO.P,R9,2*%
%TO.N,/CC1*%
%TA.AperFunction,SMDPad,CuDef*%
G36*
G01*
X8732500Y-13476000D02*
X8412500Y-13476000D01*
G75*
G02*
X8252500Y-13316000I0J160000D01*
G01*
X8252500Y-12921000D01*
G75*
G02*
X8412500Y-12761000I160000J0D01*
G01*
X8732500Y-12761000D01*
G75*
G02*
X8892500Y-12921000I0J-160000D01*
G01*
X8892500Y-13316000D01*
G75*
G02*
X8732500Y-13476000I-160000J0D01*
G01*
G37*
%TD.AperFunction*%
%TO.P,R9,1*%
%TO.N,/CC1_RP3A0*%
%TA.AperFunction,SMDPad,CuDef*%
G36*
G01*
X8732500Y-14671000D02*
X8412500Y-14671000D01*
G75*
G02*
X8252500Y-14511000I0J160000D01*
G01*
X8252500Y-14116000D01*
G75*
G02*
X8412500Y-13956000I160000J0D01*
G01*
X8732500Y-13956000D01*
G75*
G02*
X8892500Y-14116000I0J-160000D01*
G01*
X8892500Y-14511000D01*
G75*
G02*
X8732500Y-14671000I-160000J0D01*
G01*
G37*
%TD.AperFunction*%
%TD*%
%TO.P,R8,2*%
%TO.N,GND*%
%TA.AperFunction,SMDPad,CuDef*%
G36*
G01*
X7697500Y-11841500D02*
X7697500Y-12161500D01*
G75*
G02*
X7537500Y-12321500I-160000J0D01*
G01*
X7142500Y-12321500D01*
G75*
G02*
X6982500Y-12161500I0J160000D01*
G01*
X6982500Y-11841500D01*
G75*
G02*
X7142500Y-11681500I160000J0D01*
G01*
X7537500Y-11681500D01*
G75*
G02*
X7697500Y-11841500I0J-160000D01*
G01*
G37*
%TD.AperFunction*%
%TO.P,R8,1*%
%TO.N,/CC1_EN*%
%TA.AperFunction,SMDPad,CuDef*%
G36*
G01*
X8892500Y-11841500D02*
X8892500Y-12161500D01*
G75*
G02*
X8732500Y-12321500I-160000J0D01*
G01*
X8337500Y-12321500D01*
G75*
G02*
X8177500Y-12161500I0J160000D01*
G01*
X8177500Y-11841500D01*
G75*
G02*
X8337500Y-11681500I160000J0D01*
G01*
X8732500Y-11681500D01*
G75*
G02*
X8892500Y-11841500I0J-160000D01*
G01*
G37*
%TD.AperFunction*%
%TD*%
%TO.P,R7,2*%
%TO.N,/LED_B_L*%
%TA.AperFunction,SMDPad,CuDef*%
G36*
G01*
X19318000Y-24097000D02*
X19318000Y-24417000D01*
G75*
G02*
X19158000Y-24577000I-160000J0D01*
G01*
X18763000Y-24577000D01*
G75*
G02*
X18603000Y-24417000I0J160000D01*
G01*
X18603000Y-24097000D01*
G75*
G02*
X18763000Y-23937000I160000J0D01*
G01*
X19158000Y-23937000D01*
G75*
G02*
X19318000Y-24097000I0J-160000D01*
G01*
G37*
%TD.AperFunction*%
%TO.P,R7,1*%
%TO.N,Net-(DS2-Pad3)*%
%TA.AperFunction,SMDPad,CuDef*%
G36*
G01*
X20513000Y-24097000D02*
X20513000Y-24417000D01*
G75*
G02*
X20353000Y-24577000I-160000J0D01*
G01*
X19958000Y-24577000D01*
G75*
G02*
X19798000Y-24417000I0J160000D01*
G01*
X19798000Y-24097000D01*
G75*
G02*
X19958000Y-23937000I160000J0D01*
G01*
X20353000Y-23937000D01*
G75*
G02*
X20513000Y-24097000I0J-160000D01*
G01*
G37*
%TD.AperFunction*%
%TD*%
%TO.P,R6,2*%
%TO.N,/LED_G_L*%
%TA.AperFunction,SMDPad,CuDef*%
G36*
G01*
X22829500Y-20207000D02*
X22509500Y-20207000D01*
G75*
G02*
X22349500Y-20047000I0J160000D01*
G01*
X22349500Y-19652000D01*
G75*
G02*
X22509500Y-19492000I160000J0D01*
G01*
X22829500Y-19492000D01*
G75*
G02*
X22989500Y-19652000I0J-160000D01*
G01*
X22989500Y-20047000D01*
G75*
G02*
X22829500Y-20207000I-160000J0D01*
G01*
G37*
%TD.AperFunction*%
%TO.P,R6,1*%
%TO.N,Net-(DS2-Pad4)*%
%TA.AperFunction,SMDPad,CuDef*%
G36*
G01*
X22829500Y-21402000D02*
X22509500Y-21402000D01*
G75*
G02*
X22349500Y-21242000I0J160000D01*
G01*
X22349500Y-20847000D01*
G75*
G02*
X22509500Y-20687000I160000J0D01*
G01*
X22829500Y-20687000D01*
G75*
G02*
X22989500Y-20847000I0J-160000D01*
G01*
X22989500Y-21242000D01*
G75*
G02*
X22829500Y-21402000I-160000J0D01*
G01*
G37*
%TD.AperFunction*%
%TD*%
%TO.P,R1,2*%
%TO.N,/BOOT*%
%TA.AperFunction,SMDPad,CuDef*%
G36*
G01*
X19845000Y-19635500D02*
X19525000Y-19635500D01*
G75*
G02*
X19365000Y-19475500I0J160000D01*
G01*
X19365000Y-19080500D01*
G75*
G02*
X19525000Y-18920500I160000J0D01*
G01*
X19845000Y-18920500D01*
G75*
G02*
X20005000Y-19080500I0J-160000D01*
G01*
X20005000Y-19475500D01*
G75*
G02*
X19845000Y-19635500I-160000J0D01*
G01*
G37*
%TD.AperFunction*%
%TO.P,R1,1*%
%TO.N,+3V3*%
%TA.AperFunction,SMDPad,CuDef*%
G36*
G01*
X19845000Y-20830500D02*
X19525000Y-20830500D01*
G75*
G02*
X19365000Y-20670500I0J160000D01*
G01*
X19365000Y-20275500D01*
G75*
G02*
X19525000Y-20115500I160000J0D01*
G01*
X19845000Y-20115500D01*
G75*
G02*
X20005000Y-20275500I0J-160000D01*
G01*
X20005000Y-20670500D01*
G75*
G02*
X19845000Y-20830500I-160000J0D01*
G01*
G37*
%TD.AperFunction*%
%TD*%
D20*
%TO.P,Q2,6*%
%TO.N,Net-(Q2-Pad6)*%
X9781500Y-15318500D03*
%TO.P,Q2,4*%
%TO.N,GND*%
X9781500Y-14018500D03*
%TO.P,Q2,2*%
%TO.N,/CC2_TX_DATA*%
X11681500Y-14668500D03*
%TO.P,Q2,5*%
%TO.N,/CC2_TX_EN*%
X9781500Y-14668500D03*
%TO.P,Q2,3*%
%TO.N,Net-(Q2-Pad3)*%
X11681500Y-14018500D03*
%TO.P,Q2,1*%
%TO.N,/CC2*%
X11681500Y-15318500D03*
%TD*%
D22*
%TO.P,Q1,6*%
%TO.N,Net-(Q1-Pad6)*%
X2174000Y-15174000D03*
%TO.P,Q1,4*%
%TO.N,GND*%
X874000Y-15174000D03*
%TO.P,Q1,2*%
%TO.N,/CC1_TX_DATA*%
X1524000Y-13274000D03*
%TO.P,Q1,5*%
%TO.N,/CC1_TX_EN*%
X1524000Y-15174000D03*
%TO.P,Q1,3*%
%TO.N,Net-(Q1-Pad3)*%
X874000Y-13274000D03*
%TO.P,Q1,1*%
%TO.N,/CC1*%
X2174000Y-13274000D03*
%TD*%
%TO.P,FB2,2*%
%TO.N,Net-(C5-Pad1)*%
%TA.AperFunction,SMDPad,CuDef*%
G36*
G01*
X16065000Y-19552900D02*
X16065000Y-19232900D01*
G75*
G02*
X16225000Y-19072900I160000J0D01*
G01*
X16670000Y-19072900D01*
G75*
G02*
X16830000Y-19232900I0J-160000D01*
G01*
X16830000Y-19552900D01*
G75*
G02*
X16670000Y-19712900I-160000J0D01*
G01*
X16225000Y-19712900D01*
G75*
G02*
X16065000Y-19552900I0J160000D01*
G01*
G37*
%TD.AperFunction*%
%TO.P,FB2,1*%
%TO.N,+3V3*%
%TA.AperFunction,SMDPad,CuDef*%
G36*
G01*
X14920000Y-19552900D02*
X14920000Y-19232900D01*
G75*
G02*
X15080000Y-19072900I160000J0D01*
G01*
X15525000Y-19072900D01*
G75*
G02*
X15685000Y-19232900I0J-160000D01*
G01*
X15685000Y-19552900D01*
G75*
G02*
X15525000Y-19712900I-160000J0D01*
G01*
X15080000Y-19712900D01*
G75*
G02*
X14920000Y-19552900I0J160000D01*
G01*
G37*
%TD.AperFunction*%
%TD*%
D23*
%TO.P,DS2,2*%
%TO.N,+5V*%
X24237000Y-22795000D03*
%TO.P,DS2,3*%
%TO.N,Net-(DS2-Pad3)*%
X21737000Y-22795000D03*
%TO.P,DS2,4*%
%TO.N,Net-(DS2-Pad4)*%
X21737000Y-24195000D03*
%TO.P,DS2,1*%
%TO.N,Net-(DS2-Pad1)*%
X24237000Y-24195000D03*
%TD*%
%TO.P,C6,2*%
%TO.N,GND*%
%TA.AperFunction,SMDPad,CuDef*%
G36*
G01*
X17617500Y-17516500D02*
X17307500Y-17516500D01*
G75*
G02*
X17152500Y-17361500I0J155000D01*
G01*
X17152500Y-16936500D01*
G75*
G02*
X17307500Y-16781500I155000J0D01*
G01*
X17617500Y-16781500D01*
G75*
G02*
X17772500Y-16936500I0J-155000D01*
G01*
X17772500Y-17361500D01*
G75*
G02*
X17617500Y-17516500I-155000J0D01*
G01*
G37*
%TD.AperFunction*%
%TO.P,C6,1*%
%TO.N,Net-(C5-Pad1)*%
%TA.AperFunction,SMDPad,CuDef*%
G36*
G01*
X17617500Y-18651500D02*
X17307500Y-18651500D01*
G75*
G02*
X17152500Y-18496500I0J155000D01*
G01*
X17152500Y-18071500D01*
G75*
G02*
X17307500Y-17916500I155000J0D01*
G01*
X17617500Y-17916500D01*
G75*
G02*
X17772500Y-18071500I0J-155000D01*
G01*
X17772500Y-18496500D01*
G75*
G02*
X17617500Y-18651500I-155000J0D01*
G01*
G37*
%TD.AperFunction*%
%TD*%
%TO.P,C5,2*%
%TO.N,GND*%
%TA.AperFunction,SMDPad,CuDef*%
G36*
G01*
X16601500Y-17516500D02*
X16291500Y-17516500D01*
G75*
G02*
X16136500Y-17361500I0J155000D01*
G01*
X16136500Y-16936500D01*
G75*
G02*
X16291500Y-16781500I155000J0D01*
G01*
X16601500Y-16781500D01*
G75*
G02*
X16756500Y-16936500I0J-155000D01*
G01*
X16756500Y-17361500D01*
G75*
G02*
X16601500Y-17516500I-155000J0D01*
G01*
G37*
%TD.AperFunction*%
%TO.P,C5,1*%
%TO.N,Net-(C5-Pad1)*%
%TA.AperFunction,SMDPad,CuDef*%
G36*
G01*
X16601500Y-18651500D02*
X16291500Y-18651500D01*
G75*
G02*
X16136500Y-18496500I0J155000D01*
G01*
X16136500Y-18071500D01*
G75*
G02*
X16291500Y-17916500I155000J0D01*
G01*
X16601500Y-17916500D01*
G75*
G02*
X16756500Y-18071500I0J-155000D01*
G01*
X16756500Y-18496500D01*
G75*
G02*
X16601500Y-18651500I-155000J0D01*
G01*
G37*
%TD.AperFunction*%
%TD*%
D24*
%TO.N,GND*%
X13462000Y-20447000D03*
X12192000Y-4699000D03*
X635000Y-698500D03*
D25*
X6477000Y-10414000D03*
X6477000Y-9779000D03*
X6477000Y-2921000D03*
X6477000Y-2286000D03*
D24*
X5334000Y-17881600D03*
X13412792Y-16961149D03*
D25*
X19177000Y-14732000D03*
D24*
X8890000Y-15240000D03*
X4673600Y-17881600D03*
X571500Y-12001500D03*
X22288500Y-889000D03*
X20320000Y-3492500D03*
X19939000Y-3048000D03*
X19431000Y-10414000D03*
X20256500Y-9271000D03*
X19558000Y-11303000D03*
X24257000Y-12636500D03*
X23558500Y-1016000D03*
X5715000Y-11303000D03*
X3873500Y-12001500D03*
X3873500Y-698500D03*
X13906500Y-8102590D03*
X14922500Y-4445000D03*
X5715000Y-1460500D03*
X24257000Y-11620500D03*
X19514320Y-23067117D03*
X21526500Y-21399500D03*
X16256000Y-15621000D03*
%TO.N,+5V*%
X23241000Y-23368000D03*
%TO.N,+3V3*%
X5588000Y-16967200D03*
X11684000Y-7239000D03*
X12442000Y-22102000D03*
X12700000Y-7874000D03*
X19685000Y-21336000D03*
X5588000Y-16154400D03*
X9017000Y-16637000D03*
X12206419Y-3951419D03*
D25*
X14993294Y-5261560D03*
D24*
X8890000Y-10350500D03*
X22415500Y-11811000D03*
X14859000Y-17843500D03*
%TO.N,Net-(D1-Pad1)*%
X3491500Y-21959300D03*
D25*
%TO.N,/CC1_RECEP*%
X10033000Y-8509000D03*
X17399000Y-5588000D03*
X9271000Y-5524500D03*
X11049000Y-10350500D03*
D24*
%TO.N,/CC2_RECEP*%
X9144000Y-7239000D03*
D25*
X10414000Y-10350500D03*
%TO.N,/CC1_TX_DATA*%
X2794000Y-13716000D03*
X4000500Y-15113000D03*
%TO.N,/CC1_TX_EN*%
X10414000Y-20701000D03*
%TO.N,/CC2_TX_DATA*%
X18391125Y-15914625D03*
%TO.N,/CC2_TX_EN*%
X14132613Y-15704645D03*
%TO.N,/CC2*%
X10668000Y-13716000D03*
X19939000Y-14732000D03*
X10795000Y-12700000D03*
%TO.N,/CC1_EN*%
X9337588Y-13053528D03*
X17780000Y-15557500D03*
%TO.N,/CC2_EN*%
X13843000Y-12827000D03*
X19050000Y-13589000D03*
%TO.N,/BOOT*%
X21526500Y-18796000D03*
X18516599Y-19558000D03*
%TO.N,/LED_G_L*%
X22796500Y-19240500D03*
%TO.N,/LED_B_L*%
X18923000Y-23622000D03*
%TO.N,/CC1_RP3A0*%
X14605000Y-16129000D03*
%TO.N,/CC1_RA*%
X7576582Y-15013987D03*
%TO.N,/CC1_RP1A5*%
X6893953Y-14999838D03*
%TO.N,/CC1_RD*%
X14010642Y-20035519D03*
%TO.N,/CC1_RPUSB*%
X10414000Y-20002500D03*
%TO.N,/CC2_RP3A0*%
X14351000Y-20574000D03*
%TO.N,/CC2_RA*%
X15621000Y-20574000D03*
%TO.N,/CC2_RP1A5*%
X16793347Y-20574000D03*
%TO.N,/CC2_RD*%
X17653000Y-20574000D03*
%TO.N,/CC2_RPUSB*%
X18415000Y-20574000D03*
%TO.N,/INA_SCL*%
X12954000Y-5461000D03*
X13307848Y-19323564D03*
X13462000Y-10350500D03*
%TO.N,/INA_SDA*%
X10714245Y-17733755D03*
X14097000Y-4572000D03*
X12826997Y-10350500D03*
X14732000Y-10350500D03*
%TO.N,/VBUS_ALERT_L*%
X15367000Y-10350500D03*
X21209000Y-17970500D03*
%TO.N,/VCONN_ALERT_L*%
X21209000Y-17335500D03*
X14351000Y-3937000D03*
X14097000Y-10350500D03*
%TO.N,/CC2_BUF*%
X21463000Y-13081000D03*
%TO.N,/CC1_BUF*%
X19050000Y-12827000D03*
D24*
%TO.N,/VBUS_PLUG*%
X17907000Y-3746500D03*
X17399000Y-3429000D03*
X17399000Y-4064000D03*
X17907000Y-3175000D03*
X19240500Y-7683500D03*
X18923000Y-8128000D03*
X18669000Y-7683500D03*
X17907000Y-4318000D03*
%TO.N,/CC2_PLUG*%
X17843500Y-7747000D03*
D25*
X12992474Y-4699000D03*
X13017500Y-7239000D03*
D24*
%TO.N,/VBUS_RECEP*%
X8636000Y-3492500D03*
X8636000Y-4064000D03*
X9144000Y-3238500D03*
X9144000Y-3810000D03*
X7206621Y-7784100D03*
X7585260Y-8162740D03*
X9144000Y-4381500D03*
X8064500Y-8445500D03*
D25*
%TO.N,/SBU2*%
X17335500Y-4889500D03*
X8763000Y-4953000D03*
%TO.N,/SBU1*%
X13850496Y-7201516D03*
X11747500Y-8382000D03*
D26*
%TO.N,/USBC_D-*%
X6784653Y-6273790D03*
%TO.N,/USBC_D+*%
X7350212Y-6007090D03*
D25*
%TO.N,/USB_B_D+*%
X14122400Y-23520400D03*
%TO.N,/USB_B_D-*%
X14478000Y-24066500D03*
%TO.N,/TX_CLK*%
X21335742Y-16370299D03*
X10287000Y-15875000D03*
%TO.N,Net-(DS2-Pad1)*%
X24965601Y-21706899D03*
D24*
%TO.N,Net-(C5-Pad1)*%
X17018000Y-15621000D03*
D25*
%TO.N,/USB_B_ID*%
X22923500Y-16637000D03*
%TD*%
D27*
%TO.N,GND*%
X9781500Y-14018500D02*
X9403578Y-14018500D01*
X9403578Y-14018500D02*
X9177099Y-14244979D01*
D28*
X14059500Y-11684000D02*
X14732000Y-11684000D01*
D27*
X9177099Y-14244979D02*
X9177099Y-14952901D01*
D28*
X14732000Y-11684000D02*
X14986000Y-11430000D01*
D27*
X9177099Y-14952901D02*
X8890000Y-15240000D01*
D29*
X874000Y-15174000D02*
X874000Y-15572500D01*
D28*
X14986000Y-11430000D02*
X18415000Y-11430000D01*
D29*
X874000Y-15572500D02*
X571500Y-15875000D01*
X23909000Y-1400000D02*
X23398000Y-889000D01*
X23398000Y-889000D02*
X20764500Y-889000D01*
D27*
X5675000Y-3600000D02*
X6115500Y-3600000D01*
X6477000Y-3238500D02*
X6477000Y-2921000D01*
X6115500Y-3600000D02*
X6477000Y-3238500D01*
X6477000Y-2921000D02*
X6477000Y-2286000D01*
X6477000Y-2286000D02*
X5989000Y-2286000D01*
X6477000Y-2921000D02*
X5996000Y-2921000D01*
X6477000Y-2286000D02*
X6477000Y-1841500D01*
X5715000Y-1079500D02*
X5080000Y-1079500D01*
X6477000Y-1841500D02*
X5715000Y-1079500D01*
X5675000Y-9100000D02*
X6115500Y-9100000D01*
X6477000Y-9461500D02*
X6477000Y-9779000D01*
X6115500Y-9100000D02*
X6477000Y-9461500D01*
X6477000Y-9779000D02*
X5996000Y-9779000D01*
X6477000Y-10414000D02*
X5989000Y-10414000D01*
X6477000Y-9779000D02*
X6477000Y-10414000D01*
D29*
X20965000Y-2523990D02*
X21148990Y-2340000D01*
X20965000Y-3525000D02*
X20965000Y-2523990D01*
D27*
X20965000Y-9175000D02*
X20225500Y-9175000D01*
X20225500Y-9175000D02*
X19621500Y-9779000D01*
D29*
X20965000Y-10176010D02*
X21148990Y-10360000D01*
X20965000Y-9175000D02*
X20965000Y-10176010D01*
X16197500Y-4613000D02*
X15090500Y-4613000D01*
X15090500Y-4613000D02*
X14922500Y-4445000D01*
D28*
X14930482Y-5913000D02*
X16197500Y-5913000D01*
X14485170Y-5467688D02*
X14930482Y-5913000D01*
X14485170Y-4882330D02*
X14485170Y-5467688D01*
X14922500Y-4445000D02*
X14485170Y-4882330D01*
D30*
X5798000Y-3600000D02*
X6477000Y-2921000D01*
X5675000Y-3600000D02*
X5798000Y-3600000D01*
X5798000Y-9100000D02*
X6477000Y-9779000D01*
X5675000Y-9100000D02*
X5798000Y-9100000D01*
D27*
X6477000Y-10414000D02*
X6477000Y-10985500D01*
%TO.N,+5V*%
X23814000Y-22795000D02*
X23241000Y-23368000D01*
X24237000Y-22795000D02*
X23814000Y-22795000D01*
D29*
%TO.N,+3V3*%
X15324900Y-18376900D02*
X15379700Y-18376900D01*
X2693000Y-16256000D02*
X2566000Y-16383000D01*
X5588000Y-16256000D02*
X2693000Y-16256000D01*
D27*
X9816500Y-16637000D02*
X9017000Y-16637000D01*
D29*
X11912000Y-3963000D02*
X10472500Y-3963000D01*
X12206419Y-3951419D02*
X11912000Y-3963000D01*
D28*
X16197500Y-5263000D02*
X14994734Y-5263000D01*
X14994734Y-5263000D02*
X14993294Y-5261560D01*
D29*
X20695500Y-11811000D02*
X22415500Y-11811000D01*
X20273500Y-12233000D02*
X20695500Y-11811000D01*
X19685000Y-21336000D02*
X19685000Y-20473000D01*
D27*
X11467500Y-18859500D02*
X11557000Y-18859500D01*
X12573000Y-17843500D02*
X12662500Y-17843500D01*
X11557000Y-18859500D02*
X12573000Y-17843500D01*
D29*
X15302500Y-18348500D02*
X15367000Y-18284000D01*
X15302500Y-19392900D02*
X15302500Y-18348500D01*
D27*
X14351000Y-18284000D02*
X14156500Y-18284000D01*
X13716000Y-17843500D02*
X12662500Y-17843500D01*
X14156500Y-18284000D02*
X13716000Y-17843500D01*
D29*
X19685000Y-20473000D02*
X20701000Y-20473000D01*
X14418500Y-18284000D02*
X14859000Y-17843500D01*
X14351000Y-18284000D02*
X14418500Y-18284000D01*
X15299500Y-18284000D02*
X14859000Y-17843500D01*
X15367000Y-18284000D02*
X15299500Y-18284000D01*
%TO.N,Net-(D1-Pad1)*%
X3491500Y-19628500D02*
X3729200Y-19390800D01*
X3491500Y-21959300D02*
X3491500Y-19628500D01*
D28*
%TO.N,Net-(DS2-Pad3)*%
X20312500Y-24219500D02*
X21737000Y-22795000D01*
X20155500Y-24257000D02*
X20155500Y-24137500D01*
%TO.N,Net-(DS2-Pad4)*%
X21737000Y-24195000D02*
X21842500Y-24195000D01*
X21842500Y-24195000D02*
X22542500Y-23495000D01*
X22542500Y-21171500D02*
X22669500Y-21044500D01*
X22542500Y-23495000D02*
X22542500Y-21171500D01*
%TO.N,/CC1_RECEP*%
X20709000Y-5600000D02*
X19676934Y-5600000D01*
X17444401Y-5633401D02*
X17399000Y-5588000D01*
X19643533Y-5633401D02*
X17444401Y-5633401D01*
X19676934Y-5600000D02*
X19643533Y-5633401D01*
D31*
X5675000Y-5600000D02*
X6084000Y-5600000D01*
X6084000Y-5600000D02*
X6223000Y-5461000D01*
X9207500Y-5461000D02*
X9271000Y-5524500D01*
X6223000Y-5461000D02*
X9207500Y-5461000D01*
D28*
X11049000Y-10922000D02*
X11288000Y-11161000D01*
X11288000Y-11161000D02*
X11681500Y-11161000D01*
X11049000Y-10350500D02*
X11049000Y-10922000D01*
D29*
%TO.N,/CC2_RECEP*%
X9170000Y-7213000D02*
X9144000Y-7239000D01*
D28*
X10309700Y-12461000D02*
X9781500Y-12461000D01*
X10414000Y-12356700D02*
X10309700Y-12461000D01*
X10414000Y-10350500D02*
X10414000Y-12356700D01*
%TO.N,Net-(Q1-Pad6)*%
X2174000Y-15834000D02*
X2174000Y-15174000D01*
X1625000Y-16383000D02*
X2174000Y-15834000D01*
%TO.N,/CC1_TX_DATA*%
X2682399Y-13827601D02*
X2794000Y-13716000D01*
X1762601Y-13827601D02*
X2682399Y-13827601D01*
X1524000Y-13589000D02*
X1762601Y-13827601D01*
X1524000Y-13274000D02*
X1524000Y-13589000D01*
%TO.N,/CC1_TX_EN*%
X1524000Y-14645800D02*
X1524000Y-15174000D01*
X1549401Y-14620399D02*
X1524000Y-14645800D01*
X2556881Y-14620399D02*
X1549401Y-14620399D01*
X3557482Y-15621000D02*
X2556881Y-14620399D01*
X9588500Y-18224500D02*
X8445500Y-18224500D01*
X5842000Y-15621000D02*
X3557482Y-15621000D01*
X9900946Y-18536946D02*
X9588500Y-18224500D01*
X9900946Y-20187946D02*
X9900946Y-18536946D01*
X8445500Y-18224500D02*
X5842000Y-15621000D01*
X10414000Y-20701000D02*
X9900946Y-20187946D01*
%TO.N,Net-(Q1-Pad3)*%
X1521312Y-14290188D02*
X3469188Y-14290188D01*
X3469188Y-14290188D02*
X3492500Y-14313500D01*
X874000Y-13642876D02*
X1521312Y-14290188D01*
X874000Y-13274000D02*
X874000Y-13642876D01*
%TO.N,/CC1*%
X8572500Y-13118500D02*
X7556500Y-13118500D01*
X7556500Y-13118500D02*
X6540500Y-13118500D01*
X6540500Y-13118500D02*
X5524500Y-13118500D01*
X5524500Y-13118500D02*
X4508500Y-13118500D01*
X4508500Y-13118500D02*
X3492500Y-13118500D01*
X2329500Y-13118500D02*
X2174000Y-13274000D01*
X3492500Y-13118500D02*
X2329500Y-13118500D01*
X7926110Y-11250890D02*
X7926110Y-12748890D01*
X9781500Y-11161000D02*
X8016000Y-11161000D01*
X7926110Y-12748890D02*
X7556500Y-13118500D01*
X8016000Y-11161000D02*
X7926110Y-11250890D01*
X10899649Y-13233399D02*
X10989860Y-13323610D01*
X10134601Y-13233399D02*
X10899649Y-13233399D01*
X9779000Y-13589000D02*
X10134601Y-13233399D01*
X9043000Y-13589000D02*
X9779000Y-13589000D01*
X8572500Y-13118500D02*
X9043000Y-13589000D01*
X13850500Y-13533000D02*
X13641110Y-13323610D01*
X16048500Y-13533000D02*
X13850500Y-13533000D01*
X10989860Y-13323610D02*
X13641110Y-13323610D01*
%TO.N,Net-(Q2-Pad6)*%
X10797689Y-16423189D02*
X11011500Y-16637000D01*
X10797689Y-15671439D02*
X10797689Y-16423189D01*
X10444750Y-15318500D02*
X10797689Y-15671439D01*
X9781500Y-15318500D02*
X10444750Y-15318500D01*
%TO.N,/CC2_TX_DATA*%
X14478000Y-14668500D02*
X11681500Y-14668500D01*
X17859250Y-14668500D02*
X14478000Y-14668500D01*
X18516601Y-15789149D02*
X18516601Y-15325851D01*
X18391125Y-15914625D02*
X18516601Y-15789149D01*
X18516601Y-15325851D02*
X17859250Y-14668500D01*
%TO.N,/CC2_TX_EN*%
X10604500Y-14668500D02*
X9781500Y-14668500D01*
X10797689Y-14861689D02*
X10604500Y-14668500D01*
X10797689Y-15188158D02*
X10797689Y-14861689D01*
X11292781Y-15866263D02*
X11127899Y-15701381D01*
X11127899Y-15701381D02*
X11127899Y-15518368D01*
X13970995Y-15866263D02*
X11292781Y-15866263D01*
X11127899Y-15518368D02*
X10797689Y-15188158D01*
X14132613Y-15704645D02*
X13970995Y-15866263D01*
%TO.N,Net-(Q2-Pad3)*%
X12868000Y-14018500D02*
X12954000Y-13932500D01*
X11681500Y-14018500D02*
X12868000Y-14018500D01*
%TO.N,/CC2*%
X10668000Y-13716000D02*
X10829700Y-13716000D01*
X11395018Y-15318500D02*
X11681500Y-15318500D01*
X11127899Y-15051381D02*
X11395018Y-15318500D01*
X11127899Y-14175899D02*
X11127899Y-15051381D01*
X10668000Y-13716000D02*
X11127899Y-14175899D01*
X18478500Y-22632000D02*
X17462500Y-22632000D01*
X17462500Y-22632000D02*
X16446500Y-22632000D01*
X16446500Y-22632000D02*
X15430500Y-22632000D01*
X15430500Y-22632000D02*
X14414500Y-22632000D01*
X11681500Y-12461000D02*
X12334000Y-12461000D01*
X12610500Y-12737500D02*
X12954000Y-12737500D01*
X12334000Y-12461000D02*
X12610500Y-12737500D01*
X11034000Y-12461000D02*
X10795000Y-12700000D01*
X11681500Y-12461000D02*
X11034000Y-12461000D01*
X20273500Y-14397500D02*
X19939000Y-14732000D01*
X20273500Y-14183000D02*
X20273500Y-14397500D01*
X19939000Y-15875000D02*
X19939000Y-14732000D01*
X18033999Y-19304001D02*
X19939000Y-17399000D01*
X19939000Y-17399000D02*
X19939000Y-15875000D01*
X18033999Y-19787630D02*
X18033999Y-19304001D01*
X18337768Y-20091399D02*
X18033999Y-19787630D01*
X18646649Y-20091399D02*
X18337768Y-20091399D01*
X19027110Y-20471860D02*
X18646649Y-20091399D01*
X19027110Y-21956390D02*
X19027110Y-20471860D01*
X18478500Y-22505000D02*
X19027110Y-21956390D01*
%TO.N,/CC1_EN*%
X8725500Y-11811000D02*
X8535000Y-12001500D01*
X9781500Y-11811000D02*
X8725500Y-11811000D01*
X9121110Y-12837050D02*
X9337588Y-13053528D01*
X9121110Y-12587610D02*
X9121110Y-12837050D01*
X8535000Y-12001500D02*
X9121110Y-12587610D01*
%TO.N,/CC2_EN*%
X12737500Y-11811000D02*
X12864500Y-11684000D01*
X11681500Y-11811000D02*
X12737500Y-11811000D01*
X13843000Y-12662500D02*
X13843000Y-12827000D01*
X12864500Y-11684000D02*
X13843000Y-12662500D01*
%TO.N,/BOOT*%
X21526500Y-18796000D02*
X21422390Y-18691890D01*
X19405000Y-19558000D02*
X19685000Y-19278000D01*
X18516599Y-19558000D02*
X19405000Y-19558000D01*
X20271110Y-18691890D02*
X20533390Y-18691890D01*
X19685000Y-19278000D02*
X20271110Y-18691890D01*
X21422390Y-18691890D02*
X20533390Y-18691890D01*
%TO.N,/LED_G_L*%
X22796500Y-19240500D02*
X22796500Y-19405000D01*
X22669500Y-19367500D02*
X22796500Y-19240500D01*
X22669500Y-19849500D02*
X22669500Y-19367500D01*
%TO.N,/LED_B_L*%
X18923000Y-24219500D02*
X18960500Y-24257000D01*
X18923000Y-23622000D02*
X18923000Y-24219500D01*
%TO.N,/CC1_RP3A0*%
X12827001Y-16382999D02*
X11976133Y-17233867D01*
X8001000Y-15339566D02*
X8572500Y-14768066D01*
X14605000Y-16129000D02*
X14351001Y-16382999D01*
X11976133Y-17233867D02*
X8855831Y-17233867D01*
X8001000Y-16379036D02*
X8001000Y-15339566D01*
X8572500Y-14768066D02*
X8572500Y-14313500D01*
X8855831Y-17233867D02*
X8001000Y-16379036D01*
X14351001Y-16382999D02*
X12827001Y-16382999D01*
%TO.N,/CC1_RA*%
X7556500Y-14313500D02*
X7556500Y-14993905D01*
X7556500Y-14993905D02*
X7576582Y-15013987D01*
%TO.N,/CC1_RP1A5*%
X6540500Y-14313500D02*
X6540500Y-14646385D01*
X6540500Y-14646385D02*
X6893953Y-14999838D01*
%TO.N,/CC1_RD*%
X5524500Y-14313500D02*
X5524500Y-14369524D01*
X5524500Y-14369524D02*
X6277238Y-15122262D01*
X6179054Y-15024078D02*
X6277238Y-15122262D01*
X14010642Y-20035519D02*
X13781288Y-19806165D01*
X8719054Y-17564078D02*
X6277238Y-15122262D01*
X9862054Y-17564078D02*
X8719054Y-17564078D01*
X10744208Y-18446234D02*
X10744208Y-19634208D01*
X10436488Y-18138512D02*
X10744208Y-18446234D01*
X10436488Y-18138512D02*
X9862054Y-17564078D01*
X10916165Y-19806165D02*
X12694165Y-19806165D01*
X10744208Y-19634208D02*
X10916165Y-19806165D01*
X12694165Y-19806165D02*
X12104141Y-19806165D01*
X13781288Y-19806165D02*
X12694165Y-19806165D01*
%TO.N,/CC1_RPUSB*%
X4508500Y-14160500D02*
X4508500Y-14313500D01*
X5308000Y-15113000D02*
X4508500Y-14313500D01*
X5800988Y-15113000D02*
X5308000Y-15113000D01*
X8582277Y-17894289D02*
X5800988Y-15113000D01*
X9725277Y-17894289D02*
X8582277Y-17894289D01*
X10414000Y-18583012D02*
X9725277Y-17894289D01*
X10414000Y-20002500D02*
X10414000Y-18583012D01*
%TO.N,/CC2_RP3A0*%
X14414500Y-20637500D02*
X14351000Y-20574000D01*
X14414500Y-21437000D02*
X14414500Y-20637500D01*
%TO.N,/CC2_RA*%
X15430500Y-21272500D02*
X15430500Y-21437000D01*
X15430500Y-20764500D02*
X15621000Y-20574000D01*
X15430500Y-21310000D02*
X15430500Y-20764500D01*
%TO.N,/CC2_RP1A5*%
X16446500Y-20920847D02*
X16793347Y-20574000D01*
X16446500Y-21310000D02*
X16446500Y-20920847D01*
%TO.N,/CC2_RD*%
X17462500Y-20764500D02*
X17653000Y-20574000D01*
X17462500Y-21310000D02*
X17462500Y-20764500D01*
%TO.N,/CC2_RPUSB*%
X18415000Y-21373500D02*
X18478500Y-21437000D01*
X18478500Y-20637500D02*
X18415000Y-20574000D01*
X18478500Y-21310000D02*
X18478500Y-20637500D01*
%TO.N,/INA_SCL*%
X13313210Y-5461000D02*
X12954000Y-5461000D01*
X13589000Y-5185210D02*
X13313210Y-5461000D01*
X13589000Y-4436318D02*
X13589000Y-5185210D01*
X12465682Y-3313000D02*
X13589000Y-4436318D01*
X10472500Y-3313000D02*
X12465682Y-3313000D01*
X12843784Y-18859500D02*
X13307848Y-19323564D01*
X12662500Y-18859500D02*
X12843784Y-18859500D01*
%TO.N,/INA_SDA*%
X14097000Y-4477332D02*
X14097000Y-4572000D01*
X13716000Y-4096332D02*
X14097000Y-4477332D01*
X13716000Y-3857750D02*
X13716000Y-4096332D01*
X14260750Y-3313000D02*
X13716000Y-3857750D01*
X16197500Y-3313000D02*
X14260750Y-3313000D01*
X14732000Y-10709710D02*
X14732000Y-10350500D01*
X12950388Y-10833101D02*
X14608609Y-10833101D01*
X12826997Y-10709710D02*
X12950388Y-10833101D01*
X14608609Y-10833101D02*
X14732000Y-10709710D01*
X12826997Y-10350500D02*
X12826997Y-10709710D01*
X10823990Y-17843500D02*
X10714245Y-17733755D01*
X11467500Y-17843500D02*
X10823990Y-17843500D01*
%TO.N,/VCONN_ALERT_L*%
X14376401Y-3911599D02*
X14351000Y-3937000D01*
X16146099Y-3911599D02*
X14376401Y-3911599D01*
X16197500Y-3963000D02*
X16146099Y-3911599D01*
%TO.N,/CC2_BUF*%
X20273500Y-12883000D02*
X20273500Y-13533000D01*
X21265000Y-12883000D02*
X21463000Y-13081000D01*
X20273500Y-12883000D02*
X21265000Y-12883000D01*
%TO.N,/CC1_BUF*%
X16048500Y-12883000D02*
X16048500Y-12233000D01*
X18994000Y-12883000D02*
X19050000Y-12827000D01*
X16048500Y-12883000D02*
X18994000Y-12883000D01*
D30*
%TO.N,/VBUS_PLUG*%
X19433080Y-7747000D02*
X19422316Y-7747000D01*
X19580080Y-7600000D02*
X19433080Y-7747000D01*
X20604000Y-7600000D02*
X19580080Y-7600000D01*
X19387500Y-5100000D02*
X20604000Y-5100000D01*
D28*
%TO.N,/CC2_PLUG*%
X10505401Y-5295901D02*
X10472500Y-5263000D01*
X12395573Y-5295901D02*
X10505401Y-5295901D01*
X12992474Y-4699000D02*
X12395573Y-5295901D01*
X15424500Y-8636000D02*
X16197500Y-7863000D01*
X12672566Y-8636000D02*
X15424500Y-8636000D01*
X12166599Y-7617967D02*
X12166599Y-8130033D01*
X13017500Y-7239000D02*
X12545566Y-7239000D01*
X12166599Y-8130033D02*
X12672566Y-8636000D01*
X12545566Y-7239000D02*
X12166599Y-7617967D01*
D30*
%TO.N,/VBUS_RECEP*%
X5675000Y-5100000D02*
X6584000Y-5100000D01*
D29*
X7206621Y-7855930D02*
X7513431Y-8162740D01*
X7206621Y-7784100D02*
X7134791Y-7784100D01*
X7513431Y-8162740D02*
X7585260Y-8162740D01*
X7206621Y-7784100D02*
X7206621Y-7855930D01*
D27*
X7022521Y-7600000D02*
X7206621Y-7784100D01*
X5675000Y-7600000D02*
X7022521Y-7600000D01*
D29*
X7585260Y-8234569D02*
X7585260Y-8162740D01*
X8064500Y-8445500D02*
X7894431Y-8543740D01*
X7894431Y-8543740D02*
X7585260Y-8234569D01*
D27*
X6983540Y-5100000D02*
X6584000Y-5100000D01*
X7466355Y-4617185D02*
X6983540Y-5100000D01*
D29*
X8228355Y-3855185D02*
X8300185Y-3855185D01*
D32*
%TO.N,/RX2+*%
X6071800Y-8553200D02*
X6233830Y-8553200D01*
X6025000Y-8600000D02*
X6071800Y-8553200D01*
X5675000Y-8600000D02*
X6025000Y-8600000D01*
X6233830Y-8553200D02*
X7281830Y-9601200D01*
X7281830Y-9601200D02*
X19007170Y-9601200D01*
X20339999Y-8600000D02*
X21090000Y-8600000D01*
X20293199Y-8553200D02*
X20339999Y-8600000D01*
X20055170Y-8553200D02*
X20293199Y-8553200D01*
X19007170Y-9601200D02*
X20055170Y-8553200D01*
%TO.N,/RX2-*%
X6025000Y-8100000D02*
X6071800Y-8146800D01*
X20293199Y-8146800D02*
X20339999Y-8100000D01*
X6071800Y-8146800D02*
X6402170Y-8146800D01*
X18838830Y-9194800D02*
X19886830Y-8146800D01*
X19886830Y-8146800D02*
X20293199Y-8146800D01*
X20339999Y-8100000D02*
X21090000Y-8100000D01*
X7450170Y-9194800D02*
X18838830Y-9194800D01*
X6402170Y-8146800D02*
X7450170Y-9194800D01*
X5675000Y-8100000D02*
X6025000Y-8100000D01*
D28*
%TO.N,/SBU1*%
X14083370Y-7434390D02*
X13850496Y-7201516D01*
X17394110Y-7434390D02*
X14083370Y-7434390D01*
X17738379Y-7090121D02*
X17394110Y-7434390D01*
X20699121Y-7090121D02*
X17738379Y-7090121D01*
X20709000Y-7100000D02*
X20699121Y-7090121D01*
X7311955Y-7100000D02*
X5675000Y-7100000D01*
X8085955Y-7874000D02*
X7311955Y-7100000D01*
X11239500Y-7874000D02*
X8085955Y-7874000D01*
X11747500Y-8382000D02*
X11239500Y-7874000D01*
D32*
%TO.N,/USBC_D-*%
X6458443Y-6600000D02*
X6784653Y-6273790D01*
X5675000Y-6600000D02*
X6458443Y-6600000D01*
X14266830Y-6489700D02*
X7000563Y-6489700D01*
X14774830Y-6997700D02*
X14266830Y-6489700D01*
X17165670Y-6997700D02*
X14774830Y-6997700D01*
X7000563Y-6489700D02*
X6784653Y-6273790D01*
X20289200Y-6553200D02*
X17610170Y-6553200D01*
X20336000Y-6600000D02*
X20289200Y-6553200D01*
X21090000Y-6600000D02*
X20336000Y-6600000D01*
X17610170Y-6553200D02*
X17165670Y-6997700D01*
D30*
%TO.N,/USBC_D+*%
X5698940Y-6123940D02*
X5675000Y-6100000D01*
D32*
X7130519Y-5787397D02*
X7350212Y-6007090D01*
X6556796Y-5787397D02*
X7130519Y-5787397D01*
X6244193Y-6100000D02*
X6556796Y-5787397D01*
X5675000Y-6100000D02*
X6244193Y-6100000D01*
X7426422Y-6083300D02*
X7350212Y-6007090D01*
X14943170Y-6591300D02*
X14435170Y-6083300D01*
X16997330Y-6591300D02*
X14943170Y-6591300D01*
X14435170Y-6083300D02*
X7426422Y-6083300D01*
X17488630Y-6100000D02*
X16997330Y-6591300D01*
X21090000Y-6100000D02*
X17488630Y-6100000D01*
%TO.N,/TX1-*%
X20293199Y-4553200D02*
X20013830Y-4553200D01*
X20339999Y-4600000D02*
X20293199Y-4553200D01*
X21090000Y-4600000D02*
X20339999Y-4600000D01*
X20013830Y-4553200D02*
X18910300Y-3449670D01*
X18203830Y-2108200D02*
X18910300Y-2814670D01*
X8212170Y-2108200D02*
X18203830Y-2108200D01*
X7696200Y-2624170D02*
X8212170Y-2108200D01*
X6529170Y-4553200D02*
X7696200Y-3386170D01*
X6071800Y-4553200D02*
X6529170Y-4553200D01*
X6025000Y-4600000D02*
X6071800Y-4553200D01*
X7696200Y-3386170D02*
X7696200Y-2624170D01*
X5675000Y-4600000D02*
X6025000Y-4600000D01*
X18910300Y-3449670D02*
X18910300Y-2814670D01*
%TO.N,/TX1+*%
X20293199Y-4146800D02*
X20182170Y-4146800D01*
X20339999Y-4100000D02*
X20293199Y-4146800D01*
X21090000Y-4100000D02*
X20339999Y-4100000D01*
X20182170Y-4146800D02*
X19316700Y-3281330D01*
X18372170Y-1701800D02*
X19316700Y-2646330D01*
X8043830Y-1701800D02*
X18372170Y-1701800D01*
X7289800Y-2455830D02*
X8043830Y-1701800D01*
X7289800Y-3217830D02*
X7289800Y-2455830D01*
X6360830Y-4146800D02*
X7289800Y-3217830D01*
X6071800Y-4146800D02*
X6360830Y-4146800D01*
X6025000Y-4100000D02*
X6071800Y-4146800D01*
X5675000Y-4100000D02*
X6025000Y-4100000D01*
X19316700Y-3281330D02*
X19316700Y-2646330D01*
%TO.N,/USB_B_D+*%
X13982700Y-23660100D02*
X14122400Y-23520400D01*
X11374463Y-23152093D02*
X11882470Y-23660100D01*
X11332576Y-23099569D02*
X11374463Y-23152093D01*
X11303428Y-23039043D02*
X11332576Y-23099569D01*
X11288479Y-22906370D02*
X11288480Y-22973550D01*
X11303429Y-22840877D02*
X11288479Y-22906370D01*
X11332577Y-22780351D02*
X11303429Y-22840877D01*
X10897676Y-22345450D02*
X10950199Y-22303565D01*
X11478762Y-21934739D02*
X11544257Y-21949689D01*
X10771656Y-22389546D02*
X10837149Y-22374596D01*
X11743285Y-22266442D02*
X11728337Y-22331937D01*
X10578456Y-22345449D02*
X10638983Y-22374597D01*
X10837149Y-22374596D02*
X10897676Y-22345450D01*
X11544257Y-21949689D02*
X11604783Y-21978837D01*
X10525935Y-22303565D02*
X10578456Y-22345449D01*
X10117170Y-21894800D02*
X10525935Y-22303565D01*
X10704476Y-22389545D02*
X10771656Y-22389546D01*
X11346089Y-21949688D02*
X11411584Y-21934740D01*
X5735670Y-21894800D02*
X10117170Y-21894800D01*
X4907400Y-21066530D02*
X5735670Y-21894800D01*
X4907400Y-21012601D02*
X4907400Y-21066530D01*
X11288480Y-22973550D02*
X11303428Y-23039043D01*
X5029200Y-20890801D02*
X4907400Y-21012601D01*
X5029200Y-19390800D02*
X5029200Y-20890801D01*
X10638983Y-22374597D02*
X10704476Y-22389545D01*
X10950199Y-22303565D02*
X11233040Y-22020721D01*
X11233040Y-22020721D02*
X11285563Y-21978836D01*
X11285563Y-21978836D02*
X11346089Y-21949688D01*
X11743286Y-22199264D02*
X11743285Y-22266442D01*
X11411584Y-21934740D02*
X11478762Y-21934739D01*
X11604783Y-21978837D02*
X11657304Y-22020721D01*
X11882470Y-23660100D02*
X13982700Y-23660100D01*
X11657304Y-22020721D02*
X11699190Y-22073244D01*
X11699190Y-22073244D02*
X11728336Y-22133769D01*
X11728336Y-22133769D02*
X11743286Y-22199264D01*
X11374462Y-22727828D02*
X11332577Y-22780351D01*
X11728337Y-22331937D02*
X11699189Y-22392462D01*
X11699189Y-22392462D02*
X11657304Y-22444985D01*
X11657304Y-22444985D02*
X11374462Y-22727828D01*
%TO.N,/USB_B_D-*%
X11714130Y-24066500D02*
X9948830Y-22301200D01*
X14478000Y-24066500D02*
X11714130Y-24066500D01*
X9948830Y-22301200D02*
X5567330Y-22301200D01*
X4379200Y-20890801D02*
X4379200Y-19390800D01*
X5567330Y-22301200D02*
X4501000Y-21234870D01*
X4501000Y-21012601D02*
X4379200Y-20890801D01*
X4501000Y-21234870D02*
X4501000Y-21012601D01*
D28*
%TO.N,Net-(DS2-Pad1)*%
X24965601Y-23466399D02*
X24237000Y-24195000D01*
X24965601Y-21706899D02*
X24965601Y-23466399D01*
D29*
%TO.N,Net-(C5-Pad1)*%
X16425100Y-18376900D02*
X16370300Y-18376900D01*
X16447500Y-18285000D02*
X16446500Y-18284000D01*
X16447500Y-19392900D02*
X16447500Y-18285000D01*
X16446500Y-18284000D02*
X17462500Y-18284000D01*
X17348948Y-16383000D02*
X17907000Y-16383000D01*
X17018000Y-16052052D02*
X17348948Y-16383000D01*
X17018000Y-15621000D02*
X17018000Y-16052052D01*
X17907000Y-16383000D02*
X18288000Y-16764000D01*
X18288000Y-16764000D02*
X18288000Y-17970500D01*
X17974500Y-18284000D02*
X17462500Y-18284000D01*
X18288000Y-17970500D02*
X17974500Y-18284000D01*
%TO.N,/USB_B_ID*%
X22415500Y-14160000D02*
X22457500Y-14202000D01*
D28*
X22923500Y-14668000D02*
X22457500Y-14202000D01*
X21249610Y-19826610D02*
X20701000Y-19278000D01*
X21249610Y-20043110D02*
X21249610Y-19826610D01*
X22923500Y-17336000D02*
X22457500Y-17802000D01*
X22923500Y-16065500D02*
X22923500Y-17336000D01*
X22923500Y-16637000D02*
X22923500Y-16065500D01*
X22923500Y-16065500D02*
X22923500Y-14668000D01*
X21249610Y-20170110D02*
X21249610Y-19898390D01*
X21249610Y-20170110D02*
X21249610Y-20043110D01*
X22457500Y-18690500D02*
X22457500Y-17802000D01*
X21249610Y-19898390D02*
X22457500Y-18690500D01*
X5679200Y-21046200D02*
X5679200Y-19390800D01*
X6159500Y-21526500D02*
X5679200Y-21046200D01*
X12814198Y-21526500D02*
X6159500Y-21526500D01*
X13462000Y-22174302D02*
X12814198Y-21526500D01*
X13462000Y-22542500D02*
X13462000Y-22174302D01*
X18799470Y-23027610D02*
X13947110Y-23027610D01*
X13947110Y-23027610D02*
X13462000Y-22542500D01*
X19792580Y-22034500D02*
X18799470Y-23027610D01*
X20046580Y-22034500D02*
X19792580Y-22034500D01*
X21249610Y-20831470D02*
X20046580Y-22034500D01*
X21249610Y-20170110D02*
X21249610Y-20831470D01*
%TO.N,Net-(R24-Pad1)*%
X23897500Y-17802000D02*
X23897500Y-17801500D01*
X23897500Y-17801500D02*
X23431500Y-17335500D01*
X23431500Y-14668000D02*
X23897500Y-14202000D01*
X23431500Y-17335500D02*
X23431500Y-14668000D01*
X23685500Y-18014000D02*
X23897500Y-17802000D01*
X23685500Y-19849500D02*
X23685500Y-18014000D01*
%TD*%
D32*
%TO.N,GND*%
X355678Y-15711696D02*
X403289Y-15769711D01*
X461304Y-15817322D01*
X527492Y-15852701D01*
X599311Y-15874487D01*
X674000Y-15881843D01*
X705750Y-15880000D01*
X746998Y-15838752D01*
X746998Y-15880000D01*
X859993Y-15880000D01*
X843794Y-15893294D01*
X785807Y-15963952D01*
X742719Y-16044565D01*
X716185Y-16132034D01*
X707226Y-16223000D01*
X707226Y-16543000D01*
X716185Y-16633966D01*
X742719Y-16721435D01*
X785807Y-16802048D01*
X843794Y-16872706D01*
X914452Y-16930693D01*
X995065Y-16973781D01*
X1082534Y-17000315D01*
X1173500Y-17009274D01*
X1568500Y-17009274D01*
X1659466Y-17000315D01*
X1746935Y-16973781D01*
X1827548Y-16930693D01*
X1898206Y-16872706D01*
X1956193Y-16802048D01*
X1968500Y-16779023D01*
X1980807Y-16802048D01*
X2038794Y-16872706D01*
X2109452Y-16930693D01*
X2190065Y-16973781D01*
X2277534Y-17000315D01*
X2368500Y-17009274D01*
X2763500Y-17009274D01*
X2854466Y-17000315D01*
X2941935Y-16973781D01*
X3022548Y-16930693D01*
X3093206Y-16872706D01*
X3140728Y-16814800D01*
X4996771Y-16814800D01*
X4978400Y-16907160D01*
X4978400Y-17027240D01*
X5001826Y-17145014D01*
X5047779Y-17255954D01*
X5114492Y-17355798D01*
X5199402Y-17440708D01*
X5299246Y-17507421D01*
X5410186Y-17553374D01*
X5527960Y-17576800D01*
X5648040Y-17576800D01*
X5765814Y-17553374D01*
X5876754Y-17507421D01*
X5976598Y-17440708D01*
X6061508Y-17355798D01*
X6128221Y-17255954D01*
X6174174Y-17145014D01*
X6197600Y-17027240D01*
X6197600Y-16907160D01*
X6174174Y-16789386D01*
X6128221Y-16678446D01*
X6061508Y-16578602D01*
X6053064Y-16570158D01*
X6054873Y-16567954D01*
X6095022Y-16492841D01*
X6112679Y-16466415D01*
X8144023Y-18497760D01*
X8156742Y-18513258D01*
X8172240Y-18525977D01*
X8172245Y-18525982D01*
X8188396Y-18539236D01*
X8204177Y-18552188D01*
X8061943Y-18643937D01*
X7905152Y-18795742D01*
X7780990Y-18975219D01*
X7694228Y-19175470D01*
X7648200Y-19388800D01*
X7648200Y-19663800D01*
X8627200Y-19663800D01*
X8627200Y-19643800D01*
X8881200Y-19643800D01*
X8881200Y-19663800D01*
X8901200Y-19663800D01*
X8901200Y-19917800D01*
X8881200Y-19917800D01*
X8881200Y-19937800D01*
X8627200Y-19937800D01*
X8627200Y-19917800D01*
X7648200Y-19917800D01*
X7648200Y-20145863D01*
X7598617Y-20136000D01*
X7459783Y-20136000D01*
X7323617Y-20163085D01*
X7195352Y-20216215D01*
X7079916Y-20293346D01*
X6981746Y-20391516D01*
X6927498Y-20472704D01*
X6929687Y-20465489D01*
X6937043Y-20390800D01*
X6935200Y-19613050D01*
X6839950Y-19517800D01*
X6427200Y-19517800D01*
X6427200Y-20676550D01*
X6522450Y-20771800D01*
X6554200Y-20773643D01*
X6628889Y-20766287D01*
X6700708Y-20744501D01*
X6766896Y-20709122D01*
X6824911Y-20661511D01*
X6856576Y-20622927D01*
X6851485Y-20635217D01*
X6824400Y-20771383D01*
X6824400Y-20910217D01*
X6851485Y-21046383D01*
X6882020Y-21120100D01*
X6327837Y-21120100D01*
X6085600Y-20877864D01*
X6085600Y-20771811D01*
X6104200Y-20773643D01*
X6135950Y-20771800D01*
X6231200Y-20676550D01*
X6231200Y-19517800D01*
X6210474Y-19517800D01*
X6210474Y-19263800D01*
X6231200Y-19263800D01*
X6231200Y-18105050D01*
X6427200Y-18105050D01*
X6427200Y-19263800D01*
X6839950Y-19263800D01*
X6935200Y-19168550D01*
X6937043Y-18390800D01*
X6929687Y-18316111D01*
X6907901Y-18244292D01*
X6872522Y-18178104D01*
X6824911Y-18120089D01*
X6766896Y-18072478D01*
X6700708Y-18037099D01*
X6628889Y-18015313D01*
X6554200Y-18007957D01*
X6522450Y-18009800D01*
X6427200Y-18105050D01*
X6231200Y-18105050D01*
X6135950Y-18009800D01*
X6104200Y-18007957D01*
X6029511Y-18015313D01*
X5957692Y-18037099D01*
X5891504Y-18072478D01*
X5876823Y-18084526D01*
X5454200Y-18084526D01*
X5394449Y-18090411D01*
X5354200Y-18102621D01*
X5313951Y-18090411D01*
X5254200Y-18084526D01*
X4804200Y-18084526D01*
X4744449Y-18090411D01*
X4704200Y-18102621D01*
X4663951Y-18090411D01*
X4604200Y-18084526D01*
X4154200Y-18084526D01*
X4094449Y-18090411D01*
X4054200Y-18102621D01*
X4013951Y-18090411D01*
X3954200Y-18084526D01*
X3504200Y-18084526D01*
X3444449Y-18090411D01*
X3386994Y-18107840D01*
X3334043Y-18136142D01*
X3287632Y-18174232D01*
X3249542Y-18220643D01*
X3221240Y-18273594D01*
X3203811Y-18331049D01*
X3197926Y-18390800D01*
X3197926Y-19131812D01*
X3115776Y-19213962D01*
X3094458Y-19231457D01*
X3076963Y-19252775D01*
X3024628Y-19316546D01*
X2972739Y-19413623D01*
X2940787Y-19518956D01*
X2929997Y-19628500D01*
X2932701Y-19655952D01*
X2932701Y-20262755D01*
X2863048Y-20216215D01*
X2734783Y-20163085D01*
X2598617Y-20136000D01*
X2459783Y-20136000D01*
X2410200Y-20145863D01*
X2410200Y-19917800D01*
X1431200Y-19917800D01*
X1431200Y-21068540D01*
X1601508Y-21131090D01*
X1813063Y-21055963D01*
X1848805Y-21032908D01*
X1851485Y-21046383D01*
X1904615Y-21174648D01*
X1981746Y-21290084D01*
X2079916Y-21388254D01*
X2195352Y-21465385D01*
X2323617Y-21518515D01*
X2459783Y-21545600D01*
X2598617Y-21545600D01*
X2734783Y-21518515D01*
X2863048Y-21465385D01*
X2932700Y-21418845D01*
X2932700Y-21715399D01*
X2905326Y-21781486D01*
X2881900Y-21899260D01*
X2881900Y-22019340D01*
X2905326Y-22137114D01*
X2951279Y-22248054D01*
X3017992Y-22347898D01*
X3102902Y-22432808D01*
X3202746Y-22499521D01*
X3313686Y-22545474D01*
X3431460Y-22568900D01*
X3551540Y-22568900D01*
X3669314Y-22545474D01*
X3780254Y-22499521D01*
X3880098Y-22432808D01*
X3965008Y-22347898D01*
X4031721Y-22248054D01*
X4077674Y-22137114D01*
X4101100Y-22019340D01*
X4101100Y-21899260D01*
X4077674Y-21781486D01*
X4050300Y-21715400D01*
X4050300Y-21170685D01*
X4069200Y-21193715D01*
X4069200Y-21213660D01*
X4067111Y-21234870D01*
X4069200Y-21256079D01*
X4075448Y-21319517D01*
X4100139Y-21400911D01*
X4140234Y-21475925D01*
X4194194Y-21541676D01*
X4210679Y-21555205D01*
X5247002Y-22591530D01*
X5260524Y-22608006D01*
X5326274Y-22661966D01*
X5401288Y-22702061D01*
X5482682Y-22726752D01*
X5546120Y-22733000D01*
X5546127Y-22733000D01*
X5567329Y-22735088D01*
X5588532Y-22733000D01*
X8105219Y-22733000D01*
X8069572Y-22782622D01*
X7991346Y-22954734D01*
X7948200Y-23138800D01*
X7948200Y-23463800D01*
X8777200Y-23463800D01*
X8777200Y-23443800D01*
X9031200Y-23443800D01*
X9031200Y-23463800D01*
X9860200Y-23463800D01*
X9860200Y-23138800D01*
X9817054Y-22954734D01*
X9738828Y-22782622D01*
X9703181Y-22733000D01*
X9769974Y-22733000D01*
X11393804Y-24356832D01*
X11407324Y-24373306D01*
X11473074Y-24427266D01*
X11548088Y-24467361D01*
X11629482Y-24492052D01*
X11714129Y-24500389D01*
X11735339Y-24498300D01*
X14119538Y-24498300D01*
X14121786Y-24500548D01*
X14213309Y-24561702D01*
X14315004Y-24603826D01*
X14422963Y-24625300D01*
X14533037Y-24625300D01*
X14640996Y-24603826D01*
X14742691Y-24561702D01*
X14834214Y-24500548D01*
X14912048Y-24422714D01*
X14973202Y-24331191D01*
X15015326Y-24229496D01*
X15036800Y-24121537D01*
X15036800Y-24011463D01*
X15015326Y-23903504D01*
X14973202Y-23801809D01*
X14912048Y-23710286D01*
X14834214Y-23632452D01*
X14742691Y-23571298D01*
X14681200Y-23545827D01*
X14681200Y-23465363D01*
X14674964Y-23434010D01*
X18396027Y-23434010D01*
X18385674Y-23459004D01*
X18364200Y-23566963D01*
X18364200Y-23677037D01*
X18385674Y-23784996D01*
X18396774Y-23811794D01*
X18375307Y-23837952D01*
X18332219Y-23918565D01*
X18305685Y-24006034D01*
X18296726Y-24097000D01*
X18296726Y-24417000D01*
X18305685Y-24507966D01*
X18332219Y-24595435D01*
X18375307Y-24676048D01*
X18433294Y-24746706D01*
X18503952Y-24804693D01*
X18584565Y-24847781D01*
X18672034Y-24874315D01*
X18763000Y-24883274D01*
X19158000Y-24883274D01*
X19248966Y-24874315D01*
X19336435Y-24847781D01*
X19417048Y-24804693D01*
X19487706Y-24746706D01*
X19545693Y-24676048D01*
X19558000Y-24653023D01*
X19570307Y-24676048D01*
X19628294Y-24746706D01*
X19698952Y-24804693D01*
X19779565Y-24847781D01*
X19867034Y-24874315D01*
X19958000Y-24883274D01*
X20353000Y-24883274D01*
X20443966Y-24874315D01*
X20531435Y-24847781D01*
X20612048Y-24804693D01*
X20682706Y-24746706D01*
X20740693Y-24676048D01*
X20783781Y-24595435D01*
X20810315Y-24507966D01*
X20819274Y-24417000D01*
X20819274Y-24287462D01*
X20930726Y-24176010D01*
X20930726Y-24595000D01*
X20936611Y-24654751D01*
X20954040Y-24712206D01*
X20982342Y-24765157D01*
X21020432Y-24811568D01*
X21066843Y-24849658D01*
X21119794Y-24877960D01*
X21177249Y-24895389D01*
X21237000Y-24901274D01*
X22237000Y-24901274D01*
X22296751Y-24895389D01*
X22354206Y-24877960D01*
X22407157Y-24849658D01*
X22453568Y-24811568D01*
X22491658Y-24765157D01*
X22519960Y-24712206D01*
X22537389Y-24654751D01*
X22543274Y-24595000D01*
X22543274Y-24068962D01*
X22811565Y-23800671D01*
X22852402Y-23841508D01*
X22952246Y-23908221D01*
X23063186Y-23954174D01*
X23180960Y-23977600D01*
X23301040Y-23977600D01*
X23418814Y-23954174D01*
X23430726Y-23949240D01*
X23430726Y-24595000D01*
X23436611Y-24654751D01*
X23454040Y-24712206D01*
X23482342Y-24765157D01*
X23520432Y-24811568D01*
X23566843Y-24849658D01*
X23619794Y-24877960D01*
X23677249Y-24895389D01*
X23737000Y-24901274D01*
X24737000Y-24901274D01*
X24796751Y-24895389D01*
X24854206Y-24877960D01*
X24907157Y-24849658D01*
X24953568Y-24811568D01*
X24991658Y-24765157D01*
X25019960Y-24712206D01*
X25037389Y-24654751D01*
X25043274Y-24595000D01*
X25043274Y-23963462D01*
X25070201Y-23936535D01*
X25070201Y-24875859D01*
X25065255Y-24926305D01*
X25055292Y-24959303D01*
X25039107Y-24989742D01*
X25017324Y-25016450D01*
X24990765Y-25038422D01*
X24960439Y-25054819D01*
X24927514Y-25065011D01*
X24878148Y-25070200D01*
X524131Y-25070200D01*
X473695Y-25065255D01*
X440697Y-25055292D01*
X410258Y-25039107D01*
X383550Y-25017324D01*
X361578Y-24990765D01*
X345181Y-24960439D01*
X334989Y-24927514D01*
X329800Y-24878148D01*
X329800Y-24413216D01*
X429872Y-24552522D01*
X568008Y-24681597D01*
X728671Y-24781243D01*
X880538Y-24831794D01*
X1027200Y-24767129D01*
X1027200Y-23717800D01*
X1281200Y-23717800D01*
X1281200Y-24767129D01*
X1427862Y-24831794D01*
X1579729Y-24781243D01*
X1740392Y-24681597D01*
X1878528Y-24552522D01*
X1988828Y-24398978D01*
X2067054Y-24226866D01*
X2110200Y-24042800D01*
X2110200Y-23717800D01*
X7948200Y-23717800D01*
X7948200Y-24042800D01*
X7991346Y-24226866D01*
X8069572Y-24398978D01*
X8179872Y-24552522D01*
X8318008Y-24681597D01*
X8478671Y-24781243D01*
X8630538Y-24831794D01*
X8777200Y-24767129D01*
X8777200Y-23717800D01*
X9031200Y-23717800D01*
X9031200Y-24767129D01*
X9177862Y-24831794D01*
X9329729Y-24781243D01*
X9490392Y-24681597D01*
X9628528Y-24552522D01*
X9738828Y-24398978D01*
X9817054Y-24226866D01*
X9860200Y-24042800D01*
X9860200Y-23717800D01*
X9031200Y-23717800D01*
X8777200Y-23717800D01*
X7948200Y-23717800D01*
X2110200Y-23717800D01*
X1281200Y-23717800D01*
X1027200Y-23717800D01*
X1007200Y-23717800D01*
X1007200Y-23463800D01*
X1027200Y-23463800D01*
X1027200Y-22414471D01*
X1281200Y-22414471D01*
X1281200Y-23463800D01*
X2110200Y-23463800D01*
X2110200Y-23138800D01*
X2067054Y-22954734D01*
X1988828Y-22782622D01*
X1878528Y-22629078D01*
X1740392Y-22500003D01*
X1579729Y-22400357D01*
X1427862Y-22349806D01*
X1281200Y-22414471D01*
X1027200Y-22414471D01*
X880538Y-22349806D01*
X728671Y-22400357D01*
X568008Y-22500003D01*
X429872Y-22629078D01*
X329800Y-22768384D01*
X329800Y-20603634D01*
X330990Y-20606381D01*
X455152Y-20785858D01*
X611943Y-20937663D01*
X795337Y-21055963D01*
X1006892Y-21131090D01*
X1177200Y-21068540D01*
X1177200Y-19917800D01*
X1157200Y-19917800D01*
X1157200Y-19663800D01*
X1177200Y-19663800D01*
X1177200Y-18513060D01*
X1431200Y-18513060D01*
X1431200Y-19663800D01*
X2410200Y-19663800D01*
X2410200Y-19388800D01*
X2364172Y-19175470D01*
X2277410Y-18975219D01*
X2153248Y-18795742D01*
X1996457Y-18643937D01*
X1813063Y-18525637D01*
X1601508Y-18450510D01*
X1431200Y-18513060D01*
X1177200Y-18513060D01*
X1006892Y-18450510D01*
X795337Y-18525637D01*
X611943Y-18643937D01*
X455152Y-18795742D01*
X330990Y-18975219D01*
X329800Y-18977966D01*
X329800Y-15663283D01*
X355678Y-15711696D01*
%TA.AperFunction,Conductor*%
D33*
G36*
X355678Y-15711696D02*
G01*
X403289Y-15769711D01*
X461304Y-15817322D01*
X527492Y-15852701D01*
X599311Y-15874487D01*
X674000Y-15881843D01*
X705750Y-15880000D01*
X746998Y-15838752D01*
X746998Y-15880000D01*
X859993Y-15880000D01*
X843794Y-15893294D01*
X785807Y-15963952D01*
X742719Y-16044565D01*
X716185Y-16132034D01*
X707226Y-16223000D01*
X707226Y-16543000D01*
X716185Y-16633966D01*
X742719Y-16721435D01*
X785807Y-16802048D01*
X843794Y-16872706D01*
X914452Y-16930693D01*
X995065Y-16973781D01*
X1082534Y-17000315D01*
X1173500Y-17009274D01*
X1568500Y-17009274D01*
X1659466Y-17000315D01*
X1746935Y-16973781D01*
X1827548Y-16930693D01*
X1898206Y-16872706D01*
X1956193Y-16802048D01*
X1968500Y-16779023D01*
X1980807Y-16802048D01*
X2038794Y-16872706D01*
X2109452Y-16930693D01*
X2190065Y-16973781D01*
X2277534Y-17000315D01*
X2368500Y-17009274D01*
X2763500Y-17009274D01*
X2854466Y-17000315D01*
X2941935Y-16973781D01*
X3022548Y-16930693D01*
X3093206Y-16872706D01*
X3140728Y-16814800D01*
X4996771Y-16814800D01*
X4978400Y-16907160D01*
X4978400Y-17027240D01*
X5001826Y-17145014D01*
X5047779Y-17255954D01*
X5114492Y-17355798D01*
X5199402Y-17440708D01*
X5299246Y-17507421D01*
X5410186Y-17553374D01*
X5527960Y-17576800D01*
X5648040Y-17576800D01*
X5765814Y-17553374D01*
X5876754Y-17507421D01*
X5976598Y-17440708D01*
X6061508Y-17355798D01*
X6128221Y-17255954D01*
X6174174Y-17145014D01*
X6197600Y-17027240D01*
X6197600Y-16907160D01*
X6174174Y-16789386D01*
X6128221Y-16678446D01*
X6061508Y-16578602D01*
X6053064Y-16570158D01*
X6054873Y-16567954D01*
X6095022Y-16492841D01*
X6112679Y-16466415D01*
X8144023Y-18497760D01*
X8156742Y-18513258D01*
X8172240Y-18525977D01*
X8172245Y-18525982D01*
X8188396Y-18539236D01*
X8204177Y-18552188D01*
X8061943Y-18643937D01*
X7905152Y-18795742D01*
X7780990Y-18975219D01*
X7694228Y-19175470D01*
X7648200Y-19388800D01*
X7648200Y-19663800D01*
X8627200Y-19663800D01*
X8627200Y-19643800D01*
X8881200Y-19643800D01*
X8881200Y-19663800D01*
X8901200Y-19663800D01*
X8901200Y-19917800D01*
X8881200Y-19917800D01*
X8881200Y-19937800D01*
X8627200Y-19937800D01*
X8627200Y-19917800D01*
X7648200Y-19917800D01*
X7648200Y-20145863D01*
X7598617Y-20136000D01*
X7459783Y-20136000D01*
X7323617Y-20163085D01*
X7195352Y-20216215D01*
X7079916Y-20293346D01*
X6981746Y-20391516D01*
X6927498Y-20472704D01*
X6929687Y-20465489D01*
X6937043Y-20390800D01*
X6935200Y-19613050D01*
X6839950Y-19517800D01*
X6427200Y-19517800D01*
X6427200Y-20676550D01*
X6522450Y-20771800D01*
X6554200Y-20773643D01*
X6628889Y-20766287D01*
X6700708Y-20744501D01*
X6766896Y-20709122D01*
X6824911Y-20661511D01*
X6856576Y-20622927D01*
X6851485Y-20635217D01*
X6824400Y-20771383D01*
X6824400Y-20910217D01*
X6851485Y-21046383D01*
X6882020Y-21120100D01*
X6327837Y-21120100D01*
X6085600Y-20877864D01*
X6085600Y-20771811D01*
X6104200Y-20773643D01*
X6135950Y-20771800D01*
X6231200Y-20676550D01*
X6231200Y-19517800D01*
X6210474Y-19517800D01*
X6210474Y-19263800D01*
X6231200Y-19263800D01*
X6231200Y-18105050D01*
X6427200Y-18105050D01*
X6427200Y-19263800D01*
X6839950Y-19263800D01*
X6935200Y-19168550D01*
X6937043Y-18390800D01*
X6929687Y-18316111D01*
X6907901Y-18244292D01*
X6872522Y-18178104D01*
X6824911Y-18120089D01*
X6766896Y-18072478D01*
X6700708Y-18037099D01*
X6628889Y-18015313D01*
X6554200Y-18007957D01*
X6522450Y-18009800D01*
X6427200Y-18105050D01*
X6231200Y-18105050D01*
X6135950Y-18009800D01*
X6104200Y-18007957D01*
X6029511Y-18015313D01*
X5957692Y-18037099D01*
X5891504Y-18072478D01*
X5876823Y-18084526D01*
X5454200Y-18084526D01*
X5394449Y-18090411D01*
X5354200Y-18102621D01*
X5313951Y-18090411D01*
X5254200Y-18084526D01*
X4804200Y-18084526D01*
X4744449Y-18090411D01*
X4704200Y-18102621D01*
X4663951Y-18090411D01*
X4604200Y-18084526D01*
X4154200Y-18084526D01*
X4094449Y-18090411D01*
X4054200Y-18102621D01*
X4013951Y-18090411D01*
X3954200Y-18084526D01*
X3504200Y-18084526D01*
X3444449Y-18090411D01*
X3386994Y-18107840D01*
X3334043Y-18136142D01*
X3287632Y-18174232D01*
X3249542Y-18220643D01*
X3221240Y-18273594D01*
X3203811Y-18331049D01*
X3197926Y-18390800D01*
X3197926Y-19131812D01*
X3115776Y-19213962D01*
X3094458Y-19231457D01*
X3076963Y-19252775D01*
X3024628Y-19316546D01*
X2972739Y-19413623D01*
X2940787Y-19518956D01*
X2929997Y-19628500D01*
X2932701Y-19655952D01*
X2932701Y-20262755D01*
X2863048Y-20216215D01*
X2734783Y-20163085D01*
X2598617Y-20136000D01*
X2459783Y-20136000D01*
X2410200Y-20145863D01*
X2410200Y-19917800D01*
X1431200Y-19917800D01*
X1431200Y-21068540D01*
X1601508Y-21131090D01*
X1813063Y-21055963D01*
X1848805Y-21032908D01*
X1851485Y-21046383D01*
X1904615Y-21174648D01*
X1981746Y-21290084D01*
X2079916Y-21388254D01*
X2195352Y-21465385D01*
X2323617Y-21518515D01*
X2459783Y-21545600D01*
X2598617Y-21545600D01*
X2734783Y-21518515D01*
X2863048Y-21465385D01*
X2932700Y-21418845D01*
X2932700Y-21715399D01*
X2905326Y-21781486D01*
X2881900Y-21899260D01*
X2881900Y-22019340D01*
X2905326Y-22137114D01*
X2951279Y-22248054D01*
X3017992Y-22347898D01*
X3102902Y-22432808D01*
X3202746Y-22499521D01*
X3313686Y-22545474D01*
X3431460Y-22568900D01*
X3551540Y-22568900D01*
X3669314Y-22545474D01*
X3780254Y-22499521D01*
X3880098Y-22432808D01*
X3965008Y-22347898D01*
X4031721Y-22248054D01*
X4077674Y-22137114D01*
X4101100Y-22019340D01*
X4101100Y-21899260D01*
X4077674Y-21781486D01*
X4050300Y-21715400D01*
X4050300Y-21170685D01*
X4069200Y-21193715D01*
X4069200Y-21213660D01*
X4067111Y-21234870D01*
X4069200Y-21256079D01*
X4075448Y-21319517D01*
X4100139Y-21400911D01*
X4140234Y-21475925D01*
X4194194Y-21541676D01*
X4210679Y-21555205D01*
X5247002Y-22591530D01*
X5260524Y-22608006D01*
X5326274Y-22661966D01*
X5401288Y-22702061D01*
X5482682Y-22726752D01*
X5546120Y-22733000D01*
X5546127Y-22733000D01*
X5567329Y-22735088D01*
X5588532Y-22733000D01*
X8105219Y-22733000D01*
X8069572Y-22782622D01*
X7991346Y-22954734D01*
X7948200Y-23138800D01*
X7948200Y-23463800D01*
X8777200Y-23463800D01*
X8777200Y-23443800D01*
X9031200Y-23443800D01*
X9031200Y-23463800D01*
X9860200Y-23463800D01*
X9860200Y-23138800D01*
X9817054Y-22954734D01*
X9738828Y-22782622D01*
X9703181Y-22733000D01*
X9769974Y-22733000D01*
X11393804Y-24356832D01*
X11407324Y-24373306D01*
X11473074Y-24427266D01*
X11548088Y-24467361D01*
X11629482Y-24492052D01*
X11714129Y-24500389D01*
X11735339Y-24498300D01*
X14119538Y-24498300D01*
X14121786Y-24500548D01*
X14213309Y-24561702D01*
X14315004Y-24603826D01*
X14422963Y-24625300D01*
X14533037Y-24625300D01*
X14640996Y-24603826D01*
X14742691Y-24561702D01*
X14834214Y-24500548D01*
X14912048Y-24422714D01*
X14973202Y-24331191D01*
X15015326Y-24229496D01*
X15036800Y-24121537D01*
X15036800Y-24011463D01*
X15015326Y-23903504D01*
X14973202Y-23801809D01*
X14912048Y-23710286D01*
X14834214Y-23632452D01*
X14742691Y-23571298D01*
X14681200Y-23545827D01*
X14681200Y-23465363D01*
X14674964Y-23434010D01*
X18396027Y-23434010D01*
X18385674Y-23459004D01*
X18364200Y-23566963D01*
X18364200Y-23677037D01*
X18385674Y-23784996D01*
X18396774Y-23811794D01*
X18375307Y-23837952D01*
X18332219Y-23918565D01*
X18305685Y-24006034D01*
X18296726Y-24097000D01*
X18296726Y-24417000D01*
X18305685Y-24507966D01*
X18332219Y-24595435D01*
X18375307Y-24676048D01*
X18433294Y-24746706D01*
X18503952Y-24804693D01*
X18584565Y-24847781D01*
X18672034Y-24874315D01*
X18763000Y-24883274D01*
X19158000Y-24883274D01*
X19248966Y-24874315D01*
X19336435Y-24847781D01*
X19417048Y-24804693D01*
X19487706Y-24746706D01*
X19545693Y-24676048D01*
X19558000Y-24653023D01*
X19570307Y-24676048D01*
X19628294Y-24746706D01*
X19698952Y-24804693D01*
X19779565Y-24847781D01*
X19867034Y-24874315D01*
X19958000Y-24883274D01*
X20353000Y-24883274D01*
X20443966Y-24874315D01*
X20531435Y-24847781D01*
X20612048Y-24804693D01*
X20682706Y-24746706D01*
X20740693Y-24676048D01*
X20783781Y-24595435D01*
X20810315Y-24507966D01*
X20819274Y-24417000D01*
X20819274Y-24287462D01*
X20930726Y-24176010D01*
X20930726Y-24595000D01*
X20936611Y-24654751D01*
X20954040Y-24712206D01*
X20982342Y-24765157D01*
X21020432Y-24811568D01*
X21066843Y-24849658D01*
X21119794Y-24877960D01*
X21177249Y-24895389D01*
X21237000Y-24901274D01*
X22237000Y-24901274D01*
X22296751Y-24895389D01*
X22354206Y-24877960D01*
X22407157Y-24849658D01*
X22453568Y-24811568D01*
X22491658Y-24765157D01*
X22519960Y-24712206D01*
X22537389Y-24654751D01*
X22543274Y-24595000D01*
X22543274Y-24068962D01*
X22811565Y-23800671D01*
X22852402Y-23841508D01*
X22952246Y-23908221D01*
X23063186Y-23954174D01*
X23180960Y-23977600D01*
X23301040Y-23977600D01*
X23418814Y-23954174D01*
X23430726Y-23949240D01*
X23430726Y-24595000D01*
X23436611Y-24654751D01*
X23454040Y-24712206D01*
X23482342Y-24765157D01*
X23520432Y-24811568D01*
X23566843Y-24849658D01*
X23619794Y-24877960D01*
X23677249Y-24895389D01*
X23737000Y-24901274D01*
X24737000Y-24901274D01*
X24796751Y-24895389D01*
X24854206Y-24877960D01*
X24907157Y-24849658D01*
X24953568Y-24811568D01*
X24991658Y-24765157D01*
X25019960Y-24712206D01*
X25037389Y-24654751D01*
X25043274Y-24595000D01*
X25043274Y-23963462D01*
X25070201Y-23936535D01*
X25070201Y-24875859D01*
X25065255Y-24926305D01*
X25055292Y-24959303D01*
X25039107Y-24989742D01*
X25017324Y-25016450D01*
X24990765Y-25038422D01*
X24960439Y-25054819D01*
X24927514Y-25065011D01*
X24878148Y-25070200D01*
X524131Y-25070200D01*
X473695Y-25065255D01*
X440697Y-25055292D01*
X410258Y-25039107D01*
X383550Y-25017324D01*
X361578Y-24990765D01*
X345181Y-24960439D01*
X334989Y-24927514D01*
X329800Y-24878148D01*
X329800Y-24413216D01*
X429872Y-24552522D01*
X568008Y-24681597D01*
X728671Y-24781243D01*
X880538Y-24831794D01*
X1027200Y-24767129D01*
X1027200Y-23717800D01*
X1281200Y-23717800D01*
X1281200Y-24767129D01*
X1427862Y-24831794D01*
X1579729Y-24781243D01*
X1740392Y-24681597D01*
X1878528Y-24552522D01*
X1988828Y-24398978D01*
X2067054Y-24226866D01*
X2110200Y-24042800D01*
X2110200Y-23717800D01*
X7948200Y-23717800D01*
X7948200Y-24042800D01*
X7991346Y-24226866D01*
X8069572Y-24398978D01*
X8179872Y-24552522D01*
X8318008Y-24681597D01*
X8478671Y-24781243D01*
X8630538Y-24831794D01*
X8777200Y-24767129D01*
X8777200Y-23717800D01*
X9031200Y-23717800D01*
X9031200Y-24767129D01*
X9177862Y-24831794D01*
X9329729Y-24781243D01*
X9490392Y-24681597D01*
X9628528Y-24552522D01*
X9738828Y-24398978D01*
X9817054Y-24226866D01*
X9860200Y-24042800D01*
X9860200Y-23717800D01*
X9031200Y-23717800D01*
X8777200Y-23717800D01*
X7948200Y-23717800D01*
X2110200Y-23717800D01*
X1281200Y-23717800D01*
X1027200Y-23717800D01*
X1007200Y-23717800D01*
X1007200Y-23463800D01*
X1027200Y-23463800D01*
X1027200Y-22414471D01*
X1281200Y-22414471D01*
X1281200Y-23463800D01*
X2110200Y-23463800D01*
X2110200Y-23138800D01*
X2067054Y-22954734D01*
X1988828Y-22782622D01*
X1878528Y-22629078D01*
X1740392Y-22500003D01*
X1579729Y-22400357D01*
X1427862Y-22349806D01*
X1281200Y-22414471D01*
X1027200Y-22414471D01*
X880538Y-22349806D01*
X728671Y-22400357D01*
X568008Y-22500003D01*
X429872Y-22629078D01*
X329800Y-22768384D01*
X329800Y-20603634D01*
X330990Y-20606381D01*
X455152Y-20785858D01*
X611943Y-20937663D01*
X795337Y-21055963D01*
X1006892Y-21131090D01*
X1177200Y-21068540D01*
X1177200Y-19917800D01*
X1157200Y-19917800D01*
X1157200Y-19663800D01*
X1177200Y-19663800D01*
X1177200Y-18513060D01*
X1431200Y-18513060D01*
X1431200Y-19663800D01*
X2410200Y-19663800D01*
X2410200Y-19388800D01*
X2364172Y-19175470D01*
X2277410Y-18975219D01*
X2153248Y-18795742D01*
X1996457Y-18643937D01*
X1813063Y-18525637D01*
X1601508Y-18450510D01*
X1431200Y-18513060D01*
X1177200Y-18513060D01*
X1006892Y-18450510D01*
X795337Y-18525637D01*
X611943Y-18643937D01*
X455152Y-18795742D01*
X330990Y-18975219D01*
X329800Y-18977966D01*
X329800Y-15663283D01*
X355678Y-15711696D01*
G37*
%TD.AperFunction*%
D32*
X22043226Y-20047000D02*
X22052185Y-20137966D01*
X22078719Y-20225435D01*
X22121807Y-20306048D01*
X22179794Y-20376706D01*
X22250452Y-20434693D01*
X22273477Y-20447000D01*
X22250452Y-20459307D01*
X22179794Y-20517294D01*
X22121807Y-20587952D01*
X22078719Y-20668565D01*
X22052185Y-20756034D01*
X22043226Y-20847000D01*
X22043226Y-21242000D01*
X22052185Y-21332966D01*
X22078719Y-21420435D01*
X22121807Y-21501048D01*
X22136101Y-21518465D01*
X22136101Y-22088726D01*
X21237000Y-22088726D01*
X21177249Y-22094611D01*
X21119794Y-22112040D01*
X21066843Y-22140342D01*
X21020432Y-22178432D01*
X20982342Y-22224843D01*
X20954040Y-22277794D01*
X20936611Y-22335249D01*
X20930726Y-22395000D01*
X20930726Y-23026538D01*
X20326538Y-23630726D01*
X19958000Y-23630726D01*
X19867034Y-23639685D01*
X19779565Y-23666219D01*
X19698952Y-23709307D01*
X19628294Y-23767294D01*
X19570307Y-23837952D01*
X19558000Y-23860977D01*
X19545693Y-23837952D01*
X19487706Y-23767294D01*
X19467195Y-23750461D01*
X19481800Y-23677037D01*
X19481800Y-23566963D01*
X19460326Y-23459004D01*
X19418202Y-23357309D01*
X19357048Y-23265786D01*
X19279214Y-23187952D01*
X19240040Y-23161776D01*
X19960917Y-22440900D01*
X20026627Y-22440900D01*
X20046580Y-22442865D01*
X20066533Y-22440900D01*
X20066540Y-22440900D01*
X20126248Y-22435019D01*
X20202855Y-22411781D01*
X20273456Y-22374044D01*
X20335338Y-22323258D01*
X20348062Y-22307754D01*
X21522864Y-21132952D01*
X21538368Y-21120228D01*
X21589154Y-21058346D01*
X21626891Y-20987745D01*
X21643511Y-20932956D01*
X21650129Y-20911139D01*
X21653174Y-20880225D01*
X21656010Y-20851430D01*
X21656010Y-20851424D01*
X21657975Y-20831471D01*
X21656010Y-20811518D01*
X21656010Y-20066726D01*
X22043226Y-19679510D01*
X22043226Y-20047000D01*
%TA.AperFunction,Conductor*%
D33*
G36*
X22043226Y-20047000D02*
G01*
X22052185Y-20137966D01*
X22078719Y-20225435D01*
X22121807Y-20306048D01*
X22179794Y-20376706D01*
X22250452Y-20434693D01*
X22273477Y-20447000D01*
X22250452Y-20459307D01*
X22179794Y-20517294D01*
X22121807Y-20587952D01*
X22078719Y-20668565D01*
X22052185Y-20756034D01*
X22043226Y-20847000D01*
X22043226Y-21242000D01*
X22052185Y-21332966D01*
X22078719Y-21420435D01*
X22121807Y-21501048D01*
X22136101Y-21518465D01*
X22136101Y-22088726D01*
X21237000Y-22088726D01*
X21177249Y-22094611D01*
X21119794Y-22112040D01*
X21066843Y-22140342D01*
X21020432Y-22178432D01*
X20982342Y-22224843D01*
X20954040Y-22277794D01*
X20936611Y-22335249D01*
X20930726Y-22395000D01*
X20930726Y-23026538D01*
X20326538Y-23630726D01*
X19958000Y-23630726D01*
X19867034Y-23639685D01*
X19779565Y-23666219D01*
X19698952Y-23709307D01*
X19628294Y-23767294D01*
X19570307Y-23837952D01*
X19558000Y-23860977D01*
X19545693Y-23837952D01*
X19487706Y-23767294D01*
X19467195Y-23750461D01*
X19481800Y-23677037D01*
X19481800Y-23566963D01*
X19460326Y-23459004D01*
X19418202Y-23357309D01*
X19357048Y-23265786D01*
X19279214Y-23187952D01*
X19240040Y-23161776D01*
X19960917Y-22440900D01*
X20026627Y-22440900D01*
X20046580Y-22442865D01*
X20066533Y-22440900D01*
X20066540Y-22440900D01*
X20126248Y-22435019D01*
X20202855Y-22411781D01*
X20273456Y-22374044D01*
X20335338Y-22323258D01*
X20348062Y-22307754D01*
X21522864Y-21132952D01*
X21538368Y-21120228D01*
X21589154Y-21058346D01*
X21626891Y-20987745D01*
X21643511Y-20932956D01*
X21650129Y-20911139D01*
X21653174Y-20880225D01*
X21656010Y-20851430D01*
X21656010Y-20851424D01*
X21657975Y-20831471D01*
X21656010Y-20811518D01*
X21656010Y-20066726D01*
X22043226Y-19679510D01*
X22043226Y-20047000D01*
G37*
%TD.AperFunction*%
D32*
X24417000Y-11173000D02*
X24437000Y-11173000D01*
X24437000Y-11427000D01*
X24417000Y-11427000D01*
X24417000Y-12335750D01*
X24512250Y-12431000D01*
X25070200Y-12432172D01*
X25070201Y-21157957D01*
X25020638Y-21148099D01*
X24910564Y-21148099D01*
X24802605Y-21169573D01*
X24700910Y-21211697D01*
X24609387Y-21272851D01*
X24531553Y-21350685D01*
X24470399Y-21442208D01*
X24428275Y-21543903D01*
X24406801Y-21651862D01*
X24406801Y-21761936D01*
X24428275Y-21869895D01*
X24470399Y-21971590D01*
X24531553Y-22063113D01*
X24557166Y-22088726D01*
X23737000Y-22088726D01*
X23677249Y-22094611D01*
X23619794Y-22112040D01*
X23566843Y-22140342D01*
X23520432Y-22178432D01*
X23482342Y-22224843D01*
X23454040Y-22277794D01*
X23436611Y-22335249D01*
X23430726Y-22395000D01*
X23430726Y-22531696D01*
X23204023Y-22758400D01*
X23180960Y-22758400D01*
X23063186Y-22781826D01*
X22952246Y-22827779D01*
X22948900Y-22830015D01*
X22948900Y-21690689D01*
X23007935Y-21672781D01*
X23068347Y-21640491D01*
X23094789Y-21672711D01*
X23152804Y-21720322D01*
X23218992Y-21755701D01*
X23290811Y-21777487D01*
X23365500Y-21784843D01*
X23463250Y-21783000D01*
X23558500Y-21687750D01*
X23558500Y-21171500D01*
X23812500Y-21171500D01*
X23812500Y-21687750D01*
X23907750Y-21783000D01*
X24005500Y-21784843D01*
X24080189Y-21777487D01*
X24152008Y-21755701D01*
X24218196Y-21720322D01*
X24276211Y-21672711D01*
X24323822Y-21614696D01*
X24359201Y-21548508D01*
X24380987Y-21476689D01*
X24388343Y-21402000D01*
X24386500Y-21266750D01*
X24291250Y-21171500D01*
X23812500Y-21171500D01*
X23558500Y-21171500D01*
X23538500Y-21171500D01*
X23538500Y-20917500D01*
X23558500Y-20917500D01*
X23558500Y-20897500D01*
X23812500Y-20897500D01*
X23812500Y-20917500D01*
X24291250Y-20917500D01*
X24386500Y-20822250D01*
X24388343Y-20687000D01*
X24380987Y-20612311D01*
X24359201Y-20540492D01*
X24323822Y-20474304D01*
X24276211Y-20416289D01*
X24218196Y-20368678D01*
X24192894Y-20355153D01*
X24233193Y-20306048D01*
X24276281Y-20225435D01*
X24302815Y-20137966D01*
X24311774Y-20047000D01*
X24311774Y-19652000D01*
X24302815Y-19561034D01*
X24276281Y-19473565D01*
X24233193Y-19392952D01*
X24175206Y-19322294D01*
X24104548Y-19264307D01*
X24091900Y-19257547D01*
X24091900Y-18808274D01*
X24422500Y-18808274D01*
X24482251Y-18802389D01*
X24539706Y-18784960D01*
X24592657Y-18756658D01*
X24639068Y-18718568D01*
X24677158Y-18672157D01*
X24705460Y-18619206D01*
X24722889Y-18561751D01*
X24728774Y-18502000D01*
X24728774Y-17102000D01*
X24722889Y-17042249D01*
X24705460Y-16984794D01*
X24677158Y-16931843D01*
X24639068Y-16885432D01*
X24592657Y-16847342D01*
X24539706Y-16819040D01*
X24482251Y-16801611D01*
X24422500Y-16795726D01*
X23837900Y-16795726D01*
X23837900Y-16611504D01*
X23886502Y-16631636D01*
X24013008Y-16656800D01*
X24141992Y-16656800D01*
X24268498Y-16631636D01*
X24387664Y-16582276D01*
X24494910Y-16510616D01*
X24586116Y-16419410D01*
X24657776Y-16312164D01*
X24707136Y-16192998D01*
X24732300Y-16066492D01*
X24732300Y-15937508D01*
X24707136Y-15811002D01*
X24657776Y-15691836D01*
X24586116Y-15584590D01*
X24494910Y-15493384D01*
X24387664Y-15421724D01*
X24268498Y-15372364D01*
X24141992Y-15347200D01*
X24013008Y-15347200D01*
X23886502Y-15372364D01*
X23837900Y-15392496D01*
X23837900Y-15208274D01*
X24422500Y-15208274D01*
X24482251Y-15202389D01*
X24539706Y-15184960D01*
X24592657Y-15156658D01*
X24639068Y-15118568D01*
X24677158Y-15072157D01*
X24705460Y-15019206D01*
X24722889Y-14961751D01*
X24728774Y-14902000D01*
X24728774Y-13502000D01*
X24722889Y-13442249D01*
X24705460Y-13384794D01*
X24677158Y-13331843D01*
X24639068Y-13285432D01*
X24592657Y-13247342D01*
X24539706Y-13219040D01*
X24482251Y-13201611D01*
X24422500Y-13195726D01*
X23372500Y-13195726D01*
X23312749Y-13201611D01*
X23255294Y-13219040D01*
X23202343Y-13247342D01*
X23177500Y-13267731D01*
X23152657Y-13247342D01*
X23099706Y-13219040D01*
X23042251Y-13201611D01*
X22982500Y-13195726D01*
X22009927Y-13195726D01*
X22021800Y-13136037D01*
X22021800Y-13025963D01*
X22000326Y-12918004D01*
X21958202Y-12816309D01*
X21897048Y-12724786D01*
X21819214Y-12646952D01*
X21727691Y-12585798D01*
X21625996Y-12543674D01*
X21518037Y-12522200D01*
X21452109Y-12522200D01*
X21421275Y-12505719D01*
X21361607Y-12487619D01*
X21384468Y-12412260D01*
X21388650Y-12369800D01*
X22171600Y-12369800D01*
X22237686Y-12397174D01*
X22355460Y-12420600D01*
X22475540Y-12420600D01*
X22593314Y-12397174D01*
X22704254Y-12351221D01*
X22804098Y-12284508D01*
X22855736Y-12232870D01*
X22871678Y-12262696D01*
X22919289Y-12320711D01*
X22977304Y-12368322D01*
X23043492Y-12403701D01*
X23115311Y-12425487D01*
X23190000Y-12432843D01*
X24067750Y-12431000D01*
X24163000Y-12335750D01*
X24163000Y-11427000D01*
X24143000Y-11427000D01*
X24143000Y-11173000D01*
X24163000Y-11173000D01*
X24163000Y-10914800D01*
X24417000Y-10914800D01*
X24417000Y-11173000D01*
%TA.AperFunction,Conductor*%
D33*
G36*
X24417000Y-11173000D02*
G01*
X24437000Y-11173000D01*
X24437000Y-11427000D01*
X24417000Y-11427000D01*
X24417000Y-12335750D01*
X24512250Y-12431000D01*
X25070200Y-12432172D01*
X25070201Y-21157957D01*
X25020638Y-21148099D01*
X24910564Y-21148099D01*
X24802605Y-21169573D01*
X24700910Y-21211697D01*
X24609387Y-21272851D01*
X24531553Y-21350685D01*
X24470399Y-21442208D01*
X24428275Y-21543903D01*
X24406801Y-21651862D01*
X24406801Y-21761936D01*
X24428275Y-21869895D01*
X24470399Y-21971590D01*
X24531553Y-22063113D01*
X24557166Y-22088726D01*
X23737000Y-22088726D01*
X23677249Y-22094611D01*
X23619794Y-22112040D01*
X23566843Y-22140342D01*
X23520432Y-22178432D01*
X23482342Y-22224843D01*
X23454040Y-22277794D01*
X23436611Y-22335249D01*
X23430726Y-22395000D01*
X23430726Y-22531696D01*
X23204023Y-22758400D01*
X23180960Y-22758400D01*
X23063186Y-22781826D01*
X22952246Y-22827779D01*
X22948900Y-22830015D01*
X22948900Y-21690689D01*
X23007935Y-21672781D01*
X23068347Y-21640491D01*
X23094789Y-21672711D01*
X23152804Y-21720322D01*
X23218992Y-21755701D01*
X23290811Y-21777487D01*
X23365500Y-21784843D01*
X23463250Y-21783000D01*
X23558500Y-21687750D01*
X23558500Y-21171500D01*
X23812500Y-21171500D01*
X23812500Y-21687750D01*
X23907750Y-21783000D01*
X24005500Y-21784843D01*
X24080189Y-21777487D01*
X24152008Y-21755701D01*
X24218196Y-21720322D01*
X24276211Y-21672711D01*
X24323822Y-21614696D01*
X24359201Y-21548508D01*
X24380987Y-21476689D01*
X24388343Y-21402000D01*
X24386500Y-21266750D01*
X24291250Y-21171500D01*
X23812500Y-21171500D01*
X23558500Y-21171500D01*
X23538500Y-21171500D01*
X23538500Y-20917500D01*
X23558500Y-20917500D01*
X23558500Y-20897500D01*
X23812500Y-20897500D01*
X23812500Y-20917500D01*
X24291250Y-20917500D01*
X24386500Y-20822250D01*
X24388343Y-20687000D01*
X24380987Y-20612311D01*
X24359201Y-20540492D01*
X24323822Y-20474304D01*
X24276211Y-20416289D01*
X24218196Y-20368678D01*
X24192894Y-20355153D01*
X24233193Y-20306048D01*
X24276281Y-20225435D01*
X24302815Y-20137966D01*
X24311774Y-20047000D01*
X24311774Y-19652000D01*
X24302815Y-19561034D01*
X24276281Y-19473565D01*
X24233193Y-19392952D01*
X24175206Y-19322294D01*
X24104548Y-19264307D01*
X24091900Y-19257547D01*
X24091900Y-18808274D01*
X24422500Y-18808274D01*
X24482251Y-18802389D01*
X24539706Y-18784960D01*
X24592657Y-18756658D01*
X24639068Y-18718568D01*
X24677158Y-18672157D01*
X24705460Y-18619206D01*
X24722889Y-18561751D01*
X24728774Y-18502000D01*
X24728774Y-17102000D01*
X24722889Y-17042249D01*
X24705460Y-16984794D01*
X24677158Y-16931843D01*
X24639068Y-16885432D01*
X24592657Y-16847342D01*
X24539706Y-16819040D01*
X24482251Y-16801611D01*
X24422500Y-16795726D01*
X23837900Y-16795726D01*
X23837900Y-16611504D01*
X23886502Y-16631636D01*
X24013008Y-16656800D01*
X24141992Y-16656800D01*
X24268498Y-16631636D01*
X24387664Y-16582276D01*
X24494910Y-16510616D01*
X24586116Y-16419410D01*
X24657776Y-16312164D01*
X24707136Y-16192998D01*
X24732300Y-16066492D01*
X24732300Y-15937508D01*
X24707136Y-15811002D01*
X24657776Y-15691836D01*
X24586116Y-15584590D01*
X24494910Y-15493384D01*
X24387664Y-15421724D01*
X24268498Y-15372364D01*
X24141992Y-15347200D01*
X24013008Y-15347200D01*
X23886502Y-15372364D01*
X23837900Y-15392496D01*
X23837900Y-15208274D01*
X24422500Y-15208274D01*
X24482251Y-15202389D01*
X24539706Y-15184960D01*
X24592657Y-15156658D01*
X24639068Y-15118568D01*
X24677158Y-15072157D01*
X24705460Y-15019206D01*
X24722889Y-14961751D01*
X24728774Y-14902000D01*
X24728774Y-13502000D01*
X24722889Y-13442249D01*
X24705460Y-13384794D01*
X24677158Y-13331843D01*
X24639068Y-13285432D01*
X24592657Y-13247342D01*
X24539706Y-13219040D01*
X24482251Y-13201611D01*
X24422500Y-13195726D01*
X23372500Y-13195726D01*
X23312749Y-13201611D01*
X23255294Y-13219040D01*
X23202343Y-13247342D01*
X23177500Y-13267731D01*
X23152657Y-13247342D01*
X23099706Y-13219040D01*
X23042251Y-13201611D01*
X22982500Y-13195726D01*
X22009927Y-13195726D01*
X22021800Y-13136037D01*
X22021800Y-13025963D01*
X22000326Y-12918004D01*
X21958202Y-12816309D01*
X21897048Y-12724786D01*
X21819214Y-12646952D01*
X21727691Y-12585798D01*
X21625996Y-12543674D01*
X21518037Y-12522200D01*
X21452109Y-12522200D01*
X21421275Y-12505719D01*
X21361607Y-12487619D01*
X21384468Y-12412260D01*
X21388650Y-12369800D01*
X22171600Y-12369800D01*
X22237686Y-12397174D01*
X22355460Y-12420600D01*
X22475540Y-12420600D01*
X22593314Y-12397174D01*
X22704254Y-12351221D01*
X22804098Y-12284508D01*
X22855736Y-12232870D01*
X22871678Y-12262696D01*
X22919289Y-12320711D01*
X22977304Y-12368322D01*
X23043492Y-12403701D01*
X23115311Y-12425487D01*
X23190000Y-12432843D01*
X24067750Y-12431000D01*
X24163000Y-12335750D01*
X24163000Y-11427000D01*
X24143000Y-11427000D01*
X24143000Y-11173000D01*
X24163000Y-11173000D01*
X24163000Y-10914800D01*
X24417000Y-10914800D01*
X24417000Y-11173000D01*
G37*
%TD.AperFunction*%
D32*
X13515440Y-20300210D02*
X13576594Y-20391733D01*
X13654428Y-20469567D01*
X13745951Y-20530721D01*
X13792200Y-20549878D01*
X13792200Y-20629037D01*
X13813674Y-20736996D01*
X13849230Y-20822836D01*
X13823719Y-20870565D01*
X13797185Y-20958034D01*
X13788226Y-21049000D01*
X13788226Y-21444000D01*
X13797185Y-21534966D01*
X13823719Y-21622435D01*
X13866807Y-21703048D01*
X13924794Y-21773706D01*
X13995452Y-21831693D01*
X14018477Y-21844000D01*
X13995452Y-21856307D01*
X13924794Y-21914294D01*
X13866807Y-21984952D01*
X13842846Y-22029780D01*
X13839281Y-22018027D01*
X13801544Y-21947426D01*
X13750758Y-21885544D01*
X13735254Y-21872820D01*
X13115679Y-21253245D01*
X13102956Y-21237742D01*
X13041074Y-21186956D01*
X12970473Y-21149219D01*
X12893866Y-21125981D01*
X12834158Y-21120100D01*
X12834151Y-21120100D01*
X12814198Y-21118135D01*
X12794245Y-21120100D01*
X10785162Y-21120100D01*
X10848048Y-21057214D01*
X10909202Y-20965691D01*
X10951326Y-20863996D01*
X10972800Y-20756037D01*
X10972800Y-20645963D01*
X10951326Y-20538004D01*
X10909202Y-20436309D01*
X10852701Y-20351750D01*
X10909202Y-20267191D01*
X10931647Y-20213005D01*
X10936118Y-20212565D01*
X13479136Y-20212565D01*
X13515440Y-20300210D01*
%TA.AperFunction,Conductor*%
D33*
G36*
X13515440Y-20300210D02*
G01*
X13576594Y-20391733D01*
X13654428Y-20469567D01*
X13745951Y-20530721D01*
X13792200Y-20549878D01*
X13792200Y-20629037D01*
X13813674Y-20736996D01*
X13849230Y-20822836D01*
X13823719Y-20870565D01*
X13797185Y-20958034D01*
X13788226Y-21049000D01*
X13788226Y-21444000D01*
X13797185Y-21534966D01*
X13823719Y-21622435D01*
X13866807Y-21703048D01*
X13924794Y-21773706D01*
X13995452Y-21831693D01*
X14018477Y-21844000D01*
X13995452Y-21856307D01*
X13924794Y-21914294D01*
X13866807Y-21984952D01*
X13842846Y-22029780D01*
X13839281Y-22018027D01*
X13801544Y-21947426D01*
X13750758Y-21885544D01*
X13735254Y-21872820D01*
X13115679Y-21253245D01*
X13102956Y-21237742D01*
X13041074Y-21186956D01*
X12970473Y-21149219D01*
X12893866Y-21125981D01*
X12834158Y-21120100D01*
X12834151Y-21120100D01*
X12814198Y-21118135D01*
X12794245Y-21120100D01*
X10785162Y-21120100D01*
X10848048Y-21057214D01*
X10909202Y-20965691D01*
X10951326Y-20863996D01*
X10972800Y-20756037D01*
X10972800Y-20645963D01*
X10951326Y-20538004D01*
X10909202Y-20436309D01*
X10852701Y-20351750D01*
X10909202Y-20267191D01*
X10931647Y-20213005D01*
X10936118Y-20212565D01*
X13479136Y-20212565D01*
X13515440Y-20300210D01*
G37*
%TD.AperFunction*%
D32*
X18554798Y-13324309D02*
X18512674Y-13426004D01*
X18491200Y-13533963D01*
X18491200Y-13644037D01*
X18512674Y-13751996D01*
X18554798Y-13853691D01*
X18615952Y-13945214D01*
X18693786Y-14023048D01*
X18785309Y-14084202D01*
X18887004Y-14126326D01*
X18994963Y-14147800D01*
X19105037Y-14147800D01*
X19154726Y-14137916D01*
X19154726Y-14283000D01*
X19162532Y-14362260D01*
X19185652Y-14438474D01*
X19223196Y-14508714D01*
X19273721Y-14570279D01*
X19335286Y-14620804D01*
X19385981Y-14647901D01*
X19380200Y-14676963D01*
X19380200Y-14787037D01*
X19401674Y-14894996D01*
X19443798Y-14996691D01*
X19504952Y-15088214D01*
X19532601Y-15115863D01*
X19532600Y-15894959D01*
X19532601Y-15894969D01*
X19532600Y-17230664D01*
X18846800Y-17916464D01*
X18846800Y-16791441D01*
X18849503Y-16763999D01*
X18845420Y-16722542D01*
X18838714Y-16654456D01*
X18806761Y-16549122D01*
X18754873Y-16452046D01*
X18697414Y-16382032D01*
X18747339Y-16348673D01*
X18825173Y-16270839D01*
X18886327Y-16179316D01*
X18928451Y-16077621D01*
X18949925Y-15969662D01*
X18949925Y-15859588D01*
X18928451Y-15751629D01*
X18923001Y-15738472D01*
X18923001Y-15345804D01*
X18924966Y-15325851D01*
X18923001Y-15305898D01*
X18923001Y-15305891D01*
X18917120Y-15246183D01*
X18916796Y-15245113D01*
X18893882Y-15169576D01*
X18883657Y-15150447D01*
X18856145Y-15098975D01*
X18832600Y-15070286D01*
X18818083Y-15052596D01*
X18818078Y-15052591D01*
X18805359Y-15037093D01*
X18789860Y-15024373D01*
X18160732Y-14395246D01*
X18148008Y-14379742D01*
X18086126Y-14328956D01*
X18015525Y-14291219D01*
X17938918Y-14267981D01*
X17879210Y-14262100D01*
X17879203Y-14262100D01*
X17859250Y-14260135D01*
X17839297Y-14262100D01*
X17152850Y-14262100D01*
X17146750Y-14256000D01*
X16175500Y-14256000D01*
X16175500Y-14262100D01*
X15921500Y-14262100D01*
X15921500Y-14256000D01*
X14950250Y-14256000D01*
X14944150Y-14262100D01*
X13558837Y-14262100D01*
X13571315Y-14220966D01*
X13580274Y-14130000D01*
X13580274Y-13836967D01*
X13623624Y-13872544D01*
X13694225Y-13910281D01*
X13751075Y-13927526D01*
X13770831Y-13933519D01*
X13778835Y-13934307D01*
X13830540Y-13939400D01*
X13830546Y-13939400D01*
X13850499Y-13941365D01*
X13870452Y-13939400D01*
X14857451Y-13939400D01*
X14853157Y-13983000D01*
X14855000Y-14014750D01*
X14950250Y-14110000D01*
X15921500Y-14110000D01*
X15921500Y-14039274D01*
X16175500Y-14039274D01*
X16175500Y-14110000D01*
X17146750Y-14110000D01*
X17242000Y-14014750D01*
X17243843Y-13983000D01*
X17236487Y-13908311D01*
X17214701Y-13836492D01*
X17179322Y-13770304D01*
X17151970Y-13736975D01*
X17159468Y-13712260D01*
X17167274Y-13633000D01*
X17167274Y-13433000D01*
X17159468Y-13353740D01*
X17139950Y-13289400D01*
X18578124Y-13289400D01*
X18554798Y-13324309D01*
%TA.AperFunction,Conductor*%
D33*
G36*
X18554798Y-13324309D02*
G01*
X18512674Y-13426004D01*
X18491200Y-13533963D01*
X18491200Y-13644037D01*
X18512674Y-13751996D01*
X18554798Y-13853691D01*
X18615952Y-13945214D01*
X18693786Y-14023048D01*
X18785309Y-14084202D01*
X18887004Y-14126326D01*
X18994963Y-14147800D01*
X19105037Y-14147800D01*
X19154726Y-14137916D01*
X19154726Y-14283000D01*
X19162532Y-14362260D01*
X19185652Y-14438474D01*
X19223196Y-14508714D01*
X19273721Y-14570279D01*
X19335286Y-14620804D01*
X19385981Y-14647901D01*
X19380200Y-14676963D01*
X19380200Y-14787037D01*
X19401674Y-14894996D01*
X19443798Y-14996691D01*
X19504952Y-15088214D01*
X19532601Y-15115863D01*
X19532600Y-15894959D01*
X19532601Y-15894969D01*
X19532600Y-17230664D01*
X18846800Y-17916464D01*
X18846800Y-16791441D01*
X18849503Y-16763999D01*
X18845420Y-16722542D01*
X18838714Y-16654456D01*
X18806761Y-16549122D01*
X18754873Y-16452046D01*
X18697414Y-16382032D01*
X18747339Y-16348673D01*
X18825173Y-16270839D01*
X18886327Y-16179316D01*
X18928451Y-16077621D01*
X18949925Y-15969662D01*
X18949925Y-15859588D01*
X18928451Y-15751629D01*
X18923001Y-15738472D01*
X18923001Y-15345804D01*
X18924966Y-15325851D01*
X18923001Y-15305898D01*
X18923001Y-15305891D01*
X18917120Y-15246183D01*
X18916796Y-15245113D01*
X18893882Y-15169576D01*
X18883657Y-15150447D01*
X18856145Y-15098975D01*
X18832600Y-15070286D01*
X18818083Y-15052596D01*
X18818078Y-15052591D01*
X18805359Y-15037093D01*
X18789860Y-15024373D01*
X18160732Y-14395246D01*
X18148008Y-14379742D01*
X18086126Y-14328956D01*
X18015525Y-14291219D01*
X17938918Y-14267981D01*
X17879210Y-14262100D01*
X17879203Y-14262100D01*
X17859250Y-14260135D01*
X17839297Y-14262100D01*
X17152850Y-14262100D01*
X17146750Y-14256000D01*
X16175500Y-14256000D01*
X16175500Y-14262100D01*
X15921500Y-14262100D01*
X15921500Y-14256000D01*
X14950250Y-14256000D01*
X14944150Y-14262100D01*
X13558837Y-14262100D01*
X13571315Y-14220966D01*
X13580274Y-14130000D01*
X13580274Y-13836967D01*
X13623624Y-13872544D01*
X13694225Y-13910281D01*
X13751075Y-13927526D01*
X13770831Y-13933519D01*
X13778835Y-13934307D01*
X13830540Y-13939400D01*
X13830546Y-13939400D01*
X13850499Y-13941365D01*
X13870452Y-13939400D01*
X14857451Y-13939400D01*
X14853157Y-13983000D01*
X14855000Y-14014750D01*
X14950250Y-14110000D01*
X15921500Y-14110000D01*
X15921500Y-14039274D01*
X16175500Y-14039274D01*
X16175500Y-14110000D01*
X17146750Y-14110000D01*
X17242000Y-14014750D01*
X17243843Y-13983000D01*
X17236487Y-13908311D01*
X17214701Y-13836492D01*
X17179322Y-13770304D01*
X17151970Y-13736975D01*
X17159468Y-13712260D01*
X17167274Y-13633000D01*
X17167274Y-13433000D01*
X17159468Y-13353740D01*
X17139950Y-13289400D01*
X18578124Y-13289400D01*
X18554798Y-13324309D01*
G37*
%TD.AperFunction*%
D32*
X16729246Y-15080779D02*
X16629402Y-15147492D01*
X16544492Y-15232402D01*
X16477779Y-15332246D01*
X16431826Y-15443186D01*
X16408400Y-15560960D01*
X16408400Y-15681040D01*
X16431826Y-15798814D01*
X16459200Y-15864900D01*
X16459200Y-16024610D01*
X16456497Y-16052052D01*
X16459200Y-16079494D01*
X16459200Y-16079496D01*
X16467286Y-16161596D01*
X16484382Y-16217952D01*
X16499239Y-16266929D01*
X16542704Y-16348246D01*
X16551128Y-16364006D01*
X16620596Y-16448654D01*
X16573500Y-16495750D01*
X16573500Y-17022000D01*
X17335500Y-17022000D01*
X17335500Y-17002000D01*
X17589500Y-17002000D01*
X17589500Y-17022000D01*
X17609500Y-17022000D01*
X17609500Y-17276000D01*
X17589500Y-17276000D01*
X17589500Y-17296000D01*
X17335500Y-17296000D01*
X17335500Y-17276000D01*
X16573500Y-17276000D01*
X16573500Y-17296000D01*
X16319500Y-17296000D01*
X16319500Y-17276000D01*
X15494000Y-17276000D01*
X15494000Y-17296000D01*
X15240000Y-17296000D01*
X15240000Y-17276000D01*
X15081897Y-17276000D01*
X15036814Y-17257326D01*
X14919040Y-17233900D01*
X14798960Y-17233900D01*
X14681186Y-17257326D01*
X14636103Y-17276000D01*
X14478000Y-17276000D01*
X14478000Y-17296000D01*
X14224000Y-17296000D01*
X14224000Y-17276000D01*
X13755250Y-17276000D01*
X13660000Y-17371250D01*
X13659809Y-17386300D01*
X13216383Y-17386300D01*
X13189706Y-17353794D01*
X13119048Y-17295807D01*
X13038435Y-17252719D01*
X12950966Y-17226185D01*
X12860000Y-17217226D01*
X12567510Y-17217226D01*
X12995338Y-16789399D01*
X13658257Y-16789399D01*
X13660000Y-16926750D01*
X13755250Y-17022000D01*
X14224000Y-17022000D01*
X14224000Y-17002000D01*
X14478000Y-17002000D01*
X14478000Y-17022000D01*
X15240000Y-17022000D01*
X15240000Y-16495750D01*
X15494000Y-16495750D01*
X15494000Y-17022000D01*
X16319500Y-17022000D01*
X16319500Y-16495750D01*
X16224250Y-16400500D01*
X16136500Y-16398657D01*
X16061811Y-16406013D01*
X15989992Y-16427799D01*
X15923804Y-16463178D01*
X15906750Y-16477174D01*
X15889696Y-16463178D01*
X15823508Y-16427799D01*
X15751689Y-16406013D01*
X15677000Y-16398657D01*
X15589250Y-16400500D01*
X15494000Y-16495750D01*
X15240000Y-16495750D01*
X15144750Y-16400500D01*
X15096332Y-16399483D01*
X15100202Y-16393691D01*
X15142326Y-16291996D01*
X15163800Y-16184037D01*
X15163800Y-16073963D01*
X15142326Y-15966004D01*
X15100202Y-15864309D01*
X15039048Y-15772786D01*
X14961214Y-15694952D01*
X14869691Y-15633798D01*
X14767996Y-15591674D01*
X14676260Y-15573427D01*
X14669939Y-15541649D01*
X14627815Y-15439954D01*
X14566661Y-15348431D01*
X14488827Y-15270597D01*
X14397304Y-15209443D01*
X14295609Y-15167319D01*
X14187650Y-15145845D01*
X14077576Y-15145845D01*
X13969617Y-15167319D01*
X13867922Y-15209443D01*
X13776399Y-15270597D01*
X13698565Y-15348431D01*
X13637411Y-15439954D01*
X13629164Y-15459863D01*
X12312774Y-15459863D01*
X12312774Y-15118500D01*
X12308480Y-15074900D01*
X16743439Y-15074900D01*
X16729246Y-15080779D01*
%TA.AperFunction,Conductor*%
D33*
G36*
X16729246Y-15080779D02*
G01*
X16629402Y-15147492D01*
X16544492Y-15232402D01*
X16477779Y-15332246D01*
X16431826Y-15443186D01*
X16408400Y-15560960D01*
X16408400Y-15681040D01*
X16431826Y-15798814D01*
X16459200Y-15864900D01*
X16459200Y-16024610D01*
X16456497Y-16052052D01*
X16459200Y-16079494D01*
X16459200Y-16079496D01*
X16467286Y-16161596D01*
X16484382Y-16217952D01*
X16499239Y-16266929D01*
X16542704Y-16348246D01*
X16551128Y-16364006D01*
X16620596Y-16448654D01*
X16573500Y-16495750D01*
X16573500Y-17022000D01*
X17335500Y-17022000D01*
X17335500Y-17002000D01*
X17589500Y-17002000D01*
X17589500Y-17022000D01*
X17609500Y-17022000D01*
X17609500Y-17276000D01*
X17589500Y-17276000D01*
X17589500Y-17296000D01*
X17335500Y-17296000D01*
X17335500Y-17276000D01*
X16573500Y-17276000D01*
X16573500Y-17296000D01*
X16319500Y-17296000D01*
X16319500Y-17276000D01*
X15494000Y-17276000D01*
X15494000Y-17296000D01*
X15240000Y-17296000D01*
X15240000Y-17276000D01*
X15081897Y-17276000D01*
X15036814Y-17257326D01*
X14919040Y-17233900D01*
X14798960Y-17233900D01*
X14681186Y-17257326D01*
X14636103Y-17276000D01*
X14478000Y-17276000D01*
X14478000Y-17296000D01*
X14224000Y-17296000D01*
X14224000Y-17276000D01*
X13755250Y-17276000D01*
X13660000Y-17371250D01*
X13659809Y-17386300D01*
X13216383Y-17386300D01*
X13189706Y-17353794D01*
X13119048Y-17295807D01*
X13038435Y-17252719D01*
X12950966Y-17226185D01*
X12860000Y-17217226D01*
X12567510Y-17217226D01*
X12995338Y-16789399D01*
X13658257Y-16789399D01*
X13660000Y-16926750D01*
X13755250Y-17022000D01*
X14224000Y-17022000D01*
X14224000Y-17002000D01*
X14478000Y-17002000D01*
X14478000Y-17022000D01*
X15240000Y-17022000D01*
X15240000Y-16495750D01*
X15494000Y-16495750D01*
X15494000Y-17022000D01*
X16319500Y-17022000D01*
X16319500Y-16495750D01*
X16224250Y-16400500D01*
X16136500Y-16398657D01*
X16061811Y-16406013D01*
X15989992Y-16427799D01*
X15923804Y-16463178D01*
X15906750Y-16477174D01*
X15889696Y-16463178D01*
X15823508Y-16427799D01*
X15751689Y-16406013D01*
X15677000Y-16398657D01*
X15589250Y-16400500D01*
X15494000Y-16495750D01*
X15240000Y-16495750D01*
X15144750Y-16400500D01*
X15096332Y-16399483D01*
X15100202Y-16393691D01*
X15142326Y-16291996D01*
X15163800Y-16184037D01*
X15163800Y-16073963D01*
X15142326Y-15966004D01*
X15100202Y-15864309D01*
X15039048Y-15772786D01*
X14961214Y-15694952D01*
X14869691Y-15633798D01*
X14767996Y-15591674D01*
X14676260Y-15573427D01*
X14669939Y-15541649D01*
X14627815Y-15439954D01*
X14566661Y-15348431D01*
X14488827Y-15270597D01*
X14397304Y-15209443D01*
X14295609Y-15167319D01*
X14187650Y-15145845D01*
X14077576Y-15145845D01*
X13969617Y-15167319D01*
X13867922Y-15209443D01*
X13776399Y-15270597D01*
X13698565Y-15348431D01*
X13637411Y-15439954D01*
X13629164Y-15459863D01*
X12312774Y-15459863D01*
X12312774Y-15118500D01*
X12308480Y-15074900D01*
X16743439Y-15074900D01*
X16729246Y-15080779D01*
G37*
%TD.AperFunction*%
D32*
X9150226Y-14868500D02*
X9156111Y-14928251D01*
X9173540Y-14985706D01*
X9177706Y-14993500D01*
X9173540Y-15001294D01*
X9156111Y-15058749D01*
X9150226Y-15118500D01*
X9150226Y-15518500D01*
X9156111Y-15578251D01*
X9173540Y-15635706D01*
X9201842Y-15688657D01*
X9239932Y-15735068D01*
X9286343Y-15773158D01*
X9339294Y-15801460D01*
X9396749Y-15818889D01*
X9456500Y-15824774D01*
X9728200Y-15824774D01*
X9728200Y-15930037D01*
X9744250Y-16010726D01*
X9619000Y-16010726D01*
X9528034Y-16019685D01*
X9440565Y-16046219D01*
X9359952Y-16089307D01*
X9330610Y-16113387D01*
X9305754Y-16096779D01*
X9194814Y-16050826D01*
X9077040Y-16027400D01*
X8956960Y-16027400D01*
X8839186Y-16050826D01*
X8728246Y-16096779D01*
X8628402Y-16163492D01*
X8543492Y-16248402D01*
X8504083Y-16307383D01*
X8407400Y-16210700D01*
X8407400Y-15507902D01*
X8845760Y-15069542D01*
X8861258Y-15056824D01*
X8873977Y-15041326D01*
X8873982Y-15041321D01*
X8901702Y-15007543D01*
X8912044Y-14994942D01*
X8949781Y-14924341D01*
X8950984Y-14920375D01*
X8991548Y-14898693D01*
X9062206Y-14840706D01*
X9120193Y-14770048D01*
X9150226Y-14713859D01*
X9150226Y-14868500D01*
%TA.AperFunction,Conductor*%
D33*
G36*
X9150226Y-14868500D02*
G01*
X9156111Y-14928251D01*
X9173540Y-14985706D01*
X9177706Y-14993500D01*
X9173540Y-15001294D01*
X9156111Y-15058749D01*
X9150226Y-15118500D01*
X9150226Y-15518500D01*
X9156111Y-15578251D01*
X9173540Y-15635706D01*
X9201842Y-15688657D01*
X9239932Y-15735068D01*
X9286343Y-15773158D01*
X9339294Y-15801460D01*
X9396749Y-15818889D01*
X9456500Y-15824774D01*
X9728200Y-15824774D01*
X9728200Y-15930037D01*
X9744250Y-16010726D01*
X9619000Y-16010726D01*
X9528034Y-16019685D01*
X9440565Y-16046219D01*
X9359952Y-16089307D01*
X9330610Y-16113387D01*
X9305754Y-16096779D01*
X9194814Y-16050826D01*
X9077040Y-16027400D01*
X8956960Y-16027400D01*
X8839186Y-16050826D01*
X8728246Y-16096779D01*
X8628402Y-16163492D01*
X8543492Y-16248402D01*
X8504083Y-16307383D01*
X8407400Y-16210700D01*
X8407400Y-15507902D01*
X8845760Y-15069542D01*
X8861258Y-15056824D01*
X8873977Y-15041326D01*
X8873982Y-15041321D01*
X8901702Y-15007543D01*
X8912044Y-14994942D01*
X8949781Y-14924341D01*
X8950984Y-14920375D01*
X8991548Y-14898693D01*
X9062206Y-14840706D01*
X9120193Y-14770048D01*
X9150226Y-14713859D01*
X9150226Y-14868500D01*
G37*
%TD.AperFunction*%
D32*
X419342Y-12778843D02*
X391040Y-12831794D01*
X373611Y-12889249D01*
X367726Y-12949000D01*
X367726Y-13599000D01*
X373611Y-13658751D01*
X391040Y-13716206D01*
X419342Y-13769157D01*
X457432Y-13815568D01*
X503843Y-13853658D01*
X534850Y-13870231D01*
X544364Y-13881823D01*
X572518Y-13916130D01*
X572524Y-13916136D01*
X585243Y-13931634D01*
X600741Y-13944353D01*
X1127848Y-14471460D01*
X1074000Y-14466157D01*
X1042250Y-14468000D01*
X947000Y-14563250D01*
X947000Y-15047000D01*
X1017726Y-15047000D01*
X1017726Y-15301000D01*
X947000Y-15301000D01*
X947000Y-15321000D01*
X801000Y-15321000D01*
X801000Y-15301000D01*
X727000Y-15301000D01*
X727000Y-15047000D01*
X801000Y-15047000D01*
X801000Y-14563250D01*
X705750Y-14468000D01*
X674000Y-14466157D01*
X599311Y-14473513D01*
X527492Y-14495299D01*
X461304Y-14530678D01*
X403289Y-14578289D01*
X355678Y-14636304D01*
X329800Y-14684717D01*
X329800Y-12732724D01*
X457301Y-12732592D01*
X419342Y-12778843D01*
%TA.AperFunction,Conductor*%
D33*
G36*
X419342Y-12778843D02*
G01*
X391040Y-12831794D01*
X373611Y-12889249D01*
X367726Y-12949000D01*
X367726Y-13599000D01*
X373611Y-13658751D01*
X391040Y-13716206D01*
X419342Y-13769157D01*
X457432Y-13815568D01*
X503843Y-13853658D01*
X534850Y-13870231D01*
X544364Y-13881823D01*
X572518Y-13916130D01*
X572524Y-13916136D01*
X585243Y-13931634D01*
X600741Y-13944353D01*
X1127848Y-14471460D01*
X1074000Y-14466157D01*
X1042250Y-14468000D01*
X947000Y-14563250D01*
X947000Y-15047000D01*
X1017726Y-15047000D01*
X1017726Y-15301000D01*
X947000Y-15301000D01*
X947000Y-15321000D01*
X801000Y-15321000D01*
X801000Y-15301000D01*
X727000Y-15301000D01*
X727000Y-15047000D01*
X801000Y-15047000D01*
X801000Y-14563250D01*
X705750Y-14468000D01*
X674000Y-14466157D01*
X599311Y-14473513D01*
X527492Y-14495299D01*
X461304Y-14530678D01*
X403289Y-14578289D01*
X355678Y-14636304D01*
X329800Y-14684717D01*
X329800Y-12732724D01*
X457301Y-12732592D01*
X419342Y-12778843D01*
G37*
%TD.AperFunction*%
D32*
X9928500Y-14091500D02*
X9908500Y-14091500D01*
X9908500Y-14162226D01*
X9654500Y-14162226D01*
X9654500Y-14091500D01*
X9634500Y-14091500D01*
X9634500Y-13995400D01*
X9759047Y-13995400D01*
X9779000Y-13997365D01*
X9798953Y-13995400D01*
X9798960Y-13995400D01*
X9858668Y-13989519D01*
X9928500Y-13968336D01*
X9928500Y-14091500D01*
%TA.AperFunction,Conductor*%
D33*
G36*
X9928500Y-14091500D02*
G01*
X9908500Y-14091500D01*
X9908500Y-14162226D01*
X9654500Y-14162226D01*
X9654500Y-14091500D01*
X9634500Y-14091500D01*
X9634500Y-13995400D01*
X9759047Y-13995400D01*
X9779000Y-13997365D01*
X9798953Y-13995400D01*
X9798960Y-13995400D01*
X9858668Y-13989519D01*
X9928500Y-13968336D01*
X9928500Y-14091500D01*
G37*
%TD.AperFunction*%
D32*
X19959000Y-9302002D02*
X20005248Y-9302002D01*
X19959000Y-9348250D01*
X19957157Y-9380000D01*
X19964513Y-9454689D01*
X19984854Y-9521745D01*
X19911611Y-9573312D01*
X19771171Y-9720775D01*
X19662198Y-9892803D01*
X19599316Y-10074508D01*
X19662908Y-10233000D01*
X21063000Y-10233000D01*
X21063000Y-10213000D01*
X21225200Y-10213000D01*
X21225200Y-10507000D01*
X21063000Y-10507000D01*
X21063000Y-10487000D01*
X19662908Y-10487000D01*
X19599316Y-10645492D01*
X19662198Y-10827197D01*
X19771171Y-10999225D01*
X19911611Y-11146688D01*
X20078121Y-11263919D01*
X20264302Y-11346413D01*
X20355755Y-11366935D01*
X20298457Y-11413957D01*
X20280961Y-11435276D01*
X19989512Y-11726726D01*
X19561000Y-11726726D01*
X19481740Y-11734532D01*
X19405526Y-11757652D01*
X19335286Y-11795196D01*
X19273721Y-11845721D01*
X19223196Y-11907286D01*
X19185652Y-11977526D01*
X19162532Y-12053740D01*
X19154726Y-12133000D01*
X19154726Y-12278084D01*
X19105037Y-12268200D01*
X18994963Y-12268200D01*
X18887004Y-12289674D01*
X18785309Y-12331798D01*
X18693786Y-12392952D01*
X18615952Y-12470786D01*
X18612067Y-12476600D01*
X17139950Y-12476600D01*
X17159468Y-12412260D01*
X17167274Y-12333000D01*
X17167274Y-12133000D01*
X17159468Y-12053740D01*
X17136348Y-11977526D01*
X17098804Y-11907286D01*
X17048279Y-11845721D01*
X16986714Y-11795196D01*
X16916474Y-11757652D01*
X16840260Y-11734532D01*
X16761000Y-11726726D01*
X15336000Y-11726726D01*
X15256740Y-11734532D01*
X15180526Y-11757652D01*
X15110286Y-11795196D01*
X15048721Y-11845721D01*
X14998196Y-11907286D01*
X14960652Y-11977526D01*
X14937532Y-12053740D01*
X14929726Y-12133000D01*
X14929726Y-12333000D01*
X14937532Y-12412260D01*
X14960652Y-12488474D01*
X14997814Y-12558000D01*
X14960652Y-12627526D01*
X14937532Y-12703740D01*
X14929726Y-12783000D01*
X14929726Y-12983000D01*
X14937532Y-13062260D01*
X14957050Y-13126600D01*
X14314876Y-13126600D01*
X14338202Y-13091691D01*
X14380326Y-12989996D01*
X14401800Y-12882037D01*
X14401800Y-12771963D01*
X14380326Y-12664004D01*
X14338202Y-12562309D01*
X14277048Y-12470786D01*
X14199214Y-12392952D01*
X14186502Y-12384458D01*
X14186502Y-12289752D01*
X14281750Y-12385000D01*
X14417000Y-12386843D01*
X14491689Y-12379487D01*
X14563508Y-12357701D01*
X14629696Y-12322322D01*
X14687711Y-12274711D01*
X14735322Y-12216696D01*
X14770701Y-12150508D01*
X14792487Y-12078689D01*
X14799843Y-12004000D01*
X14798000Y-11906250D01*
X14702750Y-11811000D01*
X14186500Y-11811000D01*
X14186500Y-11831000D01*
X13932500Y-11831000D01*
X13932500Y-11811000D01*
X13912500Y-11811000D01*
X13912500Y-11557000D01*
X13932500Y-11557000D01*
X13932500Y-11537000D01*
X14186500Y-11537000D01*
X14186500Y-11557000D01*
X14702750Y-11557000D01*
X14798000Y-11461750D01*
X14799843Y-11364000D01*
X14792487Y-11289311D01*
X14770701Y-11217492D01*
X14766452Y-11209544D01*
X14835485Y-11172645D01*
X14897367Y-11121859D01*
X14910092Y-11106354D01*
X15005251Y-11011195D01*
X15020758Y-10998468D01*
X15071544Y-10936586D01*
X15109281Y-10865985D01*
X15111552Y-10858500D01*
X15133206Y-10858500D01*
X15204004Y-10887826D01*
X15311963Y-10909300D01*
X15422037Y-10909300D01*
X15529996Y-10887826D01*
X15600794Y-10858500D01*
X19367500Y-10858500D01*
X19392276Y-10856060D01*
X19416101Y-10848833D01*
X19438057Y-10837097D01*
X19457303Y-10821303D01*
X19473097Y-10802057D01*
X19484833Y-10780101D01*
X19492060Y-10756276D01*
X19494500Y-10731500D01*
X19494500Y-9724526D01*
X19959000Y-9260027D01*
X19959000Y-9302002D01*
%TA.AperFunction,Conductor*%
D33*
G36*
X19959000Y-9302002D02*
G01*
X20005248Y-9302002D01*
X19959000Y-9348250D01*
X19957157Y-9380000D01*
X19964513Y-9454689D01*
X19984854Y-9521745D01*
X19911611Y-9573312D01*
X19771171Y-9720775D01*
X19662198Y-9892803D01*
X19599316Y-10074508D01*
X19662908Y-10233000D01*
X21063000Y-10233000D01*
X21063000Y-10213000D01*
X21225200Y-10213000D01*
X21225200Y-10507000D01*
X21063000Y-10507000D01*
X21063000Y-10487000D01*
X19662908Y-10487000D01*
X19599316Y-10645492D01*
X19662198Y-10827197D01*
X19771171Y-10999225D01*
X19911611Y-11146688D01*
X20078121Y-11263919D01*
X20264302Y-11346413D01*
X20355755Y-11366935D01*
X20298457Y-11413957D01*
X20280961Y-11435276D01*
X19989512Y-11726726D01*
X19561000Y-11726726D01*
X19481740Y-11734532D01*
X19405526Y-11757652D01*
X19335286Y-11795196D01*
X19273721Y-11845721D01*
X19223196Y-11907286D01*
X19185652Y-11977526D01*
X19162532Y-12053740D01*
X19154726Y-12133000D01*
X19154726Y-12278084D01*
X19105037Y-12268200D01*
X18994963Y-12268200D01*
X18887004Y-12289674D01*
X18785309Y-12331798D01*
X18693786Y-12392952D01*
X18615952Y-12470786D01*
X18612067Y-12476600D01*
X17139950Y-12476600D01*
X17159468Y-12412260D01*
X17167274Y-12333000D01*
X17167274Y-12133000D01*
X17159468Y-12053740D01*
X17136348Y-11977526D01*
X17098804Y-11907286D01*
X17048279Y-11845721D01*
X16986714Y-11795196D01*
X16916474Y-11757652D01*
X16840260Y-11734532D01*
X16761000Y-11726726D01*
X15336000Y-11726726D01*
X15256740Y-11734532D01*
X15180526Y-11757652D01*
X15110286Y-11795196D01*
X15048721Y-11845721D01*
X14998196Y-11907286D01*
X14960652Y-11977526D01*
X14937532Y-12053740D01*
X14929726Y-12133000D01*
X14929726Y-12333000D01*
X14937532Y-12412260D01*
X14960652Y-12488474D01*
X14997814Y-12558000D01*
X14960652Y-12627526D01*
X14937532Y-12703740D01*
X14929726Y-12783000D01*
X14929726Y-12983000D01*
X14937532Y-13062260D01*
X14957050Y-13126600D01*
X14314876Y-13126600D01*
X14338202Y-13091691D01*
X14380326Y-12989996D01*
X14401800Y-12882037D01*
X14401800Y-12771963D01*
X14380326Y-12664004D01*
X14338202Y-12562309D01*
X14277048Y-12470786D01*
X14199214Y-12392952D01*
X14186502Y-12384458D01*
X14186502Y-12289752D01*
X14281750Y-12385000D01*
X14417000Y-12386843D01*
X14491689Y-12379487D01*
X14563508Y-12357701D01*
X14629696Y-12322322D01*
X14687711Y-12274711D01*
X14735322Y-12216696D01*
X14770701Y-12150508D01*
X14792487Y-12078689D01*
X14799843Y-12004000D01*
X14798000Y-11906250D01*
X14702750Y-11811000D01*
X14186500Y-11811000D01*
X14186500Y-11831000D01*
X13932500Y-11831000D01*
X13932500Y-11811000D01*
X13912500Y-11811000D01*
X13912500Y-11557000D01*
X13932500Y-11557000D01*
X13932500Y-11537000D01*
X14186500Y-11537000D01*
X14186500Y-11557000D01*
X14702750Y-11557000D01*
X14798000Y-11461750D01*
X14799843Y-11364000D01*
X14792487Y-11289311D01*
X14770701Y-11217492D01*
X14766452Y-11209544D01*
X14835485Y-11172645D01*
X14897367Y-11121859D01*
X14910092Y-11106354D01*
X15005251Y-11011195D01*
X15020758Y-10998468D01*
X15071544Y-10936586D01*
X15109281Y-10865985D01*
X15111552Y-10858500D01*
X15133206Y-10858500D01*
X15204004Y-10887826D01*
X15311963Y-10909300D01*
X15422037Y-10909300D01*
X15529996Y-10887826D01*
X15600794Y-10858500D01*
X19367500Y-10858500D01*
X19392276Y-10856060D01*
X19416101Y-10848833D01*
X19438057Y-10837097D01*
X19457303Y-10821303D01*
X19473097Y-10802057D01*
X19484833Y-10780101D01*
X19492060Y-10756276D01*
X19494500Y-10731500D01*
X19494500Y-9724526D01*
X19959000Y-9260027D01*
X19959000Y-9302002D01*
G37*
%TD.AperFunction*%
D32*
X5802000Y-9973000D02*
X5822000Y-9973000D01*
X5822000Y-10227000D01*
X5802000Y-10227000D01*
X5802000Y-10885750D01*
X5897250Y-10981000D01*
X6175000Y-10982843D01*
X6249689Y-10975487D01*
X6321508Y-10953701D01*
X6387696Y-10918322D01*
X6445711Y-10870711D01*
X6457323Y-10856562D01*
X6477000Y-10858500D01*
X7743986Y-10858500D01*
X7727242Y-10872242D01*
X7714518Y-10887746D01*
X7652856Y-10949408D01*
X7637352Y-10962132D01*
X7624629Y-10977635D01*
X7624628Y-10977636D01*
X7620355Y-10982843D01*
X7586566Y-11024015D01*
X7555809Y-11081557D01*
X7548829Y-11094616D01*
X7525591Y-11171222D01*
X7525562Y-11171513D01*
X7519710Y-11230931D01*
X7519710Y-11230937D01*
X7517745Y-11250890D01*
X7519710Y-11270843D01*
X7519710Y-11343040D01*
X7467000Y-11395750D01*
X7467000Y-11874500D01*
X7487000Y-11874500D01*
X7487000Y-12128500D01*
X7467000Y-12128500D01*
X7467000Y-12148500D01*
X7213000Y-12148500D01*
X7213000Y-12128500D01*
X6696750Y-12128500D01*
X6601500Y-12223750D01*
X6599657Y-12321500D01*
X6607013Y-12396189D01*
X6624770Y-12454726D01*
X6380500Y-12454726D01*
X6289534Y-12463685D01*
X6202065Y-12490219D01*
X6121452Y-12533307D01*
X6050794Y-12591294D01*
X6032500Y-12613586D01*
X6014206Y-12591294D01*
X5943548Y-12533307D01*
X5862935Y-12490219D01*
X5775466Y-12463685D01*
X5684500Y-12454726D01*
X5364500Y-12454726D01*
X5273534Y-12463685D01*
X5186065Y-12490219D01*
X5105452Y-12533307D01*
X5034794Y-12591294D01*
X5016500Y-12613586D01*
X4998206Y-12591294D01*
X4927548Y-12533307D01*
X4846935Y-12490219D01*
X4759466Y-12463685D01*
X4668500Y-12454726D01*
X4581375Y-12454726D01*
X4590487Y-12424689D01*
X4597843Y-12350000D01*
X4596000Y-11822250D01*
X4500750Y-11727000D01*
X2342000Y-11727000D01*
X2342000Y-11747000D01*
X2088000Y-11747000D01*
X2088000Y-11727000D01*
X2068000Y-11727000D01*
X2068000Y-11681500D01*
X6599657Y-11681500D01*
X6601500Y-11779250D01*
X6696750Y-11874500D01*
X7213000Y-11874500D01*
X7213000Y-11395750D01*
X7117750Y-11300500D01*
X6982500Y-11298657D01*
X6907811Y-11306013D01*
X6835992Y-11327799D01*
X6769804Y-11363178D01*
X6711789Y-11410789D01*
X6664178Y-11468804D01*
X6628799Y-11534992D01*
X6607013Y-11606811D01*
X6599657Y-11681500D01*
X2068000Y-11681500D01*
X2068000Y-11473000D01*
X2088000Y-11473000D01*
X2088000Y-11453000D01*
X2342000Y-11453000D01*
X2342000Y-11473000D01*
X4500750Y-11473000D01*
X4587128Y-11386622D01*
X4612478Y-11386711D01*
X4617065Y-11386245D01*
X4791304Y-11367317D01*
X4820618Y-11361193D01*
X4849977Y-11355486D01*
X4854386Y-11354138D01*
X5021630Y-11301727D01*
X5049151Y-11290045D01*
X5076888Y-11278726D01*
X5080951Y-11276547D01*
X5234829Y-11192650D01*
X5259594Y-11175820D01*
X5284567Y-11159353D01*
X5288130Y-11156427D01*
X5422783Y-11044238D01*
X5443813Y-11022912D01*
X5465105Y-11001916D01*
X5468031Y-10998353D01*
X5578328Y-10862148D01*
X5594797Y-10837172D01*
X5611626Y-10812409D01*
X5613804Y-10808346D01*
X5695544Y-10653311D01*
X5706857Y-10625588D01*
X5718545Y-10598054D01*
X5719893Y-10593645D01*
X5769964Y-10425685D01*
X5775668Y-10396338D01*
X5781795Y-10367012D01*
X5782261Y-10362426D01*
X5798755Y-10187940D01*
X5798650Y-10158014D01*
X5798964Y-10128087D01*
X5798530Y-10123497D01*
X5780819Y-9949131D01*
X5774905Y-9919799D01*
X5769398Y-9890374D01*
X5768080Y-9885956D01*
X5716837Y-9718351D01*
X5705361Y-9690783D01*
X5694223Y-9662935D01*
X5692073Y-9658857D01*
X5677136Y-9631000D01*
X5802000Y-9631000D01*
X5802000Y-9973000D01*
%TA.AperFunction,Conductor*%
D33*
G36*
X5802000Y-9973000D02*
G01*
X5822000Y-9973000D01*
X5822000Y-10227000D01*
X5802000Y-10227000D01*
X5802000Y-10885750D01*
X5897250Y-10981000D01*
X6175000Y-10982843D01*
X6249689Y-10975487D01*
X6321508Y-10953701D01*
X6387696Y-10918322D01*
X6445711Y-10870711D01*
X6457323Y-10856562D01*
X6477000Y-10858500D01*
X7743986Y-10858500D01*
X7727242Y-10872242D01*
X7714518Y-10887746D01*
X7652856Y-10949408D01*
X7637352Y-10962132D01*
X7624629Y-10977635D01*
X7624628Y-10977636D01*
X7620355Y-10982843D01*
X7586566Y-11024015D01*
X7555809Y-11081557D01*
X7548829Y-11094616D01*
X7525591Y-11171222D01*
X7525562Y-11171513D01*
X7519710Y-11230931D01*
X7519710Y-11230937D01*
X7517745Y-11250890D01*
X7519710Y-11270843D01*
X7519710Y-11343040D01*
X7467000Y-11395750D01*
X7467000Y-11874500D01*
X7487000Y-11874500D01*
X7487000Y-12128500D01*
X7467000Y-12128500D01*
X7467000Y-12148500D01*
X7213000Y-12148500D01*
X7213000Y-12128500D01*
X6696750Y-12128500D01*
X6601500Y-12223750D01*
X6599657Y-12321500D01*
X6607013Y-12396189D01*
X6624770Y-12454726D01*
X6380500Y-12454726D01*
X6289534Y-12463685D01*
X6202065Y-12490219D01*
X6121452Y-12533307D01*
X6050794Y-12591294D01*
X6032500Y-12613586D01*
X6014206Y-12591294D01*
X5943548Y-12533307D01*
X5862935Y-12490219D01*
X5775466Y-12463685D01*
X5684500Y-12454726D01*
X5364500Y-12454726D01*
X5273534Y-12463685D01*
X5186065Y-12490219D01*
X5105452Y-12533307D01*
X5034794Y-12591294D01*
X5016500Y-12613586D01*
X4998206Y-12591294D01*
X4927548Y-12533307D01*
X4846935Y-12490219D01*
X4759466Y-12463685D01*
X4668500Y-12454726D01*
X4581375Y-12454726D01*
X4590487Y-12424689D01*
X4597843Y-12350000D01*
X4596000Y-11822250D01*
X4500750Y-11727000D01*
X2342000Y-11727000D01*
X2342000Y-11747000D01*
X2088000Y-11747000D01*
X2088000Y-11727000D01*
X2068000Y-11727000D01*
X2068000Y-11681500D01*
X6599657Y-11681500D01*
X6601500Y-11779250D01*
X6696750Y-11874500D01*
X7213000Y-11874500D01*
X7213000Y-11395750D01*
X7117750Y-11300500D01*
X6982500Y-11298657D01*
X6907811Y-11306013D01*
X6835992Y-11327799D01*
X6769804Y-11363178D01*
X6711789Y-11410789D01*
X6664178Y-11468804D01*
X6628799Y-11534992D01*
X6607013Y-11606811D01*
X6599657Y-11681500D01*
X2068000Y-11681500D01*
X2068000Y-11473000D01*
X2088000Y-11473000D01*
X2088000Y-11453000D01*
X2342000Y-11453000D01*
X2342000Y-11473000D01*
X4500750Y-11473000D01*
X4587128Y-11386622D01*
X4612478Y-11386711D01*
X4617065Y-11386245D01*
X4791304Y-11367317D01*
X4820618Y-11361193D01*
X4849977Y-11355486D01*
X4854386Y-11354138D01*
X5021630Y-11301727D01*
X5049151Y-11290045D01*
X5076888Y-11278726D01*
X5080951Y-11276547D01*
X5234829Y-11192650D01*
X5259594Y-11175820D01*
X5284567Y-11159353D01*
X5288130Y-11156427D01*
X5422783Y-11044238D01*
X5443813Y-11022912D01*
X5465105Y-11001916D01*
X5468031Y-10998353D01*
X5578328Y-10862148D01*
X5594797Y-10837172D01*
X5611626Y-10812409D01*
X5613804Y-10808346D01*
X5695544Y-10653311D01*
X5706857Y-10625588D01*
X5718545Y-10598054D01*
X5719893Y-10593645D01*
X5769964Y-10425685D01*
X5775668Y-10396338D01*
X5781795Y-10367012D01*
X5782261Y-10362426D01*
X5798755Y-10187940D01*
X5798650Y-10158014D01*
X5798964Y-10128087D01*
X5798530Y-10123497D01*
X5780819Y-9949131D01*
X5774905Y-9919799D01*
X5769398Y-9890374D01*
X5768080Y-9885956D01*
X5716837Y-9718351D01*
X5705361Y-9690783D01*
X5694223Y-9662935D01*
X5692073Y-9658857D01*
X5677136Y-9631000D01*
X5802000Y-9631000D01*
X5802000Y-9973000D01*
G37*
%TD.AperFunction*%
D32*
X21092000Y-9097000D02*
X21225200Y-9097000D01*
X21225200Y-9253000D01*
X21092000Y-9253000D01*
X21092000Y-9322000D01*
X20838000Y-9322000D01*
X20838000Y-9253000D01*
X20818000Y-9253000D01*
X20818000Y-9097000D01*
X20838000Y-9097000D01*
X20838000Y-9036274D01*
X21092000Y-9036274D01*
X21092000Y-9097000D01*
%TA.AperFunction,Conductor*%
D33*
G36*
X21092000Y-9097000D02*
G01*
X21225200Y-9097000D01*
X21225200Y-9253000D01*
X21092000Y-9253000D01*
X21092000Y-9322000D01*
X20838000Y-9322000D01*
X20838000Y-9253000D01*
X20818000Y-9253000D01*
X20818000Y-9097000D01*
X20838000Y-9097000D01*
X20838000Y-9036274D01*
X21092000Y-9036274D01*
X21092000Y-9097000D01*
G37*
%TD.AperFunction*%
D32*
X5802000Y-9077000D02*
X5822000Y-9077000D01*
X5822000Y-9123000D01*
X5802000Y-9123000D01*
X5802000Y-9247000D01*
X5548000Y-9247000D01*
X5548000Y-9123000D01*
X5536800Y-9123000D01*
X5536800Y-9077000D01*
X5548000Y-9077000D01*
X5548000Y-9056274D01*
X5802000Y-9056274D01*
X5802000Y-9077000D01*
%TA.AperFunction,Conductor*%
D33*
G36*
X5802000Y-9077000D02*
G01*
X5822000Y-9077000D01*
X5822000Y-9123000D01*
X5802000Y-9123000D01*
X5802000Y-9247000D01*
X5548000Y-9247000D01*
X5548000Y-9123000D01*
X5536800Y-9123000D01*
X5536800Y-9077000D01*
X5548000Y-9077000D01*
X5548000Y-9056274D01*
X5802000Y-9056274D01*
X5802000Y-9077000D01*
G37*
%TD.AperFunction*%
D32*
X13494282Y-7635564D02*
X13585805Y-7696718D01*
X13687500Y-7738842D01*
X13795459Y-7760316D01*
X13839901Y-7760316D01*
X13856494Y-7773934D01*
X13918431Y-7807040D01*
X13927095Y-7811671D01*
X14003701Y-7834909D01*
X14010974Y-7835625D01*
X14063410Y-7840790D01*
X14063417Y-7840790D01*
X14083370Y-7842755D01*
X14103323Y-7840790D01*
X14935200Y-7840790D01*
X14935200Y-8229600D01*
X13195556Y-8229600D01*
X13240221Y-8162754D01*
X13286174Y-8051814D01*
X13309600Y-7934040D01*
X13309600Y-7813960D01*
X13292381Y-7727393D01*
X13373714Y-7673048D01*
X13451548Y-7595214D01*
X13452503Y-7593785D01*
X13494282Y-7635564D01*
%TA.AperFunction,Conductor*%
D33*
G36*
X13494282Y-7635564D02*
G01*
X13585805Y-7696718D01*
X13687500Y-7738842D01*
X13795459Y-7760316D01*
X13839901Y-7760316D01*
X13856494Y-7773934D01*
X13918431Y-7807040D01*
X13927095Y-7811671D01*
X14003701Y-7834909D01*
X14010974Y-7835625D01*
X14063410Y-7840790D01*
X14063417Y-7840790D01*
X14083370Y-7842755D01*
X14103323Y-7840790D01*
X14935200Y-7840790D01*
X14935200Y-8229600D01*
X13195556Y-8229600D01*
X13240221Y-8162754D01*
X13286174Y-8051814D01*
X13309600Y-7934040D01*
X13309600Y-7813960D01*
X13292381Y-7727393D01*
X13373714Y-7673048D01*
X13451548Y-7595214D01*
X13452503Y-7593785D01*
X13494282Y-7635564D01*
G37*
%TD.AperFunction*%
D32*
X15084513Y-4338311D02*
X15077157Y-4413000D01*
X15079000Y-4444750D01*
X15174250Y-4540000D01*
X16070500Y-4540000D01*
X16070500Y-4469274D01*
X16324500Y-4469274D01*
X16324500Y-4540000D01*
X16344500Y-4540000D01*
X16344500Y-4686000D01*
X16324500Y-4686000D01*
X16324500Y-4756726D01*
X16070500Y-4756726D01*
X16070500Y-4686000D01*
X15174250Y-4686000D01*
X15139380Y-4720870D01*
X15048331Y-4702760D01*
X14938257Y-4702760D01*
X14830298Y-4724234D01*
X14728603Y-4766358D01*
X14637080Y-4827512D01*
X14559246Y-4905346D01*
X14498092Y-4996869D01*
X14455968Y-5098564D01*
X14434494Y-5206523D01*
X14434494Y-5316597D01*
X14455968Y-5424556D01*
X14498092Y-5526251D01*
X14559246Y-5617774D01*
X14637080Y-5695608D01*
X14728603Y-5756762D01*
X14830298Y-5798886D01*
X14938257Y-5820360D01*
X15048331Y-5820360D01*
X15136977Y-5802727D01*
X15174250Y-5840000D01*
X16070500Y-5840000D01*
X16070500Y-5769274D01*
X16324500Y-5769274D01*
X16324500Y-5840000D01*
X16344500Y-5840000D01*
X16344500Y-5986000D01*
X16324500Y-5986000D01*
X16324500Y-6060000D01*
X16070500Y-6060000D01*
X16070500Y-5986000D01*
X15174250Y-5986000D01*
X15079000Y-6081250D01*
X15077157Y-6113000D01*
X15077335Y-6114808D01*
X14755504Y-5792978D01*
X14741976Y-5776494D01*
X14676226Y-5722534D01*
X14601212Y-5682439D01*
X14519818Y-5657748D01*
X14456380Y-5651500D01*
X14435170Y-5649411D01*
X14413960Y-5651500D01*
X13697446Y-5651500D01*
X13862259Y-5486688D01*
X13877758Y-5473968D01*
X13890477Y-5458470D01*
X13890482Y-5458465D01*
X13907717Y-5437464D01*
X13928544Y-5412086D01*
X13966281Y-5341485D01*
X13976070Y-5309214D01*
X13989519Y-5264879D01*
X13991136Y-5248457D01*
X13995400Y-5205170D01*
X13995400Y-5205163D01*
X13997365Y-5185210D01*
X13995400Y-5165257D01*
X13995400Y-5121538D01*
X14041963Y-5130800D01*
X14152037Y-5130800D01*
X14259996Y-5109326D01*
X14361691Y-5067202D01*
X14453214Y-5006048D01*
X14531048Y-4928214D01*
X14592202Y-4836691D01*
X14634326Y-4734996D01*
X14655800Y-4627037D01*
X14655800Y-4516963D01*
X14636213Y-4418490D01*
X14707214Y-4371048D01*
X14760263Y-4317999D01*
X15090675Y-4317999D01*
X15084513Y-4338311D01*
%TA.AperFunction,Conductor*%
D33*
G36*
X15084513Y-4338311D02*
G01*
X15077157Y-4413000D01*
X15079000Y-4444750D01*
X15174250Y-4540000D01*
X16070500Y-4540000D01*
X16070500Y-4469274D01*
X16324500Y-4469274D01*
X16324500Y-4540000D01*
X16344500Y-4540000D01*
X16344500Y-4686000D01*
X16324500Y-4686000D01*
X16324500Y-4756726D01*
X16070500Y-4756726D01*
X16070500Y-4686000D01*
X15174250Y-4686000D01*
X15139380Y-4720870D01*
X15048331Y-4702760D01*
X14938257Y-4702760D01*
X14830298Y-4724234D01*
X14728603Y-4766358D01*
X14637080Y-4827512D01*
X14559246Y-4905346D01*
X14498092Y-4996869D01*
X14455968Y-5098564D01*
X14434494Y-5206523D01*
X14434494Y-5316597D01*
X14455968Y-5424556D01*
X14498092Y-5526251D01*
X14559246Y-5617774D01*
X14637080Y-5695608D01*
X14728603Y-5756762D01*
X14830298Y-5798886D01*
X14938257Y-5820360D01*
X15048331Y-5820360D01*
X15136977Y-5802727D01*
X15174250Y-5840000D01*
X16070500Y-5840000D01*
X16070500Y-5769274D01*
X16324500Y-5769274D01*
X16324500Y-5840000D01*
X16344500Y-5840000D01*
X16344500Y-5986000D01*
X16324500Y-5986000D01*
X16324500Y-6060000D01*
X16070500Y-6060000D01*
X16070500Y-5986000D01*
X15174250Y-5986000D01*
X15079000Y-6081250D01*
X15077157Y-6113000D01*
X15077335Y-6114808D01*
X14755504Y-5792978D01*
X14741976Y-5776494D01*
X14676226Y-5722534D01*
X14601212Y-5682439D01*
X14519818Y-5657748D01*
X14456380Y-5651500D01*
X14435170Y-5649411D01*
X14413960Y-5651500D01*
X13697446Y-5651500D01*
X13862259Y-5486688D01*
X13877758Y-5473968D01*
X13890477Y-5458470D01*
X13890482Y-5458465D01*
X13907717Y-5437464D01*
X13928544Y-5412086D01*
X13966281Y-5341485D01*
X13976070Y-5309214D01*
X13989519Y-5264879D01*
X13991136Y-5248457D01*
X13995400Y-5205170D01*
X13995400Y-5205163D01*
X13997365Y-5185210D01*
X13995400Y-5165257D01*
X13995400Y-5121538D01*
X14041963Y-5130800D01*
X14152037Y-5130800D01*
X14259996Y-5109326D01*
X14361691Y-5067202D01*
X14453214Y-5006048D01*
X14531048Y-4928214D01*
X14592202Y-4836691D01*
X14634326Y-4734996D01*
X14655800Y-4627037D01*
X14655800Y-4516963D01*
X14636213Y-4418490D01*
X14707214Y-4371048D01*
X14760263Y-4317999D01*
X15090675Y-4317999D01*
X15084513Y-4338311D01*
G37*
%TD.AperFunction*%
D32*
X12455148Y-4536004D02*
X12433674Y-4643963D01*
X12433674Y-4683064D01*
X12227237Y-4889501D01*
X11584937Y-4889501D01*
X11585487Y-4887689D01*
X11592843Y-4813000D01*
X11591000Y-4781250D01*
X11495750Y-4686000D01*
X10599500Y-4686000D01*
X10599500Y-4756726D01*
X10345500Y-4756726D01*
X10345500Y-4686000D01*
X10325500Y-4686000D01*
X10325500Y-4540000D01*
X10345500Y-4540000D01*
X10345500Y-4508419D01*
X10362956Y-4513714D01*
X10445056Y-4521800D01*
X10599500Y-4521800D01*
X10599500Y-4540000D01*
X11495750Y-4540000D01*
X11513950Y-4521800D01*
X11895576Y-4521800D01*
X11906541Y-4522446D01*
X11922964Y-4521800D01*
X11939444Y-4521800D01*
X11950402Y-4520721D01*
X11984622Y-4519375D01*
X12028605Y-4537593D01*
X12146379Y-4561019D01*
X12266459Y-4561019D01*
X12384233Y-4537593D01*
X12469041Y-4502464D01*
X12455148Y-4536004D01*
%TA.AperFunction,Conductor*%
D33*
G36*
X12455148Y-4536004D02*
G01*
X12433674Y-4643963D01*
X12433674Y-4683064D01*
X12227237Y-4889501D01*
X11584937Y-4889501D01*
X11585487Y-4887689D01*
X11592843Y-4813000D01*
X11591000Y-4781250D01*
X11495750Y-4686000D01*
X10599500Y-4686000D01*
X10599500Y-4756726D01*
X10345500Y-4756726D01*
X10345500Y-4686000D01*
X10325500Y-4686000D01*
X10325500Y-4540000D01*
X10345500Y-4540000D01*
X10345500Y-4508419D01*
X10362956Y-4513714D01*
X10445056Y-4521800D01*
X10599500Y-4521800D01*
X10599500Y-4540000D01*
X11495750Y-4540000D01*
X11513950Y-4521800D01*
X11895576Y-4521800D01*
X11906541Y-4522446D01*
X11922964Y-4521800D01*
X11939444Y-4521800D01*
X11950402Y-4520721D01*
X11984622Y-4519375D01*
X12028605Y-4537593D01*
X12146379Y-4561019D01*
X12266459Y-4561019D01*
X12384233Y-4537593D01*
X12469041Y-4502464D01*
X12455148Y-4536004D01*
G37*
%TD.AperFunction*%
D32*
X21092000Y-3447000D02*
X21225201Y-3447000D01*
X21225201Y-3603000D01*
X21092000Y-3603000D01*
X21092000Y-3663726D01*
X20838000Y-3663726D01*
X20838000Y-3603000D01*
X20818000Y-3603000D01*
X20818000Y-3447000D01*
X20838000Y-3447000D01*
X20838000Y-3378000D01*
X21092000Y-3378000D01*
X21092000Y-3447000D01*
%TA.AperFunction,Conductor*%
D33*
G36*
X21092000Y-3447000D02*
G01*
X21225201Y-3447000D01*
X21225201Y-3603000D01*
X21092000Y-3603000D01*
X21092000Y-3663726D01*
X20838000Y-3663726D01*
X20838000Y-3603000D01*
X20818000Y-3603000D01*
X20818000Y-3447000D01*
X20838000Y-3447000D01*
X20838000Y-3378000D01*
X21092000Y-3378000D01*
X21092000Y-3447000D01*
G37*
%TD.AperFunction*%
D32*
X5802000Y-3577000D02*
X5822000Y-3577000D01*
X5822000Y-3623000D01*
X5802000Y-3623000D01*
X5802000Y-3643726D01*
X5548000Y-3643726D01*
X5548000Y-3623000D01*
X5536800Y-3623000D01*
X5536800Y-3577000D01*
X5548000Y-3577000D01*
X5548000Y-3453000D01*
X5802000Y-3453000D01*
X5802000Y-3577000D01*
%TA.AperFunction,Conductor*%
D33*
G36*
X5802000Y-3577000D02*
G01*
X5822000Y-3577000D01*
X5822000Y-3623000D01*
X5802000Y-3623000D01*
X5802000Y-3643726D01*
X5548000Y-3643726D01*
X5548000Y-3623000D01*
X5536800Y-3623000D01*
X5536800Y-3577000D01*
X5548000Y-3577000D01*
X5548000Y-3453000D01*
X5802000Y-3453000D01*
X5802000Y-3577000D01*
G37*
%TD.AperFunction*%
D32*
X19771171Y-2979225D02*
X19911611Y-3126688D01*
X19984854Y-3178255D01*
X19964513Y-3245311D01*
X19957952Y-3311925D01*
X19748500Y-3102474D01*
X19748500Y-2943436D01*
X19771171Y-2979225D01*
%TA.AperFunction,Conductor*%
D33*
G36*
X19771171Y-2979225D02*
G01*
X19911611Y-3126688D01*
X19984854Y-3178255D01*
X19964513Y-3245311D01*
X19957952Y-3311925D01*
X19748500Y-3102474D01*
X19748500Y-2943436D01*
X19771171Y-2979225D01*
G37*
%TD.AperFunction*%
D32*
X22977304Y-331678D02*
X22919289Y-379289D01*
X22871678Y-437304D01*
X22836299Y-503492D01*
X22814513Y-575311D01*
X22807157Y-650000D01*
X22809000Y-1177750D01*
X22866450Y-1235200D01*
X21607921Y-1235200D01*
X21590000Y-1233435D01*
X21572079Y-1235200D01*
X21518487Y-1240478D01*
X21449722Y-1261338D01*
X21386347Y-1295212D01*
X21369546Y-1309000D01*
X21317000Y-1309000D01*
X21317000Y-1357613D01*
X21285212Y-1396347D01*
X21251338Y-1459722D01*
X21230478Y-1528487D01*
X21223435Y-1600000D01*
X21225201Y-1617932D01*
X21225201Y-2487000D01*
X21063000Y-2487000D01*
X21063000Y-2467000D01*
X21043000Y-2467000D01*
X21043000Y-2213000D01*
X21063000Y-2213000D01*
X21063000Y-1309000D01*
X20463000Y-1309000D01*
X20264302Y-1353587D01*
X20078121Y-1436081D01*
X19911611Y-1553312D01*
X19841029Y-1627423D01*
X18885803Y-672197D01*
X18866557Y-656403D01*
X18844601Y-644667D01*
X18820776Y-637440D01*
X18796000Y-635000D01*
X7620000Y-635000D01*
X7595224Y-637440D01*
X7571399Y-644667D01*
X7549443Y-656403D01*
X7530197Y-672197D01*
X6514197Y-1688197D01*
X6498403Y-1707443D01*
X6486667Y-1729399D01*
X6479440Y-1753224D01*
X6477000Y-1778000D01*
X6477000Y-1867415D01*
X6445711Y-1829289D01*
X6387696Y-1781678D01*
X6321508Y-1746299D01*
X6249689Y-1724513D01*
X6175000Y-1717157D01*
X5897250Y-1719000D01*
X5802000Y-1814250D01*
X5802000Y-2473000D01*
X5822000Y-2473000D01*
X5822000Y-2727000D01*
X5802000Y-2727000D01*
X5802000Y-3069000D01*
X5676390Y-3069000D01*
X5698961Y-3025455D01*
X5710075Y-2997668D01*
X5721576Y-2970039D01*
X5722893Y-2965621D01*
X5771790Y-2797316D01*
X5777291Y-2767918D01*
X5783211Y-2738561D01*
X5783645Y-2733971D01*
X5798920Y-2559374D01*
X5798606Y-2529447D01*
X5798711Y-2499522D01*
X5798245Y-2494935D01*
X5779317Y-2320696D01*
X5773193Y-2291382D01*
X5767486Y-2262023D01*
X5766138Y-2257614D01*
X5713727Y-2090370D01*
X5702045Y-2062849D01*
X5690726Y-2035112D01*
X5688547Y-2031049D01*
X5604650Y-1877171D01*
X5587820Y-1852406D01*
X5571353Y-1827433D01*
X5568427Y-1823870D01*
X5456238Y-1689217D01*
X5434893Y-1668168D01*
X5413915Y-1646895D01*
X5410353Y-1643969D01*
X5274148Y-1533672D01*
X5249157Y-1517194D01*
X5224408Y-1500374D01*
X5220345Y-1498196D01*
X5065311Y-1416456D01*
X5037612Y-1405153D01*
X5010054Y-1393455D01*
X5005646Y-1392107D01*
X4837685Y-1342036D01*
X4808340Y-1336332D01*
X4779013Y-1330205D01*
X4774426Y-1329739D01*
X4599940Y-1313245D01*
X4587040Y-1313290D01*
X4500750Y-1227000D01*
X2342000Y-1227000D01*
X2342000Y-1247000D01*
X2088000Y-1247000D01*
X2088000Y-1227000D01*
X2068000Y-1227000D01*
X2068000Y-973000D01*
X2088000Y-973000D01*
X2088000Y-953000D01*
X2342000Y-953000D01*
X2342000Y-973000D01*
X4500750Y-973000D01*
X4596000Y-877750D01*
X4597843Y-350000D01*
X4595854Y-329800D01*
X22980817Y-329800D01*
X22977304Y-331678D01*
%TA.AperFunction,Conductor*%
D33*
G36*
X22977304Y-331678D02*
G01*
X22919289Y-379289D01*
X22871678Y-437304D01*
X22836299Y-503492D01*
X22814513Y-575311D01*
X22807157Y-650000D01*
X22809000Y-1177750D01*
X22866450Y-1235200D01*
X21607921Y-1235200D01*
X21590000Y-1233435D01*
X21572079Y-1235200D01*
X21518487Y-1240478D01*
X21449722Y-1261338D01*
X21386347Y-1295212D01*
X21369546Y-1309000D01*
X21317000Y-1309000D01*
X21317000Y-1357613D01*
X21285212Y-1396347D01*
X21251338Y-1459722D01*
X21230478Y-1528487D01*
X21223435Y-1600000D01*
X21225201Y-1617932D01*
X21225201Y-2487000D01*
X21063000Y-2487000D01*
X21063000Y-2467000D01*
X21043000Y-2467000D01*
X21043000Y-2213000D01*
X21063000Y-2213000D01*
X21063000Y-1309000D01*
X20463000Y-1309000D01*
X20264302Y-1353587D01*
X20078121Y-1436081D01*
X19911611Y-1553312D01*
X19841029Y-1627423D01*
X18885803Y-672197D01*
X18866557Y-656403D01*
X18844601Y-644667D01*
X18820776Y-637440D01*
X18796000Y-635000D01*
X7620000Y-635000D01*
X7595224Y-637440D01*
X7571399Y-644667D01*
X7549443Y-656403D01*
X7530197Y-672197D01*
X6514197Y-1688197D01*
X6498403Y-1707443D01*
X6486667Y-1729399D01*
X6479440Y-1753224D01*
X6477000Y-1778000D01*
X6477000Y-1867415D01*
X6445711Y-1829289D01*
X6387696Y-1781678D01*
X6321508Y-1746299D01*
X6249689Y-1724513D01*
X6175000Y-1717157D01*
X5897250Y-1719000D01*
X5802000Y-1814250D01*
X5802000Y-2473000D01*
X5822000Y-2473000D01*
X5822000Y-2727000D01*
X5802000Y-2727000D01*
X5802000Y-3069000D01*
X5676390Y-3069000D01*
X5698961Y-3025455D01*
X5710075Y-2997668D01*
X5721576Y-2970039D01*
X5722893Y-2965621D01*
X5771790Y-2797316D01*
X5777291Y-2767918D01*
X5783211Y-2738561D01*
X5783645Y-2733971D01*
X5798920Y-2559374D01*
X5798606Y-2529447D01*
X5798711Y-2499522D01*
X5798245Y-2494935D01*
X5779317Y-2320696D01*
X5773193Y-2291382D01*
X5767486Y-2262023D01*
X5766138Y-2257614D01*
X5713727Y-2090370D01*
X5702045Y-2062849D01*
X5690726Y-2035112D01*
X5688547Y-2031049D01*
X5604650Y-1877171D01*
X5587820Y-1852406D01*
X5571353Y-1827433D01*
X5568427Y-1823870D01*
X5456238Y-1689217D01*
X5434893Y-1668168D01*
X5413915Y-1646895D01*
X5410353Y-1643969D01*
X5274148Y-1533672D01*
X5249157Y-1517194D01*
X5224408Y-1500374D01*
X5220345Y-1498196D01*
X5065311Y-1416456D01*
X5037612Y-1405153D01*
X5010054Y-1393455D01*
X5005646Y-1392107D01*
X4837685Y-1342036D01*
X4808340Y-1336332D01*
X4779013Y-1330205D01*
X4774426Y-1329739D01*
X4599940Y-1313245D01*
X4587040Y-1313290D01*
X4500750Y-1227000D01*
X2342000Y-1227000D01*
X2342000Y-1247000D01*
X2088000Y-1247000D01*
X2088000Y-1227000D01*
X2068000Y-1227000D01*
X2068000Y-973000D01*
X2088000Y-973000D01*
X2088000Y-953000D01*
X2342000Y-953000D01*
X2342000Y-973000D01*
X4500750Y-973000D01*
X4596000Y-877750D01*
X4597843Y-350000D01*
X4595854Y-329800D01*
X22980817Y-329800D01*
X22977304Y-331678D01*
G37*
%TD.AperFunction*%
D32*
X24417000Y-1273000D02*
X24437000Y-1273000D01*
X24437000Y-1527000D01*
X24417000Y-1527000D01*
X24417000Y-1785200D01*
X24163000Y-1785200D01*
X24163000Y-1527000D01*
X24143000Y-1527000D01*
X24143000Y-1273000D01*
X24163000Y-1273000D01*
X24163000Y-1253000D01*
X24417000Y-1253000D01*
X24417000Y-1273000D01*
%TA.AperFunction,Conductor*%
D33*
G36*
X24417000Y-1273000D02*
G01*
X24437000Y-1273000D01*
X24437000Y-1527000D01*
X24417000Y-1527000D01*
X24417000Y-1785200D01*
X24163000Y-1785200D01*
X24163000Y-1527000D01*
X24143000Y-1527000D01*
X24143000Y-1273000D01*
X24163000Y-1273000D01*
X24163000Y-1253000D01*
X24417000Y-1253000D01*
X24417000Y-1273000D01*
G37*
%TD.AperFunction*%
%TD*%
D32*
%TO.N,/CC2_RECEP*%
X11024555Y-7038960D02*
X10998200Y-7171455D01*
X10998200Y-7306545D01*
X11015079Y-7391400D01*
X8890000Y-7391400D01*
X8890000Y-6997700D01*
X11041645Y-6997700D01*
X11024555Y-7038960D01*
%TA.AperFunction,Conductor*%
D33*
G36*
X11024555Y-7038960D02*
G01*
X10998200Y-7171455D01*
X10998200Y-7306545D01*
X11015079Y-7391400D01*
X8890000Y-7391400D01*
X8890000Y-6997700D01*
X11041645Y-6997700D01*
X11024555Y-7038960D01*
G37*
%TD.AperFunction*%
%TD*%
D32*
%TO.N,/VBUS_PLUG*%
X21276000Y-7714772D02*
X20590000Y-7714772D01*
X20547071Y-7719000D01*
X20358708Y-7719000D01*
X20339998Y-7717157D01*
X20321288Y-7719000D01*
X20321286Y-7719000D01*
X20265310Y-7724513D01*
X20193491Y-7746299D01*
X20192180Y-7747000D01*
X19621500Y-7747000D01*
X19596724Y-7749440D01*
X19572899Y-7756667D01*
X19550943Y-7768403D01*
X19531697Y-7784197D01*
X19060894Y-8255000D01*
X18721606Y-8255000D01*
X18415000Y-7948394D01*
X18415000Y-7493000D01*
X21276000Y-7493000D01*
X21276000Y-7714772D01*
%TA.AperFunction,Conductor*%
D33*
G36*
X21276000Y-7714772D02*
G01*
X20590000Y-7714772D01*
X20547071Y-7719000D01*
X20358708Y-7719000D01*
X20339998Y-7717157D01*
X20321288Y-7719000D01*
X20321286Y-7719000D01*
X20265310Y-7724513D01*
X20193491Y-7746299D01*
X20192180Y-7747000D01*
X19621500Y-7747000D01*
X19596724Y-7749440D01*
X19572899Y-7756667D01*
X19550943Y-7768403D01*
X19531697Y-7784197D01*
X19060894Y-8255000D01*
X18721606Y-8255000D01*
X18415000Y-7948394D01*
X18415000Y-7493000D01*
X21276000Y-7493000D01*
X21276000Y-7714772D01*
G37*
%TD.AperFunction*%
%TD*%
D32*
%TO.N,/CC2_PLUG*%
X17983200Y-8001000D02*
X17989057Y-8060464D01*
X18006402Y-8117642D01*
X18011938Y-8128000D01*
X15367000Y-8128000D01*
X15367000Y-7840790D01*
X17374157Y-7840790D01*
X17394110Y-7842755D01*
X17414063Y-7840790D01*
X17414070Y-7840790D01*
X17473778Y-7834909D01*
X17550385Y-7811671D01*
X17620986Y-7773934D01*
X17682868Y-7723148D01*
X17695592Y-7707644D01*
X17906716Y-7496521D01*
X17983200Y-7496521D01*
X17983200Y-8001000D01*
%TA.AperFunction,Conductor*%
D33*
G36*
X17983200Y-8001000D02*
G01*
X17989057Y-8060464D01*
X18006402Y-8117642D01*
X18011938Y-8128000D01*
X15367000Y-8128000D01*
X15367000Y-7840790D01*
X17374157Y-7840790D01*
X17394110Y-7842755D01*
X17414063Y-7840790D01*
X17414070Y-7840790D01*
X17473778Y-7834909D01*
X17550385Y-7811671D01*
X17620986Y-7773934D01*
X17682868Y-7723148D01*
X17695592Y-7707644D01*
X17906716Y-7496521D01*
X17983200Y-7496521D01*
X17983200Y-8001000D01*
G37*
%TD.AperFunction*%
%TD*%
D32*
%TO.N,/VBUS_PLUG*%
X18161000Y-3683000D02*
X18163440Y-3707776D01*
X18170667Y-3731601D01*
X18182403Y-3753557D01*
X18198197Y-3772803D01*
X19341197Y-4915803D01*
X19360443Y-4931597D01*
X19382399Y-4943333D01*
X19406224Y-4950560D01*
X19431000Y-4953000D01*
X20192180Y-4953000D01*
X20193491Y-4953701D01*
X20265310Y-4975487D01*
X20321286Y-4981000D01*
X20321288Y-4981000D01*
X20339998Y-4982843D01*
X20358708Y-4981000D01*
X20547071Y-4981000D01*
X20590000Y-4985228D01*
X21276001Y-4985228D01*
X21276001Y-5214772D01*
X20590000Y-5214772D01*
X20540207Y-5219676D01*
X20492328Y-5234200D01*
X20473246Y-5244400D01*
X19694389Y-5244400D01*
X19676933Y-5242681D01*
X19659478Y-5244400D01*
X19659471Y-5244400D01*
X19607224Y-5249546D01*
X19540194Y-5269879D01*
X19525373Y-5277801D01*
X17802698Y-5277801D01*
X17793589Y-5264169D01*
X17735161Y-5205741D01*
X17785684Y-5130128D01*
X17823978Y-5037678D01*
X17843500Y-4939534D01*
X17843500Y-4839466D01*
X17823978Y-4741322D01*
X17785684Y-4648872D01*
X17730089Y-4565669D01*
X17659331Y-4494911D01*
X17576128Y-4439316D01*
X17483678Y-4401022D01*
X17385534Y-4381500D01*
X17285466Y-4381500D01*
X17187322Y-4401022D01*
X17172339Y-4407228D01*
X17163188Y-4377060D01*
X17145000Y-4343033D01*
X17145000Y-4232967D01*
X17163188Y-4198940D01*
X17183402Y-4132302D01*
X17190228Y-4063000D01*
X17190228Y-3863000D01*
X17183402Y-3793698D01*
X17163188Y-3727060D01*
X17145000Y-3693033D01*
X17145000Y-3582967D01*
X17163188Y-3548940D01*
X17183402Y-3482302D01*
X17190228Y-3413000D01*
X17190228Y-3213000D01*
X17183402Y-3143698D01*
X17163188Y-3077060D01*
X17147655Y-3048000D01*
X18161000Y-3048000D01*
X18161000Y-3683000D01*
%TA.AperFunction,Conductor*%
D33*
G36*
X18161000Y-3683000D02*
G01*
X18163440Y-3707776D01*
X18170667Y-3731601D01*
X18182403Y-3753557D01*
X18198197Y-3772803D01*
X19341197Y-4915803D01*
X19360443Y-4931597D01*
X19382399Y-4943333D01*
X19406224Y-4950560D01*
X19431000Y-4953000D01*
X20192180Y-4953000D01*
X20193491Y-4953701D01*
X20265310Y-4975487D01*
X20321286Y-4981000D01*
X20321288Y-4981000D01*
X20339998Y-4982843D01*
X20358708Y-4981000D01*
X20547071Y-4981000D01*
X20590000Y-4985228D01*
X21276001Y-4985228D01*
X21276001Y-5214772D01*
X20590000Y-5214772D01*
X20540207Y-5219676D01*
X20492328Y-5234200D01*
X20473246Y-5244400D01*
X19694389Y-5244400D01*
X19676933Y-5242681D01*
X19659478Y-5244400D01*
X19659471Y-5244400D01*
X19607224Y-5249546D01*
X19540194Y-5269879D01*
X19525373Y-5277801D01*
X17802698Y-5277801D01*
X17793589Y-5264169D01*
X17735161Y-5205741D01*
X17785684Y-5130128D01*
X17823978Y-5037678D01*
X17843500Y-4939534D01*
X17843500Y-4839466D01*
X17823978Y-4741322D01*
X17785684Y-4648872D01*
X17730089Y-4565669D01*
X17659331Y-4494911D01*
X17576128Y-4439316D01*
X17483678Y-4401022D01*
X17385534Y-4381500D01*
X17285466Y-4381500D01*
X17187322Y-4401022D01*
X17172339Y-4407228D01*
X17163188Y-4377060D01*
X17145000Y-4343033D01*
X17145000Y-4232967D01*
X17163188Y-4198940D01*
X17183402Y-4132302D01*
X17190228Y-4063000D01*
X17190228Y-3863000D01*
X17183402Y-3793698D01*
X17163188Y-3727060D01*
X17145000Y-3693033D01*
X17145000Y-3582967D01*
X17163188Y-3548940D01*
X17183402Y-3482302D01*
X17190228Y-3413000D01*
X17190228Y-3213000D01*
X17183402Y-3143698D01*
X17163188Y-3077060D01*
X17147655Y-3048000D01*
X18161000Y-3048000D01*
X18161000Y-3683000D01*
G37*
%TD.AperFunction*%
%TD*%
D32*
%TO.N,/VBUS_RECEP*%
X7822165Y-8113105D02*
X7833292Y-8126663D01*
X7846850Y-8137790D01*
X7846855Y-8137795D01*
X7881033Y-8165844D01*
X7887439Y-8171101D01*
X7949215Y-8204121D01*
X8016245Y-8224454D01*
X8047973Y-8227579D01*
X8202394Y-8382000D01*
X7528589Y-8382000D01*
X7041661Y-7909827D01*
X7022175Y-7894330D01*
X7000040Y-7882934D01*
X6976107Y-7876074D01*
X6953250Y-7874000D01*
X6670336Y-7874000D01*
X6614866Y-7828478D01*
X6548678Y-7793099D01*
X6476859Y-7771313D01*
X6420883Y-7765800D01*
X6420880Y-7765800D01*
X6402170Y-7763957D01*
X6383460Y-7765800D01*
X6350932Y-7765800D01*
X6316797Y-7737786D01*
X6272672Y-7714200D01*
X6224793Y-7699676D01*
X6175000Y-7694772D01*
X5486000Y-7694772D01*
X5486000Y-7505228D01*
X6175000Y-7505228D01*
X6224793Y-7500324D01*
X6272672Y-7485800D01*
X6316797Y-7462214D01*
X6324856Y-7455600D01*
X7164662Y-7455600D01*
X7822165Y-8113105D01*
%TA.AperFunction,Conductor*%
D33*
G36*
X7822165Y-8113105D02*
G01*
X7833292Y-8126663D01*
X7846850Y-8137790D01*
X7846855Y-8137795D01*
X7881033Y-8165844D01*
X7887439Y-8171101D01*
X7949215Y-8204121D01*
X8016245Y-8224454D01*
X8047973Y-8227579D01*
X8202394Y-8382000D01*
X7528589Y-8382000D01*
X7041661Y-7909827D01*
X7022175Y-7894330D01*
X7000040Y-7882934D01*
X6976107Y-7876074D01*
X6953250Y-7874000D01*
X6670336Y-7874000D01*
X6614866Y-7828478D01*
X6548678Y-7793099D01*
X6476859Y-7771313D01*
X6420883Y-7765800D01*
X6420880Y-7765800D01*
X6402170Y-7763957D01*
X6383460Y-7765800D01*
X6350932Y-7765800D01*
X6316797Y-7737786D01*
X6272672Y-7714200D01*
X6224793Y-7699676D01*
X6175000Y-7694772D01*
X5486000Y-7694772D01*
X5486000Y-7505228D01*
X6175000Y-7505228D01*
X6224793Y-7500324D01*
X6272672Y-7485800D01*
X6316797Y-7462214D01*
X6324856Y-7455600D01*
X7164662Y-7455600D01*
X7822165Y-8113105D01*
G37*
%TD.AperFunction*%
%TD*%
D32*
%TO.N,/VBUS_RECEP*%
X9334500Y-5019179D02*
X9321034Y-5016500D01*
X9268321Y-5016500D01*
X9271000Y-5003034D01*
X9271000Y-4902966D01*
X9251478Y-4804822D01*
X9213184Y-4712372D01*
X9157589Y-4629169D01*
X9086831Y-4558411D01*
X9003628Y-4502816D01*
X8911178Y-4464522D01*
X8813034Y-4445000D01*
X8712966Y-4445000D01*
X8614822Y-4464522D01*
X8522372Y-4502816D01*
X8439169Y-4558411D01*
X8368411Y-4629169D01*
X8312816Y-4712372D01*
X8274522Y-4804822D01*
X8255000Y-4902966D01*
X8255000Y-5003034D01*
X8274522Y-5101178D01*
X8292052Y-5143500D01*
X6238596Y-5143500D01*
X6223000Y-5141964D01*
X6207404Y-5143500D01*
X6160759Y-5148094D01*
X6100910Y-5166249D01*
X6047547Y-5194772D01*
X5486000Y-5194772D01*
X5486000Y-5005228D01*
X6175000Y-5005228D01*
X6224793Y-5000324D01*
X6272672Y-4985800D01*
X6316797Y-4962214D01*
X6350932Y-4934200D01*
X6510460Y-4934200D01*
X6529170Y-4936043D01*
X6547880Y-4934200D01*
X6547883Y-4934200D01*
X6603859Y-4928687D01*
X6675678Y-4906901D01*
X6741866Y-4871522D01*
X6797336Y-4826000D01*
X6985000Y-4826000D01*
X7009776Y-4823560D01*
X7033601Y-4816333D01*
X7055557Y-4804597D01*
X7073268Y-4790312D01*
X8941349Y-2984500D01*
X9334500Y-2984500D01*
X9334500Y-5019179D01*
%TA.AperFunction,Conductor*%
D33*
G36*
X9334500Y-5019179D02*
G01*
X9321034Y-5016500D01*
X9268321Y-5016500D01*
X9271000Y-5003034D01*
X9271000Y-4902966D01*
X9251478Y-4804822D01*
X9213184Y-4712372D01*
X9157589Y-4629169D01*
X9086831Y-4558411D01*
X9003628Y-4502816D01*
X8911178Y-4464522D01*
X8813034Y-4445000D01*
X8712966Y-4445000D01*
X8614822Y-4464522D01*
X8522372Y-4502816D01*
X8439169Y-4558411D01*
X8368411Y-4629169D01*
X8312816Y-4712372D01*
X8274522Y-4804822D01*
X8255000Y-4902966D01*
X8255000Y-5003034D01*
X8274522Y-5101178D01*
X8292052Y-5143500D01*
X6238596Y-5143500D01*
X6223000Y-5141964D01*
X6207404Y-5143500D01*
X6160759Y-5148094D01*
X6100910Y-5166249D01*
X6047547Y-5194772D01*
X5486000Y-5194772D01*
X5486000Y-5005228D01*
X6175000Y-5005228D01*
X6224793Y-5000324D01*
X6272672Y-4985800D01*
X6316797Y-4962214D01*
X6350932Y-4934200D01*
X6510460Y-4934200D01*
X6529170Y-4936043D01*
X6547880Y-4934200D01*
X6547883Y-4934200D01*
X6603859Y-4928687D01*
X6675678Y-4906901D01*
X6741866Y-4871522D01*
X6797336Y-4826000D01*
X6985000Y-4826000D01*
X7009776Y-4823560D01*
X7033601Y-4816333D01*
X7055557Y-4804597D01*
X7073268Y-4790312D01*
X8941349Y-2984500D01*
X9334500Y-2984500D01*
X9334500Y-5019179D01*
G37*
%TD.AperFunction*%
%TD*%
M02*
