%TF.GenerationSoftware,KiCad,Pcbnew,(5.1.7)-1*%
%TF.CreationDate,2021-02-13T17:52:44+01:00*%
%TF.ProjectId,twonkie,74776f6e-6b69-4652-9e6b-696361645f70,rev?*%
%TF.SameCoordinates,PX448d510PY20b3950*%
%TF.FileFunction,Legend,Bot*%
%TF.FilePolarity,Positive*%
%FSLAX46Y46*%
G04 Gerber Fmt 4.6, Leading zero omitted, Abs format (unit mm)*
G04 Created by KiCad (PCBNEW (5.1.7)-1) date 2021-02-13 17:52:44*
%MOMM*%
%LPD*%
G01*
G04 APERTURE LIST*
%ADD10C,0.127000*%
%ADD11C,0.114300*%
%ADD12C,0.120000*%
%ADD13C,0.100000*%
%ADD14C,0.150000*%
G04 APERTURE END LIST*
D10*
X20026085Y-1030514D02*
X19928114Y-1063171D01*
X19895457Y-1095828D01*
X19862800Y-1161142D01*
X19862800Y-1259114D01*
X19895457Y-1324428D01*
X19928114Y-1357085D01*
X19993428Y-1389742D01*
X20254685Y-1389742D01*
X20254685Y-703942D01*
X20026085Y-703942D01*
X19960771Y-736600D01*
X19928114Y-769257D01*
X19895457Y-834571D01*
X19895457Y-899885D01*
X19928114Y-965200D01*
X19960771Y-997857D01*
X20026085Y-1030514D01*
X20254685Y-1030514D01*
X19274971Y-1389742D02*
X19274971Y-1030514D01*
X19307628Y-965200D01*
X19372942Y-932542D01*
X19503571Y-932542D01*
X19568885Y-965200D01*
X19274971Y-1357085D02*
X19340285Y-1389742D01*
X19503571Y-1389742D01*
X19568885Y-1357085D01*
X19601542Y-1291771D01*
X19601542Y-1226457D01*
X19568885Y-1161142D01*
X19503571Y-1128485D01*
X19340285Y-1128485D01*
X19274971Y-1095828D01*
X18981057Y-1357085D02*
X18915742Y-1389742D01*
X18785114Y-1389742D01*
X18719800Y-1357085D01*
X18687142Y-1291771D01*
X18687142Y-1259114D01*
X18719800Y-1193800D01*
X18785114Y-1161142D01*
X18883085Y-1161142D01*
X18948400Y-1128485D01*
X18981057Y-1063171D01*
X18981057Y-1030514D01*
X18948400Y-965200D01*
X18883085Y-932542D01*
X18785114Y-932542D01*
X18719800Y-965200D01*
X18131971Y-1357085D02*
X18197285Y-1389742D01*
X18327914Y-1389742D01*
X18393228Y-1357085D01*
X18425885Y-1291771D01*
X18425885Y-1030514D01*
X18393228Y-965200D01*
X18327914Y-932542D01*
X18197285Y-932542D01*
X18131971Y-965200D01*
X18099314Y-1030514D01*
X18099314Y-1095828D01*
X18425885Y-1161142D01*
X17511485Y-1389742D02*
X17511485Y-703942D01*
X17511485Y-1357085D02*
X17576800Y-1389742D01*
X17707428Y-1389742D01*
X17772742Y-1357085D01*
X17805400Y-1324428D01*
X17838057Y-1259114D01*
X17838057Y-1063171D01*
X17805400Y-997857D01*
X17772742Y-965200D01*
X17707428Y-932542D01*
X17576800Y-932542D01*
X17511485Y-965200D01*
X16564428Y-1389742D02*
X16629742Y-1357085D01*
X16662400Y-1324428D01*
X16695057Y-1259114D01*
X16695057Y-1063171D01*
X16662400Y-997857D01*
X16629742Y-965200D01*
X16564428Y-932542D01*
X16466457Y-932542D01*
X16401142Y-965200D01*
X16368485Y-997857D01*
X16335828Y-1063171D01*
X16335828Y-1259114D01*
X16368485Y-1324428D01*
X16401142Y-1357085D01*
X16466457Y-1389742D01*
X16564428Y-1389742D01*
X16041914Y-932542D02*
X16041914Y-1389742D01*
X16041914Y-997857D02*
X16009257Y-965200D01*
X15943942Y-932542D01*
X15845971Y-932542D01*
X15780657Y-965200D01*
X15748000Y-1030514D01*
X15748000Y-1389742D01*
X14539685Y-736600D02*
X14605000Y-703942D01*
X14702971Y-703942D01*
X14800942Y-736600D01*
X14866257Y-801914D01*
X14898914Y-867228D01*
X14931571Y-997857D01*
X14931571Y-1095828D01*
X14898914Y-1226457D01*
X14866257Y-1291771D01*
X14800942Y-1357085D01*
X14702971Y-1389742D01*
X14637657Y-1389742D01*
X14539685Y-1357085D01*
X14507028Y-1324428D01*
X14507028Y-1095828D01*
X14637657Y-1095828D01*
X14115142Y-1389742D02*
X14180457Y-1357085D01*
X14213114Y-1324428D01*
X14245771Y-1259114D01*
X14245771Y-1063171D01*
X14213114Y-997857D01*
X14180457Y-965200D01*
X14115142Y-932542D01*
X14017171Y-932542D01*
X13951857Y-965200D01*
X13919200Y-997857D01*
X13886542Y-1063171D01*
X13886542Y-1259114D01*
X13919200Y-1324428D01*
X13951857Y-1357085D01*
X14017171Y-1389742D01*
X14115142Y-1389742D01*
X13494657Y-1389742D02*
X13559971Y-1357085D01*
X13592628Y-1324428D01*
X13625285Y-1259114D01*
X13625285Y-1063171D01*
X13592628Y-997857D01*
X13559971Y-965200D01*
X13494657Y-932542D01*
X13396685Y-932542D01*
X13331371Y-965200D01*
X13298714Y-997857D01*
X13266057Y-1063171D01*
X13266057Y-1259114D01*
X13298714Y-1324428D01*
X13331371Y-1357085D01*
X13396685Y-1389742D01*
X13494657Y-1389742D01*
X12678228Y-932542D02*
X12678228Y-1487714D01*
X12710885Y-1553028D01*
X12743542Y-1585685D01*
X12808857Y-1618342D01*
X12906828Y-1618342D01*
X12972142Y-1585685D01*
X12678228Y-1357085D02*
X12743542Y-1389742D01*
X12874171Y-1389742D01*
X12939485Y-1357085D01*
X12972142Y-1324428D01*
X13004800Y-1259114D01*
X13004800Y-1063171D01*
X12972142Y-997857D01*
X12939485Y-965200D01*
X12874171Y-932542D01*
X12743542Y-932542D01*
X12678228Y-965200D01*
X12253685Y-1389742D02*
X12319000Y-1357085D01*
X12351657Y-1291771D01*
X12351657Y-703942D01*
X11731171Y-1357085D02*
X11796485Y-1389742D01*
X11927114Y-1389742D01*
X11992428Y-1357085D01*
X12025085Y-1291771D01*
X12025085Y-1030514D01*
X11992428Y-965200D01*
X11927114Y-932542D01*
X11796485Y-932542D01*
X11731171Y-965200D01*
X11698514Y-1030514D01*
X11698514Y-1095828D01*
X12025085Y-1161142D01*
X11371942Y-703942D02*
X11437257Y-834571D01*
X11110685Y-1357085D02*
X11045371Y-1389742D01*
X10914742Y-1389742D01*
X10849428Y-1357085D01*
X10816771Y-1291771D01*
X10816771Y-1259114D01*
X10849428Y-1193800D01*
X10914742Y-1161142D01*
X11012714Y-1161142D01*
X11078028Y-1128485D01*
X11110685Y-1063171D01*
X11110685Y-1030514D01*
X11078028Y-965200D01*
X11012714Y-932542D01*
X10914742Y-932542D01*
X10849428Y-965200D01*
X10098314Y-703942D02*
X9706428Y-703942D01*
X9902371Y-1389742D02*
X9902371Y-703942D01*
X9543142Y-932542D02*
X9412514Y-1389742D01*
X9281885Y-1063171D01*
X9151257Y-1389742D01*
X9020628Y-932542D01*
X8759371Y-1389742D02*
X8759371Y-932542D01*
X8759371Y-703942D02*
X8792028Y-736600D01*
X8759371Y-769257D01*
X8726714Y-736600D01*
X8759371Y-703942D01*
X8759371Y-769257D01*
X8432800Y-932542D02*
X8432800Y-1389742D01*
X8432800Y-997857D02*
X8400142Y-965200D01*
X8334828Y-932542D01*
X8236857Y-932542D01*
X8171542Y-965200D01*
X8138885Y-1030514D01*
X8138885Y-1389742D01*
X7812314Y-1389742D02*
X7812314Y-703942D01*
X7747000Y-1128485D02*
X7551057Y-1389742D01*
X7551057Y-932542D02*
X7812314Y-1193800D01*
X7257142Y-1389742D02*
X7257142Y-932542D01*
X7257142Y-703942D02*
X7289800Y-736600D01*
X7257142Y-769257D01*
X7224485Y-736600D01*
X7257142Y-703942D01*
X7257142Y-769257D01*
X6669314Y-1357085D02*
X6734628Y-1389742D01*
X6865257Y-1389742D01*
X6930571Y-1357085D01*
X6963228Y-1291771D01*
X6963228Y-1030514D01*
X6930571Y-965200D01*
X6865257Y-932542D01*
X6734628Y-932542D01*
X6669314Y-965200D01*
X6636657Y-1030514D01*
X6636657Y-1095828D01*
X6963228Y-1161142D01*
D11*
X13608492Y-12175671D02*
X13583999Y-12153900D01*
X13537735Y-12132128D01*
X13428877Y-12132128D01*
X13388056Y-12153900D01*
X13369006Y-12175671D01*
X13352677Y-12219214D01*
X13358120Y-12262757D01*
X13388056Y-12328071D01*
X13681970Y-12589328D01*
X13398942Y-12589328D01*
X13058763Y-12132128D02*
X13015220Y-12132128D01*
X12974399Y-12153900D01*
X12955349Y-12175671D01*
X12939020Y-12219214D01*
X12928135Y-12306300D01*
X12941742Y-12415157D01*
X12974399Y-12502242D01*
X13001613Y-12545785D01*
X13026106Y-12567557D01*
X13072370Y-12589328D01*
X13115913Y-12589328D01*
X13156735Y-12567557D01*
X13175785Y-12545785D01*
X13192113Y-12502242D01*
X13202999Y-12415157D01*
X13189392Y-12306300D01*
X13156735Y-12219214D01*
X13129520Y-12175671D01*
X13105027Y-12153900D01*
X13058763Y-12132128D01*
X12737635Y-12175671D02*
X12713142Y-12153900D01*
X12666877Y-12132128D01*
X12558020Y-12132128D01*
X12517199Y-12153900D01*
X12498149Y-12175671D01*
X12481820Y-12219214D01*
X12487263Y-12262757D01*
X12517199Y-12328071D01*
X12811113Y-12589328D01*
X12528085Y-12589328D01*
X12187906Y-12132128D02*
X12144363Y-12132128D01*
X12103542Y-12153900D01*
X12084492Y-12175671D01*
X12068163Y-12219214D01*
X12057277Y-12306300D01*
X12070885Y-12415157D01*
X12103542Y-12502242D01*
X12130756Y-12545785D01*
X12155249Y-12567557D01*
X12201513Y-12589328D01*
X12245056Y-12589328D01*
X12285877Y-12567557D01*
X12304927Y-12545785D01*
X12321256Y-12502242D01*
X12332142Y-12415157D01*
X12318535Y-12306300D01*
X12285877Y-12219214D01*
X12258663Y-12175671D01*
X12234170Y-12153900D01*
X12187906Y-12132128D01*
D12*
X10922000Y-15113000D02*
X10922000Y-12954000D01*
X10795000Y-15113000D02*
X10922000Y-15113000D01*
X10795000Y-16256000D02*
X10795000Y-15113000D01*
X10287000Y-16256000D02*
X10795000Y-16256000D01*
X6921500Y-16256000D02*
X10287000Y-16256000D01*
X11430000Y-24257000D02*
X10985500Y-24574500D01*
X11430000Y-24257000D02*
X10985500Y-23939500D01*
X10287000Y-24257000D02*
X11430000Y-24257000D01*
X10287000Y-16256000D02*
X10287000Y-24257000D01*
%TO.C,C8*%
X11980500Y-22553665D02*
X11980500Y-22785335D01*
X11260500Y-22553665D02*
X11260500Y-22785335D01*
%TO.C,Q4*%
X22475000Y-16493000D02*
X23875000Y-16493000D01*
X23875000Y-18813000D02*
X21975000Y-18813000D01*
%TO.C,U4*%
X19485000Y-21257500D02*
X19485000Y-21707500D01*
X19485000Y-21707500D02*
X19035000Y-21707500D01*
X19485000Y-14937500D02*
X19485000Y-14487500D01*
X19485000Y-14487500D02*
X19035000Y-14487500D01*
X12265000Y-21257500D02*
X12265000Y-21707500D01*
X12265000Y-21707500D02*
X12715000Y-21707500D01*
X12265000Y-14937500D02*
X12265000Y-14487500D01*
X12265000Y-14487500D02*
X12715000Y-14487500D01*
X12715000Y-14487500D02*
X12715000Y-13197500D01*
D13*
%TO.C,*%
G36*
X6214655Y-854656D02*
G01*
X6162848Y-826408D01*
X6095867Y-796247D01*
X6000165Y-757073D01*
X5945067Y-732814D01*
X5898296Y-709254D01*
X5832708Y-667916D01*
X5782365Y-619780D01*
X5745518Y-562739D01*
X5720420Y-494682D01*
X5709029Y-438621D01*
X5711733Y-394732D01*
X5737260Y-320384D01*
X5783295Y-261733D01*
X5819455Y-233713D01*
X5874070Y-213027D01*
X5931791Y-202942D01*
X5976524Y-210472D01*
X6042799Y-240829D01*
X6088650Y-285422D01*
X6098971Y-303804D01*
X6104103Y-273305D01*
X6123557Y-214196D01*
X6157823Y-166741D01*
X6203376Y-131845D01*
X6256695Y-110414D01*
X6314254Y-103352D01*
X6372533Y-111564D01*
X6428007Y-135957D01*
X6477154Y-177437D01*
X6511603Y-236848D01*
X6534717Y-314976D01*
X6539852Y-389371D01*
X6531242Y-439381D01*
X6513888Y-489573D01*
X6486253Y-542912D01*
X6446797Y-602366D01*
X6393984Y-670903D01*
X6345366Y-735769D01*
X6302124Y-800613D01*
X6270606Y-852956D01*
X6257165Y-880320D01*
X6250621Y-884224D01*
X6214655Y-854656D01*
G37*
%TO.C,dojoe-logo*%
G36*
X17930013Y-11934125D02*
G01*
X17954554Y-11933343D01*
X17978483Y-11931034D01*
X18001726Y-11927257D01*
X18024208Y-11922068D01*
X18045857Y-11915525D01*
X18066598Y-11907685D01*
X18086359Y-11898606D01*
X18105064Y-11888344D01*
X18122642Y-11876958D01*
X18139018Y-11864504D01*
X18154118Y-11851041D01*
X18167869Y-11836624D01*
X18180198Y-11821312D01*
X18191030Y-11805162D01*
X18200293Y-11788232D01*
X18207912Y-11770578D01*
X18213813Y-11752258D01*
X18217924Y-11733330D01*
X18220171Y-11713850D01*
X18220480Y-11693877D01*
X18218777Y-11673467D01*
X18214989Y-11652677D01*
X18209042Y-11631566D01*
X18200863Y-11610191D01*
X18190378Y-11588608D01*
X17859126Y-10970688D01*
X17848653Y-10952803D01*
X17836556Y-10935129D01*
X17822933Y-10917710D01*
X17807880Y-10900591D01*
X17791495Y-10883815D01*
X17773875Y-10867428D01*
X17755116Y-10851472D01*
X17735316Y-10835992D01*
X17714573Y-10821032D01*
X17692982Y-10806637D01*
X17670641Y-10792851D01*
X17647647Y-10779717D01*
X17624098Y-10767280D01*
X17600090Y-10755585D01*
X17575720Y-10744674D01*
X17551086Y-10734594D01*
X17526285Y-10725386D01*
X17501413Y-10717097D01*
X17476567Y-10709769D01*
X17451846Y-10703448D01*
X17427345Y-10698177D01*
X17403163Y-10694000D01*
X17379395Y-10690962D01*
X17356140Y-10689107D01*
X17333494Y-10688479D01*
X16263504Y-10688479D01*
X16263504Y-10822227D01*
X17333494Y-10822227D01*
X17357203Y-10823160D01*
X17381744Y-10825882D01*
X17406927Y-10830277D01*
X17432560Y-10836230D01*
X17458452Y-10843626D01*
X17484414Y-10852349D01*
X17510254Y-10862284D01*
X17535782Y-10873315D01*
X17560806Y-10885327D01*
X17585137Y-10898204D01*
X17608583Y-10911832D01*
X17630954Y-10926094D01*
X17652060Y-10940874D01*
X17671708Y-10956059D01*
X17689709Y-10971532D01*
X17705872Y-10987177D01*
X17720007Y-11002880D01*
X17731922Y-11018525D01*
X17741427Y-11033996D01*
X18072679Y-11651915D01*
X18080250Y-11669446D01*
X18084248Y-11687061D01*
X18084682Y-11704454D01*
X18081563Y-11721316D01*
X18074903Y-11737343D01*
X18064712Y-11752227D01*
X18051000Y-11765663D01*
X18033778Y-11777342D01*
X18013058Y-11786960D01*
X17988850Y-11794210D01*
X17961164Y-11798784D01*
X17930013Y-11800377D01*
X16926897Y-11800377D01*
X16903120Y-11799444D01*
X16878519Y-11796722D01*
X16853284Y-11792327D01*
X16827604Y-11786373D01*
X16801670Y-11778978D01*
X16775673Y-11770254D01*
X16749802Y-11760320D01*
X16724249Y-11749288D01*
X16699203Y-11737276D01*
X16674854Y-11724399D01*
X16651394Y-11710772D01*
X16629012Y-11696510D01*
X16607898Y-11681729D01*
X16588244Y-11666545D01*
X16570239Y-11651072D01*
X16554073Y-11635426D01*
X16539938Y-11619724D01*
X16528022Y-11604079D01*
X16518518Y-11588608D01*
X15492665Y-9676000D01*
X15374966Y-9739310D01*
X16400819Y-11651918D01*
X16411293Y-11669803D01*
X16423390Y-11687477D01*
X16437015Y-11704896D01*
X16452069Y-11722015D01*
X16468456Y-11738791D01*
X16486080Y-11755179D01*
X16504842Y-11771135D01*
X16524647Y-11786614D01*
X16545397Y-11801574D01*
X16566995Y-11815969D01*
X16589345Y-11829756D01*
X16612350Y-11842889D01*
X16635913Y-11855326D01*
X16659936Y-11867022D01*
X16684323Y-11877932D01*
X16708978Y-11888013D01*
X16733802Y-11897220D01*
X16758700Y-11905510D01*
X16783574Y-11912837D01*
X16808328Y-11919159D01*
X16832864Y-11924430D01*
X16857086Y-11928607D01*
X16880896Y-11931645D01*
X16904199Y-11933500D01*
X16926897Y-11934128D01*
X17930013Y-11934125D01*
G37*
G36*
X10923806Y-11942611D02*
G01*
X10950504Y-11941701D01*
X10976544Y-11938998D01*
X11001817Y-11934544D01*
X11026219Y-11928383D01*
X11049642Y-11920555D01*
X11071980Y-11911104D01*
X11093127Y-11900070D01*
X11112975Y-11887497D01*
X11131418Y-11873427D01*
X11148350Y-11857901D01*
X11163663Y-11840962D01*
X11177636Y-11821926D01*
X11189362Y-11801872D01*
X11198783Y-11780930D01*
X11205840Y-11759231D01*
X11210476Y-11736904D01*
X11212631Y-11714081D01*
X11212248Y-11690893D01*
X11209268Y-11667469D01*
X11203633Y-11643941D01*
X11195284Y-11620439D01*
X11184163Y-11597093D01*
X10852912Y-10979174D01*
X10842444Y-10961287D01*
X10830358Y-10943607D01*
X10816753Y-10926179D01*
X10801723Y-10909047D01*
X10785364Y-10892255D01*
X10767773Y-10875849D01*
X10749044Y-10859873D01*
X10729275Y-10844371D01*
X10708560Y-10829387D01*
X10686997Y-10814967D01*
X10664680Y-10801154D01*
X10641705Y-10787994D01*
X10618169Y-10775530D01*
X10594167Y-10763808D01*
X10569796Y-10752872D01*
X10545150Y-10742766D01*
X10520327Y-10733534D01*
X10495421Y-10725222D01*
X10470529Y-10717874D01*
X10445746Y-10711535D01*
X10421169Y-10706248D01*
X10396894Y-10702058D01*
X10373015Y-10699011D01*
X10349630Y-10697149D01*
X10326833Y-10696519D01*
X9323718Y-10696519D01*
X9297018Y-10697430D01*
X9270978Y-10700135D01*
X9245703Y-10704595D01*
X9221302Y-10710768D01*
X9197879Y-10718616D01*
X9175541Y-10728098D01*
X9154396Y-10739174D01*
X9134549Y-10751804D01*
X9116106Y-10765947D01*
X9099175Y-10781563D01*
X9083861Y-10798613D01*
X9069889Y-10817537D01*
X9058163Y-10837502D01*
X9048742Y-10858378D01*
X9041685Y-10880033D01*
X9037049Y-10902338D01*
X9034894Y-10925161D01*
X9035277Y-10948372D01*
X9038257Y-10971840D01*
X9043892Y-10995435D01*
X9052241Y-11019026D01*
X9063361Y-11042482D01*
X9129341Y-11165977D01*
X9139862Y-11183862D01*
X9151995Y-11201536D01*
X9165644Y-11218954D01*
X9180712Y-11236074D01*
X9197106Y-11252849D01*
X9214727Y-11269237D01*
X9233481Y-11285193D01*
X9253272Y-11300673D01*
X9274004Y-11315633D01*
X9295580Y-11330028D01*
X9317906Y-11343814D01*
X9340884Y-11356948D01*
X9364420Y-11369385D01*
X9388417Y-11381080D01*
X9412780Y-11391991D01*
X9437413Y-11402072D01*
X9462219Y-11411279D01*
X9487103Y-11419569D01*
X9511969Y-11426896D01*
X9536722Y-11433218D01*
X9561264Y-11438489D01*
X9585501Y-11442666D01*
X9609337Y-11445704D01*
X9632675Y-11447559D01*
X9655419Y-11448187D01*
X10725409Y-11448187D01*
X10725409Y-11314438D01*
X9655419Y-11314438D01*
X9631647Y-11313509D01*
X9607056Y-11310796D01*
X9581836Y-11306416D01*
X9556178Y-11300481D01*
X9530269Y-11293107D01*
X9504301Y-11284407D01*
X9478462Y-11274495D01*
X9452942Y-11263487D01*
X9427931Y-11251496D01*
X9403618Y-11238636D01*
X9380192Y-11225022D01*
X9357844Y-11210768D01*
X9336762Y-11195988D01*
X9317137Y-11180797D01*
X9299157Y-11165309D01*
X9283012Y-11149638D01*
X9268893Y-11133898D01*
X9256988Y-11118203D01*
X9247486Y-11102669D01*
X9181056Y-10979174D01*
X9171861Y-10956880D01*
X9168490Y-10936063D01*
X9170346Y-10916808D01*
X9176833Y-10899200D01*
X9187356Y-10883324D01*
X9200652Y-10869640D01*
X9217774Y-10857083D01*
X9238684Y-10846260D01*
X9263347Y-10837778D01*
X9291724Y-10832244D01*
X9323779Y-10830264D01*
X10326895Y-10830264D01*
X10350668Y-10831197D01*
X10375260Y-10833919D01*
X10400480Y-10838316D01*
X10426142Y-10844272D01*
X10452054Y-10851671D01*
X10478028Y-10860400D01*
X10503875Y-10870343D01*
X10529406Y-10881385D01*
X10554432Y-10893411D01*
X10578763Y-10906306D01*
X10602210Y-10919955D01*
X10624584Y-10934243D01*
X10645697Y-10949054D01*
X10665358Y-10964274D01*
X10683378Y-10979788D01*
X10699570Y-10995480D01*
X10713743Y-11011236D01*
X10725707Y-11026940D01*
X10735275Y-11042478D01*
X11066525Y-11660398D01*
X11075720Y-11682477D01*
X11079089Y-11703188D01*
X11077232Y-11722444D01*
X11070745Y-11740160D01*
X11060225Y-11756248D01*
X11046933Y-11769742D01*
X11029813Y-11782172D01*
X11008901Y-11792918D01*
X10984237Y-11801361D01*
X10955858Y-11806880D01*
X10923801Y-11808858D01*
X9519439Y-11808858D01*
X9519439Y-11942607D01*
X10923806Y-11942611D01*
G37*
G36*
X13097224Y-11942611D02*
G01*
X13123922Y-11941701D01*
X13149961Y-11938998D01*
X13175235Y-11934544D01*
X13199637Y-11928383D01*
X13223060Y-11920555D01*
X13245398Y-11911104D01*
X13266544Y-11900070D01*
X13286392Y-11887497D01*
X13304835Y-11873427D01*
X13321767Y-11857901D01*
X13337080Y-11840962D01*
X13351053Y-11821926D01*
X13362779Y-11801872D01*
X13372200Y-11780930D01*
X13379258Y-11759231D01*
X13383894Y-11736904D01*
X13386050Y-11714081D01*
X13385668Y-11690893D01*
X13382689Y-11667469D01*
X13377056Y-11643941D01*
X13368709Y-11620439D01*
X13357590Y-11597093D01*
X13026339Y-10979174D01*
X13015869Y-10961287D01*
X13003783Y-10943607D01*
X12990177Y-10926179D01*
X12975146Y-10909047D01*
X12958787Y-10892255D01*
X12941195Y-10875849D01*
X12922467Y-10859873D01*
X12902697Y-10844371D01*
X12881983Y-10829387D01*
X12860419Y-10814967D01*
X12838102Y-10801154D01*
X12815128Y-10787994D01*
X12791592Y-10775530D01*
X12767591Y-10763808D01*
X12743219Y-10752872D01*
X12718574Y-10742766D01*
X12693751Y-10733534D01*
X12668846Y-10725222D01*
X12643954Y-10717874D01*
X12619172Y-10711535D01*
X12594595Y-10706248D01*
X12570320Y-10702058D01*
X12546442Y-10699011D01*
X12523057Y-10697149D01*
X12500260Y-10696519D01*
X11430267Y-10696519D01*
X11430267Y-10830267D01*
X12500257Y-10830267D01*
X12524030Y-10831200D01*
X12548622Y-10833922D01*
X12573842Y-10838319D01*
X12599504Y-10844275D01*
X12625416Y-10851674D01*
X12651390Y-10860403D01*
X12677237Y-10870347D01*
X12702768Y-10881389D01*
X12727794Y-10893415D01*
X12752125Y-10906310D01*
X12775572Y-10919958D01*
X12797946Y-10934246D01*
X12819058Y-10949057D01*
X12838719Y-10964277D01*
X12856740Y-10979791D01*
X12872931Y-10995484D01*
X12887104Y-11011240D01*
X12899069Y-11026944D01*
X12908636Y-11042482D01*
X13239888Y-11660402D01*
X13249079Y-11682481D01*
X13252448Y-11703192D01*
X13250592Y-11722448D01*
X13244107Y-11740164D01*
X13233588Y-11756252D01*
X13220296Y-11769746D01*
X13203176Y-11782176D01*
X13182264Y-11792922D01*
X13157600Y-11801365D01*
X13129221Y-11806884D01*
X13097165Y-11808862D01*
X12094049Y-11808862D01*
X12070277Y-11807933D01*
X12045685Y-11805220D01*
X12020464Y-11800840D01*
X11994803Y-11794905D01*
X11968891Y-11787531D01*
X11942916Y-11778831D01*
X11917069Y-11768919D01*
X11891538Y-11757911D01*
X11866513Y-11745919D01*
X11842182Y-11733060D01*
X11818735Y-11719446D01*
X11796361Y-11705192D01*
X11775248Y-11690412D01*
X11755587Y-11675221D01*
X11737566Y-11659732D01*
X11721375Y-11644061D01*
X11707202Y-11628321D01*
X11695238Y-11612627D01*
X11685669Y-11597093D01*
X11190353Y-10672889D01*
X11072208Y-10736199D01*
X11567970Y-11660404D01*
X11578443Y-11678289D01*
X11590534Y-11695963D01*
X11604150Y-11713381D01*
X11619192Y-11730501D01*
X11635566Y-11747276D01*
X11653173Y-11763664D01*
X11671919Y-11779620D01*
X11691706Y-11795100D01*
X11712438Y-11810059D01*
X11734019Y-11824454D01*
X11756353Y-11838241D01*
X11779342Y-11851374D01*
X11802891Y-11863811D01*
X11826904Y-11875507D01*
X11851283Y-11886417D01*
X11875933Y-11896498D01*
X11900756Y-11905705D01*
X11925658Y-11913995D01*
X11950541Y-11921322D01*
X11975309Y-11927644D01*
X11999865Y-11932915D01*
X12024114Y-11937092D01*
X12047959Y-11940130D01*
X12071303Y-11941985D01*
X12094049Y-11942613D01*
X13097224Y-11942611D01*
G37*
G36*
X15772200Y-11942611D02*
G01*
X15798897Y-11941701D01*
X15824936Y-11938998D01*
X15850210Y-11934544D01*
X15874612Y-11928383D01*
X15898035Y-11920555D01*
X15920373Y-11911104D01*
X15941519Y-11900070D01*
X15961367Y-11887497D01*
X15979810Y-11873427D01*
X15996742Y-11857901D01*
X16012056Y-11840962D01*
X16026030Y-11821926D01*
X16037758Y-11801872D01*
X16047179Y-11780930D01*
X16054237Y-11759231D01*
X16058873Y-11736904D01*
X16061028Y-11714081D01*
X16060645Y-11690893D01*
X16057666Y-11667469D01*
X16052032Y-11643941D01*
X16043684Y-11620439D01*
X16032566Y-11597093D01*
X15701314Y-10979174D01*
X15690845Y-10961287D01*
X15678759Y-10943607D01*
X15665154Y-10926179D01*
X15650124Y-10909047D01*
X15633765Y-10892255D01*
X15616174Y-10875849D01*
X15597445Y-10859873D01*
X15577676Y-10844371D01*
X15556961Y-10829387D01*
X15535398Y-10814967D01*
X15513081Y-10801154D01*
X15490106Y-10787994D01*
X15466570Y-10775530D01*
X15442569Y-10763808D01*
X15418197Y-10752872D01*
X15393551Y-10742766D01*
X15368728Y-10733534D01*
X15343822Y-10725222D01*
X15318930Y-10717874D01*
X15294148Y-10711535D01*
X15269571Y-10706248D01*
X15245295Y-10702058D01*
X15221417Y-10699011D01*
X15198032Y-10697149D01*
X15175236Y-10696519D01*
X14105246Y-10696519D01*
X14105246Y-10830267D01*
X15175236Y-10830267D01*
X15199008Y-10831200D01*
X15223600Y-10833922D01*
X15248820Y-10838319D01*
X15274482Y-10844275D01*
X15300394Y-10851674D01*
X15326368Y-10860403D01*
X15352215Y-10870347D01*
X15377746Y-10881389D01*
X15402772Y-10893415D01*
X15427103Y-10906310D01*
X15450550Y-10919958D01*
X15472924Y-10934246D01*
X15494036Y-10949057D01*
X15513697Y-10964277D01*
X15531718Y-10979791D01*
X15547909Y-10995484D01*
X15562082Y-11011240D01*
X15574047Y-11026944D01*
X15583615Y-11042482D01*
X15914867Y-11660402D01*
X15924061Y-11682481D01*
X15927431Y-11703192D01*
X15925573Y-11722448D01*
X15919086Y-11740164D01*
X15908567Y-11756252D01*
X15895271Y-11769746D01*
X15878149Y-11782176D01*
X15857239Y-11792922D01*
X15832576Y-11801365D01*
X15804198Y-11806884D01*
X15772143Y-11808862D01*
X14769027Y-11808862D01*
X14745254Y-11807933D01*
X14720662Y-11805220D01*
X14695442Y-11800840D01*
X14669780Y-11794905D01*
X14643868Y-11787531D01*
X14617894Y-11778831D01*
X14592047Y-11768919D01*
X14566516Y-11757911D01*
X14541490Y-11745919D01*
X14517159Y-11733060D01*
X14493712Y-11719446D01*
X14471338Y-11705192D01*
X14450226Y-11690412D01*
X14430565Y-11675221D01*
X14412544Y-11659732D01*
X14396353Y-11644061D01*
X14382180Y-11628321D01*
X14370215Y-11612627D01*
X14360648Y-11597093D01*
X13865331Y-10672889D01*
X13747187Y-10736199D01*
X14242949Y-11660404D01*
X14253421Y-11678289D01*
X14265512Y-11695963D01*
X14279128Y-11713381D01*
X14294170Y-11730501D01*
X14310544Y-11747276D01*
X14328151Y-11763664D01*
X14346897Y-11779620D01*
X14366684Y-11795100D01*
X14387416Y-11810059D01*
X14408997Y-11824454D01*
X14431330Y-11838241D01*
X14454320Y-11851374D01*
X14477869Y-11863811D01*
X14501881Y-11875507D01*
X14526261Y-11886417D01*
X14550910Y-11896498D01*
X14575734Y-11905705D01*
X14600636Y-11913995D01*
X14625519Y-11921322D01*
X14650286Y-11927644D01*
X14674843Y-11932915D01*
X14699091Y-11937092D01*
X14722936Y-11940130D01*
X14746280Y-11941985D01*
X14769027Y-11942613D01*
X15772200Y-11942611D01*
G37*
G36*
X15496678Y-12676000D02*
G01*
X15521219Y-12675216D01*
X15545148Y-12672901D01*
X15568391Y-12669114D01*
X15590873Y-12663912D01*
X15612521Y-12657354D01*
X15633263Y-12649495D01*
X15653023Y-12640395D01*
X15671728Y-12630111D01*
X15689306Y-12618701D01*
X15705682Y-12606222D01*
X15720782Y-12592732D01*
X15734533Y-12578289D01*
X15746862Y-12562951D01*
X15757694Y-12546774D01*
X15766956Y-12529818D01*
X15774575Y-12512139D01*
X15780477Y-12493795D01*
X15784588Y-12474844D01*
X15786835Y-12455344D01*
X15787144Y-12435352D01*
X15785441Y-12414926D01*
X15781653Y-12394124D01*
X15775706Y-12373003D01*
X15767527Y-12351622D01*
X15757042Y-12330037D01*
X15754842Y-12326437D01*
X15642047Y-12145876D01*
X15528806Y-12217206D01*
X15639818Y-12394201D01*
X15649218Y-12419611D01*
X15650894Y-12438103D01*
X15648510Y-12456158D01*
X15642179Y-12473422D01*
X15632012Y-12489539D01*
X15618121Y-12504152D01*
X15600619Y-12516906D01*
X15579618Y-12527445D01*
X15555231Y-12535413D01*
X15527569Y-12540455D01*
X15496745Y-12542215D01*
X14660815Y-12542215D01*
X14637042Y-12541282D01*
X14612450Y-12538560D01*
X14587229Y-12534163D01*
X14561568Y-12528207D01*
X14535656Y-12520808D01*
X14509681Y-12512079D01*
X14483834Y-12502135D01*
X14458303Y-12491093D01*
X14433278Y-12479067D01*
X14408947Y-12466172D01*
X14385500Y-12452524D01*
X14363126Y-12438236D01*
X14342013Y-12423425D01*
X14322352Y-12408205D01*
X14304331Y-12392691D01*
X14288140Y-12376998D01*
X14273967Y-12361242D01*
X14262003Y-12345538D01*
X14252435Y-12330000D01*
X13359438Y-10664828D01*
X13241740Y-10728138D01*
X14134737Y-12393309D01*
X14145209Y-12411196D01*
X14157300Y-12428876D01*
X14170916Y-12446304D01*
X14185958Y-12463437D01*
X14202332Y-12480228D01*
X14219939Y-12496634D01*
X14238685Y-12512611D01*
X14258472Y-12528113D01*
X14279204Y-12543097D01*
X14300785Y-12557517D01*
X14323118Y-12571330D01*
X14346108Y-12584490D01*
X14369657Y-12596954D01*
X14393669Y-12608676D01*
X14418049Y-12619612D01*
X14442698Y-12629718D01*
X14467522Y-12638950D01*
X14492424Y-12647262D01*
X14517307Y-12654610D01*
X14542074Y-12660949D01*
X14566631Y-12666236D01*
X14590879Y-12670426D01*
X14614724Y-12673473D01*
X14638068Y-12675335D01*
X14660815Y-12675965D01*
X15496678Y-12676000D01*
G37*
D12*
%TO.C,TP1*%
X21020000Y-13462000D02*
G75*
G03*
X21020000Y-13462000I-700000J0D01*
G01*
%TO.C,TP2*%
X18099000Y-24257000D02*
G75*
G03*
X18099000Y-24257000I-700000J0D01*
G01*
%TO.C,TP3*%
X16067000Y-24257000D02*
G75*
G03*
X16067000Y-24257000I-700000J0D01*
G01*
%TO.C,C9*%
X13346165Y-8530000D02*
X13577835Y-8530000D01*
X13346165Y-9250000D02*
X13577835Y-9250000D01*
%TO.C,U1*%
X13335000Y-8323000D02*
X11135000Y-8323000D01*
X13335000Y-8323000D02*
X15535000Y-8323000D01*
X13335000Y-2853000D02*
X11135000Y-2853000D01*
X13335000Y-2853000D02*
X16935000Y-2853000D01*
%TO.C,U3*%
X6944000Y-17032400D02*
X6944000Y-19482400D01*
X3724000Y-18832400D02*
X3724000Y-17032400D01*
%TO.C,R5*%
X24004000Y-20614621D02*
X24004000Y-20279379D01*
X24764000Y-20614621D02*
X24764000Y-20279379D01*
%TO.C,R4*%
X19725621Y-24637000D02*
X19390379Y-24637000D01*
X19725621Y-23877000D02*
X19390379Y-23877000D01*
%TO.C,R3*%
X21972000Y-20614621D02*
X21972000Y-20279379D01*
X22732000Y-20614621D02*
X22732000Y-20279379D01*
%TO.C,R2*%
X22988000Y-20614621D02*
X22988000Y-20279379D01*
X23748000Y-20614621D02*
X23748000Y-20279379D01*
%TO.C,FB1*%
X4164200Y-21391200D02*
X3963800Y-21391200D01*
X4164200Y-20671200D02*
X3963800Y-20671200D01*
%TO.C,DS1*%
X24937000Y-24995000D02*
X21037000Y-24995000D01*
X24937000Y-21995000D02*
X21037000Y-21995000D01*
X24937000Y-22795000D02*
X24937000Y-21995000D01*
%TO.C,D1*%
X3084000Y-24825200D02*
X3084000Y-22825200D01*
X3084000Y-22825200D02*
X6984000Y-22825200D01*
X3084000Y-24825200D02*
X6984000Y-24825200D01*
%TO.C,C7*%
X13260335Y-24744000D02*
X13028665Y-24744000D01*
X13260335Y-24024000D02*
X13028665Y-24024000D01*
%TO.C,C3*%
X20553000Y-22363165D02*
X20553000Y-22594835D01*
X19833000Y-22363165D02*
X19833000Y-22594835D01*
%TO.C,C1*%
X6488165Y-21687200D02*
X6719835Y-21687200D01*
X6488165Y-22407200D02*
X6719835Y-22407200D01*
%TO.C,C8*%
D10*
X6812642Y-13906500D02*
X6848928Y-13870214D01*
X6885214Y-13761357D01*
X6885214Y-13688785D01*
X6848928Y-13579928D01*
X6776357Y-13507357D01*
X6703785Y-13471071D01*
X6558642Y-13434785D01*
X6449785Y-13434785D01*
X6304642Y-13471071D01*
X6232071Y-13507357D01*
X6159500Y-13579928D01*
X6123214Y-13688785D01*
X6123214Y-13761357D01*
X6159500Y-13870214D01*
X6195785Y-13906500D01*
X6449785Y-14341928D02*
X6413500Y-14269357D01*
X6377214Y-14233071D01*
X6304642Y-14196785D01*
X6268357Y-14196785D01*
X6195785Y-14233071D01*
X6159500Y-14269357D01*
X6123214Y-14341928D01*
X6123214Y-14487071D01*
X6159500Y-14559642D01*
X6195785Y-14595928D01*
X6268357Y-14632214D01*
X6304642Y-14632214D01*
X6377214Y-14595928D01*
X6413500Y-14559642D01*
X6449785Y-14487071D01*
X6449785Y-14341928D01*
X6486071Y-14269357D01*
X6522357Y-14233071D01*
X6594928Y-14196785D01*
X6740071Y-14196785D01*
X6812642Y-14233071D01*
X6848928Y-14269357D01*
X6885214Y-14341928D01*
X6885214Y-14487071D01*
X6848928Y-14559642D01*
X6812642Y-14595928D01*
X6740071Y-14632214D01*
X6594928Y-14632214D01*
X6522357Y-14595928D01*
X6486071Y-14559642D01*
X6449785Y-14487071D01*
%TO.C,Q4*%
X23186571Y-13752285D02*
X23259142Y-13716000D01*
X23331714Y-13643428D01*
X23440571Y-13534571D01*
X23513142Y-13498285D01*
X23585714Y-13498285D01*
X23549428Y-13679714D02*
X23622000Y-13643428D01*
X23694571Y-13570857D01*
X23730857Y-13425714D01*
X23730857Y-13171714D01*
X23694571Y-13026571D01*
X23622000Y-12954000D01*
X23549428Y-12917714D01*
X23404285Y-12917714D01*
X23331714Y-12954000D01*
X23259142Y-13026571D01*
X23222857Y-13171714D01*
X23222857Y-13425714D01*
X23259142Y-13570857D01*
X23331714Y-13643428D01*
X23404285Y-13679714D01*
X23549428Y-13679714D01*
X22569714Y-13171714D02*
X22569714Y-13679714D01*
X22751142Y-12881428D02*
X22932571Y-13425714D01*
X22460857Y-13425714D01*
%TO.C,U4*%
D14*
X11136380Y-13335095D02*
X11945904Y-13335095D01*
X12041142Y-13382714D01*
X12088761Y-13430333D01*
X12136380Y-13525571D01*
X12136380Y-13716047D01*
X12088761Y-13811285D01*
X12041142Y-13858904D01*
X11945904Y-13906523D01*
X11136380Y-13906523D01*
X11469714Y-14811285D02*
X12136380Y-14811285D01*
X11088761Y-14573190D02*
X11803047Y-14335095D01*
X11803047Y-14954142D01*
%TO.C,TP1*%
D10*
X21535571Y-11774714D02*
X21100142Y-11774714D01*
X21317857Y-12536714D02*
X21317857Y-11774714D01*
X20846142Y-12536714D02*
X20846142Y-11774714D01*
X20555857Y-11774714D01*
X20483285Y-11811000D01*
X20447000Y-11847285D01*
X20410714Y-11919857D01*
X20410714Y-12028714D01*
X20447000Y-12101285D01*
X20483285Y-12137571D01*
X20555857Y-12173857D01*
X20846142Y-12173857D01*
X19685000Y-12536714D02*
X20120428Y-12536714D01*
X19902714Y-12536714D02*
X19902714Y-11774714D01*
X19975285Y-11883571D01*
X20047857Y-11956142D01*
X20120428Y-11992428D01*
%TO.C,TP2*%
X10232571Y-15330714D02*
X9797142Y-15330714D01*
X10014857Y-16092714D02*
X10014857Y-15330714D01*
X9543142Y-16092714D02*
X9543142Y-15330714D01*
X9252857Y-15330714D01*
X9180285Y-15367000D01*
X9144000Y-15403285D01*
X9107714Y-15475857D01*
X9107714Y-15584714D01*
X9144000Y-15657285D01*
X9180285Y-15693571D01*
X9252857Y-15729857D01*
X9543142Y-15729857D01*
X8817428Y-15403285D02*
X8781142Y-15367000D01*
X8708571Y-15330714D01*
X8527142Y-15330714D01*
X8454571Y-15367000D01*
X8418285Y-15403285D01*
X8382000Y-15475857D01*
X8382000Y-15548428D01*
X8418285Y-15657285D01*
X8853714Y-16092714D01*
X8382000Y-16092714D01*
%TO.C,TP3*%
X9153071Y-14060714D02*
X8717642Y-14060714D01*
X8935357Y-14822714D02*
X8935357Y-14060714D01*
X8463642Y-14822714D02*
X8463642Y-14060714D01*
X8173357Y-14060714D01*
X8100785Y-14097000D01*
X8064500Y-14133285D01*
X8028214Y-14205857D01*
X8028214Y-14314714D01*
X8064500Y-14387285D01*
X8100785Y-14423571D01*
X8173357Y-14459857D01*
X8463642Y-14459857D01*
X7774214Y-14060714D02*
X7302500Y-14060714D01*
X7556500Y-14351000D01*
X7447642Y-14351000D01*
X7375071Y-14387285D01*
X7338785Y-14423571D01*
X7302500Y-14496142D01*
X7302500Y-14677571D01*
X7338785Y-14750142D01*
X7375071Y-14786428D01*
X7447642Y-14822714D01*
X7665357Y-14822714D01*
X7737928Y-14786428D01*
X7774214Y-14750142D01*
%TO.C,C9*%
X11811000Y-9289142D02*
X11847285Y-9325428D01*
X11956142Y-9361714D01*
X12028714Y-9361714D01*
X12137571Y-9325428D01*
X12210142Y-9252857D01*
X12246428Y-9180285D01*
X12282714Y-9035142D01*
X12282714Y-8926285D01*
X12246428Y-8781142D01*
X12210142Y-8708571D01*
X12137571Y-8636000D01*
X12028714Y-8599714D01*
X11956142Y-8599714D01*
X11847285Y-8636000D01*
X11811000Y-8672285D01*
X11448142Y-9361714D02*
X11303000Y-9361714D01*
X11230428Y-9325428D01*
X11194142Y-9289142D01*
X11121571Y-9180285D01*
X11085285Y-9035142D01*
X11085285Y-8744857D01*
X11121571Y-8672285D01*
X11157857Y-8636000D01*
X11230428Y-8599714D01*
X11375571Y-8599714D01*
X11448142Y-8636000D01*
X11484428Y-8672285D01*
X11520714Y-8744857D01*
X11520714Y-8926285D01*
X11484428Y-8998857D01*
X11448142Y-9035142D01*
X11375571Y-9071428D01*
X11230428Y-9071428D01*
X11157857Y-9035142D01*
X11121571Y-8998857D01*
X11085285Y-8926285D01*
%TO.C,U1*%
X16836571Y-1868714D02*
X16836571Y-2485571D01*
X16800285Y-2558142D01*
X16764000Y-2594428D01*
X16691428Y-2630714D01*
X16546285Y-2630714D01*
X16473714Y-2594428D01*
X16437428Y-2558142D01*
X16401142Y-2485571D01*
X16401142Y-1868714D01*
X15639142Y-2630714D02*
X16074571Y-2630714D01*
X15856857Y-2630714D02*
X15856857Y-1868714D01*
X15929428Y-1977571D01*
X16002000Y-2050142D01*
X16074571Y-2086428D01*
%TO.C,U3*%
X7139214Y-18621828D02*
X7756071Y-18621828D01*
X7828642Y-18658114D01*
X7864928Y-18694400D01*
X7901214Y-18766971D01*
X7901214Y-18912114D01*
X7864928Y-18984685D01*
X7828642Y-19020971D01*
X7756071Y-19057257D01*
X7139214Y-19057257D01*
X7139214Y-19347542D02*
X7139214Y-19819257D01*
X7429500Y-19565257D01*
X7429500Y-19674114D01*
X7465785Y-19746685D01*
X7502071Y-19782971D01*
X7574642Y-19819257D01*
X7756071Y-19819257D01*
X7828642Y-19782971D01*
X7864928Y-19746685D01*
X7901214Y-19674114D01*
X7901214Y-19456400D01*
X7864928Y-19383828D01*
X7828642Y-19347542D01*
%TO.C,R5*%
X24728714Y-14541500D02*
X24365857Y-14287500D01*
X24728714Y-14106071D02*
X23966714Y-14106071D01*
X23966714Y-14396357D01*
X24003000Y-14468928D01*
X24039285Y-14505214D01*
X24111857Y-14541500D01*
X24220714Y-14541500D01*
X24293285Y-14505214D01*
X24329571Y-14468928D01*
X24365857Y-14396357D01*
X24365857Y-14106071D01*
X23966714Y-15230928D02*
X23966714Y-14868071D01*
X24329571Y-14831785D01*
X24293285Y-14868071D01*
X24257000Y-14940642D01*
X24257000Y-15122071D01*
X24293285Y-15194642D01*
X24329571Y-15230928D01*
X24402142Y-15267214D01*
X24583571Y-15267214D01*
X24656142Y-15230928D01*
X24692428Y-15194642D01*
X24728714Y-15122071D01*
X24728714Y-14940642D01*
X24692428Y-14868071D01*
X24656142Y-14831785D01*
%TO.C,R4*%
X10287000Y-14822714D02*
X10541000Y-14459857D01*
X10722428Y-14822714D02*
X10722428Y-14060714D01*
X10432142Y-14060714D01*
X10359571Y-14097000D01*
X10323285Y-14133285D01*
X10287000Y-14205857D01*
X10287000Y-14314714D01*
X10323285Y-14387285D01*
X10359571Y-14423571D01*
X10432142Y-14459857D01*
X10722428Y-14459857D01*
X9633857Y-14314714D02*
X9633857Y-14822714D01*
X9815285Y-14024428D02*
X9996714Y-14568714D01*
X9525000Y-14568714D01*
%TO.C,R3*%
X22696714Y-14541500D02*
X22333857Y-14287500D01*
X22696714Y-14106071D02*
X21934714Y-14106071D01*
X21934714Y-14396357D01*
X21971000Y-14468928D01*
X22007285Y-14505214D01*
X22079857Y-14541500D01*
X22188714Y-14541500D01*
X22261285Y-14505214D01*
X22297571Y-14468928D01*
X22333857Y-14396357D01*
X22333857Y-14106071D01*
X21934714Y-14795500D02*
X21934714Y-15267214D01*
X22225000Y-15013214D01*
X22225000Y-15122071D01*
X22261285Y-15194642D01*
X22297571Y-15230928D01*
X22370142Y-15267214D01*
X22551571Y-15267214D01*
X22624142Y-15230928D01*
X22660428Y-15194642D01*
X22696714Y-15122071D01*
X22696714Y-14904357D01*
X22660428Y-14831785D01*
X22624142Y-14795500D01*
%TO.C,R2*%
X23712714Y-14541500D02*
X23349857Y-14287500D01*
X23712714Y-14106071D02*
X22950714Y-14106071D01*
X22950714Y-14396357D01*
X22987000Y-14468928D01*
X23023285Y-14505214D01*
X23095857Y-14541500D01*
X23204714Y-14541500D01*
X23277285Y-14505214D01*
X23313571Y-14468928D01*
X23349857Y-14396357D01*
X23349857Y-14106071D01*
X23023285Y-14831785D02*
X22987000Y-14868071D01*
X22950714Y-14940642D01*
X22950714Y-15122071D01*
X22987000Y-15194642D01*
X23023285Y-15230928D01*
X23095857Y-15267214D01*
X23168428Y-15267214D01*
X23277285Y-15230928D01*
X23712714Y-14795500D01*
X23712714Y-15267214D01*
%TO.C,FB1*%
X2768600Y-21992771D02*
X3022600Y-21992771D01*
X3022600Y-22391914D02*
X3022600Y-21629914D01*
X2659742Y-21629914D01*
X2115457Y-21992771D02*
X2006600Y-22029057D01*
X1970314Y-22065342D01*
X1934028Y-22137914D01*
X1934028Y-22246771D01*
X1970314Y-22319342D01*
X2006600Y-22355628D01*
X2079171Y-22391914D01*
X2369457Y-22391914D01*
X2369457Y-21629914D01*
X2115457Y-21629914D01*
X2042885Y-21666200D01*
X2006600Y-21702485D01*
X1970314Y-21775057D01*
X1970314Y-21847628D01*
X2006600Y-21920200D01*
X2042885Y-21956485D01*
X2115457Y-21992771D01*
X2369457Y-21992771D01*
X1208314Y-22391914D02*
X1643742Y-22391914D01*
X1426028Y-22391914D02*
X1426028Y-21629914D01*
X1498600Y-21738771D01*
X1571171Y-21811342D01*
X1643742Y-21847628D01*
%TO.C,DS1*%
X23331714Y-22633214D02*
X22569714Y-22633214D01*
X22569714Y-22814642D01*
X22606000Y-22923500D01*
X22678571Y-22996071D01*
X22751142Y-23032357D01*
X22896285Y-23068642D01*
X23005142Y-23068642D01*
X23150285Y-23032357D01*
X23222857Y-22996071D01*
X23295428Y-22923500D01*
X23331714Y-22814642D01*
X23331714Y-22633214D01*
X23295428Y-23358928D02*
X23331714Y-23467785D01*
X23331714Y-23649214D01*
X23295428Y-23721785D01*
X23259142Y-23758071D01*
X23186571Y-23794357D01*
X23114000Y-23794357D01*
X23041428Y-23758071D01*
X23005142Y-23721785D01*
X22968857Y-23649214D01*
X22932571Y-23504071D01*
X22896285Y-23431500D01*
X22860000Y-23395214D01*
X22787428Y-23358928D01*
X22714857Y-23358928D01*
X22642285Y-23395214D01*
X22606000Y-23431500D01*
X22569714Y-23504071D01*
X22569714Y-23685500D01*
X22606000Y-23794357D01*
X23331714Y-24520071D02*
X23331714Y-24084642D01*
X23331714Y-24302357D02*
X22569714Y-24302357D01*
X22678571Y-24229785D01*
X22751142Y-24157214D01*
X22787428Y-24084642D01*
%TO.C,D1*%
X2797628Y-24982714D02*
X2797628Y-24220714D01*
X2616200Y-24220714D01*
X2507342Y-24257000D01*
X2434771Y-24329571D01*
X2398485Y-24402142D01*
X2362200Y-24547285D01*
X2362200Y-24656142D01*
X2398485Y-24801285D01*
X2434771Y-24873857D01*
X2507342Y-24946428D01*
X2616200Y-24982714D01*
X2797628Y-24982714D01*
X1636485Y-24982714D02*
X2071914Y-24982714D01*
X1854200Y-24982714D02*
X1854200Y-24220714D01*
X1926771Y-24329571D01*
X1999342Y-24402142D01*
X2071914Y-24438428D01*
%TO.C,C7*%
X7429500Y-16020142D02*
X7465785Y-16056428D01*
X7574642Y-16092714D01*
X7647214Y-16092714D01*
X7756071Y-16056428D01*
X7828642Y-15983857D01*
X7864928Y-15911285D01*
X7901214Y-15766142D01*
X7901214Y-15657285D01*
X7864928Y-15512142D01*
X7828642Y-15439571D01*
X7756071Y-15367000D01*
X7647214Y-15330714D01*
X7574642Y-15330714D01*
X7465785Y-15367000D01*
X7429500Y-15403285D01*
X7175500Y-15330714D02*
X6667500Y-15330714D01*
X6994071Y-16092714D01*
%TO.C,C3*%
X10368642Y-13081000D02*
X10404928Y-13044714D01*
X10441214Y-12935857D01*
X10441214Y-12863285D01*
X10404928Y-12754428D01*
X10332357Y-12681857D01*
X10259785Y-12645571D01*
X10114642Y-12609285D01*
X10005785Y-12609285D01*
X9860642Y-12645571D01*
X9788071Y-12681857D01*
X9715500Y-12754428D01*
X9679214Y-12863285D01*
X9679214Y-12935857D01*
X9715500Y-13044714D01*
X9751785Y-13081000D01*
X9679214Y-13335000D02*
X9679214Y-13806714D01*
X9969500Y-13552714D01*
X9969500Y-13661571D01*
X10005785Y-13734142D01*
X10042071Y-13770428D01*
X10114642Y-13806714D01*
X10296071Y-13806714D01*
X10368642Y-13770428D01*
X10404928Y-13734142D01*
X10441214Y-13661571D01*
X10441214Y-13443857D01*
X10404928Y-13371285D01*
X10368642Y-13335000D01*
%TO.C,C1*%
X8509000Y-22370142D02*
X8545285Y-22406428D01*
X8654142Y-22442714D01*
X8726714Y-22442714D01*
X8835571Y-22406428D01*
X8908142Y-22333857D01*
X8944428Y-22261285D01*
X8980714Y-22116142D01*
X8980714Y-22007285D01*
X8944428Y-21862142D01*
X8908142Y-21789571D01*
X8835571Y-21717000D01*
X8726714Y-21680714D01*
X8654142Y-21680714D01*
X8545285Y-21717000D01*
X8509000Y-21753285D01*
X7783285Y-22442714D02*
X8218714Y-22442714D01*
X8001000Y-22442714D02*
X8001000Y-21680714D01*
X8073571Y-21789571D01*
X8146142Y-21862142D01*
X8218714Y-21898428D01*
%TD*%
M02*
