%TF.GenerationSoftware,KiCad,Pcbnew,(5.1.7)-1*%
%TF.CreationDate,2021-02-13T17:52:43+01:00*%
%TF.ProjectId,twonkie,74776f6e-6b69-4652-9e6b-696361645f70,rev?*%
%TF.SameCoordinates,PX448d510PY20b3950*%
%TF.FileFunction,Copper,L3,Inr*%
%TF.FilePolarity,Positive*%
%FSLAX46Y46*%
G04 Gerber Fmt 4.6, Leading zero omitted, Abs format (unit mm)*
G04 Created by KiCad (PCBNEW (5.1.7)-1) date 2021-02-13 17:52:43*
%MOMM*%
%LPD*%
G01*
G04 APERTURE LIST*
%TA.AperFunction,ComponentPad*%
%ADD10O,2.500000X1.300000*%
%TD*%
%TA.AperFunction,ComponentPad*%
%ADD11O,1.450000X2.000000*%
%TD*%
%TA.AperFunction,ComponentPad*%
%ADD12O,1.150000X1.800000*%
%TD*%
%TA.AperFunction,ViaPad*%
%ADD13C,0.609600*%
%TD*%
%TA.AperFunction,ViaPad*%
%ADD14C,0.508000*%
%TD*%
%TA.AperFunction,ViaPad*%
%ADD15C,0.457200*%
%TD*%
%TA.AperFunction,Conductor*%
%ADD16C,0.203200*%
%TD*%
%TA.AperFunction,Conductor*%
%ADD17C,0.508000*%
%TD*%
%TA.AperFunction,Conductor*%
%ADD18C,0.254000*%
%TD*%
%TA.AperFunction,Conductor*%
%ADD19C,0.100000*%
%TD*%
G04 APERTURE END LIST*
D10*
%TO.N,GND*%
%TO.C,J1*%
X21190000Y-10360000D03*
X21190000Y-2340000D03*
%TD*%
D11*
%TO.N,GND*%
%TO.C,J3*%
X1304200Y-19790800D03*
X8754200Y-19790800D03*
D12*
X1154200Y-23590800D03*
X8904200Y-23590800D03*
%TD*%
D13*
%TO.N,GND*%
X13462000Y-20447000D03*
X12192000Y-4699000D03*
X635000Y-698500D03*
D14*
X6477000Y-10414000D03*
X6477000Y-9779000D03*
X6477000Y-2921000D03*
X6477000Y-2286000D03*
D13*
X5334000Y-17881600D03*
X13412792Y-16961149D03*
D14*
X19177000Y-14732000D03*
D13*
X8890000Y-15240000D03*
X4673600Y-17881600D03*
X571500Y-12001500D03*
X22288500Y-889000D03*
X20320000Y-3492500D03*
X19939000Y-3048000D03*
X19431000Y-10414000D03*
X20256500Y-9271000D03*
X19558000Y-11303000D03*
X24257000Y-12636500D03*
X23558500Y-1016000D03*
X5715000Y-11303000D03*
X3873500Y-12001500D03*
X3873500Y-698500D03*
X13906500Y-8102590D03*
X14922500Y-4445000D03*
X5715000Y-1460500D03*
X24257000Y-11620500D03*
X19514320Y-23067117D03*
X21526500Y-21399500D03*
X16256000Y-15621000D03*
%TO.N,+5V*%
X23241000Y-23368000D03*
%TO.N,+3V3*%
X5588000Y-16967200D03*
X11684000Y-7239000D03*
X12442000Y-22102000D03*
X12700000Y-7874000D03*
X19685000Y-21336000D03*
X5588000Y-16154400D03*
X9017000Y-16637000D03*
X12206419Y-3951419D03*
D14*
X14993294Y-5261560D03*
D13*
X8890000Y-10350500D03*
X22415500Y-11811000D03*
X14859000Y-17843500D03*
%TO.N,Net-(D1-Pad1)*%
X3491500Y-21959300D03*
D14*
%TO.N,/CC1_RECEP*%
X10033000Y-8509000D03*
X17399000Y-5588000D03*
X9271000Y-5524500D03*
X11049000Y-10350500D03*
D13*
%TO.N,/CC2_RECEP*%
X9144000Y-7239000D03*
D14*
X10414000Y-10350500D03*
%TO.N,/CC1_TX_DATA*%
X2794000Y-13716000D03*
X4000500Y-15113000D03*
%TO.N,/CC1_TX_EN*%
X10414000Y-20701000D03*
%TO.N,/CC2_TX_DATA*%
X18391125Y-15914625D03*
%TO.N,/CC2_TX_EN*%
X14132613Y-15704645D03*
%TO.N,/CC2*%
X10668000Y-13716000D03*
X19939000Y-14732000D03*
X10795000Y-12700000D03*
%TO.N,/CC1_EN*%
X9337588Y-13053528D03*
X17780000Y-15557500D03*
%TO.N,/CC2_EN*%
X13843000Y-12827000D03*
X19050000Y-13589000D03*
%TO.N,/BOOT*%
X21526500Y-18796000D03*
X18516599Y-19558000D03*
%TO.N,/LED_G_L*%
X22796500Y-19240500D03*
%TO.N,/LED_B_L*%
X18923000Y-23622000D03*
%TO.N,/CC1_RP3A0*%
X14605000Y-16129000D03*
%TO.N,/CC1_RA*%
X7576582Y-15013987D03*
%TO.N,/CC1_RP1A5*%
X6893953Y-14999838D03*
%TO.N,/CC1_RD*%
X14010642Y-20035519D03*
%TO.N,/CC1_RPUSB*%
X10414000Y-20002500D03*
%TO.N,/CC2_RP3A0*%
X14351000Y-20574000D03*
%TO.N,/CC2_RA*%
X15621000Y-20574000D03*
%TO.N,/CC2_RP1A5*%
X16793347Y-20574000D03*
%TO.N,/CC2_RD*%
X17653000Y-20574000D03*
%TO.N,/CC2_RPUSB*%
X18415000Y-20574000D03*
%TO.N,/INA_SCL*%
X12954000Y-5461000D03*
X13307848Y-19323564D03*
X13462000Y-10350500D03*
%TO.N,/INA_SDA*%
X10714245Y-17733755D03*
X14097000Y-4572000D03*
X12826997Y-10350500D03*
X14732000Y-10350500D03*
%TO.N,/VBUS_ALERT_L*%
X15367000Y-10350500D03*
X21209000Y-17970500D03*
%TO.N,/VCONN_ALERT_L*%
X21209000Y-17335500D03*
X14351000Y-3937000D03*
X14097000Y-10350500D03*
%TO.N,/CC2_BUF*%
X21463000Y-13081000D03*
%TO.N,/CC1_BUF*%
X19050000Y-12827000D03*
D13*
%TO.N,/VBUS_PLUG*%
X17907000Y-3746500D03*
X17399000Y-3429000D03*
X17399000Y-4064000D03*
X17907000Y-3175000D03*
X19240500Y-7683500D03*
X18923000Y-8128000D03*
X18669000Y-7683500D03*
X17907000Y-4318000D03*
%TO.N,/CC2_PLUG*%
X17843500Y-7747000D03*
D14*
X12992474Y-4699000D03*
X13017500Y-7239000D03*
D13*
%TO.N,/VBUS_RECEP*%
X8636000Y-3492500D03*
X8636000Y-4064000D03*
X9144000Y-3238500D03*
X9144000Y-3810000D03*
X7206621Y-7784100D03*
X7585260Y-8162740D03*
X9144000Y-4381500D03*
X8064500Y-8445500D03*
D14*
%TO.N,/SBU2*%
X17335500Y-4889500D03*
X8763000Y-4953000D03*
%TO.N,/SBU1*%
X13850496Y-7201516D03*
X11747500Y-8382000D03*
D15*
%TO.N,/USBC_D-*%
X6784653Y-6273790D03*
%TO.N,/USBC_D+*%
X7350212Y-6007090D03*
D14*
%TO.N,/USB_B_D+*%
X14122400Y-23520400D03*
%TO.N,/USB_B_D-*%
X14478000Y-24066500D03*
%TO.N,/TX_CLK*%
X21335742Y-16370299D03*
X10287000Y-15875000D03*
%TO.N,Net-(DS2-Pad1)*%
X24965601Y-21706899D03*
D13*
%TO.N,Net-(C5-Pad1)*%
X17018000Y-15621000D03*
D14*
%TO.N,/USB_B_ID*%
X22923500Y-16637000D03*
%TD*%
D16*
%TO.N,+3V3*%
X14993294Y-5261560D02*
X13770560Y-5261560D01*
X13770560Y-5261560D02*
X13589000Y-5080000D01*
X13589000Y-5080000D02*
X13589000Y-4318000D01*
X13222419Y-3951419D02*
X12206419Y-3951419D01*
X13589000Y-4318000D02*
X13222419Y-3951419D01*
D17*
X11049000Y-8839198D02*
X11049000Y-7747000D01*
X10363198Y-9525000D02*
X11049000Y-8839198D01*
X9715500Y-9525000D02*
X10363198Y-9525000D01*
X8890000Y-10350500D02*
X9715500Y-9525000D01*
D16*
%TO.N,/CC1_RECEP*%
X9779000Y-6032500D02*
X9271000Y-5524500D01*
X9779000Y-8255000D02*
X9779000Y-6032500D01*
X10033000Y-8509000D02*
X9779000Y-8255000D01*
X17319750Y-5588000D02*
X17399000Y-5588000D01*
X15135359Y-3403609D02*
X17319750Y-5588000D01*
X11414377Y-3403609D02*
X15135359Y-3403609D01*
X9293486Y-5524500D02*
X11414377Y-3403609D01*
X9271000Y-5524500D02*
X9293486Y-5524500D01*
%TO.N,/CC1_TX_DATA*%
X4000500Y-14922500D02*
X2794000Y-13716000D01*
X4000500Y-15113000D02*
X4000500Y-14922500D01*
%TO.N,/CC2*%
X10668000Y-12827000D02*
X10795000Y-12700000D01*
X10668000Y-13716000D02*
X10668000Y-12827000D01*
X19939000Y-13001750D02*
X19939000Y-14732000D01*
X19281649Y-12344399D02*
X19939000Y-13001750D01*
X18818351Y-12344399D02*
X19281649Y-12344399D01*
X18665960Y-12496790D02*
X18818351Y-12344399D01*
X14227040Y-12496790D02*
X18665960Y-12496790D01*
X14074649Y-12344399D02*
X14227040Y-12496790D01*
X11150601Y-12344399D02*
X14074649Y-12344399D01*
X10795000Y-12700000D02*
X11150601Y-12344399D01*
%TO.N,/CC1_EN*%
X17780000Y-13652500D02*
X17780000Y-15557500D01*
X17284710Y-13157210D02*
X17780000Y-13652500D01*
X14122399Y-13309601D02*
X14274790Y-13157210D01*
X11772899Y-13309601D02*
X14122399Y-13309601D01*
X10883899Y-14198601D02*
X11772899Y-13309601D01*
X9337588Y-13099838D02*
X10436351Y-14198601D01*
X14274790Y-13157210D02*
X17284710Y-13157210D01*
X10436351Y-14198601D02*
X10883899Y-14198601D01*
X9337588Y-13053528D02*
X9337588Y-13099838D01*
%TO.N,/CC2_EN*%
X19050000Y-13589000D02*
X18288000Y-12827000D01*
X18288000Y-12827000D02*
X13843000Y-12827000D01*
%TO.N,/CC2_PLUG*%
X13001750Y-4699000D02*
X12992474Y-4699000D01*
X12471399Y-5229351D02*
X13001750Y-4699000D01*
X12471399Y-5740399D02*
X12471399Y-5229351D01*
X13017500Y-6286500D02*
X12471399Y-5740399D01*
X13017500Y-7239000D02*
X13017500Y-6286500D01*
%TO.N,/SBU2*%
X15519399Y-3073399D02*
X17335500Y-4889500D01*
X11277601Y-3073399D02*
X15519399Y-3073399D01*
X9398000Y-4953000D02*
X11277601Y-3073399D01*
X8763000Y-4953000D02*
X9398000Y-4953000D01*
%TO.N,/TX_CLK*%
X20497541Y-17208500D02*
X21335742Y-16370299D01*
X14922500Y-17208500D02*
X20497541Y-17208500D01*
X13589000Y-15875000D02*
X14922500Y-17208500D01*
X10287000Y-15875000D02*
X13589000Y-15875000D01*
%TD*%
D18*
%TO.N,/VBUS_RECEP*%
X9398000Y-4450107D02*
X9250707Y-4597400D01*
X9125820Y-4597400D01*
X9086831Y-4558411D01*
X9003628Y-4502816D01*
X8911178Y-4464522D01*
X8813034Y-4445000D01*
X8712966Y-4445000D01*
X8614822Y-4464522D01*
X8522372Y-4502816D01*
X8439169Y-4558411D01*
X8368411Y-4629169D01*
X8312816Y-4712372D01*
X8274522Y-4804822D01*
X8255000Y-4902966D01*
X8255000Y-5003034D01*
X8274522Y-5101178D01*
X8312816Y-5193628D01*
X8368411Y-5276831D01*
X8439169Y-5347589D01*
X8522372Y-5403184D01*
X8614822Y-5441478D01*
X8712966Y-5461000D01*
X8765679Y-5461000D01*
X8763000Y-5474466D01*
X8763000Y-5574534D01*
X8782522Y-5672678D01*
X8820816Y-5765128D01*
X8876411Y-5848331D01*
X8947169Y-5919089D01*
X9030372Y-5974684D01*
X9122822Y-6012978D01*
X9220966Y-6032500D01*
X9276106Y-6032500D01*
X9398000Y-6154394D01*
X9398000Y-6739370D01*
X9306996Y-6701674D01*
X9199037Y-6680200D01*
X9088963Y-6680200D01*
X8981004Y-6701674D01*
X8879309Y-6743798D01*
X8787786Y-6804952D01*
X8709952Y-6882786D01*
X8648798Y-6974309D01*
X8606674Y-7076004D01*
X8585200Y-7183963D01*
X8585200Y-7294037D01*
X8606674Y-7401996D01*
X8648798Y-7503691D01*
X8709952Y-7595214D01*
X8787786Y-7673048D01*
X8869724Y-7727797D01*
X7992917Y-8823806D01*
X6985000Y-7759894D01*
X6985000Y-6713166D01*
X7013250Y-6701464D01*
X7092293Y-6648650D01*
X7159513Y-6581430D01*
X7212327Y-6502387D01*
X7224064Y-6474052D01*
X7302680Y-6489690D01*
X7397744Y-6489690D01*
X7490981Y-6471144D01*
X7578809Y-6434764D01*
X7657852Y-6381950D01*
X7725072Y-6314730D01*
X7777886Y-6235687D01*
X7814266Y-6147859D01*
X7832812Y-6054622D01*
X7832812Y-5959558D01*
X7814266Y-5866321D01*
X7777886Y-5778493D01*
X7725072Y-5699450D01*
X7657852Y-5632230D01*
X7578809Y-5579416D01*
X7490981Y-5543036D01*
X7397744Y-5524490D01*
X7302680Y-5524490D01*
X7209443Y-5543036D01*
X7121615Y-5579416D01*
X7042572Y-5632230D01*
X6985000Y-5689802D01*
X6985000Y-4942106D01*
X8879106Y-3048000D01*
X9398000Y-3048000D01*
X9398000Y-4450107D01*
%TA.AperFunction,Conductor*%
D19*
G36*
X9398000Y-4450107D02*
G01*
X9250707Y-4597400D01*
X9125820Y-4597400D01*
X9086831Y-4558411D01*
X9003628Y-4502816D01*
X8911178Y-4464522D01*
X8813034Y-4445000D01*
X8712966Y-4445000D01*
X8614822Y-4464522D01*
X8522372Y-4502816D01*
X8439169Y-4558411D01*
X8368411Y-4629169D01*
X8312816Y-4712372D01*
X8274522Y-4804822D01*
X8255000Y-4902966D01*
X8255000Y-5003034D01*
X8274522Y-5101178D01*
X8312816Y-5193628D01*
X8368411Y-5276831D01*
X8439169Y-5347589D01*
X8522372Y-5403184D01*
X8614822Y-5441478D01*
X8712966Y-5461000D01*
X8765679Y-5461000D01*
X8763000Y-5474466D01*
X8763000Y-5574534D01*
X8782522Y-5672678D01*
X8820816Y-5765128D01*
X8876411Y-5848331D01*
X8947169Y-5919089D01*
X9030372Y-5974684D01*
X9122822Y-6012978D01*
X9220966Y-6032500D01*
X9276106Y-6032500D01*
X9398000Y-6154394D01*
X9398000Y-6739370D01*
X9306996Y-6701674D01*
X9199037Y-6680200D01*
X9088963Y-6680200D01*
X8981004Y-6701674D01*
X8879309Y-6743798D01*
X8787786Y-6804952D01*
X8709952Y-6882786D01*
X8648798Y-6974309D01*
X8606674Y-7076004D01*
X8585200Y-7183963D01*
X8585200Y-7294037D01*
X8606674Y-7401996D01*
X8648798Y-7503691D01*
X8709952Y-7595214D01*
X8787786Y-7673048D01*
X8869724Y-7727797D01*
X7992917Y-8823806D01*
X6985000Y-7759894D01*
X6985000Y-6713166D01*
X7013250Y-6701464D01*
X7092293Y-6648650D01*
X7159513Y-6581430D01*
X7212327Y-6502387D01*
X7224064Y-6474052D01*
X7302680Y-6489690D01*
X7397744Y-6489690D01*
X7490981Y-6471144D01*
X7578809Y-6434764D01*
X7657852Y-6381950D01*
X7725072Y-6314730D01*
X7777886Y-6235687D01*
X7814266Y-6147859D01*
X7832812Y-6054622D01*
X7832812Y-5959558D01*
X7814266Y-5866321D01*
X7777886Y-5778493D01*
X7725072Y-5699450D01*
X7657852Y-5632230D01*
X7578809Y-5579416D01*
X7490981Y-5543036D01*
X7397744Y-5524490D01*
X7302680Y-5524490D01*
X7209443Y-5543036D01*
X7121615Y-5579416D01*
X7042572Y-5632230D01*
X6985000Y-5689802D01*
X6985000Y-4942106D01*
X8879106Y-3048000D01*
X9398000Y-3048000D01*
X9398000Y-4450107D01*
G37*
%TD.AperFunction*%
%TD*%
D18*
%TO.N,+3V3*%
X12890500Y-4149536D02*
X12829478Y-4161674D01*
X12727783Y-4203798D01*
X12636260Y-4264952D01*
X12628159Y-4273053D01*
X12580598Y-4225492D01*
X12480754Y-4158779D01*
X12369814Y-4112826D01*
X12252040Y-4089400D01*
X12131960Y-4089400D01*
X12014186Y-4112826D01*
X11903246Y-4158779D01*
X11803402Y-4225492D01*
X11718492Y-4310402D01*
X11651779Y-4410246D01*
X11605826Y-4521186D01*
X11582400Y-4638960D01*
X11582400Y-4759040D01*
X11605826Y-4876814D01*
X11651779Y-4987754D01*
X11718492Y-5087598D01*
X11803402Y-5172508D01*
X11903246Y-5239221D01*
X12014186Y-5285174D01*
X12065000Y-5295281D01*
X12064999Y-5720446D01*
X12063034Y-5740399D01*
X12064999Y-5760352D01*
X12064999Y-5760358D01*
X12069458Y-5805624D01*
X12070880Y-5820067D01*
X12084220Y-5864043D01*
X12094118Y-5896673D01*
X12131855Y-5967274D01*
X12182641Y-6029157D01*
X12198145Y-6041881D01*
X12611101Y-6454837D01*
X12611100Y-6855138D01*
X12583452Y-6882786D01*
X12522298Y-6974309D01*
X12480174Y-7076004D01*
X12458700Y-7183963D01*
X12458700Y-7294037D01*
X12480174Y-7401996D01*
X12522298Y-7503691D01*
X12583452Y-7595214D01*
X12661286Y-7673048D01*
X12752809Y-7734202D01*
X12854504Y-7776326D01*
X12890500Y-7783486D01*
X12890500Y-8255000D01*
X12291986Y-8255000D01*
X12284826Y-8219004D01*
X12242702Y-8117309D01*
X12181548Y-8025786D01*
X12103714Y-7947952D01*
X12012191Y-7886798D01*
X11910496Y-7844674D01*
X11802537Y-7823200D01*
X11692463Y-7823200D01*
X11584504Y-7844674D01*
X11482809Y-7886798D01*
X11391286Y-7947952D01*
X11313452Y-8025786D01*
X11252298Y-8117309D01*
X11210174Y-8219004D01*
X11203014Y-8255000D01*
X10532630Y-8255000D01*
X10528202Y-8244309D01*
X10467048Y-8152786D01*
X10389214Y-8074952D01*
X10297691Y-8013798D01*
X10195996Y-7971674D01*
X10185400Y-7969566D01*
X10185400Y-6052452D01*
X10187365Y-6032499D01*
X10185400Y-6012546D01*
X10185400Y-6012540D01*
X10179519Y-5952832D01*
X10156281Y-5876225D01*
X10118544Y-5805624D01*
X10067758Y-5743742D01*
X10052254Y-5731018D01*
X9856979Y-5535743D01*
X11582714Y-3810009D01*
X12890500Y-3810009D01*
X12890500Y-4149536D01*
%TA.AperFunction,Conductor*%
D19*
G36*
X12890500Y-4149536D02*
G01*
X12829478Y-4161674D01*
X12727783Y-4203798D01*
X12636260Y-4264952D01*
X12628159Y-4273053D01*
X12580598Y-4225492D01*
X12480754Y-4158779D01*
X12369814Y-4112826D01*
X12252040Y-4089400D01*
X12131960Y-4089400D01*
X12014186Y-4112826D01*
X11903246Y-4158779D01*
X11803402Y-4225492D01*
X11718492Y-4310402D01*
X11651779Y-4410246D01*
X11605826Y-4521186D01*
X11582400Y-4638960D01*
X11582400Y-4759040D01*
X11605826Y-4876814D01*
X11651779Y-4987754D01*
X11718492Y-5087598D01*
X11803402Y-5172508D01*
X11903246Y-5239221D01*
X12014186Y-5285174D01*
X12065000Y-5295281D01*
X12064999Y-5720446D01*
X12063034Y-5740399D01*
X12064999Y-5760352D01*
X12064999Y-5760358D01*
X12069458Y-5805624D01*
X12070880Y-5820067D01*
X12084220Y-5864043D01*
X12094118Y-5896673D01*
X12131855Y-5967274D01*
X12182641Y-6029157D01*
X12198145Y-6041881D01*
X12611101Y-6454837D01*
X12611100Y-6855138D01*
X12583452Y-6882786D01*
X12522298Y-6974309D01*
X12480174Y-7076004D01*
X12458700Y-7183963D01*
X12458700Y-7294037D01*
X12480174Y-7401996D01*
X12522298Y-7503691D01*
X12583452Y-7595214D01*
X12661286Y-7673048D01*
X12752809Y-7734202D01*
X12854504Y-7776326D01*
X12890500Y-7783486D01*
X12890500Y-8255000D01*
X12291986Y-8255000D01*
X12284826Y-8219004D01*
X12242702Y-8117309D01*
X12181548Y-8025786D01*
X12103714Y-7947952D01*
X12012191Y-7886798D01*
X11910496Y-7844674D01*
X11802537Y-7823200D01*
X11692463Y-7823200D01*
X11584504Y-7844674D01*
X11482809Y-7886798D01*
X11391286Y-7947952D01*
X11313452Y-8025786D01*
X11252298Y-8117309D01*
X11210174Y-8219004D01*
X11203014Y-8255000D01*
X10532630Y-8255000D01*
X10528202Y-8244309D01*
X10467048Y-8152786D01*
X10389214Y-8074952D01*
X10297691Y-8013798D01*
X10195996Y-7971674D01*
X10185400Y-7969566D01*
X10185400Y-6052452D01*
X10187365Y-6032499D01*
X10185400Y-6012546D01*
X10185400Y-6012540D01*
X10179519Y-5952832D01*
X10156281Y-5876225D01*
X10118544Y-5805624D01*
X10067758Y-5743742D01*
X10052254Y-5731018D01*
X9856979Y-5535743D01*
X11582714Y-3810009D01*
X12890500Y-3810009D01*
X12890500Y-4149536D01*
G37*
%TD.AperFunction*%
%TD*%
D18*
%TO.N,/VBUS_PLUG*%
X18161000Y-3683000D02*
X18163440Y-3707776D01*
X18170667Y-3731601D01*
X18182403Y-3753557D01*
X18198197Y-3772803D01*
X19812000Y-5386606D01*
X19812000Y-7503894D01*
X18894291Y-8421603D01*
X17709715Y-6052450D01*
X17755214Y-6022048D01*
X17833048Y-5944214D01*
X17894202Y-5852691D01*
X17936326Y-5750996D01*
X17957800Y-5643037D01*
X17957800Y-5532963D01*
X17936326Y-5425004D01*
X17894202Y-5323309D01*
X17833048Y-5231786D01*
X17800561Y-5199299D01*
X17830702Y-5154191D01*
X17872826Y-5052496D01*
X17894300Y-4944537D01*
X17894300Y-4834463D01*
X17872826Y-4726504D01*
X17830702Y-4624809D01*
X17769548Y-4533286D01*
X17691714Y-4455452D01*
X17600191Y-4394298D01*
X17498496Y-4352174D01*
X17390537Y-4330700D01*
X17351437Y-4330700D01*
X17145000Y-4124263D01*
X17145000Y-3048000D01*
X18161000Y-3048000D01*
X18161000Y-3683000D01*
%TA.AperFunction,Conductor*%
D19*
G36*
X18161000Y-3683000D02*
G01*
X18163440Y-3707776D01*
X18170667Y-3731601D01*
X18182403Y-3753557D01*
X18198197Y-3772803D01*
X19812000Y-5386606D01*
X19812000Y-7503894D01*
X18894291Y-8421603D01*
X17709715Y-6052450D01*
X17755214Y-6022048D01*
X17833048Y-5944214D01*
X17894202Y-5852691D01*
X17936326Y-5750996D01*
X17957800Y-5643037D01*
X17957800Y-5532963D01*
X17936326Y-5425004D01*
X17894202Y-5323309D01*
X17833048Y-5231786D01*
X17800561Y-5199299D01*
X17830702Y-5154191D01*
X17872826Y-5052496D01*
X17894300Y-4944537D01*
X17894300Y-4834463D01*
X17872826Y-4726504D01*
X17830702Y-4624809D01*
X17769548Y-4533286D01*
X17691714Y-4455452D01*
X17600191Y-4394298D01*
X17498496Y-4352174D01*
X17390537Y-4330700D01*
X17351437Y-4330700D01*
X17145000Y-4124263D01*
X17145000Y-3048000D01*
X18161000Y-3048000D01*
X18161000Y-3683000D01*
G37*
%TD.AperFunction*%
%TD*%
D18*
%TO.N,GND*%
X24926305Y-334745D02*
X24959302Y-344708D01*
X24989742Y-360893D01*
X25016451Y-382676D01*
X25038421Y-409233D01*
X25045036Y-421466D01*
X25040479Y-436487D01*
X25035201Y-490079D01*
X25035200Y-1785200D01*
X23554800Y-1785200D01*
X23554800Y-1617921D01*
X23556565Y-1600000D01*
X23549522Y-1528487D01*
X23528662Y-1459722D01*
X23494788Y-1396347D01*
X23449201Y-1340799D01*
X23393653Y-1295212D01*
X23330278Y-1261338D01*
X23261513Y-1240478D01*
X23207921Y-1235200D01*
X23190000Y-1233435D01*
X23172079Y-1235200D01*
X21607921Y-1235200D01*
X21590000Y-1233435D01*
X21572079Y-1235200D01*
X21518487Y-1240478D01*
X21449722Y-1261338D01*
X21386347Y-1295212D01*
X21369546Y-1309000D01*
X21317000Y-1309000D01*
X21317000Y-1357613D01*
X21285212Y-1396347D01*
X21251338Y-1459722D01*
X21230478Y-1528487D01*
X21223435Y-1600000D01*
X21225201Y-1617932D01*
X21225200Y-11082079D01*
X21223435Y-11100000D01*
X21230478Y-11171513D01*
X21251338Y-11240278D01*
X21285212Y-11303653D01*
X21317000Y-11342387D01*
X21317000Y-11391000D01*
X21369546Y-11391000D01*
X21386347Y-11404788D01*
X21449722Y-11438662D01*
X21518487Y-11459522D01*
X21590000Y-11466565D01*
X21607921Y-11464800D01*
X21913663Y-11464800D01*
X21875279Y-11522246D01*
X21829326Y-11633186D01*
X21805900Y-11750960D01*
X21805900Y-11871040D01*
X21829326Y-11988814D01*
X21875279Y-12099754D01*
X21941992Y-12199598D01*
X22026902Y-12284508D01*
X22126746Y-12351221D01*
X22237686Y-12397174D01*
X22355460Y-12420600D01*
X22475540Y-12420600D01*
X22593314Y-12397174D01*
X22704254Y-12351221D01*
X22804098Y-12284508D01*
X22889008Y-12199598D01*
X22955721Y-12099754D01*
X23001674Y-11988814D01*
X23025100Y-11871040D01*
X23025100Y-11750960D01*
X23001674Y-11633186D01*
X22955721Y-11522246D01*
X22917337Y-11464800D01*
X23172079Y-11464800D01*
X23190000Y-11466565D01*
X23207921Y-11464800D01*
X23261513Y-11459522D01*
X23330278Y-11438662D01*
X23393653Y-11404788D01*
X23449201Y-11359201D01*
X23494788Y-11303653D01*
X23528662Y-11240278D01*
X23549522Y-11171513D01*
X23556565Y-11100000D01*
X23554800Y-11082079D01*
X23554800Y-10914800D01*
X25035200Y-10914800D01*
X25035201Y-12209921D01*
X25040479Y-12263513D01*
X25061339Y-12332278D01*
X25070200Y-12348856D01*
X25070201Y-21157957D01*
X25020638Y-21148099D01*
X24910564Y-21148099D01*
X24802605Y-21169573D01*
X24700910Y-21211697D01*
X24609387Y-21272851D01*
X24531553Y-21350685D01*
X24470399Y-21442208D01*
X24428275Y-21543903D01*
X24406801Y-21651862D01*
X24406801Y-21761936D01*
X24428275Y-21869895D01*
X24470399Y-21971590D01*
X24531553Y-22063113D01*
X24609387Y-22140947D01*
X24700910Y-22202101D01*
X24802605Y-22244225D01*
X24910564Y-22265699D01*
X25020638Y-22265699D01*
X25070201Y-22255841D01*
X25070201Y-24875859D01*
X25065255Y-24926305D01*
X25055292Y-24959303D01*
X25039107Y-24989742D01*
X25017324Y-25016450D01*
X24990765Y-25038422D01*
X24960439Y-25054819D01*
X24927514Y-25065011D01*
X24878148Y-25070200D01*
X524131Y-25070200D01*
X473695Y-25065255D01*
X440697Y-25055292D01*
X410258Y-25039107D01*
X383550Y-25017324D01*
X361578Y-24990765D01*
X345181Y-24960439D01*
X334989Y-24927514D01*
X329800Y-24878148D01*
X329800Y-24413216D01*
X429872Y-24552522D01*
X568008Y-24681597D01*
X728671Y-24781243D01*
X880538Y-24831794D01*
X1027200Y-24767129D01*
X1027200Y-23717800D01*
X1281200Y-23717800D01*
X1281200Y-24767129D01*
X1427862Y-24831794D01*
X1579729Y-24781243D01*
X1740392Y-24681597D01*
X1878528Y-24552522D01*
X1988828Y-24398978D01*
X2067054Y-24226866D01*
X2110200Y-24042800D01*
X2110200Y-23717800D01*
X7948200Y-23717800D01*
X7948200Y-24042800D01*
X7991346Y-24226866D01*
X8069572Y-24398978D01*
X8179872Y-24552522D01*
X8318008Y-24681597D01*
X8478671Y-24781243D01*
X8630538Y-24831794D01*
X8777200Y-24767129D01*
X8777200Y-23717800D01*
X9031200Y-23717800D01*
X9031200Y-24767129D01*
X9177862Y-24831794D01*
X9329729Y-24781243D01*
X9490392Y-24681597D01*
X9628528Y-24552522D01*
X9738828Y-24398978D01*
X9817054Y-24226866D01*
X9860200Y-24042800D01*
X9860200Y-23717800D01*
X9031200Y-23717800D01*
X8777200Y-23717800D01*
X7948200Y-23717800D01*
X2110200Y-23717800D01*
X1281200Y-23717800D01*
X1027200Y-23717800D01*
X1007200Y-23717800D01*
X1007200Y-23465363D01*
X13563600Y-23465363D01*
X13563600Y-23575437D01*
X13585074Y-23683396D01*
X13627198Y-23785091D01*
X13688352Y-23876614D01*
X13766186Y-23954448D01*
X13857709Y-24015602D01*
X13919200Y-24041073D01*
X13919200Y-24121537D01*
X13940674Y-24229496D01*
X13982798Y-24331191D01*
X14043952Y-24422714D01*
X14121786Y-24500548D01*
X14213309Y-24561702D01*
X14315004Y-24603826D01*
X14422963Y-24625300D01*
X14533037Y-24625300D01*
X14640996Y-24603826D01*
X14742691Y-24561702D01*
X14834214Y-24500548D01*
X14912048Y-24422714D01*
X14973202Y-24331191D01*
X15015326Y-24229496D01*
X15036800Y-24121537D01*
X15036800Y-24011463D01*
X15015326Y-23903504D01*
X14973202Y-23801809D01*
X14912048Y-23710286D01*
X14834214Y-23632452D01*
X14742691Y-23571298D01*
X14732226Y-23566963D01*
X18364200Y-23566963D01*
X18364200Y-23677037D01*
X18385674Y-23784996D01*
X18427798Y-23886691D01*
X18488952Y-23978214D01*
X18566786Y-24056048D01*
X18658309Y-24117202D01*
X18760004Y-24159326D01*
X18867963Y-24180800D01*
X18978037Y-24180800D01*
X19085996Y-24159326D01*
X19187691Y-24117202D01*
X19279214Y-24056048D01*
X19357048Y-23978214D01*
X19418202Y-23886691D01*
X19460326Y-23784996D01*
X19481800Y-23677037D01*
X19481800Y-23566963D01*
X19460326Y-23459004D01*
X19418202Y-23357309D01*
X19385228Y-23307960D01*
X22631400Y-23307960D01*
X22631400Y-23428040D01*
X22654826Y-23545814D01*
X22700779Y-23656754D01*
X22767492Y-23756598D01*
X22852402Y-23841508D01*
X22952246Y-23908221D01*
X23063186Y-23954174D01*
X23180960Y-23977600D01*
X23301040Y-23977600D01*
X23418814Y-23954174D01*
X23529754Y-23908221D01*
X23629598Y-23841508D01*
X23714508Y-23756598D01*
X23781221Y-23656754D01*
X23827174Y-23545814D01*
X23850600Y-23428040D01*
X23850600Y-23307960D01*
X23827174Y-23190186D01*
X23781221Y-23079246D01*
X23714508Y-22979402D01*
X23629598Y-22894492D01*
X23529754Y-22827779D01*
X23418814Y-22781826D01*
X23301040Y-22758400D01*
X23180960Y-22758400D01*
X23063186Y-22781826D01*
X22952246Y-22827779D01*
X22852402Y-22894492D01*
X22767492Y-22979402D01*
X22700779Y-23079246D01*
X22654826Y-23190186D01*
X22631400Y-23307960D01*
X19385228Y-23307960D01*
X19357048Y-23265786D01*
X19279214Y-23187952D01*
X19187691Y-23126798D01*
X19085996Y-23084674D01*
X18978037Y-23063200D01*
X18867963Y-23063200D01*
X18760004Y-23084674D01*
X18658309Y-23126798D01*
X18566786Y-23187952D01*
X18488952Y-23265786D01*
X18427798Y-23357309D01*
X18385674Y-23459004D01*
X18364200Y-23566963D01*
X14732226Y-23566963D01*
X14681200Y-23545827D01*
X14681200Y-23465363D01*
X14659726Y-23357404D01*
X14617602Y-23255709D01*
X14556448Y-23164186D01*
X14478614Y-23086352D01*
X14387091Y-23025198D01*
X14285396Y-22983074D01*
X14177437Y-22961600D01*
X14067363Y-22961600D01*
X13959404Y-22983074D01*
X13857709Y-23025198D01*
X13766186Y-23086352D01*
X13688352Y-23164186D01*
X13627198Y-23255709D01*
X13585074Y-23357404D01*
X13563600Y-23465363D01*
X1007200Y-23465363D01*
X1007200Y-23463800D01*
X1027200Y-23463800D01*
X1027200Y-22414471D01*
X1281200Y-22414471D01*
X1281200Y-23463800D01*
X2110200Y-23463800D01*
X2110200Y-23138800D01*
X7948200Y-23138800D01*
X7948200Y-23463800D01*
X8777200Y-23463800D01*
X8777200Y-22414471D01*
X9031200Y-22414471D01*
X9031200Y-23463800D01*
X9860200Y-23463800D01*
X9860200Y-23138800D01*
X9817054Y-22954734D01*
X9738828Y-22782622D01*
X9628528Y-22629078D01*
X9490392Y-22500003D01*
X9329729Y-22400357D01*
X9177862Y-22349806D01*
X9031200Y-22414471D01*
X8777200Y-22414471D01*
X8630538Y-22349806D01*
X8478671Y-22400357D01*
X8318008Y-22500003D01*
X8179872Y-22629078D01*
X8069572Y-22782622D01*
X7991346Y-22954734D01*
X7948200Y-23138800D01*
X2110200Y-23138800D01*
X2067054Y-22954734D01*
X1988828Y-22782622D01*
X1878528Y-22629078D01*
X1740392Y-22500003D01*
X1579729Y-22400357D01*
X1427862Y-22349806D01*
X1281200Y-22414471D01*
X1027200Y-22414471D01*
X880538Y-22349806D01*
X728671Y-22400357D01*
X568008Y-22500003D01*
X429872Y-22629078D01*
X329800Y-22768384D01*
X329800Y-21899260D01*
X2881900Y-21899260D01*
X2881900Y-22019340D01*
X2905326Y-22137114D01*
X2951279Y-22248054D01*
X3017992Y-22347898D01*
X3102902Y-22432808D01*
X3202746Y-22499521D01*
X3313686Y-22545474D01*
X3431460Y-22568900D01*
X3551540Y-22568900D01*
X3669314Y-22545474D01*
X3780254Y-22499521D01*
X3880098Y-22432808D01*
X3965008Y-22347898D01*
X4031721Y-22248054D01*
X4077674Y-22137114D01*
X4096600Y-22041960D01*
X11832400Y-22041960D01*
X11832400Y-22162040D01*
X11855826Y-22279814D01*
X11901779Y-22390754D01*
X11968492Y-22490598D01*
X12053402Y-22575508D01*
X12153246Y-22642221D01*
X12264186Y-22688174D01*
X12381960Y-22711600D01*
X12502040Y-22711600D01*
X12619814Y-22688174D01*
X12730754Y-22642221D01*
X12830598Y-22575508D01*
X12915508Y-22490598D01*
X12982221Y-22390754D01*
X13028174Y-22279814D01*
X13051600Y-22162040D01*
X13051600Y-22041960D01*
X13028174Y-21924186D01*
X12982221Y-21813246D01*
X12915508Y-21713402D01*
X12830598Y-21628492D01*
X12730754Y-21561779D01*
X12619814Y-21515826D01*
X12502040Y-21492400D01*
X12381960Y-21492400D01*
X12264186Y-21515826D01*
X12153246Y-21561779D01*
X12053402Y-21628492D01*
X11968492Y-21713402D01*
X11901779Y-21813246D01*
X11855826Y-21924186D01*
X11832400Y-22041960D01*
X4096600Y-22041960D01*
X4101100Y-22019340D01*
X4101100Y-21899260D01*
X4077674Y-21781486D01*
X4031721Y-21670546D01*
X3965008Y-21570702D01*
X3880098Y-21485792D01*
X3780254Y-21419079D01*
X3669314Y-21373126D01*
X3551540Y-21349700D01*
X3431460Y-21349700D01*
X3313686Y-21373126D01*
X3202746Y-21419079D01*
X3102902Y-21485792D01*
X3017992Y-21570702D01*
X2951279Y-21670546D01*
X2905326Y-21781486D01*
X2881900Y-21899260D01*
X329800Y-21899260D01*
X329800Y-20603634D01*
X330990Y-20606381D01*
X455152Y-20785858D01*
X611943Y-20937663D01*
X795337Y-21055963D01*
X1006892Y-21131090D01*
X1177200Y-21068540D01*
X1177200Y-19917800D01*
X1431200Y-19917800D01*
X1431200Y-21068540D01*
X1601508Y-21131090D01*
X1813063Y-21055963D01*
X1848805Y-21032908D01*
X1851485Y-21046383D01*
X1904615Y-21174648D01*
X1981746Y-21290084D01*
X2079916Y-21388254D01*
X2195352Y-21465385D01*
X2323617Y-21518515D01*
X2459783Y-21545600D01*
X2598617Y-21545600D01*
X2734783Y-21518515D01*
X2863048Y-21465385D01*
X2978484Y-21388254D01*
X3076654Y-21290084D01*
X3153785Y-21174648D01*
X3206915Y-21046383D01*
X3234000Y-20910217D01*
X3234000Y-20771383D01*
X6824400Y-20771383D01*
X6824400Y-20910217D01*
X6851485Y-21046383D01*
X6904615Y-21174648D01*
X6981746Y-21290084D01*
X7079916Y-21388254D01*
X7195352Y-21465385D01*
X7323617Y-21518515D01*
X7459783Y-21545600D01*
X7598617Y-21545600D01*
X7734783Y-21518515D01*
X7863048Y-21465385D01*
X7978484Y-21388254D01*
X8076654Y-21290084D01*
X8086091Y-21275960D01*
X19075400Y-21275960D01*
X19075400Y-21396040D01*
X19098826Y-21513814D01*
X19144779Y-21624754D01*
X19211492Y-21724598D01*
X19296402Y-21809508D01*
X19396246Y-21876221D01*
X19507186Y-21922174D01*
X19624960Y-21945600D01*
X19745040Y-21945600D01*
X19862814Y-21922174D01*
X19973754Y-21876221D01*
X20073598Y-21809508D01*
X20158508Y-21724598D01*
X20225221Y-21624754D01*
X20271174Y-21513814D01*
X20294600Y-21396040D01*
X20294600Y-21275960D01*
X20271174Y-21158186D01*
X20225221Y-21047246D01*
X20158508Y-20947402D01*
X20073598Y-20862492D01*
X19973754Y-20795779D01*
X19862814Y-20749826D01*
X19745040Y-20726400D01*
X19624960Y-20726400D01*
X19507186Y-20749826D01*
X19396246Y-20795779D01*
X19296402Y-20862492D01*
X19211492Y-20947402D01*
X19144779Y-21047246D01*
X19098826Y-21158186D01*
X19075400Y-21275960D01*
X8086091Y-21275960D01*
X8153785Y-21174648D01*
X8206915Y-21046383D01*
X8209595Y-21032908D01*
X8245337Y-21055963D01*
X8456892Y-21131090D01*
X8627200Y-21068540D01*
X8627200Y-19917800D01*
X8881200Y-19917800D01*
X8881200Y-21068540D01*
X9051508Y-21131090D01*
X9263063Y-21055963D01*
X9446457Y-20937663D01*
X9603248Y-20785858D01*
X9727410Y-20606381D01*
X9814172Y-20406130D01*
X9860200Y-20192800D01*
X9860200Y-20082674D01*
X9876674Y-20165496D01*
X9918798Y-20267191D01*
X9975299Y-20351750D01*
X9918798Y-20436309D01*
X9876674Y-20538004D01*
X9855200Y-20645963D01*
X9855200Y-20756037D01*
X9876674Y-20863996D01*
X9918798Y-20965691D01*
X9979952Y-21057214D01*
X10057786Y-21135048D01*
X10149309Y-21196202D01*
X10251004Y-21238326D01*
X10358963Y-21259800D01*
X10469037Y-21259800D01*
X10576996Y-21238326D01*
X10678691Y-21196202D01*
X10770214Y-21135048D01*
X10848048Y-21057214D01*
X10909202Y-20965691D01*
X10951326Y-20863996D01*
X10972800Y-20756037D01*
X10972800Y-20645963D01*
X10951326Y-20538004D01*
X10909202Y-20436309D01*
X10852701Y-20351750D01*
X10909202Y-20267191D01*
X10951326Y-20165496D01*
X10972800Y-20057537D01*
X10972800Y-19947463D01*
X10951326Y-19839504D01*
X10909202Y-19737809D01*
X10848048Y-19646286D01*
X10770214Y-19568452D01*
X10678691Y-19507298D01*
X10576996Y-19465174D01*
X10469037Y-19443700D01*
X10358963Y-19443700D01*
X10251004Y-19465174D01*
X10149309Y-19507298D01*
X10057786Y-19568452D01*
X9979952Y-19646286D01*
X9918798Y-19737809D01*
X9876674Y-19839504D01*
X9860200Y-19922326D01*
X9860200Y-19917800D01*
X8881200Y-19917800D01*
X8627200Y-19917800D01*
X7648200Y-19917800D01*
X7648200Y-20145863D01*
X7598617Y-20136000D01*
X7459783Y-20136000D01*
X7323617Y-20163085D01*
X7195352Y-20216215D01*
X7079916Y-20293346D01*
X6981746Y-20391516D01*
X6904615Y-20506952D01*
X6851485Y-20635217D01*
X6824400Y-20771383D01*
X3234000Y-20771383D01*
X3206915Y-20635217D01*
X3153785Y-20506952D01*
X3076654Y-20391516D01*
X2978484Y-20293346D01*
X2863048Y-20216215D01*
X2734783Y-20163085D01*
X2598617Y-20136000D01*
X2459783Y-20136000D01*
X2410200Y-20145863D01*
X2410200Y-19917800D01*
X1431200Y-19917800D01*
X1177200Y-19917800D01*
X1157200Y-19917800D01*
X1157200Y-19663800D01*
X1177200Y-19663800D01*
X1177200Y-18513060D01*
X1431200Y-18513060D01*
X1431200Y-19663800D01*
X2410200Y-19663800D01*
X2410200Y-19388800D01*
X7648200Y-19388800D01*
X7648200Y-19663800D01*
X8627200Y-19663800D01*
X8627200Y-18513060D01*
X8881200Y-18513060D01*
X8881200Y-19663800D01*
X9860200Y-19663800D01*
X9860200Y-19388800D01*
X9834250Y-19268527D01*
X12749048Y-19268527D01*
X12749048Y-19378601D01*
X12770522Y-19486560D01*
X12812646Y-19588255D01*
X12873800Y-19679778D01*
X12951634Y-19757612D01*
X13043157Y-19818766D01*
X13144852Y-19860890D01*
X13252811Y-19882364D01*
X13362885Y-19882364D01*
X13470844Y-19860890D01*
X13479645Y-19857245D01*
X13473316Y-19872523D01*
X13451842Y-19980482D01*
X13451842Y-20090556D01*
X13473316Y-20198515D01*
X13515440Y-20300210D01*
X13576594Y-20391733D01*
X13654428Y-20469567D01*
X13745951Y-20530721D01*
X13792200Y-20549878D01*
X13792200Y-20629037D01*
X13813674Y-20736996D01*
X13855798Y-20838691D01*
X13916952Y-20930214D01*
X13994786Y-21008048D01*
X14086309Y-21069202D01*
X14188004Y-21111326D01*
X14295963Y-21132800D01*
X14406037Y-21132800D01*
X14513996Y-21111326D01*
X14615691Y-21069202D01*
X14707214Y-21008048D01*
X14785048Y-20930214D01*
X14846202Y-20838691D01*
X14888326Y-20736996D01*
X14909800Y-20629037D01*
X14909800Y-20518963D01*
X15062200Y-20518963D01*
X15062200Y-20629037D01*
X15083674Y-20736996D01*
X15125798Y-20838691D01*
X15186952Y-20930214D01*
X15264786Y-21008048D01*
X15356309Y-21069202D01*
X15458004Y-21111326D01*
X15565963Y-21132800D01*
X15676037Y-21132800D01*
X15783996Y-21111326D01*
X15885691Y-21069202D01*
X15977214Y-21008048D01*
X16055048Y-20930214D01*
X16116202Y-20838691D01*
X16158326Y-20736996D01*
X16179800Y-20629037D01*
X16179800Y-20518963D01*
X16234547Y-20518963D01*
X16234547Y-20629037D01*
X16256021Y-20736996D01*
X16298145Y-20838691D01*
X16359299Y-20930214D01*
X16437133Y-21008048D01*
X16528656Y-21069202D01*
X16630351Y-21111326D01*
X16738310Y-21132800D01*
X16848384Y-21132800D01*
X16956343Y-21111326D01*
X17058038Y-21069202D01*
X17149561Y-21008048D01*
X17223174Y-20934436D01*
X17296786Y-21008048D01*
X17388309Y-21069202D01*
X17490004Y-21111326D01*
X17597963Y-21132800D01*
X17708037Y-21132800D01*
X17815996Y-21111326D01*
X17917691Y-21069202D01*
X18009214Y-21008048D01*
X18034000Y-20983262D01*
X18058786Y-21008048D01*
X18150309Y-21069202D01*
X18252004Y-21111326D01*
X18359963Y-21132800D01*
X18470037Y-21132800D01*
X18577996Y-21111326D01*
X18679691Y-21069202D01*
X18771214Y-21008048D01*
X18849048Y-20930214D01*
X18910202Y-20838691D01*
X18952326Y-20736996D01*
X18973800Y-20629037D01*
X18973800Y-20518963D01*
X18952326Y-20411004D01*
X18910202Y-20309309D01*
X18849048Y-20217786D01*
X18771214Y-20139952D01*
X18694924Y-20088976D01*
X18781290Y-20053202D01*
X18872813Y-19992048D01*
X18950647Y-19914214D01*
X19011801Y-19822691D01*
X19053925Y-19720996D01*
X19075399Y-19613037D01*
X19075399Y-19502963D01*
X19053925Y-19395004D01*
X19011801Y-19293309D01*
X18950647Y-19201786D01*
X18872813Y-19123952D01*
X18781290Y-19062798D01*
X18679595Y-19020674D01*
X18571636Y-18999200D01*
X18461562Y-18999200D01*
X18353603Y-19020674D01*
X18251908Y-19062798D01*
X18160385Y-19123952D01*
X18082551Y-19201786D01*
X18021397Y-19293309D01*
X17979273Y-19395004D01*
X17957799Y-19502963D01*
X17957799Y-19613037D01*
X17979273Y-19720996D01*
X18021397Y-19822691D01*
X18082551Y-19914214D01*
X18160385Y-19992048D01*
X18236675Y-20043024D01*
X18150309Y-20078798D01*
X18058786Y-20139952D01*
X18034000Y-20164738D01*
X18009214Y-20139952D01*
X17917691Y-20078798D01*
X17815996Y-20036674D01*
X17708037Y-20015200D01*
X17597963Y-20015200D01*
X17490004Y-20036674D01*
X17388309Y-20078798D01*
X17296786Y-20139952D01*
X17223174Y-20213565D01*
X17149561Y-20139952D01*
X17058038Y-20078798D01*
X16956343Y-20036674D01*
X16848384Y-20015200D01*
X16738310Y-20015200D01*
X16630351Y-20036674D01*
X16528656Y-20078798D01*
X16437133Y-20139952D01*
X16359299Y-20217786D01*
X16298145Y-20309309D01*
X16256021Y-20411004D01*
X16234547Y-20518963D01*
X16179800Y-20518963D01*
X16158326Y-20411004D01*
X16116202Y-20309309D01*
X16055048Y-20217786D01*
X15977214Y-20139952D01*
X15885691Y-20078798D01*
X15783996Y-20036674D01*
X15676037Y-20015200D01*
X15565963Y-20015200D01*
X15458004Y-20036674D01*
X15356309Y-20078798D01*
X15264786Y-20139952D01*
X15186952Y-20217786D01*
X15125798Y-20309309D01*
X15083674Y-20411004D01*
X15062200Y-20518963D01*
X14909800Y-20518963D01*
X14888326Y-20411004D01*
X14846202Y-20309309D01*
X14785048Y-20217786D01*
X14707214Y-20139952D01*
X14615691Y-20078798D01*
X14569442Y-20059641D01*
X14569442Y-19980482D01*
X14547968Y-19872523D01*
X14505844Y-19770828D01*
X14444690Y-19679305D01*
X14366856Y-19601471D01*
X14275333Y-19540317D01*
X14173638Y-19498193D01*
X14065679Y-19476719D01*
X13955605Y-19476719D01*
X13847646Y-19498193D01*
X13838845Y-19501838D01*
X13845174Y-19486560D01*
X13866648Y-19378601D01*
X13866648Y-19268527D01*
X13845174Y-19160568D01*
X13803050Y-19058873D01*
X13741896Y-18967350D01*
X13664062Y-18889516D01*
X13572539Y-18828362D01*
X13470844Y-18786238D01*
X13362885Y-18764764D01*
X13252811Y-18764764D01*
X13144852Y-18786238D01*
X13043157Y-18828362D01*
X12951634Y-18889516D01*
X12873800Y-18967350D01*
X12812646Y-19058873D01*
X12770522Y-19160568D01*
X12749048Y-19268527D01*
X9834250Y-19268527D01*
X9814172Y-19175470D01*
X9727410Y-18975219D01*
X9603248Y-18795742D01*
X9446457Y-18643937D01*
X9263063Y-18525637D01*
X9051508Y-18450510D01*
X8881200Y-18513060D01*
X8627200Y-18513060D01*
X8456892Y-18450510D01*
X8245337Y-18525637D01*
X8061943Y-18643937D01*
X7905152Y-18795742D01*
X7780990Y-18975219D01*
X7694228Y-19175470D01*
X7648200Y-19388800D01*
X2410200Y-19388800D01*
X2364172Y-19175470D01*
X2277410Y-18975219D01*
X2153248Y-18795742D01*
X1996457Y-18643937D01*
X1813063Y-18525637D01*
X1601508Y-18450510D01*
X1431200Y-18513060D01*
X1177200Y-18513060D01*
X1006892Y-18450510D01*
X795337Y-18525637D01*
X611943Y-18643937D01*
X455152Y-18795742D01*
X330990Y-18975219D01*
X329800Y-18977966D01*
X329800Y-17678718D01*
X10155445Y-17678718D01*
X10155445Y-17788792D01*
X10176919Y-17896751D01*
X10219043Y-17998446D01*
X10280197Y-18089969D01*
X10358031Y-18167803D01*
X10449554Y-18228957D01*
X10551249Y-18271081D01*
X10659208Y-18292555D01*
X10769282Y-18292555D01*
X10877241Y-18271081D01*
X10978936Y-18228957D01*
X11070459Y-18167803D01*
X11148293Y-18089969D01*
X11209447Y-17998446D01*
X11251571Y-17896751D01*
X11273045Y-17788792D01*
X11273045Y-17678718D01*
X11251571Y-17570759D01*
X11209447Y-17469064D01*
X11148293Y-17377541D01*
X11070459Y-17299707D01*
X10978936Y-17238553D01*
X10877241Y-17196429D01*
X10769282Y-17174955D01*
X10659208Y-17174955D01*
X10551249Y-17196429D01*
X10449554Y-17238553D01*
X10358031Y-17299707D01*
X10280197Y-17377541D01*
X10219043Y-17469064D01*
X10176919Y-17570759D01*
X10155445Y-17678718D01*
X329800Y-17678718D01*
X329800Y-16094360D01*
X4978400Y-16094360D01*
X4978400Y-16214440D01*
X5001826Y-16332214D01*
X5047779Y-16443154D01*
X5114492Y-16542998D01*
X5132294Y-16560800D01*
X5114492Y-16578602D01*
X5047779Y-16678446D01*
X5001826Y-16789386D01*
X4978400Y-16907160D01*
X4978400Y-17027240D01*
X5001826Y-17145014D01*
X5047779Y-17255954D01*
X5114492Y-17355798D01*
X5199402Y-17440708D01*
X5299246Y-17507421D01*
X5410186Y-17553374D01*
X5527960Y-17576800D01*
X5648040Y-17576800D01*
X5765814Y-17553374D01*
X5876754Y-17507421D01*
X5976598Y-17440708D01*
X6061508Y-17355798D01*
X6128221Y-17255954D01*
X6174174Y-17145014D01*
X6197600Y-17027240D01*
X6197600Y-16907160D01*
X6174174Y-16789386D01*
X6128221Y-16678446D01*
X6061508Y-16578602D01*
X6059866Y-16576960D01*
X8407400Y-16576960D01*
X8407400Y-16697040D01*
X8430826Y-16814814D01*
X8476779Y-16925754D01*
X8543492Y-17025598D01*
X8628402Y-17110508D01*
X8728246Y-17177221D01*
X8839186Y-17223174D01*
X8956960Y-17246600D01*
X9077040Y-17246600D01*
X9194814Y-17223174D01*
X9305754Y-17177221D01*
X9405598Y-17110508D01*
X9490508Y-17025598D01*
X9557221Y-16925754D01*
X9603174Y-16814814D01*
X9626600Y-16697040D01*
X9626600Y-16576960D01*
X9603174Y-16459186D01*
X9557221Y-16348246D01*
X9490508Y-16248402D01*
X9405598Y-16163492D01*
X9305754Y-16096779D01*
X9194814Y-16050826D01*
X9077040Y-16027400D01*
X8956960Y-16027400D01*
X8839186Y-16050826D01*
X8728246Y-16096779D01*
X8628402Y-16163492D01*
X8543492Y-16248402D01*
X8476779Y-16348246D01*
X8430826Y-16459186D01*
X8407400Y-16576960D01*
X6059866Y-16576960D01*
X6043706Y-16560800D01*
X6061508Y-16542998D01*
X6128221Y-16443154D01*
X6174174Y-16332214D01*
X6197600Y-16214440D01*
X6197600Y-16094360D01*
X6174174Y-15976586D01*
X6128221Y-15865646D01*
X6097697Y-15819963D01*
X9728200Y-15819963D01*
X9728200Y-15930037D01*
X9749674Y-16037996D01*
X9791798Y-16139691D01*
X9852952Y-16231214D01*
X9930786Y-16309048D01*
X10022309Y-16370202D01*
X10124004Y-16412326D01*
X10231963Y-16433800D01*
X10342037Y-16433800D01*
X10449996Y-16412326D01*
X10551691Y-16370202D01*
X10643214Y-16309048D01*
X10670862Y-16281400D01*
X13420664Y-16281400D01*
X14493693Y-17354430D01*
X14470402Y-17369992D01*
X14385492Y-17454902D01*
X14318779Y-17554746D01*
X14272826Y-17665686D01*
X14249400Y-17783460D01*
X14249400Y-17903540D01*
X14272826Y-18021314D01*
X14318779Y-18132254D01*
X14385492Y-18232098D01*
X14470402Y-18317008D01*
X14570246Y-18383721D01*
X14681186Y-18429674D01*
X14798960Y-18453100D01*
X14919040Y-18453100D01*
X15036814Y-18429674D01*
X15147754Y-18383721D01*
X15247598Y-18317008D01*
X15332508Y-18232098D01*
X15399221Y-18132254D01*
X15445174Y-18021314D01*
X15468600Y-17903540D01*
X15468600Y-17783460D01*
X15445174Y-17665686D01*
X15424138Y-17614900D01*
X20477588Y-17614900D01*
X20497541Y-17616865D01*
X20517494Y-17614900D01*
X20517501Y-17614900D01*
X20577209Y-17609019D01*
X20653816Y-17585781D01*
X20698038Y-17562144D01*
X20713798Y-17600191D01*
X20749084Y-17653000D01*
X20713798Y-17705809D01*
X20671674Y-17807504D01*
X20650200Y-17915463D01*
X20650200Y-18025537D01*
X20671674Y-18133496D01*
X20713798Y-18235191D01*
X20774952Y-18326714D01*
X20852786Y-18404548D01*
X20944309Y-18465702D01*
X21046004Y-18507826D01*
X21046873Y-18507999D01*
X21031298Y-18531309D01*
X20989174Y-18633004D01*
X20967700Y-18740963D01*
X20967700Y-18851037D01*
X20989174Y-18958996D01*
X21031298Y-19060691D01*
X21092452Y-19152214D01*
X21170286Y-19230048D01*
X21261809Y-19291202D01*
X21363504Y-19333326D01*
X21471463Y-19354800D01*
X21581537Y-19354800D01*
X21689496Y-19333326D01*
X21791191Y-19291202D01*
X21882714Y-19230048D01*
X21927299Y-19185463D01*
X22237700Y-19185463D01*
X22237700Y-19295537D01*
X22259174Y-19403496D01*
X22301298Y-19505191D01*
X22362452Y-19596714D01*
X22440286Y-19674548D01*
X22531809Y-19735702D01*
X22633504Y-19777826D01*
X22741463Y-19799300D01*
X22851537Y-19799300D01*
X22959496Y-19777826D01*
X23061191Y-19735702D01*
X23152714Y-19674548D01*
X23230548Y-19596714D01*
X23291702Y-19505191D01*
X23333826Y-19403496D01*
X23355300Y-19295537D01*
X23355300Y-19185463D01*
X23333826Y-19077504D01*
X23291702Y-18975809D01*
X23230548Y-18884286D01*
X23152714Y-18806452D01*
X23061191Y-18745298D01*
X22959496Y-18703174D01*
X22851537Y-18681700D01*
X22741463Y-18681700D01*
X22633504Y-18703174D01*
X22531809Y-18745298D01*
X22440286Y-18806452D01*
X22362452Y-18884286D01*
X22301298Y-18975809D01*
X22259174Y-19077504D01*
X22237700Y-19185463D01*
X21927299Y-19185463D01*
X21960548Y-19152214D01*
X22021702Y-19060691D01*
X22063826Y-18958996D01*
X22085300Y-18851037D01*
X22085300Y-18740963D01*
X22063826Y-18633004D01*
X22021702Y-18531309D01*
X21960548Y-18439786D01*
X21882714Y-18361952D01*
X21791191Y-18300798D01*
X21689496Y-18258674D01*
X21688627Y-18258501D01*
X21704202Y-18235191D01*
X21746326Y-18133496D01*
X21767800Y-18025537D01*
X21767800Y-17915463D01*
X21746326Y-17807504D01*
X21704202Y-17705809D01*
X21668916Y-17653000D01*
X21704202Y-17600191D01*
X21746326Y-17498496D01*
X21767800Y-17390537D01*
X21767800Y-17280463D01*
X21746326Y-17172504D01*
X21704202Y-17070809D01*
X21643048Y-16979286D01*
X21565214Y-16901452D01*
X21545478Y-16888265D01*
X21600433Y-16865501D01*
X21691956Y-16804347D01*
X21769790Y-16726513D01*
X21830944Y-16634990D01*
X21873068Y-16533295D01*
X21875527Y-16520931D01*
X21967336Y-16582276D01*
X22086502Y-16631636D01*
X22213008Y-16656800D01*
X22341992Y-16656800D01*
X22364700Y-16652283D01*
X22364700Y-16692037D01*
X22386174Y-16799996D01*
X22428298Y-16901691D01*
X22489452Y-16993214D01*
X22567286Y-17071048D01*
X22658809Y-17132202D01*
X22760504Y-17174326D01*
X22868463Y-17195800D01*
X22978537Y-17195800D01*
X23086496Y-17174326D01*
X23188191Y-17132202D01*
X23279714Y-17071048D01*
X23357548Y-16993214D01*
X23418702Y-16901691D01*
X23460826Y-16799996D01*
X23482300Y-16692037D01*
X23482300Y-16581963D01*
X23460826Y-16474004D01*
X23418702Y-16372309D01*
X23357548Y-16280786D01*
X23279714Y-16202952D01*
X23188191Y-16141798D01*
X23086496Y-16099674D01*
X22978537Y-16078200D01*
X22929971Y-16078200D01*
X22932300Y-16066492D01*
X22932300Y-15937508D01*
X23422700Y-15937508D01*
X23422700Y-16066492D01*
X23447864Y-16192998D01*
X23497224Y-16312164D01*
X23568884Y-16419410D01*
X23660090Y-16510616D01*
X23767336Y-16582276D01*
X23886502Y-16631636D01*
X24013008Y-16656800D01*
X24141992Y-16656800D01*
X24268498Y-16631636D01*
X24387664Y-16582276D01*
X24494910Y-16510616D01*
X24586116Y-16419410D01*
X24657776Y-16312164D01*
X24707136Y-16192998D01*
X24732300Y-16066492D01*
X24732300Y-15937508D01*
X24707136Y-15811002D01*
X24657776Y-15691836D01*
X24586116Y-15584590D01*
X24494910Y-15493384D01*
X24387664Y-15421724D01*
X24268498Y-15372364D01*
X24141992Y-15347200D01*
X24013008Y-15347200D01*
X23886502Y-15372364D01*
X23767336Y-15421724D01*
X23660090Y-15493384D01*
X23568884Y-15584590D01*
X23497224Y-15691836D01*
X23447864Y-15811002D01*
X23422700Y-15937508D01*
X22932300Y-15937508D01*
X22907136Y-15811002D01*
X22857776Y-15691836D01*
X22786116Y-15584590D01*
X22694910Y-15493384D01*
X22587664Y-15421724D01*
X22468498Y-15372364D01*
X22341992Y-15347200D01*
X22213008Y-15347200D01*
X22086502Y-15372364D01*
X21967336Y-15421724D01*
X21860090Y-15493384D01*
X21768884Y-15584590D01*
X21697224Y-15691836D01*
X21647864Y-15811002D01*
X21631046Y-15895552D01*
X21600433Y-15875097D01*
X21498738Y-15832973D01*
X21390779Y-15811499D01*
X21280705Y-15811499D01*
X21172746Y-15832973D01*
X21071051Y-15875097D01*
X20979528Y-15936251D01*
X20901694Y-16014085D01*
X20840540Y-16105608D01*
X20798416Y-16207303D01*
X20776942Y-16315262D01*
X20776942Y-16354363D01*
X20329205Y-16802100D01*
X15090837Y-16802100D01*
X14895616Y-16606879D01*
X14961214Y-16563048D01*
X15039048Y-16485214D01*
X15100202Y-16393691D01*
X15142326Y-16291996D01*
X15163800Y-16184037D01*
X15163800Y-16073963D01*
X15142326Y-15966004D01*
X15100202Y-15864309D01*
X15039048Y-15772786D01*
X14961214Y-15694952D01*
X14869691Y-15633798D01*
X14767996Y-15591674D01*
X14676260Y-15573427D01*
X14669939Y-15541649D01*
X14627815Y-15439954D01*
X14566661Y-15348431D01*
X14488827Y-15270597D01*
X14397304Y-15209443D01*
X14295609Y-15167319D01*
X14187650Y-15145845D01*
X14077576Y-15145845D01*
X13969617Y-15167319D01*
X13867922Y-15209443D01*
X13776399Y-15270597D01*
X13698565Y-15348431D01*
X13637411Y-15439954D01*
X13624895Y-15470170D01*
X13608960Y-15468600D01*
X13608953Y-15468600D01*
X13589000Y-15466635D01*
X13569047Y-15468600D01*
X10670862Y-15468600D01*
X10643214Y-15440952D01*
X10551691Y-15379798D01*
X10449996Y-15337674D01*
X10342037Y-15316200D01*
X10231963Y-15316200D01*
X10124004Y-15337674D01*
X10022309Y-15379798D01*
X9930786Y-15440952D01*
X9852952Y-15518786D01*
X9791798Y-15610309D01*
X9749674Y-15712004D01*
X9728200Y-15819963D01*
X6097697Y-15819963D01*
X6061508Y-15765802D01*
X5976598Y-15680892D01*
X5876754Y-15614179D01*
X5765814Y-15568226D01*
X5648040Y-15544800D01*
X5527960Y-15544800D01*
X5410186Y-15568226D01*
X5299246Y-15614179D01*
X5199402Y-15680892D01*
X5114492Y-15765802D01*
X5047779Y-15865646D01*
X5001826Y-15976586D01*
X4978400Y-16094360D01*
X329800Y-16094360D01*
X329800Y-13660963D01*
X2235200Y-13660963D01*
X2235200Y-13771037D01*
X2256674Y-13878996D01*
X2298798Y-13980691D01*
X2359952Y-14072214D01*
X2437786Y-14150048D01*
X2529309Y-14211202D01*
X2631004Y-14253326D01*
X2738963Y-14274800D01*
X2778064Y-14274800D01*
X3461530Y-14958267D01*
X3441700Y-15057963D01*
X3441700Y-15168037D01*
X3463174Y-15275996D01*
X3505298Y-15377691D01*
X3566452Y-15469214D01*
X3644286Y-15547048D01*
X3735809Y-15608202D01*
X3837504Y-15650326D01*
X3945463Y-15671800D01*
X4055537Y-15671800D01*
X4163496Y-15650326D01*
X4265191Y-15608202D01*
X4356714Y-15547048D01*
X4434548Y-15469214D01*
X4495702Y-15377691D01*
X4537826Y-15275996D01*
X4559300Y-15168037D01*
X4559300Y-15057963D01*
X4537826Y-14950004D01*
X4535671Y-14944801D01*
X6335153Y-14944801D01*
X6335153Y-15054875D01*
X6356627Y-15162834D01*
X6398751Y-15264529D01*
X6459905Y-15356052D01*
X6537739Y-15433886D01*
X6629262Y-15495040D01*
X6730957Y-15537164D01*
X6838916Y-15558638D01*
X6948990Y-15558638D01*
X7056949Y-15537164D01*
X7158644Y-15495040D01*
X7224680Y-15450916D01*
X7311891Y-15509189D01*
X7413586Y-15551313D01*
X7521545Y-15572787D01*
X7631619Y-15572787D01*
X7739578Y-15551313D01*
X7841273Y-15509189D01*
X7932796Y-15448035D01*
X8010630Y-15370201D01*
X8071784Y-15278678D01*
X8113908Y-15176983D01*
X8135382Y-15069024D01*
X8135382Y-14958950D01*
X8113908Y-14850991D01*
X8071784Y-14749296D01*
X8010630Y-14657773D01*
X7932796Y-14579939D01*
X7841273Y-14518785D01*
X7739578Y-14476661D01*
X7631619Y-14455187D01*
X7521545Y-14455187D01*
X7413586Y-14476661D01*
X7311891Y-14518785D01*
X7245855Y-14562909D01*
X7158644Y-14504636D01*
X7056949Y-14462512D01*
X6948990Y-14441038D01*
X6838916Y-14441038D01*
X6730957Y-14462512D01*
X6629262Y-14504636D01*
X6537739Y-14565790D01*
X6459905Y-14643624D01*
X6398751Y-14735147D01*
X6356627Y-14836842D01*
X6335153Y-14944801D01*
X4535671Y-14944801D01*
X4495702Y-14848309D01*
X4434548Y-14756786D01*
X4356714Y-14678952D01*
X4289507Y-14634046D01*
X4289258Y-14633742D01*
X4273759Y-14621023D01*
X3352800Y-13700064D01*
X3352800Y-13660963D01*
X3331326Y-13553004D01*
X3289202Y-13451309D01*
X3228048Y-13359786D01*
X3150214Y-13281952D01*
X3058691Y-13220798D01*
X2956996Y-13178674D01*
X2849037Y-13157200D01*
X2738963Y-13157200D01*
X2631004Y-13178674D01*
X2529309Y-13220798D01*
X2437786Y-13281952D01*
X2359952Y-13359786D01*
X2298798Y-13451309D01*
X2256674Y-13553004D01*
X2235200Y-13660963D01*
X329800Y-13660963D01*
X329800Y-12998491D01*
X8778788Y-12998491D01*
X8778788Y-13108565D01*
X8800262Y-13216524D01*
X8842386Y-13318219D01*
X8903540Y-13409742D01*
X8981374Y-13487576D01*
X9072897Y-13548730D01*
X9174592Y-13590854D01*
X9273552Y-13610538D01*
X10134874Y-14471860D01*
X10147593Y-14487359D01*
X10163091Y-14500078D01*
X10163096Y-14500083D01*
X10180218Y-14514134D01*
X10209475Y-14538145D01*
X10280076Y-14575882D01*
X10356683Y-14599120D01*
X10416391Y-14605001D01*
X10416398Y-14605001D01*
X10436351Y-14606966D01*
X10456304Y-14605001D01*
X10863946Y-14605001D01*
X10883899Y-14606966D01*
X10903852Y-14605001D01*
X10903859Y-14605001D01*
X10963567Y-14599120D01*
X11040174Y-14575882D01*
X11110775Y-14538145D01*
X11172657Y-14487359D01*
X11185381Y-14471855D01*
X11941236Y-13716001D01*
X14102446Y-13716001D01*
X14122399Y-13717966D01*
X14142352Y-13716001D01*
X14142359Y-13716001D01*
X14202067Y-13710120D01*
X14278674Y-13686882D01*
X14349275Y-13649145D01*
X14411157Y-13598359D01*
X14423882Y-13582854D01*
X14443126Y-13563610D01*
X17116374Y-13563610D01*
X17373600Y-13820837D01*
X17373601Y-15125444D01*
X17306754Y-15080779D01*
X17195814Y-15034826D01*
X17078040Y-15011400D01*
X16957960Y-15011400D01*
X16840186Y-15034826D01*
X16729246Y-15080779D01*
X16629402Y-15147492D01*
X16544492Y-15232402D01*
X16477779Y-15332246D01*
X16431826Y-15443186D01*
X16408400Y-15560960D01*
X16408400Y-15681040D01*
X16431826Y-15798814D01*
X16477779Y-15909754D01*
X16544492Y-16009598D01*
X16629402Y-16094508D01*
X16729246Y-16161221D01*
X16840186Y-16207174D01*
X16957960Y-16230600D01*
X17078040Y-16230600D01*
X17195814Y-16207174D01*
X17306754Y-16161221D01*
X17406598Y-16094508D01*
X17475202Y-16025904D01*
X17515309Y-16052702D01*
X17617004Y-16094826D01*
X17724963Y-16116300D01*
X17835037Y-16116300D01*
X17867173Y-16109908D01*
X17895923Y-16179316D01*
X17957077Y-16270839D01*
X18034911Y-16348673D01*
X18126434Y-16409827D01*
X18228129Y-16451951D01*
X18336088Y-16473425D01*
X18446162Y-16473425D01*
X18554121Y-16451951D01*
X18655816Y-16409827D01*
X18747339Y-16348673D01*
X18825173Y-16270839D01*
X18886327Y-16179316D01*
X18928451Y-16077621D01*
X18949925Y-15969662D01*
X18949925Y-15859588D01*
X18928451Y-15751629D01*
X18886327Y-15649934D01*
X18825173Y-15558411D01*
X18747339Y-15480577D01*
X18655816Y-15419423D01*
X18554121Y-15377299D01*
X18446162Y-15355825D01*
X18336088Y-15355825D01*
X18303952Y-15362217D01*
X18275202Y-15292809D01*
X18214048Y-15201286D01*
X18186400Y-15173638D01*
X18186400Y-13672453D01*
X18188365Y-13652500D01*
X18186400Y-13632547D01*
X18186400Y-13632540D01*
X18180519Y-13572832D01*
X18176544Y-13559726D01*
X18157281Y-13496225D01*
X18152658Y-13487576D01*
X18119544Y-13425624D01*
X18089708Y-13389269D01*
X18081482Y-13379245D01*
X18081477Y-13379240D01*
X18068758Y-13363742D01*
X18053260Y-13351024D01*
X17935637Y-13233400D01*
X18119664Y-13233400D01*
X18491200Y-13604937D01*
X18491200Y-13644037D01*
X18512674Y-13751996D01*
X18554798Y-13853691D01*
X18615952Y-13945214D01*
X18693786Y-14023048D01*
X18785309Y-14084202D01*
X18887004Y-14126326D01*
X18994963Y-14147800D01*
X19105037Y-14147800D01*
X19212996Y-14126326D01*
X19314691Y-14084202D01*
X19406214Y-14023048D01*
X19484048Y-13945214D01*
X19532601Y-13872550D01*
X19532601Y-14348137D01*
X19504952Y-14375786D01*
X19443798Y-14467309D01*
X19401674Y-14569004D01*
X19380200Y-14676963D01*
X19380200Y-14787037D01*
X19401674Y-14894996D01*
X19443798Y-14996691D01*
X19504952Y-15088214D01*
X19582786Y-15166048D01*
X19674309Y-15227202D01*
X19776004Y-15269326D01*
X19883963Y-15290800D01*
X19994037Y-15290800D01*
X20101996Y-15269326D01*
X20203691Y-15227202D01*
X20295214Y-15166048D01*
X20373048Y-15088214D01*
X20434202Y-14996691D01*
X20476326Y-14894996D01*
X20497800Y-14787037D01*
X20497800Y-14676963D01*
X20476326Y-14569004D01*
X20434202Y-14467309D01*
X20373048Y-14375786D01*
X20345400Y-14348138D01*
X20345400Y-13025963D01*
X20904200Y-13025963D01*
X20904200Y-13136037D01*
X20925674Y-13243996D01*
X20967798Y-13345691D01*
X21028952Y-13437214D01*
X21106786Y-13515048D01*
X21198309Y-13576202D01*
X21300004Y-13618326D01*
X21407963Y-13639800D01*
X21518037Y-13639800D01*
X21625996Y-13618326D01*
X21727691Y-13576202D01*
X21819214Y-13515048D01*
X21897048Y-13437214D01*
X21958202Y-13345691D01*
X22000326Y-13243996D01*
X22021800Y-13136037D01*
X22021800Y-13025963D01*
X22000326Y-12918004D01*
X21958202Y-12816309D01*
X21897048Y-12724786D01*
X21819214Y-12646952D01*
X21727691Y-12585798D01*
X21625996Y-12543674D01*
X21518037Y-12522200D01*
X21407963Y-12522200D01*
X21300004Y-12543674D01*
X21198309Y-12585798D01*
X21106786Y-12646952D01*
X21028952Y-12724786D01*
X20967798Y-12816309D01*
X20925674Y-12918004D01*
X20904200Y-13025963D01*
X20345400Y-13025963D01*
X20345400Y-13021703D01*
X20347365Y-13001750D01*
X20345400Y-12981797D01*
X20345400Y-12981790D01*
X20339519Y-12922082D01*
X20334844Y-12906668D01*
X20316281Y-12845475D01*
X20311395Y-12836334D01*
X20278544Y-12774874D01*
X20255941Y-12747332D01*
X20240482Y-12728495D01*
X20240477Y-12728490D01*
X20227758Y-12712992D01*
X20212261Y-12700274D01*
X19583131Y-12071145D01*
X19570407Y-12055641D01*
X19508525Y-12004855D01*
X19437924Y-11967118D01*
X19361317Y-11943880D01*
X19301609Y-11937999D01*
X19301602Y-11937999D01*
X19281649Y-11936034D01*
X19261696Y-11937999D01*
X18838303Y-11937999D01*
X18818350Y-11936034D01*
X18798397Y-11937999D01*
X18798391Y-11937999D01*
X18746686Y-11943092D01*
X18738682Y-11943880D01*
X18720853Y-11949289D01*
X18662076Y-11967118D01*
X18591475Y-12004855D01*
X18529593Y-12055641D01*
X18516865Y-12071150D01*
X18497625Y-12090390D01*
X14395376Y-12090390D01*
X14376132Y-12071146D01*
X14363407Y-12055641D01*
X14301525Y-12004855D01*
X14230924Y-11967118D01*
X14154317Y-11943880D01*
X14094609Y-11937999D01*
X14094602Y-11937999D01*
X14074649Y-11936034D01*
X14054696Y-11937999D01*
X11170554Y-11937999D01*
X11150601Y-11936034D01*
X11130648Y-11937999D01*
X11130641Y-11937999D01*
X11078205Y-11943164D01*
X11070932Y-11943880D01*
X11025479Y-11957668D01*
X10994326Y-11967118D01*
X10923725Y-12004855D01*
X10898347Y-12025682D01*
X10877346Y-12042917D01*
X10877341Y-12042922D01*
X10861843Y-12055641D01*
X10849123Y-12071140D01*
X10779063Y-12141200D01*
X10739963Y-12141200D01*
X10632004Y-12162674D01*
X10530309Y-12204798D01*
X10438786Y-12265952D01*
X10360952Y-12343786D01*
X10299798Y-12435309D01*
X10257674Y-12537004D01*
X10236200Y-12644963D01*
X10236200Y-12755037D01*
X10257674Y-12862996D01*
X10261601Y-12872476D01*
X10261600Y-13332138D01*
X10233952Y-13359786D01*
X10209247Y-13396760D01*
X9896388Y-13083902D01*
X9896388Y-12998491D01*
X9874914Y-12890532D01*
X9832790Y-12788837D01*
X9771636Y-12697314D01*
X9693802Y-12619480D01*
X9602279Y-12558326D01*
X9500584Y-12516202D01*
X9392625Y-12494728D01*
X9282551Y-12494728D01*
X9174592Y-12516202D01*
X9072897Y-12558326D01*
X8981374Y-12619480D01*
X8903540Y-12697314D01*
X8842386Y-12788837D01*
X8800262Y-12890532D01*
X8778788Y-12998491D01*
X329800Y-12998491D01*
X329800Y-11124800D01*
X3818764Y-11124800D01*
X3876894Y-11171205D01*
X3901997Y-11187507D01*
X3926865Y-11204155D01*
X3930943Y-11206305D01*
X4086545Y-11286961D01*
X4114332Y-11298075D01*
X4141961Y-11309576D01*
X4146379Y-11310893D01*
X4314684Y-11359790D01*
X4344082Y-11365291D01*
X4373439Y-11371211D01*
X4378029Y-11371645D01*
X4552626Y-11386920D01*
X4582553Y-11386606D01*
X4612478Y-11386711D01*
X4617065Y-11386245D01*
X4791304Y-11367317D01*
X4820618Y-11361193D01*
X4849977Y-11355486D01*
X4854386Y-11354138D01*
X5021630Y-11301727D01*
X5049151Y-11290045D01*
X5076888Y-11278726D01*
X5080951Y-11276547D01*
X5234829Y-11192650D01*
X5259594Y-11175820D01*
X5284567Y-11159353D01*
X5288130Y-11156427D01*
X5422783Y-11044238D01*
X5443813Y-11022912D01*
X5465105Y-11001916D01*
X5468031Y-10998353D01*
X5578328Y-10862148D01*
X5594797Y-10837172D01*
X5611626Y-10812409D01*
X5613804Y-10808346D01*
X5695544Y-10653311D01*
X5706857Y-10625588D01*
X5718545Y-10598054D01*
X5719893Y-10593645D01*
X5769964Y-10425685D01*
X5775668Y-10396338D01*
X5781795Y-10367012D01*
X5782261Y-10362426D01*
X5798755Y-10187940D01*
X5798650Y-10158014D01*
X5798964Y-10128087D01*
X5798530Y-10123497D01*
X5780819Y-9949131D01*
X5774905Y-9919799D01*
X5769398Y-9890374D01*
X5768080Y-9885956D01*
X5716837Y-9718351D01*
X5705361Y-9690783D01*
X5694223Y-9662935D01*
X5692073Y-9658857D01*
X5609252Y-9504396D01*
X5592600Y-9479523D01*
X5576303Y-9454426D01*
X5573401Y-9450844D01*
X5536800Y-9406285D01*
X5536800Y-6221255D01*
X6251253Y-6221255D01*
X6251253Y-6326325D01*
X6271751Y-6429377D01*
X6311960Y-6526450D01*
X6370334Y-6613813D01*
X6444630Y-6688109D01*
X6531993Y-6746483D01*
X6553200Y-6755267D01*
X6553200Y-7810500D01*
X6557559Y-7861865D01*
X6573353Y-7919491D01*
X6600086Y-7972929D01*
X6636730Y-8020125D01*
X6650641Y-8034809D01*
X6666400Y-8072854D01*
X6733113Y-8172698D01*
X6818023Y-8257608D01*
X6917867Y-8324321D01*
X6929468Y-8329126D01*
X7044762Y-8450826D01*
X7045039Y-8451494D01*
X7111752Y-8551338D01*
X7196662Y-8636248D01*
X7261414Y-8679513D01*
X7779730Y-9226625D01*
X7810593Y-9255009D01*
X7860685Y-9287582D01*
X7916169Y-9309757D01*
X7974913Y-9320682D01*
X8034660Y-9319936D01*
X8093113Y-9307548D01*
X8148026Y-9283995D01*
X8197289Y-9250182D01*
X8239009Y-9207407D01*
X8536249Y-8835857D01*
X8538008Y-8834098D01*
X8539791Y-8831429D01*
X9220200Y-7980918D01*
X9220200Y-8382000D01*
X9226057Y-8441464D01*
X9243402Y-8498642D01*
X9271568Y-8551338D01*
X9309474Y-8597526D01*
X9355662Y-8635432D01*
X9408358Y-8663598D01*
X9465536Y-8680943D01*
X9500820Y-8684418D01*
X9537798Y-8773691D01*
X9598952Y-8865214D01*
X9676786Y-8943048D01*
X9708432Y-8964193D01*
X9688057Y-8966200D01*
X9688056Y-8966200D01*
X9605956Y-8974286D01*
X9500622Y-9006239D01*
X9403546Y-9058127D01*
X9318457Y-9127957D01*
X9300957Y-9149281D01*
X8667333Y-9782905D01*
X8601246Y-9810279D01*
X8501402Y-9876992D01*
X8416492Y-9961902D01*
X8349779Y-10061746D01*
X8303826Y-10172686D01*
X8280400Y-10290460D01*
X8280400Y-10410540D01*
X8303826Y-10528314D01*
X8349779Y-10639254D01*
X8416492Y-10739098D01*
X8501402Y-10824008D01*
X8601246Y-10890721D01*
X8712186Y-10936674D01*
X8829960Y-10960100D01*
X8950040Y-10960100D01*
X9067814Y-10936674D01*
X9178754Y-10890721D01*
X9278598Y-10824008D01*
X9363508Y-10739098D01*
X9430221Y-10639254D01*
X9457595Y-10573167D01*
X9900303Y-10130459D01*
X9876674Y-10187504D01*
X9855200Y-10295463D01*
X9855200Y-10405537D01*
X9876674Y-10513496D01*
X9918798Y-10615191D01*
X9979952Y-10706714D01*
X10057786Y-10784548D01*
X10149309Y-10845702D01*
X10251004Y-10887826D01*
X10358963Y-10909300D01*
X10469037Y-10909300D01*
X10576996Y-10887826D01*
X10678691Y-10845702D01*
X10731500Y-10810416D01*
X10784309Y-10845702D01*
X10886004Y-10887826D01*
X10993963Y-10909300D01*
X11104037Y-10909300D01*
X11211996Y-10887826D01*
X11313691Y-10845702D01*
X11405214Y-10784548D01*
X11483048Y-10706714D01*
X11544202Y-10615191D01*
X11586326Y-10513496D01*
X11607800Y-10405537D01*
X11607800Y-10295463D01*
X12268197Y-10295463D01*
X12268197Y-10405537D01*
X12289671Y-10513496D01*
X12331795Y-10615191D01*
X12392949Y-10706714D01*
X12470783Y-10784548D01*
X12562306Y-10845702D01*
X12664001Y-10887826D01*
X12771960Y-10909300D01*
X12882034Y-10909300D01*
X12989993Y-10887826D01*
X13091688Y-10845702D01*
X13144498Y-10810415D01*
X13197309Y-10845702D01*
X13299004Y-10887826D01*
X13406963Y-10909300D01*
X13517037Y-10909300D01*
X13624996Y-10887826D01*
X13726691Y-10845702D01*
X13779500Y-10810416D01*
X13832309Y-10845702D01*
X13934004Y-10887826D01*
X14041963Y-10909300D01*
X14152037Y-10909300D01*
X14259996Y-10887826D01*
X14361691Y-10845702D01*
X14414500Y-10810416D01*
X14467309Y-10845702D01*
X14569004Y-10887826D01*
X14676963Y-10909300D01*
X14787037Y-10909300D01*
X14894996Y-10887826D01*
X14996691Y-10845702D01*
X15049500Y-10810416D01*
X15102309Y-10845702D01*
X15204004Y-10887826D01*
X15311963Y-10909300D01*
X15422037Y-10909300D01*
X15529996Y-10887826D01*
X15631691Y-10845702D01*
X15723214Y-10784548D01*
X15801048Y-10706714D01*
X15841955Y-10645492D01*
X19599316Y-10645492D01*
X19662198Y-10827197D01*
X19771171Y-10999225D01*
X19911611Y-11146688D01*
X20078121Y-11263919D01*
X20264302Y-11346413D01*
X20463000Y-11391000D01*
X21063000Y-11391000D01*
X21063000Y-10487000D01*
X19662908Y-10487000D01*
X19599316Y-10645492D01*
X15841955Y-10645492D01*
X15862202Y-10615191D01*
X15904326Y-10513496D01*
X15925800Y-10405537D01*
X15925800Y-10295463D01*
X15904326Y-10187504D01*
X15862202Y-10085809D01*
X15854651Y-10074508D01*
X19599316Y-10074508D01*
X19662908Y-10233000D01*
X21063000Y-10233000D01*
X21063000Y-9329000D01*
X20463000Y-9329000D01*
X20264302Y-9373587D01*
X20078121Y-9456081D01*
X19911611Y-9573312D01*
X19771171Y-9720775D01*
X19662198Y-9892803D01*
X19599316Y-10074508D01*
X15854651Y-10074508D01*
X15801048Y-9994286D01*
X15723214Y-9916452D01*
X15631691Y-9855298D01*
X15529996Y-9813174D01*
X15422037Y-9791700D01*
X15311963Y-9791700D01*
X15204004Y-9813174D01*
X15102309Y-9855298D01*
X15049500Y-9890584D01*
X14996691Y-9855298D01*
X14894996Y-9813174D01*
X14787037Y-9791700D01*
X14676963Y-9791700D01*
X14569004Y-9813174D01*
X14467309Y-9855298D01*
X14414500Y-9890584D01*
X14361691Y-9855298D01*
X14259996Y-9813174D01*
X14152037Y-9791700D01*
X14041963Y-9791700D01*
X13934004Y-9813174D01*
X13832309Y-9855298D01*
X13779500Y-9890584D01*
X13726691Y-9855298D01*
X13624996Y-9813174D01*
X13517037Y-9791700D01*
X13406963Y-9791700D01*
X13299004Y-9813174D01*
X13197309Y-9855298D01*
X13144499Y-9890585D01*
X13091688Y-9855298D01*
X12989993Y-9813174D01*
X12882034Y-9791700D01*
X12771960Y-9791700D01*
X12664001Y-9813174D01*
X12562306Y-9855298D01*
X12470783Y-9916452D01*
X12392949Y-9994286D01*
X12331795Y-10085809D01*
X12289671Y-10187504D01*
X12268197Y-10295463D01*
X11607800Y-10295463D01*
X11586326Y-10187504D01*
X11544202Y-10085809D01*
X11483048Y-9994286D01*
X11405214Y-9916452D01*
X11313691Y-9855298D01*
X11211996Y-9813174D01*
X11104037Y-9791700D01*
X10993963Y-9791700D01*
X10886004Y-9813174D01*
X10850636Y-9827824D01*
X11424719Y-9253741D01*
X11446043Y-9236241D01*
X11515873Y-9151152D01*
X11567761Y-9054076D01*
X11599714Y-8948742D01*
X11602263Y-8922858D01*
X11692463Y-8940800D01*
X11802537Y-8940800D01*
X11910496Y-8919326D01*
X12012191Y-8877202D01*
X12103714Y-8816048D01*
X12181548Y-8738214D01*
X12215902Y-8686800D01*
X13017500Y-8686800D01*
X13076964Y-8680943D01*
X13134142Y-8663598D01*
X13186838Y-8635432D01*
X13233026Y-8597526D01*
X13270932Y-8551338D01*
X13299098Y-8498642D01*
X13316443Y-8441464D01*
X13322300Y-8382000D01*
X13322300Y-7707402D01*
X13373714Y-7673048D01*
X13451548Y-7595214D01*
X13452503Y-7593785D01*
X13494282Y-7635564D01*
X13585805Y-7696718D01*
X13687500Y-7738842D01*
X13795459Y-7760316D01*
X13905533Y-7760316D01*
X14013492Y-7738842D01*
X14115187Y-7696718D01*
X14206710Y-7635564D01*
X14284544Y-7557730D01*
X14345698Y-7466207D01*
X14387822Y-7364512D01*
X14409296Y-7256553D01*
X14409296Y-7146479D01*
X14387822Y-7038520D01*
X14345698Y-6936825D01*
X14284544Y-6845302D01*
X14206710Y-6767468D01*
X14115187Y-6706314D01*
X14013492Y-6664190D01*
X13905533Y-6642716D01*
X13795459Y-6642716D01*
X13687500Y-6664190D01*
X13585805Y-6706314D01*
X13494282Y-6767468D01*
X13423900Y-6837850D01*
X13423900Y-6306452D01*
X13425865Y-6286499D01*
X13423900Y-6266546D01*
X13423900Y-6266540D01*
X13418019Y-6206832D01*
X13394781Y-6130225D01*
X13357044Y-6059624D01*
X13322300Y-6017289D01*
X13322300Y-5882962D01*
X13388048Y-5817214D01*
X13449202Y-5725691D01*
X13491326Y-5623996D01*
X13502588Y-5567377D01*
X13543684Y-5601104D01*
X13601451Y-5631981D01*
X13614285Y-5638841D01*
X13690891Y-5662079D01*
X13698164Y-5662795D01*
X13750600Y-5667960D01*
X13750607Y-5667960D01*
X13770560Y-5669925D01*
X13790513Y-5667960D01*
X14609432Y-5667960D01*
X14637080Y-5695608D01*
X14728603Y-5756762D01*
X14830298Y-5798886D01*
X14938257Y-5820360D01*
X15048331Y-5820360D01*
X15156290Y-5798886D01*
X15257985Y-5756762D01*
X15349508Y-5695608D01*
X15427342Y-5617774D01*
X15488496Y-5526251D01*
X15530620Y-5424556D01*
X15552094Y-5316597D01*
X15552094Y-5206523D01*
X15530620Y-5098564D01*
X15488496Y-4996869D01*
X15427342Y-4905346D01*
X15349508Y-4827512D01*
X15257985Y-4766358D01*
X15156290Y-4724234D01*
X15048331Y-4702760D01*
X14938257Y-4702760D01*
X14830298Y-4724234D01*
X14728603Y-4766358D01*
X14637080Y-4827512D01*
X14609432Y-4855160D01*
X14579861Y-4855160D01*
X14592202Y-4836691D01*
X14634326Y-4734996D01*
X14655800Y-4627037D01*
X14655800Y-4516963D01*
X14636213Y-4418490D01*
X14707214Y-4371048D01*
X14785048Y-4293214D01*
X14846202Y-4201691D01*
X14888326Y-4099996D01*
X14909800Y-3992037D01*
X14909800Y-3881963D01*
X14895488Y-3810009D01*
X14967023Y-3810009D01*
X16850169Y-5693155D01*
X16861674Y-5750996D01*
X16903798Y-5852691D01*
X16964952Y-5944214D01*
X17042786Y-6022048D01*
X17134309Y-6083202D01*
X17236004Y-6125326D01*
X17266411Y-6131374D01*
X17770693Y-7139939D01*
X17665686Y-7160826D01*
X17554746Y-7206779D01*
X17454902Y-7273492D01*
X17369992Y-7358402D01*
X17303279Y-7458246D01*
X17257326Y-7569186D01*
X17233900Y-7686960D01*
X17233900Y-7807040D01*
X17257326Y-7924814D01*
X17303279Y-8035754D01*
X17369992Y-8135598D01*
X17454902Y-8220508D01*
X17554746Y-8287221D01*
X17665686Y-8333174D01*
X17783460Y-8356600D01*
X17903540Y-8356600D01*
X18021314Y-8333174D01*
X18132254Y-8287221D01*
X18232098Y-8220508D01*
X18284684Y-8167922D01*
X18325725Y-8250002D01*
X18336826Y-8305814D01*
X18382779Y-8416754D01*
X18449492Y-8516598D01*
X18468553Y-8535659D01*
X18586879Y-8772311D01*
X18606068Y-8805338D01*
X18643974Y-8851526D01*
X18690162Y-8889432D01*
X18742858Y-8917598D01*
X18800036Y-8934943D01*
X18859500Y-8940800D01*
X18918964Y-8934943D01*
X18976142Y-8917598D01*
X19028838Y-8889432D01*
X19075026Y-8851526D01*
X20154526Y-7772026D01*
X20192432Y-7725838D01*
X20220598Y-7673142D01*
X20237943Y-7615964D01*
X20243800Y-7556500D01*
X20243800Y-5334000D01*
X20237943Y-5274536D01*
X20220598Y-5217358D01*
X20192432Y-5164662D01*
X20154526Y-5118474D01*
X18592800Y-3556748D01*
X18592800Y-2921000D01*
X18586943Y-2861536D01*
X18569598Y-2804358D01*
X18541432Y-2751662D01*
X18503526Y-2705474D01*
X18457338Y-2667568D01*
X18404642Y-2639402D01*
X18358788Y-2625492D01*
X19599316Y-2625492D01*
X19662198Y-2807197D01*
X19771171Y-2979225D01*
X19911611Y-3126688D01*
X20078121Y-3243919D01*
X20264302Y-3326413D01*
X20463000Y-3371000D01*
X21063000Y-3371000D01*
X21063000Y-2467000D01*
X19662908Y-2467000D01*
X19599316Y-2625492D01*
X18358788Y-2625492D01*
X18347464Y-2622057D01*
X18288000Y-2616200D01*
X18150900Y-2616200D01*
X18084814Y-2588826D01*
X17967040Y-2565400D01*
X17846960Y-2565400D01*
X17729186Y-2588826D01*
X17663100Y-2616200D01*
X17018000Y-2616200D01*
X16958536Y-2622057D01*
X16901358Y-2639402D01*
X16848662Y-2667568D01*
X16802474Y-2705474D01*
X16764568Y-2751662D01*
X16736402Y-2804358D01*
X16719057Y-2861536D01*
X16713200Y-2921000D01*
X16713200Y-3692464D01*
X15820881Y-2800145D01*
X15808157Y-2784641D01*
X15746275Y-2733855D01*
X15675674Y-2696118D01*
X15599067Y-2672880D01*
X15539359Y-2666999D01*
X15539352Y-2666999D01*
X15519399Y-2665034D01*
X15499446Y-2666999D01*
X13293561Y-2666999D01*
X13270932Y-2624662D01*
X13233026Y-2578474D01*
X13186838Y-2540568D01*
X13134142Y-2512402D01*
X13076964Y-2495057D01*
X13017500Y-2489200D01*
X9525000Y-2489200D01*
X9465536Y-2495057D01*
X9408358Y-2512402D01*
X9355662Y-2540568D01*
X9309474Y-2578474D01*
X9278513Y-2616200D01*
X8826500Y-2616200D01*
X8767036Y-2622057D01*
X8709858Y-2639402D01*
X8657162Y-2667568D01*
X8610974Y-2705474D01*
X8376135Y-2940313D01*
X8347246Y-2952279D01*
X8247402Y-3018992D01*
X8162492Y-3103902D01*
X8095779Y-3203746D01*
X8083813Y-3232635D01*
X6642474Y-4673974D01*
X6604568Y-4720162D01*
X6576402Y-4772858D01*
X6559057Y-4830036D01*
X6553200Y-4889500D01*
X6553200Y-5792313D01*
X6531993Y-5801097D01*
X6444630Y-5859471D01*
X6370334Y-5933767D01*
X6311960Y-6021130D01*
X6271751Y-6118203D01*
X6251253Y-6221255D01*
X5536800Y-6221255D01*
X5536800Y-3293236D01*
X5583205Y-3235106D01*
X5599507Y-3210003D01*
X5616155Y-3185135D01*
X5618305Y-3181057D01*
X5698961Y-3025455D01*
X5710075Y-2997668D01*
X5721576Y-2970039D01*
X5722893Y-2965621D01*
X5771790Y-2797316D01*
X5777291Y-2767918D01*
X5783211Y-2738561D01*
X5783645Y-2733971D01*
X5798920Y-2559374D01*
X5798606Y-2529447D01*
X5798711Y-2499522D01*
X5798245Y-2494935D01*
X5779317Y-2320696D01*
X5773193Y-2291382D01*
X5767486Y-2262023D01*
X5766138Y-2257614D01*
X5713727Y-2090370D01*
X5702045Y-2062849D01*
X5698642Y-2054508D01*
X19599316Y-2054508D01*
X19662908Y-2213000D01*
X21063000Y-2213000D01*
X21063000Y-1309000D01*
X20463000Y-1309000D01*
X20264302Y-1353587D01*
X20078121Y-1436081D01*
X19911611Y-1553312D01*
X19771171Y-1700775D01*
X19662198Y-1872803D01*
X19599316Y-2054508D01*
X5698642Y-2054508D01*
X5690726Y-2035112D01*
X5688547Y-2031049D01*
X5604650Y-1877171D01*
X5587820Y-1852406D01*
X5571353Y-1827433D01*
X5568427Y-1823870D01*
X5456238Y-1689217D01*
X5434893Y-1668168D01*
X5413915Y-1646895D01*
X5410353Y-1643969D01*
X5274148Y-1533672D01*
X5249157Y-1517194D01*
X5224408Y-1500374D01*
X5220345Y-1498196D01*
X5065311Y-1416456D01*
X5037612Y-1405153D01*
X5010054Y-1393455D01*
X5005646Y-1392107D01*
X4837685Y-1342036D01*
X4808340Y-1336332D01*
X4779013Y-1330205D01*
X4774426Y-1329739D01*
X4599940Y-1313245D01*
X4570014Y-1313350D01*
X4540087Y-1313036D01*
X4535497Y-1313470D01*
X4361131Y-1331181D01*
X4331799Y-1337095D01*
X4302374Y-1342602D01*
X4297956Y-1343920D01*
X4130351Y-1395163D01*
X4102783Y-1406639D01*
X4074935Y-1417777D01*
X4070857Y-1419927D01*
X3916396Y-1502748D01*
X3891523Y-1519400D01*
X3866426Y-1535697D01*
X3862844Y-1538599D01*
X3818285Y-1575200D01*
X329800Y-1575200D01*
X329800Y-524131D01*
X334745Y-473695D01*
X344708Y-440698D01*
X360893Y-410258D01*
X382676Y-383549D01*
X409233Y-361579D01*
X439561Y-345181D01*
X472486Y-334989D01*
X521852Y-329800D01*
X24875869Y-329800D01*
X24926305Y-334745D01*
%TA.AperFunction,Conductor*%
D19*
G36*
X24926305Y-334745D02*
G01*
X24959302Y-344708D01*
X24989742Y-360893D01*
X25016451Y-382676D01*
X25038421Y-409233D01*
X25045036Y-421466D01*
X25040479Y-436487D01*
X25035201Y-490079D01*
X25035200Y-1785200D01*
X23554800Y-1785200D01*
X23554800Y-1617921D01*
X23556565Y-1600000D01*
X23549522Y-1528487D01*
X23528662Y-1459722D01*
X23494788Y-1396347D01*
X23449201Y-1340799D01*
X23393653Y-1295212D01*
X23330278Y-1261338D01*
X23261513Y-1240478D01*
X23207921Y-1235200D01*
X23190000Y-1233435D01*
X23172079Y-1235200D01*
X21607921Y-1235200D01*
X21590000Y-1233435D01*
X21572079Y-1235200D01*
X21518487Y-1240478D01*
X21449722Y-1261338D01*
X21386347Y-1295212D01*
X21369546Y-1309000D01*
X21317000Y-1309000D01*
X21317000Y-1357613D01*
X21285212Y-1396347D01*
X21251338Y-1459722D01*
X21230478Y-1528487D01*
X21223435Y-1600000D01*
X21225201Y-1617932D01*
X21225200Y-11082079D01*
X21223435Y-11100000D01*
X21230478Y-11171513D01*
X21251338Y-11240278D01*
X21285212Y-11303653D01*
X21317000Y-11342387D01*
X21317000Y-11391000D01*
X21369546Y-11391000D01*
X21386347Y-11404788D01*
X21449722Y-11438662D01*
X21518487Y-11459522D01*
X21590000Y-11466565D01*
X21607921Y-11464800D01*
X21913663Y-11464800D01*
X21875279Y-11522246D01*
X21829326Y-11633186D01*
X21805900Y-11750960D01*
X21805900Y-11871040D01*
X21829326Y-11988814D01*
X21875279Y-12099754D01*
X21941992Y-12199598D01*
X22026902Y-12284508D01*
X22126746Y-12351221D01*
X22237686Y-12397174D01*
X22355460Y-12420600D01*
X22475540Y-12420600D01*
X22593314Y-12397174D01*
X22704254Y-12351221D01*
X22804098Y-12284508D01*
X22889008Y-12199598D01*
X22955721Y-12099754D01*
X23001674Y-11988814D01*
X23025100Y-11871040D01*
X23025100Y-11750960D01*
X23001674Y-11633186D01*
X22955721Y-11522246D01*
X22917337Y-11464800D01*
X23172079Y-11464800D01*
X23190000Y-11466565D01*
X23207921Y-11464800D01*
X23261513Y-11459522D01*
X23330278Y-11438662D01*
X23393653Y-11404788D01*
X23449201Y-11359201D01*
X23494788Y-11303653D01*
X23528662Y-11240278D01*
X23549522Y-11171513D01*
X23556565Y-11100000D01*
X23554800Y-11082079D01*
X23554800Y-10914800D01*
X25035200Y-10914800D01*
X25035201Y-12209921D01*
X25040479Y-12263513D01*
X25061339Y-12332278D01*
X25070200Y-12348856D01*
X25070201Y-21157957D01*
X25020638Y-21148099D01*
X24910564Y-21148099D01*
X24802605Y-21169573D01*
X24700910Y-21211697D01*
X24609387Y-21272851D01*
X24531553Y-21350685D01*
X24470399Y-21442208D01*
X24428275Y-21543903D01*
X24406801Y-21651862D01*
X24406801Y-21761936D01*
X24428275Y-21869895D01*
X24470399Y-21971590D01*
X24531553Y-22063113D01*
X24609387Y-22140947D01*
X24700910Y-22202101D01*
X24802605Y-22244225D01*
X24910564Y-22265699D01*
X25020638Y-22265699D01*
X25070201Y-22255841D01*
X25070201Y-24875859D01*
X25065255Y-24926305D01*
X25055292Y-24959303D01*
X25039107Y-24989742D01*
X25017324Y-25016450D01*
X24990765Y-25038422D01*
X24960439Y-25054819D01*
X24927514Y-25065011D01*
X24878148Y-25070200D01*
X524131Y-25070200D01*
X473695Y-25065255D01*
X440697Y-25055292D01*
X410258Y-25039107D01*
X383550Y-25017324D01*
X361578Y-24990765D01*
X345181Y-24960439D01*
X334989Y-24927514D01*
X329800Y-24878148D01*
X329800Y-24413216D01*
X429872Y-24552522D01*
X568008Y-24681597D01*
X728671Y-24781243D01*
X880538Y-24831794D01*
X1027200Y-24767129D01*
X1027200Y-23717800D01*
X1281200Y-23717800D01*
X1281200Y-24767129D01*
X1427862Y-24831794D01*
X1579729Y-24781243D01*
X1740392Y-24681597D01*
X1878528Y-24552522D01*
X1988828Y-24398978D01*
X2067054Y-24226866D01*
X2110200Y-24042800D01*
X2110200Y-23717800D01*
X7948200Y-23717800D01*
X7948200Y-24042800D01*
X7991346Y-24226866D01*
X8069572Y-24398978D01*
X8179872Y-24552522D01*
X8318008Y-24681597D01*
X8478671Y-24781243D01*
X8630538Y-24831794D01*
X8777200Y-24767129D01*
X8777200Y-23717800D01*
X9031200Y-23717800D01*
X9031200Y-24767129D01*
X9177862Y-24831794D01*
X9329729Y-24781243D01*
X9490392Y-24681597D01*
X9628528Y-24552522D01*
X9738828Y-24398978D01*
X9817054Y-24226866D01*
X9860200Y-24042800D01*
X9860200Y-23717800D01*
X9031200Y-23717800D01*
X8777200Y-23717800D01*
X7948200Y-23717800D01*
X2110200Y-23717800D01*
X1281200Y-23717800D01*
X1027200Y-23717800D01*
X1007200Y-23717800D01*
X1007200Y-23465363D01*
X13563600Y-23465363D01*
X13563600Y-23575437D01*
X13585074Y-23683396D01*
X13627198Y-23785091D01*
X13688352Y-23876614D01*
X13766186Y-23954448D01*
X13857709Y-24015602D01*
X13919200Y-24041073D01*
X13919200Y-24121537D01*
X13940674Y-24229496D01*
X13982798Y-24331191D01*
X14043952Y-24422714D01*
X14121786Y-24500548D01*
X14213309Y-24561702D01*
X14315004Y-24603826D01*
X14422963Y-24625300D01*
X14533037Y-24625300D01*
X14640996Y-24603826D01*
X14742691Y-24561702D01*
X14834214Y-24500548D01*
X14912048Y-24422714D01*
X14973202Y-24331191D01*
X15015326Y-24229496D01*
X15036800Y-24121537D01*
X15036800Y-24011463D01*
X15015326Y-23903504D01*
X14973202Y-23801809D01*
X14912048Y-23710286D01*
X14834214Y-23632452D01*
X14742691Y-23571298D01*
X14732226Y-23566963D01*
X18364200Y-23566963D01*
X18364200Y-23677037D01*
X18385674Y-23784996D01*
X18427798Y-23886691D01*
X18488952Y-23978214D01*
X18566786Y-24056048D01*
X18658309Y-24117202D01*
X18760004Y-24159326D01*
X18867963Y-24180800D01*
X18978037Y-24180800D01*
X19085996Y-24159326D01*
X19187691Y-24117202D01*
X19279214Y-24056048D01*
X19357048Y-23978214D01*
X19418202Y-23886691D01*
X19460326Y-23784996D01*
X19481800Y-23677037D01*
X19481800Y-23566963D01*
X19460326Y-23459004D01*
X19418202Y-23357309D01*
X19385228Y-23307960D01*
X22631400Y-23307960D01*
X22631400Y-23428040D01*
X22654826Y-23545814D01*
X22700779Y-23656754D01*
X22767492Y-23756598D01*
X22852402Y-23841508D01*
X22952246Y-23908221D01*
X23063186Y-23954174D01*
X23180960Y-23977600D01*
X23301040Y-23977600D01*
X23418814Y-23954174D01*
X23529754Y-23908221D01*
X23629598Y-23841508D01*
X23714508Y-23756598D01*
X23781221Y-23656754D01*
X23827174Y-23545814D01*
X23850600Y-23428040D01*
X23850600Y-23307960D01*
X23827174Y-23190186D01*
X23781221Y-23079246D01*
X23714508Y-22979402D01*
X23629598Y-22894492D01*
X23529754Y-22827779D01*
X23418814Y-22781826D01*
X23301040Y-22758400D01*
X23180960Y-22758400D01*
X23063186Y-22781826D01*
X22952246Y-22827779D01*
X22852402Y-22894492D01*
X22767492Y-22979402D01*
X22700779Y-23079246D01*
X22654826Y-23190186D01*
X22631400Y-23307960D01*
X19385228Y-23307960D01*
X19357048Y-23265786D01*
X19279214Y-23187952D01*
X19187691Y-23126798D01*
X19085996Y-23084674D01*
X18978037Y-23063200D01*
X18867963Y-23063200D01*
X18760004Y-23084674D01*
X18658309Y-23126798D01*
X18566786Y-23187952D01*
X18488952Y-23265786D01*
X18427798Y-23357309D01*
X18385674Y-23459004D01*
X18364200Y-23566963D01*
X14732226Y-23566963D01*
X14681200Y-23545827D01*
X14681200Y-23465363D01*
X14659726Y-23357404D01*
X14617602Y-23255709D01*
X14556448Y-23164186D01*
X14478614Y-23086352D01*
X14387091Y-23025198D01*
X14285396Y-22983074D01*
X14177437Y-22961600D01*
X14067363Y-22961600D01*
X13959404Y-22983074D01*
X13857709Y-23025198D01*
X13766186Y-23086352D01*
X13688352Y-23164186D01*
X13627198Y-23255709D01*
X13585074Y-23357404D01*
X13563600Y-23465363D01*
X1007200Y-23465363D01*
X1007200Y-23463800D01*
X1027200Y-23463800D01*
X1027200Y-22414471D01*
X1281200Y-22414471D01*
X1281200Y-23463800D01*
X2110200Y-23463800D01*
X2110200Y-23138800D01*
X7948200Y-23138800D01*
X7948200Y-23463800D01*
X8777200Y-23463800D01*
X8777200Y-22414471D01*
X9031200Y-22414471D01*
X9031200Y-23463800D01*
X9860200Y-23463800D01*
X9860200Y-23138800D01*
X9817054Y-22954734D01*
X9738828Y-22782622D01*
X9628528Y-22629078D01*
X9490392Y-22500003D01*
X9329729Y-22400357D01*
X9177862Y-22349806D01*
X9031200Y-22414471D01*
X8777200Y-22414471D01*
X8630538Y-22349806D01*
X8478671Y-22400357D01*
X8318008Y-22500003D01*
X8179872Y-22629078D01*
X8069572Y-22782622D01*
X7991346Y-22954734D01*
X7948200Y-23138800D01*
X2110200Y-23138800D01*
X2067054Y-22954734D01*
X1988828Y-22782622D01*
X1878528Y-22629078D01*
X1740392Y-22500003D01*
X1579729Y-22400357D01*
X1427862Y-22349806D01*
X1281200Y-22414471D01*
X1027200Y-22414471D01*
X880538Y-22349806D01*
X728671Y-22400357D01*
X568008Y-22500003D01*
X429872Y-22629078D01*
X329800Y-22768384D01*
X329800Y-21899260D01*
X2881900Y-21899260D01*
X2881900Y-22019340D01*
X2905326Y-22137114D01*
X2951279Y-22248054D01*
X3017992Y-22347898D01*
X3102902Y-22432808D01*
X3202746Y-22499521D01*
X3313686Y-22545474D01*
X3431460Y-22568900D01*
X3551540Y-22568900D01*
X3669314Y-22545474D01*
X3780254Y-22499521D01*
X3880098Y-22432808D01*
X3965008Y-22347898D01*
X4031721Y-22248054D01*
X4077674Y-22137114D01*
X4096600Y-22041960D01*
X11832400Y-22041960D01*
X11832400Y-22162040D01*
X11855826Y-22279814D01*
X11901779Y-22390754D01*
X11968492Y-22490598D01*
X12053402Y-22575508D01*
X12153246Y-22642221D01*
X12264186Y-22688174D01*
X12381960Y-22711600D01*
X12502040Y-22711600D01*
X12619814Y-22688174D01*
X12730754Y-22642221D01*
X12830598Y-22575508D01*
X12915508Y-22490598D01*
X12982221Y-22390754D01*
X13028174Y-22279814D01*
X13051600Y-22162040D01*
X13051600Y-22041960D01*
X13028174Y-21924186D01*
X12982221Y-21813246D01*
X12915508Y-21713402D01*
X12830598Y-21628492D01*
X12730754Y-21561779D01*
X12619814Y-21515826D01*
X12502040Y-21492400D01*
X12381960Y-21492400D01*
X12264186Y-21515826D01*
X12153246Y-21561779D01*
X12053402Y-21628492D01*
X11968492Y-21713402D01*
X11901779Y-21813246D01*
X11855826Y-21924186D01*
X11832400Y-22041960D01*
X4096600Y-22041960D01*
X4101100Y-22019340D01*
X4101100Y-21899260D01*
X4077674Y-21781486D01*
X4031721Y-21670546D01*
X3965008Y-21570702D01*
X3880098Y-21485792D01*
X3780254Y-21419079D01*
X3669314Y-21373126D01*
X3551540Y-21349700D01*
X3431460Y-21349700D01*
X3313686Y-21373126D01*
X3202746Y-21419079D01*
X3102902Y-21485792D01*
X3017992Y-21570702D01*
X2951279Y-21670546D01*
X2905326Y-21781486D01*
X2881900Y-21899260D01*
X329800Y-21899260D01*
X329800Y-20603634D01*
X330990Y-20606381D01*
X455152Y-20785858D01*
X611943Y-20937663D01*
X795337Y-21055963D01*
X1006892Y-21131090D01*
X1177200Y-21068540D01*
X1177200Y-19917800D01*
X1431200Y-19917800D01*
X1431200Y-21068540D01*
X1601508Y-21131090D01*
X1813063Y-21055963D01*
X1848805Y-21032908D01*
X1851485Y-21046383D01*
X1904615Y-21174648D01*
X1981746Y-21290084D01*
X2079916Y-21388254D01*
X2195352Y-21465385D01*
X2323617Y-21518515D01*
X2459783Y-21545600D01*
X2598617Y-21545600D01*
X2734783Y-21518515D01*
X2863048Y-21465385D01*
X2978484Y-21388254D01*
X3076654Y-21290084D01*
X3153785Y-21174648D01*
X3206915Y-21046383D01*
X3234000Y-20910217D01*
X3234000Y-20771383D01*
X6824400Y-20771383D01*
X6824400Y-20910217D01*
X6851485Y-21046383D01*
X6904615Y-21174648D01*
X6981746Y-21290084D01*
X7079916Y-21388254D01*
X7195352Y-21465385D01*
X7323617Y-21518515D01*
X7459783Y-21545600D01*
X7598617Y-21545600D01*
X7734783Y-21518515D01*
X7863048Y-21465385D01*
X7978484Y-21388254D01*
X8076654Y-21290084D01*
X8086091Y-21275960D01*
X19075400Y-21275960D01*
X19075400Y-21396040D01*
X19098826Y-21513814D01*
X19144779Y-21624754D01*
X19211492Y-21724598D01*
X19296402Y-21809508D01*
X19396246Y-21876221D01*
X19507186Y-21922174D01*
X19624960Y-21945600D01*
X19745040Y-21945600D01*
X19862814Y-21922174D01*
X19973754Y-21876221D01*
X20073598Y-21809508D01*
X20158508Y-21724598D01*
X20225221Y-21624754D01*
X20271174Y-21513814D01*
X20294600Y-21396040D01*
X20294600Y-21275960D01*
X20271174Y-21158186D01*
X20225221Y-21047246D01*
X20158508Y-20947402D01*
X20073598Y-20862492D01*
X19973754Y-20795779D01*
X19862814Y-20749826D01*
X19745040Y-20726400D01*
X19624960Y-20726400D01*
X19507186Y-20749826D01*
X19396246Y-20795779D01*
X19296402Y-20862492D01*
X19211492Y-20947402D01*
X19144779Y-21047246D01*
X19098826Y-21158186D01*
X19075400Y-21275960D01*
X8086091Y-21275960D01*
X8153785Y-21174648D01*
X8206915Y-21046383D01*
X8209595Y-21032908D01*
X8245337Y-21055963D01*
X8456892Y-21131090D01*
X8627200Y-21068540D01*
X8627200Y-19917800D01*
X8881200Y-19917800D01*
X8881200Y-21068540D01*
X9051508Y-21131090D01*
X9263063Y-21055963D01*
X9446457Y-20937663D01*
X9603248Y-20785858D01*
X9727410Y-20606381D01*
X9814172Y-20406130D01*
X9860200Y-20192800D01*
X9860200Y-20082674D01*
X9876674Y-20165496D01*
X9918798Y-20267191D01*
X9975299Y-20351750D01*
X9918798Y-20436309D01*
X9876674Y-20538004D01*
X9855200Y-20645963D01*
X9855200Y-20756037D01*
X9876674Y-20863996D01*
X9918798Y-20965691D01*
X9979952Y-21057214D01*
X10057786Y-21135048D01*
X10149309Y-21196202D01*
X10251004Y-21238326D01*
X10358963Y-21259800D01*
X10469037Y-21259800D01*
X10576996Y-21238326D01*
X10678691Y-21196202D01*
X10770214Y-21135048D01*
X10848048Y-21057214D01*
X10909202Y-20965691D01*
X10951326Y-20863996D01*
X10972800Y-20756037D01*
X10972800Y-20645963D01*
X10951326Y-20538004D01*
X10909202Y-20436309D01*
X10852701Y-20351750D01*
X10909202Y-20267191D01*
X10951326Y-20165496D01*
X10972800Y-20057537D01*
X10972800Y-19947463D01*
X10951326Y-19839504D01*
X10909202Y-19737809D01*
X10848048Y-19646286D01*
X10770214Y-19568452D01*
X10678691Y-19507298D01*
X10576996Y-19465174D01*
X10469037Y-19443700D01*
X10358963Y-19443700D01*
X10251004Y-19465174D01*
X10149309Y-19507298D01*
X10057786Y-19568452D01*
X9979952Y-19646286D01*
X9918798Y-19737809D01*
X9876674Y-19839504D01*
X9860200Y-19922326D01*
X9860200Y-19917800D01*
X8881200Y-19917800D01*
X8627200Y-19917800D01*
X7648200Y-19917800D01*
X7648200Y-20145863D01*
X7598617Y-20136000D01*
X7459783Y-20136000D01*
X7323617Y-20163085D01*
X7195352Y-20216215D01*
X7079916Y-20293346D01*
X6981746Y-20391516D01*
X6904615Y-20506952D01*
X6851485Y-20635217D01*
X6824400Y-20771383D01*
X3234000Y-20771383D01*
X3206915Y-20635217D01*
X3153785Y-20506952D01*
X3076654Y-20391516D01*
X2978484Y-20293346D01*
X2863048Y-20216215D01*
X2734783Y-20163085D01*
X2598617Y-20136000D01*
X2459783Y-20136000D01*
X2410200Y-20145863D01*
X2410200Y-19917800D01*
X1431200Y-19917800D01*
X1177200Y-19917800D01*
X1157200Y-19917800D01*
X1157200Y-19663800D01*
X1177200Y-19663800D01*
X1177200Y-18513060D01*
X1431200Y-18513060D01*
X1431200Y-19663800D01*
X2410200Y-19663800D01*
X2410200Y-19388800D01*
X7648200Y-19388800D01*
X7648200Y-19663800D01*
X8627200Y-19663800D01*
X8627200Y-18513060D01*
X8881200Y-18513060D01*
X8881200Y-19663800D01*
X9860200Y-19663800D01*
X9860200Y-19388800D01*
X9834250Y-19268527D01*
X12749048Y-19268527D01*
X12749048Y-19378601D01*
X12770522Y-19486560D01*
X12812646Y-19588255D01*
X12873800Y-19679778D01*
X12951634Y-19757612D01*
X13043157Y-19818766D01*
X13144852Y-19860890D01*
X13252811Y-19882364D01*
X13362885Y-19882364D01*
X13470844Y-19860890D01*
X13479645Y-19857245D01*
X13473316Y-19872523D01*
X13451842Y-19980482D01*
X13451842Y-20090556D01*
X13473316Y-20198515D01*
X13515440Y-20300210D01*
X13576594Y-20391733D01*
X13654428Y-20469567D01*
X13745951Y-20530721D01*
X13792200Y-20549878D01*
X13792200Y-20629037D01*
X13813674Y-20736996D01*
X13855798Y-20838691D01*
X13916952Y-20930214D01*
X13994786Y-21008048D01*
X14086309Y-21069202D01*
X14188004Y-21111326D01*
X14295963Y-21132800D01*
X14406037Y-21132800D01*
X14513996Y-21111326D01*
X14615691Y-21069202D01*
X14707214Y-21008048D01*
X14785048Y-20930214D01*
X14846202Y-20838691D01*
X14888326Y-20736996D01*
X14909800Y-20629037D01*
X14909800Y-20518963D01*
X15062200Y-20518963D01*
X15062200Y-20629037D01*
X15083674Y-20736996D01*
X15125798Y-20838691D01*
X15186952Y-20930214D01*
X15264786Y-21008048D01*
X15356309Y-21069202D01*
X15458004Y-21111326D01*
X15565963Y-21132800D01*
X15676037Y-21132800D01*
X15783996Y-21111326D01*
X15885691Y-21069202D01*
X15977214Y-21008048D01*
X16055048Y-20930214D01*
X16116202Y-20838691D01*
X16158326Y-20736996D01*
X16179800Y-20629037D01*
X16179800Y-20518963D01*
X16234547Y-20518963D01*
X16234547Y-20629037D01*
X16256021Y-20736996D01*
X16298145Y-20838691D01*
X16359299Y-20930214D01*
X16437133Y-21008048D01*
X16528656Y-21069202D01*
X16630351Y-21111326D01*
X16738310Y-21132800D01*
X16848384Y-21132800D01*
X16956343Y-21111326D01*
X17058038Y-21069202D01*
X17149561Y-21008048D01*
X17223174Y-20934436D01*
X17296786Y-21008048D01*
X17388309Y-21069202D01*
X17490004Y-21111326D01*
X17597963Y-21132800D01*
X17708037Y-21132800D01*
X17815996Y-21111326D01*
X17917691Y-21069202D01*
X18009214Y-21008048D01*
X18034000Y-20983262D01*
X18058786Y-21008048D01*
X18150309Y-21069202D01*
X18252004Y-21111326D01*
X18359963Y-21132800D01*
X18470037Y-21132800D01*
X18577996Y-21111326D01*
X18679691Y-21069202D01*
X18771214Y-21008048D01*
X18849048Y-20930214D01*
X18910202Y-20838691D01*
X18952326Y-20736996D01*
X18973800Y-20629037D01*
X18973800Y-20518963D01*
X18952326Y-20411004D01*
X18910202Y-20309309D01*
X18849048Y-20217786D01*
X18771214Y-20139952D01*
X18694924Y-20088976D01*
X18781290Y-20053202D01*
X18872813Y-19992048D01*
X18950647Y-19914214D01*
X19011801Y-19822691D01*
X19053925Y-19720996D01*
X19075399Y-19613037D01*
X19075399Y-19502963D01*
X19053925Y-19395004D01*
X19011801Y-19293309D01*
X18950647Y-19201786D01*
X18872813Y-19123952D01*
X18781290Y-19062798D01*
X18679595Y-19020674D01*
X18571636Y-18999200D01*
X18461562Y-18999200D01*
X18353603Y-19020674D01*
X18251908Y-19062798D01*
X18160385Y-19123952D01*
X18082551Y-19201786D01*
X18021397Y-19293309D01*
X17979273Y-19395004D01*
X17957799Y-19502963D01*
X17957799Y-19613037D01*
X17979273Y-19720996D01*
X18021397Y-19822691D01*
X18082551Y-19914214D01*
X18160385Y-19992048D01*
X18236675Y-20043024D01*
X18150309Y-20078798D01*
X18058786Y-20139952D01*
X18034000Y-20164738D01*
X18009214Y-20139952D01*
X17917691Y-20078798D01*
X17815996Y-20036674D01*
X17708037Y-20015200D01*
X17597963Y-20015200D01*
X17490004Y-20036674D01*
X17388309Y-20078798D01*
X17296786Y-20139952D01*
X17223174Y-20213565D01*
X17149561Y-20139952D01*
X17058038Y-20078798D01*
X16956343Y-20036674D01*
X16848384Y-20015200D01*
X16738310Y-20015200D01*
X16630351Y-20036674D01*
X16528656Y-20078798D01*
X16437133Y-20139952D01*
X16359299Y-20217786D01*
X16298145Y-20309309D01*
X16256021Y-20411004D01*
X16234547Y-20518963D01*
X16179800Y-20518963D01*
X16158326Y-20411004D01*
X16116202Y-20309309D01*
X16055048Y-20217786D01*
X15977214Y-20139952D01*
X15885691Y-20078798D01*
X15783996Y-20036674D01*
X15676037Y-20015200D01*
X15565963Y-20015200D01*
X15458004Y-20036674D01*
X15356309Y-20078798D01*
X15264786Y-20139952D01*
X15186952Y-20217786D01*
X15125798Y-20309309D01*
X15083674Y-20411004D01*
X15062200Y-20518963D01*
X14909800Y-20518963D01*
X14888326Y-20411004D01*
X14846202Y-20309309D01*
X14785048Y-20217786D01*
X14707214Y-20139952D01*
X14615691Y-20078798D01*
X14569442Y-20059641D01*
X14569442Y-19980482D01*
X14547968Y-19872523D01*
X14505844Y-19770828D01*
X14444690Y-19679305D01*
X14366856Y-19601471D01*
X14275333Y-19540317D01*
X14173638Y-19498193D01*
X14065679Y-19476719D01*
X13955605Y-19476719D01*
X13847646Y-19498193D01*
X13838845Y-19501838D01*
X13845174Y-19486560D01*
X13866648Y-19378601D01*
X13866648Y-19268527D01*
X13845174Y-19160568D01*
X13803050Y-19058873D01*
X13741896Y-18967350D01*
X13664062Y-18889516D01*
X13572539Y-18828362D01*
X13470844Y-18786238D01*
X13362885Y-18764764D01*
X13252811Y-18764764D01*
X13144852Y-18786238D01*
X13043157Y-18828362D01*
X12951634Y-18889516D01*
X12873800Y-18967350D01*
X12812646Y-19058873D01*
X12770522Y-19160568D01*
X12749048Y-19268527D01*
X9834250Y-19268527D01*
X9814172Y-19175470D01*
X9727410Y-18975219D01*
X9603248Y-18795742D01*
X9446457Y-18643937D01*
X9263063Y-18525637D01*
X9051508Y-18450510D01*
X8881200Y-18513060D01*
X8627200Y-18513060D01*
X8456892Y-18450510D01*
X8245337Y-18525637D01*
X8061943Y-18643937D01*
X7905152Y-18795742D01*
X7780990Y-18975219D01*
X7694228Y-19175470D01*
X7648200Y-19388800D01*
X2410200Y-19388800D01*
X2364172Y-19175470D01*
X2277410Y-18975219D01*
X2153248Y-18795742D01*
X1996457Y-18643937D01*
X1813063Y-18525637D01*
X1601508Y-18450510D01*
X1431200Y-18513060D01*
X1177200Y-18513060D01*
X1006892Y-18450510D01*
X795337Y-18525637D01*
X611943Y-18643937D01*
X455152Y-18795742D01*
X330990Y-18975219D01*
X329800Y-18977966D01*
X329800Y-17678718D01*
X10155445Y-17678718D01*
X10155445Y-17788792D01*
X10176919Y-17896751D01*
X10219043Y-17998446D01*
X10280197Y-18089969D01*
X10358031Y-18167803D01*
X10449554Y-18228957D01*
X10551249Y-18271081D01*
X10659208Y-18292555D01*
X10769282Y-18292555D01*
X10877241Y-18271081D01*
X10978936Y-18228957D01*
X11070459Y-18167803D01*
X11148293Y-18089969D01*
X11209447Y-17998446D01*
X11251571Y-17896751D01*
X11273045Y-17788792D01*
X11273045Y-17678718D01*
X11251571Y-17570759D01*
X11209447Y-17469064D01*
X11148293Y-17377541D01*
X11070459Y-17299707D01*
X10978936Y-17238553D01*
X10877241Y-17196429D01*
X10769282Y-17174955D01*
X10659208Y-17174955D01*
X10551249Y-17196429D01*
X10449554Y-17238553D01*
X10358031Y-17299707D01*
X10280197Y-17377541D01*
X10219043Y-17469064D01*
X10176919Y-17570759D01*
X10155445Y-17678718D01*
X329800Y-17678718D01*
X329800Y-16094360D01*
X4978400Y-16094360D01*
X4978400Y-16214440D01*
X5001826Y-16332214D01*
X5047779Y-16443154D01*
X5114492Y-16542998D01*
X5132294Y-16560800D01*
X5114492Y-16578602D01*
X5047779Y-16678446D01*
X5001826Y-16789386D01*
X4978400Y-16907160D01*
X4978400Y-17027240D01*
X5001826Y-17145014D01*
X5047779Y-17255954D01*
X5114492Y-17355798D01*
X5199402Y-17440708D01*
X5299246Y-17507421D01*
X5410186Y-17553374D01*
X5527960Y-17576800D01*
X5648040Y-17576800D01*
X5765814Y-17553374D01*
X5876754Y-17507421D01*
X5976598Y-17440708D01*
X6061508Y-17355798D01*
X6128221Y-17255954D01*
X6174174Y-17145014D01*
X6197600Y-17027240D01*
X6197600Y-16907160D01*
X6174174Y-16789386D01*
X6128221Y-16678446D01*
X6061508Y-16578602D01*
X6059866Y-16576960D01*
X8407400Y-16576960D01*
X8407400Y-16697040D01*
X8430826Y-16814814D01*
X8476779Y-16925754D01*
X8543492Y-17025598D01*
X8628402Y-17110508D01*
X8728246Y-17177221D01*
X8839186Y-17223174D01*
X8956960Y-17246600D01*
X9077040Y-17246600D01*
X9194814Y-17223174D01*
X9305754Y-17177221D01*
X9405598Y-17110508D01*
X9490508Y-17025598D01*
X9557221Y-16925754D01*
X9603174Y-16814814D01*
X9626600Y-16697040D01*
X9626600Y-16576960D01*
X9603174Y-16459186D01*
X9557221Y-16348246D01*
X9490508Y-16248402D01*
X9405598Y-16163492D01*
X9305754Y-16096779D01*
X9194814Y-16050826D01*
X9077040Y-16027400D01*
X8956960Y-16027400D01*
X8839186Y-16050826D01*
X8728246Y-16096779D01*
X8628402Y-16163492D01*
X8543492Y-16248402D01*
X8476779Y-16348246D01*
X8430826Y-16459186D01*
X8407400Y-16576960D01*
X6059866Y-16576960D01*
X6043706Y-16560800D01*
X6061508Y-16542998D01*
X6128221Y-16443154D01*
X6174174Y-16332214D01*
X6197600Y-16214440D01*
X6197600Y-16094360D01*
X6174174Y-15976586D01*
X6128221Y-15865646D01*
X6097697Y-15819963D01*
X9728200Y-15819963D01*
X9728200Y-15930037D01*
X9749674Y-16037996D01*
X9791798Y-16139691D01*
X9852952Y-16231214D01*
X9930786Y-16309048D01*
X10022309Y-16370202D01*
X10124004Y-16412326D01*
X10231963Y-16433800D01*
X10342037Y-16433800D01*
X10449996Y-16412326D01*
X10551691Y-16370202D01*
X10643214Y-16309048D01*
X10670862Y-16281400D01*
X13420664Y-16281400D01*
X14493693Y-17354430D01*
X14470402Y-17369992D01*
X14385492Y-17454902D01*
X14318779Y-17554746D01*
X14272826Y-17665686D01*
X14249400Y-17783460D01*
X14249400Y-17903540D01*
X14272826Y-18021314D01*
X14318779Y-18132254D01*
X14385492Y-18232098D01*
X14470402Y-18317008D01*
X14570246Y-18383721D01*
X14681186Y-18429674D01*
X14798960Y-18453100D01*
X14919040Y-18453100D01*
X15036814Y-18429674D01*
X15147754Y-18383721D01*
X15247598Y-18317008D01*
X15332508Y-18232098D01*
X15399221Y-18132254D01*
X15445174Y-18021314D01*
X15468600Y-17903540D01*
X15468600Y-17783460D01*
X15445174Y-17665686D01*
X15424138Y-17614900D01*
X20477588Y-17614900D01*
X20497541Y-17616865D01*
X20517494Y-17614900D01*
X20517501Y-17614900D01*
X20577209Y-17609019D01*
X20653816Y-17585781D01*
X20698038Y-17562144D01*
X20713798Y-17600191D01*
X20749084Y-17653000D01*
X20713798Y-17705809D01*
X20671674Y-17807504D01*
X20650200Y-17915463D01*
X20650200Y-18025537D01*
X20671674Y-18133496D01*
X20713798Y-18235191D01*
X20774952Y-18326714D01*
X20852786Y-18404548D01*
X20944309Y-18465702D01*
X21046004Y-18507826D01*
X21046873Y-18507999D01*
X21031298Y-18531309D01*
X20989174Y-18633004D01*
X20967700Y-18740963D01*
X20967700Y-18851037D01*
X20989174Y-18958996D01*
X21031298Y-19060691D01*
X21092452Y-19152214D01*
X21170286Y-19230048D01*
X21261809Y-19291202D01*
X21363504Y-19333326D01*
X21471463Y-19354800D01*
X21581537Y-19354800D01*
X21689496Y-19333326D01*
X21791191Y-19291202D01*
X21882714Y-19230048D01*
X21927299Y-19185463D01*
X22237700Y-19185463D01*
X22237700Y-19295537D01*
X22259174Y-19403496D01*
X22301298Y-19505191D01*
X22362452Y-19596714D01*
X22440286Y-19674548D01*
X22531809Y-19735702D01*
X22633504Y-19777826D01*
X22741463Y-19799300D01*
X22851537Y-19799300D01*
X22959496Y-19777826D01*
X23061191Y-19735702D01*
X23152714Y-19674548D01*
X23230548Y-19596714D01*
X23291702Y-19505191D01*
X23333826Y-19403496D01*
X23355300Y-19295537D01*
X23355300Y-19185463D01*
X23333826Y-19077504D01*
X23291702Y-18975809D01*
X23230548Y-18884286D01*
X23152714Y-18806452D01*
X23061191Y-18745298D01*
X22959496Y-18703174D01*
X22851537Y-18681700D01*
X22741463Y-18681700D01*
X22633504Y-18703174D01*
X22531809Y-18745298D01*
X22440286Y-18806452D01*
X22362452Y-18884286D01*
X22301298Y-18975809D01*
X22259174Y-19077504D01*
X22237700Y-19185463D01*
X21927299Y-19185463D01*
X21960548Y-19152214D01*
X22021702Y-19060691D01*
X22063826Y-18958996D01*
X22085300Y-18851037D01*
X22085300Y-18740963D01*
X22063826Y-18633004D01*
X22021702Y-18531309D01*
X21960548Y-18439786D01*
X21882714Y-18361952D01*
X21791191Y-18300798D01*
X21689496Y-18258674D01*
X21688627Y-18258501D01*
X21704202Y-18235191D01*
X21746326Y-18133496D01*
X21767800Y-18025537D01*
X21767800Y-17915463D01*
X21746326Y-17807504D01*
X21704202Y-17705809D01*
X21668916Y-17653000D01*
X21704202Y-17600191D01*
X21746326Y-17498496D01*
X21767800Y-17390537D01*
X21767800Y-17280463D01*
X21746326Y-17172504D01*
X21704202Y-17070809D01*
X21643048Y-16979286D01*
X21565214Y-16901452D01*
X21545478Y-16888265D01*
X21600433Y-16865501D01*
X21691956Y-16804347D01*
X21769790Y-16726513D01*
X21830944Y-16634990D01*
X21873068Y-16533295D01*
X21875527Y-16520931D01*
X21967336Y-16582276D01*
X22086502Y-16631636D01*
X22213008Y-16656800D01*
X22341992Y-16656800D01*
X22364700Y-16652283D01*
X22364700Y-16692037D01*
X22386174Y-16799996D01*
X22428298Y-16901691D01*
X22489452Y-16993214D01*
X22567286Y-17071048D01*
X22658809Y-17132202D01*
X22760504Y-17174326D01*
X22868463Y-17195800D01*
X22978537Y-17195800D01*
X23086496Y-17174326D01*
X23188191Y-17132202D01*
X23279714Y-17071048D01*
X23357548Y-16993214D01*
X23418702Y-16901691D01*
X23460826Y-16799996D01*
X23482300Y-16692037D01*
X23482300Y-16581963D01*
X23460826Y-16474004D01*
X23418702Y-16372309D01*
X23357548Y-16280786D01*
X23279714Y-16202952D01*
X23188191Y-16141798D01*
X23086496Y-16099674D01*
X22978537Y-16078200D01*
X22929971Y-16078200D01*
X22932300Y-16066492D01*
X22932300Y-15937508D01*
X23422700Y-15937508D01*
X23422700Y-16066492D01*
X23447864Y-16192998D01*
X23497224Y-16312164D01*
X23568884Y-16419410D01*
X23660090Y-16510616D01*
X23767336Y-16582276D01*
X23886502Y-16631636D01*
X24013008Y-16656800D01*
X24141992Y-16656800D01*
X24268498Y-16631636D01*
X24387664Y-16582276D01*
X24494910Y-16510616D01*
X24586116Y-16419410D01*
X24657776Y-16312164D01*
X24707136Y-16192998D01*
X24732300Y-16066492D01*
X24732300Y-15937508D01*
X24707136Y-15811002D01*
X24657776Y-15691836D01*
X24586116Y-15584590D01*
X24494910Y-15493384D01*
X24387664Y-15421724D01*
X24268498Y-15372364D01*
X24141992Y-15347200D01*
X24013008Y-15347200D01*
X23886502Y-15372364D01*
X23767336Y-15421724D01*
X23660090Y-15493384D01*
X23568884Y-15584590D01*
X23497224Y-15691836D01*
X23447864Y-15811002D01*
X23422700Y-15937508D01*
X22932300Y-15937508D01*
X22907136Y-15811002D01*
X22857776Y-15691836D01*
X22786116Y-15584590D01*
X22694910Y-15493384D01*
X22587664Y-15421724D01*
X22468498Y-15372364D01*
X22341992Y-15347200D01*
X22213008Y-15347200D01*
X22086502Y-15372364D01*
X21967336Y-15421724D01*
X21860090Y-15493384D01*
X21768884Y-15584590D01*
X21697224Y-15691836D01*
X21647864Y-15811002D01*
X21631046Y-15895552D01*
X21600433Y-15875097D01*
X21498738Y-15832973D01*
X21390779Y-15811499D01*
X21280705Y-15811499D01*
X21172746Y-15832973D01*
X21071051Y-15875097D01*
X20979528Y-15936251D01*
X20901694Y-16014085D01*
X20840540Y-16105608D01*
X20798416Y-16207303D01*
X20776942Y-16315262D01*
X20776942Y-16354363D01*
X20329205Y-16802100D01*
X15090837Y-16802100D01*
X14895616Y-16606879D01*
X14961214Y-16563048D01*
X15039048Y-16485214D01*
X15100202Y-16393691D01*
X15142326Y-16291996D01*
X15163800Y-16184037D01*
X15163800Y-16073963D01*
X15142326Y-15966004D01*
X15100202Y-15864309D01*
X15039048Y-15772786D01*
X14961214Y-15694952D01*
X14869691Y-15633798D01*
X14767996Y-15591674D01*
X14676260Y-15573427D01*
X14669939Y-15541649D01*
X14627815Y-15439954D01*
X14566661Y-15348431D01*
X14488827Y-15270597D01*
X14397304Y-15209443D01*
X14295609Y-15167319D01*
X14187650Y-15145845D01*
X14077576Y-15145845D01*
X13969617Y-15167319D01*
X13867922Y-15209443D01*
X13776399Y-15270597D01*
X13698565Y-15348431D01*
X13637411Y-15439954D01*
X13624895Y-15470170D01*
X13608960Y-15468600D01*
X13608953Y-15468600D01*
X13589000Y-15466635D01*
X13569047Y-15468600D01*
X10670862Y-15468600D01*
X10643214Y-15440952D01*
X10551691Y-15379798D01*
X10449996Y-15337674D01*
X10342037Y-15316200D01*
X10231963Y-15316200D01*
X10124004Y-15337674D01*
X10022309Y-15379798D01*
X9930786Y-15440952D01*
X9852952Y-15518786D01*
X9791798Y-15610309D01*
X9749674Y-15712004D01*
X9728200Y-15819963D01*
X6097697Y-15819963D01*
X6061508Y-15765802D01*
X5976598Y-15680892D01*
X5876754Y-15614179D01*
X5765814Y-15568226D01*
X5648040Y-15544800D01*
X5527960Y-15544800D01*
X5410186Y-15568226D01*
X5299246Y-15614179D01*
X5199402Y-15680892D01*
X5114492Y-15765802D01*
X5047779Y-15865646D01*
X5001826Y-15976586D01*
X4978400Y-16094360D01*
X329800Y-16094360D01*
X329800Y-13660963D01*
X2235200Y-13660963D01*
X2235200Y-13771037D01*
X2256674Y-13878996D01*
X2298798Y-13980691D01*
X2359952Y-14072214D01*
X2437786Y-14150048D01*
X2529309Y-14211202D01*
X2631004Y-14253326D01*
X2738963Y-14274800D01*
X2778064Y-14274800D01*
X3461530Y-14958267D01*
X3441700Y-15057963D01*
X3441700Y-15168037D01*
X3463174Y-15275996D01*
X3505298Y-15377691D01*
X3566452Y-15469214D01*
X3644286Y-15547048D01*
X3735809Y-15608202D01*
X3837504Y-15650326D01*
X3945463Y-15671800D01*
X4055537Y-15671800D01*
X4163496Y-15650326D01*
X4265191Y-15608202D01*
X4356714Y-15547048D01*
X4434548Y-15469214D01*
X4495702Y-15377691D01*
X4537826Y-15275996D01*
X4559300Y-15168037D01*
X4559300Y-15057963D01*
X4537826Y-14950004D01*
X4535671Y-14944801D01*
X6335153Y-14944801D01*
X6335153Y-15054875D01*
X6356627Y-15162834D01*
X6398751Y-15264529D01*
X6459905Y-15356052D01*
X6537739Y-15433886D01*
X6629262Y-15495040D01*
X6730957Y-15537164D01*
X6838916Y-15558638D01*
X6948990Y-15558638D01*
X7056949Y-15537164D01*
X7158644Y-15495040D01*
X7224680Y-15450916D01*
X7311891Y-15509189D01*
X7413586Y-15551313D01*
X7521545Y-15572787D01*
X7631619Y-15572787D01*
X7739578Y-15551313D01*
X7841273Y-15509189D01*
X7932796Y-15448035D01*
X8010630Y-15370201D01*
X8071784Y-15278678D01*
X8113908Y-15176983D01*
X8135382Y-15069024D01*
X8135382Y-14958950D01*
X8113908Y-14850991D01*
X8071784Y-14749296D01*
X8010630Y-14657773D01*
X7932796Y-14579939D01*
X7841273Y-14518785D01*
X7739578Y-14476661D01*
X7631619Y-14455187D01*
X7521545Y-14455187D01*
X7413586Y-14476661D01*
X7311891Y-14518785D01*
X7245855Y-14562909D01*
X7158644Y-14504636D01*
X7056949Y-14462512D01*
X6948990Y-14441038D01*
X6838916Y-14441038D01*
X6730957Y-14462512D01*
X6629262Y-14504636D01*
X6537739Y-14565790D01*
X6459905Y-14643624D01*
X6398751Y-14735147D01*
X6356627Y-14836842D01*
X6335153Y-14944801D01*
X4535671Y-14944801D01*
X4495702Y-14848309D01*
X4434548Y-14756786D01*
X4356714Y-14678952D01*
X4289507Y-14634046D01*
X4289258Y-14633742D01*
X4273759Y-14621023D01*
X3352800Y-13700064D01*
X3352800Y-13660963D01*
X3331326Y-13553004D01*
X3289202Y-13451309D01*
X3228048Y-13359786D01*
X3150214Y-13281952D01*
X3058691Y-13220798D01*
X2956996Y-13178674D01*
X2849037Y-13157200D01*
X2738963Y-13157200D01*
X2631004Y-13178674D01*
X2529309Y-13220798D01*
X2437786Y-13281952D01*
X2359952Y-13359786D01*
X2298798Y-13451309D01*
X2256674Y-13553004D01*
X2235200Y-13660963D01*
X329800Y-13660963D01*
X329800Y-12998491D01*
X8778788Y-12998491D01*
X8778788Y-13108565D01*
X8800262Y-13216524D01*
X8842386Y-13318219D01*
X8903540Y-13409742D01*
X8981374Y-13487576D01*
X9072897Y-13548730D01*
X9174592Y-13590854D01*
X9273552Y-13610538D01*
X10134874Y-14471860D01*
X10147593Y-14487359D01*
X10163091Y-14500078D01*
X10163096Y-14500083D01*
X10180218Y-14514134D01*
X10209475Y-14538145D01*
X10280076Y-14575882D01*
X10356683Y-14599120D01*
X10416391Y-14605001D01*
X10416398Y-14605001D01*
X10436351Y-14606966D01*
X10456304Y-14605001D01*
X10863946Y-14605001D01*
X10883899Y-14606966D01*
X10903852Y-14605001D01*
X10903859Y-14605001D01*
X10963567Y-14599120D01*
X11040174Y-14575882D01*
X11110775Y-14538145D01*
X11172657Y-14487359D01*
X11185381Y-14471855D01*
X11941236Y-13716001D01*
X14102446Y-13716001D01*
X14122399Y-13717966D01*
X14142352Y-13716001D01*
X14142359Y-13716001D01*
X14202067Y-13710120D01*
X14278674Y-13686882D01*
X14349275Y-13649145D01*
X14411157Y-13598359D01*
X14423882Y-13582854D01*
X14443126Y-13563610D01*
X17116374Y-13563610D01*
X17373600Y-13820837D01*
X17373601Y-15125444D01*
X17306754Y-15080779D01*
X17195814Y-15034826D01*
X17078040Y-15011400D01*
X16957960Y-15011400D01*
X16840186Y-15034826D01*
X16729246Y-15080779D01*
X16629402Y-15147492D01*
X16544492Y-15232402D01*
X16477779Y-15332246D01*
X16431826Y-15443186D01*
X16408400Y-15560960D01*
X16408400Y-15681040D01*
X16431826Y-15798814D01*
X16477779Y-15909754D01*
X16544492Y-16009598D01*
X16629402Y-16094508D01*
X16729246Y-16161221D01*
X16840186Y-16207174D01*
X16957960Y-16230600D01*
X17078040Y-16230600D01*
X17195814Y-16207174D01*
X17306754Y-16161221D01*
X17406598Y-16094508D01*
X17475202Y-16025904D01*
X17515309Y-16052702D01*
X17617004Y-16094826D01*
X17724963Y-16116300D01*
X17835037Y-16116300D01*
X17867173Y-16109908D01*
X17895923Y-16179316D01*
X17957077Y-16270839D01*
X18034911Y-16348673D01*
X18126434Y-16409827D01*
X18228129Y-16451951D01*
X18336088Y-16473425D01*
X18446162Y-16473425D01*
X18554121Y-16451951D01*
X18655816Y-16409827D01*
X18747339Y-16348673D01*
X18825173Y-16270839D01*
X18886327Y-16179316D01*
X18928451Y-16077621D01*
X18949925Y-15969662D01*
X18949925Y-15859588D01*
X18928451Y-15751629D01*
X18886327Y-15649934D01*
X18825173Y-15558411D01*
X18747339Y-15480577D01*
X18655816Y-15419423D01*
X18554121Y-15377299D01*
X18446162Y-15355825D01*
X18336088Y-15355825D01*
X18303952Y-15362217D01*
X18275202Y-15292809D01*
X18214048Y-15201286D01*
X18186400Y-15173638D01*
X18186400Y-13672453D01*
X18188365Y-13652500D01*
X18186400Y-13632547D01*
X18186400Y-13632540D01*
X18180519Y-13572832D01*
X18176544Y-13559726D01*
X18157281Y-13496225D01*
X18152658Y-13487576D01*
X18119544Y-13425624D01*
X18089708Y-13389269D01*
X18081482Y-13379245D01*
X18081477Y-13379240D01*
X18068758Y-13363742D01*
X18053260Y-13351024D01*
X17935637Y-13233400D01*
X18119664Y-13233400D01*
X18491200Y-13604937D01*
X18491200Y-13644037D01*
X18512674Y-13751996D01*
X18554798Y-13853691D01*
X18615952Y-13945214D01*
X18693786Y-14023048D01*
X18785309Y-14084202D01*
X18887004Y-14126326D01*
X18994963Y-14147800D01*
X19105037Y-14147800D01*
X19212996Y-14126326D01*
X19314691Y-14084202D01*
X19406214Y-14023048D01*
X19484048Y-13945214D01*
X19532601Y-13872550D01*
X19532601Y-14348137D01*
X19504952Y-14375786D01*
X19443798Y-14467309D01*
X19401674Y-14569004D01*
X19380200Y-14676963D01*
X19380200Y-14787037D01*
X19401674Y-14894996D01*
X19443798Y-14996691D01*
X19504952Y-15088214D01*
X19582786Y-15166048D01*
X19674309Y-15227202D01*
X19776004Y-15269326D01*
X19883963Y-15290800D01*
X19994037Y-15290800D01*
X20101996Y-15269326D01*
X20203691Y-15227202D01*
X20295214Y-15166048D01*
X20373048Y-15088214D01*
X20434202Y-14996691D01*
X20476326Y-14894996D01*
X20497800Y-14787037D01*
X20497800Y-14676963D01*
X20476326Y-14569004D01*
X20434202Y-14467309D01*
X20373048Y-14375786D01*
X20345400Y-14348138D01*
X20345400Y-13025963D01*
X20904200Y-13025963D01*
X20904200Y-13136037D01*
X20925674Y-13243996D01*
X20967798Y-13345691D01*
X21028952Y-13437214D01*
X21106786Y-13515048D01*
X21198309Y-13576202D01*
X21300004Y-13618326D01*
X21407963Y-13639800D01*
X21518037Y-13639800D01*
X21625996Y-13618326D01*
X21727691Y-13576202D01*
X21819214Y-13515048D01*
X21897048Y-13437214D01*
X21958202Y-13345691D01*
X22000326Y-13243996D01*
X22021800Y-13136037D01*
X22021800Y-13025963D01*
X22000326Y-12918004D01*
X21958202Y-12816309D01*
X21897048Y-12724786D01*
X21819214Y-12646952D01*
X21727691Y-12585798D01*
X21625996Y-12543674D01*
X21518037Y-12522200D01*
X21407963Y-12522200D01*
X21300004Y-12543674D01*
X21198309Y-12585798D01*
X21106786Y-12646952D01*
X21028952Y-12724786D01*
X20967798Y-12816309D01*
X20925674Y-12918004D01*
X20904200Y-13025963D01*
X20345400Y-13025963D01*
X20345400Y-13021703D01*
X20347365Y-13001750D01*
X20345400Y-12981797D01*
X20345400Y-12981790D01*
X20339519Y-12922082D01*
X20334844Y-12906668D01*
X20316281Y-12845475D01*
X20311395Y-12836334D01*
X20278544Y-12774874D01*
X20255941Y-12747332D01*
X20240482Y-12728495D01*
X20240477Y-12728490D01*
X20227758Y-12712992D01*
X20212261Y-12700274D01*
X19583131Y-12071145D01*
X19570407Y-12055641D01*
X19508525Y-12004855D01*
X19437924Y-11967118D01*
X19361317Y-11943880D01*
X19301609Y-11937999D01*
X19301602Y-11937999D01*
X19281649Y-11936034D01*
X19261696Y-11937999D01*
X18838303Y-11937999D01*
X18818350Y-11936034D01*
X18798397Y-11937999D01*
X18798391Y-11937999D01*
X18746686Y-11943092D01*
X18738682Y-11943880D01*
X18720853Y-11949289D01*
X18662076Y-11967118D01*
X18591475Y-12004855D01*
X18529593Y-12055641D01*
X18516865Y-12071150D01*
X18497625Y-12090390D01*
X14395376Y-12090390D01*
X14376132Y-12071146D01*
X14363407Y-12055641D01*
X14301525Y-12004855D01*
X14230924Y-11967118D01*
X14154317Y-11943880D01*
X14094609Y-11937999D01*
X14094602Y-11937999D01*
X14074649Y-11936034D01*
X14054696Y-11937999D01*
X11170554Y-11937999D01*
X11150601Y-11936034D01*
X11130648Y-11937999D01*
X11130641Y-11937999D01*
X11078205Y-11943164D01*
X11070932Y-11943880D01*
X11025479Y-11957668D01*
X10994326Y-11967118D01*
X10923725Y-12004855D01*
X10898347Y-12025682D01*
X10877346Y-12042917D01*
X10877341Y-12042922D01*
X10861843Y-12055641D01*
X10849123Y-12071140D01*
X10779063Y-12141200D01*
X10739963Y-12141200D01*
X10632004Y-12162674D01*
X10530309Y-12204798D01*
X10438786Y-12265952D01*
X10360952Y-12343786D01*
X10299798Y-12435309D01*
X10257674Y-12537004D01*
X10236200Y-12644963D01*
X10236200Y-12755037D01*
X10257674Y-12862996D01*
X10261601Y-12872476D01*
X10261600Y-13332138D01*
X10233952Y-13359786D01*
X10209247Y-13396760D01*
X9896388Y-13083902D01*
X9896388Y-12998491D01*
X9874914Y-12890532D01*
X9832790Y-12788837D01*
X9771636Y-12697314D01*
X9693802Y-12619480D01*
X9602279Y-12558326D01*
X9500584Y-12516202D01*
X9392625Y-12494728D01*
X9282551Y-12494728D01*
X9174592Y-12516202D01*
X9072897Y-12558326D01*
X8981374Y-12619480D01*
X8903540Y-12697314D01*
X8842386Y-12788837D01*
X8800262Y-12890532D01*
X8778788Y-12998491D01*
X329800Y-12998491D01*
X329800Y-11124800D01*
X3818764Y-11124800D01*
X3876894Y-11171205D01*
X3901997Y-11187507D01*
X3926865Y-11204155D01*
X3930943Y-11206305D01*
X4086545Y-11286961D01*
X4114332Y-11298075D01*
X4141961Y-11309576D01*
X4146379Y-11310893D01*
X4314684Y-11359790D01*
X4344082Y-11365291D01*
X4373439Y-11371211D01*
X4378029Y-11371645D01*
X4552626Y-11386920D01*
X4582553Y-11386606D01*
X4612478Y-11386711D01*
X4617065Y-11386245D01*
X4791304Y-11367317D01*
X4820618Y-11361193D01*
X4849977Y-11355486D01*
X4854386Y-11354138D01*
X5021630Y-11301727D01*
X5049151Y-11290045D01*
X5076888Y-11278726D01*
X5080951Y-11276547D01*
X5234829Y-11192650D01*
X5259594Y-11175820D01*
X5284567Y-11159353D01*
X5288130Y-11156427D01*
X5422783Y-11044238D01*
X5443813Y-11022912D01*
X5465105Y-11001916D01*
X5468031Y-10998353D01*
X5578328Y-10862148D01*
X5594797Y-10837172D01*
X5611626Y-10812409D01*
X5613804Y-10808346D01*
X5695544Y-10653311D01*
X5706857Y-10625588D01*
X5718545Y-10598054D01*
X5719893Y-10593645D01*
X5769964Y-10425685D01*
X5775668Y-10396338D01*
X5781795Y-10367012D01*
X5782261Y-10362426D01*
X5798755Y-10187940D01*
X5798650Y-10158014D01*
X5798964Y-10128087D01*
X5798530Y-10123497D01*
X5780819Y-9949131D01*
X5774905Y-9919799D01*
X5769398Y-9890374D01*
X5768080Y-9885956D01*
X5716837Y-9718351D01*
X5705361Y-9690783D01*
X5694223Y-9662935D01*
X5692073Y-9658857D01*
X5609252Y-9504396D01*
X5592600Y-9479523D01*
X5576303Y-9454426D01*
X5573401Y-9450844D01*
X5536800Y-9406285D01*
X5536800Y-6221255D01*
X6251253Y-6221255D01*
X6251253Y-6326325D01*
X6271751Y-6429377D01*
X6311960Y-6526450D01*
X6370334Y-6613813D01*
X6444630Y-6688109D01*
X6531993Y-6746483D01*
X6553200Y-6755267D01*
X6553200Y-7810500D01*
X6557559Y-7861865D01*
X6573353Y-7919491D01*
X6600086Y-7972929D01*
X6636730Y-8020125D01*
X6650641Y-8034809D01*
X6666400Y-8072854D01*
X6733113Y-8172698D01*
X6818023Y-8257608D01*
X6917867Y-8324321D01*
X6929468Y-8329126D01*
X7044762Y-8450826D01*
X7045039Y-8451494D01*
X7111752Y-8551338D01*
X7196662Y-8636248D01*
X7261414Y-8679513D01*
X7779730Y-9226625D01*
X7810593Y-9255009D01*
X7860685Y-9287582D01*
X7916169Y-9309757D01*
X7974913Y-9320682D01*
X8034660Y-9319936D01*
X8093113Y-9307548D01*
X8148026Y-9283995D01*
X8197289Y-9250182D01*
X8239009Y-9207407D01*
X8536249Y-8835857D01*
X8538008Y-8834098D01*
X8539791Y-8831429D01*
X9220200Y-7980918D01*
X9220200Y-8382000D01*
X9226057Y-8441464D01*
X9243402Y-8498642D01*
X9271568Y-8551338D01*
X9309474Y-8597526D01*
X9355662Y-8635432D01*
X9408358Y-8663598D01*
X9465536Y-8680943D01*
X9500820Y-8684418D01*
X9537798Y-8773691D01*
X9598952Y-8865214D01*
X9676786Y-8943048D01*
X9708432Y-8964193D01*
X9688057Y-8966200D01*
X9688056Y-8966200D01*
X9605956Y-8974286D01*
X9500622Y-9006239D01*
X9403546Y-9058127D01*
X9318457Y-9127957D01*
X9300957Y-9149281D01*
X8667333Y-9782905D01*
X8601246Y-9810279D01*
X8501402Y-9876992D01*
X8416492Y-9961902D01*
X8349779Y-10061746D01*
X8303826Y-10172686D01*
X8280400Y-10290460D01*
X8280400Y-10410540D01*
X8303826Y-10528314D01*
X8349779Y-10639254D01*
X8416492Y-10739098D01*
X8501402Y-10824008D01*
X8601246Y-10890721D01*
X8712186Y-10936674D01*
X8829960Y-10960100D01*
X8950040Y-10960100D01*
X9067814Y-10936674D01*
X9178754Y-10890721D01*
X9278598Y-10824008D01*
X9363508Y-10739098D01*
X9430221Y-10639254D01*
X9457595Y-10573167D01*
X9900303Y-10130459D01*
X9876674Y-10187504D01*
X9855200Y-10295463D01*
X9855200Y-10405537D01*
X9876674Y-10513496D01*
X9918798Y-10615191D01*
X9979952Y-10706714D01*
X10057786Y-10784548D01*
X10149309Y-10845702D01*
X10251004Y-10887826D01*
X10358963Y-10909300D01*
X10469037Y-10909300D01*
X10576996Y-10887826D01*
X10678691Y-10845702D01*
X10731500Y-10810416D01*
X10784309Y-10845702D01*
X10886004Y-10887826D01*
X10993963Y-10909300D01*
X11104037Y-10909300D01*
X11211996Y-10887826D01*
X11313691Y-10845702D01*
X11405214Y-10784548D01*
X11483048Y-10706714D01*
X11544202Y-10615191D01*
X11586326Y-10513496D01*
X11607800Y-10405537D01*
X11607800Y-10295463D01*
X12268197Y-10295463D01*
X12268197Y-10405537D01*
X12289671Y-10513496D01*
X12331795Y-10615191D01*
X12392949Y-10706714D01*
X12470783Y-10784548D01*
X12562306Y-10845702D01*
X12664001Y-10887826D01*
X12771960Y-10909300D01*
X12882034Y-10909300D01*
X12989993Y-10887826D01*
X13091688Y-10845702D01*
X13144498Y-10810415D01*
X13197309Y-10845702D01*
X13299004Y-10887826D01*
X13406963Y-10909300D01*
X13517037Y-10909300D01*
X13624996Y-10887826D01*
X13726691Y-10845702D01*
X13779500Y-10810416D01*
X13832309Y-10845702D01*
X13934004Y-10887826D01*
X14041963Y-10909300D01*
X14152037Y-10909300D01*
X14259996Y-10887826D01*
X14361691Y-10845702D01*
X14414500Y-10810416D01*
X14467309Y-10845702D01*
X14569004Y-10887826D01*
X14676963Y-10909300D01*
X14787037Y-10909300D01*
X14894996Y-10887826D01*
X14996691Y-10845702D01*
X15049500Y-10810416D01*
X15102309Y-10845702D01*
X15204004Y-10887826D01*
X15311963Y-10909300D01*
X15422037Y-10909300D01*
X15529996Y-10887826D01*
X15631691Y-10845702D01*
X15723214Y-10784548D01*
X15801048Y-10706714D01*
X15841955Y-10645492D01*
X19599316Y-10645492D01*
X19662198Y-10827197D01*
X19771171Y-10999225D01*
X19911611Y-11146688D01*
X20078121Y-11263919D01*
X20264302Y-11346413D01*
X20463000Y-11391000D01*
X21063000Y-11391000D01*
X21063000Y-10487000D01*
X19662908Y-10487000D01*
X19599316Y-10645492D01*
X15841955Y-10645492D01*
X15862202Y-10615191D01*
X15904326Y-10513496D01*
X15925800Y-10405537D01*
X15925800Y-10295463D01*
X15904326Y-10187504D01*
X15862202Y-10085809D01*
X15854651Y-10074508D01*
X19599316Y-10074508D01*
X19662908Y-10233000D01*
X21063000Y-10233000D01*
X21063000Y-9329000D01*
X20463000Y-9329000D01*
X20264302Y-9373587D01*
X20078121Y-9456081D01*
X19911611Y-9573312D01*
X19771171Y-9720775D01*
X19662198Y-9892803D01*
X19599316Y-10074508D01*
X15854651Y-10074508D01*
X15801048Y-9994286D01*
X15723214Y-9916452D01*
X15631691Y-9855298D01*
X15529996Y-9813174D01*
X15422037Y-9791700D01*
X15311963Y-9791700D01*
X15204004Y-9813174D01*
X15102309Y-9855298D01*
X15049500Y-9890584D01*
X14996691Y-9855298D01*
X14894996Y-9813174D01*
X14787037Y-9791700D01*
X14676963Y-9791700D01*
X14569004Y-9813174D01*
X14467309Y-9855298D01*
X14414500Y-9890584D01*
X14361691Y-9855298D01*
X14259996Y-9813174D01*
X14152037Y-9791700D01*
X14041963Y-9791700D01*
X13934004Y-9813174D01*
X13832309Y-9855298D01*
X13779500Y-9890584D01*
X13726691Y-9855298D01*
X13624996Y-9813174D01*
X13517037Y-9791700D01*
X13406963Y-9791700D01*
X13299004Y-9813174D01*
X13197309Y-9855298D01*
X13144499Y-9890585D01*
X13091688Y-9855298D01*
X12989993Y-9813174D01*
X12882034Y-9791700D01*
X12771960Y-9791700D01*
X12664001Y-9813174D01*
X12562306Y-9855298D01*
X12470783Y-9916452D01*
X12392949Y-9994286D01*
X12331795Y-10085809D01*
X12289671Y-10187504D01*
X12268197Y-10295463D01*
X11607800Y-10295463D01*
X11586326Y-10187504D01*
X11544202Y-10085809D01*
X11483048Y-9994286D01*
X11405214Y-9916452D01*
X11313691Y-9855298D01*
X11211996Y-9813174D01*
X11104037Y-9791700D01*
X10993963Y-9791700D01*
X10886004Y-9813174D01*
X10850636Y-9827824D01*
X11424719Y-9253741D01*
X11446043Y-9236241D01*
X11515873Y-9151152D01*
X11567761Y-9054076D01*
X11599714Y-8948742D01*
X11602263Y-8922858D01*
X11692463Y-8940800D01*
X11802537Y-8940800D01*
X11910496Y-8919326D01*
X12012191Y-8877202D01*
X12103714Y-8816048D01*
X12181548Y-8738214D01*
X12215902Y-8686800D01*
X13017500Y-8686800D01*
X13076964Y-8680943D01*
X13134142Y-8663598D01*
X13186838Y-8635432D01*
X13233026Y-8597526D01*
X13270932Y-8551338D01*
X13299098Y-8498642D01*
X13316443Y-8441464D01*
X13322300Y-8382000D01*
X13322300Y-7707402D01*
X13373714Y-7673048D01*
X13451548Y-7595214D01*
X13452503Y-7593785D01*
X13494282Y-7635564D01*
X13585805Y-7696718D01*
X13687500Y-7738842D01*
X13795459Y-7760316D01*
X13905533Y-7760316D01*
X14013492Y-7738842D01*
X14115187Y-7696718D01*
X14206710Y-7635564D01*
X14284544Y-7557730D01*
X14345698Y-7466207D01*
X14387822Y-7364512D01*
X14409296Y-7256553D01*
X14409296Y-7146479D01*
X14387822Y-7038520D01*
X14345698Y-6936825D01*
X14284544Y-6845302D01*
X14206710Y-6767468D01*
X14115187Y-6706314D01*
X14013492Y-6664190D01*
X13905533Y-6642716D01*
X13795459Y-6642716D01*
X13687500Y-6664190D01*
X13585805Y-6706314D01*
X13494282Y-6767468D01*
X13423900Y-6837850D01*
X13423900Y-6306452D01*
X13425865Y-6286499D01*
X13423900Y-6266546D01*
X13423900Y-6266540D01*
X13418019Y-6206832D01*
X13394781Y-6130225D01*
X13357044Y-6059624D01*
X13322300Y-6017289D01*
X13322300Y-5882962D01*
X13388048Y-5817214D01*
X13449202Y-5725691D01*
X13491326Y-5623996D01*
X13502588Y-5567377D01*
X13543684Y-5601104D01*
X13601451Y-5631981D01*
X13614285Y-5638841D01*
X13690891Y-5662079D01*
X13698164Y-5662795D01*
X13750600Y-5667960D01*
X13750607Y-5667960D01*
X13770560Y-5669925D01*
X13790513Y-5667960D01*
X14609432Y-5667960D01*
X14637080Y-5695608D01*
X14728603Y-5756762D01*
X14830298Y-5798886D01*
X14938257Y-5820360D01*
X15048331Y-5820360D01*
X15156290Y-5798886D01*
X15257985Y-5756762D01*
X15349508Y-5695608D01*
X15427342Y-5617774D01*
X15488496Y-5526251D01*
X15530620Y-5424556D01*
X15552094Y-5316597D01*
X15552094Y-5206523D01*
X15530620Y-5098564D01*
X15488496Y-4996869D01*
X15427342Y-4905346D01*
X15349508Y-4827512D01*
X15257985Y-4766358D01*
X15156290Y-4724234D01*
X15048331Y-4702760D01*
X14938257Y-4702760D01*
X14830298Y-4724234D01*
X14728603Y-4766358D01*
X14637080Y-4827512D01*
X14609432Y-4855160D01*
X14579861Y-4855160D01*
X14592202Y-4836691D01*
X14634326Y-4734996D01*
X14655800Y-4627037D01*
X14655800Y-4516963D01*
X14636213Y-4418490D01*
X14707214Y-4371048D01*
X14785048Y-4293214D01*
X14846202Y-4201691D01*
X14888326Y-4099996D01*
X14909800Y-3992037D01*
X14909800Y-3881963D01*
X14895488Y-3810009D01*
X14967023Y-3810009D01*
X16850169Y-5693155D01*
X16861674Y-5750996D01*
X16903798Y-5852691D01*
X16964952Y-5944214D01*
X17042786Y-6022048D01*
X17134309Y-6083202D01*
X17236004Y-6125326D01*
X17266411Y-6131374D01*
X17770693Y-7139939D01*
X17665686Y-7160826D01*
X17554746Y-7206779D01*
X17454902Y-7273492D01*
X17369992Y-7358402D01*
X17303279Y-7458246D01*
X17257326Y-7569186D01*
X17233900Y-7686960D01*
X17233900Y-7807040D01*
X17257326Y-7924814D01*
X17303279Y-8035754D01*
X17369992Y-8135598D01*
X17454902Y-8220508D01*
X17554746Y-8287221D01*
X17665686Y-8333174D01*
X17783460Y-8356600D01*
X17903540Y-8356600D01*
X18021314Y-8333174D01*
X18132254Y-8287221D01*
X18232098Y-8220508D01*
X18284684Y-8167922D01*
X18325725Y-8250002D01*
X18336826Y-8305814D01*
X18382779Y-8416754D01*
X18449492Y-8516598D01*
X18468553Y-8535659D01*
X18586879Y-8772311D01*
X18606068Y-8805338D01*
X18643974Y-8851526D01*
X18690162Y-8889432D01*
X18742858Y-8917598D01*
X18800036Y-8934943D01*
X18859500Y-8940800D01*
X18918964Y-8934943D01*
X18976142Y-8917598D01*
X19028838Y-8889432D01*
X19075026Y-8851526D01*
X20154526Y-7772026D01*
X20192432Y-7725838D01*
X20220598Y-7673142D01*
X20237943Y-7615964D01*
X20243800Y-7556500D01*
X20243800Y-5334000D01*
X20237943Y-5274536D01*
X20220598Y-5217358D01*
X20192432Y-5164662D01*
X20154526Y-5118474D01*
X18592800Y-3556748D01*
X18592800Y-2921000D01*
X18586943Y-2861536D01*
X18569598Y-2804358D01*
X18541432Y-2751662D01*
X18503526Y-2705474D01*
X18457338Y-2667568D01*
X18404642Y-2639402D01*
X18358788Y-2625492D01*
X19599316Y-2625492D01*
X19662198Y-2807197D01*
X19771171Y-2979225D01*
X19911611Y-3126688D01*
X20078121Y-3243919D01*
X20264302Y-3326413D01*
X20463000Y-3371000D01*
X21063000Y-3371000D01*
X21063000Y-2467000D01*
X19662908Y-2467000D01*
X19599316Y-2625492D01*
X18358788Y-2625492D01*
X18347464Y-2622057D01*
X18288000Y-2616200D01*
X18150900Y-2616200D01*
X18084814Y-2588826D01*
X17967040Y-2565400D01*
X17846960Y-2565400D01*
X17729186Y-2588826D01*
X17663100Y-2616200D01*
X17018000Y-2616200D01*
X16958536Y-2622057D01*
X16901358Y-2639402D01*
X16848662Y-2667568D01*
X16802474Y-2705474D01*
X16764568Y-2751662D01*
X16736402Y-2804358D01*
X16719057Y-2861536D01*
X16713200Y-2921000D01*
X16713200Y-3692464D01*
X15820881Y-2800145D01*
X15808157Y-2784641D01*
X15746275Y-2733855D01*
X15675674Y-2696118D01*
X15599067Y-2672880D01*
X15539359Y-2666999D01*
X15539352Y-2666999D01*
X15519399Y-2665034D01*
X15499446Y-2666999D01*
X13293561Y-2666999D01*
X13270932Y-2624662D01*
X13233026Y-2578474D01*
X13186838Y-2540568D01*
X13134142Y-2512402D01*
X13076964Y-2495057D01*
X13017500Y-2489200D01*
X9525000Y-2489200D01*
X9465536Y-2495057D01*
X9408358Y-2512402D01*
X9355662Y-2540568D01*
X9309474Y-2578474D01*
X9278513Y-2616200D01*
X8826500Y-2616200D01*
X8767036Y-2622057D01*
X8709858Y-2639402D01*
X8657162Y-2667568D01*
X8610974Y-2705474D01*
X8376135Y-2940313D01*
X8347246Y-2952279D01*
X8247402Y-3018992D01*
X8162492Y-3103902D01*
X8095779Y-3203746D01*
X8083813Y-3232635D01*
X6642474Y-4673974D01*
X6604568Y-4720162D01*
X6576402Y-4772858D01*
X6559057Y-4830036D01*
X6553200Y-4889500D01*
X6553200Y-5792313D01*
X6531993Y-5801097D01*
X6444630Y-5859471D01*
X6370334Y-5933767D01*
X6311960Y-6021130D01*
X6271751Y-6118203D01*
X6251253Y-6221255D01*
X5536800Y-6221255D01*
X5536800Y-3293236D01*
X5583205Y-3235106D01*
X5599507Y-3210003D01*
X5616155Y-3185135D01*
X5618305Y-3181057D01*
X5698961Y-3025455D01*
X5710075Y-2997668D01*
X5721576Y-2970039D01*
X5722893Y-2965621D01*
X5771790Y-2797316D01*
X5777291Y-2767918D01*
X5783211Y-2738561D01*
X5783645Y-2733971D01*
X5798920Y-2559374D01*
X5798606Y-2529447D01*
X5798711Y-2499522D01*
X5798245Y-2494935D01*
X5779317Y-2320696D01*
X5773193Y-2291382D01*
X5767486Y-2262023D01*
X5766138Y-2257614D01*
X5713727Y-2090370D01*
X5702045Y-2062849D01*
X5698642Y-2054508D01*
X19599316Y-2054508D01*
X19662908Y-2213000D01*
X21063000Y-2213000D01*
X21063000Y-1309000D01*
X20463000Y-1309000D01*
X20264302Y-1353587D01*
X20078121Y-1436081D01*
X19911611Y-1553312D01*
X19771171Y-1700775D01*
X19662198Y-1872803D01*
X19599316Y-2054508D01*
X5698642Y-2054508D01*
X5690726Y-2035112D01*
X5688547Y-2031049D01*
X5604650Y-1877171D01*
X5587820Y-1852406D01*
X5571353Y-1827433D01*
X5568427Y-1823870D01*
X5456238Y-1689217D01*
X5434893Y-1668168D01*
X5413915Y-1646895D01*
X5410353Y-1643969D01*
X5274148Y-1533672D01*
X5249157Y-1517194D01*
X5224408Y-1500374D01*
X5220345Y-1498196D01*
X5065311Y-1416456D01*
X5037612Y-1405153D01*
X5010054Y-1393455D01*
X5005646Y-1392107D01*
X4837685Y-1342036D01*
X4808340Y-1336332D01*
X4779013Y-1330205D01*
X4774426Y-1329739D01*
X4599940Y-1313245D01*
X4570014Y-1313350D01*
X4540087Y-1313036D01*
X4535497Y-1313470D01*
X4361131Y-1331181D01*
X4331799Y-1337095D01*
X4302374Y-1342602D01*
X4297956Y-1343920D01*
X4130351Y-1395163D01*
X4102783Y-1406639D01*
X4074935Y-1417777D01*
X4070857Y-1419927D01*
X3916396Y-1502748D01*
X3891523Y-1519400D01*
X3866426Y-1535697D01*
X3862844Y-1538599D01*
X3818285Y-1575200D01*
X329800Y-1575200D01*
X329800Y-524131D01*
X334745Y-473695D01*
X344708Y-440698D01*
X360893Y-410258D01*
X382676Y-383549D01*
X409233Y-361579D01*
X439561Y-345181D01*
X472486Y-334989D01*
X521852Y-329800D01*
X24875869Y-329800D01*
X24926305Y-334745D01*
G37*
%TD.AperFunction*%
%TD*%
M02*
