M48
; DRILL file {KiCad (5.1.7)-1} date 02/13/21 17:52:48
; FORMAT={-:-/ absolute / inch / decimal}
; #@! TF.CreationDate,2021-02-13T17:52:48+01:00
; #@! TF.GenerationSoftware,Kicad,Pcbnew,(5.1.7)-1
FMAT,2
INCH
T1C0.0100
T2C0.0120
T3C0.0217
T4C0.0315
T5C0.0335
T6C0.0276
T7C0.0315
%
G90
G05
T1
X0.11Y-0.54
X0.1575Y-0.595
X0.255Y-0.09
X0.255Y-0.115
X0.255Y-0.385
X0.255Y-0.41
X0.2671Y-0.247
X0.2714Y-0.5905
X0.2894Y-0.2365
X0.2983Y-0.5911
X0.345Y-0.195
X0.365Y-0.2175
X0.3676Y-0.5139
X0.395Y-0.335
X0.405Y-0.625
X0.41Y-0.4075
X0.41Y-0.7875
X0.41Y-0.815
X0.42Y-0.54
X0.4218Y-0.6982
X0.425Y-0.5
X0.435Y-0.4075
X0.4625Y-0.33
X0.505Y-0.4075
X0.51Y-0.215
X0.5115Y-0.185
X0.5125Y-0.285
X0.5239Y-0.7608
X0.53Y-0.4075
X0.545Y-0.505
X0.5453Y-0.2835
X0.5516Y-0.7888
X0.555Y-0.18
X0.555Y-0.4075
X0.556Y-0.926
X0.5564Y-0.6183
X0.565Y-0.155
X0.565Y-0.81
X0.57Y-0.9475
X0.575Y-0.635
X0.58Y-0.4075
X0.5903Y-0.2071
X0.605Y-0.4075
X0.615Y-0.81
X0.6612Y-0.81
X0.6825Y-0.1925
X0.685Y-0.22
X0.695Y-0.81
X0.7Y-0.6125
X0.7241Y-0.6266
X0.725Y-0.81
X0.729Y-0.77
X0.745Y-0.93
X0.75Y-0.505
X0.75Y-0.535
X0.755Y-0.58
X0.785Y-0.58
X0.835Y-0.6825
X0.835Y-0.7075
X0.84Y-0.6445
X0.845Y-0.515
X0.8475Y-0.74
X0.8975Y-0.7575
X0.9025Y-0.655
X0.9829Y-0.8546
T2
X0.0225Y-0.4725
X0.025Y-0.0275
X0.1375Y-0.8645
X0.1525Y-0.0275
X0.1525Y-0.4725
X0.184Y-0.704
X0.21Y-0.704
X0.22Y-0.636
X0.22Y-0.668
X0.225Y-0.0575
X0.225Y-0.445
X0.2837Y-0.3065
X0.2986Y-0.3214
X0.3175Y-0.3325
X0.34Y-0.1375
X0.34Y-0.16
X0.35Y-0.4075
X0.35Y-0.6
X0.355Y-0.655
X0.36Y-0.1275
X0.36Y-0.15
X0.36Y-0.1725
X0.36Y-0.285
X0.46Y-0.285
X0.48Y-0.185
X0.4806Y-0.1556
X0.4898Y-0.8702
X0.5Y-0.31
X0.5281Y-0.6678
X0.53Y-0.805
X0.5475Y-0.319
X0.585Y-0.7025
X0.5875Y-0.175
X0.64Y-0.615
X0.67Y-0.615
X0.685Y-0.135
X0.685Y-0.16
X0.7025Y-0.305
X0.705Y-0.125
X0.705Y-0.1475
X0.705Y-0.17
X0.735Y-0.3025
X0.745Y-0.32
X0.7575Y-0.3025
X0.765Y-0.41
X0.7683Y-0.9082
X0.77Y-0.445
X0.775Y-0.84
X0.785Y-0.12
X0.7975Y-0.365
X0.8Y-0.1375
X0.8475Y-0.8425
X0.8775Y-0.035
X0.8825Y-0.465
X0.915Y-0.92
X0.9275Y-0.04
X0.955Y-0.4575
X0.955Y-0.4975
T6
X0.8771Y-0.63
X0.9479Y-0.63
T7
X0.0996Y-0.8205
X0.2964Y-0.8205
T3
G00X0.0454Y-0.916
M15
G01X0.0454Y-0.9416
M16
G05
G00X0.3506Y-0.916
M15
G01X0.3506Y-0.9416
M16
G05
T4
G00X0.8106Y-0.0921
M15
G01X0.8579Y-0.0921
M16
G05
G00X0.8106Y-0.4079
M15
G01X0.8579Y-0.4079
M16
G05
T5
G00X0.0513Y-0.7683
M15
G01X0.0513Y-0.79
M16
G05
G00X0.3447Y-0.7683
M15
G01X0.3447Y-0.79
M16
G05
T0
M30
