%TF.GenerationSoftware,KiCad,Pcbnew,(5.1.7)-1*%
%TF.CreationDate,2021-02-13T17:52:43+01:00*%
%TF.ProjectId,twonkie,74776f6e-6b69-4652-9e6b-696361645f70,rev?*%
%TF.SameCoordinates,PX448d510PY20b3950*%
%TF.FileFunction,Copper,L4,Bot*%
%TF.FilePolarity,Positive*%
%FSLAX46Y46*%
G04 Gerber Fmt 4.6, Leading zero omitted, Abs format (unit mm)*
G04 Created by KiCad (PCBNEW (5.1.7)-1) date 2021-02-13 17:52:43*
%MOMM*%
%LPD*%
G01*
G04 APERTURE LIST*
%TA.AperFunction,SMDPad,CuDef*%
%ADD10R,0.650000X0.400000*%
%TD*%
%TA.AperFunction,SMDPad,CuDef*%
%ADD11R,1.000000X0.260000*%
%TD*%
%TA.AperFunction,SMDPad,CuDef*%
%ADD12R,1.250000X0.410000*%
%TD*%
%TA.AperFunction,ComponentPad*%
%ADD13O,2.500000X1.300000*%
%TD*%
%TA.AperFunction,SMDPad,CuDef*%
%ADD14R,2.200000X1.500000*%
%TD*%
%TA.AperFunction,ComponentPad*%
%ADD15O,1.450000X2.000000*%
%TD*%
%TA.AperFunction,ComponentPad*%
%ADD16O,1.150000X1.800000*%
%TD*%
%TA.AperFunction,SMDPad,CuDef*%
%ADD17R,4.000000X1.500000*%
%TD*%
%TA.AperFunction,SMDPad,CuDef*%
%ADD18R,1.000000X0.300000*%
%TD*%
%TA.AperFunction,SMDPad,CuDef*%
%ADD19R,1.000000X1.000000*%
%TD*%
%TA.AperFunction,SMDPad,CuDef*%
%ADD20C,1.000000*%
%TD*%
%TA.AperFunction,SMDPad,CuDef*%
%ADD21R,0.650000X1.560000*%
%TD*%
%TA.AperFunction,SMDPad,CuDef*%
%ADD22R,1.000000X0.800000*%
%TD*%
%TA.AperFunction,SMDPad,CuDef*%
%ADD23R,0.900000X1.200000*%
%TD*%
%TA.AperFunction,ViaPad*%
%ADD24C,0.609600*%
%TD*%
%TA.AperFunction,ViaPad*%
%ADD25C,0.508000*%
%TD*%
%TA.AperFunction,ViaPad*%
%ADD26C,0.457200*%
%TD*%
%TA.AperFunction,Conductor*%
%ADD27C,0.508000*%
%TD*%
%TA.AperFunction,Conductor*%
%ADD28C,0.304800*%
%TD*%
%TA.AperFunction,Conductor*%
%ADD29C,0.248920*%
%TD*%
%TA.AperFunction,Conductor*%
%ADD30C,0.203200*%
%TD*%
%TA.AperFunction,Conductor*%
%ADD31C,0.254000*%
%TD*%
%TA.AperFunction,Conductor*%
%ADD32C,0.100000*%
%TD*%
G04 APERTURE END LIST*
%TO.P,C8,2*%
%TO.N,GND*%
%TA.AperFunction,SMDPad,CuDef*%
G36*
G01*
X11465500Y-22869500D02*
X11775500Y-22869500D01*
G75*
G02*
X11930500Y-23024500I0J-155000D01*
G01*
X11930500Y-23449500D01*
G75*
G02*
X11775500Y-23604500I-155000J0D01*
G01*
X11465500Y-23604500D01*
G75*
G02*
X11310500Y-23449500I0J155000D01*
G01*
X11310500Y-23024500D01*
G75*
G02*
X11465500Y-22869500I155000J0D01*
G01*
G37*
%TD.AperFunction*%
%TO.P,C8,1*%
%TO.N,+3V3*%
%TA.AperFunction,SMDPad,CuDef*%
G36*
G01*
X11465500Y-21734500D02*
X11775500Y-21734500D01*
G75*
G02*
X11930500Y-21889500I0J-155000D01*
G01*
X11930500Y-22314500D01*
G75*
G02*
X11775500Y-22469500I-155000J0D01*
G01*
X11465500Y-22469500D01*
G75*
G02*
X11310500Y-22314500I0J155000D01*
G01*
X11310500Y-21889500D01*
G75*
G02*
X11465500Y-21734500I155000J0D01*
G01*
G37*
%TD.AperFunction*%
%TD*%
D10*
%TO.P,Q4,6*%
%TO.N,/BOOT*%
X24125000Y-18303000D03*
%TO.P,Q4,4*%
%TO.N,N/C*%
X24125000Y-17003000D03*
%TO.P,Q4,2*%
%TO.N,/USB_B_ID*%
X22225000Y-17653000D03*
%TO.P,Q4,5*%
%TO.N,N/C*%
X24125000Y-17653000D03*
%TO.P,Q4,3*%
X22225000Y-17003000D03*
%TO.P,Q4,1*%
%TO.N,GND*%
X22225000Y-18303000D03*
%TD*%
D11*
%TO.P,J1,B2*%
%TO.N,/TX2+*%
X21090000Y-8600000D03*
%TO.P,J1,B3*%
%TO.N,/TX2-*%
X21090000Y-8100000D03*
%TO.P,J1,B4*%
%TO.N,/VBUS_PLUG*%
X21090000Y-7600000D03*
%TO.P,J1,B5*%
%TO.N,/CC2_PLUG*%
X21090000Y-7100000D03*
%TO.P,J1,B6*%
%TO.N,N/C*%
X21090000Y-6600000D03*
%TO.P,J1,B7*%
X21090000Y-6100000D03*
%TO.P,J1,B8*%
%TO.N,/SBU2*%
X21090000Y-5600000D03*
%TO.P,J1,B9*%
%TO.N,/VBUS_PLUG*%
X21090000Y-5100000D03*
%TO.P,J1,B10*%
%TO.N,/RX1-*%
X21090000Y-4600000D03*
%TO.P,J1,B11*%
%TO.N,/RX1+*%
X21090000Y-4100000D03*
D12*
%TO.P,J1,B1*%
%TO.N,GND*%
X20965000Y-9175000D03*
%TO.P,J1,B12*%
X20965000Y-3525000D03*
D13*
%TO.P,J1,S1*%
X21190000Y-10360000D03*
%TO.P,J1,S2*%
X21190000Y-2340000D03*
D14*
%TO.P,J1,S5*%
X24290000Y-11300000D03*
%TO.P,J1,S6*%
X24290000Y-1400000D03*
%TD*%
D15*
%TO.P,J3,6*%
%TO.N,GND*%
X1304200Y-19790800D03*
X8754200Y-19790800D03*
D16*
X1154200Y-23590800D03*
X8904200Y-23590800D03*
%TD*%
%TO.P,U4,47*%
%TO.N,GND*%
%TA.AperFunction,SMDPad,CuDef*%
G36*
G01*
X12062500Y-15722500D02*
X12812500Y-15722500D01*
G75*
G02*
X12875000Y-15785000I0J-62500D01*
G01*
X12875000Y-15910000D01*
G75*
G02*
X12812500Y-15972500I-62500J0D01*
G01*
X12062500Y-15972500D01*
G75*
G02*
X12000000Y-15910000I0J62500D01*
G01*
X12000000Y-15785000D01*
G75*
G02*
X12062500Y-15722500I62500J0D01*
G01*
G37*
%TD.AperFunction*%
%TO.P,U4,46*%
%TO.N,/TX_CLK*%
%TA.AperFunction,SMDPad,CuDef*%
G36*
G01*
X12062500Y-16222500D02*
X12812500Y-16222500D01*
G75*
G02*
X12875000Y-16285000I0J-62500D01*
G01*
X12875000Y-16410000D01*
G75*
G02*
X12812500Y-16472500I-62500J0D01*
G01*
X12062500Y-16472500D01*
G75*
G02*
X12000000Y-16410000I0J62500D01*
G01*
X12000000Y-16285000D01*
G75*
G02*
X12062500Y-16222500I62500J0D01*
G01*
G37*
%TD.AperFunction*%
%TO.P,U4,44*%
%TO.N,/BOOT*%
%TA.AperFunction,SMDPad,CuDef*%
G36*
G01*
X12062500Y-17222500D02*
X12812500Y-17222500D01*
G75*
G02*
X12875000Y-17285000I0J-62500D01*
G01*
X12875000Y-17410000D01*
G75*
G02*
X12812500Y-17472500I-62500J0D01*
G01*
X12062500Y-17472500D01*
G75*
G02*
X12000000Y-17410000I0J62500D01*
G01*
X12000000Y-17285000D01*
G75*
G02*
X12062500Y-17222500I62500J0D01*
G01*
G37*
%TD.AperFunction*%
%TO.P,U4,43*%
%TO.N,/INA_SDA*%
%TA.AperFunction,SMDPad,CuDef*%
G36*
G01*
X12062500Y-17722500D02*
X12812500Y-17722500D01*
G75*
G02*
X12875000Y-17785000I0J-62500D01*
G01*
X12875000Y-17910000D01*
G75*
G02*
X12812500Y-17972500I-62500J0D01*
G01*
X12062500Y-17972500D01*
G75*
G02*
X12000000Y-17910000I0J62500D01*
G01*
X12000000Y-17785000D01*
G75*
G02*
X12062500Y-17722500I62500J0D01*
G01*
G37*
%TD.AperFunction*%
%TO.P,U4,42*%
%TO.N,/INA_SCL*%
%TA.AperFunction,SMDPad,CuDef*%
G36*
G01*
X12062500Y-18222500D02*
X12812500Y-18222500D01*
G75*
G02*
X12875000Y-18285000I0J-62500D01*
G01*
X12875000Y-18410000D01*
G75*
G02*
X12812500Y-18472500I-62500J0D01*
G01*
X12062500Y-18472500D01*
G75*
G02*
X12000000Y-18410000I0J62500D01*
G01*
X12000000Y-18285000D01*
G75*
G02*
X12062500Y-18222500I62500J0D01*
G01*
G37*
%TD.AperFunction*%
%TO.P,U4,48*%
%TO.N,+3V3*%
%TA.AperFunction,SMDPad,CuDef*%
G36*
G01*
X12062500Y-15222500D02*
X12812500Y-15222500D01*
G75*
G02*
X12875000Y-15285000I0J-62500D01*
G01*
X12875000Y-15410000D01*
G75*
G02*
X12812500Y-15472500I-62500J0D01*
G01*
X12062500Y-15472500D01*
G75*
G02*
X12000000Y-15410000I0J62500D01*
G01*
X12000000Y-15285000D01*
G75*
G02*
X12062500Y-15222500I62500J0D01*
G01*
G37*
%TD.AperFunction*%
%TO.P,U4,45*%
%TO.N,/CC1_RA*%
%TA.AperFunction,SMDPad,CuDef*%
G36*
G01*
X12062500Y-16722500D02*
X12812500Y-16722500D01*
G75*
G02*
X12875000Y-16785000I0J-62500D01*
G01*
X12875000Y-16910000D01*
G75*
G02*
X12812500Y-16972500I-62500J0D01*
G01*
X12062500Y-16972500D01*
G75*
G02*
X12000000Y-16910000I0J62500D01*
G01*
X12000000Y-16785000D01*
G75*
G02*
X12062500Y-16722500I62500J0D01*
G01*
G37*
%TD.AperFunction*%
%TO.P,U4,22*%
%TO.N,/LED_R_L*%
%TA.AperFunction,SMDPad,CuDef*%
G36*
G01*
X18937500Y-19722500D02*
X19687500Y-19722500D01*
G75*
G02*
X19750000Y-19785000I0J-62500D01*
G01*
X19750000Y-19910000D01*
G75*
G02*
X19687500Y-19972500I-62500J0D01*
G01*
X18937500Y-19972500D01*
G75*
G02*
X18875000Y-19910000I0J62500D01*
G01*
X18875000Y-19785000D01*
G75*
G02*
X18937500Y-19722500I62500J0D01*
G01*
G37*
%TD.AperFunction*%
%TO.P,U4,4*%
%TO.N,Net-(U4-Pad4)*%
%TA.AperFunction,SMDPad,CuDef*%
G36*
G01*
X14562500Y-14222500D02*
X14687500Y-14222500D01*
G75*
G02*
X14750000Y-14285000I0J-62500D01*
G01*
X14750000Y-15035000D01*
G75*
G02*
X14687500Y-15097500I-62500J0D01*
G01*
X14562500Y-15097500D01*
G75*
G02*
X14500000Y-15035000I0J62500D01*
G01*
X14500000Y-14285000D01*
G75*
G02*
X14562500Y-14222500I62500J0D01*
G01*
G37*
%TD.AperFunction*%
%TO.P,U4,9*%
%TO.N,Net-(C5-Pad1)*%
%TA.AperFunction,SMDPad,CuDef*%
G36*
G01*
X17062500Y-14222500D02*
X17187500Y-14222500D01*
G75*
G02*
X17250000Y-14285000I0J-62500D01*
G01*
X17250000Y-15035000D01*
G75*
G02*
X17187500Y-15097500I-62500J0D01*
G01*
X17062500Y-15097500D01*
G75*
G02*
X17000000Y-15035000I0J62500D01*
G01*
X17000000Y-14285000D01*
G75*
G02*
X17062500Y-14222500I62500J0D01*
G01*
G37*
%TD.AperFunction*%
%TO.P,U4,10*%
%TO.N,/CC1_EN*%
%TA.AperFunction,SMDPad,CuDef*%
G36*
G01*
X17562500Y-14222500D02*
X17687500Y-14222500D01*
G75*
G02*
X17750000Y-14285000I0J-62500D01*
G01*
X17750000Y-15035000D01*
G75*
G02*
X17687500Y-15097500I-62500J0D01*
G01*
X17562500Y-15097500D01*
G75*
G02*
X17500000Y-15035000I0J62500D01*
G01*
X17500000Y-14285000D01*
G75*
G02*
X17562500Y-14222500I62500J0D01*
G01*
G37*
%TD.AperFunction*%
%TO.P,U4,7*%
%TO.N,/NRST*%
%TA.AperFunction,SMDPad,CuDef*%
G36*
G01*
X16062500Y-14222500D02*
X16187500Y-14222500D01*
G75*
G02*
X16250000Y-14285000I0J-62500D01*
G01*
X16250000Y-15035000D01*
G75*
G02*
X16187500Y-15097500I-62500J0D01*
G01*
X16062500Y-15097500D01*
G75*
G02*
X16000000Y-15035000I0J62500D01*
G01*
X16000000Y-14285000D01*
G75*
G02*
X16062500Y-14222500I62500J0D01*
G01*
G37*
%TD.AperFunction*%
%TO.P,U4,1*%
%TO.N,+3V3*%
%TA.AperFunction,SMDPad,CuDef*%
G36*
G01*
X13062500Y-14222500D02*
X13187500Y-14222500D01*
G75*
G02*
X13250000Y-14285000I0J-62500D01*
G01*
X13250000Y-15035000D01*
G75*
G02*
X13187500Y-15097500I-62500J0D01*
G01*
X13062500Y-15097500D01*
G75*
G02*
X13000000Y-15035000I0J62500D01*
G01*
X13000000Y-14285000D01*
G75*
G02*
X13062500Y-14222500I62500J0D01*
G01*
G37*
%TD.AperFunction*%
%TO.P,U4,29*%
%TO.N,/CC2_RA*%
%TA.AperFunction,SMDPad,CuDef*%
G36*
G01*
X16562500Y-21097500D02*
X16687500Y-21097500D01*
G75*
G02*
X16750000Y-21160000I0J-62500D01*
G01*
X16750000Y-21910000D01*
G75*
G02*
X16687500Y-21972500I-62500J0D01*
G01*
X16562500Y-21972500D01*
G75*
G02*
X16500000Y-21910000I0J62500D01*
G01*
X16500000Y-21160000D01*
G75*
G02*
X16562500Y-21097500I62500J0D01*
G01*
G37*
%TD.AperFunction*%
%TO.P,U4,28*%
%TO.N,/CC2_RP1A5*%
%TA.AperFunction,SMDPad,CuDef*%
G36*
G01*
X17062500Y-21097500D02*
X17187500Y-21097500D01*
G75*
G02*
X17250000Y-21160000I0J-62500D01*
G01*
X17250000Y-21910000D01*
G75*
G02*
X17187500Y-21972500I-62500J0D01*
G01*
X17062500Y-21972500D01*
G75*
G02*
X17000000Y-21910000I0J62500D01*
G01*
X17000000Y-21160000D01*
G75*
G02*
X17062500Y-21097500I62500J0D01*
G01*
G37*
%TD.AperFunction*%
%TO.P,U4,8*%
%TO.N,GND*%
%TA.AperFunction,SMDPad,CuDef*%
G36*
G01*
X16562500Y-14222500D02*
X16687500Y-14222500D01*
G75*
G02*
X16750000Y-14285000I0J-62500D01*
G01*
X16750000Y-15035000D01*
G75*
G02*
X16687500Y-15097500I-62500J0D01*
G01*
X16562500Y-15097500D01*
G75*
G02*
X16500000Y-15035000I0J62500D01*
G01*
X16500000Y-14285000D01*
G75*
G02*
X16562500Y-14222500I62500J0D01*
G01*
G37*
%TD.AperFunction*%
%TO.P,U4,30*%
%TO.N,/UART_TX*%
%TA.AperFunction,SMDPad,CuDef*%
G36*
G01*
X16062500Y-21097500D02*
X16187500Y-21097500D01*
G75*
G02*
X16250000Y-21160000I0J-62500D01*
G01*
X16250000Y-21910000D01*
G75*
G02*
X16187500Y-21972500I-62500J0D01*
G01*
X16062500Y-21972500D01*
G75*
G02*
X16000000Y-21910000I0J62500D01*
G01*
X16000000Y-21160000D01*
G75*
G02*
X16062500Y-21097500I62500J0D01*
G01*
G37*
%TD.AperFunction*%
%TO.P,U4,31*%
%TO.N,/UART_RX*%
%TA.AperFunction,SMDPad,CuDef*%
G36*
G01*
X15562500Y-21097500D02*
X15687500Y-21097500D01*
G75*
G02*
X15750000Y-21160000I0J-62500D01*
G01*
X15750000Y-21910000D01*
G75*
G02*
X15687500Y-21972500I-62500J0D01*
G01*
X15562500Y-21972500D01*
G75*
G02*
X15500000Y-21910000I0J62500D01*
G01*
X15500000Y-21160000D01*
G75*
G02*
X15562500Y-21097500I62500J0D01*
G01*
G37*
%TD.AperFunction*%
%TO.P,U4,17*%
%TO.N,/VCONN_ALERT_L*%
%TA.AperFunction,SMDPad,CuDef*%
G36*
G01*
X18937500Y-17222500D02*
X19687500Y-17222500D01*
G75*
G02*
X19750000Y-17285000I0J-62500D01*
G01*
X19750000Y-17410000D01*
G75*
G02*
X19687500Y-17472500I-62500J0D01*
G01*
X18937500Y-17472500D01*
G75*
G02*
X18875000Y-17410000I0J62500D01*
G01*
X18875000Y-17285000D01*
G75*
G02*
X18937500Y-17222500I62500J0D01*
G01*
G37*
%TD.AperFunction*%
%TO.P,U4,16*%
%TO.N,/CC2_TX_DATA*%
%TA.AperFunction,SMDPad,CuDef*%
G36*
G01*
X18937500Y-16722500D02*
X19687500Y-16722500D01*
G75*
G02*
X19750000Y-16785000I0J-62500D01*
G01*
X19750000Y-16910000D01*
G75*
G02*
X19687500Y-16972500I-62500J0D01*
G01*
X18937500Y-16972500D01*
G75*
G02*
X18875000Y-16910000I0J62500D01*
G01*
X18875000Y-16785000D01*
G75*
G02*
X18937500Y-16722500I62500J0D01*
G01*
G37*
%TD.AperFunction*%
%TO.P,U4,15*%
%TO.N,/TX_CLK*%
%TA.AperFunction,SMDPad,CuDef*%
G36*
G01*
X18937500Y-16222500D02*
X19687500Y-16222500D01*
G75*
G02*
X19750000Y-16285000I0J-62500D01*
G01*
X19750000Y-16410000D01*
G75*
G02*
X19687500Y-16472500I-62500J0D01*
G01*
X18937500Y-16472500D01*
G75*
G02*
X18875000Y-16410000I0J62500D01*
G01*
X18875000Y-16285000D01*
G75*
G02*
X18937500Y-16222500I62500J0D01*
G01*
G37*
%TD.AperFunction*%
%TO.P,U4,18*%
%TO.N,Net-(U4-Pad18)*%
%TA.AperFunction,SMDPad,CuDef*%
G36*
G01*
X18937500Y-17722500D02*
X19687500Y-17722500D01*
G75*
G02*
X19750000Y-17785000I0J-62500D01*
G01*
X19750000Y-17910000D01*
G75*
G02*
X19687500Y-17972500I-62500J0D01*
G01*
X18937500Y-17972500D01*
G75*
G02*
X18875000Y-17910000I0J62500D01*
G01*
X18875000Y-17785000D01*
G75*
G02*
X18937500Y-17722500I62500J0D01*
G01*
G37*
%TD.AperFunction*%
%TO.P,U4,21*%
%TO.N,/LED_G_L*%
%TA.AperFunction,SMDPad,CuDef*%
G36*
G01*
X18937500Y-19222500D02*
X19687500Y-19222500D01*
G75*
G02*
X19750000Y-19285000I0J-62500D01*
G01*
X19750000Y-19410000D01*
G75*
G02*
X19687500Y-19472500I-62500J0D01*
G01*
X18937500Y-19472500D01*
G75*
G02*
X18875000Y-19410000I0J62500D01*
G01*
X18875000Y-19285000D01*
G75*
G02*
X18937500Y-19222500I62500J0D01*
G01*
G37*
%TD.AperFunction*%
%TO.P,U4,3*%
%TO.N,/CC1_RP3A0*%
%TA.AperFunction,SMDPad,CuDef*%
G36*
G01*
X14062500Y-14222500D02*
X14187500Y-14222500D01*
G75*
G02*
X14250000Y-14285000I0J-62500D01*
G01*
X14250000Y-15035000D01*
G75*
G02*
X14187500Y-15097500I-62500J0D01*
G01*
X14062500Y-15097500D01*
G75*
G02*
X14000000Y-15035000I0J62500D01*
G01*
X14000000Y-14285000D01*
G75*
G02*
X14062500Y-14222500I62500J0D01*
G01*
G37*
%TD.AperFunction*%
%TO.P,U4,25*%
%TO.N,/CC2_RPUSB*%
%TA.AperFunction,SMDPad,CuDef*%
G36*
G01*
X18562500Y-21097500D02*
X18687500Y-21097500D01*
G75*
G02*
X18750000Y-21160000I0J-62500D01*
G01*
X18750000Y-21910000D01*
G75*
G02*
X18687500Y-21972500I-62500J0D01*
G01*
X18562500Y-21972500D01*
G75*
G02*
X18500000Y-21910000I0J62500D01*
G01*
X18500000Y-21160000D01*
G75*
G02*
X18562500Y-21097500I62500J0D01*
G01*
G37*
%TD.AperFunction*%
%TO.P,U4,11*%
%TO.N,/CC1_BUF*%
%TA.AperFunction,SMDPad,CuDef*%
G36*
G01*
X18062500Y-14222500D02*
X18187500Y-14222500D01*
G75*
G02*
X18250000Y-14285000I0J-62500D01*
G01*
X18250000Y-15035000D01*
G75*
G02*
X18187500Y-15097500I-62500J0D01*
G01*
X18062500Y-15097500D01*
G75*
G02*
X18000000Y-15035000I0J62500D01*
G01*
X18000000Y-14285000D01*
G75*
G02*
X18062500Y-14222500I62500J0D01*
G01*
G37*
%TD.AperFunction*%
%TO.P,U4,23*%
%TO.N,GND*%
%TA.AperFunction,SMDPad,CuDef*%
G36*
G01*
X18937500Y-20222500D02*
X19687500Y-20222500D01*
G75*
G02*
X19750000Y-20285000I0J-62500D01*
G01*
X19750000Y-20410000D01*
G75*
G02*
X19687500Y-20472500I-62500J0D01*
G01*
X18937500Y-20472500D01*
G75*
G02*
X18875000Y-20410000I0J62500D01*
G01*
X18875000Y-20285000D01*
G75*
G02*
X18937500Y-20222500I62500J0D01*
G01*
G37*
%TD.AperFunction*%
%TO.P,U4,36*%
%TO.N,+3V3*%
%TA.AperFunction,SMDPad,CuDef*%
G36*
G01*
X13062500Y-21097500D02*
X13187500Y-21097500D01*
G75*
G02*
X13250000Y-21160000I0J-62500D01*
G01*
X13250000Y-21910000D01*
G75*
G02*
X13187500Y-21972500I-62500J0D01*
G01*
X13062500Y-21972500D01*
G75*
G02*
X13000000Y-21910000I0J62500D01*
G01*
X13000000Y-21160000D01*
G75*
G02*
X13062500Y-21097500I62500J0D01*
G01*
G37*
%TD.AperFunction*%
%TO.P,U4,40*%
%TO.N,/CC1_TX_DATA*%
%TA.AperFunction,SMDPad,CuDef*%
G36*
G01*
X12062500Y-19222500D02*
X12812500Y-19222500D01*
G75*
G02*
X12875000Y-19285000I0J-62500D01*
G01*
X12875000Y-19410000D01*
G75*
G02*
X12812500Y-19472500I-62500J0D01*
G01*
X12062500Y-19472500D01*
G75*
G02*
X12000000Y-19410000I0J62500D01*
G01*
X12000000Y-19285000D01*
G75*
G02*
X12062500Y-19222500I62500J0D01*
G01*
G37*
%TD.AperFunction*%
%TO.P,U4,34*%
%TO.N,/CC2_RP3A0*%
%TA.AperFunction,SMDPad,CuDef*%
G36*
G01*
X14062500Y-21097500D02*
X14187500Y-21097500D01*
G75*
G02*
X14250000Y-21160000I0J-62500D01*
G01*
X14250000Y-21910000D01*
G75*
G02*
X14187500Y-21972500I-62500J0D01*
G01*
X14062500Y-21972500D01*
G75*
G02*
X14000000Y-21910000I0J62500D01*
G01*
X14000000Y-21160000D01*
G75*
G02*
X14062500Y-21097500I62500J0D01*
G01*
G37*
%TD.AperFunction*%
%TO.P,U4,27*%
%TO.N,/LED_B_L*%
%TA.AperFunction,SMDPad,CuDef*%
G36*
G01*
X17562500Y-21097500D02*
X17687500Y-21097500D01*
G75*
G02*
X17750000Y-21160000I0J-62500D01*
G01*
X17750000Y-21910000D01*
G75*
G02*
X17687500Y-21972500I-62500J0D01*
G01*
X17562500Y-21972500D01*
G75*
G02*
X17500000Y-21910000I0J62500D01*
G01*
X17500000Y-21160000D01*
G75*
G02*
X17562500Y-21097500I62500J0D01*
G01*
G37*
%TD.AperFunction*%
%TO.P,U4,13*%
%TO.N,/CC2_BUF*%
%TA.AperFunction,SMDPad,CuDef*%
G36*
G01*
X18937500Y-15222500D02*
X19687500Y-15222500D01*
G75*
G02*
X19750000Y-15285000I0J-62500D01*
G01*
X19750000Y-15410000D01*
G75*
G02*
X19687500Y-15472500I-62500J0D01*
G01*
X18937500Y-15472500D01*
G75*
G02*
X18875000Y-15410000I0J62500D01*
G01*
X18875000Y-15285000D01*
G75*
G02*
X18937500Y-15222500I62500J0D01*
G01*
G37*
%TD.AperFunction*%
%TO.P,U4,5*%
%TO.N,/OSC_IN*%
%TA.AperFunction,SMDPad,CuDef*%
G36*
G01*
X15062500Y-14222500D02*
X15187500Y-14222500D01*
G75*
G02*
X15250000Y-14285000I0J-62500D01*
G01*
X15250000Y-15035000D01*
G75*
G02*
X15187500Y-15097500I-62500J0D01*
G01*
X15062500Y-15097500D01*
G75*
G02*
X15000000Y-15035000I0J62500D01*
G01*
X15000000Y-14285000D01*
G75*
G02*
X15062500Y-14222500I62500J0D01*
G01*
G37*
%TD.AperFunction*%
%TO.P,U4,39*%
%TO.N,/CC1_RD*%
%TA.AperFunction,SMDPad,CuDef*%
G36*
G01*
X12062500Y-19722500D02*
X12812500Y-19722500D01*
G75*
G02*
X12875000Y-19785000I0J-62500D01*
G01*
X12875000Y-19910000D01*
G75*
G02*
X12812500Y-19972500I-62500J0D01*
G01*
X12062500Y-19972500D01*
G75*
G02*
X12000000Y-19910000I0J62500D01*
G01*
X12000000Y-19785000D01*
G75*
G02*
X12062500Y-19722500I62500J0D01*
G01*
G37*
%TD.AperFunction*%
%TO.P,U4,33*%
%TO.N,/USB_B_D+*%
%TA.AperFunction,SMDPad,CuDef*%
G36*
G01*
X14562500Y-21097500D02*
X14687500Y-21097500D01*
G75*
G02*
X14750000Y-21160000I0J-62500D01*
G01*
X14750000Y-21910000D01*
G75*
G02*
X14687500Y-21972500I-62500J0D01*
G01*
X14562500Y-21972500D01*
G75*
G02*
X14500000Y-21910000I0J62500D01*
G01*
X14500000Y-21160000D01*
G75*
G02*
X14562500Y-21097500I62500J0D01*
G01*
G37*
%TD.AperFunction*%
%TO.P,U4,24*%
%TO.N,+3V3*%
%TA.AperFunction,SMDPad,CuDef*%
G36*
G01*
X18937500Y-20722500D02*
X19687500Y-20722500D01*
G75*
G02*
X19750000Y-20785000I0J-62500D01*
G01*
X19750000Y-20910000D01*
G75*
G02*
X19687500Y-20972500I-62500J0D01*
G01*
X18937500Y-20972500D01*
G75*
G02*
X18875000Y-20910000I0J62500D01*
G01*
X18875000Y-20785000D01*
G75*
G02*
X18937500Y-20722500I62500J0D01*
G01*
G37*
%TD.AperFunction*%
%TO.P,U4,6*%
%TO.N,/OSC_OUT*%
%TA.AperFunction,SMDPad,CuDef*%
G36*
G01*
X15562500Y-14222500D02*
X15687500Y-14222500D01*
G75*
G02*
X15750000Y-14285000I0J-62500D01*
G01*
X15750000Y-15035000D01*
G75*
G02*
X15687500Y-15097500I-62500J0D01*
G01*
X15562500Y-15097500D01*
G75*
G02*
X15500000Y-15035000I0J62500D01*
G01*
X15500000Y-14285000D01*
G75*
G02*
X15562500Y-14222500I62500J0D01*
G01*
G37*
%TD.AperFunction*%
%TO.P,U4,37*%
%TO.N,/CC1_TX_EN*%
%TA.AperFunction,SMDPad,CuDef*%
G36*
G01*
X12062500Y-20722500D02*
X12812500Y-20722500D01*
G75*
G02*
X12875000Y-20785000I0J-62500D01*
G01*
X12875000Y-20910000D01*
G75*
G02*
X12812500Y-20972500I-62500J0D01*
G01*
X12062500Y-20972500D01*
G75*
G02*
X12000000Y-20910000I0J62500D01*
G01*
X12000000Y-20785000D01*
G75*
G02*
X12062500Y-20722500I62500J0D01*
G01*
G37*
%TD.AperFunction*%
%TO.P,U4,19*%
%TO.N,Net-(U4-Pad19)*%
%TA.AperFunction,SMDPad,CuDef*%
G36*
G01*
X18937500Y-18222500D02*
X19687500Y-18222500D01*
G75*
G02*
X19750000Y-18285000I0J-62500D01*
G01*
X19750000Y-18410000D01*
G75*
G02*
X19687500Y-18472500I-62500J0D01*
G01*
X18937500Y-18472500D01*
G75*
G02*
X18875000Y-18410000I0J62500D01*
G01*
X18875000Y-18285000D01*
G75*
G02*
X18937500Y-18222500I62500J0D01*
G01*
G37*
%TD.AperFunction*%
%TO.P,U4,14*%
%TO.N,/DAC*%
%TA.AperFunction,SMDPad,CuDef*%
G36*
G01*
X18937500Y-15722500D02*
X19687500Y-15722500D01*
G75*
G02*
X19750000Y-15785000I0J-62500D01*
G01*
X19750000Y-15910000D01*
G75*
G02*
X19687500Y-15972500I-62500J0D01*
G01*
X18937500Y-15972500D01*
G75*
G02*
X18875000Y-15910000I0J62500D01*
G01*
X18875000Y-15785000D01*
G75*
G02*
X18937500Y-15722500I62500J0D01*
G01*
G37*
%TD.AperFunction*%
%TO.P,U4,2*%
%TO.N,/CC2_TX_EN*%
%TA.AperFunction,SMDPad,CuDef*%
G36*
G01*
X13562500Y-14222500D02*
X13687500Y-14222500D01*
G75*
G02*
X13750000Y-14285000I0J-62500D01*
G01*
X13750000Y-15035000D01*
G75*
G02*
X13687500Y-15097500I-62500J0D01*
G01*
X13562500Y-15097500D01*
G75*
G02*
X13500000Y-15035000I0J62500D01*
G01*
X13500000Y-14285000D01*
G75*
G02*
X13562500Y-14222500I62500J0D01*
G01*
G37*
%TD.AperFunction*%
%TO.P,U4,35*%
%TO.N,GND*%
%TA.AperFunction,SMDPad,CuDef*%
G36*
G01*
X13562500Y-21097500D02*
X13687500Y-21097500D01*
G75*
G02*
X13750000Y-21160000I0J-62500D01*
G01*
X13750000Y-21910000D01*
G75*
G02*
X13687500Y-21972500I-62500J0D01*
G01*
X13562500Y-21972500D01*
G75*
G02*
X13500000Y-21910000I0J62500D01*
G01*
X13500000Y-21160000D01*
G75*
G02*
X13562500Y-21097500I62500J0D01*
G01*
G37*
%TD.AperFunction*%
%TO.P,U4,12*%
%TO.N,/CC2_EN*%
%TA.AperFunction,SMDPad,CuDef*%
G36*
G01*
X18562500Y-14222500D02*
X18687500Y-14222500D01*
G75*
G02*
X18750000Y-14285000I0J-62500D01*
G01*
X18750000Y-15035000D01*
G75*
G02*
X18687500Y-15097500I-62500J0D01*
G01*
X18562500Y-15097500D01*
G75*
G02*
X18500000Y-15035000I0J62500D01*
G01*
X18500000Y-14285000D01*
G75*
G02*
X18562500Y-14222500I62500J0D01*
G01*
G37*
%TD.AperFunction*%
%TO.P,U4,41*%
%TO.N,/CC1_RP1A5*%
%TA.AperFunction,SMDPad,CuDef*%
G36*
G01*
X12062500Y-18722500D02*
X12812500Y-18722500D01*
G75*
G02*
X12875000Y-18785000I0J-62500D01*
G01*
X12875000Y-18910000D01*
G75*
G02*
X12812500Y-18972500I-62500J0D01*
G01*
X12062500Y-18972500D01*
G75*
G02*
X12000000Y-18910000I0J62500D01*
G01*
X12000000Y-18785000D01*
G75*
G02*
X12062500Y-18722500I62500J0D01*
G01*
G37*
%TD.AperFunction*%
%TO.P,U4,20*%
%TO.N,/VBUS_ALERT_L*%
%TA.AperFunction,SMDPad,CuDef*%
G36*
G01*
X18937500Y-18722500D02*
X19687500Y-18722500D01*
G75*
G02*
X19750000Y-18785000I0J-62500D01*
G01*
X19750000Y-18910000D01*
G75*
G02*
X19687500Y-18972500I-62500J0D01*
G01*
X18937500Y-18972500D01*
G75*
G02*
X18875000Y-18910000I0J62500D01*
G01*
X18875000Y-18785000D01*
G75*
G02*
X18937500Y-18722500I62500J0D01*
G01*
G37*
%TD.AperFunction*%
%TO.P,U4,26*%
%TO.N,/CC2_RD*%
%TA.AperFunction,SMDPad,CuDef*%
G36*
G01*
X18062500Y-21097500D02*
X18187500Y-21097500D01*
G75*
G02*
X18250000Y-21160000I0J-62500D01*
G01*
X18250000Y-21910000D01*
G75*
G02*
X18187500Y-21972500I-62500J0D01*
G01*
X18062500Y-21972500D01*
G75*
G02*
X18000000Y-21910000I0J62500D01*
G01*
X18000000Y-21160000D01*
G75*
G02*
X18062500Y-21097500I62500J0D01*
G01*
G37*
%TD.AperFunction*%
%TO.P,U4,38*%
%TO.N,/CC1_RPUSB*%
%TA.AperFunction,SMDPad,CuDef*%
G36*
G01*
X12062500Y-20222500D02*
X12812500Y-20222500D01*
G75*
G02*
X12875000Y-20285000I0J-62500D01*
G01*
X12875000Y-20410000D01*
G75*
G02*
X12812500Y-20472500I-62500J0D01*
G01*
X12062500Y-20472500D01*
G75*
G02*
X12000000Y-20410000I0J62500D01*
G01*
X12000000Y-20285000D01*
G75*
G02*
X12062500Y-20222500I62500J0D01*
G01*
G37*
%TD.AperFunction*%
%TO.P,U4,32*%
%TO.N,/USB_B_D-*%
%TA.AperFunction,SMDPad,CuDef*%
G36*
G01*
X15062500Y-21097500D02*
X15187500Y-21097500D01*
G75*
G02*
X15250000Y-21160000I0J-62500D01*
G01*
X15250000Y-21910000D01*
G75*
G02*
X15187500Y-21972500I-62500J0D01*
G01*
X15062500Y-21972500D01*
G75*
G02*
X15000000Y-21910000I0J62500D01*
G01*
X15000000Y-21160000D01*
G75*
G02*
X15062500Y-21097500I62500J0D01*
G01*
G37*
%TD.AperFunction*%
%TO.P,U4,1*%
%TO.N,+3V3*%
%TA.AperFunction,SMDPad,CuDef*%
G36*
G01*
X13050000Y-13197500D02*
X13200000Y-13197500D01*
G75*
G02*
X13275000Y-13272500I0J-75000D01*
G01*
X13275000Y-14597500D01*
G75*
G02*
X13200000Y-14672500I-75000J0D01*
G01*
X13050000Y-14672500D01*
G75*
G02*
X12975000Y-14597500I0J75000D01*
G01*
X12975000Y-13272500D01*
G75*
G02*
X13050000Y-13197500I75000J0D01*
G01*
G37*
%TD.AperFunction*%
%TO.P,U4,2*%
%TO.N,/CC2_TX_EN*%
%TA.AperFunction,SMDPad,CuDef*%
G36*
G01*
X13550000Y-13197500D02*
X13700000Y-13197500D01*
G75*
G02*
X13775000Y-13272500I0J-75000D01*
G01*
X13775000Y-14597500D01*
G75*
G02*
X13700000Y-14672500I-75000J0D01*
G01*
X13550000Y-14672500D01*
G75*
G02*
X13475000Y-14597500I0J75000D01*
G01*
X13475000Y-13272500D01*
G75*
G02*
X13550000Y-13197500I75000J0D01*
G01*
G37*
%TD.AperFunction*%
%TO.P,U4,3*%
%TO.N,/CC1_RP3A0*%
%TA.AperFunction,SMDPad,CuDef*%
G36*
G01*
X14050000Y-13197500D02*
X14200000Y-13197500D01*
G75*
G02*
X14275000Y-13272500I0J-75000D01*
G01*
X14275000Y-14597500D01*
G75*
G02*
X14200000Y-14672500I-75000J0D01*
G01*
X14050000Y-14672500D01*
G75*
G02*
X13975000Y-14597500I0J75000D01*
G01*
X13975000Y-13272500D01*
G75*
G02*
X14050000Y-13197500I75000J0D01*
G01*
G37*
%TD.AperFunction*%
%TO.P,U4,4*%
%TO.N,Net-(U4-Pad4)*%
%TA.AperFunction,SMDPad,CuDef*%
G36*
G01*
X14550000Y-13197500D02*
X14700000Y-13197500D01*
G75*
G02*
X14775000Y-13272500I0J-75000D01*
G01*
X14775000Y-14597500D01*
G75*
G02*
X14700000Y-14672500I-75000J0D01*
G01*
X14550000Y-14672500D01*
G75*
G02*
X14475000Y-14597500I0J75000D01*
G01*
X14475000Y-13272500D01*
G75*
G02*
X14550000Y-13197500I75000J0D01*
G01*
G37*
%TD.AperFunction*%
%TO.P,U4,5*%
%TO.N,/OSC_IN*%
%TA.AperFunction,SMDPad,CuDef*%
G36*
G01*
X15050000Y-13197500D02*
X15200000Y-13197500D01*
G75*
G02*
X15275000Y-13272500I0J-75000D01*
G01*
X15275000Y-14597500D01*
G75*
G02*
X15200000Y-14672500I-75000J0D01*
G01*
X15050000Y-14672500D01*
G75*
G02*
X14975000Y-14597500I0J75000D01*
G01*
X14975000Y-13272500D01*
G75*
G02*
X15050000Y-13197500I75000J0D01*
G01*
G37*
%TD.AperFunction*%
%TO.P,U4,6*%
%TO.N,/OSC_OUT*%
%TA.AperFunction,SMDPad,CuDef*%
G36*
G01*
X15550000Y-13197500D02*
X15700000Y-13197500D01*
G75*
G02*
X15775000Y-13272500I0J-75000D01*
G01*
X15775000Y-14597500D01*
G75*
G02*
X15700000Y-14672500I-75000J0D01*
G01*
X15550000Y-14672500D01*
G75*
G02*
X15475000Y-14597500I0J75000D01*
G01*
X15475000Y-13272500D01*
G75*
G02*
X15550000Y-13197500I75000J0D01*
G01*
G37*
%TD.AperFunction*%
%TO.P,U4,7*%
%TO.N,/NRST*%
%TA.AperFunction,SMDPad,CuDef*%
G36*
G01*
X16050000Y-13197500D02*
X16200000Y-13197500D01*
G75*
G02*
X16275000Y-13272500I0J-75000D01*
G01*
X16275000Y-14597500D01*
G75*
G02*
X16200000Y-14672500I-75000J0D01*
G01*
X16050000Y-14672500D01*
G75*
G02*
X15975000Y-14597500I0J75000D01*
G01*
X15975000Y-13272500D01*
G75*
G02*
X16050000Y-13197500I75000J0D01*
G01*
G37*
%TD.AperFunction*%
%TO.P,U4,8*%
%TO.N,GND*%
%TA.AperFunction,SMDPad,CuDef*%
G36*
G01*
X16550000Y-13197500D02*
X16700000Y-13197500D01*
G75*
G02*
X16775000Y-13272500I0J-75000D01*
G01*
X16775000Y-14597500D01*
G75*
G02*
X16700000Y-14672500I-75000J0D01*
G01*
X16550000Y-14672500D01*
G75*
G02*
X16475000Y-14597500I0J75000D01*
G01*
X16475000Y-13272500D01*
G75*
G02*
X16550000Y-13197500I75000J0D01*
G01*
G37*
%TD.AperFunction*%
%TO.P,U4,9*%
%TO.N,Net-(C5-Pad1)*%
%TA.AperFunction,SMDPad,CuDef*%
G36*
G01*
X17050000Y-13197500D02*
X17200000Y-13197500D01*
G75*
G02*
X17275000Y-13272500I0J-75000D01*
G01*
X17275000Y-14597500D01*
G75*
G02*
X17200000Y-14672500I-75000J0D01*
G01*
X17050000Y-14672500D01*
G75*
G02*
X16975000Y-14597500I0J75000D01*
G01*
X16975000Y-13272500D01*
G75*
G02*
X17050000Y-13197500I75000J0D01*
G01*
G37*
%TD.AperFunction*%
%TO.P,U4,10*%
%TO.N,/CC1_EN*%
%TA.AperFunction,SMDPad,CuDef*%
G36*
G01*
X17550000Y-13197500D02*
X17700000Y-13197500D01*
G75*
G02*
X17775000Y-13272500I0J-75000D01*
G01*
X17775000Y-14597500D01*
G75*
G02*
X17700000Y-14672500I-75000J0D01*
G01*
X17550000Y-14672500D01*
G75*
G02*
X17475000Y-14597500I0J75000D01*
G01*
X17475000Y-13272500D01*
G75*
G02*
X17550000Y-13197500I75000J0D01*
G01*
G37*
%TD.AperFunction*%
%TO.P,U4,11*%
%TO.N,/CC1_BUF*%
%TA.AperFunction,SMDPad,CuDef*%
G36*
G01*
X18050000Y-13197500D02*
X18200000Y-13197500D01*
G75*
G02*
X18275000Y-13272500I0J-75000D01*
G01*
X18275000Y-14597500D01*
G75*
G02*
X18200000Y-14672500I-75000J0D01*
G01*
X18050000Y-14672500D01*
G75*
G02*
X17975000Y-14597500I0J75000D01*
G01*
X17975000Y-13272500D01*
G75*
G02*
X18050000Y-13197500I75000J0D01*
G01*
G37*
%TD.AperFunction*%
%TO.P,U4,12*%
%TO.N,/CC2_EN*%
%TA.AperFunction,SMDPad,CuDef*%
G36*
G01*
X18550000Y-13197500D02*
X18700000Y-13197500D01*
G75*
G02*
X18775000Y-13272500I0J-75000D01*
G01*
X18775000Y-14597500D01*
G75*
G02*
X18700000Y-14672500I-75000J0D01*
G01*
X18550000Y-14672500D01*
G75*
G02*
X18475000Y-14597500I0J75000D01*
G01*
X18475000Y-13272500D01*
G75*
G02*
X18550000Y-13197500I75000J0D01*
G01*
G37*
%TD.AperFunction*%
%TO.P,U4,13*%
%TO.N,/CC2_BUF*%
%TA.AperFunction,SMDPad,CuDef*%
G36*
G01*
X19375000Y-15197500D02*
X20700000Y-15197500D01*
G75*
G02*
X20775000Y-15272500I0J-75000D01*
G01*
X20775000Y-15422500D01*
G75*
G02*
X20700000Y-15497500I-75000J0D01*
G01*
X19375000Y-15497500D01*
G75*
G02*
X19300000Y-15422500I0J75000D01*
G01*
X19300000Y-15272500D01*
G75*
G02*
X19375000Y-15197500I75000J0D01*
G01*
G37*
%TD.AperFunction*%
%TO.P,U4,14*%
%TO.N,/DAC*%
%TA.AperFunction,SMDPad,CuDef*%
G36*
G01*
X19375000Y-15697500D02*
X20700000Y-15697500D01*
G75*
G02*
X20775000Y-15772500I0J-75000D01*
G01*
X20775000Y-15922500D01*
G75*
G02*
X20700000Y-15997500I-75000J0D01*
G01*
X19375000Y-15997500D01*
G75*
G02*
X19300000Y-15922500I0J75000D01*
G01*
X19300000Y-15772500D01*
G75*
G02*
X19375000Y-15697500I75000J0D01*
G01*
G37*
%TD.AperFunction*%
%TO.P,U4,15*%
%TO.N,/TX_CLK*%
%TA.AperFunction,SMDPad,CuDef*%
G36*
G01*
X19375000Y-16197500D02*
X20700000Y-16197500D01*
G75*
G02*
X20775000Y-16272500I0J-75000D01*
G01*
X20775000Y-16422500D01*
G75*
G02*
X20700000Y-16497500I-75000J0D01*
G01*
X19375000Y-16497500D01*
G75*
G02*
X19300000Y-16422500I0J75000D01*
G01*
X19300000Y-16272500D01*
G75*
G02*
X19375000Y-16197500I75000J0D01*
G01*
G37*
%TD.AperFunction*%
%TO.P,U4,16*%
%TO.N,/CC2_TX_DATA*%
%TA.AperFunction,SMDPad,CuDef*%
G36*
G01*
X19375000Y-16697500D02*
X20700000Y-16697500D01*
G75*
G02*
X20775000Y-16772500I0J-75000D01*
G01*
X20775000Y-16922500D01*
G75*
G02*
X20700000Y-16997500I-75000J0D01*
G01*
X19375000Y-16997500D01*
G75*
G02*
X19300000Y-16922500I0J75000D01*
G01*
X19300000Y-16772500D01*
G75*
G02*
X19375000Y-16697500I75000J0D01*
G01*
G37*
%TD.AperFunction*%
%TO.P,U4,17*%
%TO.N,/VCONN_ALERT_L*%
%TA.AperFunction,SMDPad,CuDef*%
G36*
G01*
X19375000Y-17197500D02*
X20700000Y-17197500D01*
G75*
G02*
X20775000Y-17272500I0J-75000D01*
G01*
X20775000Y-17422500D01*
G75*
G02*
X20700000Y-17497500I-75000J0D01*
G01*
X19375000Y-17497500D01*
G75*
G02*
X19300000Y-17422500I0J75000D01*
G01*
X19300000Y-17272500D01*
G75*
G02*
X19375000Y-17197500I75000J0D01*
G01*
G37*
%TD.AperFunction*%
%TO.P,U4,18*%
%TO.N,Net-(U4-Pad18)*%
%TA.AperFunction,SMDPad,CuDef*%
G36*
G01*
X19375000Y-17697500D02*
X20700000Y-17697500D01*
G75*
G02*
X20775000Y-17772500I0J-75000D01*
G01*
X20775000Y-17922500D01*
G75*
G02*
X20700000Y-17997500I-75000J0D01*
G01*
X19375000Y-17997500D01*
G75*
G02*
X19300000Y-17922500I0J75000D01*
G01*
X19300000Y-17772500D01*
G75*
G02*
X19375000Y-17697500I75000J0D01*
G01*
G37*
%TD.AperFunction*%
%TO.P,U4,19*%
%TO.N,Net-(U4-Pad19)*%
%TA.AperFunction,SMDPad,CuDef*%
G36*
G01*
X19375000Y-18197500D02*
X20700000Y-18197500D01*
G75*
G02*
X20775000Y-18272500I0J-75000D01*
G01*
X20775000Y-18422500D01*
G75*
G02*
X20700000Y-18497500I-75000J0D01*
G01*
X19375000Y-18497500D01*
G75*
G02*
X19300000Y-18422500I0J75000D01*
G01*
X19300000Y-18272500D01*
G75*
G02*
X19375000Y-18197500I75000J0D01*
G01*
G37*
%TD.AperFunction*%
%TO.P,U4,20*%
%TO.N,/VBUS_ALERT_L*%
%TA.AperFunction,SMDPad,CuDef*%
G36*
G01*
X19375000Y-18697500D02*
X20700000Y-18697500D01*
G75*
G02*
X20775000Y-18772500I0J-75000D01*
G01*
X20775000Y-18922500D01*
G75*
G02*
X20700000Y-18997500I-75000J0D01*
G01*
X19375000Y-18997500D01*
G75*
G02*
X19300000Y-18922500I0J75000D01*
G01*
X19300000Y-18772500D01*
G75*
G02*
X19375000Y-18697500I75000J0D01*
G01*
G37*
%TD.AperFunction*%
%TO.P,U4,21*%
%TO.N,/LED_G_L*%
%TA.AperFunction,SMDPad,CuDef*%
G36*
G01*
X19375000Y-19197500D02*
X20700000Y-19197500D01*
G75*
G02*
X20775000Y-19272500I0J-75000D01*
G01*
X20775000Y-19422500D01*
G75*
G02*
X20700000Y-19497500I-75000J0D01*
G01*
X19375000Y-19497500D01*
G75*
G02*
X19300000Y-19422500I0J75000D01*
G01*
X19300000Y-19272500D01*
G75*
G02*
X19375000Y-19197500I75000J0D01*
G01*
G37*
%TD.AperFunction*%
%TO.P,U4,22*%
%TO.N,/LED_R_L*%
%TA.AperFunction,SMDPad,CuDef*%
G36*
G01*
X19375000Y-19697500D02*
X20700000Y-19697500D01*
G75*
G02*
X20775000Y-19772500I0J-75000D01*
G01*
X20775000Y-19922500D01*
G75*
G02*
X20700000Y-19997500I-75000J0D01*
G01*
X19375000Y-19997500D01*
G75*
G02*
X19300000Y-19922500I0J75000D01*
G01*
X19300000Y-19772500D01*
G75*
G02*
X19375000Y-19697500I75000J0D01*
G01*
G37*
%TD.AperFunction*%
%TO.P,U4,23*%
%TO.N,GND*%
%TA.AperFunction,SMDPad,CuDef*%
G36*
G01*
X19375000Y-20197500D02*
X20700000Y-20197500D01*
G75*
G02*
X20775000Y-20272500I0J-75000D01*
G01*
X20775000Y-20422500D01*
G75*
G02*
X20700000Y-20497500I-75000J0D01*
G01*
X19375000Y-20497500D01*
G75*
G02*
X19300000Y-20422500I0J75000D01*
G01*
X19300000Y-20272500D01*
G75*
G02*
X19375000Y-20197500I75000J0D01*
G01*
G37*
%TD.AperFunction*%
%TO.P,U4,24*%
%TO.N,+3V3*%
%TA.AperFunction,SMDPad,CuDef*%
G36*
G01*
X19375000Y-20697500D02*
X20700000Y-20697500D01*
G75*
G02*
X20775000Y-20772500I0J-75000D01*
G01*
X20775000Y-20922500D01*
G75*
G02*
X20700000Y-20997500I-75000J0D01*
G01*
X19375000Y-20997500D01*
G75*
G02*
X19300000Y-20922500I0J75000D01*
G01*
X19300000Y-20772500D01*
G75*
G02*
X19375000Y-20697500I75000J0D01*
G01*
G37*
%TD.AperFunction*%
%TO.P,U4,25*%
%TO.N,/CC2_RPUSB*%
%TA.AperFunction,SMDPad,CuDef*%
G36*
G01*
X18550000Y-21522500D02*
X18700000Y-21522500D01*
G75*
G02*
X18775000Y-21597500I0J-75000D01*
G01*
X18775000Y-22922500D01*
G75*
G02*
X18700000Y-22997500I-75000J0D01*
G01*
X18550000Y-22997500D01*
G75*
G02*
X18475000Y-22922500I0J75000D01*
G01*
X18475000Y-21597500D01*
G75*
G02*
X18550000Y-21522500I75000J0D01*
G01*
G37*
%TD.AperFunction*%
%TO.P,U4,26*%
%TO.N,/CC2_RD*%
%TA.AperFunction,SMDPad,CuDef*%
G36*
G01*
X18050000Y-21522500D02*
X18200000Y-21522500D01*
G75*
G02*
X18275000Y-21597500I0J-75000D01*
G01*
X18275000Y-22922500D01*
G75*
G02*
X18200000Y-22997500I-75000J0D01*
G01*
X18050000Y-22997500D01*
G75*
G02*
X17975000Y-22922500I0J75000D01*
G01*
X17975000Y-21597500D01*
G75*
G02*
X18050000Y-21522500I75000J0D01*
G01*
G37*
%TD.AperFunction*%
%TO.P,U4,27*%
%TO.N,/LED_B_L*%
%TA.AperFunction,SMDPad,CuDef*%
G36*
G01*
X17550000Y-21522500D02*
X17700000Y-21522500D01*
G75*
G02*
X17775000Y-21597500I0J-75000D01*
G01*
X17775000Y-22922500D01*
G75*
G02*
X17700000Y-22997500I-75000J0D01*
G01*
X17550000Y-22997500D01*
G75*
G02*
X17475000Y-22922500I0J75000D01*
G01*
X17475000Y-21597500D01*
G75*
G02*
X17550000Y-21522500I75000J0D01*
G01*
G37*
%TD.AperFunction*%
%TO.P,U4,28*%
%TO.N,/CC2_RP1A5*%
%TA.AperFunction,SMDPad,CuDef*%
G36*
G01*
X17050000Y-21522500D02*
X17200000Y-21522500D01*
G75*
G02*
X17275000Y-21597500I0J-75000D01*
G01*
X17275000Y-22922500D01*
G75*
G02*
X17200000Y-22997500I-75000J0D01*
G01*
X17050000Y-22997500D01*
G75*
G02*
X16975000Y-22922500I0J75000D01*
G01*
X16975000Y-21597500D01*
G75*
G02*
X17050000Y-21522500I75000J0D01*
G01*
G37*
%TD.AperFunction*%
%TO.P,U4,29*%
%TO.N,/CC2_RA*%
%TA.AperFunction,SMDPad,CuDef*%
G36*
G01*
X16550000Y-21522500D02*
X16700000Y-21522500D01*
G75*
G02*
X16775000Y-21597500I0J-75000D01*
G01*
X16775000Y-22922500D01*
G75*
G02*
X16700000Y-22997500I-75000J0D01*
G01*
X16550000Y-22997500D01*
G75*
G02*
X16475000Y-22922500I0J75000D01*
G01*
X16475000Y-21597500D01*
G75*
G02*
X16550000Y-21522500I75000J0D01*
G01*
G37*
%TD.AperFunction*%
%TO.P,U4,30*%
%TO.N,/UART_TX*%
%TA.AperFunction,SMDPad,CuDef*%
G36*
G01*
X16050000Y-21522500D02*
X16200000Y-21522500D01*
G75*
G02*
X16275000Y-21597500I0J-75000D01*
G01*
X16275000Y-22922500D01*
G75*
G02*
X16200000Y-22997500I-75000J0D01*
G01*
X16050000Y-22997500D01*
G75*
G02*
X15975000Y-22922500I0J75000D01*
G01*
X15975000Y-21597500D01*
G75*
G02*
X16050000Y-21522500I75000J0D01*
G01*
G37*
%TD.AperFunction*%
%TO.P,U4,31*%
%TO.N,/UART_RX*%
%TA.AperFunction,SMDPad,CuDef*%
G36*
G01*
X15550000Y-21522500D02*
X15700000Y-21522500D01*
G75*
G02*
X15775000Y-21597500I0J-75000D01*
G01*
X15775000Y-22922500D01*
G75*
G02*
X15700000Y-22997500I-75000J0D01*
G01*
X15550000Y-22997500D01*
G75*
G02*
X15475000Y-22922500I0J75000D01*
G01*
X15475000Y-21597500D01*
G75*
G02*
X15550000Y-21522500I75000J0D01*
G01*
G37*
%TD.AperFunction*%
%TO.P,U4,32*%
%TO.N,/USB_B_D-*%
%TA.AperFunction,SMDPad,CuDef*%
G36*
G01*
X15050000Y-21522500D02*
X15200000Y-21522500D01*
G75*
G02*
X15275000Y-21597500I0J-75000D01*
G01*
X15275000Y-22922500D01*
G75*
G02*
X15200000Y-22997500I-75000J0D01*
G01*
X15050000Y-22997500D01*
G75*
G02*
X14975000Y-22922500I0J75000D01*
G01*
X14975000Y-21597500D01*
G75*
G02*
X15050000Y-21522500I75000J0D01*
G01*
G37*
%TD.AperFunction*%
%TO.P,U4,33*%
%TO.N,/USB_B_D+*%
%TA.AperFunction,SMDPad,CuDef*%
G36*
G01*
X14550000Y-21522500D02*
X14700000Y-21522500D01*
G75*
G02*
X14775000Y-21597500I0J-75000D01*
G01*
X14775000Y-22922500D01*
G75*
G02*
X14700000Y-22997500I-75000J0D01*
G01*
X14550000Y-22997500D01*
G75*
G02*
X14475000Y-22922500I0J75000D01*
G01*
X14475000Y-21597500D01*
G75*
G02*
X14550000Y-21522500I75000J0D01*
G01*
G37*
%TD.AperFunction*%
%TO.P,U4,34*%
%TO.N,/CC2_RP3A0*%
%TA.AperFunction,SMDPad,CuDef*%
G36*
G01*
X14050000Y-21522500D02*
X14200000Y-21522500D01*
G75*
G02*
X14275000Y-21597500I0J-75000D01*
G01*
X14275000Y-22922500D01*
G75*
G02*
X14200000Y-22997500I-75000J0D01*
G01*
X14050000Y-22997500D01*
G75*
G02*
X13975000Y-22922500I0J75000D01*
G01*
X13975000Y-21597500D01*
G75*
G02*
X14050000Y-21522500I75000J0D01*
G01*
G37*
%TD.AperFunction*%
%TO.P,U4,35*%
%TO.N,GND*%
%TA.AperFunction,SMDPad,CuDef*%
G36*
G01*
X13550000Y-21522500D02*
X13700000Y-21522500D01*
G75*
G02*
X13775000Y-21597500I0J-75000D01*
G01*
X13775000Y-22922500D01*
G75*
G02*
X13700000Y-22997500I-75000J0D01*
G01*
X13550000Y-22997500D01*
G75*
G02*
X13475000Y-22922500I0J75000D01*
G01*
X13475000Y-21597500D01*
G75*
G02*
X13550000Y-21522500I75000J0D01*
G01*
G37*
%TD.AperFunction*%
%TO.P,U4,36*%
%TO.N,+3V3*%
%TA.AperFunction,SMDPad,CuDef*%
G36*
G01*
X13050000Y-21522500D02*
X13200000Y-21522500D01*
G75*
G02*
X13275000Y-21597500I0J-75000D01*
G01*
X13275000Y-22922500D01*
G75*
G02*
X13200000Y-22997500I-75000J0D01*
G01*
X13050000Y-22997500D01*
G75*
G02*
X12975000Y-22922500I0J75000D01*
G01*
X12975000Y-21597500D01*
G75*
G02*
X13050000Y-21522500I75000J0D01*
G01*
G37*
%TD.AperFunction*%
%TO.P,U4,37*%
%TO.N,/CC1_TX_EN*%
%TA.AperFunction,SMDPad,CuDef*%
G36*
G01*
X11050000Y-20697500D02*
X12375000Y-20697500D01*
G75*
G02*
X12450000Y-20772500I0J-75000D01*
G01*
X12450000Y-20922500D01*
G75*
G02*
X12375000Y-20997500I-75000J0D01*
G01*
X11050000Y-20997500D01*
G75*
G02*
X10975000Y-20922500I0J75000D01*
G01*
X10975000Y-20772500D01*
G75*
G02*
X11050000Y-20697500I75000J0D01*
G01*
G37*
%TD.AperFunction*%
%TO.P,U4,38*%
%TO.N,/CC1_RPUSB*%
%TA.AperFunction,SMDPad,CuDef*%
G36*
G01*
X11050000Y-20197500D02*
X12375000Y-20197500D01*
G75*
G02*
X12450000Y-20272500I0J-75000D01*
G01*
X12450000Y-20422500D01*
G75*
G02*
X12375000Y-20497500I-75000J0D01*
G01*
X11050000Y-20497500D01*
G75*
G02*
X10975000Y-20422500I0J75000D01*
G01*
X10975000Y-20272500D01*
G75*
G02*
X11050000Y-20197500I75000J0D01*
G01*
G37*
%TD.AperFunction*%
%TO.P,U4,39*%
%TO.N,/CC1_RD*%
%TA.AperFunction,SMDPad,CuDef*%
G36*
G01*
X11050000Y-19697500D02*
X12375000Y-19697500D01*
G75*
G02*
X12450000Y-19772500I0J-75000D01*
G01*
X12450000Y-19922500D01*
G75*
G02*
X12375000Y-19997500I-75000J0D01*
G01*
X11050000Y-19997500D01*
G75*
G02*
X10975000Y-19922500I0J75000D01*
G01*
X10975000Y-19772500D01*
G75*
G02*
X11050000Y-19697500I75000J0D01*
G01*
G37*
%TD.AperFunction*%
%TO.P,U4,40*%
%TO.N,/CC1_TX_DATA*%
%TA.AperFunction,SMDPad,CuDef*%
G36*
G01*
X11050000Y-19197500D02*
X12375000Y-19197500D01*
G75*
G02*
X12450000Y-19272500I0J-75000D01*
G01*
X12450000Y-19422500D01*
G75*
G02*
X12375000Y-19497500I-75000J0D01*
G01*
X11050000Y-19497500D01*
G75*
G02*
X10975000Y-19422500I0J75000D01*
G01*
X10975000Y-19272500D01*
G75*
G02*
X11050000Y-19197500I75000J0D01*
G01*
G37*
%TD.AperFunction*%
%TO.P,U4,41*%
%TO.N,/CC1_RP1A5*%
%TA.AperFunction,SMDPad,CuDef*%
G36*
G01*
X11050000Y-18697500D02*
X12375000Y-18697500D01*
G75*
G02*
X12450000Y-18772500I0J-75000D01*
G01*
X12450000Y-18922500D01*
G75*
G02*
X12375000Y-18997500I-75000J0D01*
G01*
X11050000Y-18997500D01*
G75*
G02*
X10975000Y-18922500I0J75000D01*
G01*
X10975000Y-18772500D01*
G75*
G02*
X11050000Y-18697500I75000J0D01*
G01*
G37*
%TD.AperFunction*%
%TO.P,U4,42*%
%TO.N,/INA_SCL*%
%TA.AperFunction,SMDPad,CuDef*%
G36*
G01*
X11050000Y-18197500D02*
X12375000Y-18197500D01*
G75*
G02*
X12450000Y-18272500I0J-75000D01*
G01*
X12450000Y-18422500D01*
G75*
G02*
X12375000Y-18497500I-75000J0D01*
G01*
X11050000Y-18497500D01*
G75*
G02*
X10975000Y-18422500I0J75000D01*
G01*
X10975000Y-18272500D01*
G75*
G02*
X11050000Y-18197500I75000J0D01*
G01*
G37*
%TD.AperFunction*%
%TO.P,U4,43*%
%TO.N,/INA_SDA*%
%TA.AperFunction,SMDPad,CuDef*%
G36*
G01*
X11050000Y-17697500D02*
X12375000Y-17697500D01*
G75*
G02*
X12450000Y-17772500I0J-75000D01*
G01*
X12450000Y-17922500D01*
G75*
G02*
X12375000Y-17997500I-75000J0D01*
G01*
X11050000Y-17997500D01*
G75*
G02*
X10975000Y-17922500I0J75000D01*
G01*
X10975000Y-17772500D01*
G75*
G02*
X11050000Y-17697500I75000J0D01*
G01*
G37*
%TD.AperFunction*%
%TO.P,U4,44*%
%TO.N,/BOOT*%
%TA.AperFunction,SMDPad,CuDef*%
G36*
G01*
X11050000Y-17197500D02*
X12375000Y-17197500D01*
G75*
G02*
X12450000Y-17272500I0J-75000D01*
G01*
X12450000Y-17422500D01*
G75*
G02*
X12375000Y-17497500I-75000J0D01*
G01*
X11050000Y-17497500D01*
G75*
G02*
X10975000Y-17422500I0J75000D01*
G01*
X10975000Y-17272500D01*
G75*
G02*
X11050000Y-17197500I75000J0D01*
G01*
G37*
%TD.AperFunction*%
%TO.P,U4,45*%
%TO.N,/CC1_RA*%
%TA.AperFunction,SMDPad,CuDef*%
G36*
G01*
X11050000Y-16697500D02*
X12375000Y-16697500D01*
G75*
G02*
X12450000Y-16772500I0J-75000D01*
G01*
X12450000Y-16922500D01*
G75*
G02*
X12375000Y-16997500I-75000J0D01*
G01*
X11050000Y-16997500D01*
G75*
G02*
X10975000Y-16922500I0J75000D01*
G01*
X10975000Y-16772500D01*
G75*
G02*
X11050000Y-16697500I75000J0D01*
G01*
G37*
%TD.AperFunction*%
%TO.P,U4,46*%
%TO.N,/TX_CLK*%
%TA.AperFunction,SMDPad,CuDef*%
G36*
G01*
X11050000Y-16197500D02*
X12375000Y-16197500D01*
G75*
G02*
X12450000Y-16272500I0J-75000D01*
G01*
X12450000Y-16422500D01*
G75*
G02*
X12375000Y-16497500I-75000J0D01*
G01*
X11050000Y-16497500D01*
G75*
G02*
X10975000Y-16422500I0J75000D01*
G01*
X10975000Y-16272500D01*
G75*
G02*
X11050000Y-16197500I75000J0D01*
G01*
G37*
%TD.AperFunction*%
%TO.P,U4,47*%
%TO.N,GND*%
%TA.AperFunction,SMDPad,CuDef*%
G36*
G01*
X11050000Y-15697500D02*
X12375000Y-15697500D01*
G75*
G02*
X12450000Y-15772500I0J-75000D01*
G01*
X12450000Y-15922500D01*
G75*
G02*
X12375000Y-15997500I-75000J0D01*
G01*
X11050000Y-15997500D01*
G75*
G02*
X10975000Y-15922500I0J75000D01*
G01*
X10975000Y-15772500D01*
G75*
G02*
X11050000Y-15697500I75000J0D01*
G01*
G37*
%TD.AperFunction*%
%TO.P,U4,48*%
%TO.N,+3V3*%
%TA.AperFunction,SMDPad,CuDef*%
G36*
G01*
X11050000Y-15197500D02*
X12375000Y-15197500D01*
G75*
G02*
X12450000Y-15272500I0J-75000D01*
G01*
X12450000Y-15422500D01*
G75*
G02*
X12375000Y-15497500I-75000J0D01*
G01*
X11050000Y-15497500D01*
G75*
G02*
X10975000Y-15422500I0J75000D01*
G01*
X10975000Y-15272500D01*
G75*
G02*
X11050000Y-15197500I75000J0D01*
G01*
G37*
%TD.AperFunction*%
%TD*%
D17*
%TO.P,J2,S7*%
%TO.N,GND*%
X2215000Y-1100000D03*
%TO.P,J2,S8*%
X2215000Y-11600000D03*
D18*
%TO.P,J2,B12*%
X5675000Y-3600000D03*
%TO.P,J2,B11*%
%TO.N,/RX1+*%
X5675000Y-4100000D03*
%TO.P,J2,B10*%
%TO.N,/RX1-*%
X5675000Y-4600000D03*
%TO.P,J2,B9*%
%TO.N,/VBUS_RECEP*%
X5675000Y-5100000D03*
%TO.P,J2,B8*%
%TO.N,/SBU2*%
X5675000Y-5600000D03*
%TO.P,J2,B5*%
%TO.N,/CC2_RECEP*%
X5675000Y-7100000D03*
%TO.P,J2,B4*%
%TO.N,/VBUS_RECEP*%
X5675000Y-7600000D03*
%TO.P,J2,B3*%
%TO.N,/TX2-*%
X5675000Y-8100000D03*
%TO.P,J2,B2*%
%TO.N,/TX2+*%
X5675000Y-8600000D03*
%TO.P,J2,B1*%
%TO.N,GND*%
X5675000Y-9100000D03*
%TO.P,J2,B7*%
%TO.N,/USBC_D-*%
X5675000Y-6100000D03*
%TO.P,J2,B6*%
%TO.N,/USBC_D+*%
X5675000Y-6600000D03*
D19*
%TO.P,J2,S3*%
%TO.N,GND*%
X5675000Y-10100000D03*
%TO.P,J2,S4*%
X5675000Y-2600000D03*
%TD*%
D20*
%TO.P,TP1,1*%
%TO.N,/NRST*%
X20320000Y-13462000D03*
%TD*%
%TO.P,TP2,1*%
%TO.N,/UART_TX*%
X17399000Y-24257000D03*
%TD*%
%TO.P,TP3,1*%
%TO.N,/UART_RX*%
X15367000Y-24257000D03*
%TD*%
%TO.P,C9,2*%
%TO.N,GND*%
%TA.AperFunction,SMDPad,CuDef*%
G36*
G01*
X13662000Y-9045000D02*
X13662000Y-8735000D01*
G75*
G02*
X13817000Y-8580000I155000J0D01*
G01*
X14242000Y-8580000D01*
G75*
G02*
X14397000Y-8735000I0J-155000D01*
G01*
X14397000Y-9045000D01*
G75*
G02*
X14242000Y-9200000I-155000J0D01*
G01*
X13817000Y-9200000D01*
G75*
G02*
X13662000Y-9045000I0J155000D01*
G01*
G37*
%TD.AperFunction*%
%TO.P,C9,1*%
%TO.N,+3V3*%
%TA.AperFunction,SMDPad,CuDef*%
G36*
G01*
X12527000Y-9045000D02*
X12527000Y-8735000D01*
G75*
G02*
X12682000Y-8580000I155000J0D01*
G01*
X13107000Y-8580000D01*
G75*
G02*
X13262000Y-8735000I0J-155000D01*
G01*
X13262000Y-9045000D01*
G75*
G02*
X13107000Y-9200000I-155000J0D01*
G01*
X12682000Y-9200000D01*
G75*
G02*
X12527000Y-9045000I0J155000D01*
G01*
G37*
%TD.AperFunction*%
%TD*%
%TO.P,U1,1*%
%TO.N,/VBUS_PLUG*%
%TA.AperFunction,SMDPad,CuDef*%
G36*
G01*
X16935000Y-3213000D02*
X16935000Y-3413000D01*
G75*
G02*
X16835000Y-3513000I-100000J0D01*
G01*
X15560000Y-3513000D01*
G75*
G02*
X15460000Y-3413000I0J100000D01*
G01*
X15460000Y-3213000D01*
G75*
G02*
X15560000Y-3113000I100000J0D01*
G01*
X16835000Y-3113000D01*
G75*
G02*
X16935000Y-3213000I0J-100000D01*
G01*
G37*
%TD.AperFunction*%
%TO.P,U1,2*%
%TA.AperFunction,SMDPad,CuDef*%
G36*
G01*
X16935000Y-3863000D02*
X16935000Y-4063000D01*
G75*
G02*
X16835000Y-4163000I-100000J0D01*
G01*
X15560000Y-4163000D01*
G75*
G02*
X15460000Y-4063000I0J100000D01*
G01*
X15460000Y-3863000D01*
G75*
G02*
X15560000Y-3763000I100000J0D01*
G01*
X16835000Y-3763000D01*
G75*
G02*
X16935000Y-3863000I0J-100000D01*
G01*
G37*
%TD.AperFunction*%
%TO.P,U1,3*%
%TA.AperFunction,SMDPad,CuDef*%
G36*
G01*
X16935000Y-4513000D02*
X16935000Y-4713000D01*
G75*
G02*
X16835000Y-4813000I-100000J0D01*
G01*
X15560000Y-4813000D01*
G75*
G02*
X15460000Y-4713000I0J100000D01*
G01*
X15460000Y-4513000D01*
G75*
G02*
X15560000Y-4413000I100000J0D01*
G01*
X16835000Y-4413000D01*
G75*
G02*
X16935000Y-4513000I0J-100000D01*
G01*
G37*
%TD.AperFunction*%
%TO.P,U1,4*%
%TO.N,GND*%
%TA.AperFunction,SMDPad,CuDef*%
G36*
G01*
X16935000Y-5163000D02*
X16935000Y-5363000D01*
G75*
G02*
X16835000Y-5463000I-100000J0D01*
G01*
X15560000Y-5463000D01*
G75*
G02*
X15460000Y-5363000I0J100000D01*
G01*
X15460000Y-5163000D01*
G75*
G02*
X15560000Y-5063000I100000J0D01*
G01*
X16835000Y-5063000D01*
G75*
G02*
X16935000Y-5163000I0J-100000D01*
G01*
G37*
%TD.AperFunction*%
%TO.P,U1,5*%
%TA.AperFunction,SMDPad,CuDef*%
G36*
G01*
X16935000Y-5813000D02*
X16935000Y-6013000D01*
G75*
G02*
X16835000Y-6113000I-100000J0D01*
G01*
X15560000Y-6113000D01*
G75*
G02*
X15460000Y-6013000I0J100000D01*
G01*
X15460000Y-5813000D01*
G75*
G02*
X15560000Y-5713000I100000J0D01*
G01*
X16835000Y-5713000D01*
G75*
G02*
X16935000Y-5813000I0J-100000D01*
G01*
G37*
%TD.AperFunction*%
%TO.P,U1,6*%
%TA.AperFunction,SMDPad,CuDef*%
G36*
G01*
X16935000Y-6463000D02*
X16935000Y-6663000D01*
G75*
G02*
X16835000Y-6763000I-100000J0D01*
G01*
X15560000Y-6763000D01*
G75*
G02*
X15460000Y-6663000I0J100000D01*
G01*
X15460000Y-6463000D01*
G75*
G02*
X15560000Y-6363000I100000J0D01*
G01*
X16835000Y-6363000D01*
G75*
G02*
X16935000Y-6463000I0J-100000D01*
G01*
G37*
%TD.AperFunction*%
%TO.P,U1,7*%
%TO.N,/VBUS_ALERT_L*%
%TA.AperFunction,SMDPad,CuDef*%
G36*
G01*
X16935000Y-7113000D02*
X16935000Y-7313000D01*
G75*
G02*
X16835000Y-7413000I-100000J0D01*
G01*
X15560000Y-7413000D01*
G75*
G02*
X15460000Y-7313000I0J100000D01*
G01*
X15460000Y-7113000D01*
G75*
G02*
X15560000Y-7013000I100000J0D01*
G01*
X16835000Y-7013000D01*
G75*
G02*
X16935000Y-7113000I0J-100000D01*
G01*
G37*
%TD.AperFunction*%
%TO.P,U1,8*%
%TO.N,/INA_SDA*%
%TA.AperFunction,SMDPad,CuDef*%
G36*
G01*
X16935000Y-7763000D02*
X16935000Y-7963000D01*
G75*
G02*
X16835000Y-8063000I-100000J0D01*
G01*
X15560000Y-8063000D01*
G75*
G02*
X15460000Y-7963000I0J100000D01*
G01*
X15460000Y-7763000D01*
G75*
G02*
X15560000Y-7663000I100000J0D01*
G01*
X16835000Y-7663000D01*
G75*
G02*
X16935000Y-7763000I0J-100000D01*
G01*
G37*
%TD.AperFunction*%
%TO.P,U1,9*%
%TO.N,/INA_SCL*%
%TA.AperFunction,SMDPad,CuDef*%
G36*
G01*
X11210000Y-7763000D02*
X11210000Y-7963000D01*
G75*
G02*
X11110000Y-8063000I-100000J0D01*
G01*
X9835000Y-8063000D01*
G75*
G02*
X9735000Y-7963000I0J100000D01*
G01*
X9735000Y-7763000D01*
G75*
G02*
X9835000Y-7663000I100000J0D01*
G01*
X11110000Y-7663000D01*
G75*
G02*
X11210000Y-7763000I0J-100000D01*
G01*
G37*
%TD.AperFunction*%
%TO.P,U1,10*%
%TO.N,+3V3*%
%TA.AperFunction,SMDPad,CuDef*%
G36*
G01*
X11210000Y-7113000D02*
X11210000Y-7313000D01*
G75*
G02*
X11110000Y-7413000I-100000J0D01*
G01*
X9835000Y-7413000D01*
G75*
G02*
X9735000Y-7313000I0J100000D01*
G01*
X9735000Y-7113000D01*
G75*
G02*
X9835000Y-7013000I100000J0D01*
G01*
X11110000Y-7013000D01*
G75*
G02*
X11210000Y-7113000I0J-100000D01*
G01*
G37*
%TD.AperFunction*%
%TO.P,U1,11*%
%TO.N,GND*%
%TA.AperFunction,SMDPad,CuDef*%
G36*
G01*
X11210000Y-6463000D02*
X11210000Y-6663000D01*
G75*
G02*
X11110000Y-6763000I-100000J0D01*
G01*
X9835000Y-6763000D01*
G75*
G02*
X9735000Y-6663000I0J100000D01*
G01*
X9735000Y-6463000D01*
G75*
G02*
X9835000Y-6363000I100000J0D01*
G01*
X11110000Y-6363000D01*
G75*
G02*
X11210000Y-6463000I0J-100000D01*
G01*
G37*
%TD.AperFunction*%
%TO.P,U1,12*%
%TO.N,/VBUS_PLUG*%
%TA.AperFunction,SMDPad,CuDef*%
G36*
G01*
X11210000Y-5813000D02*
X11210000Y-6013000D01*
G75*
G02*
X11110000Y-6113000I-100000J0D01*
G01*
X9835000Y-6113000D01*
G75*
G02*
X9735000Y-6013000I0J100000D01*
G01*
X9735000Y-5813000D01*
G75*
G02*
X9835000Y-5713000I100000J0D01*
G01*
X11110000Y-5713000D01*
G75*
G02*
X11210000Y-5813000I0J-100000D01*
G01*
G37*
%TD.AperFunction*%
%TO.P,U1,13*%
%TO.N,Net-(U1-Pad13)*%
%TA.AperFunction,SMDPad,CuDef*%
G36*
G01*
X11210000Y-5163000D02*
X11210000Y-5363000D01*
G75*
G02*
X11110000Y-5463000I-100000J0D01*
G01*
X9835000Y-5463000D01*
G75*
G02*
X9735000Y-5363000I0J100000D01*
G01*
X9735000Y-5163000D01*
G75*
G02*
X9835000Y-5063000I100000J0D01*
G01*
X11110000Y-5063000D01*
G75*
G02*
X11210000Y-5163000I0J-100000D01*
G01*
G37*
%TD.AperFunction*%
%TO.P,U1,14*%
%TO.N,/VBUS_RECEP*%
%TA.AperFunction,SMDPad,CuDef*%
G36*
G01*
X11210000Y-4513000D02*
X11210000Y-4713000D01*
G75*
G02*
X11110000Y-4813000I-100000J0D01*
G01*
X9835000Y-4813000D01*
G75*
G02*
X9735000Y-4713000I0J100000D01*
G01*
X9735000Y-4513000D01*
G75*
G02*
X9835000Y-4413000I100000J0D01*
G01*
X11110000Y-4413000D01*
G75*
G02*
X11210000Y-4513000I0J-100000D01*
G01*
G37*
%TD.AperFunction*%
%TO.P,U1,15*%
%TA.AperFunction,SMDPad,CuDef*%
G36*
G01*
X11210000Y-3863000D02*
X11210000Y-4063000D01*
G75*
G02*
X11110000Y-4163000I-100000J0D01*
G01*
X9835000Y-4163000D01*
G75*
G02*
X9735000Y-4063000I0J100000D01*
G01*
X9735000Y-3863000D01*
G75*
G02*
X9835000Y-3763000I100000J0D01*
G01*
X11110000Y-3763000D01*
G75*
G02*
X11210000Y-3863000I0J-100000D01*
G01*
G37*
%TD.AperFunction*%
%TO.P,U1,16*%
%TA.AperFunction,SMDPad,CuDef*%
G36*
G01*
X11210000Y-3213000D02*
X11210000Y-3413000D01*
G75*
G02*
X11110000Y-3513000I-100000J0D01*
G01*
X9835000Y-3513000D01*
G75*
G02*
X9735000Y-3413000I0J100000D01*
G01*
X9735000Y-3213000D01*
G75*
G02*
X9835000Y-3113000I100000J0D01*
G01*
X11110000Y-3113000D01*
G75*
G02*
X11210000Y-3213000I0J-100000D01*
G01*
G37*
%TD.AperFunction*%
%TD*%
D21*
%TO.P,U3,5*%
%TO.N,+3V3*%
X6284000Y-16582400D03*
%TO.P,U3,4*%
%TO.N,Net-(U3-Pad4)*%
X4384000Y-16582400D03*
%TO.P,U3,3*%
%TO.N,+5V*%
X4384000Y-19282400D03*
%TO.P,U3,2*%
%TO.N,GND*%
X5334000Y-19282400D03*
%TO.P,U3,1*%
%TO.N,+5V*%
X6284000Y-19282400D03*
%TD*%
%TO.P,R5,2*%
%TO.N,/LED_R_L*%
%TA.AperFunction,SMDPad,CuDef*%
G36*
G01*
X24544000Y-20207000D02*
X24224000Y-20207000D01*
G75*
G02*
X24064000Y-20047000I0J160000D01*
G01*
X24064000Y-19652000D01*
G75*
G02*
X24224000Y-19492000I160000J0D01*
G01*
X24544000Y-19492000D01*
G75*
G02*
X24704000Y-19652000I0J-160000D01*
G01*
X24704000Y-20047000D01*
G75*
G02*
X24544000Y-20207000I-160000J0D01*
G01*
G37*
%TD.AperFunction*%
%TO.P,R5,1*%
%TO.N,Net-(DS2-Pad1)*%
%TA.AperFunction,SMDPad,CuDef*%
G36*
G01*
X24544000Y-21402000D02*
X24224000Y-21402000D01*
G75*
G02*
X24064000Y-21242000I0J160000D01*
G01*
X24064000Y-20847000D01*
G75*
G02*
X24224000Y-20687000I160000J0D01*
G01*
X24544000Y-20687000D01*
G75*
G02*
X24704000Y-20847000I0J-160000D01*
G01*
X24704000Y-21242000D01*
G75*
G02*
X24544000Y-21402000I-160000J0D01*
G01*
G37*
%TD.AperFunction*%
%TD*%
%TO.P,R4,2*%
%TO.N,/LED_B_L*%
%TA.AperFunction,SMDPad,CuDef*%
G36*
G01*
X19318000Y-24097000D02*
X19318000Y-24417000D01*
G75*
G02*
X19158000Y-24577000I-160000J0D01*
G01*
X18763000Y-24577000D01*
G75*
G02*
X18603000Y-24417000I0J160000D01*
G01*
X18603000Y-24097000D01*
G75*
G02*
X18763000Y-23937000I160000J0D01*
G01*
X19158000Y-23937000D01*
G75*
G02*
X19318000Y-24097000I0J-160000D01*
G01*
G37*
%TD.AperFunction*%
%TO.P,R4,1*%
%TO.N,Net-(DS1-Pad3)*%
%TA.AperFunction,SMDPad,CuDef*%
G36*
G01*
X20513000Y-24097000D02*
X20513000Y-24417000D01*
G75*
G02*
X20353000Y-24577000I-160000J0D01*
G01*
X19958000Y-24577000D01*
G75*
G02*
X19798000Y-24417000I0J160000D01*
G01*
X19798000Y-24097000D01*
G75*
G02*
X19958000Y-23937000I160000J0D01*
G01*
X20353000Y-23937000D01*
G75*
G02*
X20513000Y-24097000I0J-160000D01*
G01*
G37*
%TD.AperFunction*%
%TD*%
%TO.P,R3,2*%
%TO.N,/LED_G_L*%
%TA.AperFunction,SMDPad,CuDef*%
G36*
G01*
X22512000Y-20207000D02*
X22192000Y-20207000D01*
G75*
G02*
X22032000Y-20047000I0J160000D01*
G01*
X22032000Y-19652000D01*
G75*
G02*
X22192000Y-19492000I160000J0D01*
G01*
X22512000Y-19492000D01*
G75*
G02*
X22672000Y-19652000I0J-160000D01*
G01*
X22672000Y-20047000D01*
G75*
G02*
X22512000Y-20207000I-160000J0D01*
G01*
G37*
%TD.AperFunction*%
%TO.P,R3,1*%
%TO.N,Net-(DS1-Pad4)*%
%TA.AperFunction,SMDPad,CuDef*%
G36*
G01*
X22512000Y-21402000D02*
X22192000Y-21402000D01*
G75*
G02*
X22032000Y-21242000I0J160000D01*
G01*
X22032000Y-20847000D01*
G75*
G02*
X22192000Y-20687000I160000J0D01*
G01*
X22512000Y-20687000D01*
G75*
G02*
X22672000Y-20847000I0J-160000D01*
G01*
X22672000Y-21242000D01*
G75*
G02*
X22512000Y-21402000I-160000J0D01*
G01*
G37*
%TD.AperFunction*%
%TD*%
%TO.P,R2,2*%
%TO.N,/LED_R_L*%
%TA.AperFunction,SMDPad,CuDef*%
G36*
G01*
X23528000Y-20207000D02*
X23208000Y-20207000D01*
G75*
G02*
X23048000Y-20047000I0J160000D01*
G01*
X23048000Y-19652000D01*
G75*
G02*
X23208000Y-19492000I160000J0D01*
G01*
X23528000Y-19492000D01*
G75*
G02*
X23688000Y-19652000I0J-160000D01*
G01*
X23688000Y-20047000D01*
G75*
G02*
X23528000Y-20207000I-160000J0D01*
G01*
G37*
%TD.AperFunction*%
%TO.P,R2,1*%
%TO.N,Net-(DS1-Pad1)*%
%TA.AperFunction,SMDPad,CuDef*%
G36*
G01*
X23528000Y-21402000D02*
X23208000Y-21402000D01*
G75*
G02*
X23048000Y-21242000I0J160000D01*
G01*
X23048000Y-20847000D01*
G75*
G02*
X23208000Y-20687000I160000J0D01*
G01*
X23528000Y-20687000D01*
G75*
G02*
X23688000Y-20847000I0J-160000D01*
G01*
X23688000Y-21242000D01*
G75*
G02*
X23528000Y-21402000I-160000J0D01*
G01*
G37*
%TD.AperFunction*%
%TD*%
%TO.P,FB1,2*%
%TO.N,Net-(D1-Pad1)*%
%TA.AperFunction,SMDPad,CuDef*%
G36*
G01*
X3874000Y-20871200D02*
X3874000Y-21191200D01*
G75*
G02*
X3714000Y-21351200I-160000J0D01*
G01*
X3269000Y-21351200D01*
G75*
G02*
X3109000Y-21191200I0J160000D01*
G01*
X3109000Y-20871200D01*
G75*
G02*
X3269000Y-20711200I160000J0D01*
G01*
X3714000Y-20711200D01*
G75*
G02*
X3874000Y-20871200I0J-160000D01*
G01*
G37*
%TD.AperFunction*%
%TO.P,FB1,1*%
%TO.N,+5V*%
%TA.AperFunction,SMDPad,CuDef*%
G36*
G01*
X5019000Y-20871200D02*
X5019000Y-21191200D01*
G75*
G02*
X4859000Y-21351200I-160000J0D01*
G01*
X4414000Y-21351200D01*
G75*
G02*
X4254000Y-21191200I0J160000D01*
G01*
X4254000Y-20871200D01*
G75*
G02*
X4414000Y-20711200I160000J0D01*
G01*
X4859000Y-20711200D01*
G75*
G02*
X5019000Y-20871200I0J-160000D01*
G01*
G37*
%TD.AperFunction*%
%TD*%
D22*
%TO.P,DS1,2*%
%TO.N,+5V*%
X24237000Y-24195000D03*
%TO.P,DS1,3*%
%TO.N,Net-(DS1-Pad3)*%
X21737000Y-24195000D03*
%TO.P,DS1,4*%
%TO.N,Net-(DS1-Pad4)*%
X21737000Y-22795000D03*
%TO.P,DS1,1*%
%TO.N,Net-(DS1-Pad1)*%
X24237000Y-22795000D03*
%TD*%
D23*
%TO.P,D1,1*%
%TO.N,Net-(D1-Pad1)*%
X3684000Y-23825200D03*
%TO.P,D1,2*%
%TO.N,GND*%
X6984000Y-23825200D03*
%TD*%
%TO.P,C7,2*%
%TO.N,GND*%
%TA.AperFunction,SMDPad,CuDef*%
G36*
G01*
X12944500Y-24229000D02*
X12944500Y-24539000D01*
G75*
G02*
X12789500Y-24694000I-155000J0D01*
G01*
X12364500Y-24694000D01*
G75*
G02*
X12209500Y-24539000I0J155000D01*
G01*
X12209500Y-24229000D01*
G75*
G02*
X12364500Y-24074000I155000J0D01*
G01*
X12789500Y-24074000D01*
G75*
G02*
X12944500Y-24229000I0J-155000D01*
G01*
G37*
%TD.AperFunction*%
%TO.P,C7,1*%
%TO.N,+3V3*%
%TA.AperFunction,SMDPad,CuDef*%
G36*
G01*
X14079500Y-24229000D02*
X14079500Y-24539000D01*
G75*
G02*
X13924500Y-24694000I-155000J0D01*
G01*
X13499500Y-24694000D01*
G75*
G02*
X13344500Y-24539000I0J155000D01*
G01*
X13344500Y-24229000D01*
G75*
G02*
X13499500Y-24074000I155000J0D01*
G01*
X13924500Y-24074000D01*
G75*
G02*
X14079500Y-24229000I0J-155000D01*
G01*
G37*
%TD.AperFunction*%
%TD*%
%TO.P,C3,2*%
%TO.N,GND*%
%TA.AperFunction,SMDPad,CuDef*%
G36*
G01*
X20038000Y-22679000D02*
X20348000Y-22679000D01*
G75*
G02*
X20503000Y-22834000I0J-155000D01*
G01*
X20503000Y-23259000D01*
G75*
G02*
X20348000Y-23414000I-155000J0D01*
G01*
X20038000Y-23414000D01*
G75*
G02*
X19883000Y-23259000I0J155000D01*
G01*
X19883000Y-22834000D01*
G75*
G02*
X20038000Y-22679000I155000J0D01*
G01*
G37*
%TD.AperFunction*%
%TO.P,C3,1*%
%TO.N,+3V3*%
%TA.AperFunction,SMDPad,CuDef*%
G36*
G01*
X20038000Y-21544000D02*
X20348000Y-21544000D01*
G75*
G02*
X20503000Y-21699000I0J-155000D01*
G01*
X20503000Y-22124000D01*
G75*
G02*
X20348000Y-22279000I-155000J0D01*
G01*
X20038000Y-22279000D01*
G75*
G02*
X19883000Y-22124000I0J155000D01*
G01*
X19883000Y-21699000D01*
G75*
G02*
X20038000Y-21544000I155000J0D01*
G01*
G37*
%TD.AperFunction*%
%TD*%
%TO.P,C1,2*%
%TO.N,GND*%
%TA.AperFunction,SMDPad,CuDef*%
G36*
G01*
X6804000Y-22202200D02*
X6804000Y-21892200D01*
G75*
G02*
X6959000Y-21737200I155000J0D01*
G01*
X7384000Y-21737200D01*
G75*
G02*
X7539000Y-21892200I0J-155000D01*
G01*
X7539000Y-22202200D01*
G75*
G02*
X7384000Y-22357200I-155000J0D01*
G01*
X6959000Y-22357200D01*
G75*
G02*
X6804000Y-22202200I0J155000D01*
G01*
G37*
%TD.AperFunction*%
%TO.P,C1,1*%
%TO.N,+5V*%
%TA.AperFunction,SMDPad,CuDef*%
G36*
G01*
X5669000Y-22202200D02*
X5669000Y-21892200D01*
G75*
G02*
X5824000Y-21737200I155000J0D01*
G01*
X6249000Y-21737200D01*
G75*
G02*
X6404000Y-21892200I0J-155000D01*
G01*
X6404000Y-22202200D01*
G75*
G02*
X6249000Y-22357200I-155000J0D01*
G01*
X5824000Y-22357200D01*
G75*
G02*
X5669000Y-22202200I0J155000D01*
G01*
G37*
%TD.AperFunction*%
%TD*%
D24*
%TO.N,GND*%
X13462000Y-20447000D03*
X12192000Y-4699000D03*
X635000Y-698500D03*
D25*
X6477000Y-10414000D03*
X6477000Y-9779000D03*
X6477000Y-2921000D03*
X6477000Y-2286000D03*
D24*
X5334000Y-17881600D03*
X13412792Y-16961149D03*
D25*
X19177000Y-14732000D03*
D24*
X8890000Y-15240000D03*
X4673600Y-17881600D03*
X571500Y-12001500D03*
X22288500Y-889000D03*
X20320000Y-3492500D03*
X19939000Y-3048000D03*
X19431000Y-10414000D03*
X20256500Y-9271000D03*
X19558000Y-11303000D03*
X24257000Y-12636500D03*
X23558500Y-1016000D03*
X5715000Y-11303000D03*
X3873500Y-12001500D03*
X3873500Y-698500D03*
X13906500Y-8102590D03*
X14922500Y-4445000D03*
X5715000Y-1460500D03*
X24257000Y-11620500D03*
X19514320Y-23067117D03*
X21526500Y-21399500D03*
X16256000Y-15621000D03*
%TO.N,+5V*%
X23241000Y-23368000D03*
%TO.N,+3V3*%
X5588000Y-16967200D03*
X11684000Y-7239000D03*
X12442000Y-22102000D03*
X12700000Y-7874000D03*
X19685000Y-21336000D03*
X5588000Y-16154400D03*
X9017000Y-16637000D03*
X12206419Y-3951419D03*
D25*
X14993294Y-5261560D03*
D24*
X8890000Y-10350500D03*
X22415500Y-11811000D03*
X14859000Y-17843500D03*
%TO.N,Net-(D1-Pad1)*%
X3491500Y-21959300D03*
D25*
%TO.N,/CC1_RECEP*%
X10033000Y-8509000D03*
X17399000Y-5588000D03*
X9271000Y-5524500D03*
X11049000Y-10350500D03*
D24*
%TO.N,/CC2_RECEP*%
X9144000Y-7239000D03*
D25*
X10414000Y-10350500D03*
%TO.N,/CC1_TX_DATA*%
X2794000Y-13716000D03*
X4000500Y-15113000D03*
%TO.N,/CC1_TX_EN*%
X10414000Y-20701000D03*
%TO.N,/CC2_TX_DATA*%
X18391125Y-15914625D03*
%TO.N,/CC2_TX_EN*%
X14132613Y-15704645D03*
%TO.N,/CC2*%
X10668000Y-13716000D03*
X19939000Y-14732000D03*
X10795000Y-12700000D03*
%TO.N,/CC1_EN*%
X9337588Y-13053528D03*
X17780000Y-15557500D03*
%TO.N,/CC2_EN*%
X13843000Y-12827000D03*
X19050000Y-13589000D03*
%TO.N,/BOOT*%
X21526500Y-18796000D03*
X18516599Y-19558000D03*
%TO.N,/LED_G_L*%
X22796500Y-19240500D03*
%TO.N,/LED_B_L*%
X18923000Y-23622000D03*
%TO.N,/CC1_RP3A0*%
X14605000Y-16129000D03*
%TO.N,/CC1_RA*%
X7576582Y-15013987D03*
%TO.N,/CC1_RP1A5*%
X6893953Y-14999838D03*
%TO.N,/CC1_RD*%
X14010642Y-20035519D03*
%TO.N,/CC1_RPUSB*%
X10414000Y-20002500D03*
%TO.N,/CC2_RP3A0*%
X14351000Y-20574000D03*
%TO.N,/CC2_RA*%
X15621000Y-20574000D03*
%TO.N,/CC2_RP1A5*%
X16793347Y-20574000D03*
%TO.N,/CC2_RD*%
X17653000Y-20574000D03*
%TO.N,/CC2_RPUSB*%
X18415000Y-20574000D03*
%TO.N,/INA_SCL*%
X12954000Y-5461000D03*
X13307848Y-19323564D03*
X13462000Y-10350500D03*
%TO.N,/INA_SDA*%
X10714245Y-17733755D03*
X14097000Y-4572000D03*
X12826997Y-10350500D03*
X14732000Y-10350500D03*
%TO.N,/VBUS_ALERT_L*%
X15367000Y-10350500D03*
X21209000Y-17970500D03*
%TO.N,/VCONN_ALERT_L*%
X21209000Y-17335500D03*
X14351000Y-3937000D03*
X14097000Y-10350500D03*
%TO.N,/CC2_BUF*%
X21463000Y-13081000D03*
%TO.N,/CC1_BUF*%
X19050000Y-12827000D03*
D24*
%TO.N,/VBUS_PLUG*%
X17907000Y-3746500D03*
X17399000Y-3429000D03*
X17399000Y-4064000D03*
X17907000Y-3175000D03*
X19240500Y-7683500D03*
X18923000Y-8128000D03*
X18669000Y-7683500D03*
X17907000Y-4318000D03*
%TO.N,/CC2_PLUG*%
X17843500Y-7747000D03*
D25*
X12992474Y-4699000D03*
X13017500Y-7239000D03*
D24*
%TO.N,/VBUS_RECEP*%
X8636000Y-3492500D03*
X8636000Y-4064000D03*
X9144000Y-3238500D03*
X9144000Y-3810000D03*
X7206621Y-7784100D03*
X7585260Y-8162740D03*
X9144000Y-4381500D03*
X8064500Y-8445500D03*
D25*
%TO.N,/SBU2*%
X17335500Y-4889500D03*
X8763000Y-4953000D03*
%TO.N,/SBU1*%
X13850496Y-7201516D03*
X11747500Y-8382000D03*
D26*
%TO.N,/USBC_D-*%
X6784653Y-6273790D03*
%TO.N,/USBC_D+*%
X7350212Y-6007090D03*
D25*
%TO.N,/USB_B_D+*%
X14122400Y-23520400D03*
%TO.N,/USB_B_D-*%
X14478000Y-24066500D03*
%TO.N,/TX_CLK*%
X21335742Y-16370299D03*
X10287000Y-15875000D03*
%TO.N,Net-(DS2-Pad1)*%
X24965601Y-21706899D03*
D24*
%TO.N,Net-(C5-Pad1)*%
X17018000Y-15621000D03*
D25*
%TO.N,/USB_B_ID*%
X22923500Y-16637000D03*
%TD*%
D27*
%TO.N,GND*%
X16197500Y-5913000D02*
X16197500Y-5263000D01*
X16197500Y-6563000D02*
X16197500Y-5913000D01*
D28*
X13625000Y-20610000D02*
X13462000Y-20447000D01*
X13625000Y-22260000D02*
X13625000Y-20610000D01*
X11712500Y-15847500D02*
X12875364Y-15847500D01*
X12437500Y-15847500D02*
X12875364Y-15847500D01*
X16625000Y-13935000D02*
X16625000Y-15187799D01*
X12875364Y-15847500D02*
X13412792Y-16384928D01*
X16625000Y-15187799D02*
X16433799Y-15379000D01*
X13412792Y-16384928D02*
X13412792Y-16961149D01*
X16433799Y-15379000D02*
X16433799Y-16433799D01*
D27*
X23909000Y-1400000D02*
X23398000Y-889000D01*
X23398000Y-889000D02*
X20764500Y-889000D01*
D28*
X6477000Y-2286000D02*
X5989000Y-2286000D01*
X6477000Y-2921000D02*
X5996000Y-2921000D01*
X5675000Y-9100000D02*
X6115500Y-9100000D01*
X6477000Y-9461500D02*
X6477000Y-9779000D01*
X6115500Y-9100000D02*
X6477000Y-9461500D01*
X6477000Y-9779000D02*
X6477000Y-10414000D01*
X6477000Y-10414000D02*
X5989000Y-10414000D01*
X6477000Y-9779000D02*
X5996000Y-9779000D01*
X6477000Y-2921000D02*
X6477000Y-2286000D01*
X6477000Y-2286000D02*
X6477000Y-1841500D01*
X5715000Y-1079500D02*
X5080000Y-1079500D01*
X6477000Y-1841500D02*
X6350000Y-1079500D01*
D27*
X20965000Y-2523990D02*
X21148990Y-2340000D01*
X20965000Y-3525000D02*
X20965000Y-2523990D01*
X20965000Y-10176010D02*
X21148990Y-10360000D01*
X20965000Y-9175000D02*
X20965000Y-10176010D01*
D28*
X20965000Y-9175000D02*
X20225500Y-9175000D01*
X20225500Y-9175000D02*
X19558000Y-9842500D01*
D27*
X14029500Y-8890000D02*
X14029500Y-8225590D01*
X14029500Y-8225590D02*
X13906500Y-8102590D01*
D28*
X6350000Y-1079500D02*
X5715000Y-1079500D01*
X20352500Y-3525000D02*
X20320000Y-3492500D01*
X20965000Y-3525000D02*
X20352500Y-3525000D01*
X19939000Y-3111500D02*
X20320000Y-3492500D01*
X19939000Y-3048000D02*
X19939000Y-3111500D01*
D29*
X5675000Y-3600000D02*
X5734500Y-3600000D01*
D28*
X5675000Y-3600000D02*
X6115500Y-3600000D01*
X6115500Y-3600000D02*
X6477000Y-3238500D01*
X6477000Y-3238500D02*
X6477000Y-2921000D01*
D29*
X5798000Y-3600000D02*
X6477000Y-2921000D01*
X5675000Y-3600000D02*
X5798000Y-3600000D01*
X5798000Y-9100000D02*
X6477000Y-9779000D01*
X5675000Y-9100000D02*
X5798000Y-9100000D01*
D28*
X6477000Y-10414000D02*
X6477000Y-11176000D01*
D27*
X5334000Y-19282400D02*
X5334000Y-17881600D01*
X5334000Y-17881600D02*
X4673600Y-17881600D01*
X5334000Y-17881600D02*
X7315200Y-17881600D01*
X20193000Y-23046500D02*
X19534937Y-23046500D01*
X19534937Y-23046500D02*
X19514320Y-23067117D01*
D28*
%TO.N,+5V*%
X24068000Y-24195000D02*
X23241000Y-23368000D01*
X24237000Y-24195000D02*
X24068000Y-24195000D01*
X6748401Y-25036401D02*
X6036500Y-24324500D01*
X22715599Y-25036401D02*
X6748401Y-25036401D01*
X23241000Y-24511000D02*
X22715599Y-25036401D01*
X23241000Y-23368000D02*
X23241000Y-24511000D01*
X6036500Y-24324500D02*
X6036500Y-22047200D01*
D27*
%TO.N,+3V3*%
X11658000Y-7213000D02*
X11684000Y-7239000D01*
X20193000Y-21034010D02*
X20037500Y-20878510D01*
X20193000Y-21911500D02*
X20193000Y-21034010D01*
D28*
X12935990Y-22102000D02*
X13093990Y-22260000D01*
D27*
X11557000Y-22102000D02*
X12442000Y-22102000D01*
D28*
X13093990Y-23507990D02*
X13093990Y-22260000D01*
D27*
X13712000Y-24126000D02*
X13093990Y-23507990D01*
X12442000Y-22102000D02*
X12935990Y-22102000D01*
X20193000Y-21844000D02*
X19685000Y-21336000D01*
X20193000Y-21911500D02*
X20193000Y-21844000D01*
D28*
X11712500Y-15347500D02*
X12973500Y-15347500D01*
X13125000Y-15196000D02*
X13125000Y-13935000D01*
X12973500Y-15347500D02*
X13125000Y-15196000D01*
X13599212Y-15960678D02*
X14021534Y-16383000D01*
X13599212Y-15631212D02*
X13599212Y-15960678D01*
X13164000Y-15196000D02*
X13599212Y-15631212D01*
X13125000Y-15196000D02*
X13164000Y-15196000D01*
X13315500Y-15347500D02*
X13599212Y-15631212D01*
X11712500Y-15347500D02*
X13315500Y-15347500D01*
X11706599Y-15341599D02*
X11712500Y-15347500D01*
X9881349Y-15341599D02*
X11706599Y-15341599D01*
X9017000Y-16205948D02*
X9881349Y-15341599D01*
X9017000Y-16637000D02*
X9017000Y-16205948D01*
D27*
X10472500Y-7213000D02*
X11658000Y-7213000D01*
X12894500Y-8068500D02*
X12700000Y-7874000D01*
X12894500Y-8890000D02*
X12894500Y-8068500D01*
X13712000Y-24384000D02*
X13712000Y-24126000D01*
X14021534Y-16485336D02*
X14021534Y-16383000D01*
X14859000Y-17322802D02*
X14021534Y-16485336D01*
X14859000Y-17843500D02*
X14859000Y-17322802D01*
%TO.N,Net-(D1-Pad1)*%
X3491500Y-23632700D02*
X3684000Y-23825200D01*
X3491500Y-21031200D02*
X3491500Y-21959300D01*
X3491500Y-21959300D02*
X3491500Y-23632700D01*
D30*
%TO.N,Net-(DS1-Pad3)*%
X21712500Y-24219500D02*
X21737000Y-24195000D01*
X20193000Y-24219500D02*
X21712500Y-24219500D01*
%TO.N,Net-(DS1-Pad4)*%
X21737000Y-22795000D02*
X21737000Y-22649500D01*
X22352000Y-22034500D02*
X22352000Y-21044500D01*
X21737000Y-22649500D02*
X22352000Y-22034500D01*
%TO.N,/CC1_RECEP*%
X11049000Y-10350500D02*
X11049000Y-9525000D01*
X11049000Y-9525000D02*
X10033000Y-8509000D01*
%TO.N,/CC2_RECEP*%
X5675000Y-7100000D02*
X5749834Y-7174834D01*
X9079834Y-7174834D02*
X9144000Y-7239000D01*
X5749834Y-7174834D02*
X9079834Y-7174834D01*
X9189782Y-7284782D02*
X9144000Y-7239000D01*
X9189782Y-9316782D02*
X9189782Y-7284782D01*
X10414000Y-10350500D02*
X9189782Y-9316782D01*
%TO.N,/CC1_TX_DATA*%
X6254881Y-15138399D02*
X6248399Y-15138399D01*
X4025899Y-15138399D02*
X4000500Y-15113000D01*
X6254881Y-15138399D02*
X4025899Y-15138399D01*
X6349999Y-15138399D02*
X6254881Y-15138399D01*
X7112000Y-15900400D02*
X6349999Y-15138399D01*
X8487415Y-17830821D02*
X7112000Y-16455406D01*
X10836723Y-19177710D02*
X9489835Y-17830821D01*
X10875840Y-19177710D02*
X10836723Y-19177710D01*
X10924240Y-19226110D02*
X10875840Y-19177710D01*
X11712500Y-19347500D02*
X11712500Y-19332500D01*
X9489835Y-17830821D02*
X8487415Y-17830821D01*
X11606110Y-19226110D02*
X10924240Y-19226110D01*
X11712500Y-19332500D02*
X11606110Y-19226110D01*
X7112000Y-16455406D02*
X7112000Y-15900400D01*
%TO.N,/CC1_TX_EN*%
X10560500Y-20847500D02*
X10414000Y-20701000D01*
X11712500Y-20847500D02*
X10560500Y-20847500D01*
%TO.N,/CC2_TX_DATA*%
X20037500Y-16847500D02*
X18963306Y-16847500D01*
X18875000Y-16847500D02*
X19312500Y-16847500D01*
X18391125Y-15914625D02*
X18415000Y-16387500D01*
X18415000Y-16387500D02*
X18875000Y-16847500D01*
%TO.N,/CC2_TX_EN*%
X14236806Y-15621000D02*
X14265014Y-15621000D01*
X13625000Y-15009194D02*
X14236806Y-15621000D01*
X13625000Y-13935000D02*
X13625000Y-15009194D01*
X14181369Y-15704645D02*
X14132613Y-15704645D01*
X14265014Y-15621000D02*
X14181369Y-15704645D01*
%TO.N,/CC1_EN*%
X17625000Y-15466000D02*
X17625000Y-13935000D01*
X17780000Y-15557500D02*
X17625000Y-15466000D01*
%TO.N,/CC2_EN*%
X18704000Y-13935000D02*
X19050000Y-13589000D01*
X18625000Y-13935000D02*
X18704000Y-13935000D01*
%TO.N,/BOOT*%
X18491198Y-19532599D02*
X18516599Y-19558000D01*
X13790449Y-19101076D02*
X14221972Y-19532599D01*
X13790449Y-19091915D02*
X13790449Y-19101076D01*
X14221972Y-19532599D02*
X18491198Y-19532599D01*
X13638058Y-18939524D02*
X13790449Y-19091915D01*
X13638058Y-18731877D02*
X13638058Y-18939524D01*
X13103610Y-18197429D02*
X13638058Y-18731877D01*
X13103610Y-17664416D02*
X13103610Y-18197429D01*
X12786694Y-17347500D02*
X13103610Y-17664416D01*
X11712500Y-17347500D02*
X12786694Y-17347500D01*
X23696399Y-18731601D02*
X24125000Y-18303000D01*
X22591149Y-18731601D02*
X23696399Y-18731601D01*
X22526750Y-18796000D02*
X22591149Y-18731601D01*
X21526500Y-18796000D02*
X22526750Y-18796000D01*
%TO.N,/LED_R_L*%
X21407210Y-19847500D02*
X22006710Y-20447000D01*
X20037500Y-19847500D02*
X21407210Y-19847500D01*
X24384000Y-19849500D02*
X23368000Y-19849500D01*
X22770500Y-20447000D02*
X22006710Y-20447000D01*
X23368000Y-19849500D02*
X22770500Y-20447000D01*
%TO.N,/LED_G_L*%
X22352000Y-19849500D02*
X22350000Y-19847500D01*
X21589710Y-19347500D02*
X21758605Y-19516395D01*
X20037500Y-19347500D02*
X21589710Y-19347500D01*
X22091710Y-19849500D02*
X21758605Y-19516395D01*
X22352000Y-19849500D02*
X22091710Y-19849500D01*
X22796500Y-19240500D02*
X22796500Y-19405000D01*
X22796500Y-19405000D02*
X22352000Y-19849500D01*
D29*
%TO.N,/LED_B_L*%
X18732500Y-24257000D02*
X18960500Y-24257000D01*
D30*
X18249500Y-23622000D02*
X18923000Y-23622000D01*
X17625000Y-22997500D02*
X18249500Y-23622000D01*
X17625000Y-22260000D02*
X17625000Y-22997500D01*
X18923000Y-24219500D02*
X18960500Y-24257000D01*
X18923000Y-23622000D02*
X18923000Y-24219500D01*
%TO.N,/CC1_RP3A0*%
X14125000Y-14660000D02*
X14125000Y-15014000D01*
X14757399Y-15976601D02*
X14605000Y-16129000D01*
X14757399Y-15646399D02*
X14757399Y-15976601D01*
X14125000Y-15014000D02*
X14757399Y-15646399D01*
%TO.N,/CC1_RA*%
X7772420Y-15209825D02*
X7576582Y-15013987D01*
X8760967Y-17170401D02*
X7772420Y-16181854D01*
X7772420Y-16181854D02*
X7772420Y-15209825D01*
X9273033Y-17170401D02*
X8760967Y-17170401D01*
X9595934Y-16847500D02*
X9273033Y-17170401D01*
X11712500Y-16847500D02*
X9595934Y-16847500D01*
%TO.N,/CC1_RP1A5*%
X6893953Y-15035635D02*
X6893953Y-14999838D01*
X7442210Y-15583892D02*
X6893953Y-15035635D01*
X7442210Y-16318630D02*
X7442210Y-15583892D01*
X9626611Y-17500611D02*
X8624191Y-17500611D01*
X11712500Y-18847500D02*
X10973500Y-18847500D01*
X10973500Y-18847500D02*
X9626611Y-17500611D01*
X8624191Y-17500611D02*
X7442210Y-16318630D01*
%TO.N,/CC1_RD*%
X13822623Y-19847500D02*
X14010642Y-20035519D01*
X11712500Y-19847500D02*
X13822623Y-19847500D01*
%TO.N,/CC1_RPUSB*%
X10759000Y-20347500D02*
X10414000Y-20002500D01*
X11712500Y-20347500D02*
X10759000Y-20347500D01*
%TO.N,/CC2_RP3A0*%
X14125000Y-20800000D02*
X14351000Y-20574000D01*
X14125000Y-22260000D02*
X14125000Y-20800000D01*
%TO.N,/CC2_RA*%
X16079097Y-20574000D02*
X15621000Y-20574000D01*
X16625000Y-21119903D02*
X16079097Y-20574000D01*
X16625000Y-22260000D02*
X16625000Y-21119903D01*
%TO.N,/CC2_RP1A5*%
X17125000Y-20905653D02*
X16793347Y-20574000D01*
X17125000Y-21535000D02*
X17125000Y-20905653D01*
%TO.N,/CC2_RD*%
X18125000Y-21046000D02*
X17653000Y-20574000D01*
X18125000Y-22260000D02*
X18125000Y-21046000D01*
%TO.N,/CC2_RPUSB*%
X18625000Y-20784000D02*
X18415000Y-20574000D01*
X18625000Y-22260000D02*
X18625000Y-20784000D01*
%TO.N,/UART_TX*%
X16125000Y-22983000D02*
X17399000Y-24257000D01*
X16125000Y-22260000D02*
X16125000Y-22983000D01*
%TO.N,/UART_RX*%
X15866999Y-23757001D02*
X15367000Y-24257000D01*
X15866999Y-23239499D02*
X15866999Y-23757001D01*
X15625000Y-22997500D02*
X15866999Y-23239499D01*
X15625000Y-22260000D02*
X15625000Y-22997500D01*
%TO.N,/NRST*%
X16125000Y-13935000D02*
X16125000Y-13197500D01*
X16125000Y-13197500D02*
X16368500Y-12954000D01*
X20320000Y-13382750D02*
X20320000Y-13462000D01*
X19281649Y-12344399D02*
X20320000Y-13382750D01*
X18516602Y-12344399D02*
X19281649Y-12344399D01*
X17907001Y-12954000D02*
X18516602Y-12344399D01*
X16368500Y-12954000D02*
X17907001Y-12954000D01*
%TO.N,/INA_SCL*%
X12954000Y-5461000D02*
X12954000Y-5608478D01*
X10472500Y-7863000D02*
X11849434Y-7863000D01*
X11712500Y-18347500D02*
X12786694Y-18347500D01*
X12786694Y-18347500D02*
X13307848Y-18868654D01*
X13307848Y-18868654D02*
X13307848Y-19323564D01*
X12954000Y-6096000D02*
X12269217Y-6780783D01*
X12269217Y-6780783D02*
X12269217Y-7443217D01*
X11849434Y-7863000D02*
X12269217Y-7443217D01*
X12954000Y-5461000D02*
X12954000Y-6096000D01*
X14401790Y-7056269D02*
X14401790Y-7643356D01*
X13441521Y-6096000D02*
X14401790Y-7056269D01*
X12954000Y-6096000D02*
X13441521Y-6096000D01*
X14401790Y-7797790D02*
X14401790Y-7056268D01*
X14732000Y-9144000D02*
X14732000Y-8128000D01*
X14732000Y-8128000D02*
X14401790Y-7797790D01*
X13462000Y-9991290D02*
X13462000Y-10350500D01*
X14024680Y-9428610D02*
X13462000Y-9991290D01*
X14447390Y-9428610D02*
X14024680Y-9428610D01*
X14732000Y-9144000D02*
X14447390Y-9428610D01*
%TO.N,/INA_SDA*%
X11712500Y-17847500D02*
X10827990Y-17847500D01*
X10827990Y-17847500D02*
X10714245Y-17733755D01*
X15460000Y-7863000D02*
X16197500Y-7863000D01*
X15113000Y-7516000D02*
X15460000Y-7863000D01*
X15113000Y-6833505D02*
X15113000Y-7516000D01*
X13805285Y-5525791D02*
X15113000Y-6833505D01*
X13805285Y-4863715D02*
X13805285Y-5525791D01*
X14097000Y-4572000D02*
X13805285Y-4863715D01*
X14731997Y-10223503D02*
X14731997Y-10461753D01*
X16197500Y-8758000D02*
X14731997Y-10223503D01*
X16197500Y-7863000D02*
X16197500Y-8758000D01*
X14732000Y-10223500D02*
X16197500Y-8758000D01*
X14732000Y-10350500D02*
X14732000Y-10223500D01*
%TO.N,/VBUS_ALERT_L*%
X20049500Y-18859500D02*
X20037500Y-18847500D01*
X16935000Y-7213000D02*
X16197500Y-7213000D01*
X17272000Y-7550000D02*
X16935000Y-7213000D01*
X17272000Y-8445500D02*
X17272000Y-7550000D01*
X15367000Y-10350500D02*
X17272000Y-8445500D01*
X21209000Y-18413500D02*
X21209000Y-17970500D01*
X20775000Y-18847500D02*
X21209000Y-18413500D01*
X20037500Y-18847500D02*
X20775000Y-18847500D01*
%TO.N,/VCONN_ALERT_L*%
X21197000Y-17347500D02*
X21209000Y-17335500D01*
X20037500Y-17347500D02*
X21197000Y-17347500D01*
X14017750Y-3937000D02*
X14351000Y-3937000D01*
X13812254Y-5999746D02*
X13475075Y-5662559D01*
X13475075Y-5662559D02*
X13475075Y-4479675D01*
X14732000Y-6919493D02*
X13812254Y-5999746D01*
X14732000Y-7620000D02*
X14732000Y-6919493D01*
X15113000Y-8001000D02*
X14732000Y-7620000D01*
X15113000Y-9250493D02*
X15113000Y-8001000D01*
X13475075Y-4479675D02*
X14017750Y-3937000D01*
X14097000Y-10266494D02*
X15113000Y-9250493D01*
X14097000Y-10350500D02*
X14097000Y-10266494D01*
%TO.N,/CC2_BUF*%
X20037500Y-15347500D02*
X21463000Y-13922000D01*
X21463000Y-13922000D02*
X21463000Y-13081000D01*
%TO.N,/CC1_BUF*%
X19050000Y-12827000D02*
X18500988Y-12827000D01*
X18500988Y-12827000D02*
X18125000Y-13202988D01*
X18125000Y-13202988D02*
X18125000Y-13935000D01*
D29*
%TO.N,/VBUS_PLUG*%
X20604000Y-7600000D02*
X19451000Y-7600000D01*
D30*
X11210000Y-5913000D02*
X11557000Y-5566000D01*
X10472500Y-5913000D02*
X11210000Y-5913000D01*
X11557000Y-5566000D02*
X11557000Y-3810000D01*
D29*
X19387500Y-5100000D02*
X20604000Y-5100000D01*
D30*
X12295005Y-3073399D02*
X15957899Y-3073399D01*
X15957899Y-3073399D02*
X16197500Y-3313000D01*
X11685404Y-3683000D02*
X12295005Y-3073399D01*
X11684000Y-3683000D02*
X11685404Y-3683000D01*
X11684000Y-3683000D02*
X11557000Y-3810000D01*
D28*
%TO.N,/CC2_PLUG*%
X21090000Y-7100000D02*
X20117500Y-7100000D01*
X20117500Y-7100000D02*
X20002500Y-6985000D01*
X20002500Y-6985000D02*
X18923000Y-6985000D01*
X21090000Y-7100000D02*
X20371500Y-7100000D01*
X20371500Y-7100000D02*
X20193000Y-6921500D01*
X20193000Y-6921500D02*
X18796000Y-6921500D01*
D27*
%TO.N,/VBUS_RECEP*%
X7206621Y-7855930D02*
X7513431Y-8162740D01*
X7513431Y-8162740D02*
X7585260Y-8162740D01*
D29*
X5675000Y-5100000D02*
X6604000Y-5100000D01*
D27*
X7206621Y-7784100D02*
X7206621Y-7855930D01*
X7149100Y-7784100D02*
X7206621Y-7784100D01*
D28*
X7022521Y-7600000D02*
X7206621Y-7784100D01*
X5675000Y-7600000D02*
X7022521Y-7600000D01*
D27*
X7585260Y-8234569D02*
X7585260Y-8162740D01*
X7894431Y-8543740D02*
X7585260Y-8234569D01*
X8064500Y-8445500D02*
X7894431Y-8543740D01*
D28*
X6604000Y-5100000D02*
X6983540Y-5100000D01*
X6983540Y-5100000D02*
X7466355Y-4617185D01*
D27*
X8228355Y-3855185D02*
X8300185Y-3855185D01*
D31*
%TO.N,/RX1+*%
X20293199Y-4146800D02*
X20182170Y-4146800D01*
X20339999Y-4100000D02*
X20293199Y-4146800D01*
X21090000Y-4100000D02*
X20339999Y-4100000D01*
X20182170Y-4146800D02*
X19316700Y-3281330D01*
X18372170Y-1701800D02*
X19316700Y-2646330D01*
X7289800Y-3217830D02*
X7289800Y-2455830D01*
X6360830Y-4146800D02*
X7289800Y-3217830D01*
X6071800Y-4146800D02*
X6360830Y-4146800D01*
X8043830Y-1701800D02*
X18372170Y-1701800D01*
X6025000Y-4100000D02*
X6071800Y-4146800D01*
X7289800Y-2455830D02*
X8043830Y-1701800D01*
X5675000Y-4100000D02*
X6025000Y-4100000D01*
X19316700Y-3281330D02*
X19316700Y-2646330D01*
%TO.N,/RX1-*%
X20339999Y-4600000D02*
X20293199Y-4553200D01*
X21090000Y-4600000D02*
X20339999Y-4600000D01*
X20293199Y-4553200D02*
X20013830Y-4553200D01*
X20013830Y-4553200D02*
X18910300Y-3449670D01*
X18203830Y-2108200D02*
X18910300Y-2814670D01*
X8212170Y-2108200D02*
X18203830Y-2108200D01*
X7696200Y-2624170D02*
X8212170Y-2108200D01*
X7696200Y-3386170D02*
X7696200Y-2624170D01*
X6529170Y-4553200D02*
X7696200Y-3386170D01*
X6071800Y-4553200D02*
X6529170Y-4553200D01*
X6025000Y-4600000D02*
X6071800Y-4553200D01*
X5675000Y-4600000D02*
X6025000Y-4600000D01*
X18910300Y-3449670D02*
X18910300Y-2814670D01*
D30*
%TO.N,/SBU2*%
X20690520Y-5618480D02*
X20709000Y-5600000D01*
X17414750Y-4889500D02*
X17335500Y-4889500D01*
X18158651Y-5633401D02*
X17414750Y-4889500D01*
X20709000Y-5600000D02*
X19676934Y-5600000D01*
X19643533Y-5633401D02*
X18158651Y-5633401D01*
X19676934Y-5600000D02*
X19643533Y-5633401D01*
X8166111Y-5549889D02*
X8763000Y-4953000D01*
X5675000Y-5600000D02*
X5725111Y-5549889D01*
X5725111Y-5549889D02*
X8166111Y-5549889D01*
D31*
%TO.N,/TX2-*%
X18338800Y-10456830D02*
X17568830Y-11226800D01*
X8466170Y-11226800D02*
X7696200Y-10456830D01*
X17568830Y-11226800D02*
X8466170Y-11226800D01*
X20293199Y-8146800D02*
X19950330Y-8146800D01*
X21090000Y-8100000D02*
X20339999Y-8100000D01*
X20339999Y-8100000D02*
X20293199Y-8146800D01*
X18338800Y-9758330D02*
X18338800Y-10456830D01*
X19950330Y-8146800D02*
X18338800Y-9758330D01*
X6071800Y-8146800D02*
X6402170Y-8146800D01*
X6025000Y-8100000D02*
X6071800Y-8146800D01*
X5675000Y-8100000D02*
X6025000Y-8100000D01*
X7696200Y-9440830D02*
X7696200Y-10456830D01*
X6402170Y-8146800D02*
X7696200Y-9440830D01*
%TO.N,/TX2+*%
X18745200Y-10625170D02*
X17737170Y-11633200D01*
X17737170Y-11633200D02*
X8297830Y-11633200D01*
X8297830Y-11633200D02*
X7289800Y-10625170D01*
X20293199Y-8553200D02*
X20118670Y-8553200D01*
X20339999Y-8600000D02*
X20293199Y-8553200D01*
X21090000Y-8600000D02*
X20339999Y-8600000D01*
X18745200Y-9926670D02*
X18745200Y-10625170D01*
X20118670Y-8553200D02*
X18745200Y-9926670D01*
X6071800Y-8553200D02*
X6233830Y-8553200D01*
X6025000Y-8600000D02*
X6071800Y-8553200D01*
X5675000Y-8600000D02*
X6025000Y-8600000D01*
X7289800Y-9609170D02*
X7289800Y-10625170D01*
X6233830Y-8553200D02*
X7289800Y-9609170D01*
%TO.N,/USBC_D-*%
X5675000Y-6100000D02*
X6610863Y-6100000D01*
X6610863Y-6100000D02*
X6784653Y-6273790D01*
D30*
%TO.N,/USBC_D+*%
X7350212Y-6367636D02*
X7350212Y-6007090D01*
X6986857Y-6730991D02*
X7350212Y-6367636D01*
X6565196Y-6730991D02*
X6986857Y-6730991D01*
X6434205Y-6600000D02*
X6565196Y-6730991D01*
X5675000Y-6600000D02*
X6434205Y-6600000D01*
D31*
%TO.N,/USB_B_D+*%
X14190631Y-23520400D02*
X14122400Y-23520400D01*
X14671800Y-23039231D02*
X14190631Y-23520400D01*
X14671800Y-22306800D02*
X14671800Y-23039231D01*
X14625000Y-22260000D02*
X14671800Y-22306800D01*
%TO.N,/USB_B_D-*%
X14630401Y-23655368D02*
X14630401Y-23764241D01*
X15078200Y-23207569D02*
X14630401Y-23655368D01*
X15078200Y-22306800D02*
X15078200Y-23207569D01*
X14630401Y-23764241D02*
X14478000Y-23916642D01*
X15125000Y-22260000D02*
X15078200Y-22306800D01*
X14478000Y-23916642D02*
X14478000Y-24066500D01*
D30*
%TO.N,/TX_CLK*%
X20037500Y-16347500D02*
X19300000Y-16347500D01*
X20060299Y-16370299D02*
X20037500Y-16347500D01*
X21335742Y-16370299D02*
X20060299Y-16370299D01*
X10759500Y-16347500D02*
X11712500Y-16347500D01*
X10287000Y-15875000D02*
X10759500Y-16347500D01*
D29*
%TO.N,Net-(DS1-Pad1)*%
X24237000Y-22795000D02*
X23814000Y-22795000D01*
D30*
X24237000Y-21913500D02*
X23368000Y-21044500D01*
X24237000Y-22795000D02*
X24237000Y-21913500D01*
%TO.N,Net-(DS2-Pad1)*%
X24384000Y-21125298D02*
X24965601Y-21706899D01*
X24384000Y-21044500D02*
X24384000Y-21125298D01*
D28*
%TO.N,Net-(C5-Pad1)*%
X17125000Y-13935000D02*
X17125000Y-15514000D01*
X17125000Y-15514000D02*
X17018000Y-15621000D01*
D30*
%TO.N,/USB_B_ID*%
X22923500Y-17482700D02*
X22923500Y-16637000D01*
X22753200Y-17653000D02*
X22923500Y-17482700D01*
X22225000Y-17653000D02*
X22753200Y-17653000D01*
%TD*%
D31*
%TO.N,GND*%
X5802000Y-9973000D02*
X5822000Y-9973000D01*
X5822000Y-10227000D01*
X5802000Y-10227000D01*
X5802000Y-10885750D01*
X5897250Y-10981000D01*
X6175000Y-10982843D01*
X6249689Y-10975487D01*
X6321508Y-10953701D01*
X6387696Y-10918322D01*
X6405832Y-10903438D01*
X7911197Y-12408803D01*
X7930443Y-12424597D01*
X7952399Y-12436333D01*
X7976224Y-12443560D01*
X8001000Y-12446000D01*
X10295370Y-12446000D01*
X10257674Y-12537004D01*
X10236200Y-12644963D01*
X10236200Y-12755037D01*
X10257674Y-12862996D01*
X10299798Y-12964691D01*
X10360952Y-13056214D01*
X10438786Y-13134048D01*
X10505443Y-13178587D01*
X10505004Y-13178674D01*
X10403309Y-13220798D01*
X10311786Y-13281952D01*
X10233952Y-13359786D01*
X10172798Y-13451309D01*
X10130674Y-13553004D01*
X10109200Y-13660963D01*
X10109200Y-13771037D01*
X10130674Y-13878996D01*
X10172798Y-13980691D01*
X10233952Y-14072214D01*
X10311786Y-14150048D01*
X10403309Y-14211202D01*
X10505004Y-14253326D01*
X10612963Y-14274800D01*
X10723037Y-14274800D01*
X10830996Y-14253326D01*
X10932691Y-14211202D01*
X11024214Y-14150048D01*
X11102048Y-14072214D01*
X11163202Y-13980691D01*
X11205326Y-13878996D01*
X11226800Y-13771037D01*
X11226800Y-13660963D01*
X11205326Y-13553004D01*
X11163202Y-13451309D01*
X11102048Y-13359786D01*
X11024214Y-13281952D01*
X10957557Y-13237413D01*
X10957996Y-13237326D01*
X11059691Y-13195202D01*
X11151214Y-13134048D01*
X11229048Y-13056214D01*
X11290202Y-12964691D01*
X11332326Y-12862996D01*
X11353800Y-12755037D01*
X11353800Y-12644963D01*
X11332326Y-12537004D01*
X11294630Y-12446000D01*
X13433738Y-12446000D01*
X13408952Y-12470786D01*
X13347798Y-12562309D01*
X13305674Y-12664004D01*
X13284200Y-12771963D01*
X13284200Y-12882037D01*
X13288326Y-12902782D01*
X13274383Y-12898552D01*
X13200000Y-12891226D01*
X13050000Y-12891226D01*
X12975617Y-12898552D01*
X12904093Y-12920249D01*
X12838176Y-12955482D01*
X12780399Y-13002899D01*
X12732982Y-13060676D01*
X12697749Y-13126593D01*
X12676052Y-13198117D01*
X12668726Y-13272500D01*
X12668726Y-13903148D01*
X12667801Y-13912540D01*
X12667800Y-14890300D01*
X11788976Y-14890300D01*
X11729059Y-14884399D01*
X11729049Y-14884399D01*
X11706599Y-14882188D01*
X11684149Y-14884399D01*
X9903798Y-14884399D01*
X9881348Y-14882188D01*
X9858898Y-14884399D01*
X9858889Y-14884399D01*
X9791722Y-14891014D01*
X9705540Y-14917158D01*
X9626113Y-14959612D01*
X9556496Y-15016746D01*
X9542179Y-15034191D01*
X8709592Y-15866778D01*
X8692148Y-15881095D01*
X8677831Y-15898540D01*
X8677830Y-15898541D01*
X8635013Y-15950713D01*
X8609589Y-15998280D01*
X8592560Y-16030139D01*
X8566416Y-16116321D01*
X8559800Y-16183488D01*
X8559800Y-16183498D01*
X8557589Y-16205948D01*
X8559800Y-16228398D01*
X8559800Y-16232094D01*
X8543492Y-16248402D01*
X8491507Y-16326204D01*
X8178820Y-16013518D01*
X8178820Y-15229778D01*
X8180785Y-15209825D01*
X8178820Y-15189872D01*
X8178820Y-15189865D01*
X8172939Y-15130157D01*
X8165725Y-15106373D01*
X8149701Y-15053550D01*
X8149674Y-15053500D01*
X8135382Y-15026761D01*
X8135382Y-14958950D01*
X8113908Y-14850991D01*
X8071784Y-14749296D01*
X8010630Y-14657773D01*
X7932796Y-14579939D01*
X7841273Y-14518785D01*
X7739578Y-14476661D01*
X7631619Y-14455187D01*
X7521545Y-14455187D01*
X7413586Y-14476661D01*
X7311891Y-14518785D01*
X7245855Y-14562909D01*
X7158644Y-14504636D01*
X7056949Y-14462512D01*
X6948990Y-14441038D01*
X6838916Y-14441038D01*
X6730957Y-14462512D01*
X6629262Y-14504636D01*
X6537739Y-14565790D01*
X6459905Y-14643624D01*
X6398947Y-14734854D01*
X6369959Y-14731999D01*
X6369952Y-14731999D01*
X6349999Y-14730034D01*
X6330046Y-14731999D01*
X4409761Y-14731999D01*
X4356714Y-14678952D01*
X4265191Y-14617798D01*
X4163496Y-14575674D01*
X4055537Y-14554200D01*
X3945463Y-14554200D01*
X3837504Y-14575674D01*
X3735809Y-14617798D01*
X3644286Y-14678952D01*
X3566452Y-14756786D01*
X3505298Y-14848309D01*
X3463174Y-14950004D01*
X3441700Y-15057963D01*
X3441700Y-15168037D01*
X3463174Y-15275996D01*
X3505298Y-15377691D01*
X3566452Y-15469214D01*
X3644286Y-15547048D01*
X3735809Y-15608202D01*
X3802440Y-15635802D01*
X3776040Y-15685194D01*
X3758611Y-15742649D01*
X3752726Y-15802400D01*
X3752726Y-17362400D01*
X3758611Y-17422151D01*
X3776040Y-17479606D01*
X3804342Y-17532557D01*
X3842432Y-17578968D01*
X3888843Y-17617058D01*
X3941794Y-17645360D01*
X3999249Y-17662789D01*
X4059000Y-17668674D01*
X4709000Y-17668674D01*
X4768751Y-17662789D01*
X4826000Y-17645422D01*
X4826000Y-17653000D01*
X4833321Y-17727329D01*
X4855002Y-17798802D01*
X4890210Y-17864672D01*
X4937592Y-17922408D01*
X4995328Y-17969790D01*
X5061198Y-18004998D01*
X5132671Y-18026679D01*
X5207000Y-18034000D01*
X6731000Y-18034000D01*
X6805329Y-18026679D01*
X6876802Y-18004998D01*
X6942672Y-17969790D01*
X7000408Y-17922408D01*
X7047790Y-17864672D01*
X7082998Y-17798802D01*
X7104679Y-17727329D01*
X7112000Y-17653000D01*
X7112000Y-17030142D01*
X8185938Y-18104081D01*
X8198657Y-18119579D01*
X8214155Y-18132298D01*
X8214160Y-18132303D01*
X8231735Y-18146726D01*
X8260539Y-18170365D01*
X8331140Y-18208102D01*
X8407747Y-18231340D01*
X8467455Y-18237221D01*
X8467462Y-18237221D01*
X8487415Y-18239186D01*
X8507368Y-18237221D01*
X9321499Y-18237221D01*
X10535241Y-19450964D01*
X10541032Y-19458020D01*
X10469037Y-19443700D01*
X10358963Y-19443700D01*
X10251004Y-19465174D01*
X10149309Y-19507298D01*
X10057786Y-19568452D01*
X9979952Y-19646286D01*
X9918798Y-19737809D01*
X9876674Y-19839504D01*
X9860200Y-19922326D01*
X9860200Y-19917800D01*
X8881200Y-19917800D01*
X8881200Y-21068540D01*
X9051508Y-21131090D01*
X9263063Y-21055963D01*
X9446457Y-20937663D01*
X9603248Y-20785858D01*
X9727410Y-20606381D01*
X9814172Y-20406130D01*
X9860200Y-20192800D01*
X9860200Y-20082674D01*
X9876674Y-20165496D01*
X9918798Y-20267191D01*
X9975299Y-20351750D01*
X9918798Y-20436309D01*
X9876674Y-20538004D01*
X9855200Y-20645963D01*
X9855200Y-20756037D01*
X9876674Y-20863996D01*
X9918798Y-20965691D01*
X9979952Y-21057214D01*
X10057786Y-21135048D01*
X10149309Y-21196202D01*
X10251004Y-21238326D01*
X10358963Y-21259800D01*
X10469037Y-21259800D01*
X10512556Y-21251144D01*
X10540540Y-21253900D01*
X10540546Y-21253900D01*
X10560499Y-21255865D01*
X10580452Y-21253900D01*
X10865083Y-21253900D01*
X10904093Y-21274751D01*
X10975617Y-21296448D01*
X11050000Y-21303774D01*
X12375000Y-21303774D01*
X12449383Y-21296448D01*
X12507645Y-21278774D01*
X12693726Y-21278774D01*
X12693726Y-21464855D01*
X12676052Y-21523117D01*
X12674538Y-21538493D01*
X12619814Y-21515826D01*
X12502040Y-21492400D01*
X12381960Y-21492400D01*
X12264186Y-21515826D01*
X12198100Y-21543200D01*
X12077141Y-21543200D01*
X12031770Y-21505965D01*
X11952022Y-21463338D01*
X11865490Y-21437089D01*
X11775500Y-21428226D01*
X11465500Y-21428226D01*
X11375510Y-21437089D01*
X11288978Y-21463338D01*
X11209230Y-21505965D01*
X11139330Y-21563330D01*
X11081965Y-21633230D01*
X11039338Y-21712978D01*
X11013089Y-21799510D01*
X11004226Y-21889500D01*
X11004226Y-22013372D01*
X10995497Y-22102000D01*
X11004226Y-22190628D01*
X11004226Y-22314500D01*
X11013089Y-22404490D01*
X11039338Y-22491022D01*
X11079515Y-22566187D01*
X11039789Y-22598789D01*
X10992178Y-22656804D01*
X10956799Y-22722992D01*
X10935013Y-22794811D01*
X10927657Y-22869500D01*
X10929500Y-23014750D01*
X11024750Y-23110000D01*
X11493500Y-23110000D01*
X11493500Y-23090000D01*
X11747500Y-23090000D01*
X11747500Y-23110000D01*
X12216250Y-23110000D01*
X12311500Y-23014750D01*
X12313343Y-22869500D01*
X12305987Y-22794811D01*
X12284201Y-22722992D01*
X12265757Y-22688486D01*
X12381960Y-22711600D01*
X12502040Y-22711600D01*
X12619814Y-22688174D01*
X12636791Y-22681142D01*
X12636790Y-23184250D01*
X12627118Y-23196036D01*
X12575229Y-23293113D01*
X12543277Y-23398446D01*
X12532487Y-23507990D01*
X12543277Y-23617534D01*
X12566169Y-23693000D01*
X12449998Y-23693000D01*
X12449998Y-23788248D01*
X12354750Y-23693000D01*
X12302001Y-23692331D01*
X12305987Y-23679189D01*
X12313343Y-23604500D01*
X12311500Y-23459250D01*
X12216250Y-23364000D01*
X11747500Y-23364000D01*
X11747500Y-23890250D01*
X11839261Y-23982011D01*
X11834013Y-23999311D01*
X11826657Y-24074000D01*
X11828500Y-24161750D01*
X11923750Y-24257000D01*
X12450000Y-24257000D01*
X12450000Y-24237000D01*
X12704000Y-24237000D01*
X12704000Y-24257000D01*
X12724000Y-24257000D01*
X12724000Y-24511000D01*
X12704000Y-24511000D01*
X12704000Y-24531000D01*
X12450000Y-24531000D01*
X12450000Y-24511000D01*
X11923750Y-24511000D01*
X11855549Y-24579201D01*
X9599976Y-24579201D01*
X9628528Y-24552522D01*
X9738828Y-24398978D01*
X9817054Y-24226866D01*
X9860200Y-24042800D01*
X9860200Y-23717800D01*
X9031200Y-23717800D01*
X9031200Y-23737800D01*
X8777200Y-23737800D01*
X8777200Y-23717800D01*
X7948200Y-23717800D01*
X7948200Y-24042800D01*
X7991346Y-24226866D01*
X8069572Y-24398978D01*
X8179872Y-24552522D01*
X8208424Y-24579201D01*
X7783696Y-24579201D01*
X7787701Y-24571708D01*
X7809487Y-24499889D01*
X7816843Y-24425200D01*
X7815000Y-24047450D01*
X7719750Y-23952200D01*
X7111000Y-23952200D01*
X7111000Y-23972200D01*
X6857000Y-23972200D01*
X6857000Y-23952200D01*
X6837000Y-23952200D01*
X6837000Y-23698200D01*
X6857000Y-23698200D01*
X6857000Y-22939450D01*
X7111000Y-22939450D01*
X7111000Y-23698200D01*
X7719750Y-23698200D01*
X7813450Y-23604500D01*
X10927657Y-23604500D01*
X10935013Y-23679189D01*
X10956799Y-23751008D01*
X10992178Y-23817196D01*
X11039789Y-23875211D01*
X11097804Y-23922822D01*
X11163992Y-23958201D01*
X11235811Y-23979987D01*
X11310500Y-23987343D01*
X11398250Y-23985500D01*
X11493500Y-23890250D01*
X11493500Y-23364000D01*
X11024750Y-23364000D01*
X10929500Y-23459250D01*
X10927657Y-23604500D01*
X7813450Y-23604500D01*
X7815000Y-23602950D01*
X7816843Y-23225200D01*
X7809487Y-23150511D01*
X7805935Y-23138800D01*
X7948200Y-23138800D01*
X7948200Y-23463800D01*
X8777200Y-23463800D01*
X8777200Y-22414471D01*
X9031200Y-22414471D01*
X9031200Y-23463800D01*
X9860200Y-23463800D01*
X9860200Y-23138800D01*
X9817054Y-22954734D01*
X9738828Y-22782622D01*
X9628528Y-22629078D01*
X9490392Y-22500003D01*
X9329729Y-22400357D01*
X9177862Y-22349806D01*
X9031200Y-22414471D01*
X8777200Y-22414471D01*
X8630538Y-22349806D01*
X8478671Y-22400357D01*
X8318008Y-22500003D01*
X8179872Y-22629078D01*
X8069572Y-22782622D01*
X7991346Y-22954734D01*
X7948200Y-23138800D01*
X7805935Y-23138800D01*
X7787701Y-23078692D01*
X7752322Y-23012504D01*
X7704711Y-22954489D01*
X7646696Y-22906878D01*
X7580508Y-22871499D01*
X7508689Y-22849713D01*
X7434000Y-22842357D01*
X7206250Y-22844200D01*
X7111000Y-22939450D01*
X6857000Y-22939450D01*
X6765537Y-22847987D01*
X6815672Y-22821190D01*
X6873408Y-22773808D01*
X6902140Y-22738798D01*
X6949250Y-22738200D01*
X7044500Y-22642950D01*
X7044500Y-22174200D01*
X7298500Y-22174200D01*
X7298500Y-22642950D01*
X7393750Y-22738200D01*
X7539000Y-22740043D01*
X7613689Y-22732687D01*
X7685508Y-22710901D01*
X7751696Y-22675522D01*
X7809711Y-22627911D01*
X7857322Y-22569896D01*
X7892701Y-22503708D01*
X7914487Y-22431889D01*
X7921843Y-22357200D01*
X7920000Y-22269450D01*
X7824750Y-22174200D01*
X7298500Y-22174200D01*
X7044500Y-22174200D01*
X7024500Y-22174200D01*
X7024500Y-21920200D01*
X7044500Y-21920200D01*
X7044500Y-21900200D01*
X7298500Y-21900200D01*
X7298500Y-21920200D01*
X7824750Y-21920200D01*
X7920000Y-21824950D01*
X7921843Y-21737200D01*
X7914487Y-21662511D01*
X7892701Y-21590692D01*
X7857322Y-21524504D01*
X7822566Y-21482153D01*
X7863048Y-21465385D01*
X7978484Y-21388254D01*
X8076654Y-21290084D01*
X8153785Y-21174648D01*
X8206915Y-21046383D01*
X8209595Y-21032908D01*
X8245337Y-21055963D01*
X8456892Y-21131090D01*
X8627200Y-21068540D01*
X8627200Y-19917800D01*
X7648200Y-19917800D01*
X7648200Y-20145863D01*
X7598617Y-20136000D01*
X7459783Y-20136000D01*
X7323617Y-20163085D01*
X7195352Y-20216215D01*
X7079916Y-20293346D01*
X6985000Y-20388262D01*
X6985000Y-19388800D01*
X7648200Y-19388800D01*
X7648200Y-19663800D01*
X8627200Y-19663800D01*
X8627200Y-18513060D01*
X8881200Y-18513060D01*
X8881200Y-19663800D01*
X9860200Y-19663800D01*
X9860200Y-19388800D01*
X9814172Y-19175470D01*
X9727410Y-18975219D01*
X9603248Y-18795742D01*
X9446457Y-18643937D01*
X9263063Y-18525637D01*
X9051508Y-18450510D01*
X8881200Y-18513060D01*
X8627200Y-18513060D01*
X8456892Y-18450510D01*
X8245337Y-18525637D01*
X8061943Y-18643937D01*
X7905152Y-18795742D01*
X7780990Y-18975219D01*
X7694228Y-19175470D01*
X7648200Y-19388800D01*
X6985000Y-19388800D01*
X6985000Y-18542000D01*
X6977679Y-18467671D01*
X6955998Y-18396198D01*
X6920790Y-18330328D01*
X6873408Y-18272592D01*
X6815672Y-18225210D01*
X6749802Y-18190002D01*
X6678329Y-18168321D01*
X6604000Y-18161000D01*
X5828521Y-18161000D01*
X5805508Y-18148699D01*
X5733689Y-18126913D01*
X5659000Y-18119557D01*
X5556250Y-18121400D01*
X5516650Y-18161000D01*
X5151350Y-18161000D01*
X5111750Y-18121400D01*
X5009000Y-18119557D01*
X4934311Y-18126913D01*
X4862492Y-18148699D01*
X4839479Y-18161000D01*
X4064000Y-18161000D01*
X3989671Y-18168321D01*
X3918198Y-18190002D01*
X3852328Y-18225210D01*
X3794592Y-18272592D01*
X3747210Y-18330328D01*
X3712002Y-18396198D01*
X3690321Y-18467671D01*
X3683000Y-18542000D01*
X3683000Y-20404926D01*
X3269000Y-20404926D01*
X3178034Y-20413885D01*
X3106167Y-20435686D01*
X3076654Y-20391516D01*
X2978484Y-20293346D01*
X2863048Y-20216215D01*
X2734783Y-20163085D01*
X2598617Y-20136000D01*
X2459783Y-20136000D01*
X2410200Y-20145863D01*
X2410200Y-19917800D01*
X1431200Y-19917800D01*
X1431200Y-21068540D01*
X1601508Y-21131090D01*
X1813063Y-21055963D01*
X1848805Y-21032908D01*
X1851485Y-21046383D01*
X1904615Y-21174648D01*
X1981746Y-21290084D01*
X2079916Y-21388254D01*
X2195352Y-21465385D01*
X2323617Y-21518515D01*
X2459783Y-21545600D01*
X2598617Y-21545600D01*
X2734783Y-21518515D01*
X2863048Y-21465385D01*
X2882864Y-21452145D01*
X2932701Y-21512872D01*
X2932701Y-21715398D01*
X2905326Y-21781486D01*
X2881900Y-21899260D01*
X2881900Y-22019340D01*
X2905326Y-22137114D01*
X2932700Y-22203201D01*
X2932701Y-23174691D01*
X2927726Y-23225200D01*
X2927726Y-24425200D01*
X2933611Y-24484951D01*
X2951040Y-24542406D01*
X2979342Y-24595357D01*
X3017432Y-24641768D01*
X3063843Y-24679858D01*
X3116794Y-24708160D01*
X3174249Y-24725589D01*
X3234000Y-24731474D01*
X4134000Y-24731474D01*
X4193751Y-24725589D01*
X4251206Y-24708160D01*
X4304157Y-24679858D01*
X4350568Y-24641768D01*
X4388658Y-24595357D01*
X4416960Y-24542406D01*
X4434389Y-24484951D01*
X4440274Y-24425200D01*
X4440274Y-23225200D01*
X4434389Y-23165449D01*
X4416960Y-23107994D01*
X4388658Y-23055043D01*
X4350568Y-23008632D01*
X4304157Y-22970542D01*
X4251206Y-22942240D01*
X4193751Y-22924811D01*
X4134000Y-22918926D01*
X4050300Y-22918926D01*
X4050300Y-22884051D01*
X4064000Y-22885400D01*
X5579301Y-22885400D01*
X5579300Y-24302050D01*
X5577089Y-24324500D01*
X5579300Y-24346950D01*
X5579300Y-24346959D01*
X5585915Y-24414126D01*
X5612059Y-24500308D01*
X5654513Y-24579735D01*
X5711647Y-24649353D01*
X5729097Y-24663674D01*
X6135622Y-25070200D01*
X524131Y-25070200D01*
X473695Y-25065255D01*
X440697Y-25055292D01*
X410258Y-25039107D01*
X383550Y-25017324D01*
X361578Y-24990765D01*
X345181Y-24960439D01*
X334989Y-24927514D01*
X329800Y-24878148D01*
X329800Y-24413216D01*
X429872Y-24552522D01*
X568008Y-24681597D01*
X728671Y-24781243D01*
X880538Y-24831794D01*
X1027200Y-24767129D01*
X1027200Y-23717800D01*
X1281200Y-23717800D01*
X1281200Y-24767129D01*
X1427862Y-24831794D01*
X1579729Y-24781243D01*
X1740392Y-24681597D01*
X1878528Y-24552522D01*
X1988828Y-24398978D01*
X2067054Y-24226866D01*
X2110200Y-24042800D01*
X2110200Y-23717800D01*
X1281200Y-23717800D01*
X1027200Y-23717800D01*
X1007200Y-23717800D01*
X1007200Y-23463800D01*
X1027200Y-23463800D01*
X1027200Y-22414471D01*
X1281200Y-22414471D01*
X1281200Y-23463800D01*
X2110200Y-23463800D01*
X2110200Y-23138800D01*
X2067054Y-22954734D01*
X1988828Y-22782622D01*
X1878528Y-22629078D01*
X1740392Y-22500003D01*
X1579729Y-22400357D01*
X1427862Y-22349806D01*
X1281200Y-22414471D01*
X1027200Y-22414471D01*
X880538Y-22349806D01*
X728671Y-22400357D01*
X568008Y-22500003D01*
X429872Y-22629078D01*
X329800Y-22768384D01*
X329800Y-20603634D01*
X330990Y-20606381D01*
X455152Y-20785858D01*
X611943Y-20937663D01*
X795337Y-21055963D01*
X1006892Y-21131090D01*
X1177200Y-21068540D01*
X1177200Y-19917800D01*
X1157200Y-19917800D01*
X1157200Y-19663800D01*
X1177200Y-19663800D01*
X1177200Y-18513060D01*
X1431200Y-18513060D01*
X1431200Y-19663800D01*
X2410200Y-19663800D01*
X2410200Y-19388800D01*
X2364172Y-19175470D01*
X2277410Y-18975219D01*
X2153248Y-18795742D01*
X1996457Y-18643937D01*
X1813063Y-18525637D01*
X1601508Y-18450510D01*
X1431200Y-18513060D01*
X1177200Y-18513060D01*
X1006892Y-18450510D01*
X795337Y-18525637D01*
X611943Y-18643937D01*
X455152Y-18795742D01*
X330990Y-18975219D01*
X329800Y-18977966D01*
X329800Y-13660963D01*
X2235200Y-13660963D01*
X2235200Y-13771037D01*
X2256674Y-13878996D01*
X2298798Y-13980691D01*
X2359952Y-14072214D01*
X2437786Y-14150048D01*
X2529309Y-14211202D01*
X2631004Y-14253326D01*
X2738963Y-14274800D01*
X2849037Y-14274800D01*
X2956996Y-14253326D01*
X3058691Y-14211202D01*
X3150214Y-14150048D01*
X3228048Y-14072214D01*
X3289202Y-13980691D01*
X3331326Y-13878996D01*
X3352800Y-13771037D01*
X3352800Y-13660963D01*
X3331326Y-13553004D01*
X3289202Y-13451309D01*
X3228048Y-13359786D01*
X3150214Y-13281952D01*
X3058691Y-13220798D01*
X2956996Y-13178674D01*
X2849037Y-13157200D01*
X2738963Y-13157200D01*
X2631004Y-13178674D01*
X2529309Y-13220798D01*
X2437786Y-13281952D01*
X2359952Y-13359786D01*
X2298798Y-13451309D01*
X2256674Y-13553004D01*
X2235200Y-13660963D01*
X329800Y-13660963D01*
X329800Y-12998491D01*
X8778788Y-12998491D01*
X8778788Y-13108565D01*
X8800262Y-13216524D01*
X8842386Y-13318219D01*
X8903540Y-13409742D01*
X8981374Y-13487576D01*
X9072897Y-13548730D01*
X9174592Y-13590854D01*
X9282551Y-13612328D01*
X9392625Y-13612328D01*
X9500584Y-13590854D01*
X9602279Y-13548730D01*
X9693802Y-13487576D01*
X9771636Y-13409742D01*
X9832790Y-13318219D01*
X9874914Y-13216524D01*
X9896388Y-13108565D01*
X9896388Y-12998491D01*
X9874914Y-12890532D01*
X9832790Y-12788837D01*
X9771636Y-12697314D01*
X9693802Y-12619480D01*
X9602279Y-12558326D01*
X9500584Y-12516202D01*
X9392625Y-12494728D01*
X9282551Y-12494728D01*
X9174592Y-12516202D01*
X9072897Y-12558326D01*
X8981374Y-12619480D01*
X8903540Y-12697314D01*
X8842386Y-12788837D01*
X8800262Y-12890532D01*
X8778788Y-12998491D01*
X329800Y-12998491D01*
X329800Y-12732724D01*
X1992750Y-12731000D01*
X2088000Y-12635750D01*
X2088000Y-11727000D01*
X2342000Y-11727000D01*
X2342000Y-12635750D01*
X2437250Y-12731000D01*
X4215000Y-12732843D01*
X4289689Y-12725487D01*
X4361508Y-12703701D01*
X4427696Y-12668322D01*
X4485711Y-12620711D01*
X4533322Y-12562696D01*
X4568701Y-12496508D01*
X4590487Y-12424689D01*
X4597843Y-12350000D01*
X4596000Y-11822250D01*
X4500750Y-11727000D01*
X2342000Y-11727000D01*
X2088000Y-11727000D01*
X2068000Y-11727000D01*
X2068000Y-11473000D01*
X2088000Y-11473000D01*
X2088000Y-11453000D01*
X2342000Y-11453000D01*
X2342000Y-11473000D01*
X4500750Y-11473000D01*
X4587128Y-11386622D01*
X4612478Y-11386711D01*
X4617065Y-11386245D01*
X4791304Y-11367317D01*
X4820618Y-11361193D01*
X4849977Y-11355486D01*
X4854386Y-11354138D01*
X5021630Y-11301727D01*
X5049151Y-11290045D01*
X5076888Y-11278726D01*
X5080951Y-11276547D01*
X5234829Y-11192650D01*
X5259594Y-11175820D01*
X5284567Y-11159353D01*
X5288130Y-11156427D01*
X5422783Y-11044238D01*
X5443813Y-11022912D01*
X5465105Y-11001916D01*
X5468031Y-10998353D01*
X5578328Y-10862148D01*
X5594797Y-10837172D01*
X5611626Y-10812409D01*
X5613804Y-10808346D01*
X5695544Y-10653311D01*
X5706857Y-10625588D01*
X5718545Y-10598054D01*
X5719893Y-10593645D01*
X5769964Y-10425685D01*
X5775668Y-10396338D01*
X5781795Y-10367012D01*
X5782261Y-10362426D01*
X5798755Y-10187940D01*
X5798650Y-10158014D01*
X5798964Y-10128087D01*
X5798530Y-10123497D01*
X5780819Y-9949131D01*
X5774905Y-9919799D01*
X5769398Y-9890374D01*
X5768080Y-9885956D01*
X5716837Y-9718351D01*
X5705361Y-9690783D01*
X5694223Y-9662935D01*
X5692073Y-9658857D01*
X5677136Y-9631000D01*
X5802000Y-9631000D01*
X5802000Y-9973000D01*
%TA.AperFunction,Conductor*%
D32*
G36*
X5802000Y-9973000D02*
G01*
X5822000Y-9973000D01*
X5822000Y-10227000D01*
X5802000Y-10227000D01*
X5802000Y-10885750D01*
X5897250Y-10981000D01*
X6175000Y-10982843D01*
X6249689Y-10975487D01*
X6321508Y-10953701D01*
X6387696Y-10918322D01*
X6405832Y-10903438D01*
X7911197Y-12408803D01*
X7930443Y-12424597D01*
X7952399Y-12436333D01*
X7976224Y-12443560D01*
X8001000Y-12446000D01*
X10295370Y-12446000D01*
X10257674Y-12537004D01*
X10236200Y-12644963D01*
X10236200Y-12755037D01*
X10257674Y-12862996D01*
X10299798Y-12964691D01*
X10360952Y-13056214D01*
X10438786Y-13134048D01*
X10505443Y-13178587D01*
X10505004Y-13178674D01*
X10403309Y-13220798D01*
X10311786Y-13281952D01*
X10233952Y-13359786D01*
X10172798Y-13451309D01*
X10130674Y-13553004D01*
X10109200Y-13660963D01*
X10109200Y-13771037D01*
X10130674Y-13878996D01*
X10172798Y-13980691D01*
X10233952Y-14072214D01*
X10311786Y-14150048D01*
X10403309Y-14211202D01*
X10505004Y-14253326D01*
X10612963Y-14274800D01*
X10723037Y-14274800D01*
X10830996Y-14253326D01*
X10932691Y-14211202D01*
X11024214Y-14150048D01*
X11102048Y-14072214D01*
X11163202Y-13980691D01*
X11205326Y-13878996D01*
X11226800Y-13771037D01*
X11226800Y-13660963D01*
X11205326Y-13553004D01*
X11163202Y-13451309D01*
X11102048Y-13359786D01*
X11024214Y-13281952D01*
X10957557Y-13237413D01*
X10957996Y-13237326D01*
X11059691Y-13195202D01*
X11151214Y-13134048D01*
X11229048Y-13056214D01*
X11290202Y-12964691D01*
X11332326Y-12862996D01*
X11353800Y-12755037D01*
X11353800Y-12644963D01*
X11332326Y-12537004D01*
X11294630Y-12446000D01*
X13433738Y-12446000D01*
X13408952Y-12470786D01*
X13347798Y-12562309D01*
X13305674Y-12664004D01*
X13284200Y-12771963D01*
X13284200Y-12882037D01*
X13288326Y-12902782D01*
X13274383Y-12898552D01*
X13200000Y-12891226D01*
X13050000Y-12891226D01*
X12975617Y-12898552D01*
X12904093Y-12920249D01*
X12838176Y-12955482D01*
X12780399Y-13002899D01*
X12732982Y-13060676D01*
X12697749Y-13126593D01*
X12676052Y-13198117D01*
X12668726Y-13272500D01*
X12668726Y-13903148D01*
X12667801Y-13912540D01*
X12667800Y-14890300D01*
X11788976Y-14890300D01*
X11729059Y-14884399D01*
X11729049Y-14884399D01*
X11706599Y-14882188D01*
X11684149Y-14884399D01*
X9903798Y-14884399D01*
X9881348Y-14882188D01*
X9858898Y-14884399D01*
X9858889Y-14884399D01*
X9791722Y-14891014D01*
X9705540Y-14917158D01*
X9626113Y-14959612D01*
X9556496Y-15016746D01*
X9542179Y-15034191D01*
X8709592Y-15866778D01*
X8692148Y-15881095D01*
X8677831Y-15898540D01*
X8677830Y-15898541D01*
X8635013Y-15950713D01*
X8609589Y-15998280D01*
X8592560Y-16030139D01*
X8566416Y-16116321D01*
X8559800Y-16183488D01*
X8559800Y-16183498D01*
X8557589Y-16205948D01*
X8559800Y-16228398D01*
X8559800Y-16232094D01*
X8543492Y-16248402D01*
X8491507Y-16326204D01*
X8178820Y-16013518D01*
X8178820Y-15229778D01*
X8180785Y-15209825D01*
X8178820Y-15189872D01*
X8178820Y-15189865D01*
X8172939Y-15130157D01*
X8165725Y-15106373D01*
X8149701Y-15053550D01*
X8149674Y-15053500D01*
X8135382Y-15026761D01*
X8135382Y-14958950D01*
X8113908Y-14850991D01*
X8071784Y-14749296D01*
X8010630Y-14657773D01*
X7932796Y-14579939D01*
X7841273Y-14518785D01*
X7739578Y-14476661D01*
X7631619Y-14455187D01*
X7521545Y-14455187D01*
X7413586Y-14476661D01*
X7311891Y-14518785D01*
X7245855Y-14562909D01*
X7158644Y-14504636D01*
X7056949Y-14462512D01*
X6948990Y-14441038D01*
X6838916Y-14441038D01*
X6730957Y-14462512D01*
X6629262Y-14504636D01*
X6537739Y-14565790D01*
X6459905Y-14643624D01*
X6398947Y-14734854D01*
X6369959Y-14731999D01*
X6369952Y-14731999D01*
X6349999Y-14730034D01*
X6330046Y-14731999D01*
X4409761Y-14731999D01*
X4356714Y-14678952D01*
X4265191Y-14617798D01*
X4163496Y-14575674D01*
X4055537Y-14554200D01*
X3945463Y-14554200D01*
X3837504Y-14575674D01*
X3735809Y-14617798D01*
X3644286Y-14678952D01*
X3566452Y-14756786D01*
X3505298Y-14848309D01*
X3463174Y-14950004D01*
X3441700Y-15057963D01*
X3441700Y-15168037D01*
X3463174Y-15275996D01*
X3505298Y-15377691D01*
X3566452Y-15469214D01*
X3644286Y-15547048D01*
X3735809Y-15608202D01*
X3802440Y-15635802D01*
X3776040Y-15685194D01*
X3758611Y-15742649D01*
X3752726Y-15802400D01*
X3752726Y-17362400D01*
X3758611Y-17422151D01*
X3776040Y-17479606D01*
X3804342Y-17532557D01*
X3842432Y-17578968D01*
X3888843Y-17617058D01*
X3941794Y-17645360D01*
X3999249Y-17662789D01*
X4059000Y-17668674D01*
X4709000Y-17668674D01*
X4768751Y-17662789D01*
X4826000Y-17645422D01*
X4826000Y-17653000D01*
X4833321Y-17727329D01*
X4855002Y-17798802D01*
X4890210Y-17864672D01*
X4937592Y-17922408D01*
X4995328Y-17969790D01*
X5061198Y-18004998D01*
X5132671Y-18026679D01*
X5207000Y-18034000D01*
X6731000Y-18034000D01*
X6805329Y-18026679D01*
X6876802Y-18004998D01*
X6942672Y-17969790D01*
X7000408Y-17922408D01*
X7047790Y-17864672D01*
X7082998Y-17798802D01*
X7104679Y-17727329D01*
X7112000Y-17653000D01*
X7112000Y-17030142D01*
X8185938Y-18104081D01*
X8198657Y-18119579D01*
X8214155Y-18132298D01*
X8214160Y-18132303D01*
X8231735Y-18146726D01*
X8260539Y-18170365D01*
X8331140Y-18208102D01*
X8407747Y-18231340D01*
X8467455Y-18237221D01*
X8467462Y-18237221D01*
X8487415Y-18239186D01*
X8507368Y-18237221D01*
X9321499Y-18237221D01*
X10535241Y-19450964D01*
X10541032Y-19458020D01*
X10469037Y-19443700D01*
X10358963Y-19443700D01*
X10251004Y-19465174D01*
X10149309Y-19507298D01*
X10057786Y-19568452D01*
X9979952Y-19646286D01*
X9918798Y-19737809D01*
X9876674Y-19839504D01*
X9860200Y-19922326D01*
X9860200Y-19917800D01*
X8881200Y-19917800D01*
X8881200Y-21068540D01*
X9051508Y-21131090D01*
X9263063Y-21055963D01*
X9446457Y-20937663D01*
X9603248Y-20785858D01*
X9727410Y-20606381D01*
X9814172Y-20406130D01*
X9860200Y-20192800D01*
X9860200Y-20082674D01*
X9876674Y-20165496D01*
X9918798Y-20267191D01*
X9975299Y-20351750D01*
X9918798Y-20436309D01*
X9876674Y-20538004D01*
X9855200Y-20645963D01*
X9855200Y-20756037D01*
X9876674Y-20863996D01*
X9918798Y-20965691D01*
X9979952Y-21057214D01*
X10057786Y-21135048D01*
X10149309Y-21196202D01*
X10251004Y-21238326D01*
X10358963Y-21259800D01*
X10469037Y-21259800D01*
X10512556Y-21251144D01*
X10540540Y-21253900D01*
X10540546Y-21253900D01*
X10560499Y-21255865D01*
X10580452Y-21253900D01*
X10865083Y-21253900D01*
X10904093Y-21274751D01*
X10975617Y-21296448D01*
X11050000Y-21303774D01*
X12375000Y-21303774D01*
X12449383Y-21296448D01*
X12507645Y-21278774D01*
X12693726Y-21278774D01*
X12693726Y-21464855D01*
X12676052Y-21523117D01*
X12674538Y-21538493D01*
X12619814Y-21515826D01*
X12502040Y-21492400D01*
X12381960Y-21492400D01*
X12264186Y-21515826D01*
X12198100Y-21543200D01*
X12077141Y-21543200D01*
X12031770Y-21505965D01*
X11952022Y-21463338D01*
X11865490Y-21437089D01*
X11775500Y-21428226D01*
X11465500Y-21428226D01*
X11375510Y-21437089D01*
X11288978Y-21463338D01*
X11209230Y-21505965D01*
X11139330Y-21563330D01*
X11081965Y-21633230D01*
X11039338Y-21712978D01*
X11013089Y-21799510D01*
X11004226Y-21889500D01*
X11004226Y-22013372D01*
X10995497Y-22102000D01*
X11004226Y-22190628D01*
X11004226Y-22314500D01*
X11013089Y-22404490D01*
X11039338Y-22491022D01*
X11079515Y-22566187D01*
X11039789Y-22598789D01*
X10992178Y-22656804D01*
X10956799Y-22722992D01*
X10935013Y-22794811D01*
X10927657Y-22869500D01*
X10929500Y-23014750D01*
X11024750Y-23110000D01*
X11493500Y-23110000D01*
X11493500Y-23090000D01*
X11747500Y-23090000D01*
X11747500Y-23110000D01*
X12216250Y-23110000D01*
X12311500Y-23014750D01*
X12313343Y-22869500D01*
X12305987Y-22794811D01*
X12284201Y-22722992D01*
X12265757Y-22688486D01*
X12381960Y-22711600D01*
X12502040Y-22711600D01*
X12619814Y-22688174D01*
X12636791Y-22681142D01*
X12636790Y-23184250D01*
X12627118Y-23196036D01*
X12575229Y-23293113D01*
X12543277Y-23398446D01*
X12532487Y-23507990D01*
X12543277Y-23617534D01*
X12566169Y-23693000D01*
X12449998Y-23693000D01*
X12449998Y-23788248D01*
X12354750Y-23693000D01*
X12302001Y-23692331D01*
X12305987Y-23679189D01*
X12313343Y-23604500D01*
X12311500Y-23459250D01*
X12216250Y-23364000D01*
X11747500Y-23364000D01*
X11747500Y-23890250D01*
X11839261Y-23982011D01*
X11834013Y-23999311D01*
X11826657Y-24074000D01*
X11828500Y-24161750D01*
X11923750Y-24257000D01*
X12450000Y-24257000D01*
X12450000Y-24237000D01*
X12704000Y-24237000D01*
X12704000Y-24257000D01*
X12724000Y-24257000D01*
X12724000Y-24511000D01*
X12704000Y-24511000D01*
X12704000Y-24531000D01*
X12450000Y-24531000D01*
X12450000Y-24511000D01*
X11923750Y-24511000D01*
X11855549Y-24579201D01*
X9599976Y-24579201D01*
X9628528Y-24552522D01*
X9738828Y-24398978D01*
X9817054Y-24226866D01*
X9860200Y-24042800D01*
X9860200Y-23717800D01*
X9031200Y-23717800D01*
X9031200Y-23737800D01*
X8777200Y-23737800D01*
X8777200Y-23717800D01*
X7948200Y-23717800D01*
X7948200Y-24042800D01*
X7991346Y-24226866D01*
X8069572Y-24398978D01*
X8179872Y-24552522D01*
X8208424Y-24579201D01*
X7783696Y-24579201D01*
X7787701Y-24571708D01*
X7809487Y-24499889D01*
X7816843Y-24425200D01*
X7815000Y-24047450D01*
X7719750Y-23952200D01*
X7111000Y-23952200D01*
X7111000Y-23972200D01*
X6857000Y-23972200D01*
X6857000Y-23952200D01*
X6837000Y-23952200D01*
X6837000Y-23698200D01*
X6857000Y-23698200D01*
X6857000Y-22939450D01*
X7111000Y-22939450D01*
X7111000Y-23698200D01*
X7719750Y-23698200D01*
X7813450Y-23604500D01*
X10927657Y-23604500D01*
X10935013Y-23679189D01*
X10956799Y-23751008D01*
X10992178Y-23817196D01*
X11039789Y-23875211D01*
X11097804Y-23922822D01*
X11163992Y-23958201D01*
X11235811Y-23979987D01*
X11310500Y-23987343D01*
X11398250Y-23985500D01*
X11493500Y-23890250D01*
X11493500Y-23364000D01*
X11024750Y-23364000D01*
X10929500Y-23459250D01*
X10927657Y-23604500D01*
X7813450Y-23604500D01*
X7815000Y-23602950D01*
X7816843Y-23225200D01*
X7809487Y-23150511D01*
X7805935Y-23138800D01*
X7948200Y-23138800D01*
X7948200Y-23463800D01*
X8777200Y-23463800D01*
X8777200Y-22414471D01*
X9031200Y-22414471D01*
X9031200Y-23463800D01*
X9860200Y-23463800D01*
X9860200Y-23138800D01*
X9817054Y-22954734D01*
X9738828Y-22782622D01*
X9628528Y-22629078D01*
X9490392Y-22500003D01*
X9329729Y-22400357D01*
X9177862Y-22349806D01*
X9031200Y-22414471D01*
X8777200Y-22414471D01*
X8630538Y-22349806D01*
X8478671Y-22400357D01*
X8318008Y-22500003D01*
X8179872Y-22629078D01*
X8069572Y-22782622D01*
X7991346Y-22954734D01*
X7948200Y-23138800D01*
X7805935Y-23138800D01*
X7787701Y-23078692D01*
X7752322Y-23012504D01*
X7704711Y-22954489D01*
X7646696Y-22906878D01*
X7580508Y-22871499D01*
X7508689Y-22849713D01*
X7434000Y-22842357D01*
X7206250Y-22844200D01*
X7111000Y-22939450D01*
X6857000Y-22939450D01*
X6765537Y-22847987D01*
X6815672Y-22821190D01*
X6873408Y-22773808D01*
X6902140Y-22738798D01*
X6949250Y-22738200D01*
X7044500Y-22642950D01*
X7044500Y-22174200D01*
X7298500Y-22174200D01*
X7298500Y-22642950D01*
X7393750Y-22738200D01*
X7539000Y-22740043D01*
X7613689Y-22732687D01*
X7685508Y-22710901D01*
X7751696Y-22675522D01*
X7809711Y-22627911D01*
X7857322Y-22569896D01*
X7892701Y-22503708D01*
X7914487Y-22431889D01*
X7921843Y-22357200D01*
X7920000Y-22269450D01*
X7824750Y-22174200D01*
X7298500Y-22174200D01*
X7044500Y-22174200D01*
X7024500Y-22174200D01*
X7024500Y-21920200D01*
X7044500Y-21920200D01*
X7044500Y-21900200D01*
X7298500Y-21900200D01*
X7298500Y-21920200D01*
X7824750Y-21920200D01*
X7920000Y-21824950D01*
X7921843Y-21737200D01*
X7914487Y-21662511D01*
X7892701Y-21590692D01*
X7857322Y-21524504D01*
X7822566Y-21482153D01*
X7863048Y-21465385D01*
X7978484Y-21388254D01*
X8076654Y-21290084D01*
X8153785Y-21174648D01*
X8206915Y-21046383D01*
X8209595Y-21032908D01*
X8245337Y-21055963D01*
X8456892Y-21131090D01*
X8627200Y-21068540D01*
X8627200Y-19917800D01*
X7648200Y-19917800D01*
X7648200Y-20145863D01*
X7598617Y-20136000D01*
X7459783Y-20136000D01*
X7323617Y-20163085D01*
X7195352Y-20216215D01*
X7079916Y-20293346D01*
X6985000Y-20388262D01*
X6985000Y-19388800D01*
X7648200Y-19388800D01*
X7648200Y-19663800D01*
X8627200Y-19663800D01*
X8627200Y-18513060D01*
X8881200Y-18513060D01*
X8881200Y-19663800D01*
X9860200Y-19663800D01*
X9860200Y-19388800D01*
X9814172Y-19175470D01*
X9727410Y-18975219D01*
X9603248Y-18795742D01*
X9446457Y-18643937D01*
X9263063Y-18525637D01*
X9051508Y-18450510D01*
X8881200Y-18513060D01*
X8627200Y-18513060D01*
X8456892Y-18450510D01*
X8245337Y-18525637D01*
X8061943Y-18643937D01*
X7905152Y-18795742D01*
X7780990Y-18975219D01*
X7694228Y-19175470D01*
X7648200Y-19388800D01*
X6985000Y-19388800D01*
X6985000Y-18542000D01*
X6977679Y-18467671D01*
X6955998Y-18396198D01*
X6920790Y-18330328D01*
X6873408Y-18272592D01*
X6815672Y-18225210D01*
X6749802Y-18190002D01*
X6678329Y-18168321D01*
X6604000Y-18161000D01*
X5828521Y-18161000D01*
X5805508Y-18148699D01*
X5733689Y-18126913D01*
X5659000Y-18119557D01*
X5556250Y-18121400D01*
X5516650Y-18161000D01*
X5151350Y-18161000D01*
X5111750Y-18121400D01*
X5009000Y-18119557D01*
X4934311Y-18126913D01*
X4862492Y-18148699D01*
X4839479Y-18161000D01*
X4064000Y-18161000D01*
X3989671Y-18168321D01*
X3918198Y-18190002D01*
X3852328Y-18225210D01*
X3794592Y-18272592D01*
X3747210Y-18330328D01*
X3712002Y-18396198D01*
X3690321Y-18467671D01*
X3683000Y-18542000D01*
X3683000Y-20404926D01*
X3269000Y-20404926D01*
X3178034Y-20413885D01*
X3106167Y-20435686D01*
X3076654Y-20391516D01*
X2978484Y-20293346D01*
X2863048Y-20216215D01*
X2734783Y-20163085D01*
X2598617Y-20136000D01*
X2459783Y-20136000D01*
X2410200Y-20145863D01*
X2410200Y-19917800D01*
X1431200Y-19917800D01*
X1431200Y-21068540D01*
X1601508Y-21131090D01*
X1813063Y-21055963D01*
X1848805Y-21032908D01*
X1851485Y-21046383D01*
X1904615Y-21174648D01*
X1981746Y-21290084D01*
X2079916Y-21388254D01*
X2195352Y-21465385D01*
X2323617Y-21518515D01*
X2459783Y-21545600D01*
X2598617Y-21545600D01*
X2734783Y-21518515D01*
X2863048Y-21465385D01*
X2882864Y-21452145D01*
X2932701Y-21512872D01*
X2932701Y-21715398D01*
X2905326Y-21781486D01*
X2881900Y-21899260D01*
X2881900Y-22019340D01*
X2905326Y-22137114D01*
X2932700Y-22203201D01*
X2932701Y-23174691D01*
X2927726Y-23225200D01*
X2927726Y-24425200D01*
X2933611Y-24484951D01*
X2951040Y-24542406D01*
X2979342Y-24595357D01*
X3017432Y-24641768D01*
X3063843Y-24679858D01*
X3116794Y-24708160D01*
X3174249Y-24725589D01*
X3234000Y-24731474D01*
X4134000Y-24731474D01*
X4193751Y-24725589D01*
X4251206Y-24708160D01*
X4304157Y-24679858D01*
X4350568Y-24641768D01*
X4388658Y-24595357D01*
X4416960Y-24542406D01*
X4434389Y-24484951D01*
X4440274Y-24425200D01*
X4440274Y-23225200D01*
X4434389Y-23165449D01*
X4416960Y-23107994D01*
X4388658Y-23055043D01*
X4350568Y-23008632D01*
X4304157Y-22970542D01*
X4251206Y-22942240D01*
X4193751Y-22924811D01*
X4134000Y-22918926D01*
X4050300Y-22918926D01*
X4050300Y-22884051D01*
X4064000Y-22885400D01*
X5579301Y-22885400D01*
X5579300Y-24302050D01*
X5577089Y-24324500D01*
X5579300Y-24346950D01*
X5579300Y-24346959D01*
X5585915Y-24414126D01*
X5612059Y-24500308D01*
X5654513Y-24579735D01*
X5711647Y-24649353D01*
X5729097Y-24663674D01*
X6135622Y-25070200D01*
X524131Y-25070200D01*
X473695Y-25065255D01*
X440697Y-25055292D01*
X410258Y-25039107D01*
X383550Y-25017324D01*
X361578Y-24990765D01*
X345181Y-24960439D01*
X334989Y-24927514D01*
X329800Y-24878148D01*
X329800Y-24413216D01*
X429872Y-24552522D01*
X568008Y-24681597D01*
X728671Y-24781243D01*
X880538Y-24831794D01*
X1027200Y-24767129D01*
X1027200Y-23717800D01*
X1281200Y-23717800D01*
X1281200Y-24767129D01*
X1427862Y-24831794D01*
X1579729Y-24781243D01*
X1740392Y-24681597D01*
X1878528Y-24552522D01*
X1988828Y-24398978D01*
X2067054Y-24226866D01*
X2110200Y-24042800D01*
X2110200Y-23717800D01*
X1281200Y-23717800D01*
X1027200Y-23717800D01*
X1007200Y-23717800D01*
X1007200Y-23463800D01*
X1027200Y-23463800D01*
X1027200Y-22414471D01*
X1281200Y-22414471D01*
X1281200Y-23463800D01*
X2110200Y-23463800D01*
X2110200Y-23138800D01*
X2067054Y-22954734D01*
X1988828Y-22782622D01*
X1878528Y-22629078D01*
X1740392Y-22500003D01*
X1579729Y-22400357D01*
X1427862Y-22349806D01*
X1281200Y-22414471D01*
X1027200Y-22414471D01*
X880538Y-22349806D01*
X728671Y-22400357D01*
X568008Y-22500003D01*
X429872Y-22629078D01*
X329800Y-22768384D01*
X329800Y-20603634D01*
X330990Y-20606381D01*
X455152Y-20785858D01*
X611943Y-20937663D01*
X795337Y-21055963D01*
X1006892Y-21131090D01*
X1177200Y-21068540D01*
X1177200Y-19917800D01*
X1157200Y-19917800D01*
X1157200Y-19663800D01*
X1177200Y-19663800D01*
X1177200Y-18513060D01*
X1431200Y-18513060D01*
X1431200Y-19663800D01*
X2410200Y-19663800D01*
X2410200Y-19388800D01*
X2364172Y-19175470D01*
X2277410Y-18975219D01*
X2153248Y-18795742D01*
X1996457Y-18643937D01*
X1813063Y-18525637D01*
X1601508Y-18450510D01*
X1431200Y-18513060D01*
X1177200Y-18513060D01*
X1006892Y-18450510D01*
X795337Y-18525637D01*
X611943Y-18643937D01*
X455152Y-18795742D01*
X330990Y-18975219D01*
X329800Y-18977966D01*
X329800Y-13660963D01*
X2235200Y-13660963D01*
X2235200Y-13771037D01*
X2256674Y-13878996D01*
X2298798Y-13980691D01*
X2359952Y-14072214D01*
X2437786Y-14150048D01*
X2529309Y-14211202D01*
X2631004Y-14253326D01*
X2738963Y-14274800D01*
X2849037Y-14274800D01*
X2956996Y-14253326D01*
X3058691Y-14211202D01*
X3150214Y-14150048D01*
X3228048Y-14072214D01*
X3289202Y-13980691D01*
X3331326Y-13878996D01*
X3352800Y-13771037D01*
X3352800Y-13660963D01*
X3331326Y-13553004D01*
X3289202Y-13451309D01*
X3228048Y-13359786D01*
X3150214Y-13281952D01*
X3058691Y-13220798D01*
X2956996Y-13178674D01*
X2849037Y-13157200D01*
X2738963Y-13157200D01*
X2631004Y-13178674D01*
X2529309Y-13220798D01*
X2437786Y-13281952D01*
X2359952Y-13359786D01*
X2298798Y-13451309D01*
X2256674Y-13553004D01*
X2235200Y-13660963D01*
X329800Y-13660963D01*
X329800Y-12998491D01*
X8778788Y-12998491D01*
X8778788Y-13108565D01*
X8800262Y-13216524D01*
X8842386Y-13318219D01*
X8903540Y-13409742D01*
X8981374Y-13487576D01*
X9072897Y-13548730D01*
X9174592Y-13590854D01*
X9282551Y-13612328D01*
X9392625Y-13612328D01*
X9500584Y-13590854D01*
X9602279Y-13548730D01*
X9693802Y-13487576D01*
X9771636Y-13409742D01*
X9832790Y-13318219D01*
X9874914Y-13216524D01*
X9896388Y-13108565D01*
X9896388Y-12998491D01*
X9874914Y-12890532D01*
X9832790Y-12788837D01*
X9771636Y-12697314D01*
X9693802Y-12619480D01*
X9602279Y-12558326D01*
X9500584Y-12516202D01*
X9392625Y-12494728D01*
X9282551Y-12494728D01*
X9174592Y-12516202D01*
X9072897Y-12558326D01*
X8981374Y-12619480D01*
X8903540Y-12697314D01*
X8842386Y-12788837D01*
X8800262Y-12890532D01*
X8778788Y-12998491D01*
X329800Y-12998491D01*
X329800Y-12732724D01*
X1992750Y-12731000D01*
X2088000Y-12635750D01*
X2088000Y-11727000D01*
X2342000Y-11727000D01*
X2342000Y-12635750D01*
X2437250Y-12731000D01*
X4215000Y-12732843D01*
X4289689Y-12725487D01*
X4361508Y-12703701D01*
X4427696Y-12668322D01*
X4485711Y-12620711D01*
X4533322Y-12562696D01*
X4568701Y-12496508D01*
X4590487Y-12424689D01*
X4597843Y-12350000D01*
X4596000Y-11822250D01*
X4500750Y-11727000D01*
X2342000Y-11727000D01*
X2088000Y-11727000D01*
X2068000Y-11727000D01*
X2068000Y-11473000D01*
X2088000Y-11473000D01*
X2088000Y-11453000D01*
X2342000Y-11453000D01*
X2342000Y-11473000D01*
X4500750Y-11473000D01*
X4587128Y-11386622D01*
X4612478Y-11386711D01*
X4617065Y-11386245D01*
X4791304Y-11367317D01*
X4820618Y-11361193D01*
X4849977Y-11355486D01*
X4854386Y-11354138D01*
X5021630Y-11301727D01*
X5049151Y-11290045D01*
X5076888Y-11278726D01*
X5080951Y-11276547D01*
X5234829Y-11192650D01*
X5259594Y-11175820D01*
X5284567Y-11159353D01*
X5288130Y-11156427D01*
X5422783Y-11044238D01*
X5443813Y-11022912D01*
X5465105Y-11001916D01*
X5468031Y-10998353D01*
X5578328Y-10862148D01*
X5594797Y-10837172D01*
X5611626Y-10812409D01*
X5613804Y-10808346D01*
X5695544Y-10653311D01*
X5706857Y-10625588D01*
X5718545Y-10598054D01*
X5719893Y-10593645D01*
X5769964Y-10425685D01*
X5775668Y-10396338D01*
X5781795Y-10367012D01*
X5782261Y-10362426D01*
X5798755Y-10187940D01*
X5798650Y-10158014D01*
X5798964Y-10128087D01*
X5798530Y-10123497D01*
X5780819Y-9949131D01*
X5774905Y-9919799D01*
X5769398Y-9890374D01*
X5768080Y-9885956D01*
X5716837Y-9718351D01*
X5705361Y-9690783D01*
X5694223Y-9662935D01*
X5692073Y-9658857D01*
X5677136Y-9631000D01*
X5802000Y-9631000D01*
X5802000Y-9973000D01*
G37*
%TD.AperFunction*%
D31*
X21705232Y-20720259D02*
X21717952Y-20735758D01*
X21733450Y-20748477D01*
X21733455Y-20748482D01*
X21736274Y-20750796D01*
X21734685Y-20756034D01*
X21725726Y-20847000D01*
X21725726Y-21242000D01*
X21734685Y-21332966D01*
X21761219Y-21420435D01*
X21804307Y-21501048D01*
X21862294Y-21571706D01*
X21932952Y-21629693D01*
X21945600Y-21636454D01*
X21945600Y-21866164D01*
X21723038Y-22088726D01*
X21237000Y-22088726D01*
X21177249Y-22094611D01*
X21119794Y-22112040D01*
X21066843Y-22140342D01*
X21020432Y-22178432D01*
X20982342Y-22224843D01*
X20954040Y-22277794D01*
X20936611Y-22335249D01*
X20930726Y-22395000D01*
X20930726Y-23195000D01*
X20936611Y-23254751D01*
X20954040Y-23312206D01*
X20982342Y-23365157D01*
X21020432Y-23411568D01*
X21066843Y-23449658D01*
X21119794Y-23477960D01*
X21175967Y-23495000D01*
X21119794Y-23512040D01*
X21066843Y-23540342D01*
X21020432Y-23578432D01*
X20982342Y-23624843D01*
X20954040Y-23677794D01*
X20936611Y-23735249D01*
X20930726Y-23795000D01*
X20930726Y-23813100D01*
X20720298Y-23813100D01*
X20682706Y-23767294D01*
X20669912Y-23756794D01*
X20715696Y-23732322D01*
X20773711Y-23684711D01*
X20821322Y-23626696D01*
X20856701Y-23560508D01*
X20878487Y-23488689D01*
X20885843Y-23414000D01*
X20884000Y-23268750D01*
X20788750Y-23173500D01*
X20320000Y-23173500D01*
X20320000Y-23193500D01*
X20066000Y-23193500D01*
X20066000Y-23173500D01*
X19597250Y-23173500D01*
X19502000Y-23268750D01*
X19500157Y-23414000D01*
X19507513Y-23488689D01*
X19529299Y-23560508D01*
X19564678Y-23626696D01*
X19612289Y-23684711D01*
X19670304Y-23732322D01*
X19670670Y-23732517D01*
X19628294Y-23767294D01*
X19570307Y-23837952D01*
X19558000Y-23860977D01*
X19545693Y-23837952D01*
X19487706Y-23767294D01*
X19467195Y-23750461D01*
X19481800Y-23677037D01*
X19481800Y-23566963D01*
X19460326Y-23459004D01*
X19418202Y-23357309D01*
X19357048Y-23265786D01*
X19279214Y-23187952D01*
X19187691Y-23126798D01*
X19085996Y-23084674D01*
X19047635Y-23077044D01*
X19052251Y-23068407D01*
X19073948Y-22996883D01*
X19081274Y-22922500D01*
X19081274Y-21597500D01*
X19073948Y-21523117D01*
X19056274Y-21464855D01*
X19056274Y-21278774D01*
X19075400Y-21278774D01*
X19075400Y-21396040D01*
X19098826Y-21513814D01*
X19144779Y-21624754D01*
X19211492Y-21724598D01*
X19296402Y-21809508D01*
X19396246Y-21876221D01*
X19462333Y-21903595D01*
X19576726Y-22017988D01*
X19576726Y-22124000D01*
X19585589Y-22213990D01*
X19611838Y-22300522D01*
X19652015Y-22375687D01*
X19612289Y-22408289D01*
X19564678Y-22466304D01*
X19529299Y-22532492D01*
X19507513Y-22604311D01*
X19500157Y-22679000D01*
X19502000Y-22824250D01*
X19597250Y-22919500D01*
X20066000Y-22919500D01*
X20066000Y-22899500D01*
X20320000Y-22899500D01*
X20320000Y-22919500D01*
X20788750Y-22919500D01*
X20884000Y-22824250D01*
X20885843Y-22679000D01*
X20878487Y-22604311D01*
X20856701Y-22532492D01*
X20821322Y-22466304D01*
X20773711Y-22408289D01*
X20733985Y-22375687D01*
X20774162Y-22300522D01*
X20800411Y-22213990D01*
X20809274Y-22124000D01*
X20809274Y-21699000D01*
X20800411Y-21609010D01*
X20774162Y-21522478D01*
X20751800Y-21480642D01*
X20751800Y-21298672D01*
X20774383Y-21296448D01*
X20845907Y-21274751D01*
X20911824Y-21239518D01*
X20969601Y-21192101D01*
X21017018Y-21134324D01*
X21052251Y-21068407D01*
X21073948Y-20996883D01*
X21081274Y-20922500D01*
X21081274Y-20772500D01*
X21077086Y-20729980D01*
X21093322Y-20710196D01*
X21128701Y-20644008D01*
X21150487Y-20572189D01*
X21157843Y-20497500D01*
X21156000Y-20465750D01*
X21060750Y-20370500D01*
X20272491Y-20370500D01*
X20252377Y-20359749D01*
X20147044Y-20327797D01*
X20131000Y-20326217D01*
X20131000Y-20303774D01*
X20164500Y-20303774D01*
X20164500Y-20324500D01*
X21060750Y-20324500D01*
X21131350Y-20253900D01*
X21238874Y-20253900D01*
X21705232Y-20720259D01*
%TA.AperFunction,Conductor*%
D32*
G36*
X21705232Y-20720259D02*
G01*
X21717952Y-20735758D01*
X21733450Y-20748477D01*
X21733455Y-20748482D01*
X21736274Y-20750796D01*
X21734685Y-20756034D01*
X21725726Y-20847000D01*
X21725726Y-21242000D01*
X21734685Y-21332966D01*
X21761219Y-21420435D01*
X21804307Y-21501048D01*
X21862294Y-21571706D01*
X21932952Y-21629693D01*
X21945600Y-21636454D01*
X21945600Y-21866164D01*
X21723038Y-22088726D01*
X21237000Y-22088726D01*
X21177249Y-22094611D01*
X21119794Y-22112040D01*
X21066843Y-22140342D01*
X21020432Y-22178432D01*
X20982342Y-22224843D01*
X20954040Y-22277794D01*
X20936611Y-22335249D01*
X20930726Y-22395000D01*
X20930726Y-23195000D01*
X20936611Y-23254751D01*
X20954040Y-23312206D01*
X20982342Y-23365157D01*
X21020432Y-23411568D01*
X21066843Y-23449658D01*
X21119794Y-23477960D01*
X21175967Y-23495000D01*
X21119794Y-23512040D01*
X21066843Y-23540342D01*
X21020432Y-23578432D01*
X20982342Y-23624843D01*
X20954040Y-23677794D01*
X20936611Y-23735249D01*
X20930726Y-23795000D01*
X20930726Y-23813100D01*
X20720298Y-23813100D01*
X20682706Y-23767294D01*
X20669912Y-23756794D01*
X20715696Y-23732322D01*
X20773711Y-23684711D01*
X20821322Y-23626696D01*
X20856701Y-23560508D01*
X20878487Y-23488689D01*
X20885843Y-23414000D01*
X20884000Y-23268750D01*
X20788750Y-23173500D01*
X20320000Y-23173500D01*
X20320000Y-23193500D01*
X20066000Y-23193500D01*
X20066000Y-23173500D01*
X19597250Y-23173500D01*
X19502000Y-23268750D01*
X19500157Y-23414000D01*
X19507513Y-23488689D01*
X19529299Y-23560508D01*
X19564678Y-23626696D01*
X19612289Y-23684711D01*
X19670304Y-23732322D01*
X19670670Y-23732517D01*
X19628294Y-23767294D01*
X19570307Y-23837952D01*
X19558000Y-23860977D01*
X19545693Y-23837952D01*
X19487706Y-23767294D01*
X19467195Y-23750461D01*
X19481800Y-23677037D01*
X19481800Y-23566963D01*
X19460326Y-23459004D01*
X19418202Y-23357309D01*
X19357048Y-23265786D01*
X19279214Y-23187952D01*
X19187691Y-23126798D01*
X19085996Y-23084674D01*
X19047635Y-23077044D01*
X19052251Y-23068407D01*
X19073948Y-22996883D01*
X19081274Y-22922500D01*
X19081274Y-21597500D01*
X19073948Y-21523117D01*
X19056274Y-21464855D01*
X19056274Y-21278774D01*
X19075400Y-21278774D01*
X19075400Y-21396040D01*
X19098826Y-21513814D01*
X19144779Y-21624754D01*
X19211492Y-21724598D01*
X19296402Y-21809508D01*
X19396246Y-21876221D01*
X19462333Y-21903595D01*
X19576726Y-22017988D01*
X19576726Y-22124000D01*
X19585589Y-22213990D01*
X19611838Y-22300522D01*
X19652015Y-22375687D01*
X19612289Y-22408289D01*
X19564678Y-22466304D01*
X19529299Y-22532492D01*
X19507513Y-22604311D01*
X19500157Y-22679000D01*
X19502000Y-22824250D01*
X19597250Y-22919500D01*
X20066000Y-22919500D01*
X20066000Y-22899500D01*
X20320000Y-22899500D01*
X20320000Y-22919500D01*
X20788750Y-22919500D01*
X20884000Y-22824250D01*
X20885843Y-22679000D01*
X20878487Y-22604311D01*
X20856701Y-22532492D01*
X20821322Y-22466304D01*
X20773711Y-22408289D01*
X20733985Y-22375687D01*
X20774162Y-22300522D01*
X20800411Y-22213990D01*
X20809274Y-22124000D01*
X20809274Y-21699000D01*
X20800411Y-21609010D01*
X20774162Y-21522478D01*
X20751800Y-21480642D01*
X20751800Y-21298672D01*
X20774383Y-21296448D01*
X20845907Y-21274751D01*
X20911824Y-21239518D01*
X20969601Y-21192101D01*
X21017018Y-21134324D01*
X21052251Y-21068407D01*
X21073948Y-20996883D01*
X21081274Y-20922500D01*
X21081274Y-20772500D01*
X21077086Y-20729980D01*
X21093322Y-20710196D01*
X21128701Y-20644008D01*
X21150487Y-20572189D01*
X21157843Y-20497500D01*
X21156000Y-20465750D01*
X21060750Y-20370500D01*
X20272491Y-20370500D01*
X20252377Y-20359749D01*
X20147044Y-20327797D01*
X20131000Y-20326217D01*
X20131000Y-20303774D01*
X20164500Y-20303774D01*
X20164500Y-20324500D01*
X21060750Y-20324500D01*
X21131350Y-20253900D01*
X21238874Y-20253900D01*
X21705232Y-20720259D01*
G37*
%TD.AperFunction*%
D31*
X13668726Y-22301976D02*
X13668726Y-22387000D01*
X13648000Y-22387000D01*
X13648000Y-22407000D01*
X13602000Y-22407000D01*
X13602000Y-22387000D01*
X13581274Y-22387000D01*
X13581274Y-22301976D01*
X13625000Y-22258250D01*
X13668726Y-22301976D01*
%TA.AperFunction,Conductor*%
D32*
G36*
X13668726Y-22301976D02*
G01*
X13668726Y-22387000D01*
X13648000Y-22387000D01*
X13648000Y-22407000D01*
X13602000Y-22407000D01*
X13602000Y-22387000D01*
X13581274Y-22387000D01*
X13581274Y-22301976D01*
X13625000Y-22258250D01*
X13668726Y-22301976D01*
G37*
%TD.AperFunction*%
D31*
X19959000Y-9348250D02*
X19957157Y-9380000D01*
X19964513Y-9454689D01*
X19984854Y-9521745D01*
X19911611Y-9573312D01*
X19771171Y-9720775D01*
X19662198Y-9892803D01*
X19599316Y-10074508D01*
X19662908Y-10233000D01*
X21063000Y-10233000D01*
X21063000Y-10213000D01*
X21225200Y-10213000D01*
X21225200Y-11082079D01*
X21223435Y-11100000D01*
X21230478Y-11171513D01*
X21251338Y-11240278D01*
X21285212Y-11303653D01*
X21317000Y-11342387D01*
X21317000Y-11391000D01*
X21369546Y-11391000D01*
X21371791Y-11392842D01*
X21386347Y-11404788D01*
X21449722Y-11438662D01*
X21518487Y-11459522D01*
X21590000Y-11466565D01*
X21607921Y-11464800D01*
X21913663Y-11464800D01*
X21875279Y-11522246D01*
X21829326Y-11633186D01*
X21805900Y-11750960D01*
X21805900Y-11871040D01*
X21829326Y-11988814D01*
X21875279Y-12099754D01*
X21941992Y-12199598D01*
X22026902Y-12284508D01*
X22126746Y-12351221D01*
X22237686Y-12397174D01*
X22355460Y-12420600D01*
X22475540Y-12420600D01*
X22593314Y-12397174D01*
X22704254Y-12351221D01*
X22804098Y-12284508D01*
X22855736Y-12232870D01*
X22871678Y-12262696D01*
X22919289Y-12320711D01*
X22977304Y-12368322D01*
X23043492Y-12403701D01*
X23115311Y-12425487D01*
X23190000Y-12432843D01*
X24067750Y-12431000D01*
X24163000Y-12335750D01*
X24163000Y-11427000D01*
X24143000Y-11427000D01*
X24143000Y-11173000D01*
X24163000Y-11173000D01*
X24163000Y-10914800D01*
X24417000Y-10914800D01*
X24417000Y-11173000D01*
X24437000Y-11173000D01*
X24437000Y-11427000D01*
X24417000Y-11427000D01*
X24417000Y-12335750D01*
X24512250Y-12431000D01*
X25070200Y-12432172D01*
X25070201Y-21157957D01*
X25020638Y-21148099D01*
X25010274Y-21148099D01*
X25010274Y-20847000D01*
X25001315Y-20756034D01*
X24974781Y-20668565D01*
X24931693Y-20587952D01*
X24873706Y-20517294D01*
X24803048Y-20459307D01*
X24780023Y-20447000D01*
X24803048Y-20434693D01*
X24873706Y-20376706D01*
X24931693Y-20306048D01*
X24974781Y-20225435D01*
X25001315Y-20137966D01*
X25010274Y-20047000D01*
X25010274Y-19652000D01*
X25001315Y-19561034D01*
X24974781Y-19473565D01*
X24931693Y-19392952D01*
X24873706Y-19322294D01*
X24803048Y-19264307D01*
X24722435Y-19221219D01*
X24634966Y-19194685D01*
X24544000Y-19185726D01*
X24224000Y-19185726D01*
X24133034Y-19194685D01*
X24045565Y-19221219D01*
X23964952Y-19264307D01*
X23894294Y-19322294D01*
X23876000Y-19344586D01*
X23857706Y-19322294D01*
X23787048Y-19264307D01*
X23706435Y-19221219D01*
X23618966Y-19194685D01*
X23528000Y-19185726D01*
X23355300Y-19185726D01*
X23355300Y-19185463D01*
X23345859Y-19138001D01*
X23676446Y-19138001D01*
X23696399Y-19139966D01*
X23716352Y-19138001D01*
X23716359Y-19138001D01*
X23776067Y-19132120D01*
X23852674Y-19108882D01*
X23923275Y-19071145D01*
X23985157Y-19020359D01*
X23997881Y-19004855D01*
X24193462Y-18809274D01*
X24450000Y-18809274D01*
X24509751Y-18803389D01*
X24567206Y-18785960D01*
X24620157Y-18757658D01*
X24666568Y-18719568D01*
X24704658Y-18673157D01*
X24732960Y-18620206D01*
X24750389Y-18562751D01*
X24756274Y-18503000D01*
X24756274Y-18103000D01*
X24750389Y-18043249D01*
X24732960Y-17985794D01*
X24728794Y-17978000D01*
X24732960Y-17970206D01*
X24750389Y-17912751D01*
X24756274Y-17853000D01*
X24756274Y-17453000D01*
X24750389Y-17393249D01*
X24732960Y-17335794D01*
X24728794Y-17328000D01*
X24732960Y-17320206D01*
X24750389Y-17262751D01*
X24756274Y-17203000D01*
X24756274Y-16803000D01*
X24750389Y-16743249D01*
X24732960Y-16685794D01*
X24704658Y-16632843D01*
X24666568Y-16586432D01*
X24620157Y-16548342D01*
X24567206Y-16520040D01*
X24509751Y-16502611D01*
X24503528Y-16501998D01*
X24586116Y-16419410D01*
X24657776Y-16312164D01*
X24707136Y-16192998D01*
X24732300Y-16066492D01*
X24732300Y-15937508D01*
X24707136Y-15811002D01*
X24657776Y-15691836D01*
X24586116Y-15584590D01*
X24494910Y-15493384D01*
X24387664Y-15421724D01*
X24268498Y-15372364D01*
X24141992Y-15347200D01*
X24013008Y-15347200D01*
X23886502Y-15372364D01*
X23767336Y-15421724D01*
X23660090Y-15493384D01*
X23568884Y-15584590D01*
X23497224Y-15691836D01*
X23447864Y-15811002D01*
X23422700Y-15937508D01*
X23422700Y-16066492D01*
X23447864Y-16192998D01*
X23497224Y-16312164D01*
X23568884Y-16419410D01*
X23660090Y-16510616D01*
X23678016Y-16522594D01*
X23629843Y-16548342D01*
X23583432Y-16586432D01*
X23545342Y-16632843D01*
X23517040Y-16685794D01*
X23499611Y-16743249D01*
X23493726Y-16803000D01*
X23493726Y-17203000D01*
X23499611Y-17262751D01*
X23517040Y-17320206D01*
X23521206Y-17328000D01*
X23517040Y-17335794D01*
X23499611Y-17393249D01*
X23493726Y-17453000D01*
X23493726Y-17853000D01*
X23499611Y-17912751D01*
X23517040Y-17970206D01*
X23521206Y-17978000D01*
X23517040Y-17985794D01*
X23499611Y-18043249D01*
X23493726Y-18103000D01*
X23493726Y-18325201D01*
X22611102Y-18325201D01*
X22591149Y-18323236D01*
X22571196Y-18325201D01*
X22571189Y-18325201D01*
X22511481Y-18331082D01*
X22434874Y-18354320D01*
X22394314Y-18376000D01*
X22352000Y-18376000D01*
X22352000Y-18389600D01*
X22098000Y-18389600D01*
X22098000Y-18376000D01*
X22078000Y-18376000D01*
X22078000Y-18230000D01*
X22098000Y-18230000D01*
X22098000Y-18159274D01*
X22352000Y-18159274D01*
X22352000Y-18230000D01*
X22835750Y-18230000D01*
X22931000Y-18134750D01*
X22932843Y-18103000D01*
X22925487Y-18028311D01*
X22923767Y-18022642D01*
X22980076Y-17992544D01*
X23041958Y-17941758D01*
X23054682Y-17926254D01*
X23196755Y-17784181D01*
X23212258Y-17771458D01*
X23263044Y-17709576D01*
X23300781Y-17638975D01*
X23302192Y-17634324D01*
X23324019Y-17562369D01*
X23325126Y-17551124D01*
X23329900Y-17502660D01*
X23329900Y-17502653D01*
X23331865Y-17482700D01*
X23329900Y-17462747D01*
X23329900Y-17020862D01*
X23357548Y-16993214D01*
X23418702Y-16901691D01*
X23460826Y-16799996D01*
X23482300Y-16692037D01*
X23482300Y-16581963D01*
X23460826Y-16474004D01*
X23418702Y-16372309D01*
X23357548Y-16280786D01*
X23279714Y-16202952D01*
X23188191Y-16141798D01*
X23086496Y-16099674D01*
X22978537Y-16078200D01*
X22929971Y-16078200D01*
X22932300Y-16066492D01*
X22932300Y-15937508D01*
X22907136Y-15811002D01*
X22857776Y-15691836D01*
X22786116Y-15584590D01*
X22694910Y-15493384D01*
X22587664Y-15421724D01*
X22468498Y-15372364D01*
X22341992Y-15347200D01*
X22213008Y-15347200D01*
X22086502Y-15372364D01*
X21967336Y-15421724D01*
X21860090Y-15493384D01*
X21768884Y-15584590D01*
X21697224Y-15691836D01*
X21647864Y-15811002D01*
X21631046Y-15895552D01*
X21600433Y-15875097D01*
X21498738Y-15832973D01*
X21390779Y-15811499D01*
X21280705Y-15811499D01*
X21172746Y-15832973D01*
X21081274Y-15870862D01*
X21081274Y-15772500D01*
X21073948Y-15698117D01*
X21052251Y-15626593D01*
X21036701Y-15597500D01*
X21052251Y-15568407D01*
X21073948Y-15496883D01*
X21081274Y-15422500D01*
X21081274Y-15272500D01*
X21073948Y-15198117D01*
X21052251Y-15126593D01*
X21017018Y-15060676D01*
X20969601Y-15002899D01*
X20962590Y-14997146D01*
X21736255Y-14223481D01*
X21751758Y-14210758D01*
X21802544Y-14148876D01*
X21840281Y-14078275D01*
X21863519Y-14001668D01*
X21869400Y-13941960D01*
X21869400Y-13941954D01*
X21871365Y-13922001D01*
X21869400Y-13902048D01*
X21869400Y-13464862D01*
X21897048Y-13437214D01*
X21958202Y-13345691D01*
X22000326Y-13243996D01*
X22021800Y-13136037D01*
X22021800Y-13025963D01*
X22000326Y-12918004D01*
X21958202Y-12816309D01*
X21897048Y-12724786D01*
X21819214Y-12646952D01*
X21727691Y-12585798D01*
X21625996Y-12543674D01*
X21518037Y-12522200D01*
X21407963Y-12522200D01*
X21300004Y-12543674D01*
X21198309Y-12585798D01*
X21106786Y-12646952D01*
X21028952Y-12724786D01*
X20967798Y-12816309D01*
X20925674Y-12918004D01*
X20923764Y-12927605D01*
X20833030Y-12836871D01*
X20701216Y-12748796D01*
X20554751Y-12688128D01*
X20399266Y-12657200D01*
X20240734Y-12657200D01*
X20181057Y-12669071D01*
X19583131Y-12071145D01*
X19570407Y-12055641D01*
X19508525Y-12004855D01*
X19437924Y-11967118D01*
X19361317Y-11943880D01*
X19301609Y-11937999D01*
X19301602Y-11937999D01*
X19281649Y-11936034D01*
X19261696Y-11937999D01*
X18536554Y-11937999D01*
X18531595Y-11937511D01*
X19457303Y-11011803D01*
X19473097Y-10992557D01*
X19484833Y-10970601D01*
X19492060Y-10946776D01*
X19494500Y-10922000D01*
X19494500Y-10645492D01*
X19599316Y-10645492D01*
X19662198Y-10827197D01*
X19771171Y-10999225D01*
X19911611Y-11146688D01*
X20078121Y-11263919D01*
X20264302Y-11346413D01*
X20463000Y-11391000D01*
X21063000Y-11391000D01*
X21063000Y-10487000D01*
X19662908Y-10487000D01*
X19599316Y-10645492D01*
X19494500Y-10645492D01*
X19494500Y-9788026D01*
X19980525Y-9302002D01*
X20005248Y-9302002D01*
X19959000Y-9348250D01*
%TA.AperFunction,Conductor*%
D32*
G36*
X19959000Y-9348250D02*
G01*
X19957157Y-9380000D01*
X19964513Y-9454689D01*
X19984854Y-9521745D01*
X19911611Y-9573312D01*
X19771171Y-9720775D01*
X19662198Y-9892803D01*
X19599316Y-10074508D01*
X19662908Y-10233000D01*
X21063000Y-10233000D01*
X21063000Y-10213000D01*
X21225200Y-10213000D01*
X21225200Y-11082079D01*
X21223435Y-11100000D01*
X21230478Y-11171513D01*
X21251338Y-11240278D01*
X21285212Y-11303653D01*
X21317000Y-11342387D01*
X21317000Y-11391000D01*
X21369546Y-11391000D01*
X21371791Y-11392842D01*
X21386347Y-11404788D01*
X21449722Y-11438662D01*
X21518487Y-11459522D01*
X21590000Y-11466565D01*
X21607921Y-11464800D01*
X21913663Y-11464800D01*
X21875279Y-11522246D01*
X21829326Y-11633186D01*
X21805900Y-11750960D01*
X21805900Y-11871040D01*
X21829326Y-11988814D01*
X21875279Y-12099754D01*
X21941992Y-12199598D01*
X22026902Y-12284508D01*
X22126746Y-12351221D01*
X22237686Y-12397174D01*
X22355460Y-12420600D01*
X22475540Y-12420600D01*
X22593314Y-12397174D01*
X22704254Y-12351221D01*
X22804098Y-12284508D01*
X22855736Y-12232870D01*
X22871678Y-12262696D01*
X22919289Y-12320711D01*
X22977304Y-12368322D01*
X23043492Y-12403701D01*
X23115311Y-12425487D01*
X23190000Y-12432843D01*
X24067750Y-12431000D01*
X24163000Y-12335750D01*
X24163000Y-11427000D01*
X24143000Y-11427000D01*
X24143000Y-11173000D01*
X24163000Y-11173000D01*
X24163000Y-10914800D01*
X24417000Y-10914800D01*
X24417000Y-11173000D01*
X24437000Y-11173000D01*
X24437000Y-11427000D01*
X24417000Y-11427000D01*
X24417000Y-12335750D01*
X24512250Y-12431000D01*
X25070200Y-12432172D01*
X25070201Y-21157957D01*
X25020638Y-21148099D01*
X25010274Y-21148099D01*
X25010274Y-20847000D01*
X25001315Y-20756034D01*
X24974781Y-20668565D01*
X24931693Y-20587952D01*
X24873706Y-20517294D01*
X24803048Y-20459307D01*
X24780023Y-20447000D01*
X24803048Y-20434693D01*
X24873706Y-20376706D01*
X24931693Y-20306048D01*
X24974781Y-20225435D01*
X25001315Y-20137966D01*
X25010274Y-20047000D01*
X25010274Y-19652000D01*
X25001315Y-19561034D01*
X24974781Y-19473565D01*
X24931693Y-19392952D01*
X24873706Y-19322294D01*
X24803048Y-19264307D01*
X24722435Y-19221219D01*
X24634966Y-19194685D01*
X24544000Y-19185726D01*
X24224000Y-19185726D01*
X24133034Y-19194685D01*
X24045565Y-19221219D01*
X23964952Y-19264307D01*
X23894294Y-19322294D01*
X23876000Y-19344586D01*
X23857706Y-19322294D01*
X23787048Y-19264307D01*
X23706435Y-19221219D01*
X23618966Y-19194685D01*
X23528000Y-19185726D01*
X23355300Y-19185726D01*
X23355300Y-19185463D01*
X23345859Y-19138001D01*
X23676446Y-19138001D01*
X23696399Y-19139966D01*
X23716352Y-19138001D01*
X23716359Y-19138001D01*
X23776067Y-19132120D01*
X23852674Y-19108882D01*
X23923275Y-19071145D01*
X23985157Y-19020359D01*
X23997881Y-19004855D01*
X24193462Y-18809274D01*
X24450000Y-18809274D01*
X24509751Y-18803389D01*
X24567206Y-18785960D01*
X24620157Y-18757658D01*
X24666568Y-18719568D01*
X24704658Y-18673157D01*
X24732960Y-18620206D01*
X24750389Y-18562751D01*
X24756274Y-18503000D01*
X24756274Y-18103000D01*
X24750389Y-18043249D01*
X24732960Y-17985794D01*
X24728794Y-17978000D01*
X24732960Y-17970206D01*
X24750389Y-17912751D01*
X24756274Y-17853000D01*
X24756274Y-17453000D01*
X24750389Y-17393249D01*
X24732960Y-17335794D01*
X24728794Y-17328000D01*
X24732960Y-17320206D01*
X24750389Y-17262751D01*
X24756274Y-17203000D01*
X24756274Y-16803000D01*
X24750389Y-16743249D01*
X24732960Y-16685794D01*
X24704658Y-16632843D01*
X24666568Y-16586432D01*
X24620157Y-16548342D01*
X24567206Y-16520040D01*
X24509751Y-16502611D01*
X24503528Y-16501998D01*
X24586116Y-16419410D01*
X24657776Y-16312164D01*
X24707136Y-16192998D01*
X24732300Y-16066492D01*
X24732300Y-15937508D01*
X24707136Y-15811002D01*
X24657776Y-15691836D01*
X24586116Y-15584590D01*
X24494910Y-15493384D01*
X24387664Y-15421724D01*
X24268498Y-15372364D01*
X24141992Y-15347200D01*
X24013008Y-15347200D01*
X23886502Y-15372364D01*
X23767336Y-15421724D01*
X23660090Y-15493384D01*
X23568884Y-15584590D01*
X23497224Y-15691836D01*
X23447864Y-15811002D01*
X23422700Y-15937508D01*
X23422700Y-16066492D01*
X23447864Y-16192998D01*
X23497224Y-16312164D01*
X23568884Y-16419410D01*
X23660090Y-16510616D01*
X23678016Y-16522594D01*
X23629843Y-16548342D01*
X23583432Y-16586432D01*
X23545342Y-16632843D01*
X23517040Y-16685794D01*
X23499611Y-16743249D01*
X23493726Y-16803000D01*
X23493726Y-17203000D01*
X23499611Y-17262751D01*
X23517040Y-17320206D01*
X23521206Y-17328000D01*
X23517040Y-17335794D01*
X23499611Y-17393249D01*
X23493726Y-17453000D01*
X23493726Y-17853000D01*
X23499611Y-17912751D01*
X23517040Y-17970206D01*
X23521206Y-17978000D01*
X23517040Y-17985794D01*
X23499611Y-18043249D01*
X23493726Y-18103000D01*
X23493726Y-18325201D01*
X22611102Y-18325201D01*
X22591149Y-18323236D01*
X22571196Y-18325201D01*
X22571189Y-18325201D01*
X22511481Y-18331082D01*
X22434874Y-18354320D01*
X22394314Y-18376000D01*
X22352000Y-18376000D01*
X22352000Y-18389600D01*
X22098000Y-18389600D01*
X22098000Y-18376000D01*
X22078000Y-18376000D01*
X22078000Y-18230000D01*
X22098000Y-18230000D01*
X22098000Y-18159274D01*
X22352000Y-18159274D01*
X22352000Y-18230000D01*
X22835750Y-18230000D01*
X22931000Y-18134750D01*
X22932843Y-18103000D01*
X22925487Y-18028311D01*
X22923767Y-18022642D01*
X22980076Y-17992544D01*
X23041958Y-17941758D01*
X23054682Y-17926254D01*
X23196755Y-17784181D01*
X23212258Y-17771458D01*
X23263044Y-17709576D01*
X23300781Y-17638975D01*
X23302192Y-17634324D01*
X23324019Y-17562369D01*
X23325126Y-17551124D01*
X23329900Y-17502660D01*
X23329900Y-17502653D01*
X23331865Y-17482700D01*
X23329900Y-17462747D01*
X23329900Y-17020862D01*
X23357548Y-16993214D01*
X23418702Y-16901691D01*
X23460826Y-16799996D01*
X23482300Y-16692037D01*
X23482300Y-16581963D01*
X23460826Y-16474004D01*
X23418702Y-16372309D01*
X23357548Y-16280786D01*
X23279714Y-16202952D01*
X23188191Y-16141798D01*
X23086496Y-16099674D01*
X22978537Y-16078200D01*
X22929971Y-16078200D01*
X22932300Y-16066492D01*
X22932300Y-15937508D01*
X22907136Y-15811002D01*
X22857776Y-15691836D01*
X22786116Y-15584590D01*
X22694910Y-15493384D01*
X22587664Y-15421724D01*
X22468498Y-15372364D01*
X22341992Y-15347200D01*
X22213008Y-15347200D01*
X22086502Y-15372364D01*
X21967336Y-15421724D01*
X21860090Y-15493384D01*
X21768884Y-15584590D01*
X21697224Y-15691836D01*
X21647864Y-15811002D01*
X21631046Y-15895552D01*
X21600433Y-15875097D01*
X21498738Y-15832973D01*
X21390779Y-15811499D01*
X21280705Y-15811499D01*
X21172746Y-15832973D01*
X21081274Y-15870862D01*
X21081274Y-15772500D01*
X21073948Y-15698117D01*
X21052251Y-15626593D01*
X21036701Y-15597500D01*
X21052251Y-15568407D01*
X21073948Y-15496883D01*
X21081274Y-15422500D01*
X21081274Y-15272500D01*
X21073948Y-15198117D01*
X21052251Y-15126593D01*
X21017018Y-15060676D01*
X20969601Y-15002899D01*
X20962590Y-14997146D01*
X21736255Y-14223481D01*
X21751758Y-14210758D01*
X21802544Y-14148876D01*
X21840281Y-14078275D01*
X21863519Y-14001668D01*
X21869400Y-13941960D01*
X21869400Y-13941954D01*
X21871365Y-13922001D01*
X21869400Y-13902048D01*
X21869400Y-13464862D01*
X21897048Y-13437214D01*
X21958202Y-13345691D01*
X22000326Y-13243996D01*
X22021800Y-13136037D01*
X22021800Y-13025963D01*
X22000326Y-12918004D01*
X21958202Y-12816309D01*
X21897048Y-12724786D01*
X21819214Y-12646952D01*
X21727691Y-12585798D01*
X21625996Y-12543674D01*
X21518037Y-12522200D01*
X21407963Y-12522200D01*
X21300004Y-12543674D01*
X21198309Y-12585798D01*
X21106786Y-12646952D01*
X21028952Y-12724786D01*
X20967798Y-12816309D01*
X20925674Y-12918004D01*
X20923764Y-12927605D01*
X20833030Y-12836871D01*
X20701216Y-12748796D01*
X20554751Y-12688128D01*
X20399266Y-12657200D01*
X20240734Y-12657200D01*
X20181057Y-12669071D01*
X19583131Y-12071145D01*
X19570407Y-12055641D01*
X19508525Y-12004855D01*
X19437924Y-11967118D01*
X19361317Y-11943880D01*
X19301609Y-11937999D01*
X19301602Y-11937999D01*
X19281649Y-11936034D01*
X19261696Y-11937999D01*
X18536554Y-11937999D01*
X18531595Y-11937511D01*
X19457303Y-11011803D01*
X19473097Y-10992557D01*
X19484833Y-10970601D01*
X19492060Y-10946776D01*
X19494500Y-10922000D01*
X19494500Y-10645492D01*
X19599316Y-10645492D01*
X19662198Y-10827197D01*
X19771171Y-10999225D01*
X19911611Y-11146688D01*
X20078121Y-11263919D01*
X20264302Y-11346413D01*
X20463000Y-11391000D01*
X21063000Y-11391000D01*
X21063000Y-10487000D01*
X19662908Y-10487000D01*
X19599316Y-10645492D01*
X19494500Y-10645492D01*
X19494500Y-9788026D01*
X19980525Y-9302002D01*
X20005248Y-9302002D01*
X19959000Y-9348250D01*
G37*
%TD.AperFunction*%
D31*
X13515440Y-20300210D02*
X13576594Y-20391733D01*
X13654428Y-20469567D01*
X13745951Y-20530721D01*
X13792200Y-20549878D01*
X13792200Y-20564908D01*
X13785457Y-20573124D01*
X13769341Y-20603275D01*
X13747719Y-20643726D01*
X13725747Y-20716159D01*
X13720250Y-20716500D01*
X13625000Y-20811750D01*
X13529750Y-20716500D01*
X13500000Y-20714657D01*
X13425311Y-20722013D01*
X13353492Y-20743799D01*
X13287304Y-20779178D01*
X13262762Y-20799319D01*
X13259444Y-20798312D01*
X13187500Y-20791226D01*
X13181274Y-20791226D01*
X13181274Y-20785000D01*
X13174188Y-20713056D01*
X13153203Y-20643876D01*
X13128414Y-20597500D01*
X13153203Y-20551124D01*
X13174188Y-20481944D01*
X13181274Y-20410000D01*
X13181274Y-20285000D01*
X13178211Y-20253900D01*
X13496258Y-20253900D01*
X13515440Y-20300210D01*
%TA.AperFunction,Conductor*%
D32*
G36*
X13515440Y-20300210D02*
G01*
X13576594Y-20391733D01*
X13654428Y-20469567D01*
X13745951Y-20530721D01*
X13792200Y-20549878D01*
X13792200Y-20564908D01*
X13785457Y-20573124D01*
X13769341Y-20603275D01*
X13747719Y-20643726D01*
X13725747Y-20716159D01*
X13720250Y-20716500D01*
X13625000Y-20811750D01*
X13529750Y-20716500D01*
X13500000Y-20714657D01*
X13425311Y-20722013D01*
X13353492Y-20743799D01*
X13287304Y-20779178D01*
X13262762Y-20799319D01*
X13259444Y-20798312D01*
X13187500Y-20791226D01*
X13181274Y-20791226D01*
X13181274Y-20785000D01*
X13174188Y-20713056D01*
X13153203Y-20643876D01*
X13128414Y-20597500D01*
X13153203Y-20551124D01*
X13174188Y-20481944D01*
X13181274Y-20410000D01*
X13181274Y-20285000D01*
X13178211Y-20253900D01*
X13496258Y-20253900D01*
X13515440Y-20300210D01*
G37*
%TD.AperFunction*%
D31*
X15921376Y-15375703D02*
X15990556Y-15396688D01*
X16062500Y-15403774D01*
X16187500Y-15403774D01*
X16259444Y-15396688D01*
X16262762Y-15395681D01*
X16287304Y-15415822D01*
X16353492Y-15451201D01*
X16425311Y-15472987D01*
X16425887Y-15473044D01*
X16408400Y-15560960D01*
X16408400Y-15681040D01*
X16431826Y-15798814D01*
X16477779Y-15909754D01*
X16544492Y-16009598D01*
X16629402Y-16094508D01*
X16729246Y-16161221D01*
X16840186Y-16207174D01*
X16957960Y-16230600D01*
X17078040Y-16230600D01*
X17195814Y-16207174D01*
X17306754Y-16161221D01*
X17406598Y-16094508D01*
X17475202Y-16025904D01*
X17515309Y-16052702D01*
X17617004Y-16094826D01*
X17724963Y-16116300D01*
X17835037Y-16116300D01*
X17867173Y-16109908D01*
X17895923Y-16179316D01*
X17957077Y-16270839D01*
X18004592Y-16318354D01*
X18007592Y-16377781D01*
X18006635Y-16387500D01*
X18009606Y-16417669D01*
X18010124Y-16427926D01*
X18011563Y-16437534D01*
X18014481Y-16467168D01*
X18017479Y-16477052D01*
X18019008Y-16487262D01*
X18029073Y-16515271D01*
X18037719Y-16543774D01*
X18042589Y-16552885D01*
X18046080Y-16562600D01*
X18061421Y-16588116D01*
X18075457Y-16614375D01*
X18082008Y-16622357D01*
X18087329Y-16631208D01*
X18107345Y-16653231D01*
X18113518Y-16660754D01*
X18120794Y-16668030D01*
X18141170Y-16690450D01*
X18149018Y-16696254D01*
X18573518Y-17120754D01*
X18586242Y-17136258D01*
X18596543Y-17144712D01*
X18575812Y-17213056D01*
X18568726Y-17285000D01*
X18568726Y-17410000D01*
X18575812Y-17481944D01*
X18596797Y-17551124D01*
X18621586Y-17597500D01*
X18596797Y-17643876D01*
X18575812Y-17713056D01*
X18568726Y-17785000D01*
X18568726Y-17910000D01*
X18575812Y-17981944D01*
X18596797Y-18051124D01*
X18621586Y-18097500D01*
X18596797Y-18143876D01*
X18575812Y-18213056D01*
X18568726Y-18285000D01*
X18568726Y-18410000D01*
X18575812Y-18481944D01*
X18596797Y-18551124D01*
X18621586Y-18597500D01*
X18596797Y-18643876D01*
X18575812Y-18713056D01*
X18568726Y-18785000D01*
X18568726Y-18910000D01*
X18575812Y-18981944D01*
X18581651Y-19001192D01*
X18571636Y-18999200D01*
X18461562Y-18999200D01*
X18353603Y-19020674D01*
X18251908Y-19062798D01*
X18160385Y-19123952D01*
X18158138Y-19126199D01*
X14390309Y-19126199D01*
X14130963Y-18866854D01*
X14129993Y-18865039D01*
X14079207Y-18803157D01*
X14063699Y-18790430D01*
X14044458Y-18771189D01*
X14044458Y-18751830D01*
X14046423Y-18731877D01*
X14044458Y-18711924D01*
X14044458Y-18711917D01*
X14038577Y-18652209D01*
X14038494Y-18651933D01*
X14015339Y-18575602D01*
X13997378Y-18542000D01*
X13977602Y-18505001D01*
X13949057Y-18470219D01*
X13939540Y-18458622D01*
X13939535Y-18458617D01*
X13926816Y-18443119D01*
X13911318Y-18430401D01*
X13510010Y-18029093D01*
X13510010Y-17684369D01*
X13511975Y-17664416D01*
X13510010Y-17644463D01*
X13510010Y-17644456D01*
X13504129Y-17584748D01*
X13502774Y-17580279D01*
X13480891Y-17508141D01*
X13474873Y-17496883D01*
X13443154Y-17437540D01*
X13410110Y-17397276D01*
X13405092Y-17391161D01*
X13405087Y-17391156D01*
X13392368Y-17375658D01*
X13376870Y-17362939D01*
X13147917Y-17133987D01*
X13128414Y-17097500D01*
X13153203Y-17051124D01*
X13174188Y-16981944D01*
X13181274Y-16910000D01*
X13181274Y-16785000D01*
X13174188Y-16713056D01*
X13153203Y-16643876D01*
X13128414Y-16597500D01*
X13153203Y-16551124D01*
X13174188Y-16481944D01*
X13181274Y-16410000D01*
X13181274Y-16285000D01*
X13174188Y-16213056D01*
X13173181Y-16209738D01*
X13193322Y-16185196D01*
X13197065Y-16178194D01*
X13217225Y-16215913D01*
X13259835Y-16267832D01*
X13274360Y-16285531D01*
X13291804Y-16299847D01*
X13461579Y-16469623D01*
X13460031Y-16485336D01*
X13462734Y-16512778D01*
X13462734Y-16512779D01*
X13470820Y-16594879D01*
X13502773Y-16700213D01*
X13554661Y-16797290D01*
X13624491Y-16882379D01*
X13645815Y-16899879D01*
X14300200Y-17554265D01*
X14300200Y-17599600D01*
X14272826Y-17665686D01*
X14249400Y-17783460D01*
X14249400Y-17903540D01*
X14272826Y-18021314D01*
X14318779Y-18132254D01*
X14385492Y-18232098D01*
X14470402Y-18317008D01*
X14570246Y-18383721D01*
X14681186Y-18429674D01*
X14798960Y-18453100D01*
X14919040Y-18453100D01*
X15036814Y-18429674D01*
X15147754Y-18383721D01*
X15247598Y-18317008D01*
X15332508Y-18232098D01*
X15399221Y-18132254D01*
X15445174Y-18021314D01*
X15468600Y-17903540D01*
X15468600Y-17783460D01*
X15445174Y-17665686D01*
X15417800Y-17599600D01*
X15417800Y-17350246D01*
X15420503Y-17322802D01*
X15409714Y-17213257D01*
X15377761Y-17107924D01*
X15325873Y-17010847D01*
X15273537Y-16947076D01*
X15256043Y-16925759D01*
X15234724Y-16908264D01*
X14918230Y-16591769D01*
X14961214Y-16563048D01*
X15039048Y-16485214D01*
X15100202Y-16393691D01*
X15142326Y-16291996D01*
X15163800Y-16184037D01*
X15163800Y-16073963D01*
X15158700Y-16048325D01*
X15160431Y-16030755D01*
X15163799Y-15996561D01*
X15163799Y-15996554D01*
X15165764Y-15976601D01*
X15163799Y-15956648D01*
X15163799Y-15666351D01*
X15165764Y-15646398D01*
X15163799Y-15626445D01*
X15163799Y-15626439D01*
X15158671Y-15574375D01*
X15157918Y-15566730D01*
X15150310Y-15541649D01*
X15134680Y-15490124D01*
X15096943Y-15419523D01*
X15084018Y-15403774D01*
X15187500Y-15403774D01*
X15259444Y-15396688D01*
X15328624Y-15375703D01*
X15375000Y-15350914D01*
X15421376Y-15375703D01*
X15490556Y-15396688D01*
X15562500Y-15403774D01*
X15687500Y-15403774D01*
X15759444Y-15396688D01*
X15828624Y-15375703D01*
X15875000Y-15350914D01*
X15921376Y-15375703D01*
%TA.AperFunction,Conductor*%
D32*
G36*
X15921376Y-15375703D02*
G01*
X15990556Y-15396688D01*
X16062500Y-15403774D01*
X16187500Y-15403774D01*
X16259444Y-15396688D01*
X16262762Y-15395681D01*
X16287304Y-15415822D01*
X16353492Y-15451201D01*
X16425311Y-15472987D01*
X16425887Y-15473044D01*
X16408400Y-15560960D01*
X16408400Y-15681040D01*
X16431826Y-15798814D01*
X16477779Y-15909754D01*
X16544492Y-16009598D01*
X16629402Y-16094508D01*
X16729246Y-16161221D01*
X16840186Y-16207174D01*
X16957960Y-16230600D01*
X17078040Y-16230600D01*
X17195814Y-16207174D01*
X17306754Y-16161221D01*
X17406598Y-16094508D01*
X17475202Y-16025904D01*
X17515309Y-16052702D01*
X17617004Y-16094826D01*
X17724963Y-16116300D01*
X17835037Y-16116300D01*
X17867173Y-16109908D01*
X17895923Y-16179316D01*
X17957077Y-16270839D01*
X18004592Y-16318354D01*
X18007592Y-16377781D01*
X18006635Y-16387500D01*
X18009606Y-16417669D01*
X18010124Y-16427926D01*
X18011563Y-16437534D01*
X18014481Y-16467168D01*
X18017479Y-16477052D01*
X18019008Y-16487262D01*
X18029073Y-16515271D01*
X18037719Y-16543774D01*
X18042589Y-16552885D01*
X18046080Y-16562600D01*
X18061421Y-16588116D01*
X18075457Y-16614375D01*
X18082008Y-16622357D01*
X18087329Y-16631208D01*
X18107345Y-16653231D01*
X18113518Y-16660754D01*
X18120794Y-16668030D01*
X18141170Y-16690450D01*
X18149018Y-16696254D01*
X18573518Y-17120754D01*
X18586242Y-17136258D01*
X18596543Y-17144712D01*
X18575812Y-17213056D01*
X18568726Y-17285000D01*
X18568726Y-17410000D01*
X18575812Y-17481944D01*
X18596797Y-17551124D01*
X18621586Y-17597500D01*
X18596797Y-17643876D01*
X18575812Y-17713056D01*
X18568726Y-17785000D01*
X18568726Y-17910000D01*
X18575812Y-17981944D01*
X18596797Y-18051124D01*
X18621586Y-18097500D01*
X18596797Y-18143876D01*
X18575812Y-18213056D01*
X18568726Y-18285000D01*
X18568726Y-18410000D01*
X18575812Y-18481944D01*
X18596797Y-18551124D01*
X18621586Y-18597500D01*
X18596797Y-18643876D01*
X18575812Y-18713056D01*
X18568726Y-18785000D01*
X18568726Y-18910000D01*
X18575812Y-18981944D01*
X18581651Y-19001192D01*
X18571636Y-18999200D01*
X18461562Y-18999200D01*
X18353603Y-19020674D01*
X18251908Y-19062798D01*
X18160385Y-19123952D01*
X18158138Y-19126199D01*
X14390309Y-19126199D01*
X14130963Y-18866854D01*
X14129993Y-18865039D01*
X14079207Y-18803157D01*
X14063699Y-18790430D01*
X14044458Y-18771189D01*
X14044458Y-18751830D01*
X14046423Y-18731877D01*
X14044458Y-18711924D01*
X14044458Y-18711917D01*
X14038577Y-18652209D01*
X14038494Y-18651933D01*
X14015339Y-18575602D01*
X13997378Y-18542000D01*
X13977602Y-18505001D01*
X13949057Y-18470219D01*
X13939540Y-18458622D01*
X13939535Y-18458617D01*
X13926816Y-18443119D01*
X13911318Y-18430401D01*
X13510010Y-18029093D01*
X13510010Y-17684369D01*
X13511975Y-17664416D01*
X13510010Y-17644463D01*
X13510010Y-17644456D01*
X13504129Y-17584748D01*
X13502774Y-17580279D01*
X13480891Y-17508141D01*
X13474873Y-17496883D01*
X13443154Y-17437540D01*
X13410110Y-17397276D01*
X13405092Y-17391161D01*
X13405087Y-17391156D01*
X13392368Y-17375658D01*
X13376870Y-17362939D01*
X13147917Y-17133987D01*
X13128414Y-17097500D01*
X13153203Y-17051124D01*
X13174188Y-16981944D01*
X13181274Y-16910000D01*
X13181274Y-16785000D01*
X13174188Y-16713056D01*
X13153203Y-16643876D01*
X13128414Y-16597500D01*
X13153203Y-16551124D01*
X13174188Y-16481944D01*
X13181274Y-16410000D01*
X13181274Y-16285000D01*
X13174188Y-16213056D01*
X13173181Y-16209738D01*
X13193322Y-16185196D01*
X13197065Y-16178194D01*
X13217225Y-16215913D01*
X13259835Y-16267832D01*
X13274360Y-16285531D01*
X13291804Y-16299847D01*
X13461579Y-16469623D01*
X13460031Y-16485336D01*
X13462734Y-16512778D01*
X13462734Y-16512779D01*
X13470820Y-16594879D01*
X13502773Y-16700213D01*
X13554661Y-16797290D01*
X13624491Y-16882379D01*
X13645815Y-16899879D01*
X14300200Y-17554265D01*
X14300200Y-17599600D01*
X14272826Y-17665686D01*
X14249400Y-17783460D01*
X14249400Y-17903540D01*
X14272826Y-18021314D01*
X14318779Y-18132254D01*
X14385492Y-18232098D01*
X14470402Y-18317008D01*
X14570246Y-18383721D01*
X14681186Y-18429674D01*
X14798960Y-18453100D01*
X14919040Y-18453100D01*
X15036814Y-18429674D01*
X15147754Y-18383721D01*
X15247598Y-18317008D01*
X15332508Y-18232098D01*
X15399221Y-18132254D01*
X15445174Y-18021314D01*
X15468600Y-17903540D01*
X15468600Y-17783460D01*
X15445174Y-17665686D01*
X15417800Y-17599600D01*
X15417800Y-17350246D01*
X15420503Y-17322802D01*
X15409714Y-17213257D01*
X15377761Y-17107924D01*
X15325873Y-17010847D01*
X15273537Y-16947076D01*
X15256043Y-16925759D01*
X15234724Y-16908264D01*
X14918230Y-16591769D01*
X14961214Y-16563048D01*
X15039048Y-16485214D01*
X15100202Y-16393691D01*
X15142326Y-16291996D01*
X15163800Y-16184037D01*
X15163800Y-16073963D01*
X15158700Y-16048325D01*
X15160431Y-16030755D01*
X15163799Y-15996561D01*
X15163799Y-15996554D01*
X15165764Y-15976601D01*
X15163799Y-15956648D01*
X15163799Y-15666351D01*
X15165764Y-15646398D01*
X15163799Y-15626445D01*
X15163799Y-15626439D01*
X15158671Y-15574375D01*
X15157918Y-15566730D01*
X15150310Y-15541649D01*
X15134680Y-15490124D01*
X15096943Y-15419523D01*
X15084018Y-15403774D01*
X15187500Y-15403774D01*
X15259444Y-15396688D01*
X15328624Y-15375703D01*
X15375000Y-15350914D01*
X15421376Y-15375703D01*
X15490556Y-15396688D01*
X15562500Y-15403774D01*
X15687500Y-15403774D01*
X15759444Y-15396688D01*
X15828624Y-15375703D01*
X15875000Y-15350914D01*
X15921376Y-15375703D01*
G37*
%TD.AperFunction*%
D31*
X11714250Y-15847500D02*
X11670524Y-15891226D01*
X11585500Y-15891226D01*
X11585500Y-15870500D01*
X11565500Y-15870500D01*
X11565500Y-15824500D01*
X11585500Y-15824500D01*
X11585500Y-15803774D01*
X11670524Y-15803774D01*
X11714250Y-15847500D01*
%TA.AperFunction,Conductor*%
D32*
G36*
X11714250Y-15847500D02*
G01*
X11670524Y-15891226D01*
X11585500Y-15891226D01*
X11585500Y-15870500D01*
X11565500Y-15870500D01*
X11565500Y-15824500D01*
X11585500Y-15824500D01*
X11585500Y-15803774D01*
X11670524Y-15803774D01*
X11714250Y-15847500D01*
G37*
%TD.AperFunction*%
D31*
X19606796Y-13843216D02*
X19694871Y-13975030D01*
X19806970Y-14087129D01*
X19935785Y-14173200D01*
X19883963Y-14173200D01*
X19776004Y-14194674D01*
X19674309Y-14236798D01*
X19582786Y-14297952D01*
X19504952Y-14375786D01*
X19443798Y-14467309D01*
X19401674Y-14569004D01*
X19380200Y-14676963D01*
X19380200Y-14787037D01*
X19400924Y-14891226D01*
X19375000Y-14891226D01*
X19300617Y-14898552D01*
X19242355Y-14916226D01*
X19056274Y-14916226D01*
X19056274Y-14730145D01*
X19073948Y-14671883D01*
X19081274Y-14597500D01*
X19081274Y-14147800D01*
X19105037Y-14147800D01*
X19212996Y-14126326D01*
X19314691Y-14084202D01*
X19406214Y-14023048D01*
X19484048Y-13945214D01*
X19545202Y-13853691D01*
X19578169Y-13774104D01*
X19606796Y-13843216D01*
%TA.AperFunction,Conductor*%
D32*
G36*
X19606796Y-13843216D02*
G01*
X19694871Y-13975030D01*
X19806970Y-14087129D01*
X19935785Y-14173200D01*
X19883963Y-14173200D01*
X19776004Y-14194674D01*
X19674309Y-14236798D01*
X19582786Y-14297952D01*
X19504952Y-14375786D01*
X19443798Y-14467309D01*
X19401674Y-14569004D01*
X19380200Y-14676963D01*
X19380200Y-14787037D01*
X19400924Y-14891226D01*
X19375000Y-14891226D01*
X19300617Y-14898552D01*
X19242355Y-14916226D01*
X19056274Y-14916226D01*
X19056274Y-14730145D01*
X19073948Y-14671883D01*
X19081274Y-14597500D01*
X19081274Y-14147800D01*
X19105037Y-14147800D01*
X19212996Y-14126326D01*
X19314691Y-14084202D01*
X19406214Y-14023048D01*
X19484048Y-13945214D01*
X19545202Y-13853691D01*
X19578169Y-13774104D01*
X19606796Y-13843216D01*
G37*
%TD.AperFunction*%
D31*
X16648000Y-13808000D02*
X16668726Y-13808000D01*
X16668726Y-13893024D01*
X16625000Y-13936750D01*
X16581274Y-13893024D01*
X16581274Y-13808000D01*
X16602000Y-13808000D01*
X16602000Y-13788000D01*
X16648000Y-13788000D01*
X16648000Y-13808000D01*
%TA.AperFunction,Conductor*%
D32*
G36*
X16648000Y-13808000D02*
G01*
X16668726Y-13808000D01*
X16668726Y-13893024D01*
X16625000Y-13936750D01*
X16581274Y-13893024D01*
X16581274Y-13808000D01*
X16602000Y-13808000D01*
X16602000Y-13788000D01*
X16648000Y-13788000D01*
X16648000Y-13808000D01*
G37*
%TD.AperFunction*%
D31*
X21092000Y-9097000D02*
X21225200Y-9097000D01*
X21225200Y-9253000D01*
X21092000Y-9253000D01*
X21092000Y-9322000D01*
X20838000Y-9322000D01*
X20838000Y-9253000D01*
X20818000Y-9253000D01*
X20818000Y-9097000D01*
X20838000Y-9097000D01*
X20838000Y-9036274D01*
X21092000Y-9036274D01*
X21092000Y-9097000D01*
%TA.AperFunction,Conductor*%
D32*
G36*
X21092000Y-9097000D02*
G01*
X21225200Y-9097000D01*
X21225200Y-9253000D01*
X21092000Y-9253000D01*
X21092000Y-9322000D01*
X20838000Y-9322000D01*
X20838000Y-9253000D01*
X20818000Y-9253000D01*
X20818000Y-9097000D01*
X20838000Y-9097000D01*
X20838000Y-9036274D01*
X21092000Y-9036274D01*
X21092000Y-9097000D01*
G37*
%TD.AperFunction*%
D31*
X5802000Y-9077000D02*
X5822000Y-9077000D01*
X5822000Y-9123000D01*
X5802000Y-9123000D01*
X5802000Y-9247000D01*
X5548000Y-9247000D01*
X5548000Y-9123000D01*
X5536800Y-9123000D01*
X5536800Y-9077000D01*
X5548000Y-9077000D01*
X5548000Y-9056274D01*
X5802000Y-9056274D01*
X5802000Y-9077000D01*
%TA.AperFunction,Conductor*%
D32*
G36*
X5802000Y-9077000D02*
G01*
X5822000Y-9077000D01*
X5822000Y-9123000D01*
X5802000Y-9123000D01*
X5802000Y-9247000D01*
X5548000Y-9247000D01*
X5548000Y-9123000D01*
X5536800Y-9123000D01*
X5536800Y-9077000D01*
X5548000Y-9077000D01*
X5548000Y-9056274D01*
X5802000Y-9056274D01*
X5802000Y-9077000D01*
G37*
%TD.AperFunction*%
D31*
X13494282Y-7635564D02*
X13585805Y-7696718D01*
X13687500Y-7738842D01*
X13795459Y-7760316D01*
X13905533Y-7760316D01*
X13995390Y-7742443D01*
X13995390Y-7777837D01*
X13993425Y-7797790D01*
X13995390Y-7817743D01*
X13995390Y-7817749D01*
X13999034Y-7854745D01*
X14001271Y-7877458D01*
X14022655Y-7947952D01*
X14024509Y-7954064D01*
X14062246Y-8024665D01*
X14093011Y-8062152D01*
X14100115Y-8070808D01*
X14113032Y-8086548D01*
X14128536Y-8099272D01*
X14240007Y-8210743D01*
X14156500Y-8294250D01*
X14156500Y-8382000D01*
X13902500Y-8382000D01*
X13902500Y-8294250D01*
X13807250Y-8199000D01*
X13662000Y-8197157D01*
X13587311Y-8204513D01*
X13515492Y-8226299D01*
X13453300Y-8259542D01*
X13453300Y-8095944D01*
X13456003Y-8068500D01*
X13445214Y-7958956D01*
X13429986Y-7908758D01*
X13413261Y-7853622D01*
X13361373Y-7756546D01*
X13321487Y-7707945D01*
X13373714Y-7673048D01*
X13451548Y-7595214D01*
X13452503Y-7593785D01*
X13494282Y-7635564D01*
%TA.AperFunction,Conductor*%
D32*
G36*
X13494282Y-7635564D02*
G01*
X13585805Y-7696718D01*
X13687500Y-7738842D01*
X13795459Y-7760316D01*
X13905533Y-7760316D01*
X13995390Y-7742443D01*
X13995390Y-7777837D01*
X13993425Y-7797790D01*
X13995390Y-7817743D01*
X13995390Y-7817749D01*
X13999034Y-7854745D01*
X14001271Y-7877458D01*
X14022655Y-7947952D01*
X14024509Y-7954064D01*
X14062246Y-8024665D01*
X14093011Y-8062152D01*
X14100115Y-8070808D01*
X14113032Y-8086548D01*
X14128536Y-8099272D01*
X14240007Y-8210743D01*
X14156500Y-8294250D01*
X14156500Y-8382000D01*
X13902500Y-8382000D01*
X13902500Y-8294250D01*
X13807250Y-8199000D01*
X13662000Y-8197157D01*
X13587311Y-8204513D01*
X13515492Y-8226299D01*
X13453300Y-8259542D01*
X13453300Y-8095944D01*
X13456003Y-8068500D01*
X13445214Y-7958956D01*
X13429986Y-7908758D01*
X13413261Y-7853622D01*
X13361373Y-7756546D01*
X13321487Y-7707945D01*
X13373714Y-7673048D01*
X13451548Y-7595214D01*
X13452503Y-7593785D01*
X13494282Y-7635564D01*
G37*
%TD.AperFunction*%
D31*
X15062200Y-4705519D02*
X15048331Y-4702760D01*
X14938257Y-4702760D01*
X14830298Y-4724234D01*
X14728603Y-4766358D01*
X14637080Y-4827512D01*
X14559246Y-4905346D01*
X14498092Y-4996869D01*
X14455968Y-5098564D01*
X14434494Y-5206523D01*
X14434494Y-5316597D01*
X14455968Y-5424556D01*
X14498092Y-5526251D01*
X14559246Y-5617774D01*
X14637080Y-5695608D01*
X14728603Y-5756762D01*
X14830298Y-5798886D01*
X14938257Y-5820360D01*
X15048331Y-5820360D01*
X15136977Y-5802727D01*
X15174250Y-5840000D01*
X15400673Y-5840000D01*
X15460000Y-5845843D01*
X15975250Y-5844000D01*
X15979250Y-5840000D01*
X16070500Y-5840000D01*
X16070500Y-5336000D01*
X16050500Y-5336000D01*
X16050500Y-5257800D01*
X16344500Y-5257800D01*
X16344500Y-5336000D01*
X16324500Y-5336000D01*
X16324500Y-5840000D01*
X16344500Y-5840000D01*
X16344500Y-5986000D01*
X16324500Y-5986000D01*
X16324500Y-6490000D01*
X16344500Y-6490000D01*
X16344500Y-6636000D01*
X16324500Y-6636000D01*
X16324500Y-6706726D01*
X16070500Y-6706726D01*
X16070500Y-6636000D01*
X16050500Y-6636000D01*
X16050500Y-6490000D01*
X16070500Y-6490000D01*
X16070500Y-5986000D01*
X15979250Y-5986000D01*
X15975250Y-5982000D01*
X15460000Y-5980157D01*
X15400673Y-5986000D01*
X15174250Y-5986000D01*
X15079000Y-6081250D01*
X15077157Y-6113000D01*
X15084513Y-6187689D01*
X15099775Y-6238000D01*
X15098019Y-6243787D01*
X14211685Y-5357455D01*
X14211685Y-5118935D01*
X14259996Y-5109326D01*
X14361691Y-5067202D01*
X14453214Y-5006048D01*
X14531048Y-4928214D01*
X14592202Y-4836691D01*
X14634326Y-4734996D01*
X14655800Y-4627037D01*
X14655800Y-4516963D01*
X14636213Y-4418490D01*
X14707214Y-4371048D01*
X14785048Y-4293214D01*
X14846202Y-4201691D01*
X14888326Y-4099996D01*
X14909800Y-3992037D01*
X14909800Y-3881963D01*
X14888326Y-3774004D01*
X14846202Y-3672309D01*
X14785048Y-3580786D01*
X14707214Y-3502952D01*
X14672563Y-3479799D01*
X15062200Y-3479799D01*
X15062200Y-4705519D01*
%TA.AperFunction,Conductor*%
D32*
G36*
X15062200Y-4705519D02*
G01*
X15048331Y-4702760D01*
X14938257Y-4702760D01*
X14830298Y-4724234D01*
X14728603Y-4766358D01*
X14637080Y-4827512D01*
X14559246Y-4905346D01*
X14498092Y-4996869D01*
X14455968Y-5098564D01*
X14434494Y-5206523D01*
X14434494Y-5316597D01*
X14455968Y-5424556D01*
X14498092Y-5526251D01*
X14559246Y-5617774D01*
X14637080Y-5695608D01*
X14728603Y-5756762D01*
X14830298Y-5798886D01*
X14938257Y-5820360D01*
X15048331Y-5820360D01*
X15136977Y-5802727D01*
X15174250Y-5840000D01*
X15400673Y-5840000D01*
X15460000Y-5845843D01*
X15975250Y-5844000D01*
X15979250Y-5840000D01*
X16070500Y-5840000D01*
X16070500Y-5336000D01*
X16050500Y-5336000D01*
X16050500Y-5257800D01*
X16344500Y-5257800D01*
X16344500Y-5336000D01*
X16324500Y-5336000D01*
X16324500Y-5840000D01*
X16344500Y-5840000D01*
X16344500Y-5986000D01*
X16324500Y-5986000D01*
X16324500Y-6490000D01*
X16344500Y-6490000D01*
X16344500Y-6636000D01*
X16324500Y-6636000D01*
X16324500Y-6706726D01*
X16070500Y-6706726D01*
X16070500Y-6636000D01*
X16050500Y-6636000D01*
X16050500Y-6490000D01*
X16070500Y-6490000D01*
X16070500Y-5986000D01*
X15979250Y-5986000D01*
X15975250Y-5982000D01*
X15460000Y-5980157D01*
X15400673Y-5986000D01*
X15174250Y-5986000D01*
X15079000Y-6081250D01*
X15077157Y-6113000D01*
X15084513Y-6187689D01*
X15099775Y-6238000D01*
X15098019Y-6243787D01*
X14211685Y-5357455D01*
X14211685Y-5118935D01*
X14259996Y-5109326D01*
X14361691Y-5067202D01*
X14453214Y-5006048D01*
X14531048Y-4928214D01*
X14592202Y-4836691D01*
X14634326Y-4734996D01*
X14655800Y-4627037D01*
X14655800Y-4516963D01*
X14636213Y-4418490D01*
X14707214Y-4371048D01*
X14785048Y-4293214D01*
X14846202Y-4201691D01*
X14888326Y-4099996D01*
X14909800Y-3992037D01*
X14909800Y-3881963D01*
X14888326Y-3774004D01*
X14846202Y-3672309D01*
X14785048Y-3580786D01*
X14707214Y-3502952D01*
X14672563Y-3479799D01*
X15062200Y-3479799D01*
X15062200Y-4705519D01*
G37*
%TD.AperFunction*%
D31*
X12455148Y-4536004D02*
X12433674Y-4643963D01*
X12433674Y-4754037D01*
X12455148Y-4861996D01*
X12497272Y-4963691D01*
X12558426Y-5055214D01*
X12563975Y-5060763D01*
X12519952Y-5104786D01*
X12458798Y-5196309D01*
X12416674Y-5298004D01*
X12395200Y-5405963D01*
X12395200Y-5516037D01*
X12416674Y-5623996D01*
X12458798Y-5725691D01*
X12519952Y-5817214D01*
X12547601Y-5844863D01*
X12547601Y-5927663D01*
X11995963Y-6479301D01*
X11980459Y-6492025D01*
X11929673Y-6553908D01*
X11903426Y-6603013D01*
X11891936Y-6624509D01*
X11880943Y-6660749D01*
X11861814Y-6652826D01*
X11744040Y-6629400D01*
X11623960Y-6629400D01*
X11511516Y-6651766D01*
X11495750Y-6636000D01*
X10599500Y-6636000D01*
X10599500Y-6654200D01*
X10445056Y-6654200D01*
X10362956Y-6662286D01*
X10345500Y-6667581D01*
X10345500Y-6636000D01*
X10325500Y-6636000D01*
X10325500Y-6490000D01*
X10345500Y-6490000D01*
X10345500Y-6419274D01*
X10599500Y-6419274D01*
X10599500Y-6490000D01*
X11495750Y-6490000D01*
X11591000Y-6394750D01*
X11592843Y-6363000D01*
X11585487Y-6288311D01*
X11563701Y-6216492D01*
X11534979Y-6162757D01*
X11830255Y-5867481D01*
X11845758Y-5854758D01*
X11896544Y-5792876D01*
X11934281Y-5722275D01*
X11952110Y-5663498D01*
X11957519Y-5645669D01*
X11959629Y-5624242D01*
X11963400Y-5585960D01*
X11963400Y-5585954D01*
X11965365Y-5566001D01*
X11963400Y-5546048D01*
X11963400Y-4510584D01*
X12028605Y-4537593D01*
X12146379Y-4561019D01*
X12266459Y-4561019D01*
X12384233Y-4537593D01*
X12469041Y-4502464D01*
X12455148Y-4536004D01*
%TA.AperFunction,Conductor*%
D32*
G36*
X12455148Y-4536004D02*
G01*
X12433674Y-4643963D01*
X12433674Y-4754037D01*
X12455148Y-4861996D01*
X12497272Y-4963691D01*
X12558426Y-5055214D01*
X12563975Y-5060763D01*
X12519952Y-5104786D01*
X12458798Y-5196309D01*
X12416674Y-5298004D01*
X12395200Y-5405963D01*
X12395200Y-5516037D01*
X12416674Y-5623996D01*
X12458798Y-5725691D01*
X12519952Y-5817214D01*
X12547601Y-5844863D01*
X12547601Y-5927663D01*
X11995963Y-6479301D01*
X11980459Y-6492025D01*
X11929673Y-6553908D01*
X11903426Y-6603013D01*
X11891936Y-6624509D01*
X11880943Y-6660749D01*
X11861814Y-6652826D01*
X11744040Y-6629400D01*
X11623960Y-6629400D01*
X11511516Y-6651766D01*
X11495750Y-6636000D01*
X10599500Y-6636000D01*
X10599500Y-6654200D01*
X10445056Y-6654200D01*
X10362956Y-6662286D01*
X10345500Y-6667581D01*
X10345500Y-6636000D01*
X10325500Y-6636000D01*
X10325500Y-6490000D01*
X10345500Y-6490000D01*
X10345500Y-6419274D01*
X10599500Y-6419274D01*
X10599500Y-6490000D01*
X11495750Y-6490000D01*
X11591000Y-6394750D01*
X11592843Y-6363000D01*
X11585487Y-6288311D01*
X11563701Y-6216492D01*
X11534979Y-6162757D01*
X11830255Y-5867481D01*
X11845758Y-5854758D01*
X11896544Y-5792876D01*
X11934281Y-5722275D01*
X11952110Y-5663498D01*
X11957519Y-5645669D01*
X11959629Y-5624242D01*
X11963400Y-5585960D01*
X11963400Y-5585954D01*
X11965365Y-5566001D01*
X11963400Y-5546048D01*
X11963400Y-4510584D01*
X12028605Y-4537593D01*
X12146379Y-4561019D01*
X12266459Y-4561019D01*
X12384233Y-4537593D01*
X12469041Y-4502464D01*
X12455148Y-4536004D01*
G37*
%TD.AperFunction*%
D31*
X21092000Y-3447000D02*
X21225201Y-3447000D01*
X21225201Y-3603000D01*
X21092000Y-3603000D01*
X21092000Y-3663726D01*
X20838000Y-3663726D01*
X20838000Y-3603000D01*
X20818000Y-3603000D01*
X20818000Y-3447000D01*
X20838000Y-3447000D01*
X20838000Y-3378000D01*
X21092000Y-3378000D01*
X21092000Y-3447000D01*
%TA.AperFunction,Conductor*%
D32*
G36*
X21092000Y-3447000D02*
G01*
X21225201Y-3447000D01*
X21225201Y-3603000D01*
X21092000Y-3603000D01*
X21092000Y-3663726D01*
X20838000Y-3663726D01*
X20838000Y-3603000D01*
X20818000Y-3603000D01*
X20818000Y-3447000D01*
X20838000Y-3447000D01*
X20838000Y-3378000D01*
X21092000Y-3378000D01*
X21092000Y-3447000D01*
G37*
%TD.AperFunction*%
D31*
X5802000Y-3577000D02*
X5822000Y-3577000D01*
X5822000Y-3623000D01*
X5802000Y-3623000D01*
X5802000Y-3643726D01*
X5548000Y-3643726D01*
X5548000Y-3623000D01*
X5536800Y-3623000D01*
X5536800Y-3577000D01*
X5548000Y-3577000D01*
X5548000Y-3453000D01*
X5802000Y-3453000D01*
X5802000Y-3577000D01*
%TA.AperFunction,Conductor*%
D32*
G36*
X5802000Y-3577000D02*
G01*
X5822000Y-3577000D01*
X5822000Y-3623000D01*
X5802000Y-3623000D01*
X5802000Y-3643726D01*
X5548000Y-3643726D01*
X5548000Y-3623000D01*
X5536800Y-3623000D01*
X5536800Y-3577000D01*
X5548000Y-3577000D01*
X5548000Y-3453000D01*
X5802000Y-3453000D01*
X5802000Y-3577000D01*
G37*
%TD.AperFunction*%
D31*
X19771171Y-2979225D02*
X19911611Y-3126688D01*
X19984854Y-3178255D01*
X19964513Y-3245311D01*
X19957952Y-3311925D01*
X19748500Y-3102474D01*
X19748500Y-2943436D01*
X19771171Y-2979225D01*
%TA.AperFunction,Conductor*%
D32*
G36*
X19771171Y-2979225D02*
G01*
X19911611Y-3126688D01*
X19984854Y-3178255D01*
X19964513Y-3245311D01*
X19957952Y-3311925D01*
X19748500Y-3102474D01*
X19748500Y-2943436D01*
X19771171Y-2979225D01*
G37*
%TD.AperFunction*%
D31*
X22977304Y-331678D02*
X22919289Y-379289D01*
X22871678Y-437304D01*
X22836299Y-503492D01*
X22814513Y-575311D01*
X22807157Y-650000D01*
X22809000Y-1177750D01*
X22866450Y-1235200D01*
X21607921Y-1235200D01*
X21590000Y-1233435D01*
X21572079Y-1235200D01*
X21518487Y-1240478D01*
X21449722Y-1261338D01*
X21386347Y-1295212D01*
X21369546Y-1309000D01*
X21317000Y-1309000D01*
X21317000Y-1357613D01*
X21285212Y-1396347D01*
X21251338Y-1459722D01*
X21230478Y-1528487D01*
X21223435Y-1600000D01*
X21225201Y-1617932D01*
X21225201Y-2487000D01*
X21063000Y-2487000D01*
X21063000Y-2467000D01*
X21043000Y-2467000D01*
X21043000Y-2213000D01*
X21063000Y-2213000D01*
X21063000Y-1309000D01*
X20463000Y-1309000D01*
X20264302Y-1353587D01*
X20078121Y-1436081D01*
X19911611Y-1553312D01*
X19841029Y-1627423D01*
X18885803Y-672197D01*
X18866557Y-656403D01*
X18844601Y-644667D01*
X18820776Y-637440D01*
X18796000Y-635000D01*
X7620000Y-635000D01*
X7595224Y-637440D01*
X7571399Y-644667D01*
X7549443Y-656403D01*
X7530197Y-672197D01*
X6514197Y-1688197D01*
X6498403Y-1707443D01*
X6486667Y-1729399D01*
X6479440Y-1753224D01*
X6477000Y-1778000D01*
X6477000Y-1867415D01*
X6445711Y-1829289D01*
X6387696Y-1781678D01*
X6321508Y-1746299D01*
X6249689Y-1724513D01*
X6175000Y-1717157D01*
X5897250Y-1719000D01*
X5802000Y-1814250D01*
X5802000Y-2473000D01*
X5822000Y-2473000D01*
X5822000Y-2727000D01*
X5802000Y-2727000D01*
X5802000Y-3069000D01*
X5676390Y-3069000D01*
X5698961Y-3025455D01*
X5710075Y-2997668D01*
X5721576Y-2970039D01*
X5722893Y-2965621D01*
X5771790Y-2797316D01*
X5777291Y-2767918D01*
X5783211Y-2738561D01*
X5783645Y-2733971D01*
X5798920Y-2559374D01*
X5798606Y-2529447D01*
X5798711Y-2499522D01*
X5798245Y-2494935D01*
X5779317Y-2320696D01*
X5773193Y-2291382D01*
X5767486Y-2262023D01*
X5766138Y-2257614D01*
X5713727Y-2090370D01*
X5702045Y-2062849D01*
X5690726Y-2035112D01*
X5688547Y-2031049D01*
X5604650Y-1877171D01*
X5587820Y-1852406D01*
X5571353Y-1827433D01*
X5568427Y-1823870D01*
X5456238Y-1689217D01*
X5434893Y-1668168D01*
X5413915Y-1646895D01*
X5410353Y-1643969D01*
X5274148Y-1533672D01*
X5249157Y-1517194D01*
X5224408Y-1500374D01*
X5220345Y-1498196D01*
X5065311Y-1416456D01*
X5037612Y-1405153D01*
X5010054Y-1393455D01*
X5005646Y-1392107D01*
X4837685Y-1342036D01*
X4808340Y-1336332D01*
X4779013Y-1330205D01*
X4774426Y-1329739D01*
X4599940Y-1313245D01*
X4587040Y-1313290D01*
X4500750Y-1227000D01*
X2342000Y-1227000D01*
X2342000Y-1247000D01*
X2088000Y-1247000D01*
X2088000Y-1227000D01*
X2068000Y-1227000D01*
X2068000Y-973000D01*
X2088000Y-973000D01*
X2088000Y-953000D01*
X2342000Y-953000D01*
X2342000Y-973000D01*
X4500750Y-973000D01*
X4596000Y-877750D01*
X4597843Y-350000D01*
X4595854Y-329800D01*
X22980817Y-329800D01*
X22977304Y-331678D01*
%TA.AperFunction,Conductor*%
D32*
G36*
X22977304Y-331678D02*
G01*
X22919289Y-379289D01*
X22871678Y-437304D01*
X22836299Y-503492D01*
X22814513Y-575311D01*
X22807157Y-650000D01*
X22809000Y-1177750D01*
X22866450Y-1235200D01*
X21607921Y-1235200D01*
X21590000Y-1233435D01*
X21572079Y-1235200D01*
X21518487Y-1240478D01*
X21449722Y-1261338D01*
X21386347Y-1295212D01*
X21369546Y-1309000D01*
X21317000Y-1309000D01*
X21317000Y-1357613D01*
X21285212Y-1396347D01*
X21251338Y-1459722D01*
X21230478Y-1528487D01*
X21223435Y-1600000D01*
X21225201Y-1617932D01*
X21225201Y-2487000D01*
X21063000Y-2487000D01*
X21063000Y-2467000D01*
X21043000Y-2467000D01*
X21043000Y-2213000D01*
X21063000Y-2213000D01*
X21063000Y-1309000D01*
X20463000Y-1309000D01*
X20264302Y-1353587D01*
X20078121Y-1436081D01*
X19911611Y-1553312D01*
X19841029Y-1627423D01*
X18885803Y-672197D01*
X18866557Y-656403D01*
X18844601Y-644667D01*
X18820776Y-637440D01*
X18796000Y-635000D01*
X7620000Y-635000D01*
X7595224Y-637440D01*
X7571399Y-644667D01*
X7549443Y-656403D01*
X7530197Y-672197D01*
X6514197Y-1688197D01*
X6498403Y-1707443D01*
X6486667Y-1729399D01*
X6479440Y-1753224D01*
X6477000Y-1778000D01*
X6477000Y-1867415D01*
X6445711Y-1829289D01*
X6387696Y-1781678D01*
X6321508Y-1746299D01*
X6249689Y-1724513D01*
X6175000Y-1717157D01*
X5897250Y-1719000D01*
X5802000Y-1814250D01*
X5802000Y-2473000D01*
X5822000Y-2473000D01*
X5822000Y-2727000D01*
X5802000Y-2727000D01*
X5802000Y-3069000D01*
X5676390Y-3069000D01*
X5698961Y-3025455D01*
X5710075Y-2997668D01*
X5721576Y-2970039D01*
X5722893Y-2965621D01*
X5771790Y-2797316D01*
X5777291Y-2767918D01*
X5783211Y-2738561D01*
X5783645Y-2733971D01*
X5798920Y-2559374D01*
X5798606Y-2529447D01*
X5798711Y-2499522D01*
X5798245Y-2494935D01*
X5779317Y-2320696D01*
X5773193Y-2291382D01*
X5767486Y-2262023D01*
X5766138Y-2257614D01*
X5713727Y-2090370D01*
X5702045Y-2062849D01*
X5690726Y-2035112D01*
X5688547Y-2031049D01*
X5604650Y-1877171D01*
X5587820Y-1852406D01*
X5571353Y-1827433D01*
X5568427Y-1823870D01*
X5456238Y-1689217D01*
X5434893Y-1668168D01*
X5413915Y-1646895D01*
X5410353Y-1643969D01*
X5274148Y-1533672D01*
X5249157Y-1517194D01*
X5224408Y-1500374D01*
X5220345Y-1498196D01*
X5065311Y-1416456D01*
X5037612Y-1405153D01*
X5010054Y-1393455D01*
X5005646Y-1392107D01*
X4837685Y-1342036D01*
X4808340Y-1336332D01*
X4779013Y-1330205D01*
X4774426Y-1329739D01*
X4599940Y-1313245D01*
X4587040Y-1313290D01*
X4500750Y-1227000D01*
X2342000Y-1227000D01*
X2342000Y-1247000D01*
X2088000Y-1247000D01*
X2088000Y-1227000D01*
X2068000Y-1227000D01*
X2068000Y-973000D01*
X2088000Y-973000D01*
X2088000Y-953000D01*
X2342000Y-953000D01*
X2342000Y-973000D01*
X4500750Y-973000D01*
X4596000Y-877750D01*
X4597843Y-350000D01*
X4595854Y-329800D01*
X22980817Y-329800D01*
X22977304Y-331678D01*
G37*
%TD.AperFunction*%
D31*
X24417000Y-1273000D02*
X24437000Y-1273000D01*
X24437000Y-1527000D01*
X24417000Y-1527000D01*
X24417000Y-1785200D01*
X24163000Y-1785200D01*
X24163000Y-1527000D01*
X24143000Y-1527000D01*
X24143000Y-1273000D01*
X24163000Y-1273000D01*
X24163000Y-1253000D01*
X24417000Y-1253000D01*
X24417000Y-1273000D01*
%TA.AperFunction,Conductor*%
D32*
G36*
X24417000Y-1273000D02*
G01*
X24437000Y-1273000D01*
X24437000Y-1527000D01*
X24417000Y-1527000D01*
X24417000Y-1785200D01*
X24163000Y-1785200D01*
X24163000Y-1527000D01*
X24143000Y-1527000D01*
X24143000Y-1273000D01*
X24163000Y-1273000D01*
X24163000Y-1253000D01*
X24417000Y-1253000D01*
X24417000Y-1273000D01*
G37*
%TD.AperFunction*%
%TD*%
D31*
%TO.N,/VBUS_RECEP*%
X11176000Y-4814273D02*
X11110000Y-4807772D01*
X9835000Y-4807772D01*
X9765698Y-4814598D01*
X9728110Y-4826000D01*
X9255691Y-4826000D01*
X9251478Y-4804822D01*
X9213184Y-4712372D01*
X9157589Y-4629169D01*
X9086831Y-4558411D01*
X9003628Y-4502816D01*
X8911178Y-4464522D01*
X8813034Y-4445000D01*
X8712966Y-4445000D01*
X8614822Y-4464522D01*
X8522372Y-4502816D01*
X8439169Y-4558411D01*
X8368411Y-4629169D01*
X8312816Y-4712372D01*
X8274522Y-4804822D01*
X8255000Y-4902966D01*
X8255000Y-4958106D01*
X8018818Y-5194289D01*
X5742566Y-5194289D01*
X5725111Y-5192570D01*
X5707656Y-5194289D01*
X5707648Y-5194289D01*
X5702744Y-5194772D01*
X5486000Y-5194772D01*
X5486000Y-5005228D01*
X6175000Y-5005228D01*
X6224793Y-5000324D01*
X6272672Y-4985800D01*
X6316797Y-4962214D01*
X6350932Y-4934200D01*
X6510460Y-4934200D01*
X6529170Y-4936043D01*
X6547880Y-4934200D01*
X6547883Y-4934200D01*
X6603859Y-4928687D01*
X6675678Y-4906901D01*
X6741866Y-4871522D01*
X6797336Y-4826000D01*
X6985000Y-4826000D01*
X7009776Y-4823560D01*
X7033601Y-4816333D01*
X7055557Y-4804597D01*
X7073268Y-4790312D01*
X8941349Y-2984500D01*
X11176000Y-2984500D01*
X11176000Y-4814273D01*
%TA.AperFunction,Conductor*%
D32*
G36*
X11176000Y-4814273D02*
G01*
X11110000Y-4807772D01*
X9835000Y-4807772D01*
X9765698Y-4814598D01*
X9728110Y-4826000D01*
X9255691Y-4826000D01*
X9251478Y-4804822D01*
X9213184Y-4712372D01*
X9157589Y-4629169D01*
X9086831Y-4558411D01*
X9003628Y-4502816D01*
X8911178Y-4464522D01*
X8813034Y-4445000D01*
X8712966Y-4445000D01*
X8614822Y-4464522D01*
X8522372Y-4502816D01*
X8439169Y-4558411D01*
X8368411Y-4629169D01*
X8312816Y-4712372D01*
X8274522Y-4804822D01*
X8255000Y-4902966D01*
X8255000Y-4958106D01*
X8018818Y-5194289D01*
X5742566Y-5194289D01*
X5725111Y-5192570D01*
X5707656Y-5194289D01*
X5707648Y-5194289D01*
X5702744Y-5194772D01*
X5486000Y-5194772D01*
X5486000Y-5005228D01*
X6175000Y-5005228D01*
X6224793Y-5000324D01*
X6272672Y-4985800D01*
X6316797Y-4962214D01*
X6350932Y-4934200D01*
X6510460Y-4934200D01*
X6529170Y-4936043D01*
X6547880Y-4934200D01*
X6547883Y-4934200D01*
X6603859Y-4928687D01*
X6675678Y-4906901D01*
X6741866Y-4871522D01*
X6797336Y-4826000D01*
X6985000Y-4826000D01*
X7009776Y-4823560D01*
X7033601Y-4816333D01*
X7055557Y-4804597D01*
X7073268Y-4790312D01*
X8941349Y-2984500D01*
X11176000Y-2984500D01*
X11176000Y-4814273D01*
G37*
%TD.AperFunction*%
%TD*%
D31*
%TO.N,/VBUS_PLUG*%
X20037832Y-7500519D02*
X20097540Y-7506400D01*
X20097547Y-7506400D01*
X20117500Y-7508365D01*
X20137453Y-7506400D01*
X20351546Y-7506400D01*
X20371499Y-7508365D01*
X20391452Y-7506400D01*
X21109960Y-7506400D01*
X21169668Y-7500519D01*
X21194455Y-7493000D01*
X21276000Y-7493000D01*
X21276000Y-7714772D01*
X20590000Y-7714772D01*
X20547071Y-7719000D01*
X20358708Y-7719000D01*
X20339998Y-7717157D01*
X20321288Y-7719000D01*
X20321286Y-7719000D01*
X20265310Y-7724513D01*
X20193491Y-7746299D01*
X20192180Y-7747000D01*
X19621500Y-7747000D01*
X19596724Y-7749440D01*
X19572899Y-7756667D01*
X19550943Y-7768403D01*
X19531697Y-7784197D01*
X19060894Y-8255000D01*
X18721606Y-8255000D01*
X18415000Y-7948394D01*
X18415000Y-7493000D01*
X20013045Y-7493000D01*
X20037832Y-7500519D01*
%TA.AperFunction,Conductor*%
D32*
G36*
X20037832Y-7500519D02*
G01*
X20097540Y-7506400D01*
X20097547Y-7506400D01*
X20117500Y-7508365D01*
X20137453Y-7506400D01*
X20351546Y-7506400D01*
X20371499Y-7508365D01*
X20391452Y-7506400D01*
X21109960Y-7506400D01*
X21169668Y-7500519D01*
X21194455Y-7493000D01*
X21276000Y-7493000D01*
X21276000Y-7714772D01*
X20590000Y-7714772D01*
X20547071Y-7719000D01*
X20358708Y-7719000D01*
X20339998Y-7717157D01*
X20321288Y-7719000D01*
X20321286Y-7719000D01*
X20265310Y-7724513D01*
X20193491Y-7746299D01*
X20192180Y-7747000D01*
X19621500Y-7747000D01*
X19596724Y-7749440D01*
X19572899Y-7756667D01*
X19550943Y-7768403D01*
X19531697Y-7784197D01*
X19060894Y-8255000D01*
X18721606Y-8255000D01*
X18415000Y-7948394D01*
X18415000Y-7493000D01*
X20013045Y-7493000D01*
X20037832Y-7500519D01*
G37*
%TD.AperFunction*%
%TD*%
D31*
%TO.N,+3V3*%
X6604000Y-16074899D02*
X6604000Y-17246600D01*
X5593056Y-17246600D01*
X5534040Y-17222155D01*
X5401545Y-17195800D01*
X5334000Y-17195800D01*
X5334000Y-15875000D01*
X6404101Y-15875000D01*
X6604000Y-16074899D01*
%TA.AperFunction,Conductor*%
D32*
G36*
X6604000Y-16074899D02*
G01*
X6604000Y-17246600D01*
X5593056Y-17246600D01*
X5534040Y-17222155D01*
X5401545Y-17195800D01*
X5334000Y-17195800D01*
X5334000Y-15875000D01*
X6404101Y-15875000D01*
X6604000Y-16074899D01*
G37*
%TD.AperFunction*%
%TD*%
D31*
%TO.N,/CC2_RECEP*%
X9398000Y-7429500D02*
X8458077Y-7429500D01*
X7621368Y-7262158D01*
X7545605Y-7186395D01*
X7507115Y-7154807D01*
X7463202Y-7131335D01*
X7415553Y-7116881D01*
X7366000Y-7112000D01*
X5486000Y-7112000D01*
X5486000Y-7005228D01*
X6175000Y-7005228D01*
X6224793Y-7000324D01*
X6272672Y-6985800D01*
X6301603Y-6970336D01*
X6312533Y-6983654D01*
X6366680Y-7028092D01*
X6428456Y-7061112D01*
X6495486Y-7081445D01*
X6547733Y-7086591D01*
X6547742Y-7086591D01*
X6565195Y-7088310D01*
X6582648Y-7086591D01*
X6969402Y-7086591D01*
X6986857Y-7088310D01*
X7004312Y-7086591D01*
X7004320Y-7086591D01*
X7056567Y-7081445D01*
X7123597Y-7061112D01*
X7185373Y-7028092D01*
X7239520Y-6983654D01*
X7250656Y-6970086D01*
X7299242Y-6921500D01*
X9398000Y-6921500D01*
X9398000Y-7429500D01*
%TA.AperFunction,Conductor*%
D32*
G36*
X9398000Y-7429500D02*
G01*
X8458077Y-7429500D01*
X7621368Y-7262158D01*
X7545605Y-7186395D01*
X7507115Y-7154807D01*
X7463202Y-7131335D01*
X7415553Y-7116881D01*
X7366000Y-7112000D01*
X5486000Y-7112000D01*
X5486000Y-7005228D01*
X6175000Y-7005228D01*
X6224793Y-7000324D01*
X6272672Y-6985800D01*
X6301603Y-6970336D01*
X6312533Y-6983654D01*
X6366680Y-7028092D01*
X6428456Y-7061112D01*
X6495486Y-7081445D01*
X6547733Y-7086591D01*
X6547742Y-7086591D01*
X6565195Y-7088310D01*
X6582648Y-7086591D01*
X6969402Y-7086591D01*
X6986857Y-7088310D01*
X7004312Y-7086591D01*
X7004320Y-7086591D01*
X7056567Y-7081445D01*
X7123597Y-7061112D01*
X7185373Y-7028092D01*
X7239520Y-6983654D01*
X7250656Y-6970086D01*
X7299242Y-6921500D01*
X9398000Y-6921500D01*
X9398000Y-7429500D01*
G37*
%TD.AperFunction*%
%TD*%
D31*
%TO.N,/VBUS_PLUG*%
X18161000Y-3683000D02*
X18163440Y-3707776D01*
X18170667Y-3731601D01*
X18182403Y-3753557D01*
X18198197Y-3772803D01*
X19341197Y-4915803D01*
X19360443Y-4931597D01*
X19382399Y-4943333D01*
X19406224Y-4950560D01*
X19431000Y-4953000D01*
X20192180Y-4953000D01*
X20193491Y-4953701D01*
X20265310Y-4975487D01*
X20321286Y-4981000D01*
X20321288Y-4981000D01*
X20339998Y-4982843D01*
X20358708Y-4981000D01*
X20547071Y-4981000D01*
X20590000Y-4985228D01*
X21276001Y-4985228D01*
X21276001Y-5214772D01*
X20590000Y-5214772D01*
X20540207Y-5219676D01*
X20492328Y-5234200D01*
X20473246Y-5244400D01*
X19694389Y-5244400D01*
X19676933Y-5242681D01*
X19659478Y-5244400D01*
X19659471Y-5244400D01*
X19607224Y-5249546D01*
X19540194Y-5269879D01*
X19525373Y-5277801D01*
X18505450Y-5277801D01*
X18217276Y-5189132D01*
X17837514Y-4809370D01*
X17823978Y-4741322D01*
X17785684Y-4648872D01*
X17730089Y-4565669D01*
X17659331Y-4494911D01*
X17576128Y-4439316D01*
X17483678Y-4401022D01*
X17385534Y-4381500D01*
X17285466Y-4381500D01*
X17187322Y-4401022D01*
X17094872Y-4439316D01*
X17011669Y-4494911D01*
X16940911Y-4565669D01*
X16885316Y-4648872D01*
X16847022Y-4741322D01*
X16833804Y-4807772D01*
X16423475Y-4807772D01*
X16392843Y-4791399D01*
X16297085Y-4762351D01*
X16197500Y-4752543D01*
X16097916Y-4762351D01*
X16002158Y-4791399D01*
X15971526Y-4807772D01*
X15560000Y-4807772D01*
X15494000Y-4814273D01*
X15494000Y-3048000D01*
X18161000Y-3048000D01*
X18161000Y-3683000D01*
%TA.AperFunction,Conductor*%
D32*
G36*
X18161000Y-3683000D02*
G01*
X18163440Y-3707776D01*
X18170667Y-3731601D01*
X18182403Y-3753557D01*
X18198197Y-3772803D01*
X19341197Y-4915803D01*
X19360443Y-4931597D01*
X19382399Y-4943333D01*
X19406224Y-4950560D01*
X19431000Y-4953000D01*
X20192180Y-4953000D01*
X20193491Y-4953701D01*
X20265310Y-4975487D01*
X20321286Y-4981000D01*
X20321288Y-4981000D01*
X20339998Y-4982843D01*
X20358708Y-4981000D01*
X20547071Y-4981000D01*
X20590000Y-4985228D01*
X21276001Y-4985228D01*
X21276001Y-5214772D01*
X20590000Y-5214772D01*
X20540207Y-5219676D01*
X20492328Y-5234200D01*
X20473246Y-5244400D01*
X19694389Y-5244400D01*
X19676933Y-5242681D01*
X19659478Y-5244400D01*
X19659471Y-5244400D01*
X19607224Y-5249546D01*
X19540194Y-5269879D01*
X19525373Y-5277801D01*
X18505450Y-5277801D01*
X18217276Y-5189132D01*
X17837514Y-4809370D01*
X17823978Y-4741322D01*
X17785684Y-4648872D01*
X17730089Y-4565669D01*
X17659331Y-4494911D01*
X17576128Y-4439316D01*
X17483678Y-4401022D01*
X17385534Y-4381500D01*
X17285466Y-4381500D01*
X17187322Y-4401022D01*
X17094872Y-4439316D01*
X17011669Y-4494911D01*
X16940911Y-4565669D01*
X16885316Y-4648872D01*
X16847022Y-4741322D01*
X16833804Y-4807772D01*
X16423475Y-4807772D01*
X16392843Y-4791399D01*
X16297085Y-4762351D01*
X16197500Y-4752543D01*
X16097916Y-4762351D01*
X16002158Y-4791399D01*
X15971526Y-4807772D01*
X15560000Y-4807772D01*
X15494000Y-4814273D01*
X15494000Y-3048000D01*
X18161000Y-3048000D01*
X18161000Y-3683000D01*
G37*
%TD.AperFunction*%
%TD*%
D31*
%TO.N,/CC2_PLUG*%
X19955000Y-6938250D02*
X19989748Y-6972998D01*
X19955000Y-6972998D01*
X19955000Y-7061200D01*
X18288000Y-7061200D01*
X18228536Y-7067057D01*
X18171358Y-7084402D01*
X18118662Y-7112568D01*
X18072474Y-7150474D01*
X18034568Y-7196662D01*
X18006402Y-7249358D01*
X17989057Y-7306536D01*
X17983200Y-7366000D01*
X17983200Y-8001000D01*
X17989057Y-8060464D01*
X18006402Y-8117642D01*
X18011938Y-8128000D01*
X17678400Y-8128000D01*
X17678400Y-7569953D01*
X17680365Y-7550000D01*
X17678400Y-7530047D01*
X17678400Y-7530040D01*
X17672519Y-7470332D01*
X17672419Y-7470000D01*
X17653000Y-7405985D01*
X17653000Y-6858000D01*
X19963972Y-6858000D01*
X19955000Y-6938250D01*
%TA.AperFunction,Conductor*%
D32*
G36*
X19955000Y-6938250D02*
G01*
X19989748Y-6972998D01*
X19955000Y-6972998D01*
X19955000Y-7061200D01*
X18288000Y-7061200D01*
X18228536Y-7067057D01*
X18171358Y-7084402D01*
X18118662Y-7112568D01*
X18072474Y-7150474D01*
X18034568Y-7196662D01*
X18006402Y-7249358D01*
X17989057Y-7306536D01*
X17983200Y-7366000D01*
X17983200Y-8001000D01*
X17989057Y-8060464D01*
X18006402Y-8117642D01*
X18011938Y-8128000D01*
X17678400Y-8128000D01*
X17678400Y-7569953D01*
X17680365Y-7550000D01*
X17678400Y-7530047D01*
X17678400Y-7530040D01*
X17672519Y-7470332D01*
X17672419Y-7470000D01*
X17653000Y-7405985D01*
X17653000Y-6858000D01*
X19963972Y-6858000D01*
X19955000Y-6938250D01*
G37*
%TD.AperFunction*%
D31*
X21209000Y-7061200D02*
X20963000Y-7061200D01*
X20963000Y-7036274D01*
X21209000Y-7036274D01*
X21209000Y-7061200D01*
%TA.AperFunction,Conductor*%
D32*
G36*
X21209000Y-7061200D02*
G01*
X20963000Y-7061200D01*
X20963000Y-7036274D01*
X21209000Y-7036274D01*
X21209000Y-7061200D01*
G37*
%TD.AperFunction*%
%TD*%
D31*
%TO.N,/VBUS_RECEP*%
X5680124Y-7525288D02*
X5732371Y-7530434D01*
X5732380Y-7530434D01*
X5749833Y-7532153D01*
X5767286Y-7530434D01*
X7350828Y-7530434D01*
X8202394Y-8382000D01*
X7529588Y-8382000D01*
X6978242Y-7846406D01*
X6958770Y-7830892D01*
X6936645Y-7819475D01*
X6912719Y-7812594D01*
X6889750Y-7810500D01*
X6581232Y-7810500D01*
X6548678Y-7793099D01*
X6476859Y-7771313D01*
X6420883Y-7765800D01*
X6420880Y-7765800D01*
X6402170Y-7763957D01*
X6383460Y-7765800D01*
X6350932Y-7765800D01*
X6316797Y-7737786D01*
X6272672Y-7714200D01*
X6224793Y-7699676D01*
X6175000Y-7694772D01*
X5486000Y-7694772D01*
X5486000Y-7505228D01*
X5613994Y-7505228D01*
X5680124Y-7525288D01*
%TA.AperFunction,Conductor*%
D32*
G36*
X5680124Y-7525288D02*
G01*
X5732371Y-7530434D01*
X5732380Y-7530434D01*
X5749833Y-7532153D01*
X5767286Y-7530434D01*
X7350828Y-7530434D01*
X8202394Y-8382000D01*
X7529588Y-8382000D01*
X6978242Y-7846406D01*
X6958770Y-7830892D01*
X6936645Y-7819475D01*
X6912719Y-7812594D01*
X6889750Y-7810500D01*
X6581232Y-7810500D01*
X6548678Y-7793099D01*
X6476859Y-7771313D01*
X6420883Y-7765800D01*
X6420880Y-7765800D01*
X6402170Y-7763957D01*
X6383460Y-7765800D01*
X6350932Y-7765800D01*
X6316797Y-7737786D01*
X6272672Y-7714200D01*
X6224793Y-7699676D01*
X6175000Y-7694772D01*
X5486000Y-7694772D01*
X5486000Y-7505228D01*
X5613994Y-7505228D01*
X5680124Y-7525288D01*
G37*
%TD.AperFunction*%
%TD*%
D31*
%TO.N,+5V*%
X4626157Y-20062400D02*
X4633513Y-20137089D01*
X4655299Y-20208908D01*
X4690678Y-20275096D01*
X4738289Y-20333111D01*
X4796304Y-20380722D01*
X4862492Y-20416101D01*
X4934311Y-20437887D01*
X5009000Y-20445243D01*
X5659000Y-20445243D01*
X5733689Y-20437887D01*
X5805508Y-20416101D01*
X5871696Y-20380722D01*
X5929711Y-20333111D01*
X5977322Y-20275096D01*
X6012701Y-20208908D01*
X6034487Y-20137089D01*
X6041843Y-20062400D01*
X6041843Y-18669000D01*
X6477000Y-18669000D01*
X6477000Y-21658496D01*
X6462098Y-21686376D01*
X6431492Y-21787272D01*
X6421157Y-21892200D01*
X6421157Y-22202200D01*
X6431492Y-22307128D01*
X6452808Y-22377400D01*
X4191000Y-22377400D01*
X4191000Y-21444813D01*
X4215522Y-21398937D01*
X4246412Y-21297103D01*
X4256843Y-21191200D01*
X4256843Y-20871200D01*
X4246412Y-20765297D01*
X4215522Y-20663463D01*
X4191000Y-20617587D01*
X4191000Y-18669000D01*
X4626157Y-18669000D01*
X4626157Y-20062400D01*
%TA.AperFunction,Conductor*%
D32*
G36*
X4626157Y-20062400D02*
G01*
X4633513Y-20137089D01*
X4655299Y-20208908D01*
X4690678Y-20275096D01*
X4738289Y-20333111D01*
X4796304Y-20380722D01*
X4862492Y-20416101D01*
X4934311Y-20437887D01*
X5009000Y-20445243D01*
X5659000Y-20445243D01*
X5733689Y-20437887D01*
X5805508Y-20416101D01*
X5871696Y-20380722D01*
X5929711Y-20333111D01*
X5977322Y-20275096D01*
X6012701Y-20208908D01*
X6034487Y-20137089D01*
X6041843Y-20062400D01*
X6041843Y-18669000D01*
X6477000Y-18669000D01*
X6477000Y-21658496D01*
X6462098Y-21686376D01*
X6431492Y-21787272D01*
X6421157Y-21892200D01*
X6421157Y-22202200D01*
X6431492Y-22307128D01*
X6452808Y-22377400D01*
X4191000Y-22377400D01*
X4191000Y-21444813D01*
X4215522Y-21398937D01*
X4246412Y-21297103D01*
X4256843Y-21191200D01*
X4256843Y-20871200D01*
X4246412Y-20765297D01*
X4215522Y-20663463D01*
X4191000Y-20617587D01*
X4191000Y-18669000D01*
X4626157Y-18669000D01*
X4626157Y-20062400D01*
G37*
%TD.AperFunction*%
%TD*%
M02*
