G04 ================== begin FILE IDENTIFICATION RECORD ==================*
G04 Layout Name:  180-10114-04.brd*
G04 Film Name:    bot_paste*
G04 File Format:  Gerber RS274X*
G04 File Origin:  Cadence Allegro 16.6-S039*
G04 Origin Date:  Wed Dec 17 11:03:58 2014*
G04 *
G04 Layer:  VIA CLASS/PASTEMASK_BOTTOM*
G04 Layer:  PIN/PASTEMASK_BOTTOM*
G04 Layer:  PACKAGE GEOMETRY/PASTEMASK_BOTTOM*
G04 Layer:  BOARD GEOMETRY/OUTLINE*
G04 *
G04 Offset:    (0.0000 0.0000)*
G04 Mirror:    No*
G04 Mode:      Positive*
G04 Rotation:  0*
G04 FullContactRelief:  No*
G04 UndefLineWidth:     0.1016*
G04 ================== end FILE IDENTIFICATION RECORD ====================*
%FSLAX35Y35*MOMM*%
%IR0*IPPOS*OFA0.00000B0.00000*MIA0B0*SFA1.00000B1.00000*%
%ADD14R,1.X.8*%
%AMMACRO16*
21,1,.45,.45,0.0,0.0,45.*%
%ADD16MACRO16*%
%ADD10R,1.4254X.3254*%
%ADD13R,1.X2.45*%
%ADD12R,.3X.3*%
%ADD11R,.26X.51*%
%ADD15R,.26X.16*%
%ADD17C,.1016*%
G75*
%LPD*%
G75*
G54D10*
X11591270Y9602500D03*
Y9652500D03*
Y9702500D03*
Y9752500D03*
Y9802500D03*
Y9852500D03*
Y9902500D03*
Y9952500D03*
Y10002500D03*
Y10052500D03*
Y10102500D03*
Y10152500D03*
G54D11*
X11987500Y9640000D03*
G54D12*
X11990000Y9722010D03*
Y9777990D03*
X12060000Y9722010D03*
X12233700Y9704190D03*
Y9648210D03*
X12060000Y9777990D03*
X12280000Y10367990D03*
Y10312010D03*
X12401800Y9711790D03*
Y9655810D03*
X12350000Y10312010D03*
Y10367990D03*
X12420000Y10312010D03*
Y10367990D03*
X12570000Y9612010D03*
Y9667990D03*
X12702300Y10231910D03*
Y10287890D03*
X12990000Y9392010D03*
Y9447990D03*
X12920000Y9738000D03*
Y9682000D03*
X12980000Y9682010D03*
Y9737990D03*
X12910000Y10357990D03*
Y10302010D03*
X12840000D03*
Y10357990D03*
X13040000Y9682010D03*
Y9737990D03*
G54D13*
X11842500Y10181300D03*
X12017500D03*
G54D14*
Y10368700D03*
X11842500D03*
G54D15*
X12052500Y9622500D03*
Y9657500D03*
G54D16*
X13710100Y9000000D03*
X13589900D03*
X13650000Y9060100D03*
Y8939900D03*
G54D17*
G01X8625160Y7117140D02*
Y7594660D01*
X8768420D01*
X8816170Y7570770D01*
X8851990Y7515080D01*
X8863920Y7451410D01*
X8851990Y7387740D01*
X8822140Y7339980D01*
X8768420Y7316090D01*
X8625160D01*
G01X9072830Y7117140D02*
X9222050Y7594660D01*
X9371290Y7117140D01*
G01X9317560Y7284270D02*
X9126550D01*
G01X9574230Y7180800D02*
X9621980Y7141010D01*
X9675700Y7117140D01*
X9723460D01*
X9771210Y7141010D01*
X9807030Y7180800D01*
X9824930Y7236520D01*
X9812990Y7292220D01*
X9783140Y7339980D01*
X9729420Y7371820D01*
X9657800Y7387740D01*
X9616020Y7419560D01*
X9598100Y7475280D01*
X9610050Y7530990D01*
X9639890Y7570770D01*
X9681670Y7594660D01*
X9723460D01*
X9765240Y7578750D01*
X9801060Y7538950D01*
G01X10177090Y7594660D02*
Y7117140D01*
G01X10039820Y7594660D02*
X10314380D01*
G01X10774000Y7117140D02*
X10535240D01*
Y7594660D01*
X10774000D01*
G01X10678500Y7363860D02*
X10535240D01*
G01X10976940Y7117140D02*
Y7594660D01*
X11132130Y7196720D01*
X11287340Y7594660D01*
Y7117140D01*
G01X11460430D02*
X11609650Y7594660D01*
X11758890Y7117140D01*
G01X11705160Y7284270D02*
X11514150D01*
G01X11961830Y7180800D02*
X12009580Y7141010D01*
X12063300Y7117140D01*
X12111060D01*
X12158810Y7141010D01*
X12194630Y7180800D01*
X12212530Y7236520D01*
X12200590Y7292220D01*
X12170740Y7339980D01*
X12117020Y7371820D01*
X12045400Y7387740D01*
X12003620Y7419560D01*
X11985700Y7475280D01*
X11997650Y7530990D01*
X12027490Y7570770D01*
X12069270Y7594660D01*
X12111060D01*
X12152840Y7578750D01*
X12188660Y7538950D01*
G01X12433380Y7117140D02*
Y7594660D01*
G01X12660200D02*
X12433380Y7300180D01*
G01X12696020Y7117140D02*
X12534860Y7435480D01*
G01X13567490Y7371820D02*
X13591370Y7395690D01*
X13609270Y7435480D01*
X13621220Y7491200D01*
X13609270Y7538950D01*
X13585400Y7570770D01*
X13543620Y7594660D01*
X13382460D01*
Y7117140D01*
X13579430D01*
X13621220Y7148970D01*
X13645090Y7196720D01*
X13657020Y7252440D01*
X13645090Y7308140D01*
X13609270Y7355890D01*
X13567490Y7371820D01*
X13382460D01*
G01X13997250Y7117140D02*
X13949500Y7125100D01*
X13907730Y7156920D01*
X13871910Y7204680D01*
X13848030Y7260390D01*
X13836090Y7324060D01*
Y7387740D01*
X13848030Y7451410D01*
X13871910Y7507120D01*
X13907730Y7554860D01*
X13949500Y7586700D01*
X13997250Y7594660D01*
X14045010Y7586700D01*
X14086790Y7554860D01*
X14122610Y7507120D01*
X14146490Y7451410D01*
X14158430Y7387740D01*
Y7324060D01*
X14146490Y7260390D01*
X14122610Y7204680D01*
X14086790Y7156920D01*
X14045010Y7125100D01*
X13997250Y7117140D01*
G01X14474770Y7594660D02*
Y7117140D01*
G01X14337500Y7594660D02*
X14612060D01*
G01X14952290D02*
Y7117140D01*
G01X14815020Y7594660D02*
X15089580D01*
G01X15429810Y7117140D02*
X15382060Y7125100D01*
X15340290Y7156920D01*
X15304470Y7204680D01*
X15280590Y7260390D01*
X15268650Y7324060D01*
Y7387740D01*
X15280590Y7451410D01*
X15304470Y7507120D01*
X15340290Y7554860D01*
X15382060Y7586700D01*
X15429810Y7594660D01*
X15477570Y7586700D01*
X15519350Y7554860D01*
X15555170Y7507120D01*
X15579050Y7451410D01*
X15590990Y7387740D01*
Y7324060D01*
X15579050Y7260390D01*
X15555170Y7204680D01*
X15519350Y7156920D01*
X15477570Y7125100D01*
X15429810Y7117140D01*
G01X15752140D02*
Y7594660D01*
X15907330Y7196720D01*
X16062540Y7594660D01*
Y7117140D01*
G01X11481270Y10195000D02*
X11607340D01*
X11636270D01*
Y10210790D01*
Y10317500D01*
X11764360D01*
X11764400Y10317460D01*
Y10430000D01*
X11814400Y10480000D01*
X13875500D01*
X13925500Y10430000D01*
Y10260000D01*
X13480000D01*
Y9310000D01*
X13925500D01*
Y9105000D01*
X13675500Y8855000D01*
X12765000D01*
Y9405000D01*
X11975000D01*
Y8855000D01*
X11814400D01*
X11764400Y8905000D01*
Y9437500D01*
X11636270D01*
Y9560000D01*
X11481270D01*
Y10195000D01*
G01X13781590Y5753500D02*
Y6149740D01*
X13722150Y6070500D01*
G01Y5753500D02*
X13841020D01*
G01X14236250D02*
X14270920Y5760100D01*
X14310540Y5779910D01*
X14335310Y5812920D01*
X14345220Y5859170D01*
X14335310Y5905380D01*
X14305590Y5945010D01*
X14261010Y5964830D01*
X14211490D01*
X14181770Y5978040D01*
X14157000Y6011050D01*
X14147090Y6057280D01*
X14161960Y6103510D01*
X14196620Y6136530D01*
X14236250Y6149740D01*
X14275870Y6136530D01*
X14310540Y6103510D01*
X14325410Y6057280D01*
X14315490Y6011050D01*
X14290730Y5978040D01*
X14261010Y5964830D01*
X14211490D01*
X14166910Y5945010D01*
X14137190Y5905380D01*
X14127280Y5859170D01*
X14137190Y5812920D01*
X14161960Y5779910D01*
X14201580Y5760100D01*
X14236250Y5753500D01*
G01X14690910Y6149740D02*
X14651280Y6136530D01*
X14621570Y6103510D01*
X14601750Y6063890D01*
X14586900Y6011050D01*
X14581940Y5951610D01*
X14586900Y5892180D01*
X14601750Y5839350D01*
X14621570Y5799720D01*
X14651280Y5766710D01*
X14690910Y5753500D01*
X14730530Y5766710D01*
X14760250Y5799720D01*
X14780070Y5839350D01*
X14794920Y5892180D01*
X14799880Y5951610D01*
X14794920Y6011050D01*
X14780070Y6063890D01*
X14760250Y6103510D01*
X14730530Y6136530D01*
X14690910Y6149740D01*
G01X15081180Y5885580D02*
X15209960D01*
M02*
