G04 ================== begin FILE IDENTIFICATION RECORD ==================*
G04 Layout Name:  180-10114-04.brd*
G04 Film Name:    TOP*
G04 File Format:  Gerber RS274X*
G04 File Origin:  Cadence Allegro 16.6-S039*
G04 Origin Date:  Wed Dec 17 11:03:58 2014*
G04 *
G04 Layer:  VIA CLASS/TOP*
G04 Layer:  PIN/TOP*
G04 Layer:  ETCH/TOP*
G04 Layer:  BOARD GEOMETRY/OUTLINE*
G04 *
G04 Offset:    (0.0000 0.0000)*
G04 Mirror:    No*
G04 Mode:      Positive*
G04 Rotation:  0*
G04 FullContactRelief:  No*
G04 UndefLineWidth:     0.1016*
G04 ================== end FILE IDENTIFICATION RECORD ====================*
%FSLAX35Y35*MOMM*%
%IR0*IPPOS*OFA0.00000B0.00000*MIA0B0*SFA1.00000B1.00000*%
%AMMACRO28*
4,1,10,.25,.105,
.32,.175,
.25,.175,
-.22,.175,
-.25,.175,
-.32,.175,
-.32,-.175,
-.25,-.175,
-.22,-.175,
-.03,-.175,
.25,.105,
0.0*
%
%ADD28MACRO28*%
%AMMACRO27*
4,1,9,.25,-.15,
.25,-.05,
.25,-.045,
.03,.175,
-.25,.175,
-.25,.15,
-.25,-.15,
-.25,-.175,
.25,-.175,
.25,-.15,
0.0*
%
%ADD27MACRO27*%
%ADD17R,1.X.8*%
%ADD19R,.45X1.1*%
%ADD30C,.3*%
%ADD13C,.22*%
%ADD16C,.25*%
%ADD35C,.65*%
%AMMACRO29*
21,1,.25,.25,0.0,0.0,45.*%
%ADD29MACRO29*%
%AMMACRO37*
21,1,.45,.45,0.0,0.0,45.*%
%ADD37MACRO37*%
%ADD10R,1.4254X.3254*%
%ADD34O,2.X1.*%
%ADD33O,1.6X1.*%
%ADD11O,1.2X2.2*%
%AMMACRO25*
4,1,7,-.25,-.045,
-.25,-.175,
.22,-.175,
.25,-.175,
.25,.175,
.22,.175,
-.03,.175,
-.25,-.045,
0.0*
%
%ADD25MACRO25*%
%ADD23R,.3X.3*%
%ADD12O,1.2X1.9*%
%ADD20R,.3X.3*%
%ADD18R,1.X2.45*%
%AMMACRO26*
4,1,9,-.25,.15,
-.25,.05,
-.25,.045,
-.03,-.175,
.25,-.175,
.25,-.15,
.25,.15,
.25,.175,
-.25,.175,
-.25,.15,
0.0*
%
%ADD26MACRO26*%
%ADD22R,.22X.3*%
%ADD31R,.4X.5*%
%ADD24R,.6X.6*%
%ADD21R,.4X.35*%
%ADD15R,.4X.7*%
%ADD32R,.6X.35*%
%ADD36O,.65X.95*%
%ADD14R,.5999X.65*%
%ADD38C,.2*%
%ADD39C,.203*%
%ADD40C,.32*%
%ADD41C,.127*%
%ADD42C,.157*%
%ADD43C,.178*%
%ADD44C,.1016*%
G75*
%LPD*%
G75*
G36*
G01X11830000Y8880000D02*
X11790000Y8920000D01*
Y9450000D01*
X11650000Y9590000D01*
X11540000D01*
Y9620000D01*
X11866680D01*
Y9614380D01*
X11875620D01*
X11950000Y9540000D01*
Y8880000D01*
X11830000D01*
G37*
G36*
G01X11850000Y9740800D02*
Y9720000D01*
X11675260D01*
Y9731490D01*
X11670000D01*
Y9770000D01*
X11783940D01*
X11791860Y9762080D01*
X11828720D01*
X11850000Y9740800D01*
G37*
G36*
G01X11874700Y10144700D02*
Y10070800D01*
X11838020Y10034120D01*
X11825140D01*
X11822740Y10031720D01*
X11817250D01*
X11794550Y10009020D01*
X11793930D01*
X11764910Y9980000D01*
X11675260D01*
Y9981490D01*
X11670000D01*
Y10023510D01*
X11675260D01*
Y10032030D01*
X11692910D01*
X11700080Y10039200D01*
X11701470Y10039530D01*
G03X11714020Y10077960I-5522J23067D01*
G02X11714460Y10085000I3871J3292D01*
G03X11719200Y10114000I-16009J17504D01*
G01X11717340Y10117340D01*
X11750000Y10150000D01*
Y10260000D01*
X11790000Y10300000D01*
Y10430000D01*
X11820000Y10460000D01*
X11990000D01*
X12000000Y10450000D01*
Y10170000D01*
X11990000Y10160000D01*
X11890000D01*
X11874700Y10144700D01*
G37*
G36*
G01X11560000Y10140000D02*
Y10170000D01*
X11650000D01*
Y10195710D01*
X11710000Y10230000D01*
X11720000D01*
X11730000Y10220000D01*
Y10160000D01*
X11710000Y10140000D01*
X11560000D01*
G37*
G36*
G01X12556190Y9943810D02*
X12550000Y9950000D01*
Y9956660D01*
X12550040Y9956970D01*
G03Y9963030I-25040J3030D01*
G01X12550000Y9963340D01*
Y9996660D01*
X12550040Y9996970D01*
G03Y10003030I-25040J3030D01*
G01X12550000Y10003340D01*
Y10010000D01*
X12620000Y10080000D01*
Y10130000D01*
X12670000D01*
X12680000Y10140000D01*
Y10150000D01*
X12700000Y10170000D01*
X12770000D01*
Y10080000D01*
X12760000Y10070000D01*
Y9989800D01*
X12768400Y9981400D01*
X12810800D01*
X12850600Y9941600D01*
Y9875100D01*
X12824500Y9849000D01*
X12795800D01*
Y9899300D01*
X12775100Y9920000D01*
X12640000D01*
X12620000Y9940000D01*
X12580360D01*
G03X12558980Y9944490I-15362J-20000D01*
G01X12556190Y9943810D01*
G37*
G54D10*
X11591270Y9602500D03*
Y9652500D03*
Y9702500D03*
Y9752500D03*
Y9802500D03*
Y9852500D03*
Y9902500D03*
Y9952500D03*
Y10002500D03*
Y10052500D03*
Y10102500D03*
Y10152500D03*
G54D20*
X12280000Y10367990D03*
Y10312010D03*
X12352900Y10122300D03*
Y10178300D03*
X12490000Y10197990D03*
Y10142010D03*
X12425000Y10197990D03*
Y10142010D03*
X12420000Y10312010D03*
Y10367990D03*
X12350000D03*
Y10312010D03*
X12650000Y10112000D03*
Y10168000D03*
X12580000Y10167990D03*
Y10112010D03*
X12640000Y10302010D03*
Y10357990D03*
X12720000Y10302010D03*
Y10357990D03*
X12860000Y10302010D03*
Y10357990D03*
X12790000D03*
Y10302010D03*
X13066300Y9717700D03*
Y9773700D03*
G54D11*
X11875000Y9050000D03*
X12865000D03*
G54D21*
X12497500Y10350000D03*
X12552500D03*
X12957500Y10170000D03*
X13012500D03*
X12957500Y10350000D03*
X13012500D03*
G54D12*
X11875000Y9450000D03*
X12865000D03*
G54D30*
G01X11591270Y9802500D02*
X11790640D01*
X11803340Y9789800D01*
X11840200D01*
X11870700Y9759300D01*
X11997700D01*
X11998700Y9758300D01*
G01X11999990Y9660000D02*
Y9468510D01*
X12030000Y9438500D01*
X12210000D01*
X12240000Y9468500D01*
Y9500000D01*
G01X11829400Y9600500D02*
X11829500Y9600400D01*
G01X11829400Y9662100D02*
Y9600500D01*
G01X11899400Y9662100D02*
X11903400Y9658100D01*
X11998090D01*
X11999990Y9660000D01*
G01X12909210Y9751000D02*
X12848600D01*
X12813400Y9715800D01*
X12805810D01*
X12790010Y9700000D01*
G01X12991200Y9684000D02*
X12999000D01*
X13039000Y9644000D01*
G01X12991200Y9751000D02*
Y9729860D01*
X12992090Y9728970D01*
Y9706030D01*
X12991200Y9705140D01*
Y9684000D01*
G01X13220000Y9910000D02*
X13232990D01*
X13233840Y9909150D01*
X12990000Y9940000D03*
Y9840000D03*
X12940000Y9940000D03*
Y9890000D03*
Y9840000D03*
X13040000Y9940000D03*
Y9890000D03*
Y9840000D03*
G54D40*
G01X11720000Y9752200D02*
X11747800D01*
X11750000Y9750000D01*
G01D02*
X11780000D01*
G01D02*
X11785870Y9744130D01*
X11810000D01*
G01X11591270Y9752500D02*
X11659970D01*
X11660270Y9752200D01*
X11720000D01*
G01X11722610Y10002500D02*
X11591270D01*
G01X11720060Y9999950D02*
X11722610Y10002500D01*
G01X11647500Y10152500D02*
X11696400D01*
G01X11575000D02*
X11591270D01*
G01D02*
X11647500D01*
G01X11998700Y9758300D02*
X12024400D01*
G01X11816500Y9737630D02*
X11810000Y9744130D01*
G54D31*
X13140000Y9447500D03*
Y9660000D03*
Y9910000D03*
Y10122500D03*
G54D22*
X12495000Y10395200D03*
X12530000D03*
Y10304800D03*
X12495000D03*
X12565000Y10395200D03*
Y10304800D03*
X12955000Y10215200D03*
X12990000D03*
Y10124800D03*
X12955000D03*
Y10395200D03*
X12990000D03*
Y10304800D03*
X12955000D03*
X13025000Y10215200D03*
Y10124800D03*
Y10395200D03*
Y10304800D03*
G54D13*
X11760000Y9500000D03*
X11580000Y9600000D03*
X11620000D03*
X11770000Y9530000D03*
X11800000D03*
X11730000D03*
X11700000Y9560000D03*
X11680000Y9590000D03*
X11750000Y9750000D03*
X11720000Y9752200D03*
X11590000Y9702500D03*
Y9652500D03*
X11687630Y9902500D03*
Y9852500D03*
X11760000Y10000000D03*
X11690000D03*
X11722610Y10002500D03*
X11720000Y10220000D03*
X11700000Y10190000D03*
X11660000D03*
X11570000Y10150000D03*
X11610000D03*
X11689100Y10154400D03*
X11647500Y10152500D03*
X11790000Y10020000D03*
X11695950Y10062600D03*
X11698450Y10102500D03*
X11998700Y9758300D03*
X12024400D03*
X11837630Y9737630D03*
X11810000Y9744130D03*
X11820000Y9830000D03*
X11900000Y9910000D03*
X11860000D03*
X11820000D03*
X11900000Y9870000D03*
Y9830000D03*
X11860000Y9950000D03*
X11900000D03*
X11980000Y9991100D03*
X11906240Y10250900D03*
X11940000Y10250000D03*
Y10390000D03*
Y10360000D03*
Y10320000D03*
X11975140Y10358460D03*
X11942500Y10283700D03*
X12106940Y9510230D03*
X12124400Y9479800D03*
X12100010Y9660000D03*
X12233200Y9646200D03*
X12282700Y9638100D03*
X12223800Y9985200D03*
X12060000Y9870000D03*
X12140000Y9910000D03*
X12100000D03*
X12060000D03*
X12140000Y9870000D03*
Y9830000D03*
X12100000D03*
X12140000Y9950000D03*
X12060000D03*
Y9830000D03*
X12271900Y10188900D03*
X12150000Y10210000D03*
X12134900Y10250000D03*
X12100000Y10210000D03*
Y10250000D03*
X12280000Y10312010D03*
X12189100Y10288100D03*
X12150000Y10350000D03*
X12134390Y10319490D03*
X12147500Y10283700D03*
X12100000Y10350000D03*
X12100510Y10319490D03*
X12100000Y10290000D03*
X12500000Y9500000D03*
X12305000Y9520400D03*
X12370000D03*
X12430000Y9510000D03*
X12445000Y9760000D03*
X12507400Y9700600D03*
X12405000Y9760000D03*
X12401600Y9651700D03*
X12485000Y10000000D03*
X12525000Y9800000D03*
X12445000Y9960000D03*
X12405000D03*
Y9800000D03*
X12485000Y9840000D03*
Y9960000D03*
X12525000Y9920000D03*
X12445000Y9800000D03*
X12405000Y9880000D03*
X12525000Y9840000D03*
X12325000Y9960000D03*
X12525000D03*
Y10000000D03*
X12365000Y9960000D03*
Y9800000D03*
X12445000Y9920000D03*
Y9880000D03*
X12485000Y9920000D03*
Y9800000D03*
X12365000Y9920000D03*
Y9880000D03*
X12325000Y9920000D03*
X12405000D03*
X12445000Y9840000D03*
X12525000Y9880000D03*
X12387300Y10195500D03*
X12307400Y10179300D03*
X12352900Y10178300D03*
X12321200Y10147900D03*
X12425000Y10197990D03*
Y10142010D03*
X12490000D03*
X12495000Y10306900D03*
X12421410Y10312010D03*
X12345610Y10275200D03*
X12410000Y10400000D03*
X12350000Y10400380D03*
X12530000Y10395200D03*
X12457300Y10400500D03*
X12612300Y9712700D03*
X12565000Y9920000D03*
X12738000Y9800000D03*
Y9870000D03*
X12754500Y9941700D03*
X12643400Y9940500D03*
X12683400D03*
X12712000Y9940000D03*
X12631800Y9880000D03*
X12614800Y9840100D03*
X12535800Y10060000D03*
X12746300Y10237900D03*
X12580500Y10168000D03*
X12650000D03*
X12580000Y10112010D03*
X12650000Y10110000D03*
X12750000Y10130000D03*
X12723500Y10154900D03*
X12690000Y10359400D03*
X12650000Y10270000D03*
X12565000Y10304800D03*
X12990000Y9390000D03*
X12857420Y9692680D03*
X12790010Y9700000D03*
X12940000Y9890000D03*
Y9940000D03*
X12854200Y9840000D03*
X12897400Y10162500D03*
X12990000Y10124800D03*
Y10215200D03*
X12810000Y10030000D03*
X12840000Y10140000D03*
X12802010Y10230000D03*
X12860000Y10302010D03*
X12947890Y10272110D03*
X12790000Y10357990D03*
X12984600Y10264900D03*
X12990000Y10395200D03*
X13012500Y10350000D03*
X12910000Y10390000D03*
X13170000Y9170000D03*
X13139300Y9459400D03*
X13139200Y9435200D03*
X13220000Y9510000D03*
X13244200Y9509900D03*
X13196100Y9509800D03*
X13140100Y9674200D03*
X13140000Y9650000D03*
X13039000Y9644000D03*
X13220000Y9760000D03*
X13235800Y9654800D03*
X13201000Y9654400D03*
X13142530Y9610170D03*
X13140000Y9560000D03*
X13220000Y9610000D03*
Y9560000D03*
X13040000Y9840000D03*
X13140600Y9921800D03*
X13140500Y9897600D03*
X13040000Y9890000D03*
X13066300Y9773700D03*
X13220000Y9810000D03*
X13233840Y9909150D03*
X13204400Y9904600D03*
X13148100Y9826700D03*
X13202100Y9961220D03*
Y10010000D03*
X13140100Y10134200D03*
X13140000Y10110000D03*
X13220000Y10060000D03*
X13244100D03*
X13195500Y10059600D03*
X13025000Y10215200D03*
X13087700Y10123200D03*
X13025000Y10395200D03*
X13372600Y8931600D03*
X13324200Y9439900D03*
X13300000Y9440000D03*
X13374200Y9509900D03*
X13350000Y9510000D03*
X13360000Y9760000D03*
X13370000Y9660000D03*
X13340000D03*
X13360000Y9710000D03*
Y9610000D03*
Y9560000D03*
Y9810000D03*
Y9860000D03*
X13344400Y9904600D03*
X13373840Y9909150D03*
X13360000Y9960000D03*
Y10010000D03*
X13374200Y10059900D03*
X13350000Y10060000D03*
X13310100Y10144200D03*
X13310000Y10120000D03*
X13770000Y9050000D03*
G54D41*
G01X12387300Y10195500D02*
X12390950Y10191850D01*
Y10119110D01*
X12392700Y10117360D01*
Y10091000D01*
X12445000Y10038700D01*
Y10000000D01*
G01X12307400Y10179300D02*
X12297400Y10169300D01*
Y10166600D01*
X12291150Y10160350D01*
Y10135450D01*
X12297400Y10129200D01*
Y10083410D01*
X12318760Y10062050D01*
X12350710D01*
X12381210Y10031550D01*
X12382090D01*
X12392950Y10020690D01*
X12397860D01*
X12405000Y10007570D01*
Y10000000D01*
G01X12352900Y10122300D02*
X12330950Y10144250D01*
X12330000D01*
X12326350Y10147900D01*
X12321200D01*
G01X12683400Y9940500D02*
X12693350Y9950450D01*
Y9952950D01*
X12710000Y9969600D01*
Y10030000D01*
G01X13589900Y9000000D02*
X13293000D01*
X13010000Y9283000D01*
Y9300000D01*
X12990000Y9320000D01*
Y9390000D01*
G01X13170000Y9170000D02*
Y9164300D01*
X13264300Y9070000D01*
X13640100D01*
X13650000Y9060100D01*
G01X13148100Y9826700D02*
X13181400Y9860000D01*
X13220000D01*
G01X13650000Y8939900D02*
X13641700Y8931600D01*
X13372600D01*
G54D14*
X11999990Y9660000D03*
X12100010D03*
X12790010Y9700000D03*
X12689990D03*
X13310000Y9437500D03*
Y10132500D03*
G54D32*
X13220000Y9510000D03*
Y9560000D03*
Y9610000D03*
Y9660000D03*
Y9710000D03*
Y9760000D03*
Y9810000D03*
Y9860000D03*
Y9910000D03*
Y9960000D03*
Y10010000D03*
Y10060000D03*
X13360000Y9510000D03*
Y9560000D03*
Y9610000D03*
Y9660000D03*
Y9710000D03*
Y9760000D03*
Y9810000D03*
Y9860000D03*
Y9910000D03*
Y9960000D03*
Y10010000D03*
Y10060000D03*
G54D23*
X12682000Y9800000D03*
X12738000D03*
X12682000Y9870000D03*
X12738000D03*
X12802010Y10230000D03*
X12857990D03*
X12962010Y10050000D03*
X13017990D03*
G54D42*
G01X11687630Y9902500D02*
X11591270D01*
G01X11687630Y9852500D02*
X11591270D01*
G01Y10052500D02*
X11619900D01*
X11620000Y10052600D01*
X11684390D01*
X11694390Y10062600D01*
X11695950D01*
G01X11591270Y10102500D02*
X11698450D01*
G01X11900000Y9950000D02*
X11893050Y9956950D01*
Y9963700D01*
X11873700Y9983050D01*
X11846300D01*
X11826950Y9963700D01*
Y9963530D01*
X11820000Y9956580D01*
Y9950000D01*
G01X12060000D02*
X12028400D01*
X12015800Y9962600D01*
Y10008940D01*
X12000100Y10024640D01*
X11958200D01*
X11942500Y10040340D01*
Y10096300D01*
G01X13142530Y9610170D02*
X13130000D01*
X13123130Y9603300D01*
X12543440D01*
X12542790Y9603950D01*
X12197210D01*
X12168550Y9575290D01*
Y9567390D01*
X12109160Y9508000D01*
Y9508010D01*
X12106940Y9510230D01*
G01X13140000Y9560000D02*
X13130000D01*
X13115100Y9574900D01*
X12531670D01*
X12531020Y9575550D01*
X12208980D01*
X12196950Y9563520D01*
Y9555620D01*
X12124400Y9483070D01*
Y9479800D01*
G01X12117500Y10096300D02*
Y10040340D01*
X12101800Y10024640D01*
X12059900D01*
X12044200Y10008940D01*
Y9989700D01*
X12050900Y9983000D01*
X12050950Y9983050D01*
X12073700D01*
X12093050Y9963700D01*
Y9956950D01*
X12100000Y9950000D01*
G54D15*
X11829400Y9662100D03*
X11899400D03*
G54D24*
X12710000Y10030000D03*
X12740000Y10140000D03*
X12810000Y10030000D03*
X12840000Y10140000D03*
G54D33*
X13174000Y9337600D03*
Y10232500D03*
G54D43*
G01X11780000Y9750000D02*
X11804130D01*
X11810000Y9744130D01*
G01X11591270Y9952500D02*
X11767990D01*
X11802890Y9987400D01*
X11803510D01*
X11826210Y10010100D01*
X11831700D01*
X11834100Y10012500D01*
X11885900D01*
X11888300Y10010100D01*
X11931090D01*
X11946000Y9995190D01*
X11975910D01*
X11980000Y9991100D01*
G01X12100000Y9830000D02*
Y9819610D01*
X12076290Y9795900D01*
X11885870D01*
X11860000Y9821770D01*
Y9830000D01*
G01X12233200Y9646200D02*
Y9742300D01*
X12290900Y9800000D01*
X12325000D01*
G01X12282700Y9638100D02*
Y9717700D01*
X12325000Y9760000D01*
G01Y9880000D02*
X12311070Y9880270D01*
X12223530Y9971270D01*
X12223800Y9985200D01*
G01X12189100Y10288100D02*
Y10001250D01*
X12188480Y10000650D01*
X12187640Y9957210D01*
X12295630Y9844950D01*
X12312140Y9844630D01*
X12316770Y9840000D01*
X12325000D01*
G01Y10000000D02*
X12287860D01*
X12284260Y10003600D01*
X12283760D01*
X12241400Y10045960D01*
Y10046460D01*
X12230900Y10056960D01*
Y10323460D01*
X12275430Y10367990D01*
X12280000D01*
G01X12271900Y10188900D02*
Y10183330D01*
X12269450Y10180880D01*
Y10178180D01*
X12263200Y10171930D01*
Y10123870D01*
X12269450Y10117620D01*
Y10071830D01*
X12271900Y10069380D01*
Y10058600D01*
X12296400Y10034100D01*
X12339130D01*
X12359100Y10014130D01*
Y10005900D01*
X12365000Y10000000D01*
G01X12280000Y10312010D02*
X12350000D01*
G01X12485000Y9760000D02*
Y9723000D01*
X12507400Y9700600D01*
G01X12401600Y9651700D02*
Y9689300D01*
X12365000Y9725900D01*
Y9760000D01*
G01X12350000Y10312010D02*
X12420000D01*
G01D02*
X12421410D01*
G01D02*
X12456600D01*
X12457710Y10310900D01*
X12482700D01*
X12488800Y10304800D01*
X12495000D01*
G01X12345610Y10275200D02*
X12352610Y10268200D01*
X12530000D01*
G01X12420000Y10367990D02*
Y10390000D01*
X12410000Y10400000D01*
G01X12350000Y10400380D02*
Y10367990D01*
G01X12495000Y10395200D02*
Y10352500D01*
X12497500Y10350000D01*
G01X12457300Y10400500D02*
X12489700D01*
X12495000Y10395200D01*
G01X12565000Y9760000D02*
X12612300Y9712700D01*
G01X12682000Y9870000D02*
Y9800000D01*
G01X12565000Y9880000D02*
X12631800D01*
G01X12565000Y9840000D02*
X12614800Y9840100D01*
G01X12530000Y10268200D02*
Y10065800D01*
X12535800Y10060000D01*
G01X12530000Y10268200D02*
Y10304800D01*
G01X12790000Y10302010D02*
X12720000D01*
G01X12690000Y10359400D02*
X12691410Y10357990D01*
X12720000D01*
G01X12565000Y10304800D02*
Y10337500D01*
X12552500Y10350000D01*
G01X12946700Y9717500D02*
X12924200Y9695000D01*
X12855100D01*
Y9693820D01*
X12856280D01*
Y9692680D01*
X12857420D01*
G01D02*
X12866100Y9684000D01*
X12902200D01*
G01X12990000Y9940000D02*
X12940000D01*
G01X12990000Y9840000D02*
X12940000D01*
G01X12962010Y10050000D02*
Y10086600D01*
X12956800D01*
X12955000Y10088400D01*
Y10124800D01*
G01X12897400Y10162500D02*
Y10142600D01*
X12915200Y10124800D01*
X12955000D01*
G01Y10215200D02*
Y10193650D01*
X12957500Y10191150D01*
Y10170000D01*
G01X13025000Y10124800D02*
Y10157500D01*
X13012500Y10170000D01*
G01X12860000Y10302010D02*
X12790000D01*
G01X12947890Y10272110D02*
X12955200Y10279420D01*
Y10304600D01*
X12955000Y10304800D01*
G01X12990000D02*
Y10270300D01*
X12984600Y10264900D01*
G01X12957500Y10350000D02*
Y10371150D01*
X12957400Y10371250D01*
Y10392800D01*
X12955000Y10395200D01*
G01X13025000Y10304800D02*
Y10337500D01*
X13012500Y10350000D01*
G01X12910000Y10390000D02*
X12880000Y10360000D01*
Y10357990D01*
X12860000D01*
G01X13025000Y10124800D02*
Y10088200D01*
X13017990Y10081190D01*
Y10050000D01*
G54D25*
X12991200Y9684000D03*
G54D34*
X13407500Y9177500D03*
Y10392500D03*
X13794000Y9177500D03*
Y10392500D03*
G54D16*
G01X11820000Y9870000D02*
X11860000D01*
G01D02*
X11900000D01*
G01X12100000D02*
X12140000D01*
G01X12490000Y10197990D02*
X12464030D01*
X12463130Y10197090D01*
X12430670D01*
X12429770Y10197990D01*
X12425000D01*
G01X12682000Y9800000D02*
Y9707990D01*
X12689990Y9700000D01*
G01X12565000Y9800000D02*
X12682000D01*
G01X12640000Y10302010D02*
Y10280000D01*
X12650000Y10270000D01*
G01X12810000Y9860000D02*
X12790010Y9840010D01*
Y9700000D01*
G01X12962010Y10050000D02*
Y10007990D01*
X12980000Y9990000D01*
X13020000D01*
X13040000Y9970000D01*
Y9940000D01*
G01X12940000Y9890000D02*
X12840000D01*
G01X12940000Y9840000D02*
X12854200D01*
G01X13066300Y9717700D02*
Y9671300D01*
X13039000Y9644000D01*
G01X13220000Y9710000D02*
X13219800Y9710200D01*
X13155300D01*
X13155100Y9710400D01*
X13137800D01*
X13106500Y9741700D01*
Y9799140D01*
X13080200Y9825440D01*
Y9956660D01*
X13079600Y9957260D01*
Y10115100D01*
X13087700Y10123200D01*
G01X13710100Y9000000D02*
X13720000D01*
X13770000Y9050000D01*
X11820000Y9950000D03*
X11860000D03*
X11900000D03*
X11820000Y9910000D03*
X11860000D03*
X11900000D03*
X11820000Y9870000D03*
X11860000D03*
X11900000D03*
X11820000Y9830000D03*
X11860000D03*
X11900000D03*
X12060000Y9950000D03*
X12100000D03*
X12140000D03*
X12060000Y9910000D03*
X12100000D03*
X12140000D03*
X12060000Y9870000D03*
X12100000D03*
X12140000D03*
X12060000Y9830000D03*
X12100000D03*
X12140000D03*
X12525000Y9760000D03*
X12485000D03*
X12445000D03*
X12405000D03*
X12365000D03*
X12325000D03*
X12525000Y9800000D03*
X12485000D03*
X12445000D03*
X12405000D03*
X12365000D03*
X12325000D03*
X12525000Y9840000D03*
X12485000D03*
X12445000D03*
X12405000D03*
X12365000D03*
X12325000D03*
X12525000Y9880000D03*
X12485000D03*
X12445000D03*
X12405000D03*
X12365000D03*
X12325000D03*
X12525000Y9920000D03*
X12485000D03*
X12445000D03*
X12405000D03*
X12365000D03*
X12325000D03*
X12525000Y9960000D03*
X12485000D03*
X12445000D03*
X12405000D03*
X12365000D03*
X12325000D03*
X12525000Y10000000D03*
X12485000D03*
X12445000D03*
X12405000D03*
X12365000D03*
X12325000D03*
X12565000Y9760000D03*
Y9800000D03*
Y9840000D03*
Y9880000D03*
Y9920000D03*
Y9960000D03*
Y10000000D03*
G54D44*
G01X11481270Y10195000D02*
X11607340D01*
X11636270D01*
Y10210790D01*
Y10317500D01*
X11764360D01*
X11764400Y10317460D01*
Y10430000D01*
X11814400Y10480000D01*
X13875500D01*
X13925500Y10430000D01*
Y10260000D01*
X13480000D01*
Y9310000D01*
X13925500D01*
Y9105000D01*
X13675500Y8855000D01*
X12765000D01*
Y9405000D01*
X11975000D01*
Y8855000D01*
X11814400D01*
X11764400Y8905000D01*
Y9437500D01*
X11636270D01*
Y9560000D01*
X11481270D01*
Y10195000D01*
G54D26*
X12991200Y9751000D03*
G54D35*
X13415000Y9402500D03*
G54D17*
X11942500Y10096300D03*
X12117500D03*
G54D36*
X13415000Y10167400D03*
G54D18*
X11942500Y10283700D03*
X12117500D03*
G54D27*
X12902200Y9684000D03*
G54D37*
X13650000Y8939900D03*
Y9060100D03*
X13589900Y9000000D03*
X13710100D03*
G54D19*
X12240000Y9500000D03*
X12500000D03*
X12435000D03*
X12370000D03*
X12305000D03*
G54D28*
X12909210Y9751000D03*
G54D38*
G01X11837630Y9737630D02*
X11816500D01*
G54D29*
X12946700Y9717500D03*
G54D39*
G01X12565000Y10395200D02*
X12579700D01*
X12599050Y10375850D01*
Y10250950D01*
X12620000Y10230000D01*
X12680000D01*
X12690000Y10240000D01*
X12744200D01*
G01X12746300Y10237900D02*
X12744200Y10240000D01*
G01D02*
X12720000Y10264200D01*
Y10302010D01*
G01X12640000Y10357990D02*
Y10400000D01*
X12663850Y10423850D01*
X12926350D01*
X12955000Y10395200D01*
G01Y10215200D02*
X12872790D01*
X12857990Y10230000D01*
G01X12955000Y10304800D02*
X12862790D01*
X12860000Y10302010D01*
M02*
