G04 ================== begin FILE IDENTIFICATION RECORD ==================*
G04 Layout Name:  180-10114-04.brd*
G04 Film Name:    top_paste*
G04 File Format:  Gerber RS274X*
G04 File Origin:  Cadence Allegro 16.6-S039*
G04 Origin Date:  Wed Dec 17 11:03:58 2014*
G04 *
G04 Layer:  VIA CLASS/PASTEMASK_TOP*
G04 Layer:  PIN/PASTEMASK_TOP*
G04 Layer:  PACKAGE GEOMETRY/PASTEMASK_TOP*
G04 Layer:  BOARD GEOMETRY/OUTLINE*
G04 *
G04 Offset:    (0.0000 0.0000)*
G04 Mirror:    No*
G04 Mode:      Positive*
G04 Rotation:  0*
G04 FullContactRelief:  No*
G04 UndefLineWidth:     0.1016*
G04 ================== end FILE IDENTIFICATION RECORD ====================*
%FSLAX35Y35*MOMM*%
%IR0*IPPOS*OFA0.00000B0.00000*MIA0B0*SFA1.00000B1.00000*%
%AMMACRO24*
4,1,6,-.225,.15,
-.225,-.15,
.025,-.15,
.225,-.15,
.225,-.05,
.025,.15,
-.225,.15,
0.0*
%
%ADD24MACRO24*%
%ADD14R,1.X.8*%
%ADD16R,.45X1.1*%
%ADD27C,.3*%
%ADD13C,.25*%
%AMMACRO26*
21,1,.25,.25,0.0,0.0,45.*%
%ADD26MACRO26*%
%AMMACRO30*
21,1,.45,.45,0.0,0.0,45.*%
%ADD30MACRO30*%
%ADD10R,1.4254X.3254*%
%AMMACRO22*
4,1,5,.225,-.15,
.225,.15,
-.025,.15,
-.225,-.05,
-.225,-.15,
.225,-.15,
0.0*
%
%ADD22MACRO22*%
%ADD20R,.3X.3*%
%AMMACRO23*
4,1,6,.225,-.15,
.225,.15,
-.025,.15,
-.225,.15,
-.225,.05,
-.025,-.15,
.225,-.15,
0.0*
%
%ADD23MACRO23*%
%ADD17R,.3X.3*%
%ADD15R,1.X2.45*%
%ADD19R,.22X.3*%
%ADD28R,.4X.5*%
%ADD21R,.6X.6*%
%ADD18R,.4X.35*%
%ADD12R,.4X.7*%
%ADD29R,.6X.35*%
%ADD11R,.5999X.65*%
%AMMACRO25*
4,1,4,.275,.15,
-.275,.15,
-.275,-.15,
-.025,-.15,
.275,.15,
0.0*
%
%ADD25MACRO25*%
%ADD31C,.1016*%
G75*
%LPD*%
G75*
G54D10*
X11591270Y9602500D03*
Y9652500D03*
Y9702500D03*
Y9752500D03*
Y9802500D03*
Y9852500D03*
Y9902500D03*
Y9952500D03*
Y10002500D03*
Y10052500D03*
Y10102500D03*
Y10152500D03*
G54D11*
X11999990Y9660000D03*
X12100010D03*
X12790010Y9700000D03*
X12689990D03*
X13310000Y9437500D03*
Y10132500D03*
G54D20*
X12682000Y9800000D03*
X12738000D03*
X12682000Y9870000D03*
X12738000D03*
X12802010Y10230000D03*
X12857990D03*
X12962010Y10050000D03*
X13017990D03*
G54D12*
X11829400Y9662100D03*
X11899400D03*
G54D21*
X12710000Y10030000D03*
X12740000Y10140000D03*
X12810000Y10030000D03*
X12840000Y10140000D03*
G54D30*
X13650000Y8939900D03*
Y9060100D03*
X13589900Y9000000D03*
X13710100D03*
G54D31*
G01X9865160Y7497140D02*
Y7974660D01*
X10008420D01*
X10056170Y7950770D01*
X10091990Y7895080D01*
X10103920Y7831410D01*
X10091990Y7767740D01*
X10062140Y7719980D01*
X10008420Y7696090D01*
X9865160D01*
G01X10312830Y7497140D02*
X10462050Y7974660D01*
X10611290Y7497140D01*
G01X10557560Y7664270D02*
X10366550D01*
G01X10814230Y7560800D02*
X10861980Y7521010D01*
X10915700Y7497140D01*
X10963460D01*
X11011210Y7521010D01*
X11047030Y7560800D01*
X11064930Y7616520D01*
X11052990Y7672220D01*
X11023140Y7719980D01*
X10969420Y7751820D01*
X10897800Y7767740D01*
X10856020Y7799560D01*
X10838100Y7855280D01*
X10850050Y7910990D01*
X10879890Y7950770D01*
X10921670Y7974660D01*
X10963460D01*
X11005240Y7958750D01*
X11041060Y7918950D01*
G01X11417090Y7974660D02*
Y7497140D01*
G01X11279820Y7974660D02*
X11554380D01*
G01X12014000Y7497140D02*
X11775240D01*
Y7974660D01*
X12014000D01*
G01X11918500Y7743860D02*
X11775240D01*
G01X12216940Y7497140D02*
Y7974660D01*
X12372130Y7576720D01*
X12527340Y7974660D01*
Y7497140D01*
G01X12700430D02*
X12849650Y7974660D01*
X12998890Y7497140D01*
G01X12945160Y7664270D02*
X12754150D01*
G01X13201830Y7560800D02*
X13249580Y7521010D01*
X13303300Y7497140D01*
X13351060D01*
X13398810Y7521010D01*
X13434630Y7560800D01*
X13452530Y7616520D01*
X13440590Y7672220D01*
X13410740Y7719980D01*
X13357020Y7751820D01*
X13285400Y7767740D01*
X13243620Y7799560D01*
X13225700Y7855280D01*
X13237650Y7910990D01*
X13267490Y7950770D01*
X13309270Y7974660D01*
X13351060D01*
X13392840Y7958750D01*
X13428660Y7918950D01*
G01X13673380Y7497140D02*
Y7974660D01*
G01X13900200D02*
X13673380Y7680180D01*
G01X13936020Y7497140D02*
X13774860Y7815480D01*
G01X14759730Y7974660D02*
Y7497140D01*
G01X14622460Y7974660D02*
X14897020D01*
G01X15237250Y7497140D02*
X15189500Y7505100D01*
X15147730Y7536920D01*
X15111910Y7584680D01*
X15088030Y7640390D01*
X15076090Y7704060D01*
Y7767740D01*
X15088030Y7831410D01*
X15111910Y7887120D01*
X15147730Y7934860D01*
X15189500Y7966700D01*
X15237250Y7974660D01*
X15285010Y7966700D01*
X15326790Y7934860D01*
X15362610Y7887120D01*
X15386490Y7831410D01*
X15398430Y7767740D01*
Y7704060D01*
X15386490Y7640390D01*
X15362610Y7584680D01*
X15326790Y7536920D01*
X15285010Y7505100D01*
X15237250Y7497140D01*
G01X15595400D02*
Y7974660D01*
X15738660D01*
X15786410Y7950770D01*
X15822230Y7895080D01*
X15834160Y7831410D01*
X15822230Y7767740D01*
X15792380Y7719980D01*
X15738660Y7696090D01*
X15595400D01*
G01X11481270Y10195000D02*
X11607340D01*
X11636270D01*
Y10210790D01*
Y10317500D01*
X11764360D01*
X11764400Y10317460D01*
Y10430000D01*
X11814400Y10480000D01*
X13875500D01*
X13925500Y10430000D01*
Y10260000D01*
X13480000D01*
Y9310000D01*
X13925500D01*
Y9105000D01*
X13675500Y8855000D01*
X12765000D01*
Y9405000D01*
X11975000D01*
Y8855000D01*
X11814400D01*
X11764400Y8905000D01*
Y9437500D01*
X11636270D01*
Y9560000D01*
X11481270D01*
Y10195000D01*
G01X15021590Y6133500D02*
Y6529740D01*
X14962150Y6450500D01*
G01Y6133500D02*
X15081020D01*
G01X15476250D02*
X15510920Y6140100D01*
X15550540Y6159910D01*
X15575310Y6192920D01*
X15585220Y6239170D01*
X15575310Y6285380D01*
X15545590Y6325010D01*
X15501010Y6344830D01*
X15451490D01*
X15421770Y6358040D01*
X15397000Y6391050D01*
X15387090Y6437280D01*
X15401960Y6483510D01*
X15436620Y6516530D01*
X15476250Y6529740D01*
X15515870Y6516530D01*
X15550540Y6483510D01*
X15565410Y6437280D01*
X15555490Y6391050D01*
X15530730Y6358040D01*
X15501010Y6344830D01*
X15451490D01*
X15406910Y6325010D01*
X15377190Y6285380D01*
X15367280Y6239170D01*
X15377190Y6192920D01*
X15401960Y6159910D01*
X15441580Y6140100D01*
X15476250Y6133500D01*
G01X15930910Y6529740D02*
X15891280Y6516530D01*
X15861570Y6483510D01*
X15841750Y6443890D01*
X15826900Y6391050D01*
X15821940Y6331610D01*
X15826900Y6272180D01*
X15841750Y6219350D01*
X15861570Y6179720D01*
X15891280Y6146710D01*
X15930910Y6133500D01*
X15970530Y6146710D01*
X16000250Y6179720D01*
X16020070Y6219350D01*
X16034920Y6272180D01*
X16039880Y6331610D01*
X16034920Y6391050D01*
X16020070Y6443890D01*
X16000250Y6483510D01*
X15970530Y6516530D01*
X15930910Y6529740D01*
G01X16321180Y6265580D02*
X16449960D01*
G54D22*
X12991200Y9684000D03*
G54D13*
X11820000Y9950000D03*
X11860000D03*
X11900000D03*
X11820000Y9910000D03*
X11860000D03*
X11900000D03*
X11820000Y9870000D03*
X11860000D03*
X11900000D03*
X11820000Y9830000D03*
X11860000D03*
X11900000D03*
X12060000Y9950000D03*
X12100000D03*
X12140000D03*
X12060000Y9910000D03*
X12100000D03*
X12140000D03*
X12060000Y9870000D03*
X12100000D03*
X12140000D03*
X12060000Y9830000D03*
X12100000D03*
X12140000D03*
X12525000Y9760000D03*
X12485000D03*
X12445000D03*
X12405000D03*
X12365000D03*
X12325000D03*
X12525000Y9800000D03*
X12485000D03*
X12445000D03*
X12405000D03*
X12365000D03*
X12325000D03*
X12525000Y9840000D03*
X12485000D03*
X12445000D03*
X12405000D03*
X12365000D03*
X12325000D03*
X12525000Y9880000D03*
X12485000D03*
X12445000D03*
X12405000D03*
X12365000D03*
X12325000D03*
X12525000Y9920000D03*
X12485000D03*
X12445000D03*
X12405000D03*
X12365000D03*
X12325000D03*
X12525000Y9960000D03*
X12485000D03*
X12445000D03*
X12405000D03*
X12365000D03*
X12325000D03*
X12525000Y10000000D03*
X12485000D03*
X12445000D03*
X12405000D03*
X12365000D03*
X12325000D03*
X12565000Y9760000D03*
Y9800000D03*
Y9840000D03*
Y9880000D03*
Y9920000D03*
Y9960000D03*
Y10000000D03*
G54D23*
X12991200Y9751000D03*
G54D14*
X11942500Y10096300D03*
X12117500D03*
G54D15*
X11942500Y10283700D03*
X12117500D03*
G54D24*
X12902200Y9684000D03*
G54D25*
X12909210Y9751000D03*
G54D16*
X12240000Y9500000D03*
X12500000D03*
X12435000D03*
X12370000D03*
X12305000D03*
G54D17*
X12280000Y10367990D03*
Y10312010D03*
X12352900Y10122300D03*
Y10178300D03*
X12490000Y10197990D03*
Y10142010D03*
X12425000Y10197990D03*
Y10142010D03*
X12420000Y10312010D03*
Y10367990D03*
X12350000D03*
Y10312010D03*
X12650000Y10112000D03*
Y10168000D03*
X12580000Y10167990D03*
Y10112010D03*
X12640000Y10302010D03*
Y10357990D03*
X12720000Y10302010D03*
Y10357990D03*
X12860000Y10302010D03*
Y10357990D03*
X12790000D03*
Y10302010D03*
X13066300Y9717700D03*
Y9773700D03*
G54D26*
X12946700Y9717500D03*
G54D18*
X12497500Y10350000D03*
X12552500D03*
X12957500Y10170000D03*
X13012500D03*
X12957500Y10350000D03*
X13012500D03*
G54D27*
X12990000Y9940000D03*
Y9840000D03*
X12940000Y9940000D03*
Y9890000D03*
Y9840000D03*
X13040000Y9940000D03*
Y9890000D03*
Y9840000D03*
G54D28*
X13140000Y9447500D03*
Y9660000D03*
Y9910000D03*
Y10122500D03*
G54D19*
X12495000Y10395200D03*
X12530000D03*
Y10304800D03*
X12495000D03*
X12565000Y10395200D03*
Y10304800D03*
X12955000Y10215200D03*
X12990000D03*
Y10124800D03*
X12955000D03*
Y10395200D03*
X12990000D03*
Y10304800D03*
X12955000D03*
X13025000Y10215200D03*
Y10124800D03*
Y10395200D03*
Y10304800D03*
G54D29*
X13220000Y9510000D03*
Y9560000D03*
Y9610000D03*
Y9660000D03*
Y9710000D03*
Y9760000D03*
Y9810000D03*
Y9860000D03*
Y9910000D03*
Y9960000D03*
Y10010000D03*
Y10060000D03*
X13360000Y9510000D03*
Y9560000D03*
Y9610000D03*
Y9660000D03*
Y9710000D03*
Y9760000D03*
Y9810000D03*
Y9860000D03*
Y9910000D03*
Y9960000D03*
Y10010000D03*
Y10060000D03*
M02*
