%TF.GenerationSoftware,KiCad,Pcbnew,(5.1.7)-1*%
%TF.CreationDate,2020-11-18T22:53:05+01:00*%
%TF.ProjectId,twonkie,74776f6e-6b69-4652-9e6b-696361645f70,rev?*%
%TF.SameCoordinates,PX448d510PY20b3950*%
%TF.FileFunction,Copper,L1,Top*%
%TF.FilePolarity,Positive*%
%FSLAX46Y46*%
G04 Gerber Fmt 4.6, Leading zero omitted, Abs format (unit mm)*
G04 Created by KiCad (PCBNEW (5.1.7)-1) date 2020-11-18 22:53:05*
%MOMM*%
%LPD*%
G01*
G04 APERTURE LIST*
%TA.AperFunction,ComponentPad*%
%ADD10O,1.150000X1.800000*%
%TD*%
%TA.AperFunction,ComponentPad*%
%ADD11O,1.450000X2.000000*%
%TD*%
%TA.AperFunction,SMDPad,CuDef*%
%ADD12R,0.450000X1.300000*%
%TD*%
%TA.AperFunction,SMDPad,CuDef*%
%ADD13R,1.000000X0.260000*%
%TD*%
%TA.AperFunction,SMDPad,CuDef*%
%ADD14R,1.250000X0.410000*%
%TD*%
%TA.AperFunction,ComponentPad*%
%ADD15O,2.500000X1.300000*%
%TD*%
%TA.AperFunction,SMDPad,CuDef*%
%ADD16R,2.200000X1.500000*%
%TD*%
%TA.AperFunction,SMDPad,CuDef*%
%ADD17R,4.000000X1.500000*%
%TD*%
%TA.AperFunction,SMDPad,CuDef*%
%ADD18R,1.000000X0.300000*%
%TD*%
%TA.AperFunction,SMDPad,CuDef*%
%ADD19R,1.000000X1.000000*%
%TD*%
%TA.AperFunction,SMDPad,CuDef*%
%ADD20R,0.650000X0.400000*%
%TD*%
%TA.AperFunction,SMDPad,CuDef*%
%ADD21R,1.050000X1.400000*%
%TD*%
%TA.AperFunction,SMDPad,CuDef*%
%ADD22R,0.400000X0.650000*%
%TD*%
%TA.AperFunction,SMDPad,CuDef*%
%ADD23R,1.000000X0.800000*%
%TD*%
%TA.AperFunction,ViaPad*%
%ADD24C,0.609600*%
%TD*%
%TA.AperFunction,ViaPad*%
%ADD25C,0.508000*%
%TD*%
%TA.AperFunction,ViaPad*%
%ADD26C,0.457200*%
%TD*%
%TA.AperFunction,Conductor*%
%ADD27C,0.508000*%
%TD*%
%TA.AperFunction,Conductor*%
%ADD28C,0.304800*%
%TD*%
%TA.AperFunction,Conductor*%
%ADD29C,0.203200*%
%TD*%
%TA.AperFunction,Conductor*%
%ADD30C,0.127000*%
%TD*%
%TA.AperFunction,Conductor*%
%ADD31C,0.248920*%
%TD*%
%TA.AperFunction,Conductor*%
%ADD32C,0.254000*%
%TD*%
%TA.AperFunction,Conductor*%
%ADD33C,0.100000*%
%TD*%
G04 APERTURE END LIST*
D10*
%TO.P,J3,6*%
%TO.N,GND*%
X9209000Y-23286000D03*
X1459000Y-23286000D03*
D11*
X9059000Y-19486000D03*
X1609000Y-19486000D03*
D12*
%TO.P,J3,5*%
X6634000Y-19436000D03*
%TO.P,J3,4*%
%TO.N,Net-(J3-Pad4)*%
X5984000Y-19436000D03*
%TO.P,J3,3*%
%TO.N,/USB_B_D+*%
X5334000Y-19436000D03*
%TO.P,J3,2*%
%TO.N,/USB_B_D-*%
X4684000Y-19436000D03*
%TO.P,J3,1*%
%TO.N,Net-(D1-Pad1)*%
X4034000Y-19436000D03*
%TD*%
%TO.P,R24,2*%
%TO.N,Net-(R24-Pad2)*%
%TA.AperFunction,SMDPad,CuDef*%
G36*
G01*
X19845000Y-19635500D02*
X19525000Y-19635500D01*
G75*
G02*
X19365000Y-19475500I0J160000D01*
G01*
X19365000Y-19080500D01*
G75*
G02*
X19525000Y-18920500I160000J0D01*
G01*
X19845000Y-18920500D01*
G75*
G02*
X20005000Y-19080500I0J-160000D01*
G01*
X20005000Y-19475500D01*
G75*
G02*
X19845000Y-19635500I-160000J0D01*
G01*
G37*
%TD.AperFunction*%
%TO.P,R24,1*%
%TO.N,+3V3*%
%TA.AperFunction,SMDPad,CuDef*%
G36*
G01*
X19845000Y-20830500D02*
X19525000Y-20830500D01*
G75*
G02*
X19365000Y-20670500I0J160000D01*
G01*
X19365000Y-20275500D01*
G75*
G02*
X19525000Y-20115500I160000J0D01*
G01*
X19845000Y-20115500D01*
G75*
G02*
X20005000Y-20275500I0J-160000D01*
G01*
X20005000Y-20670500D01*
G75*
G02*
X19845000Y-20830500I-160000J0D01*
G01*
G37*
%TD.AperFunction*%
%TD*%
%TO.P,U2,1*%
%TO.N,/CC2_PLUG*%
%TA.AperFunction,SMDPad,CuDef*%
G36*
G01*
X16935000Y-7763000D02*
X16935000Y-7963000D01*
G75*
G02*
X16835000Y-8063000I-100000J0D01*
G01*
X15560000Y-8063000D01*
G75*
G02*
X15460000Y-7963000I0J100000D01*
G01*
X15460000Y-7763000D01*
G75*
G02*
X15560000Y-7663000I100000J0D01*
G01*
X16835000Y-7663000D01*
G75*
G02*
X16935000Y-7763000I0J-100000D01*
G01*
G37*
%TD.AperFunction*%
%TO.P,U2,4*%
%TO.N,GND*%
%TA.AperFunction,SMDPad,CuDef*%
G36*
G01*
X16935000Y-5813000D02*
X16935000Y-6013000D01*
G75*
G02*
X16835000Y-6113000I-100000J0D01*
G01*
X15560000Y-6113000D01*
G75*
G02*
X15460000Y-6013000I0J100000D01*
G01*
X15460000Y-5813000D01*
G75*
G02*
X15560000Y-5713000I100000J0D01*
G01*
X16835000Y-5713000D01*
G75*
G02*
X16935000Y-5813000I0J-100000D01*
G01*
G37*
%TD.AperFunction*%
%TO.P,U2,5*%
%TO.N,+3V3*%
%TA.AperFunction,SMDPad,CuDef*%
G36*
G01*
X16935000Y-5163000D02*
X16935000Y-5363000D01*
G75*
G02*
X16835000Y-5463000I-100000J0D01*
G01*
X15560000Y-5463000D01*
G75*
G02*
X15460000Y-5363000I0J100000D01*
G01*
X15460000Y-5163000D01*
G75*
G02*
X15560000Y-5063000I100000J0D01*
G01*
X16835000Y-5063000D01*
G75*
G02*
X16935000Y-5163000I0J-100000D01*
G01*
G37*
%TD.AperFunction*%
%TO.P,U2,6*%
%TO.N,GND*%
%TA.AperFunction,SMDPad,CuDef*%
G36*
G01*
X16935000Y-4513000D02*
X16935000Y-4713000D01*
G75*
G02*
X16835000Y-4813000I-100000J0D01*
G01*
X15560000Y-4813000D01*
G75*
G02*
X15460000Y-4713000I0J100000D01*
G01*
X15460000Y-4513000D01*
G75*
G02*
X15560000Y-4413000I100000J0D01*
G01*
X16835000Y-4413000D01*
G75*
G02*
X16935000Y-4513000I0J-100000D01*
G01*
G37*
%TD.AperFunction*%
%TO.P,U2,7*%
%TO.N,/VCONN_ALERT_L*%
%TA.AperFunction,SMDPad,CuDef*%
G36*
G01*
X16935000Y-3863000D02*
X16935000Y-4063000D01*
G75*
G02*
X16835000Y-4163000I-100000J0D01*
G01*
X15560000Y-4163000D01*
G75*
G02*
X15460000Y-4063000I0J100000D01*
G01*
X15460000Y-3863000D01*
G75*
G02*
X15560000Y-3763000I100000J0D01*
G01*
X16835000Y-3763000D01*
G75*
G02*
X16935000Y-3863000I0J-100000D01*
G01*
G37*
%TD.AperFunction*%
%TO.P,U2,8*%
%TO.N,/INA_SDA*%
%TA.AperFunction,SMDPad,CuDef*%
G36*
G01*
X16935000Y-3213000D02*
X16935000Y-3413000D01*
G75*
G02*
X16835000Y-3513000I-100000J0D01*
G01*
X15560000Y-3513000D01*
G75*
G02*
X15460000Y-3413000I0J100000D01*
G01*
X15460000Y-3213000D01*
G75*
G02*
X15560000Y-3113000I100000J0D01*
G01*
X16835000Y-3113000D01*
G75*
G02*
X16935000Y-3213000I0J-100000D01*
G01*
G37*
%TD.AperFunction*%
%TO.P,U2,9*%
%TO.N,/INA_SCL*%
%TA.AperFunction,SMDPad,CuDef*%
G36*
G01*
X11210000Y-3213000D02*
X11210000Y-3413000D01*
G75*
G02*
X11110000Y-3513000I-100000J0D01*
G01*
X9835000Y-3513000D01*
G75*
G02*
X9735000Y-3413000I0J100000D01*
G01*
X9735000Y-3213000D01*
G75*
G02*
X9835000Y-3113000I100000J0D01*
G01*
X11110000Y-3113000D01*
G75*
G02*
X11210000Y-3213000I0J-100000D01*
G01*
G37*
%TD.AperFunction*%
%TO.P,U2,10*%
%TO.N,+3V3*%
%TA.AperFunction,SMDPad,CuDef*%
G36*
G01*
X11210000Y-3863000D02*
X11210000Y-4063000D01*
G75*
G02*
X11110000Y-4163000I-100000J0D01*
G01*
X9835000Y-4163000D01*
G75*
G02*
X9735000Y-4063000I0J100000D01*
G01*
X9735000Y-3863000D01*
G75*
G02*
X9835000Y-3763000I100000J0D01*
G01*
X11110000Y-3763000D01*
G75*
G02*
X11210000Y-3863000I0J-100000D01*
G01*
G37*
%TD.AperFunction*%
%TO.P,U2,11*%
%TO.N,GND*%
%TA.AperFunction,SMDPad,CuDef*%
G36*
G01*
X11210000Y-4513000D02*
X11210000Y-4713000D01*
G75*
G02*
X11110000Y-4813000I-100000J0D01*
G01*
X9835000Y-4813000D01*
G75*
G02*
X9735000Y-4713000I0J100000D01*
G01*
X9735000Y-4513000D01*
G75*
G02*
X9835000Y-4413000I100000J0D01*
G01*
X11110000Y-4413000D01*
G75*
G02*
X11210000Y-4513000I0J-100000D01*
G01*
G37*
%TD.AperFunction*%
%TO.P,U2,12*%
%TO.N,/CC2_PLUG*%
%TA.AperFunction,SMDPad,CuDef*%
G36*
G01*
X11210000Y-5163000D02*
X11210000Y-5363000D01*
G75*
G02*
X11110000Y-5463000I-100000J0D01*
G01*
X9835000Y-5463000D01*
G75*
G02*
X9735000Y-5363000I0J100000D01*
G01*
X9735000Y-5163000D01*
G75*
G02*
X9835000Y-5063000I100000J0D01*
G01*
X11110000Y-5063000D01*
G75*
G02*
X11210000Y-5163000I0J-100000D01*
G01*
G37*
%TD.AperFunction*%
%TO.P,U2,15*%
%TO.N,/CC2_RECEP*%
%TA.AperFunction,SMDPad,CuDef*%
G36*
G01*
X11210000Y-7113000D02*
X11210000Y-7313000D01*
G75*
G02*
X11110000Y-7413000I-100000J0D01*
G01*
X9835000Y-7413000D01*
G75*
G02*
X9735000Y-7313000I0J100000D01*
G01*
X9735000Y-7113000D01*
G75*
G02*
X9835000Y-7013000I100000J0D01*
G01*
X11110000Y-7013000D01*
G75*
G02*
X11210000Y-7113000I0J-100000D01*
G01*
G37*
%TD.AperFunction*%
%TD*%
D13*
%TO.P,J1,A11*%
%TO.N,/RX2+*%
X21090000Y-8600000D03*
%TO.P,J1,A10*%
%TO.N,/RX2-*%
X21090000Y-8100000D03*
%TO.P,J1,A9*%
%TO.N,/VBUS_PLUG*%
X21090000Y-7600000D03*
%TO.P,J1,A8*%
%TO.N,/SBU1*%
X21090000Y-7100000D03*
%TO.P,J1,A7*%
%TO.N,/USBC_D-*%
X21090000Y-6600000D03*
%TO.P,J1,A6*%
%TO.N,/USBC_D+*%
X21090000Y-6100000D03*
%TO.P,J1,A5*%
%TO.N,/CC1_RECEP*%
X21090000Y-5600000D03*
%TO.P,J1,A4*%
%TO.N,/VBUS_PLUG*%
X21090000Y-5100000D03*
%TO.P,J1,A3*%
%TO.N,/TX1-*%
X21090000Y-4600000D03*
%TO.P,J1,A2*%
%TO.N,/TX1+*%
X21090000Y-4100000D03*
D14*
%TO.P,J1,A12*%
%TO.N,GND*%
X20965000Y-9175000D03*
%TO.P,J1,A1*%
X20965000Y-3525000D03*
D15*
%TO.P,J1,S1*%
X21190000Y-10360000D03*
%TO.P,J1,S2*%
X21190000Y-2340000D03*
D16*
%TO.P,J1,S3*%
X24290000Y-11300000D03*
%TO.P,J1,S4*%
X24290000Y-1400000D03*
%TD*%
D17*
%TO.P,J2,S6*%
%TO.N,GND*%
X2215000Y-11600000D03*
%TO.P,J2,S5*%
X2215000Y-1100000D03*
D18*
%TO.P,J2,A12*%
X5675000Y-9100000D03*
%TO.P,J2,A11*%
%TO.N,/RX2+*%
X5675000Y-8600000D03*
%TO.P,J2,A10*%
%TO.N,/RX2-*%
X5675000Y-8100000D03*
%TO.P,J2,A9*%
%TO.N,/VBUS_RECEP*%
X5675000Y-7600000D03*
%TO.P,J2,A8*%
%TO.N,/SBU1*%
X5675000Y-7100000D03*
%TO.P,J2,A7*%
%TO.N,/USBC_D-*%
X5675000Y-6600000D03*
%TO.P,J2,A6*%
%TO.N,/USBC_D+*%
X5675000Y-6100000D03*
%TO.P,J2,A5*%
%TO.N,/CC1_RECEP*%
X5675000Y-5600000D03*
%TO.P,J2,A4*%
%TO.N,/VBUS_RECEP*%
X5675000Y-5100000D03*
%TO.P,J2,A3*%
%TO.N,/TX1-*%
X5675000Y-4600000D03*
%TO.P,J2,A2*%
%TO.N,/TX1+*%
X5675000Y-4100000D03*
%TO.P,J2,A1*%
%TO.N,GND*%
X5675000Y-3600000D03*
D19*
%TO.P,J2,S1*%
X5675000Y-2600000D03*
%TO.P,J2,S2*%
X5675000Y-10100000D03*
%TD*%
D20*
%TO.P,Q3,6*%
%TO.N,/CC1_RECEP*%
X11681500Y-11161000D03*
%TO.P,Q3,4*%
%TO.N,/CC2*%
X11681500Y-12461000D03*
%TO.P,Q3,2*%
%TO.N,/CC1_EN*%
X9781500Y-11811000D03*
%TO.P,Q3,5*%
%TO.N,/CC2_EN*%
X11681500Y-11811000D03*
%TO.P,Q3,3*%
%TO.N,/CC2_RECEP*%
X9781500Y-12461000D03*
%TO.P,Q3,1*%
%TO.N,/CC1*%
X9781500Y-11161000D03*
%TD*%
%TO.P,C2,2*%
%TO.N,GND*%
%TA.AperFunction,SMDPad,CuDef*%
G36*
G01*
X14957400Y-18531900D02*
X14957400Y-18221900D01*
G75*
G02*
X15112400Y-18066900I155000J0D01*
G01*
X15537400Y-18066900D01*
G75*
G02*
X15692400Y-18221900I0J-155000D01*
G01*
X15692400Y-18531900D01*
G75*
G02*
X15537400Y-18686900I-155000J0D01*
G01*
X15112400Y-18686900D01*
G75*
G02*
X14957400Y-18531900I0J155000D01*
G01*
G37*
%TD.AperFunction*%
%TO.P,C2,1*%
%TO.N,+3V3*%
%TA.AperFunction,SMDPad,CuDef*%
G36*
G01*
X13822400Y-18531900D02*
X13822400Y-18221900D01*
G75*
G02*
X13977400Y-18066900I155000J0D01*
G01*
X14402400Y-18066900D01*
G75*
G02*
X14557400Y-18221900I0J-155000D01*
G01*
X14557400Y-18531900D01*
G75*
G02*
X14402400Y-18686900I-155000J0D01*
G01*
X13977400Y-18686900D01*
G75*
G02*
X13822400Y-18531900I0J155000D01*
G01*
G37*
%TD.AperFunction*%
%TD*%
%TO.P,C4,2*%
%TO.N,GND*%
%TA.AperFunction,SMDPad,CuDef*%
G36*
G01*
X14957400Y-17528600D02*
X14957400Y-17218600D01*
G75*
G02*
X15112400Y-17063600I155000J0D01*
G01*
X15537400Y-17063600D01*
G75*
G02*
X15692400Y-17218600I0J-155000D01*
G01*
X15692400Y-17528600D01*
G75*
G02*
X15537400Y-17683600I-155000J0D01*
G01*
X15112400Y-17683600D01*
G75*
G02*
X14957400Y-17528600I0J155000D01*
G01*
G37*
%TD.AperFunction*%
%TO.P,C4,1*%
%TO.N,+3V3*%
%TA.AperFunction,SMDPad,CuDef*%
G36*
G01*
X13822400Y-17528600D02*
X13822400Y-17218600D01*
G75*
G02*
X13977400Y-17063600I155000J0D01*
G01*
X14402400Y-17063600D01*
G75*
G02*
X14557400Y-17218600I0J-155000D01*
G01*
X14557400Y-17528600D01*
G75*
G02*
X14402400Y-17683600I-155000J0D01*
G01*
X13977400Y-17683600D01*
G75*
G02*
X13822400Y-17528600I0J155000D01*
G01*
G37*
%TD.AperFunction*%
%TD*%
%TO.P,R14,2*%
%TO.N,+3V3*%
%TA.AperFunction,SMDPad,CuDef*%
G36*
G01*
X2208500Y-16543000D02*
X2208500Y-16223000D01*
G75*
G02*
X2368500Y-16063000I160000J0D01*
G01*
X2763500Y-16063000D01*
G75*
G02*
X2923500Y-16223000I0J-160000D01*
G01*
X2923500Y-16543000D01*
G75*
G02*
X2763500Y-16703000I-160000J0D01*
G01*
X2368500Y-16703000D01*
G75*
G02*
X2208500Y-16543000I0J160000D01*
G01*
G37*
%TD.AperFunction*%
%TO.P,R14,1*%
%TO.N,Net-(Q1-Pad6)*%
%TA.AperFunction,SMDPad,CuDef*%
G36*
G01*
X1013500Y-16543000D02*
X1013500Y-16223000D01*
G75*
G02*
X1173500Y-16063000I160000J0D01*
G01*
X1568500Y-16063000D01*
G75*
G02*
X1728500Y-16223000I0J-160000D01*
G01*
X1728500Y-16543000D01*
G75*
G02*
X1568500Y-16703000I-160000J0D01*
G01*
X1173500Y-16703000D01*
G75*
G02*
X1013500Y-16543000I0J160000D01*
G01*
G37*
%TD.AperFunction*%
%TD*%
%TO.P,R16,2*%
%TO.N,GND*%
%TA.AperFunction,SMDPad,CuDef*%
G36*
G01*
X13702000Y-11844000D02*
X13702000Y-11524000D01*
G75*
G02*
X13862000Y-11364000I160000J0D01*
G01*
X14257000Y-11364000D01*
G75*
G02*
X14417000Y-11524000I0J-160000D01*
G01*
X14417000Y-11844000D01*
G75*
G02*
X14257000Y-12004000I-160000J0D01*
G01*
X13862000Y-12004000D01*
G75*
G02*
X13702000Y-11844000I0J160000D01*
G01*
G37*
%TD.AperFunction*%
%TO.P,R16,1*%
%TO.N,/CC2_EN*%
%TA.AperFunction,SMDPad,CuDef*%
G36*
G01*
X12507000Y-11844000D02*
X12507000Y-11524000D01*
G75*
G02*
X12667000Y-11364000I160000J0D01*
G01*
X13062000Y-11364000D01*
G75*
G02*
X13222000Y-11524000I0J-160000D01*
G01*
X13222000Y-11844000D01*
G75*
G02*
X13062000Y-12004000I-160000J0D01*
G01*
X12667000Y-12004000D01*
G75*
G02*
X12507000Y-11844000I0J160000D01*
G01*
G37*
%TD.AperFunction*%
%TD*%
D21*
%TO.P,SW1,2*%
%TO.N,/BOOT*%
X23897500Y-17802000D03*
X23897500Y-14202000D03*
%TO.P,SW1,1*%
%TO.N,Net-(R24-Pad2)*%
X22457500Y-17802000D03*
X22457500Y-14202000D03*
%TD*%
%TO.P,U5,8*%
%TO.N,+3V3*%
%TA.AperFunction,SMDPad,CuDef*%
G36*
G01*
X19461000Y-12333000D02*
X19461000Y-12133000D01*
G75*
G02*
X19561000Y-12033000I100000J0D01*
G01*
X20986000Y-12033000D01*
G75*
G02*
X21086000Y-12133000I0J-100000D01*
G01*
X21086000Y-12333000D01*
G75*
G02*
X20986000Y-12433000I-100000J0D01*
G01*
X19561000Y-12433000D01*
G75*
G02*
X19461000Y-12333000I0J100000D01*
G01*
G37*
%TD.AperFunction*%
%TO.P,U5,7*%
%TO.N,/CC2_BUF*%
%TA.AperFunction,SMDPad,CuDef*%
G36*
G01*
X19461000Y-12983000D02*
X19461000Y-12783000D01*
G75*
G02*
X19561000Y-12683000I100000J0D01*
G01*
X20986000Y-12683000D01*
G75*
G02*
X21086000Y-12783000I0J-100000D01*
G01*
X21086000Y-12983000D01*
G75*
G02*
X20986000Y-13083000I-100000J0D01*
G01*
X19561000Y-13083000D01*
G75*
G02*
X19461000Y-12983000I0J100000D01*
G01*
G37*
%TD.AperFunction*%
%TO.P,U5,6*%
%TA.AperFunction,SMDPad,CuDef*%
G36*
G01*
X19461000Y-13633000D02*
X19461000Y-13433000D01*
G75*
G02*
X19561000Y-13333000I100000J0D01*
G01*
X20986000Y-13333000D01*
G75*
G02*
X21086000Y-13433000I0J-100000D01*
G01*
X21086000Y-13633000D01*
G75*
G02*
X20986000Y-13733000I-100000J0D01*
G01*
X19561000Y-13733000D01*
G75*
G02*
X19461000Y-13633000I0J100000D01*
G01*
G37*
%TD.AperFunction*%
%TO.P,U5,5*%
%TO.N,/CC2*%
%TA.AperFunction,SMDPad,CuDef*%
G36*
G01*
X19461000Y-14283000D02*
X19461000Y-14083000D01*
G75*
G02*
X19561000Y-13983000I100000J0D01*
G01*
X20986000Y-13983000D01*
G75*
G02*
X21086000Y-14083000I0J-100000D01*
G01*
X21086000Y-14283000D01*
G75*
G02*
X20986000Y-14383000I-100000J0D01*
G01*
X19561000Y-14383000D01*
G75*
G02*
X19461000Y-14283000I0J100000D01*
G01*
G37*
%TD.AperFunction*%
%TO.P,U5,4*%
%TO.N,GND*%
%TA.AperFunction,SMDPad,CuDef*%
G36*
G01*
X15236000Y-14283000D02*
X15236000Y-14083000D01*
G75*
G02*
X15336000Y-13983000I100000J0D01*
G01*
X16761000Y-13983000D01*
G75*
G02*
X16861000Y-14083000I0J-100000D01*
G01*
X16861000Y-14283000D01*
G75*
G02*
X16761000Y-14383000I-100000J0D01*
G01*
X15336000Y-14383000D01*
G75*
G02*
X15236000Y-14283000I0J100000D01*
G01*
G37*
%TD.AperFunction*%
%TO.P,U5,3*%
%TO.N,/CC1*%
%TA.AperFunction,SMDPad,CuDef*%
G36*
G01*
X15236000Y-13633000D02*
X15236000Y-13433000D01*
G75*
G02*
X15336000Y-13333000I100000J0D01*
G01*
X16761000Y-13333000D01*
G75*
G02*
X16861000Y-13433000I0J-100000D01*
G01*
X16861000Y-13633000D01*
G75*
G02*
X16761000Y-13733000I-100000J0D01*
G01*
X15336000Y-13733000D01*
G75*
G02*
X15236000Y-13633000I0J100000D01*
G01*
G37*
%TD.AperFunction*%
%TO.P,U5,2*%
%TO.N,/CC1_BUF*%
%TA.AperFunction,SMDPad,CuDef*%
G36*
G01*
X15236000Y-12983000D02*
X15236000Y-12783000D01*
G75*
G02*
X15336000Y-12683000I100000J0D01*
G01*
X16761000Y-12683000D01*
G75*
G02*
X16861000Y-12783000I0J-100000D01*
G01*
X16861000Y-12983000D01*
G75*
G02*
X16761000Y-13083000I-100000J0D01*
G01*
X15336000Y-13083000D01*
G75*
G02*
X15236000Y-12983000I0J100000D01*
G01*
G37*
%TD.AperFunction*%
%TO.P,U5,1*%
%TA.AperFunction,SMDPad,CuDef*%
G36*
G01*
X15236000Y-12333000D02*
X15236000Y-12133000D01*
G75*
G02*
X15336000Y-12033000I100000J0D01*
G01*
X16761000Y-12033000D01*
G75*
G02*
X16861000Y-12133000I0J-100000D01*
G01*
X16861000Y-12333000D01*
G75*
G02*
X16761000Y-12433000I-100000J0D01*
G01*
X15336000Y-12433000D01*
G75*
G02*
X15236000Y-12333000I0J100000D01*
G01*
G37*
%TD.AperFunction*%
%TD*%
%TO.P,R23,2*%
%TO.N,Net-(Q2-Pad3)*%
%TA.AperFunction,SMDPad,CuDef*%
G36*
G01*
X12794000Y-13575000D02*
X13114000Y-13575000D01*
G75*
G02*
X13274000Y-13735000I0J-160000D01*
G01*
X13274000Y-14130000D01*
G75*
G02*
X13114000Y-14290000I-160000J0D01*
G01*
X12794000Y-14290000D01*
G75*
G02*
X12634000Y-14130000I0J160000D01*
G01*
X12634000Y-13735000D01*
G75*
G02*
X12794000Y-13575000I160000J0D01*
G01*
G37*
%TD.AperFunction*%
%TO.P,R23,1*%
%TO.N,/CC2*%
%TA.AperFunction,SMDPad,CuDef*%
G36*
G01*
X12794000Y-12380000D02*
X13114000Y-12380000D01*
G75*
G02*
X13274000Y-12540000I0J-160000D01*
G01*
X13274000Y-12935000D01*
G75*
G02*
X13114000Y-13095000I-160000J0D01*
G01*
X12794000Y-13095000D01*
G75*
G02*
X12634000Y-12935000I0J160000D01*
G01*
X12634000Y-12540000D01*
G75*
G02*
X12794000Y-12380000I160000J0D01*
G01*
G37*
%TD.AperFunction*%
%TD*%
%TO.P,R22,2*%
%TO.N,+3V3*%
%TA.AperFunction,SMDPad,CuDef*%
G36*
G01*
X10174000Y-16477000D02*
X10174000Y-16797000D01*
G75*
G02*
X10014000Y-16957000I-160000J0D01*
G01*
X9619000Y-16957000D01*
G75*
G02*
X9459000Y-16797000I0J160000D01*
G01*
X9459000Y-16477000D01*
G75*
G02*
X9619000Y-16317000I160000J0D01*
G01*
X10014000Y-16317000D01*
G75*
G02*
X10174000Y-16477000I0J-160000D01*
G01*
G37*
%TD.AperFunction*%
%TO.P,R22,1*%
%TO.N,Net-(Q2-Pad6)*%
%TA.AperFunction,SMDPad,CuDef*%
G36*
G01*
X11369000Y-16477000D02*
X11369000Y-16797000D01*
G75*
G02*
X11209000Y-16957000I-160000J0D01*
G01*
X10814000Y-16957000D01*
G75*
G02*
X10654000Y-16797000I0J160000D01*
G01*
X10654000Y-16477000D01*
G75*
G02*
X10814000Y-16317000I160000J0D01*
G01*
X11209000Y-16317000D01*
G75*
G02*
X11369000Y-16477000I0J-160000D01*
G01*
G37*
%TD.AperFunction*%
%TD*%
%TO.P,R21,2*%
%TO.N,/CC2*%
%TA.AperFunction,SMDPad,CuDef*%
G36*
G01*
X18318500Y-22147500D02*
X18638500Y-22147500D01*
G75*
G02*
X18798500Y-22307500I0J-160000D01*
G01*
X18798500Y-22702500D01*
G75*
G02*
X18638500Y-22862500I-160000J0D01*
G01*
X18318500Y-22862500D01*
G75*
G02*
X18158500Y-22702500I0J160000D01*
G01*
X18158500Y-22307500D01*
G75*
G02*
X18318500Y-22147500I160000J0D01*
G01*
G37*
%TD.AperFunction*%
%TO.P,R21,1*%
%TO.N,/CC2_RPUSB*%
%TA.AperFunction,SMDPad,CuDef*%
G36*
G01*
X18318500Y-20952500D02*
X18638500Y-20952500D01*
G75*
G02*
X18798500Y-21112500I0J-160000D01*
G01*
X18798500Y-21507500D01*
G75*
G02*
X18638500Y-21667500I-160000J0D01*
G01*
X18318500Y-21667500D01*
G75*
G02*
X18158500Y-21507500I0J160000D01*
G01*
X18158500Y-21112500D01*
G75*
G02*
X18318500Y-20952500I160000J0D01*
G01*
G37*
%TD.AperFunction*%
%TD*%
%TO.P,R20,2*%
%TO.N,/CC2*%
%TA.AperFunction,SMDPad,CuDef*%
G36*
G01*
X17302500Y-22147500D02*
X17622500Y-22147500D01*
G75*
G02*
X17782500Y-22307500I0J-160000D01*
G01*
X17782500Y-22702500D01*
G75*
G02*
X17622500Y-22862500I-160000J0D01*
G01*
X17302500Y-22862500D01*
G75*
G02*
X17142500Y-22702500I0J160000D01*
G01*
X17142500Y-22307500D01*
G75*
G02*
X17302500Y-22147500I160000J0D01*
G01*
G37*
%TD.AperFunction*%
%TO.P,R20,1*%
%TO.N,/CC2_RD*%
%TA.AperFunction,SMDPad,CuDef*%
G36*
G01*
X17302500Y-20952500D02*
X17622500Y-20952500D01*
G75*
G02*
X17782500Y-21112500I0J-160000D01*
G01*
X17782500Y-21507500D01*
G75*
G02*
X17622500Y-21667500I-160000J0D01*
G01*
X17302500Y-21667500D01*
G75*
G02*
X17142500Y-21507500I0J160000D01*
G01*
X17142500Y-21112500D01*
G75*
G02*
X17302500Y-20952500I160000J0D01*
G01*
G37*
%TD.AperFunction*%
%TD*%
%TO.P,R19,2*%
%TO.N,/CC2*%
%TA.AperFunction,SMDPad,CuDef*%
G36*
G01*
X16286500Y-22147500D02*
X16606500Y-22147500D01*
G75*
G02*
X16766500Y-22307500I0J-160000D01*
G01*
X16766500Y-22702500D01*
G75*
G02*
X16606500Y-22862500I-160000J0D01*
G01*
X16286500Y-22862500D01*
G75*
G02*
X16126500Y-22702500I0J160000D01*
G01*
X16126500Y-22307500D01*
G75*
G02*
X16286500Y-22147500I160000J0D01*
G01*
G37*
%TD.AperFunction*%
%TO.P,R19,1*%
%TO.N,/CC2_RP1A5*%
%TA.AperFunction,SMDPad,CuDef*%
G36*
G01*
X16286500Y-20952500D02*
X16606500Y-20952500D01*
G75*
G02*
X16766500Y-21112500I0J-160000D01*
G01*
X16766500Y-21507500D01*
G75*
G02*
X16606500Y-21667500I-160000J0D01*
G01*
X16286500Y-21667500D01*
G75*
G02*
X16126500Y-21507500I0J160000D01*
G01*
X16126500Y-21112500D01*
G75*
G02*
X16286500Y-20952500I160000J0D01*
G01*
G37*
%TD.AperFunction*%
%TD*%
%TO.P,R18,2*%
%TO.N,/CC2*%
%TA.AperFunction,SMDPad,CuDef*%
G36*
G01*
X15270500Y-22147500D02*
X15590500Y-22147500D01*
G75*
G02*
X15750500Y-22307500I0J-160000D01*
G01*
X15750500Y-22702500D01*
G75*
G02*
X15590500Y-22862500I-160000J0D01*
G01*
X15270500Y-22862500D01*
G75*
G02*
X15110500Y-22702500I0J160000D01*
G01*
X15110500Y-22307500D01*
G75*
G02*
X15270500Y-22147500I160000J0D01*
G01*
G37*
%TD.AperFunction*%
%TO.P,R18,1*%
%TO.N,/CC2_RA*%
%TA.AperFunction,SMDPad,CuDef*%
G36*
G01*
X15270500Y-20952500D02*
X15590500Y-20952500D01*
G75*
G02*
X15750500Y-21112500I0J-160000D01*
G01*
X15750500Y-21507500D01*
G75*
G02*
X15590500Y-21667500I-160000J0D01*
G01*
X15270500Y-21667500D01*
G75*
G02*
X15110500Y-21507500I0J160000D01*
G01*
X15110500Y-21112500D01*
G75*
G02*
X15270500Y-20952500I160000J0D01*
G01*
G37*
%TD.AperFunction*%
%TD*%
%TO.P,R17,2*%
%TO.N,/CC2*%
%TA.AperFunction,SMDPad,CuDef*%
G36*
G01*
X14254500Y-22147500D02*
X14574500Y-22147500D01*
G75*
G02*
X14734500Y-22307500I0J-160000D01*
G01*
X14734500Y-22702500D01*
G75*
G02*
X14574500Y-22862500I-160000J0D01*
G01*
X14254500Y-22862500D01*
G75*
G02*
X14094500Y-22702500I0J160000D01*
G01*
X14094500Y-22307500D01*
G75*
G02*
X14254500Y-22147500I160000J0D01*
G01*
G37*
%TD.AperFunction*%
%TO.P,R17,1*%
%TO.N,/CC2_RP3A0*%
%TA.AperFunction,SMDPad,CuDef*%
G36*
G01*
X14254500Y-20952500D02*
X14574500Y-20952500D01*
G75*
G02*
X14734500Y-21112500I0J-160000D01*
G01*
X14734500Y-21507500D01*
G75*
G02*
X14574500Y-21667500I-160000J0D01*
G01*
X14254500Y-21667500D01*
G75*
G02*
X14094500Y-21507500I0J160000D01*
G01*
X14094500Y-21112500D01*
G75*
G02*
X14254500Y-20952500I160000J0D01*
G01*
G37*
%TD.AperFunction*%
%TD*%
%TO.P,R15,2*%
%TO.N,Net-(Q1-Pad3)*%
%TA.AperFunction,SMDPad,CuDef*%
G36*
G01*
X3332500Y-13956000D02*
X3652500Y-13956000D01*
G75*
G02*
X3812500Y-14116000I0J-160000D01*
G01*
X3812500Y-14511000D01*
G75*
G02*
X3652500Y-14671000I-160000J0D01*
G01*
X3332500Y-14671000D01*
G75*
G02*
X3172500Y-14511000I0J160000D01*
G01*
X3172500Y-14116000D01*
G75*
G02*
X3332500Y-13956000I160000J0D01*
G01*
G37*
%TD.AperFunction*%
%TO.P,R15,1*%
%TO.N,/CC1*%
%TA.AperFunction,SMDPad,CuDef*%
G36*
G01*
X3332500Y-12761000D02*
X3652500Y-12761000D01*
G75*
G02*
X3812500Y-12921000I0J-160000D01*
G01*
X3812500Y-13316000D01*
G75*
G02*
X3652500Y-13476000I-160000J0D01*
G01*
X3332500Y-13476000D01*
G75*
G02*
X3172500Y-13316000I0J160000D01*
G01*
X3172500Y-12921000D01*
G75*
G02*
X3332500Y-12761000I160000J0D01*
G01*
G37*
%TD.AperFunction*%
%TD*%
%TO.P,R13,2*%
%TO.N,/CC1*%
%TA.AperFunction,SMDPad,CuDef*%
G36*
G01*
X4668500Y-13476000D02*
X4348500Y-13476000D01*
G75*
G02*
X4188500Y-13316000I0J160000D01*
G01*
X4188500Y-12921000D01*
G75*
G02*
X4348500Y-12761000I160000J0D01*
G01*
X4668500Y-12761000D01*
G75*
G02*
X4828500Y-12921000I0J-160000D01*
G01*
X4828500Y-13316000D01*
G75*
G02*
X4668500Y-13476000I-160000J0D01*
G01*
G37*
%TD.AperFunction*%
%TO.P,R13,1*%
%TO.N,/CC1_RPUSB*%
%TA.AperFunction,SMDPad,CuDef*%
G36*
G01*
X4668500Y-14671000D02*
X4348500Y-14671000D01*
G75*
G02*
X4188500Y-14511000I0J160000D01*
G01*
X4188500Y-14116000D01*
G75*
G02*
X4348500Y-13956000I160000J0D01*
G01*
X4668500Y-13956000D01*
G75*
G02*
X4828500Y-14116000I0J-160000D01*
G01*
X4828500Y-14511000D01*
G75*
G02*
X4668500Y-14671000I-160000J0D01*
G01*
G37*
%TD.AperFunction*%
%TD*%
%TO.P,R12,2*%
%TO.N,/CC1*%
%TA.AperFunction,SMDPad,CuDef*%
G36*
G01*
X5684500Y-13476000D02*
X5364500Y-13476000D01*
G75*
G02*
X5204500Y-13316000I0J160000D01*
G01*
X5204500Y-12921000D01*
G75*
G02*
X5364500Y-12761000I160000J0D01*
G01*
X5684500Y-12761000D01*
G75*
G02*
X5844500Y-12921000I0J-160000D01*
G01*
X5844500Y-13316000D01*
G75*
G02*
X5684500Y-13476000I-160000J0D01*
G01*
G37*
%TD.AperFunction*%
%TO.P,R12,1*%
%TO.N,/CC1_RD*%
%TA.AperFunction,SMDPad,CuDef*%
G36*
G01*
X5684500Y-14671000D02*
X5364500Y-14671000D01*
G75*
G02*
X5204500Y-14511000I0J160000D01*
G01*
X5204500Y-14116000D01*
G75*
G02*
X5364500Y-13956000I160000J0D01*
G01*
X5684500Y-13956000D01*
G75*
G02*
X5844500Y-14116000I0J-160000D01*
G01*
X5844500Y-14511000D01*
G75*
G02*
X5684500Y-14671000I-160000J0D01*
G01*
G37*
%TD.AperFunction*%
%TD*%
%TO.P,R11,2*%
%TO.N,/CC1*%
%TA.AperFunction,SMDPad,CuDef*%
G36*
G01*
X6700500Y-13476000D02*
X6380500Y-13476000D01*
G75*
G02*
X6220500Y-13316000I0J160000D01*
G01*
X6220500Y-12921000D01*
G75*
G02*
X6380500Y-12761000I160000J0D01*
G01*
X6700500Y-12761000D01*
G75*
G02*
X6860500Y-12921000I0J-160000D01*
G01*
X6860500Y-13316000D01*
G75*
G02*
X6700500Y-13476000I-160000J0D01*
G01*
G37*
%TD.AperFunction*%
%TO.P,R11,1*%
%TO.N,/CC1_RP1A5*%
%TA.AperFunction,SMDPad,CuDef*%
G36*
G01*
X6700500Y-14671000D02*
X6380500Y-14671000D01*
G75*
G02*
X6220500Y-14511000I0J160000D01*
G01*
X6220500Y-14116000D01*
G75*
G02*
X6380500Y-13956000I160000J0D01*
G01*
X6700500Y-13956000D01*
G75*
G02*
X6860500Y-14116000I0J-160000D01*
G01*
X6860500Y-14511000D01*
G75*
G02*
X6700500Y-14671000I-160000J0D01*
G01*
G37*
%TD.AperFunction*%
%TD*%
%TO.P,R10,2*%
%TO.N,/CC1*%
%TA.AperFunction,SMDPad,CuDef*%
G36*
G01*
X7716500Y-13476000D02*
X7396500Y-13476000D01*
G75*
G02*
X7236500Y-13316000I0J160000D01*
G01*
X7236500Y-12921000D01*
G75*
G02*
X7396500Y-12761000I160000J0D01*
G01*
X7716500Y-12761000D01*
G75*
G02*
X7876500Y-12921000I0J-160000D01*
G01*
X7876500Y-13316000D01*
G75*
G02*
X7716500Y-13476000I-160000J0D01*
G01*
G37*
%TD.AperFunction*%
%TO.P,R10,1*%
%TO.N,/CC1_RA*%
%TA.AperFunction,SMDPad,CuDef*%
G36*
G01*
X7716500Y-14671000D02*
X7396500Y-14671000D01*
G75*
G02*
X7236500Y-14511000I0J160000D01*
G01*
X7236500Y-14116000D01*
G75*
G02*
X7396500Y-13956000I160000J0D01*
G01*
X7716500Y-13956000D01*
G75*
G02*
X7876500Y-14116000I0J-160000D01*
G01*
X7876500Y-14511000D01*
G75*
G02*
X7716500Y-14671000I-160000J0D01*
G01*
G37*
%TD.AperFunction*%
%TD*%
%TO.P,R9,2*%
%TO.N,/CC1*%
%TA.AperFunction,SMDPad,CuDef*%
G36*
G01*
X8732500Y-13476000D02*
X8412500Y-13476000D01*
G75*
G02*
X8252500Y-13316000I0J160000D01*
G01*
X8252500Y-12921000D01*
G75*
G02*
X8412500Y-12761000I160000J0D01*
G01*
X8732500Y-12761000D01*
G75*
G02*
X8892500Y-12921000I0J-160000D01*
G01*
X8892500Y-13316000D01*
G75*
G02*
X8732500Y-13476000I-160000J0D01*
G01*
G37*
%TD.AperFunction*%
%TO.P,R9,1*%
%TO.N,/CC1_RP3A0*%
%TA.AperFunction,SMDPad,CuDef*%
G36*
G01*
X8732500Y-14671000D02*
X8412500Y-14671000D01*
G75*
G02*
X8252500Y-14511000I0J160000D01*
G01*
X8252500Y-14116000D01*
G75*
G02*
X8412500Y-13956000I160000J0D01*
G01*
X8732500Y-13956000D01*
G75*
G02*
X8892500Y-14116000I0J-160000D01*
G01*
X8892500Y-14511000D01*
G75*
G02*
X8732500Y-14671000I-160000J0D01*
G01*
G37*
%TD.AperFunction*%
%TD*%
%TO.P,R8,2*%
%TO.N,GND*%
%TA.AperFunction,SMDPad,CuDef*%
G36*
G01*
X7697500Y-11841500D02*
X7697500Y-12161500D01*
G75*
G02*
X7537500Y-12321500I-160000J0D01*
G01*
X7142500Y-12321500D01*
G75*
G02*
X6982500Y-12161500I0J160000D01*
G01*
X6982500Y-11841500D01*
G75*
G02*
X7142500Y-11681500I160000J0D01*
G01*
X7537500Y-11681500D01*
G75*
G02*
X7697500Y-11841500I0J-160000D01*
G01*
G37*
%TD.AperFunction*%
%TO.P,R8,1*%
%TO.N,/CC1_EN*%
%TA.AperFunction,SMDPad,CuDef*%
G36*
G01*
X8892500Y-11841500D02*
X8892500Y-12161500D01*
G75*
G02*
X8732500Y-12321500I-160000J0D01*
G01*
X8337500Y-12321500D01*
G75*
G02*
X8177500Y-12161500I0J160000D01*
G01*
X8177500Y-11841500D01*
G75*
G02*
X8337500Y-11681500I160000J0D01*
G01*
X8732500Y-11681500D01*
G75*
G02*
X8892500Y-11841500I0J-160000D01*
G01*
G37*
%TD.AperFunction*%
%TD*%
%TO.P,R7,2*%
%TO.N,/LED_B_L*%
%TA.AperFunction,SMDPad,CuDef*%
G36*
G01*
X19318000Y-24097000D02*
X19318000Y-24417000D01*
G75*
G02*
X19158000Y-24577000I-160000J0D01*
G01*
X18763000Y-24577000D01*
G75*
G02*
X18603000Y-24417000I0J160000D01*
G01*
X18603000Y-24097000D01*
G75*
G02*
X18763000Y-23937000I160000J0D01*
G01*
X19158000Y-23937000D01*
G75*
G02*
X19318000Y-24097000I0J-160000D01*
G01*
G37*
%TD.AperFunction*%
%TO.P,R7,1*%
%TO.N,Net-(DS2-Pad3)*%
%TA.AperFunction,SMDPad,CuDef*%
G36*
G01*
X20513000Y-24097000D02*
X20513000Y-24417000D01*
G75*
G02*
X20353000Y-24577000I-160000J0D01*
G01*
X19958000Y-24577000D01*
G75*
G02*
X19798000Y-24417000I0J160000D01*
G01*
X19798000Y-24097000D01*
G75*
G02*
X19958000Y-23937000I160000J0D01*
G01*
X20353000Y-23937000D01*
G75*
G02*
X20513000Y-24097000I0J-160000D01*
G01*
G37*
%TD.AperFunction*%
%TD*%
%TO.P,R6,2*%
%TO.N,/LED_G_L*%
%TA.AperFunction,SMDPad,CuDef*%
G36*
G01*
X21877000Y-19635500D02*
X21557000Y-19635500D01*
G75*
G02*
X21397000Y-19475500I0J160000D01*
G01*
X21397000Y-19080500D01*
G75*
G02*
X21557000Y-18920500I160000J0D01*
G01*
X21877000Y-18920500D01*
G75*
G02*
X22037000Y-19080500I0J-160000D01*
G01*
X22037000Y-19475500D01*
G75*
G02*
X21877000Y-19635500I-160000J0D01*
G01*
G37*
%TD.AperFunction*%
%TO.P,R6,1*%
%TO.N,Net-(DS2-Pad4)*%
%TA.AperFunction,SMDPad,CuDef*%
G36*
G01*
X21877000Y-20830500D02*
X21557000Y-20830500D01*
G75*
G02*
X21397000Y-20670500I0J160000D01*
G01*
X21397000Y-20275500D01*
G75*
G02*
X21557000Y-20115500I160000J0D01*
G01*
X21877000Y-20115500D01*
G75*
G02*
X22037000Y-20275500I0J-160000D01*
G01*
X22037000Y-20670500D01*
G75*
G02*
X21877000Y-20830500I-160000J0D01*
G01*
G37*
%TD.AperFunction*%
%TD*%
%TO.P,R5,2*%
%TO.N,/LED_R_L*%
%TA.AperFunction,SMDPad,CuDef*%
G36*
G01*
X23763000Y-20922000D02*
X23763000Y-21242000D01*
G75*
G02*
X23603000Y-21402000I-160000J0D01*
G01*
X23208000Y-21402000D01*
G75*
G02*
X23048000Y-21242000I0J160000D01*
G01*
X23048000Y-20922000D01*
G75*
G02*
X23208000Y-20762000I160000J0D01*
G01*
X23603000Y-20762000D01*
G75*
G02*
X23763000Y-20922000I0J-160000D01*
G01*
G37*
%TD.AperFunction*%
%TO.P,R5,1*%
%TO.N,Net-(DS2-Pad1)*%
%TA.AperFunction,SMDPad,CuDef*%
G36*
G01*
X24958000Y-20922000D02*
X24958000Y-21242000D01*
G75*
G02*
X24798000Y-21402000I-160000J0D01*
G01*
X24403000Y-21402000D01*
G75*
G02*
X24243000Y-21242000I0J160000D01*
G01*
X24243000Y-20922000D01*
G75*
G02*
X24403000Y-20762000I160000J0D01*
G01*
X24798000Y-20762000D01*
G75*
G02*
X24958000Y-20922000I0J-160000D01*
G01*
G37*
%TD.AperFunction*%
%TD*%
%TO.P,R1,2*%
%TO.N,GND*%
%TA.AperFunction,SMDPad,CuDef*%
G36*
G01*
X20541000Y-20115500D02*
X20861000Y-20115500D01*
G75*
G02*
X21021000Y-20275500I0J-160000D01*
G01*
X21021000Y-20670500D01*
G75*
G02*
X20861000Y-20830500I-160000J0D01*
G01*
X20541000Y-20830500D01*
G75*
G02*
X20381000Y-20670500I0J160000D01*
G01*
X20381000Y-20275500D01*
G75*
G02*
X20541000Y-20115500I160000J0D01*
G01*
G37*
%TD.AperFunction*%
%TO.P,R1,1*%
%TO.N,/BOOT*%
%TA.AperFunction,SMDPad,CuDef*%
G36*
G01*
X20541000Y-18920500D02*
X20861000Y-18920500D01*
G75*
G02*
X21021000Y-19080500I0J-160000D01*
G01*
X21021000Y-19475500D01*
G75*
G02*
X20861000Y-19635500I-160000J0D01*
G01*
X20541000Y-19635500D01*
G75*
G02*
X20381000Y-19475500I0J160000D01*
G01*
X20381000Y-19080500D01*
G75*
G02*
X20541000Y-18920500I160000J0D01*
G01*
G37*
%TD.AperFunction*%
%TD*%
D20*
%TO.P,Q2,6*%
%TO.N,Net-(Q2-Pad6)*%
X9781500Y-15318500D03*
%TO.P,Q2,4*%
%TO.N,GND*%
X9781500Y-14018500D03*
%TO.P,Q2,2*%
%TO.N,/CC2_TX_DATA*%
X11681500Y-14668500D03*
%TO.P,Q2,5*%
%TO.N,/CC2_TX_EN*%
X9781500Y-14668500D03*
%TO.P,Q2,3*%
%TO.N,Net-(Q2-Pad3)*%
X11681500Y-14018500D03*
%TO.P,Q2,1*%
%TO.N,/CC2*%
X11681500Y-15318500D03*
%TD*%
D22*
%TO.P,Q1,6*%
%TO.N,Net-(Q1-Pad6)*%
X2174000Y-15174000D03*
%TO.P,Q1,4*%
%TO.N,GND*%
X874000Y-15174000D03*
%TO.P,Q1,2*%
%TO.N,/CC1_TX_DATA*%
X1524000Y-13274000D03*
%TO.P,Q1,5*%
%TO.N,/CC1_TX_EN*%
X1524000Y-15174000D03*
%TO.P,Q1,3*%
%TO.N,Net-(Q1-Pad3)*%
X874000Y-13274000D03*
%TO.P,Q1,1*%
%TO.N,/CC1*%
X2174000Y-13274000D03*
%TD*%
%TO.P,FB2,2*%
%TO.N,Net-(C5-Pad1)*%
%TA.AperFunction,SMDPad,CuDef*%
G36*
G01*
X16065000Y-19552900D02*
X16065000Y-19232900D01*
G75*
G02*
X16225000Y-19072900I160000J0D01*
G01*
X16670000Y-19072900D01*
G75*
G02*
X16830000Y-19232900I0J-160000D01*
G01*
X16830000Y-19552900D01*
G75*
G02*
X16670000Y-19712900I-160000J0D01*
G01*
X16225000Y-19712900D01*
G75*
G02*
X16065000Y-19552900I0J160000D01*
G01*
G37*
%TD.AperFunction*%
%TO.P,FB2,1*%
%TO.N,+3V3*%
%TA.AperFunction,SMDPad,CuDef*%
G36*
G01*
X14920000Y-19552900D02*
X14920000Y-19232900D01*
G75*
G02*
X15080000Y-19072900I160000J0D01*
G01*
X15525000Y-19072900D01*
G75*
G02*
X15685000Y-19232900I0J-160000D01*
G01*
X15685000Y-19552900D01*
G75*
G02*
X15525000Y-19712900I-160000J0D01*
G01*
X15080000Y-19712900D01*
G75*
G02*
X14920000Y-19552900I0J160000D01*
G01*
G37*
%TD.AperFunction*%
%TD*%
D23*
%TO.P,DS2,2*%
%TO.N,+5V*%
X24237000Y-22795000D03*
%TO.P,DS2,3*%
%TO.N,Net-(DS2-Pad3)*%
X21737000Y-22795000D03*
%TO.P,DS2,4*%
%TO.N,Net-(DS2-Pad4)*%
X21737000Y-24195000D03*
%TO.P,DS2,1*%
%TO.N,Net-(DS2-Pad1)*%
X24237000Y-24195000D03*
%TD*%
%TO.P,C6,2*%
%TO.N,GND*%
%TA.AperFunction,SMDPad,CuDef*%
G36*
G01*
X16792600Y-17218600D02*
X16792600Y-17528600D01*
G75*
G02*
X16637600Y-17683600I-155000J0D01*
G01*
X16212600Y-17683600D01*
G75*
G02*
X16057600Y-17528600I0J155000D01*
G01*
X16057600Y-17218600D01*
G75*
G02*
X16212600Y-17063600I155000J0D01*
G01*
X16637600Y-17063600D01*
G75*
G02*
X16792600Y-17218600I0J-155000D01*
G01*
G37*
%TD.AperFunction*%
%TO.P,C6,1*%
%TO.N,Net-(C5-Pad1)*%
%TA.AperFunction,SMDPad,CuDef*%
G36*
G01*
X17927600Y-17218600D02*
X17927600Y-17528600D01*
G75*
G02*
X17772600Y-17683600I-155000J0D01*
G01*
X17347600Y-17683600D01*
G75*
G02*
X17192600Y-17528600I0J155000D01*
G01*
X17192600Y-17218600D01*
G75*
G02*
X17347600Y-17063600I155000J0D01*
G01*
X17772600Y-17063600D01*
G75*
G02*
X17927600Y-17218600I0J-155000D01*
G01*
G37*
%TD.AperFunction*%
%TD*%
%TO.P,C5,2*%
%TO.N,GND*%
%TA.AperFunction,SMDPad,CuDef*%
G36*
G01*
X16792600Y-18221900D02*
X16792600Y-18531900D01*
G75*
G02*
X16637600Y-18686900I-155000J0D01*
G01*
X16212600Y-18686900D01*
G75*
G02*
X16057600Y-18531900I0J155000D01*
G01*
X16057600Y-18221900D01*
G75*
G02*
X16212600Y-18066900I155000J0D01*
G01*
X16637600Y-18066900D01*
G75*
G02*
X16792600Y-18221900I0J-155000D01*
G01*
G37*
%TD.AperFunction*%
%TO.P,C5,1*%
%TO.N,Net-(C5-Pad1)*%
%TA.AperFunction,SMDPad,CuDef*%
G36*
G01*
X17927600Y-18221900D02*
X17927600Y-18531900D01*
G75*
G02*
X17772600Y-18686900I-155000J0D01*
G01*
X17347600Y-18686900D01*
G75*
G02*
X17192600Y-18531900I0J155000D01*
G01*
X17192600Y-18221900D01*
G75*
G02*
X17347600Y-18066900I155000J0D01*
G01*
X17772600Y-18066900D01*
G75*
G02*
X17927600Y-18221900I0J-155000D01*
G01*
G37*
%TD.AperFunction*%
%TD*%
D24*
%TO.N,GND*%
X19494500Y-23050500D03*
X13462000Y-20447000D03*
X15875000Y-17881600D03*
X12192000Y-4699000D03*
X4953000Y-635000D03*
D25*
X6477000Y-10414000D03*
X6477000Y-9779000D03*
X6477000Y-2921000D03*
X6477000Y-2286000D03*
D24*
X5334000Y-18097500D03*
X13412792Y-16961149D03*
D25*
X19177000Y-14732000D03*
D24*
X8890000Y-15240000D03*
X5969000Y-18097500D03*
X4699000Y-18097500D03*
X12382500Y-23558500D03*
X21209000Y-21399500D03*
X5842000Y-12065000D03*
X21717000Y-635000D03*
X20320000Y-3492500D03*
X19939000Y-3048000D03*
X19431000Y-10414000D03*
X20256500Y-9271000D03*
X19558000Y-11303000D03*
X24257000Y-12700000D03*
X22352000Y-1016000D03*
X5334000Y-11430000D03*
X6350000Y-11430000D03*
X4953000Y-1333500D03*
X13906500Y-8102590D03*
X14922500Y-4445000D03*
X5651500Y-1460500D03*
X23622000Y-12700000D03*
%TO.N,+5V*%
X23241000Y-23368000D03*
%TO.N,+3V3*%
X5588000Y-17145000D03*
X11684000Y-7239000D03*
X12442000Y-22102000D03*
X12700000Y-7874000D03*
X19685000Y-21336000D03*
X5588000Y-16256000D03*
X14605000Y-17907000D03*
X9017000Y-16637000D03*
X12206419Y-3951419D03*
X14986000Y-20066000D03*
D25*
X14993294Y-5261560D03*
D24*
X8890000Y-10350500D03*
X22415500Y-11811000D03*
%TO.N,Net-(D1-Pad1)*%
X3810000Y-20828000D03*
D25*
%TO.N,/CC1_RECEP*%
X10033000Y-8509000D03*
X17399000Y-5588000D03*
X9271000Y-5524500D03*
X11049000Y-10350500D03*
D24*
%TO.N,/CC2_RECEP*%
X9144000Y-7239000D03*
D25*
X10414000Y-10350500D03*
%TO.N,/CC1_TX_DATA*%
X2794000Y-13716000D03*
X4000500Y-15113000D03*
%TO.N,/CC1_TX_EN*%
X10477500Y-21590000D03*
%TO.N,/CC2_TX_DATA*%
X15494000Y-15494000D03*
X18351625Y-17462625D03*
%TO.N,/CC2_TX_EN*%
X14132613Y-15704645D03*
%TO.N,/CC2*%
X10668000Y-13716000D03*
X19939000Y-14732000D03*
X10795000Y-12700000D03*
%TO.N,/CC1_EN*%
X9337588Y-13053528D03*
X18415000Y-16256000D03*
%TO.N,/CC2_EN*%
X13843000Y-12827000D03*
X19050000Y-13589000D03*
%TO.N,/BOOT*%
X18516600Y-19555981D03*
%TO.N,/LED_R_L*%
X23939500Y-20383500D03*
%TO.N,/LED_G_L*%
X22479000Y-18923000D03*
%TO.N,/LED_B_L*%
X18923000Y-23622000D03*
%TO.N,/CC1_RP3A0*%
X14605000Y-16129000D03*
%TO.N,/CC1_RA*%
X7576582Y-15013987D03*
%TO.N,/CC1_RP1A5*%
X6893653Y-15000138D03*
%TO.N,/CC1_RD*%
X14010642Y-20035519D03*
%TO.N,/CC1_RPUSB*%
X10383547Y-20741506D03*
%TO.N,/CC2_RP3A0*%
X14351000Y-20574000D03*
%TO.N,/CC2_RA*%
X15621000Y-20574000D03*
%TO.N,/CC2_RP1A5*%
X16793347Y-20574000D03*
%TO.N,/CC2_RD*%
X17653000Y-20574000D03*
%TO.N,/CC2_RPUSB*%
X18415000Y-20574000D03*
%TO.N,/INA_SCL*%
X12954000Y-5461000D03*
X13307848Y-19323564D03*
X13462000Y-10350500D03*
%TO.N,/INA_SDA*%
X10714245Y-17733755D03*
X14097000Y-4572000D03*
X12826997Y-10350500D03*
X14732000Y-10350500D03*
%TO.N,/VBUS_ALERT_L*%
X15367000Y-10350500D03*
X21209000Y-17970500D03*
%TO.N,/VCONN_ALERT_L*%
X21209000Y-17335500D03*
X14351000Y-3937000D03*
X14097000Y-10350500D03*
%TO.N,/CC2_BUF*%
X21463000Y-13081000D03*
%TO.N,/CC1_BUF*%
X19050000Y-12827000D03*
D24*
%TO.N,/VBUS_PLUG*%
X17907000Y-3746500D03*
X17399000Y-3429000D03*
X17399000Y-4064000D03*
X17907000Y-3175000D03*
X19240500Y-7683500D03*
X18923000Y-8128000D03*
X18669000Y-7683500D03*
X19387500Y-5100000D03*
X18796000Y-5080000D03*
X18669000Y-4508500D03*
X17907000Y-4318000D03*
%TO.N,/CC2_PLUG*%
X17843500Y-7747000D03*
D25*
X12992474Y-4699000D03*
X13017500Y-7239000D03*
D24*
%TO.N,/VBUS_RECEP*%
X8636000Y-3492500D03*
X8636000Y-4064000D03*
X9144000Y-3238500D03*
X9144000Y-3810000D03*
X7919185Y-4236185D03*
X7538185Y-4617185D03*
X7206621Y-7784100D03*
X7585260Y-8162740D03*
X9144000Y-4381500D03*
X8064500Y-8445500D03*
D25*
%TO.N,/SBU2*%
X17335500Y-4889500D03*
X8763000Y-4953000D03*
%TO.N,/SBU1*%
X13850496Y-7201516D03*
X11747500Y-8382000D03*
D26*
%TO.N,/USBC_D-*%
X6784653Y-6273790D03*
%TO.N,/USBC_D+*%
X7350212Y-6007090D03*
D25*
%TO.N,/USB_B_D+*%
X14519400Y-23368000D03*
%TO.N,/USB_B_D-*%
X15230600Y-23368000D03*
%TO.N,/TX_CLK*%
X21335742Y-16370299D03*
X10287000Y-15875000D03*
D24*
%TO.N,Net-(C5-Pad1)*%
X17272000Y-17907000D03*
X17018000Y-15621000D03*
%TD*%
D27*
%TO.N,GND*%
X15379700Y-18376900D02*
X15875000Y-17881600D01*
X15324900Y-18376900D02*
X15379700Y-18376900D01*
X16370300Y-18376900D02*
X15875000Y-17881600D01*
X16425100Y-18376900D02*
X16370300Y-18376900D01*
X16383000Y-17373600D02*
X15875000Y-17881600D01*
X16425100Y-17373600D02*
X16383000Y-17373600D01*
X15367000Y-17373600D02*
X15875000Y-17881600D01*
X15324900Y-17373600D02*
X15367000Y-17373600D01*
X5675000Y-10100000D02*
X5675000Y-9171001D01*
X5675000Y-2600000D02*
X5675000Y-3528999D01*
D28*
X9781500Y-14018500D02*
X9403578Y-14018500D01*
X9403578Y-14018500D02*
X9177099Y-14244979D01*
D29*
X14059500Y-11684000D02*
X14732000Y-11684000D01*
D28*
X9177099Y-14244979D02*
X9177099Y-14952901D01*
D29*
X14732000Y-11684000D02*
X14986000Y-11430000D01*
D28*
X9177099Y-14952901D02*
X8890000Y-15240000D01*
D27*
X874000Y-15174000D02*
X874000Y-15572500D01*
D29*
X14986000Y-11430000D02*
X18415000Y-11430000D01*
D27*
X874000Y-15572500D02*
X571500Y-15875000D01*
X23909000Y-1400000D02*
X23398000Y-889000D01*
X23398000Y-889000D02*
X20764500Y-889000D01*
D28*
X5675000Y-3600000D02*
X6115500Y-3600000D01*
X6477000Y-3238500D02*
X6477000Y-2921000D01*
X6115500Y-3600000D02*
X6477000Y-3238500D01*
X6477000Y-2921000D02*
X6477000Y-2286000D01*
X5989000Y-2286000D02*
X5675000Y-2600000D01*
X6477000Y-2286000D02*
X5989000Y-2286000D01*
X5996000Y-2921000D02*
X5675000Y-2600000D01*
X6477000Y-2921000D02*
X5996000Y-2921000D01*
X6477000Y-2286000D02*
X6477000Y-1841500D01*
X5715000Y-1079500D02*
X5080000Y-1079500D01*
X6477000Y-1841500D02*
X5715000Y-1079500D01*
X5675000Y-9100000D02*
X6115500Y-9100000D01*
X6477000Y-9461500D02*
X6477000Y-9779000D01*
X6115500Y-9100000D02*
X6477000Y-9461500D01*
X5996000Y-9779000D02*
X5675000Y-10100000D01*
X6477000Y-9779000D02*
X5996000Y-9779000D01*
X5989000Y-10414000D02*
X5675000Y-10100000D01*
X6477000Y-10414000D02*
X5989000Y-10414000D01*
X6477000Y-9779000D02*
X6477000Y-10414000D01*
D27*
X20965000Y-2523990D02*
X21148990Y-2340000D01*
X20965000Y-3525000D02*
X20965000Y-2523990D01*
D28*
X20965000Y-9175000D02*
X20225500Y-9175000D01*
X20225500Y-9175000D02*
X19621500Y-9779000D01*
D27*
X20965000Y-10176010D02*
X21148990Y-10360000D01*
X20965000Y-9175000D02*
X20965000Y-10176010D01*
X16197500Y-4613000D02*
X15090500Y-4613000D01*
X15090500Y-4613000D02*
X14922500Y-4445000D01*
D29*
X14930482Y-5913000D02*
X16197500Y-5913000D01*
X14485170Y-5467688D02*
X14930482Y-5913000D01*
X14485170Y-4882330D02*
X14485170Y-5467688D01*
X14922500Y-4445000D02*
X14485170Y-4882330D01*
D28*
%TO.N,+5V*%
X23814000Y-22795000D02*
X23241000Y-23368000D01*
X24237000Y-22795000D02*
X23814000Y-22795000D01*
D27*
%TO.N,+3V3*%
X2693000Y-16256000D02*
X2566000Y-16383000D01*
X5588000Y-16256000D02*
X2693000Y-16256000D01*
D28*
X14189900Y-17491900D02*
X14189900Y-17373600D01*
X14605000Y-17907000D02*
X14189900Y-17491900D01*
X14189900Y-18322100D02*
X14605000Y-17907000D01*
X14189900Y-18376900D02*
X14189900Y-18322100D01*
X14189900Y-18376900D02*
X14189900Y-17373600D01*
D27*
X14189900Y-18376900D02*
X14189900Y-18761900D01*
D28*
X9816500Y-16637000D02*
X9017000Y-16637000D01*
D27*
X14820900Y-19392900D02*
X14189900Y-18761900D01*
X15302500Y-19392900D02*
X14820900Y-19392900D01*
X11912000Y-3963000D02*
X10472500Y-3963000D01*
X12206419Y-3951419D02*
X11912000Y-3963000D01*
X15302500Y-19749500D02*
X14986000Y-20066000D01*
X15302500Y-19392900D02*
X15302500Y-19749500D01*
D29*
X16197500Y-5263000D02*
X14994734Y-5263000D01*
X14994734Y-5263000D02*
X14993294Y-5261560D01*
D27*
X20695500Y-11811000D02*
X22415500Y-11811000D01*
X20273500Y-12233000D02*
X20695500Y-11811000D01*
X19685000Y-21336000D02*
X19685000Y-20473000D01*
%TO.N,Net-(D1-Pad1)*%
X4034000Y-20604000D02*
X3810000Y-20828000D01*
X4034000Y-19436000D02*
X4034000Y-20604000D01*
D29*
%TO.N,Net-(DS2-Pad3)*%
X20312500Y-24219500D02*
X21737000Y-22795000D01*
X20155500Y-24257000D02*
X20155500Y-24137500D01*
%TO.N,Net-(DS2-Pad4)*%
X21737000Y-24195000D02*
X22479000Y-23453000D01*
X22479000Y-21235000D02*
X21717000Y-20473000D01*
X22479000Y-23453000D02*
X22479000Y-21235000D01*
%TO.N,/CC1_RECEP*%
X20709000Y-5600000D02*
X19676934Y-5600000D01*
X17444401Y-5633401D02*
X17399000Y-5588000D01*
X19643533Y-5633401D02*
X17444401Y-5633401D01*
X19676934Y-5600000D02*
X19643533Y-5633401D01*
D30*
X5675000Y-5600000D02*
X6084000Y-5600000D01*
X6084000Y-5600000D02*
X6223000Y-5461000D01*
X9207500Y-5461000D02*
X9271000Y-5524500D01*
X6223000Y-5461000D02*
X9207500Y-5461000D01*
D29*
X11049000Y-10922000D02*
X11288000Y-11161000D01*
X11288000Y-11161000D02*
X11681500Y-11161000D01*
X11049000Y-10350500D02*
X11049000Y-10922000D01*
D27*
%TO.N,/CC2_RECEP*%
X9170000Y-7213000D02*
X9144000Y-7239000D01*
D29*
X10309700Y-12461000D02*
X9781500Y-12461000D01*
X10414000Y-12356700D02*
X10309700Y-12461000D01*
X10414000Y-10350500D02*
X10414000Y-12356700D01*
%TO.N,Net-(Q1-Pad6)*%
X2174000Y-15834000D02*
X2174000Y-15174000D01*
X1625000Y-16383000D02*
X2174000Y-15834000D01*
%TO.N,/CC1_TX_DATA*%
X2682399Y-13827601D02*
X2794000Y-13716000D01*
X1762601Y-13827601D02*
X2682399Y-13827601D01*
X1524000Y-13589000D02*
X1762601Y-13827601D01*
X1524000Y-13274000D02*
X1524000Y-13589000D01*
%TO.N,/CC1_TX_EN*%
X9900946Y-20515554D02*
X9900946Y-21013446D01*
X10083789Y-20332711D02*
X9900946Y-20515554D01*
X10083789Y-18719789D02*
X10083789Y-20332711D01*
X9588500Y-18224500D02*
X10083789Y-18719789D01*
X2556881Y-14620399D02*
X3557482Y-15621000D01*
X9900946Y-21013446D02*
X10477500Y-21590000D01*
X8445500Y-18224500D02*
X9588500Y-18224500D01*
X5842000Y-15621000D02*
X8445500Y-18224500D01*
X3557482Y-15621000D02*
X5842000Y-15621000D01*
X1549401Y-14620399D02*
X2556881Y-14620399D01*
X1524000Y-14645800D02*
X1549401Y-14620399D01*
X1524000Y-15174000D02*
X1524000Y-14645800D01*
%TO.N,Net-(Q1-Pad3)*%
X1521312Y-14290188D02*
X3469188Y-14290188D01*
X3469188Y-14290188D02*
X3492500Y-14313500D01*
X874000Y-13642876D02*
X1521312Y-14290188D01*
X874000Y-13274000D02*
X874000Y-13642876D01*
%TO.N,/CC1*%
X8572500Y-13118500D02*
X7556500Y-13118500D01*
X7556500Y-13118500D02*
X6540500Y-13118500D01*
X6540500Y-13118500D02*
X5524500Y-13118500D01*
X5524500Y-13118500D02*
X4508500Y-13118500D01*
X4508500Y-13118500D02*
X3492500Y-13118500D01*
X2329500Y-13118500D02*
X2174000Y-13274000D01*
X3492500Y-13118500D02*
X2329500Y-13118500D01*
X7926110Y-11250890D02*
X7926110Y-12748890D01*
X9781500Y-11161000D02*
X8016000Y-11161000D01*
X7926110Y-12748890D02*
X7556500Y-13118500D01*
X8016000Y-11161000D02*
X7926110Y-11250890D01*
X10899649Y-13233399D02*
X10989860Y-13323610D01*
X10134601Y-13233399D02*
X10899649Y-13233399D01*
X9779000Y-13589000D02*
X10134601Y-13233399D01*
X9043000Y-13589000D02*
X9779000Y-13589000D01*
X8572500Y-13118500D02*
X9043000Y-13589000D01*
X13850500Y-13533000D02*
X13641110Y-13323610D01*
X16048500Y-13533000D02*
X13850500Y-13533000D01*
X10989860Y-13323610D02*
X13641110Y-13323610D01*
%TO.N,Net-(Q2-Pad6)*%
X10797689Y-16423189D02*
X11011500Y-16637000D01*
X10797689Y-15671439D02*
X10797689Y-16423189D01*
X10444750Y-15318500D02*
X10797689Y-15671439D01*
X9781500Y-15318500D02*
X10444750Y-15318500D01*
%TO.N,/CC2_TX_DATA*%
X14668500Y-14668500D02*
X11681500Y-14668500D01*
X15494000Y-15494000D02*
X14668500Y-14668500D01*
%TO.N,/CC2_TX_EN*%
X10604500Y-14668500D02*
X9781500Y-14668500D01*
X10797689Y-14861689D02*
X10604500Y-14668500D01*
X10797689Y-15188158D02*
X10797689Y-14861689D01*
X11292781Y-15866263D02*
X11127899Y-15701381D01*
X11127899Y-15701381D02*
X11127899Y-15518368D01*
X13970995Y-15866263D02*
X11292781Y-15866263D01*
X11127899Y-15518368D02*
X10797689Y-15188158D01*
X14132613Y-15704645D02*
X13970995Y-15866263D01*
%TO.N,Net-(Q2-Pad3)*%
X12868000Y-14018500D02*
X12954000Y-13932500D01*
X11681500Y-14018500D02*
X12868000Y-14018500D01*
%TO.N,/CC2*%
X10668000Y-13716000D02*
X10829700Y-13716000D01*
X11395018Y-15318500D02*
X11681500Y-15318500D01*
X11127899Y-15051381D02*
X11395018Y-15318500D01*
X11127899Y-14175899D02*
X11127899Y-15051381D01*
X10668000Y-13716000D02*
X11127899Y-14175899D01*
X18478500Y-22632000D02*
X17462500Y-22632000D01*
X17462500Y-22632000D02*
X16446500Y-22632000D01*
X16446500Y-22632000D02*
X15430500Y-22632000D01*
X15430500Y-22632000D02*
X14414500Y-22632000D01*
X11681500Y-12461000D02*
X12334000Y-12461000D01*
X12610500Y-12737500D02*
X12954000Y-12737500D01*
X12334000Y-12461000D02*
X12610500Y-12737500D01*
X11034000Y-12461000D02*
X10795000Y-12700000D01*
X11681500Y-12461000D02*
X11034000Y-12461000D01*
X19027110Y-20471860D02*
X19027110Y-21956390D01*
X18646649Y-20091399D02*
X19027110Y-20471860D01*
X19027110Y-21956390D02*
X18478500Y-22505000D01*
X19939000Y-16557750D02*
X18415000Y-18081750D01*
X19939000Y-14732000D02*
X19939000Y-16557750D01*
X18415000Y-18716513D02*
X18415000Y-18081750D01*
X18033999Y-19787630D02*
X18033999Y-19097514D01*
X18033999Y-19097514D02*
X18415000Y-18716513D01*
X18337768Y-20091399D02*
X18033999Y-19787630D01*
X18646649Y-20091399D02*
X18337768Y-20091399D01*
X20273500Y-14397500D02*
X19939000Y-14732000D01*
X20273500Y-14183000D02*
X20273500Y-14397500D01*
%TO.N,/CC1_EN*%
X8725500Y-11811000D02*
X8535000Y-12001500D01*
X9781500Y-11811000D02*
X8725500Y-11811000D01*
X9121110Y-12837050D02*
X9337588Y-13053528D01*
X9121110Y-12587610D02*
X9121110Y-12837050D01*
X8535000Y-12001500D02*
X9121110Y-12587610D01*
%TO.N,/CC2_EN*%
X12737500Y-11811000D02*
X12864500Y-11684000D01*
X11681500Y-11811000D02*
X12737500Y-11811000D01*
X13843000Y-12662500D02*
X13843000Y-12827000D01*
X12864500Y-11684000D02*
X13843000Y-12662500D01*
%TO.N,/BOOT*%
X19047981Y-19555981D02*
X19356110Y-19864110D01*
X18516600Y-19555981D02*
X19047981Y-19555981D01*
X23897500Y-18584000D02*
X23897500Y-17802000D01*
X22617390Y-19864110D02*
X23897500Y-18584000D01*
X20701000Y-19852720D02*
X20712390Y-19864110D01*
X20701000Y-19278000D02*
X20701000Y-19852720D01*
X20712390Y-19864110D02*
X22617390Y-19864110D01*
X19356110Y-19864110D02*
X20712390Y-19864110D01*
X23897500Y-17802000D02*
X23897500Y-17801500D01*
X23897500Y-17801500D02*
X23431500Y-17335500D01*
X23431500Y-14668000D02*
X23897500Y-14202000D01*
X23431500Y-17335500D02*
X23431500Y-14668000D01*
%TO.N,/LED_R_L*%
X23939500Y-20548000D02*
X23405500Y-21082000D01*
X23939500Y-20383500D02*
X23939500Y-20548000D01*
%TO.N,/LED_G_L*%
X21456710Y-19214500D02*
X21589710Y-19347500D01*
X22124000Y-19278000D02*
X22479000Y-18923000D01*
X21717000Y-19278000D02*
X22124000Y-19278000D01*
%TO.N,/LED_B_L*%
X18923000Y-24219500D02*
X18960500Y-24257000D01*
X18923000Y-23622000D02*
X18923000Y-24219500D01*
%TO.N,/CC1_RP3A0*%
X12827001Y-16382999D02*
X11976133Y-17233867D01*
X8001000Y-15339566D02*
X8572500Y-14768066D01*
X14605000Y-16129000D02*
X14351001Y-16382999D01*
X11976133Y-17233867D02*
X8855831Y-17233867D01*
X8001000Y-16379036D02*
X8001000Y-15339566D01*
X8572500Y-14768066D02*
X8572500Y-14313500D01*
X8855831Y-17233867D02*
X8001000Y-16379036D01*
X14351001Y-16382999D02*
X12827001Y-16382999D01*
%TO.N,/CC1_RA*%
X7556500Y-14313500D02*
X7556500Y-14993905D01*
X7556500Y-14993905D02*
X7576582Y-15013987D01*
%TO.N,/CC1_RP1A5*%
X6540500Y-14313500D02*
X6540500Y-14646985D01*
X6540500Y-14646985D02*
X6893653Y-15000138D01*
%TO.N,/CC1_RD*%
X5524500Y-14313500D02*
X5524500Y-14369524D01*
X5524500Y-14369524D02*
X6277238Y-15122262D01*
X6179054Y-15024078D02*
X6277238Y-15122262D01*
X14010642Y-20035519D02*
X13781288Y-19806165D01*
X12104141Y-19806165D02*
X9862054Y-17564078D01*
X8719054Y-17564078D02*
X6277238Y-15122262D01*
X13781288Y-19806165D02*
X12104141Y-19806165D01*
X9862054Y-17564078D02*
X8719054Y-17564078D01*
%TO.N,/CC1_RPUSB*%
X4508500Y-14160500D02*
X4508500Y-14313500D01*
X5800988Y-15113000D02*
X5308000Y-15113000D01*
X8582277Y-17894289D02*
X5800988Y-15113000D01*
X9725277Y-17894289D02*
X8582277Y-17894289D01*
X10414000Y-18583012D02*
X9725277Y-17894289D01*
X5308000Y-15113000D02*
X4508500Y-14313500D01*
X10414000Y-20711053D02*
X10414000Y-18583012D01*
X10383547Y-20741506D02*
X10414000Y-20711053D01*
%TO.N,/CC2_RP3A0*%
X14414500Y-20637500D02*
X14351000Y-20574000D01*
X14414500Y-21437000D02*
X14414500Y-20637500D01*
%TO.N,/CC2_RA*%
X15430500Y-21272500D02*
X15430500Y-21437000D01*
X15430500Y-20764500D02*
X15621000Y-20574000D01*
X15430500Y-21310000D02*
X15430500Y-20764500D01*
%TO.N,/CC2_RP1A5*%
X16446500Y-20920847D02*
X16793347Y-20574000D01*
X16446500Y-21310000D02*
X16446500Y-20920847D01*
%TO.N,/CC2_RD*%
X17462500Y-20764500D02*
X17653000Y-20574000D01*
X17462500Y-21310000D02*
X17462500Y-20764500D01*
%TO.N,/CC2_RPUSB*%
X18415000Y-21373500D02*
X18478500Y-21437000D01*
X18478500Y-20637500D02*
X18415000Y-20574000D01*
X18478500Y-21310000D02*
X18478500Y-20637500D01*
%TO.N,/INA_SCL*%
X13313210Y-5461000D02*
X12954000Y-5461000D01*
X13589000Y-5185210D02*
X13313210Y-5461000D01*
X13589000Y-4436318D02*
X13589000Y-5185210D01*
X12465682Y-3313000D02*
X13589000Y-4436318D01*
X10472500Y-3313000D02*
X12465682Y-3313000D01*
%TO.N,/INA_SDA*%
X14097000Y-4477332D02*
X14097000Y-4572000D01*
X13716000Y-4096332D02*
X14097000Y-4477332D01*
X13716000Y-3857750D02*
X13716000Y-4096332D01*
X14260750Y-3313000D02*
X13716000Y-3857750D01*
X16197500Y-3313000D02*
X14260750Y-3313000D01*
X14732000Y-10709710D02*
X14732000Y-10350500D01*
X12950388Y-10833101D02*
X14608609Y-10833101D01*
X12826997Y-10709710D02*
X12950388Y-10833101D01*
X14608609Y-10833101D02*
X14732000Y-10709710D01*
X12826997Y-10350500D02*
X12826997Y-10709710D01*
%TO.N,/VCONN_ALERT_L*%
X14376401Y-3911599D02*
X14351000Y-3937000D01*
X16146099Y-3911599D02*
X14376401Y-3911599D01*
X16197500Y-3963000D02*
X16146099Y-3911599D01*
%TO.N,/CC2_BUF*%
X20273500Y-12883000D02*
X20273500Y-13533000D01*
X21265000Y-12883000D02*
X21463000Y-13081000D01*
X20273500Y-12883000D02*
X21265000Y-12883000D01*
%TO.N,/CC1_BUF*%
X16048500Y-12883000D02*
X16048500Y-12233000D01*
X18994000Y-12883000D02*
X19050000Y-12827000D01*
X16048500Y-12883000D02*
X18994000Y-12883000D01*
D31*
%TO.N,/VBUS_PLUG*%
X19433080Y-7747000D02*
X19422316Y-7747000D01*
X19580080Y-7600000D02*
X19433080Y-7747000D01*
X20604000Y-7600000D02*
X19580080Y-7600000D01*
X19387500Y-5100000D02*
X20604000Y-5100000D01*
D29*
%TO.N,/CC2_PLUG*%
X10505401Y-5295901D02*
X10472500Y-5263000D01*
X12395573Y-5295901D02*
X10505401Y-5295901D01*
X12992474Y-4699000D02*
X12395573Y-5295901D01*
X15424500Y-8636000D02*
X16197500Y-7863000D01*
X12672566Y-8636000D02*
X15424500Y-8636000D01*
X12166599Y-7617967D02*
X12166599Y-8130033D01*
X13017500Y-7239000D02*
X12545566Y-7239000D01*
X12166599Y-8130033D02*
X12672566Y-8636000D01*
X12545566Y-7239000D02*
X12166599Y-7617967D01*
D31*
%TO.N,/VBUS_RECEP*%
X5675000Y-5100000D02*
X6584000Y-5100000D01*
D27*
X7206621Y-7855930D02*
X7513431Y-8162740D01*
X7538185Y-4617185D02*
X7466355Y-4617185D01*
D28*
X7466355Y-4617185D02*
X6983540Y-5100000D01*
D27*
X7538185Y-4545355D02*
X7847355Y-4236185D01*
X7919185Y-4164355D02*
X8228355Y-3855185D01*
X8228355Y-3855185D02*
X8300185Y-3855185D01*
X7538185Y-4617185D02*
X7538185Y-4545355D01*
X7206621Y-7784100D02*
X7134791Y-7784100D01*
X7919185Y-4236185D02*
X7919185Y-4164355D01*
X7847355Y-4236185D02*
X7919185Y-4236185D01*
X7513431Y-8162740D02*
X7585260Y-8162740D01*
D28*
X6983540Y-5100000D02*
X6584000Y-5100000D01*
D27*
X7206621Y-7784100D02*
X7206621Y-7855930D01*
D28*
X7022521Y-7600000D02*
X7206621Y-7784100D01*
X5675000Y-7600000D02*
X7022521Y-7600000D01*
D27*
X7585260Y-8234569D02*
X7585260Y-8162740D01*
X8064500Y-8445500D02*
X7894431Y-8543740D01*
X7894431Y-8543740D02*
X7585260Y-8234569D01*
D32*
%TO.N,/RX2+*%
X6071800Y-8553200D02*
X6233830Y-8553200D01*
X6025000Y-8600000D02*
X6071800Y-8553200D01*
X5675000Y-8600000D02*
X6025000Y-8600000D01*
X6233830Y-8553200D02*
X7281830Y-9601200D01*
X7281830Y-9601200D02*
X19007170Y-9601200D01*
X20339999Y-8600000D02*
X21090000Y-8600000D01*
X20293199Y-8553200D02*
X20339999Y-8600000D01*
X20055170Y-8553200D02*
X20293199Y-8553200D01*
X19007170Y-9601200D02*
X20055170Y-8553200D01*
%TO.N,/RX2-*%
X6071800Y-8146800D02*
X6402170Y-8146800D01*
X6025000Y-8100000D02*
X6071800Y-8146800D01*
X5675000Y-8100000D02*
X6025000Y-8100000D01*
X6402170Y-8146800D02*
X7450170Y-9194800D01*
X7450170Y-9194800D02*
X18838830Y-9194800D01*
X20339999Y-8100000D02*
X21090000Y-8100000D01*
X20293199Y-8146800D02*
X20339999Y-8100000D01*
X19886830Y-8146800D02*
X20293199Y-8146800D01*
X18838830Y-9194800D02*
X19886830Y-8146800D01*
D29*
%TO.N,/SBU1*%
X14083370Y-7434390D02*
X13850496Y-7201516D01*
X17394110Y-7434390D02*
X14083370Y-7434390D01*
X17738379Y-7090121D02*
X17394110Y-7434390D01*
X20699121Y-7090121D02*
X17738379Y-7090121D01*
X20709000Y-7100000D02*
X20699121Y-7090121D01*
X7311955Y-7100000D02*
X5675000Y-7100000D01*
X8085955Y-7874000D02*
X7311955Y-7100000D01*
X11239500Y-7874000D02*
X8085955Y-7874000D01*
X11747500Y-8382000D02*
X11239500Y-7874000D01*
D32*
%TO.N,/USBC_D-*%
X6458443Y-6600000D02*
X6784653Y-6273790D01*
X5675000Y-6600000D02*
X6458443Y-6600000D01*
X14266830Y-6489700D02*
X7000563Y-6489700D01*
X14774830Y-6997700D02*
X14266830Y-6489700D01*
X17165670Y-6997700D02*
X14774830Y-6997700D01*
X7000563Y-6489700D02*
X6784653Y-6273790D01*
X20289200Y-6553200D02*
X17610170Y-6553200D01*
X20336000Y-6600000D02*
X20289200Y-6553200D01*
X21090000Y-6600000D02*
X20336000Y-6600000D01*
X17610170Y-6553200D02*
X17165670Y-6997700D01*
D31*
%TO.N,/USBC_D+*%
X5698940Y-6123940D02*
X5675000Y-6100000D01*
D32*
X7130519Y-5787397D02*
X7350212Y-6007090D01*
X6556796Y-5787397D02*
X7130519Y-5787397D01*
X6244193Y-6100000D02*
X6556796Y-5787397D01*
X5675000Y-6100000D02*
X6244193Y-6100000D01*
X7426422Y-6083300D02*
X7350212Y-6007090D01*
X14943170Y-6591300D02*
X14435170Y-6083300D01*
X16997330Y-6591300D02*
X14943170Y-6591300D01*
X14435170Y-6083300D02*
X7426422Y-6083300D01*
X17488630Y-6100000D02*
X16997330Y-6591300D01*
X21090000Y-6100000D02*
X17488630Y-6100000D01*
%TO.N,/TX1-*%
X20293199Y-4553200D02*
X20013830Y-4553200D01*
X20339999Y-4600000D02*
X20293199Y-4553200D01*
X21090000Y-4600000D02*
X20339999Y-4600000D01*
X20013830Y-4553200D02*
X18910300Y-3449670D01*
X18203830Y-2108200D02*
X18910300Y-2814670D01*
X8212170Y-2108200D02*
X18203830Y-2108200D01*
X7696200Y-2624170D02*
X8212170Y-2108200D01*
X6529170Y-4553200D02*
X7696200Y-3386170D01*
X6071800Y-4553200D02*
X6529170Y-4553200D01*
X6025000Y-4600000D02*
X6071800Y-4553200D01*
X7696200Y-3386170D02*
X7696200Y-2624170D01*
X5675000Y-4600000D02*
X6025000Y-4600000D01*
X18910300Y-3449670D02*
X18910300Y-2814670D01*
%TO.N,/TX1+*%
X20293199Y-4146800D02*
X20182170Y-4146800D01*
X20339999Y-4100000D02*
X20293199Y-4146800D01*
X21090000Y-4100000D02*
X20339999Y-4100000D01*
X20182170Y-4146800D02*
X19316700Y-3281330D01*
X18372170Y-1701800D02*
X19316700Y-2646330D01*
X8043830Y-1701800D02*
X18372170Y-1701800D01*
X7289800Y-2455830D02*
X8043830Y-1701800D01*
X7289800Y-3217830D02*
X7289800Y-2455830D01*
X6360830Y-4146800D02*
X7289800Y-3217830D01*
X6071800Y-4146800D02*
X6360830Y-4146800D01*
X6025000Y-4100000D02*
X6071800Y-4146800D01*
X5675000Y-4100000D02*
X6025000Y-4100000D01*
X19316700Y-3281330D02*
X19316700Y-2646330D01*
D31*
%TO.N,/USB_B_D+*%
X14648940Y-23497540D02*
X14519400Y-23368000D01*
X14648940Y-23829862D02*
X14648940Y-23497540D01*
X13876362Y-24602440D02*
X14648940Y-23829862D01*
X7269138Y-24602440D02*
X13876362Y-24602440D01*
X6437627Y-23770929D02*
X7269138Y-24602440D01*
X6395740Y-23718405D02*
X6437627Y-23770929D01*
X6366592Y-23657879D02*
X6395740Y-23718405D01*
X6351644Y-23592386D02*
X6366592Y-23657879D01*
X6351643Y-23525206D02*
X6351644Y-23592386D01*
X6366593Y-23459713D02*
X6351643Y-23525206D01*
X6296204Y-22639557D02*
X6348727Y-22597672D01*
X5900313Y-22993432D02*
X5960840Y-22964286D01*
X5960840Y-22964286D02*
X6013363Y-22922401D01*
X6541926Y-22553575D02*
X6607421Y-22568525D01*
X5834820Y-23008382D02*
X5900313Y-22993432D01*
X5641620Y-22964285D02*
X5702147Y-22993433D01*
X6013363Y-22922401D02*
X6296204Y-22639557D01*
X6720468Y-23063821D02*
X6437626Y-23346664D01*
X5235060Y-22568362D02*
X5589099Y-22922401D01*
X5589099Y-22922401D02*
X5641620Y-22964285D01*
X5235060Y-20509941D02*
X5235060Y-22568362D01*
X6474748Y-22553576D02*
X6541926Y-22553575D01*
X5702147Y-22993433D02*
X5767640Y-23008381D01*
X6409253Y-22568524D02*
X6474748Y-22553576D01*
X5334000Y-20411001D02*
X5235060Y-20509941D01*
X6762353Y-23011298D02*
X6720468Y-23063821D01*
X5334000Y-19436000D02*
X5334000Y-20411001D01*
X6348727Y-22597672D02*
X6409253Y-22568524D01*
X6607421Y-22568525D02*
X6667947Y-22597673D01*
X6395741Y-23399187D02*
X6366593Y-23459713D01*
X6667947Y-22597673D02*
X6720468Y-22639557D01*
X6720468Y-22639557D02*
X6762354Y-22692080D01*
X6762354Y-22692080D02*
X6791500Y-22752605D01*
X6791500Y-22752605D02*
X6806450Y-22818100D01*
X6806450Y-22818100D02*
X6806449Y-22885278D01*
X6806449Y-22885278D02*
X6791501Y-22950773D01*
X5767640Y-23008381D02*
X5834820Y-23008382D01*
X6791501Y-22950773D02*
X6762353Y-23011298D01*
X6437626Y-23346664D02*
X6395741Y-23399187D01*
%TO.N,/USB_B_D-*%
X15230600Y-23368000D02*
X15101060Y-23497540D01*
X15101060Y-23497540D02*
X15101060Y-24017138D01*
X15101060Y-24017138D02*
X14063638Y-25054560D01*
X14063638Y-25054560D02*
X7081862Y-25054560D01*
X4684000Y-20411001D02*
X4684000Y-19436000D01*
X4782940Y-20509941D02*
X4684000Y-20411001D01*
X7081862Y-25054560D02*
X4782940Y-22755638D01*
X4782940Y-22755638D02*
X4782940Y-20509941D01*
D29*
%TO.N,Net-(DS2-Pad1)*%
X24965601Y-23466399D02*
X24237000Y-24195000D01*
X24965601Y-21447101D02*
X24965601Y-23466399D01*
X24600500Y-21082000D02*
X24965601Y-21447101D01*
D27*
%TO.N,Net-(C5-Pad1)*%
X17306100Y-17872900D02*
X17272000Y-17907000D01*
X17560100Y-17872900D02*
X17306100Y-17872900D01*
X17560100Y-18376900D02*
X17560100Y-17872900D01*
X17560100Y-17872900D02*
X17560100Y-17373600D01*
X17653000Y-16256000D02*
X17018000Y-15621000D01*
X17653000Y-17280700D02*
X17653000Y-16256000D01*
X17560100Y-17373600D02*
X17653000Y-17280700D01*
X16447500Y-19392900D02*
X17056100Y-19392900D01*
X17560100Y-18888900D02*
X17560100Y-18376900D01*
X17056100Y-19392900D02*
X17560100Y-18888900D01*
%TO.N,Net-(R24-Pad2)*%
X22415500Y-14160000D02*
X22457500Y-14202000D01*
D29*
X19685000Y-19214500D02*
X19685000Y-18986500D01*
X19685000Y-19278000D02*
X19685000Y-18986500D01*
X19685000Y-18986500D02*
X20129500Y-18542000D01*
X21717500Y-18542000D02*
X22457500Y-17802000D01*
X20129500Y-18542000D02*
X21717500Y-18542000D01*
X22457500Y-17802000D02*
X22457500Y-17738000D01*
X22457500Y-17738000D02*
X22923500Y-17272000D01*
X22923500Y-14668000D02*
X22457500Y-14202000D01*
X22923500Y-17272000D02*
X22923500Y-14668000D01*
%TD*%
D32*
%TO.N,GND*%
X355678Y-15711696D02*
X403289Y-15769711D01*
X461304Y-15817322D01*
X527492Y-15852701D01*
X599311Y-15874487D01*
X674000Y-15881843D01*
X705750Y-15880000D01*
X746998Y-15838752D01*
X746998Y-15880000D01*
X859993Y-15880000D01*
X843794Y-15893294D01*
X785807Y-15963952D01*
X742719Y-16044565D01*
X716185Y-16132034D01*
X707226Y-16223000D01*
X707226Y-16543000D01*
X716185Y-16633966D01*
X742719Y-16721435D01*
X785807Y-16802048D01*
X843794Y-16872706D01*
X914452Y-16930693D01*
X995065Y-16973781D01*
X1082534Y-17000315D01*
X1173500Y-17009274D01*
X1568500Y-17009274D01*
X1659466Y-17000315D01*
X1746935Y-16973781D01*
X1827548Y-16930693D01*
X1898206Y-16872706D01*
X1956193Y-16802048D01*
X1968500Y-16779023D01*
X1980807Y-16802048D01*
X2038794Y-16872706D01*
X2109452Y-16930693D01*
X2190065Y-16973781D01*
X2277534Y-17000315D01*
X2368500Y-17009274D01*
X2763500Y-17009274D01*
X2854466Y-17000315D01*
X2941935Y-16973781D01*
X3022548Y-16930693D01*
X3093206Y-16872706D01*
X3140728Y-16814800D01*
X5075472Y-16814800D01*
X5047779Y-16856246D01*
X5001826Y-16967186D01*
X4978400Y-17084960D01*
X4978400Y-17205040D01*
X5001826Y-17322814D01*
X5047779Y-17433754D01*
X5114492Y-17533598D01*
X5199402Y-17618508D01*
X5299246Y-17685221D01*
X5410186Y-17731174D01*
X5527960Y-17754600D01*
X5648040Y-17754600D01*
X5765814Y-17731174D01*
X5876754Y-17685221D01*
X5976598Y-17618508D01*
X6061508Y-17533598D01*
X6128221Y-17433754D01*
X6174174Y-17322814D01*
X6197600Y-17205040D01*
X6197600Y-17084960D01*
X6174174Y-16967186D01*
X6128221Y-16856246D01*
X6061508Y-16756402D01*
X6005606Y-16700500D01*
X6061508Y-16644598D01*
X6128221Y-16544754D01*
X6146614Y-16500350D01*
X8144023Y-18497760D01*
X8156742Y-18513258D01*
X8172240Y-18525977D01*
X8172245Y-18525982D01*
X8180835Y-18533031D01*
X8085790Y-18670419D01*
X7999028Y-18870670D01*
X7953000Y-19084000D01*
X7953000Y-19359000D01*
X8932000Y-19359000D01*
X8932000Y-19339000D01*
X9186000Y-19339000D01*
X9186000Y-19359000D01*
X9206000Y-19359000D01*
X9206000Y-19613000D01*
X9186000Y-19613000D01*
X9186000Y-20763740D01*
X9356308Y-20826290D01*
X9494547Y-20777199D01*
X9494547Y-20993484D01*
X9492581Y-21013446D01*
X9500427Y-21093114D01*
X9523665Y-21169720D01*
X9541232Y-21202584D01*
X9561403Y-21240322D01*
X9571431Y-21252541D01*
X9599464Y-21286700D01*
X9599470Y-21286706D01*
X9612189Y-21302204D01*
X9627687Y-21314923D01*
X9918700Y-21605936D01*
X9918700Y-21645037D01*
X9940174Y-21752996D01*
X9982298Y-21854691D01*
X10043452Y-21946214D01*
X10121286Y-22024048D01*
X10212809Y-22085202D01*
X10314504Y-22127326D01*
X10422463Y-22148800D01*
X10532537Y-22148800D01*
X10640496Y-22127326D01*
X10742191Y-22085202D01*
X10806906Y-22041960D01*
X11832400Y-22041960D01*
X11832400Y-22162040D01*
X11855826Y-22279814D01*
X11901779Y-22390754D01*
X11968492Y-22490598D01*
X12053402Y-22575508D01*
X12153246Y-22642221D01*
X12264186Y-22688174D01*
X12381960Y-22711600D01*
X12502040Y-22711600D01*
X12619814Y-22688174D01*
X12730754Y-22642221D01*
X12830598Y-22575508D01*
X12915508Y-22490598D01*
X12982221Y-22390754D01*
X13028174Y-22279814D01*
X13051600Y-22162040D01*
X13051600Y-22041960D01*
X13028174Y-21924186D01*
X12982221Y-21813246D01*
X12915508Y-21713402D01*
X12830598Y-21628492D01*
X12730754Y-21561779D01*
X12619814Y-21515826D01*
X12502040Y-21492400D01*
X12381960Y-21492400D01*
X12264186Y-21515826D01*
X12153246Y-21561779D01*
X12053402Y-21628492D01*
X11968492Y-21713402D01*
X11901779Y-21813246D01*
X11855826Y-21924186D01*
X11832400Y-22041960D01*
X10806906Y-22041960D01*
X10833714Y-22024048D01*
X10911548Y-21946214D01*
X10972702Y-21854691D01*
X11014826Y-21752996D01*
X11036300Y-21645037D01*
X11036300Y-21534963D01*
X11014826Y-21427004D01*
X10972702Y-21325309D01*
X10911548Y-21233786D01*
X10833714Y-21155952D01*
X10789144Y-21126171D01*
X10817595Y-21097720D01*
X10878749Y-21006197D01*
X10920873Y-20904502D01*
X10942347Y-20796543D01*
X10942347Y-20686469D01*
X10920873Y-20578510D01*
X10878749Y-20476815D01*
X10820400Y-20389490D01*
X10820400Y-19097161D01*
X11802664Y-20079425D01*
X11815383Y-20094923D01*
X11830881Y-20107642D01*
X11830886Y-20107647D01*
X11851887Y-20124882D01*
X11877265Y-20145709D01*
X11934753Y-20176437D01*
X11947866Y-20183446D01*
X12024472Y-20206684D01*
X12031745Y-20207400D01*
X12084181Y-20212565D01*
X12084188Y-20212565D01*
X12104141Y-20214530D01*
X12124094Y-20212565D01*
X13479136Y-20212565D01*
X13515440Y-20300210D01*
X13576594Y-20391733D01*
X13654428Y-20469567D01*
X13745951Y-20530721D01*
X13792200Y-20549878D01*
X13792200Y-20629037D01*
X13813674Y-20736996D01*
X13855798Y-20838691D01*
X13866298Y-20854405D01*
X13823719Y-20934065D01*
X13797185Y-21021534D01*
X13788226Y-21112500D01*
X13788226Y-21507500D01*
X13797185Y-21598466D01*
X13823719Y-21685935D01*
X13866807Y-21766548D01*
X13924794Y-21837206D01*
X13995452Y-21895193D01*
X14018477Y-21907500D01*
X13995452Y-21919807D01*
X13924794Y-21977794D01*
X13866807Y-22048452D01*
X13823719Y-22129065D01*
X13797185Y-22216534D01*
X13788226Y-22307500D01*
X13788226Y-22702500D01*
X13797185Y-22793466D01*
X13823719Y-22880935D01*
X13866807Y-22961548D01*
X13924794Y-23032206D01*
X13995452Y-23090193D01*
X14023435Y-23105150D01*
X13982074Y-23205004D01*
X13960600Y-23312963D01*
X13960600Y-23423037D01*
X13982074Y-23530996D01*
X14024198Y-23632691D01*
X14085352Y-23724214D01*
X14116438Y-23755300D01*
X13698557Y-24173180D01*
X9986876Y-24173180D01*
X10043628Y-24094178D01*
X10121854Y-23922066D01*
X10165000Y-23738000D01*
X10165000Y-23413000D01*
X9336000Y-23413000D01*
X9336000Y-23433000D01*
X9082000Y-23433000D01*
X9082000Y-23413000D01*
X8253000Y-23413000D01*
X8253000Y-23738000D01*
X8296146Y-23922066D01*
X8374372Y-24094178D01*
X8431124Y-24173180D01*
X7446944Y-24173180D01*
X6832558Y-23558795D01*
X6996252Y-23395101D01*
X6998757Y-23393376D01*
X7026145Y-23365208D01*
X7038912Y-23352441D01*
X7040825Y-23350110D01*
X7042931Y-23347944D01*
X7054205Y-23333807D01*
X7079112Y-23303458D01*
X7080545Y-23300777D01*
X7088578Y-23290704D01*
X7106993Y-23270671D01*
X7125852Y-23239702D01*
X7145574Y-23209270D01*
X7155635Y-23183982D01*
X7171720Y-23150582D01*
X7185220Y-23126945D01*
X7196710Y-23092566D01*
X7209165Y-23058514D01*
X7213350Y-23031606D01*
X7221595Y-22995478D01*
X7229496Y-22969434D01*
X7233051Y-22933346D01*
X7237616Y-22897371D01*
X7235709Y-22870222D01*
X7235709Y-22834000D01*
X8253000Y-22834000D01*
X8253000Y-23159000D01*
X9082000Y-23159000D01*
X9082000Y-22109671D01*
X9336000Y-22109671D01*
X9336000Y-23159000D01*
X10165000Y-23159000D01*
X10165000Y-22834000D01*
X10121854Y-22649934D01*
X10043628Y-22477822D01*
X9933328Y-22324278D01*
X9795192Y-22195203D01*
X9634529Y-22095557D01*
X9482662Y-22045006D01*
X9336000Y-22109671D01*
X9082000Y-22109671D01*
X8935338Y-22045006D01*
X8783471Y-22095557D01*
X8622808Y-22195203D01*
X8484672Y-22324278D01*
X8374372Y-22477822D01*
X8296146Y-22649934D01*
X8253000Y-22834000D01*
X7235709Y-22834000D01*
X7235709Y-22833158D01*
X7237617Y-22805995D01*
X7233053Y-22770042D01*
X7229500Y-22733957D01*
X7221595Y-22707896D01*
X7213348Y-22671767D01*
X7209167Y-22644875D01*
X7196714Y-22610824D01*
X7185214Y-22576421D01*
X7171714Y-22552786D01*
X7155639Y-22519404D01*
X7145573Y-22494104D01*
X7125853Y-22463676D01*
X7107001Y-22432716D01*
X7088573Y-22412668D01*
X7065466Y-22383693D01*
X7050025Y-22361271D01*
X7024019Y-22335984D01*
X6998753Y-22309999D01*
X6976338Y-22294563D01*
X6947354Y-22271449D01*
X6927318Y-22253032D01*
X6896355Y-22234177D01*
X6865922Y-22214454D01*
X6840632Y-22204392D01*
X6807234Y-22188308D01*
X6783605Y-22174812D01*
X6749225Y-22163320D01*
X6715159Y-22150861D01*
X6688264Y-22146678D01*
X6652131Y-22138430D01*
X6626069Y-22130525D01*
X6589985Y-22126972D01*
X6554030Y-22122408D01*
X6526868Y-22124316D01*
X6489804Y-22124316D01*
X6462655Y-22122409D01*
X6426680Y-22126974D01*
X6390592Y-22130529D01*
X6364548Y-22138430D01*
X6328423Y-22146675D01*
X6301515Y-22150859D01*
X6267456Y-22163316D01*
X6233081Y-22174805D01*
X6209444Y-22188305D01*
X6176048Y-22204388D01*
X6150755Y-22214451D01*
X6120308Y-22234183D01*
X6089356Y-22253031D01*
X6069322Y-22271446D01*
X6059246Y-22279481D01*
X6056564Y-22280915D01*
X6026220Y-22305819D01*
X6012081Y-22317094D01*
X6009913Y-22319202D01*
X6007582Y-22321115D01*
X5994823Y-22333874D01*
X5966649Y-22361268D01*
X5964923Y-22363775D01*
X5801231Y-22527468D01*
X5664320Y-22390557D01*
X5664320Y-20685151D01*
X5692644Y-20650639D01*
X5732503Y-20576067D01*
X5749826Y-20518963D01*
X5757049Y-20495152D01*
X5758855Y-20476815D01*
X5763260Y-20432089D01*
X5763260Y-20432083D01*
X5765336Y-20411002D01*
X5763492Y-20392274D01*
X6181623Y-20392274D01*
X6196304Y-20404322D01*
X6262492Y-20439701D01*
X6334311Y-20461487D01*
X6409000Y-20468843D01*
X6440750Y-20467000D01*
X6536000Y-20371750D01*
X6536000Y-19563000D01*
X6732000Y-19563000D01*
X6732000Y-20371750D01*
X6827250Y-20467000D01*
X6859000Y-20468843D01*
X6933689Y-20461487D01*
X7005508Y-20439701D01*
X7071696Y-20404322D01*
X7129711Y-20356711D01*
X7161376Y-20318127D01*
X7156285Y-20330417D01*
X7129200Y-20466583D01*
X7129200Y-20605417D01*
X7156285Y-20741583D01*
X7209415Y-20869848D01*
X7286546Y-20985284D01*
X7384716Y-21083454D01*
X7500152Y-21160585D01*
X7628417Y-21213715D01*
X7764583Y-21240800D01*
X7903417Y-21240800D01*
X8039583Y-21213715D01*
X8167848Y-21160585D01*
X8283284Y-21083454D01*
X8381454Y-20985284D01*
X8458585Y-20869848D01*
X8511715Y-20741583D01*
X8514395Y-20728108D01*
X8550137Y-20751163D01*
X8761692Y-20826290D01*
X8932000Y-20763740D01*
X8932000Y-19613000D01*
X7953000Y-19613000D01*
X7953000Y-19841063D01*
X7903417Y-19831200D01*
X7764583Y-19831200D01*
X7628417Y-19858285D01*
X7500152Y-19911415D01*
X7384716Y-19988546D01*
X7286546Y-20086716D01*
X7232298Y-20167904D01*
X7234487Y-20160689D01*
X7241843Y-20086000D01*
X7240000Y-19658250D01*
X7144750Y-19563000D01*
X6732000Y-19563000D01*
X6536000Y-19563000D01*
X6515274Y-19563000D01*
X6515274Y-19309000D01*
X6536000Y-19309000D01*
X6536000Y-18500250D01*
X6732000Y-18500250D01*
X6732000Y-19309000D01*
X7144750Y-19309000D01*
X7240000Y-19213750D01*
X7241843Y-18786000D01*
X7234487Y-18711311D01*
X7212701Y-18639492D01*
X7177322Y-18573304D01*
X7129711Y-18515289D01*
X7071696Y-18467678D01*
X7005508Y-18432299D01*
X6933689Y-18410513D01*
X6859000Y-18403157D01*
X6827250Y-18405000D01*
X6732000Y-18500250D01*
X6536000Y-18500250D01*
X6440750Y-18405000D01*
X6409000Y-18403157D01*
X6334311Y-18410513D01*
X6262492Y-18432299D01*
X6196304Y-18467678D01*
X6181623Y-18479726D01*
X5759000Y-18479726D01*
X5699249Y-18485611D01*
X5659000Y-18497821D01*
X5618751Y-18485611D01*
X5559000Y-18479726D01*
X5109000Y-18479726D01*
X5049249Y-18485611D01*
X5009000Y-18497821D01*
X4968751Y-18485611D01*
X4909000Y-18479726D01*
X4459000Y-18479726D01*
X4399249Y-18485611D01*
X4359000Y-18497821D01*
X4318751Y-18485611D01*
X4259000Y-18479726D01*
X3809000Y-18479726D01*
X3749249Y-18485611D01*
X3691794Y-18503040D01*
X3638843Y-18531342D01*
X3592432Y-18569432D01*
X3554342Y-18615843D01*
X3526040Y-18668794D01*
X3508611Y-18726249D01*
X3502726Y-18786000D01*
X3502726Y-19262372D01*
X3483286Y-19326457D01*
X3475200Y-19408557D01*
X3475201Y-20242265D01*
X3458585Y-20202152D01*
X3381454Y-20086716D01*
X3283284Y-19988546D01*
X3167848Y-19911415D01*
X3039583Y-19858285D01*
X2903417Y-19831200D01*
X2764583Y-19831200D01*
X2715000Y-19841063D01*
X2715000Y-19613000D01*
X1736000Y-19613000D01*
X1736000Y-20763740D01*
X1906308Y-20826290D01*
X2117863Y-20751163D01*
X2153605Y-20728108D01*
X2156285Y-20741583D01*
X2209415Y-20869848D01*
X2286546Y-20985284D01*
X2384716Y-21083454D01*
X2500152Y-21160585D01*
X2628417Y-21213715D01*
X2764583Y-21240800D01*
X2903417Y-21240800D01*
X3039583Y-21213715D01*
X3167848Y-21160585D01*
X3261903Y-21097740D01*
X3269779Y-21116754D01*
X3336492Y-21216598D01*
X3421402Y-21301508D01*
X3521246Y-21368221D01*
X3632186Y-21414174D01*
X3749960Y-21437600D01*
X3870040Y-21437600D01*
X3987814Y-21414174D01*
X4098754Y-21368221D01*
X4198598Y-21301508D01*
X4283508Y-21216598D01*
X4350221Y-21116754D01*
X4353681Y-21108402D01*
X4353680Y-22734557D01*
X4351604Y-22755638D01*
X4353680Y-22776718D01*
X4353680Y-22776725D01*
X4359891Y-22839787D01*
X4384437Y-22920703D01*
X4424296Y-22995275D01*
X4477939Y-23060639D01*
X4494319Y-23074082D01*
X6490437Y-25070200D01*
X329800Y-25070200D01*
X329800Y-23413000D01*
X503000Y-23413000D01*
X503000Y-23738000D01*
X546146Y-23922066D01*
X624372Y-24094178D01*
X734672Y-24247722D01*
X872808Y-24376797D01*
X1033471Y-24476443D01*
X1185338Y-24526994D01*
X1332000Y-24462329D01*
X1332000Y-23413000D01*
X1586000Y-23413000D01*
X1586000Y-24462329D01*
X1732662Y-24526994D01*
X1884529Y-24476443D01*
X2045192Y-24376797D01*
X2183328Y-24247722D01*
X2293628Y-24094178D01*
X2371854Y-23922066D01*
X2415000Y-23738000D01*
X2415000Y-23413000D01*
X1586000Y-23413000D01*
X1332000Y-23413000D01*
X503000Y-23413000D01*
X329800Y-23413000D01*
X329800Y-22834000D01*
X503000Y-22834000D01*
X503000Y-23159000D01*
X1332000Y-23159000D01*
X1332000Y-22109671D01*
X1586000Y-22109671D01*
X1586000Y-23159000D01*
X2415000Y-23159000D01*
X2415000Y-22834000D01*
X2371854Y-22649934D01*
X2293628Y-22477822D01*
X2183328Y-22324278D01*
X2045192Y-22195203D01*
X1884529Y-22095557D01*
X1732662Y-22045006D01*
X1586000Y-22109671D01*
X1332000Y-22109671D01*
X1185338Y-22045006D01*
X1033471Y-22095557D01*
X872808Y-22195203D01*
X734672Y-22324278D01*
X624372Y-22477822D01*
X546146Y-22649934D01*
X503000Y-22834000D01*
X329800Y-22834000D01*
X329800Y-19613000D01*
X503000Y-19613000D01*
X503000Y-19888000D01*
X549028Y-20101330D01*
X635790Y-20301581D01*
X759952Y-20481058D01*
X916743Y-20632863D01*
X1100137Y-20751163D01*
X1311692Y-20826290D01*
X1482000Y-20763740D01*
X1482000Y-19613000D01*
X503000Y-19613000D01*
X329800Y-19613000D01*
X329800Y-19084000D01*
X503000Y-19084000D01*
X503000Y-19359000D01*
X1482000Y-19359000D01*
X1482000Y-18208260D01*
X1736000Y-18208260D01*
X1736000Y-19359000D01*
X2715000Y-19359000D01*
X2715000Y-19084000D01*
X2668972Y-18870670D01*
X2582210Y-18670419D01*
X2458048Y-18490942D01*
X2301257Y-18339137D01*
X2117863Y-18220837D01*
X1906308Y-18145710D01*
X1736000Y-18208260D01*
X1482000Y-18208260D01*
X1311692Y-18145710D01*
X1100137Y-18220837D01*
X916743Y-18339137D01*
X759952Y-18490942D01*
X635790Y-18670419D01*
X549028Y-18870670D01*
X503000Y-19084000D01*
X329800Y-19084000D01*
X329800Y-15663283D01*
X355678Y-15711696D01*
%TA.AperFunction,Conductor*%
D33*
G36*
X355678Y-15711696D02*
G01*
X403289Y-15769711D01*
X461304Y-15817322D01*
X527492Y-15852701D01*
X599311Y-15874487D01*
X674000Y-15881843D01*
X705750Y-15880000D01*
X746998Y-15838752D01*
X746998Y-15880000D01*
X859993Y-15880000D01*
X843794Y-15893294D01*
X785807Y-15963952D01*
X742719Y-16044565D01*
X716185Y-16132034D01*
X707226Y-16223000D01*
X707226Y-16543000D01*
X716185Y-16633966D01*
X742719Y-16721435D01*
X785807Y-16802048D01*
X843794Y-16872706D01*
X914452Y-16930693D01*
X995065Y-16973781D01*
X1082534Y-17000315D01*
X1173500Y-17009274D01*
X1568500Y-17009274D01*
X1659466Y-17000315D01*
X1746935Y-16973781D01*
X1827548Y-16930693D01*
X1898206Y-16872706D01*
X1956193Y-16802048D01*
X1968500Y-16779023D01*
X1980807Y-16802048D01*
X2038794Y-16872706D01*
X2109452Y-16930693D01*
X2190065Y-16973781D01*
X2277534Y-17000315D01*
X2368500Y-17009274D01*
X2763500Y-17009274D01*
X2854466Y-17000315D01*
X2941935Y-16973781D01*
X3022548Y-16930693D01*
X3093206Y-16872706D01*
X3140728Y-16814800D01*
X5075472Y-16814800D01*
X5047779Y-16856246D01*
X5001826Y-16967186D01*
X4978400Y-17084960D01*
X4978400Y-17205040D01*
X5001826Y-17322814D01*
X5047779Y-17433754D01*
X5114492Y-17533598D01*
X5199402Y-17618508D01*
X5299246Y-17685221D01*
X5410186Y-17731174D01*
X5527960Y-17754600D01*
X5648040Y-17754600D01*
X5765814Y-17731174D01*
X5876754Y-17685221D01*
X5976598Y-17618508D01*
X6061508Y-17533598D01*
X6128221Y-17433754D01*
X6174174Y-17322814D01*
X6197600Y-17205040D01*
X6197600Y-17084960D01*
X6174174Y-16967186D01*
X6128221Y-16856246D01*
X6061508Y-16756402D01*
X6005606Y-16700500D01*
X6061508Y-16644598D01*
X6128221Y-16544754D01*
X6146614Y-16500350D01*
X8144023Y-18497760D01*
X8156742Y-18513258D01*
X8172240Y-18525977D01*
X8172245Y-18525982D01*
X8180835Y-18533031D01*
X8085790Y-18670419D01*
X7999028Y-18870670D01*
X7953000Y-19084000D01*
X7953000Y-19359000D01*
X8932000Y-19359000D01*
X8932000Y-19339000D01*
X9186000Y-19339000D01*
X9186000Y-19359000D01*
X9206000Y-19359000D01*
X9206000Y-19613000D01*
X9186000Y-19613000D01*
X9186000Y-20763740D01*
X9356308Y-20826290D01*
X9494547Y-20777199D01*
X9494547Y-20993484D01*
X9492581Y-21013446D01*
X9500427Y-21093114D01*
X9523665Y-21169720D01*
X9541232Y-21202584D01*
X9561403Y-21240322D01*
X9571431Y-21252541D01*
X9599464Y-21286700D01*
X9599470Y-21286706D01*
X9612189Y-21302204D01*
X9627687Y-21314923D01*
X9918700Y-21605936D01*
X9918700Y-21645037D01*
X9940174Y-21752996D01*
X9982298Y-21854691D01*
X10043452Y-21946214D01*
X10121286Y-22024048D01*
X10212809Y-22085202D01*
X10314504Y-22127326D01*
X10422463Y-22148800D01*
X10532537Y-22148800D01*
X10640496Y-22127326D01*
X10742191Y-22085202D01*
X10806906Y-22041960D01*
X11832400Y-22041960D01*
X11832400Y-22162040D01*
X11855826Y-22279814D01*
X11901779Y-22390754D01*
X11968492Y-22490598D01*
X12053402Y-22575508D01*
X12153246Y-22642221D01*
X12264186Y-22688174D01*
X12381960Y-22711600D01*
X12502040Y-22711600D01*
X12619814Y-22688174D01*
X12730754Y-22642221D01*
X12830598Y-22575508D01*
X12915508Y-22490598D01*
X12982221Y-22390754D01*
X13028174Y-22279814D01*
X13051600Y-22162040D01*
X13051600Y-22041960D01*
X13028174Y-21924186D01*
X12982221Y-21813246D01*
X12915508Y-21713402D01*
X12830598Y-21628492D01*
X12730754Y-21561779D01*
X12619814Y-21515826D01*
X12502040Y-21492400D01*
X12381960Y-21492400D01*
X12264186Y-21515826D01*
X12153246Y-21561779D01*
X12053402Y-21628492D01*
X11968492Y-21713402D01*
X11901779Y-21813246D01*
X11855826Y-21924186D01*
X11832400Y-22041960D01*
X10806906Y-22041960D01*
X10833714Y-22024048D01*
X10911548Y-21946214D01*
X10972702Y-21854691D01*
X11014826Y-21752996D01*
X11036300Y-21645037D01*
X11036300Y-21534963D01*
X11014826Y-21427004D01*
X10972702Y-21325309D01*
X10911548Y-21233786D01*
X10833714Y-21155952D01*
X10789144Y-21126171D01*
X10817595Y-21097720D01*
X10878749Y-21006197D01*
X10920873Y-20904502D01*
X10942347Y-20796543D01*
X10942347Y-20686469D01*
X10920873Y-20578510D01*
X10878749Y-20476815D01*
X10820400Y-20389490D01*
X10820400Y-19097161D01*
X11802664Y-20079425D01*
X11815383Y-20094923D01*
X11830881Y-20107642D01*
X11830886Y-20107647D01*
X11851887Y-20124882D01*
X11877265Y-20145709D01*
X11934753Y-20176437D01*
X11947866Y-20183446D01*
X12024472Y-20206684D01*
X12031745Y-20207400D01*
X12084181Y-20212565D01*
X12084188Y-20212565D01*
X12104141Y-20214530D01*
X12124094Y-20212565D01*
X13479136Y-20212565D01*
X13515440Y-20300210D01*
X13576594Y-20391733D01*
X13654428Y-20469567D01*
X13745951Y-20530721D01*
X13792200Y-20549878D01*
X13792200Y-20629037D01*
X13813674Y-20736996D01*
X13855798Y-20838691D01*
X13866298Y-20854405D01*
X13823719Y-20934065D01*
X13797185Y-21021534D01*
X13788226Y-21112500D01*
X13788226Y-21507500D01*
X13797185Y-21598466D01*
X13823719Y-21685935D01*
X13866807Y-21766548D01*
X13924794Y-21837206D01*
X13995452Y-21895193D01*
X14018477Y-21907500D01*
X13995452Y-21919807D01*
X13924794Y-21977794D01*
X13866807Y-22048452D01*
X13823719Y-22129065D01*
X13797185Y-22216534D01*
X13788226Y-22307500D01*
X13788226Y-22702500D01*
X13797185Y-22793466D01*
X13823719Y-22880935D01*
X13866807Y-22961548D01*
X13924794Y-23032206D01*
X13995452Y-23090193D01*
X14023435Y-23105150D01*
X13982074Y-23205004D01*
X13960600Y-23312963D01*
X13960600Y-23423037D01*
X13982074Y-23530996D01*
X14024198Y-23632691D01*
X14085352Y-23724214D01*
X14116438Y-23755300D01*
X13698557Y-24173180D01*
X9986876Y-24173180D01*
X10043628Y-24094178D01*
X10121854Y-23922066D01*
X10165000Y-23738000D01*
X10165000Y-23413000D01*
X9336000Y-23413000D01*
X9336000Y-23433000D01*
X9082000Y-23433000D01*
X9082000Y-23413000D01*
X8253000Y-23413000D01*
X8253000Y-23738000D01*
X8296146Y-23922066D01*
X8374372Y-24094178D01*
X8431124Y-24173180D01*
X7446944Y-24173180D01*
X6832558Y-23558795D01*
X6996252Y-23395101D01*
X6998757Y-23393376D01*
X7026145Y-23365208D01*
X7038912Y-23352441D01*
X7040825Y-23350110D01*
X7042931Y-23347944D01*
X7054205Y-23333807D01*
X7079112Y-23303458D01*
X7080545Y-23300777D01*
X7088578Y-23290704D01*
X7106993Y-23270671D01*
X7125852Y-23239702D01*
X7145574Y-23209270D01*
X7155635Y-23183982D01*
X7171720Y-23150582D01*
X7185220Y-23126945D01*
X7196710Y-23092566D01*
X7209165Y-23058514D01*
X7213350Y-23031606D01*
X7221595Y-22995478D01*
X7229496Y-22969434D01*
X7233051Y-22933346D01*
X7237616Y-22897371D01*
X7235709Y-22870222D01*
X7235709Y-22834000D01*
X8253000Y-22834000D01*
X8253000Y-23159000D01*
X9082000Y-23159000D01*
X9082000Y-22109671D01*
X9336000Y-22109671D01*
X9336000Y-23159000D01*
X10165000Y-23159000D01*
X10165000Y-22834000D01*
X10121854Y-22649934D01*
X10043628Y-22477822D01*
X9933328Y-22324278D01*
X9795192Y-22195203D01*
X9634529Y-22095557D01*
X9482662Y-22045006D01*
X9336000Y-22109671D01*
X9082000Y-22109671D01*
X8935338Y-22045006D01*
X8783471Y-22095557D01*
X8622808Y-22195203D01*
X8484672Y-22324278D01*
X8374372Y-22477822D01*
X8296146Y-22649934D01*
X8253000Y-22834000D01*
X7235709Y-22834000D01*
X7235709Y-22833158D01*
X7237617Y-22805995D01*
X7233053Y-22770042D01*
X7229500Y-22733957D01*
X7221595Y-22707896D01*
X7213348Y-22671767D01*
X7209167Y-22644875D01*
X7196714Y-22610824D01*
X7185214Y-22576421D01*
X7171714Y-22552786D01*
X7155639Y-22519404D01*
X7145573Y-22494104D01*
X7125853Y-22463676D01*
X7107001Y-22432716D01*
X7088573Y-22412668D01*
X7065466Y-22383693D01*
X7050025Y-22361271D01*
X7024019Y-22335984D01*
X6998753Y-22309999D01*
X6976338Y-22294563D01*
X6947354Y-22271449D01*
X6927318Y-22253032D01*
X6896355Y-22234177D01*
X6865922Y-22214454D01*
X6840632Y-22204392D01*
X6807234Y-22188308D01*
X6783605Y-22174812D01*
X6749225Y-22163320D01*
X6715159Y-22150861D01*
X6688264Y-22146678D01*
X6652131Y-22138430D01*
X6626069Y-22130525D01*
X6589985Y-22126972D01*
X6554030Y-22122408D01*
X6526868Y-22124316D01*
X6489804Y-22124316D01*
X6462655Y-22122409D01*
X6426680Y-22126974D01*
X6390592Y-22130529D01*
X6364548Y-22138430D01*
X6328423Y-22146675D01*
X6301515Y-22150859D01*
X6267456Y-22163316D01*
X6233081Y-22174805D01*
X6209444Y-22188305D01*
X6176048Y-22204388D01*
X6150755Y-22214451D01*
X6120308Y-22234183D01*
X6089356Y-22253031D01*
X6069322Y-22271446D01*
X6059246Y-22279481D01*
X6056564Y-22280915D01*
X6026220Y-22305819D01*
X6012081Y-22317094D01*
X6009913Y-22319202D01*
X6007582Y-22321115D01*
X5994823Y-22333874D01*
X5966649Y-22361268D01*
X5964923Y-22363775D01*
X5801231Y-22527468D01*
X5664320Y-22390557D01*
X5664320Y-20685151D01*
X5692644Y-20650639D01*
X5732503Y-20576067D01*
X5749826Y-20518963D01*
X5757049Y-20495152D01*
X5758855Y-20476815D01*
X5763260Y-20432089D01*
X5763260Y-20432083D01*
X5765336Y-20411002D01*
X5763492Y-20392274D01*
X6181623Y-20392274D01*
X6196304Y-20404322D01*
X6262492Y-20439701D01*
X6334311Y-20461487D01*
X6409000Y-20468843D01*
X6440750Y-20467000D01*
X6536000Y-20371750D01*
X6536000Y-19563000D01*
X6732000Y-19563000D01*
X6732000Y-20371750D01*
X6827250Y-20467000D01*
X6859000Y-20468843D01*
X6933689Y-20461487D01*
X7005508Y-20439701D01*
X7071696Y-20404322D01*
X7129711Y-20356711D01*
X7161376Y-20318127D01*
X7156285Y-20330417D01*
X7129200Y-20466583D01*
X7129200Y-20605417D01*
X7156285Y-20741583D01*
X7209415Y-20869848D01*
X7286546Y-20985284D01*
X7384716Y-21083454D01*
X7500152Y-21160585D01*
X7628417Y-21213715D01*
X7764583Y-21240800D01*
X7903417Y-21240800D01*
X8039583Y-21213715D01*
X8167848Y-21160585D01*
X8283284Y-21083454D01*
X8381454Y-20985284D01*
X8458585Y-20869848D01*
X8511715Y-20741583D01*
X8514395Y-20728108D01*
X8550137Y-20751163D01*
X8761692Y-20826290D01*
X8932000Y-20763740D01*
X8932000Y-19613000D01*
X7953000Y-19613000D01*
X7953000Y-19841063D01*
X7903417Y-19831200D01*
X7764583Y-19831200D01*
X7628417Y-19858285D01*
X7500152Y-19911415D01*
X7384716Y-19988546D01*
X7286546Y-20086716D01*
X7232298Y-20167904D01*
X7234487Y-20160689D01*
X7241843Y-20086000D01*
X7240000Y-19658250D01*
X7144750Y-19563000D01*
X6732000Y-19563000D01*
X6536000Y-19563000D01*
X6515274Y-19563000D01*
X6515274Y-19309000D01*
X6536000Y-19309000D01*
X6536000Y-18500250D01*
X6732000Y-18500250D01*
X6732000Y-19309000D01*
X7144750Y-19309000D01*
X7240000Y-19213750D01*
X7241843Y-18786000D01*
X7234487Y-18711311D01*
X7212701Y-18639492D01*
X7177322Y-18573304D01*
X7129711Y-18515289D01*
X7071696Y-18467678D01*
X7005508Y-18432299D01*
X6933689Y-18410513D01*
X6859000Y-18403157D01*
X6827250Y-18405000D01*
X6732000Y-18500250D01*
X6536000Y-18500250D01*
X6440750Y-18405000D01*
X6409000Y-18403157D01*
X6334311Y-18410513D01*
X6262492Y-18432299D01*
X6196304Y-18467678D01*
X6181623Y-18479726D01*
X5759000Y-18479726D01*
X5699249Y-18485611D01*
X5659000Y-18497821D01*
X5618751Y-18485611D01*
X5559000Y-18479726D01*
X5109000Y-18479726D01*
X5049249Y-18485611D01*
X5009000Y-18497821D01*
X4968751Y-18485611D01*
X4909000Y-18479726D01*
X4459000Y-18479726D01*
X4399249Y-18485611D01*
X4359000Y-18497821D01*
X4318751Y-18485611D01*
X4259000Y-18479726D01*
X3809000Y-18479726D01*
X3749249Y-18485611D01*
X3691794Y-18503040D01*
X3638843Y-18531342D01*
X3592432Y-18569432D01*
X3554342Y-18615843D01*
X3526040Y-18668794D01*
X3508611Y-18726249D01*
X3502726Y-18786000D01*
X3502726Y-19262372D01*
X3483286Y-19326457D01*
X3475200Y-19408557D01*
X3475201Y-20242265D01*
X3458585Y-20202152D01*
X3381454Y-20086716D01*
X3283284Y-19988546D01*
X3167848Y-19911415D01*
X3039583Y-19858285D01*
X2903417Y-19831200D01*
X2764583Y-19831200D01*
X2715000Y-19841063D01*
X2715000Y-19613000D01*
X1736000Y-19613000D01*
X1736000Y-20763740D01*
X1906308Y-20826290D01*
X2117863Y-20751163D01*
X2153605Y-20728108D01*
X2156285Y-20741583D01*
X2209415Y-20869848D01*
X2286546Y-20985284D01*
X2384716Y-21083454D01*
X2500152Y-21160585D01*
X2628417Y-21213715D01*
X2764583Y-21240800D01*
X2903417Y-21240800D01*
X3039583Y-21213715D01*
X3167848Y-21160585D01*
X3261903Y-21097740D01*
X3269779Y-21116754D01*
X3336492Y-21216598D01*
X3421402Y-21301508D01*
X3521246Y-21368221D01*
X3632186Y-21414174D01*
X3749960Y-21437600D01*
X3870040Y-21437600D01*
X3987814Y-21414174D01*
X4098754Y-21368221D01*
X4198598Y-21301508D01*
X4283508Y-21216598D01*
X4350221Y-21116754D01*
X4353681Y-21108402D01*
X4353680Y-22734557D01*
X4351604Y-22755638D01*
X4353680Y-22776718D01*
X4353680Y-22776725D01*
X4359891Y-22839787D01*
X4384437Y-22920703D01*
X4424296Y-22995275D01*
X4477939Y-23060639D01*
X4494319Y-23074082D01*
X6490437Y-25070200D01*
X329800Y-25070200D01*
X329800Y-23413000D01*
X503000Y-23413000D01*
X503000Y-23738000D01*
X546146Y-23922066D01*
X624372Y-24094178D01*
X734672Y-24247722D01*
X872808Y-24376797D01*
X1033471Y-24476443D01*
X1185338Y-24526994D01*
X1332000Y-24462329D01*
X1332000Y-23413000D01*
X1586000Y-23413000D01*
X1586000Y-24462329D01*
X1732662Y-24526994D01*
X1884529Y-24476443D01*
X2045192Y-24376797D01*
X2183328Y-24247722D01*
X2293628Y-24094178D01*
X2371854Y-23922066D01*
X2415000Y-23738000D01*
X2415000Y-23413000D01*
X1586000Y-23413000D01*
X1332000Y-23413000D01*
X503000Y-23413000D01*
X329800Y-23413000D01*
X329800Y-22834000D01*
X503000Y-22834000D01*
X503000Y-23159000D01*
X1332000Y-23159000D01*
X1332000Y-22109671D01*
X1586000Y-22109671D01*
X1586000Y-23159000D01*
X2415000Y-23159000D01*
X2415000Y-22834000D01*
X2371854Y-22649934D01*
X2293628Y-22477822D01*
X2183328Y-22324278D01*
X2045192Y-22195203D01*
X1884529Y-22095557D01*
X1732662Y-22045006D01*
X1586000Y-22109671D01*
X1332000Y-22109671D01*
X1185338Y-22045006D01*
X1033471Y-22095557D01*
X872808Y-22195203D01*
X734672Y-22324278D01*
X624372Y-22477822D01*
X546146Y-22649934D01*
X503000Y-22834000D01*
X329800Y-22834000D01*
X329800Y-19613000D01*
X503000Y-19613000D01*
X503000Y-19888000D01*
X549028Y-20101330D01*
X635790Y-20301581D01*
X759952Y-20481058D01*
X916743Y-20632863D01*
X1100137Y-20751163D01*
X1311692Y-20826290D01*
X1482000Y-20763740D01*
X1482000Y-19613000D01*
X503000Y-19613000D01*
X329800Y-19613000D01*
X329800Y-19084000D01*
X503000Y-19084000D01*
X503000Y-19359000D01*
X1482000Y-19359000D01*
X1482000Y-18208260D01*
X1736000Y-18208260D01*
X1736000Y-19359000D01*
X2715000Y-19359000D01*
X2715000Y-19084000D01*
X2668972Y-18870670D01*
X2582210Y-18670419D01*
X2458048Y-18490942D01*
X2301257Y-18339137D01*
X2117863Y-18220837D01*
X1906308Y-18145710D01*
X1736000Y-18208260D01*
X1482000Y-18208260D01*
X1311692Y-18145710D01*
X1100137Y-18220837D01*
X916743Y-18339137D01*
X759952Y-18490942D01*
X635790Y-18670419D01*
X549028Y-18870670D01*
X503000Y-19084000D01*
X329800Y-19084000D01*
X329800Y-15663283D01*
X355678Y-15711696D01*
G37*
%TD.AperFunction*%
D32*
X20828000Y-20346000D02*
X20848000Y-20346000D01*
X20848000Y-20600000D01*
X20828000Y-20600000D01*
X20828000Y-21116250D01*
X20923250Y-21211500D01*
X21021000Y-21213343D01*
X21095689Y-21205987D01*
X21167508Y-21184201D01*
X21233696Y-21148822D01*
X21291711Y-21101211D01*
X21318153Y-21068991D01*
X21378565Y-21101281D01*
X21466034Y-21127815D01*
X21557000Y-21136774D01*
X21806038Y-21136774D01*
X22072601Y-21403338D01*
X22072601Y-22088726D01*
X21237000Y-22088726D01*
X21177249Y-22094611D01*
X21119794Y-22112040D01*
X21066843Y-22140342D01*
X21020432Y-22178432D01*
X20982342Y-22224843D01*
X20954040Y-22277794D01*
X20936611Y-22335249D01*
X20930726Y-22395000D01*
X20930726Y-23026538D01*
X20326538Y-23630726D01*
X19958000Y-23630726D01*
X19867034Y-23639685D01*
X19779565Y-23666219D01*
X19698952Y-23709307D01*
X19628294Y-23767294D01*
X19570307Y-23837952D01*
X19558000Y-23860977D01*
X19545693Y-23837952D01*
X19487706Y-23767294D01*
X19467195Y-23750461D01*
X19481800Y-23677037D01*
X19481800Y-23566963D01*
X19460326Y-23459004D01*
X19418202Y-23357309D01*
X19357048Y-23265786D01*
X19279214Y-23187952D01*
X19187691Y-23126798D01*
X19085996Y-23084674D01*
X18978037Y-23063200D01*
X18930439Y-23063200D01*
X18968206Y-23032206D01*
X19026193Y-22961548D01*
X19069281Y-22880935D01*
X19095815Y-22793466D01*
X19104774Y-22702500D01*
X19104774Y-22453463D01*
X19300369Y-22257868D01*
X19315868Y-22245148D01*
X19328587Y-22229650D01*
X19328592Y-22229645D01*
X19356857Y-22195203D01*
X19366654Y-22183266D01*
X19404391Y-22112665D01*
X19412722Y-22085202D01*
X19427629Y-22036059D01*
X19428812Y-22024048D01*
X19433510Y-21976350D01*
X19433510Y-21976343D01*
X19435475Y-21956390D01*
X19433510Y-21936437D01*
X19433510Y-21891656D01*
X19507186Y-21922174D01*
X19624960Y-21945600D01*
X19745040Y-21945600D01*
X19862814Y-21922174D01*
X19973754Y-21876221D01*
X20073598Y-21809508D01*
X20158508Y-21724598D01*
X20225221Y-21624754D01*
X20271174Y-21513814D01*
X20294600Y-21396040D01*
X20294600Y-21275960D01*
X20279036Y-21197713D01*
X20306311Y-21205987D01*
X20381000Y-21213343D01*
X20478750Y-21211500D01*
X20574000Y-21116250D01*
X20574000Y-20600000D01*
X20554000Y-20600000D01*
X20554000Y-20346000D01*
X20574000Y-20346000D01*
X20574000Y-20326000D01*
X20828000Y-20326000D01*
X20828000Y-20346000D01*
%TA.AperFunction,Conductor*%
D33*
G36*
X20828000Y-20346000D02*
G01*
X20848000Y-20346000D01*
X20848000Y-20600000D01*
X20828000Y-20600000D01*
X20828000Y-21116250D01*
X20923250Y-21211500D01*
X21021000Y-21213343D01*
X21095689Y-21205987D01*
X21167508Y-21184201D01*
X21233696Y-21148822D01*
X21291711Y-21101211D01*
X21318153Y-21068991D01*
X21378565Y-21101281D01*
X21466034Y-21127815D01*
X21557000Y-21136774D01*
X21806038Y-21136774D01*
X22072601Y-21403338D01*
X22072601Y-22088726D01*
X21237000Y-22088726D01*
X21177249Y-22094611D01*
X21119794Y-22112040D01*
X21066843Y-22140342D01*
X21020432Y-22178432D01*
X20982342Y-22224843D01*
X20954040Y-22277794D01*
X20936611Y-22335249D01*
X20930726Y-22395000D01*
X20930726Y-23026538D01*
X20326538Y-23630726D01*
X19958000Y-23630726D01*
X19867034Y-23639685D01*
X19779565Y-23666219D01*
X19698952Y-23709307D01*
X19628294Y-23767294D01*
X19570307Y-23837952D01*
X19558000Y-23860977D01*
X19545693Y-23837952D01*
X19487706Y-23767294D01*
X19467195Y-23750461D01*
X19481800Y-23677037D01*
X19481800Y-23566963D01*
X19460326Y-23459004D01*
X19418202Y-23357309D01*
X19357048Y-23265786D01*
X19279214Y-23187952D01*
X19187691Y-23126798D01*
X19085996Y-23084674D01*
X18978037Y-23063200D01*
X18930439Y-23063200D01*
X18968206Y-23032206D01*
X19026193Y-22961548D01*
X19069281Y-22880935D01*
X19095815Y-22793466D01*
X19104774Y-22702500D01*
X19104774Y-22453463D01*
X19300369Y-22257868D01*
X19315868Y-22245148D01*
X19328587Y-22229650D01*
X19328592Y-22229645D01*
X19356857Y-22195203D01*
X19366654Y-22183266D01*
X19404391Y-22112665D01*
X19412722Y-22085202D01*
X19427629Y-22036059D01*
X19428812Y-22024048D01*
X19433510Y-21976350D01*
X19433510Y-21976343D01*
X19435475Y-21956390D01*
X19433510Y-21936437D01*
X19433510Y-21891656D01*
X19507186Y-21922174D01*
X19624960Y-21945600D01*
X19745040Y-21945600D01*
X19862814Y-21922174D01*
X19973754Y-21876221D01*
X20073598Y-21809508D01*
X20158508Y-21724598D01*
X20225221Y-21624754D01*
X20271174Y-21513814D01*
X20294600Y-21396040D01*
X20294600Y-21275960D01*
X20279036Y-21197713D01*
X20306311Y-21205987D01*
X20381000Y-21213343D01*
X20478750Y-21211500D01*
X20574000Y-21116250D01*
X20574000Y-20600000D01*
X20554000Y-20600000D01*
X20554000Y-20346000D01*
X20574000Y-20346000D01*
X20574000Y-20326000D01*
X20828000Y-20326000D01*
X20828000Y-20346000D01*
G37*
%TD.AperFunction*%
D32*
X24417000Y-11173000D02*
X24437000Y-11173000D01*
X24437000Y-11427000D01*
X24417000Y-11427000D01*
X24417000Y-12335750D01*
X24512250Y-12431000D01*
X25035201Y-12432098D01*
X25035201Y-12717921D01*
X25040479Y-12771513D01*
X25061339Y-12840278D01*
X25070200Y-12856856D01*
X25070201Y-20545101D01*
X25057048Y-20534307D01*
X24976435Y-20491219D01*
X24888966Y-20464685D01*
X24798000Y-20455726D01*
X24494881Y-20455726D01*
X24498300Y-20438537D01*
X24498300Y-20328463D01*
X24476826Y-20220504D01*
X24434702Y-20118809D01*
X24373548Y-20027286D01*
X24295714Y-19949452D01*
X24204191Y-19888298D01*
X24102496Y-19846174D01*
X23994537Y-19824700D01*
X23884463Y-19824700D01*
X23776504Y-19846174D01*
X23674809Y-19888298D01*
X23583286Y-19949452D01*
X23505452Y-20027286D01*
X23444298Y-20118809D01*
X23402174Y-20220504D01*
X23380700Y-20328463D01*
X23380700Y-20438537D01*
X23384119Y-20455726D01*
X23208000Y-20455726D01*
X23117034Y-20464685D01*
X23029565Y-20491219D01*
X22948952Y-20534307D01*
X22878294Y-20592294D01*
X22820307Y-20662952D01*
X22777219Y-20743565D01*
X22750685Y-20831034D01*
X22741726Y-20922000D01*
X22741726Y-20922989D01*
X22343274Y-20524538D01*
X22343274Y-20275500D01*
X22342783Y-20270510D01*
X22597437Y-20270510D01*
X22617390Y-20272475D01*
X22637343Y-20270510D01*
X22637350Y-20270510D01*
X22697058Y-20264629D01*
X22773665Y-20241391D01*
X22844266Y-20203654D01*
X22906148Y-20152868D01*
X22918872Y-20137364D01*
X24170761Y-18885476D01*
X24186258Y-18872758D01*
X24198977Y-18857260D01*
X24198982Y-18857255D01*
X24218552Y-18833408D01*
X24237044Y-18810876D01*
X24238435Y-18808274D01*
X24422500Y-18808274D01*
X24482251Y-18802389D01*
X24539706Y-18784960D01*
X24592657Y-18756658D01*
X24639068Y-18718568D01*
X24677158Y-18672157D01*
X24705460Y-18619206D01*
X24722889Y-18561751D01*
X24728774Y-18502000D01*
X24728774Y-17102000D01*
X24722889Y-17042249D01*
X24705460Y-16984794D01*
X24677158Y-16931843D01*
X24639068Y-16885432D01*
X24592657Y-16847342D01*
X24539706Y-16819040D01*
X24482251Y-16801611D01*
X24422500Y-16795726D01*
X23837900Y-16795726D01*
X23837900Y-16611504D01*
X23886502Y-16631636D01*
X24013008Y-16656800D01*
X24141992Y-16656800D01*
X24268498Y-16631636D01*
X24387664Y-16582276D01*
X24494910Y-16510616D01*
X24586116Y-16419410D01*
X24657776Y-16312164D01*
X24707136Y-16192998D01*
X24732300Y-16066492D01*
X24732300Y-15937508D01*
X24707136Y-15811002D01*
X24657776Y-15691836D01*
X24586116Y-15584590D01*
X24494910Y-15493384D01*
X24387664Y-15421724D01*
X24268498Y-15372364D01*
X24141992Y-15347200D01*
X24013008Y-15347200D01*
X23886502Y-15372364D01*
X23837900Y-15392496D01*
X23837900Y-15208274D01*
X24422500Y-15208274D01*
X24482251Y-15202389D01*
X24539706Y-15184960D01*
X24592657Y-15156658D01*
X24639068Y-15118568D01*
X24677158Y-15072157D01*
X24705460Y-15019206D01*
X24722889Y-14961751D01*
X24728774Y-14902000D01*
X24728774Y-13502000D01*
X24722889Y-13442249D01*
X24705460Y-13384794D01*
X24677158Y-13331843D01*
X24639068Y-13285432D01*
X24592657Y-13247342D01*
X24539706Y-13219040D01*
X24482251Y-13201611D01*
X24422500Y-13195726D01*
X23372500Y-13195726D01*
X23312749Y-13201611D01*
X23255294Y-13219040D01*
X23202343Y-13247342D01*
X23177500Y-13267731D01*
X23152657Y-13247342D01*
X23099706Y-13219040D01*
X23042251Y-13201611D01*
X22982500Y-13195726D01*
X22009927Y-13195726D01*
X22021800Y-13136037D01*
X22021800Y-13025963D01*
X22000326Y-12918004D01*
X21958202Y-12816309D01*
X21897048Y-12724786D01*
X21819214Y-12646952D01*
X21727691Y-12585798D01*
X21625996Y-12543674D01*
X21518037Y-12522200D01*
X21452109Y-12522200D01*
X21421275Y-12505719D01*
X21361607Y-12487619D01*
X21384468Y-12412260D01*
X21388650Y-12369800D01*
X22171600Y-12369800D01*
X22237686Y-12397174D01*
X22355460Y-12420600D01*
X22475540Y-12420600D01*
X22593314Y-12397174D01*
X22704254Y-12351221D01*
X22804098Y-12284508D01*
X22855736Y-12232870D01*
X22871678Y-12262696D01*
X22919289Y-12320711D01*
X22977304Y-12368322D01*
X23043492Y-12403701D01*
X23115311Y-12425487D01*
X23190000Y-12432843D01*
X24067750Y-12431000D01*
X24163000Y-12335750D01*
X24163000Y-11427000D01*
X24143000Y-11427000D01*
X24143000Y-11173000D01*
X24163000Y-11173000D01*
X24163000Y-10914800D01*
X24417000Y-10914800D01*
X24417000Y-11173000D01*
%TA.AperFunction,Conductor*%
D33*
G36*
X24417000Y-11173000D02*
G01*
X24437000Y-11173000D01*
X24437000Y-11427000D01*
X24417000Y-11427000D01*
X24417000Y-12335750D01*
X24512250Y-12431000D01*
X25035201Y-12432098D01*
X25035201Y-12717921D01*
X25040479Y-12771513D01*
X25061339Y-12840278D01*
X25070200Y-12856856D01*
X25070201Y-20545101D01*
X25057048Y-20534307D01*
X24976435Y-20491219D01*
X24888966Y-20464685D01*
X24798000Y-20455726D01*
X24494881Y-20455726D01*
X24498300Y-20438537D01*
X24498300Y-20328463D01*
X24476826Y-20220504D01*
X24434702Y-20118809D01*
X24373548Y-20027286D01*
X24295714Y-19949452D01*
X24204191Y-19888298D01*
X24102496Y-19846174D01*
X23994537Y-19824700D01*
X23884463Y-19824700D01*
X23776504Y-19846174D01*
X23674809Y-19888298D01*
X23583286Y-19949452D01*
X23505452Y-20027286D01*
X23444298Y-20118809D01*
X23402174Y-20220504D01*
X23380700Y-20328463D01*
X23380700Y-20438537D01*
X23384119Y-20455726D01*
X23208000Y-20455726D01*
X23117034Y-20464685D01*
X23029565Y-20491219D01*
X22948952Y-20534307D01*
X22878294Y-20592294D01*
X22820307Y-20662952D01*
X22777219Y-20743565D01*
X22750685Y-20831034D01*
X22741726Y-20922000D01*
X22741726Y-20922989D01*
X22343274Y-20524538D01*
X22343274Y-20275500D01*
X22342783Y-20270510D01*
X22597437Y-20270510D01*
X22617390Y-20272475D01*
X22637343Y-20270510D01*
X22637350Y-20270510D01*
X22697058Y-20264629D01*
X22773665Y-20241391D01*
X22844266Y-20203654D01*
X22906148Y-20152868D01*
X22918872Y-20137364D01*
X24170761Y-18885476D01*
X24186258Y-18872758D01*
X24198977Y-18857260D01*
X24198982Y-18857255D01*
X24218552Y-18833408D01*
X24237044Y-18810876D01*
X24238435Y-18808274D01*
X24422500Y-18808274D01*
X24482251Y-18802389D01*
X24539706Y-18784960D01*
X24592657Y-18756658D01*
X24639068Y-18718568D01*
X24677158Y-18672157D01*
X24705460Y-18619206D01*
X24722889Y-18561751D01*
X24728774Y-18502000D01*
X24728774Y-17102000D01*
X24722889Y-17042249D01*
X24705460Y-16984794D01*
X24677158Y-16931843D01*
X24639068Y-16885432D01*
X24592657Y-16847342D01*
X24539706Y-16819040D01*
X24482251Y-16801611D01*
X24422500Y-16795726D01*
X23837900Y-16795726D01*
X23837900Y-16611504D01*
X23886502Y-16631636D01*
X24013008Y-16656800D01*
X24141992Y-16656800D01*
X24268498Y-16631636D01*
X24387664Y-16582276D01*
X24494910Y-16510616D01*
X24586116Y-16419410D01*
X24657776Y-16312164D01*
X24707136Y-16192998D01*
X24732300Y-16066492D01*
X24732300Y-15937508D01*
X24707136Y-15811002D01*
X24657776Y-15691836D01*
X24586116Y-15584590D01*
X24494910Y-15493384D01*
X24387664Y-15421724D01*
X24268498Y-15372364D01*
X24141992Y-15347200D01*
X24013008Y-15347200D01*
X23886502Y-15372364D01*
X23837900Y-15392496D01*
X23837900Y-15208274D01*
X24422500Y-15208274D01*
X24482251Y-15202389D01*
X24539706Y-15184960D01*
X24592657Y-15156658D01*
X24639068Y-15118568D01*
X24677158Y-15072157D01*
X24705460Y-15019206D01*
X24722889Y-14961751D01*
X24728774Y-14902000D01*
X24728774Y-13502000D01*
X24722889Y-13442249D01*
X24705460Y-13384794D01*
X24677158Y-13331843D01*
X24639068Y-13285432D01*
X24592657Y-13247342D01*
X24539706Y-13219040D01*
X24482251Y-13201611D01*
X24422500Y-13195726D01*
X23372500Y-13195726D01*
X23312749Y-13201611D01*
X23255294Y-13219040D01*
X23202343Y-13247342D01*
X23177500Y-13267731D01*
X23152657Y-13247342D01*
X23099706Y-13219040D01*
X23042251Y-13201611D01*
X22982500Y-13195726D01*
X22009927Y-13195726D01*
X22021800Y-13136037D01*
X22021800Y-13025963D01*
X22000326Y-12918004D01*
X21958202Y-12816309D01*
X21897048Y-12724786D01*
X21819214Y-12646952D01*
X21727691Y-12585798D01*
X21625996Y-12543674D01*
X21518037Y-12522200D01*
X21452109Y-12522200D01*
X21421275Y-12505719D01*
X21361607Y-12487619D01*
X21384468Y-12412260D01*
X21388650Y-12369800D01*
X22171600Y-12369800D01*
X22237686Y-12397174D01*
X22355460Y-12420600D01*
X22475540Y-12420600D01*
X22593314Y-12397174D01*
X22704254Y-12351221D01*
X22804098Y-12284508D01*
X22855736Y-12232870D01*
X22871678Y-12262696D01*
X22919289Y-12320711D01*
X22977304Y-12368322D01*
X23043492Y-12403701D01*
X23115311Y-12425487D01*
X23190000Y-12432843D01*
X24067750Y-12431000D01*
X24163000Y-12335750D01*
X24163000Y-11427000D01*
X24143000Y-11427000D01*
X24143000Y-11173000D01*
X24163000Y-11173000D01*
X24163000Y-10914800D01*
X24417000Y-10914800D01*
X24417000Y-11173000D01*
G37*
%TD.AperFunction*%
D32*
X13800878Y-16792438D02*
X13721130Y-16835065D01*
X13651230Y-16892430D01*
X13593865Y-16962330D01*
X13551238Y-17042078D01*
X13524989Y-17128610D01*
X13516126Y-17218600D01*
X13516126Y-17528600D01*
X13524989Y-17618590D01*
X13551238Y-17705122D01*
X13593865Y-17784870D01*
X13651230Y-17854770D01*
X13676185Y-17875250D01*
X13651230Y-17895730D01*
X13593865Y-17965630D01*
X13551238Y-18045378D01*
X13524989Y-18131910D01*
X13516126Y-18221900D01*
X13516126Y-18531900D01*
X13524989Y-18621890D01*
X13551238Y-18708422D01*
X13593865Y-18788170D01*
X13636047Y-18839569D01*
X13639186Y-18871444D01*
X13639738Y-18873263D01*
X13572539Y-18828362D01*
X13470844Y-18786238D01*
X13362885Y-18764764D01*
X13252811Y-18764764D01*
X13144852Y-18786238D01*
X13043157Y-18828362D01*
X12951634Y-18889516D01*
X12873800Y-18967350D01*
X12812646Y-19058873D01*
X12770522Y-19160568D01*
X12749048Y-19268527D01*
X12749048Y-19378601D01*
X12753258Y-19399765D01*
X12272478Y-19399765D01*
X11052509Y-18179797D01*
X11070459Y-18167803D01*
X11148293Y-18089969D01*
X11209447Y-17998446D01*
X11251571Y-17896751D01*
X11273045Y-17788792D01*
X11273045Y-17678718D01*
X11265397Y-17640267D01*
X11956180Y-17640267D01*
X11976133Y-17642232D01*
X11996086Y-17640267D01*
X11996093Y-17640267D01*
X12055801Y-17634386D01*
X12132408Y-17611148D01*
X12203009Y-17573411D01*
X12264891Y-17522625D01*
X12277615Y-17507121D01*
X12995338Y-16789399D01*
X13810896Y-16789399D01*
X13800878Y-16792438D01*
%TA.AperFunction,Conductor*%
D33*
G36*
X13800878Y-16792438D02*
G01*
X13721130Y-16835065D01*
X13651230Y-16892430D01*
X13593865Y-16962330D01*
X13551238Y-17042078D01*
X13524989Y-17128610D01*
X13516126Y-17218600D01*
X13516126Y-17528600D01*
X13524989Y-17618590D01*
X13551238Y-17705122D01*
X13593865Y-17784870D01*
X13651230Y-17854770D01*
X13676185Y-17875250D01*
X13651230Y-17895730D01*
X13593865Y-17965630D01*
X13551238Y-18045378D01*
X13524989Y-18131910D01*
X13516126Y-18221900D01*
X13516126Y-18531900D01*
X13524989Y-18621890D01*
X13551238Y-18708422D01*
X13593865Y-18788170D01*
X13636047Y-18839569D01*
X13639186Y-18871444D01*
X13639738Y-18873263D01*
X13572539Y-18828362D01*
X13470844Y-18786238D01*
X13362885Y-18764764D01*
X13252811Y-18764764D01*
X13144852Y-18786238D01*
X13043157Y-18828362D01*
X12951634Y-18889516D01*
X12873800Y-18967350D01*
X12812646Y-19058873D01*
X12770522Y-19160568D01*
X12749048Y-19268527D01*
X12749048Y-19378601D01*
X12753258Y-19399765D01*
X12272478Y-19399765D01*
X11052509Y-18179797D01*
X11070459Y-18167803D01*
X11148293Y-18089969D01*
X11209447Y-17998446D01*
X11251571Y-17896751D01*
X11273045Y-17788792D01*
X11273045Y-17678718D01*
X11265397Y-17640267D01*
X11956180Y-17640267D01*
X11976133Y-17642232D01*
X11996086Y-17640267D01*
X11996093Y-17640267D01*
X12055801Y-17634386D01*
X12132408Y-17611148D01*
X12203009Y-17573411D01*
X12264891Y-17522625D01*
X12277615Y-17507121D01*
X12995338Y-16789399D01*
X13810896Y-16789399D01*
X13800878Y-16792438D01*
G37*
%TD.AperFunction*%
D32*
X18554798Y-13324309D02*
X18512674Y-13426004D01*
X18491200Y-13533963D01*
X18491200Y-13644037D01*
X18512674Y-13751996D01*
X18554798Y-13853691D01*
X18615952Y-13945214D01*
X18693786Y-14023048D01*
X18785309Y-14084202D01*
X18887004Y-14126326D01*
X18994963Y-14147800D01*
X19105037Y-14147800D01*
X19154726Y-14137916D01*
X19154726Y-14283000D01*
X19162532Y-14362260D01*
X19185652Y-14438474D01*
X19223196Y-14508714D01*
X19273721Y-14570279D01*
X19335286Y-14620804D01*
X19385981Y-14647901D01*
X19380200Y-14676963D01*
X19380200Y-14787037D01*
X19401674Y-14894996D01*
X19443798Y-14996691D01*
X19504952Y-15088214D01*
X19532600Y-15115862D01*
X19532601Y-16389413D01*
X18797661Y-17124353D01*
X18785673Y-17106411D01*
X18707839Y-17028577D01*
X18616316Y-16967423D01*
X18514621Y-16925299D01*
X18406662Y-16903825D01*
X18296588Y-16903825D01*
X18211800Y-16920690D01*
X18211800Y-16776673D01*
X18252004Y-16793326D01*
X18359963Y-16814800D01*
X18470037Y-16814800D01*
X18577996Y-16793326D01*
X18679691Y-16751202D01*
X18771214Y-16690048D01*
X18849048Y-16612214D01*
X18910202Y-16520691D01*
X18952326Y-16418996D01*
X18973800Y-16311037D01*
X18973800Y-16200963D01*
X18952326Y-16093004D01*
X18910202Y-15991309D01*
X18849048Y-15899786D01*
X18771214Y-15821952D01*
X18679691Y-15760798D01*
X18577996Y-15718674D01*
X18470037Y-15697200D01*
X18359963Y-15697200D01*
X18252004Y-15718674D01*
X18150309Y-15760798D01*
X18058786Y-15821952D01*
X18034520Y-15846218D01*
X18028724Y-15841461D01*
X17585595Y-15398333D01*
X17558221Y-15332246D01*
X17491508Y-15232402D01*
X17406598Y-15147492D01*
X17306754Y-15080779D01*
X17195814Y-15034826D01*
X17078040Y-15011400D01*
X16957960Y-15011400D01*
X16840186Y-15034826D01*
X16729246Y-15080779D01*
X16629402Y-15147492D01*
X16544492Y-15232402D01*
X16477779Y-15332246D01*
X16431826Y-15443186D01*
X16408400Y-15560960D01*
X16408400Y-15681040D01*
X16431826Y-15798814D01*
X16477779Y-15909754D01*
X16544492Y-16009598D01*
X16629402Y-16094508D01*
X16729246Y-16161221D01*
X16795333Y-16188595D01*
X17094201Y-16487463D01*
X17094200Y-16830528D01*
X17063311Y-16792889D01*
X17005296Y-16745278D01*
X16939108Y-16709899D01*
X16867289Y-16688113D01*
X16792600Y-16680757D01*
X16647350Y-16682600D01*
X16552100Y-16777850D01*
X16552100Y-17246600D01*
X16572100Y-17246600D01*
X16572100Y-17500600D01*
X16552100Y-17500600D01*
X16552100Y-18249900D01*
X16572100Y-18249900D01*
X16572100Y-18503900D01*
X16552100Y-18503900D01*
X16552100Y-18523900D01*
X16298100Y-18523900D01*
X16298100Y-18503900D01*
X15451900Y-18503900D01*
X15451900Y-18523900D01*
X15197900Y-18523900D01*
X15197900Y-18503900D01*
X15177900Y-18503900D01*
X15177900Y-18249900D01*
X15197900Y-18249900D01*
X15197900Y-18050999D01*
X15214600Y-17967040D01*
X15214600Y-17846960D01*
X15197900Y-17763001D01*
X15197900Y-17500600D01*
X15451900Y-17500600D01*
X15451900Y-18249900D01*
X16298100Y-18249900D01*
X16298100Y-17500600D01*
X15451900Y-17500600D01*
X15197900Y-17500600D01*
X15177900Y-17500600D01*
X15177900Y-17246600D01*
X15197900Y-17246600D01*
X15197900Y-16777850D01*
X15451900Y-16777850D01*
X15451900Y-17246600D01*
X16298100Y-17246600D01*
X16298100Y-16777850D01*
X16202850Y-16682600D01*
X16057600Y-16680757D01*
X15982911Y-16688113D01*
X15911092Y-16709899D01*
X15875000Y-16729191D01*
X15838908Y-16709899D01*
X15767089Y-16688113D01*
X15692400Y-16680757D01*
X15547150Y-16682600D01*
X15451900Y-16777850D01*
X15197900Y-16777850D01*
X15102650Y-16682600D01*
X14957400Y-16680757D01*
X14882711Y-16688113D01*
X14810892Y-16709899D01*
X14744704Y-16745278D01*
X14686689Y-16792889D01*
X14654087Y-16832615D01*
X14578922Y-16792438D01*
X14492390Y-16766189D01*
X14488922Y-16765847D01*
X14507276Y-16760280D01*
X14577877Y-16722543D01*
X14620211Y-16687800D01*
X14660037Y-16687800D01*
X14767996Y-16666326D01*
X14869691Y-16624202D01*
X14961214Y-16563048D01*
X15039048Y-16485214D01*
X15100202Y-16393691D01*
X15142326Y-16291996D01*
X15163800Y-16184037D01*
X15163800Y-16073963D01*
X15142326Y-15966004D01*
X15118697Y-15908959D01*
X15137786Y-15928048D01*
X15229309Y-15989202D01*
X15331004Y-16031326D01*
X15438963Y-16052800D01*
X15549037Y-16052800D01*
X15656996Y-16031326D01*
X15758691Y-15989202D01*
X15850214Y-15928048D01*
X15928048Y-15850214D01*
X15989202Y-15758691D01*
X16031326Y-15656996D01*
X16052800Y-15549037D01*
X16052800Y-15438963D01*
X16031326Y-15331004D01*
X15989202Y-15229309D01*
X15928048Y-15137786D01*
X15850214Y-15059952D01*
X15758691Y-14998798D01*
X15656996Y-14956674D01*
X15549037Y-14935200D01*
X15509936Y-14935200D01*
X15340253Y-14765517D01*
X15826250Y-14764000D01*
X15921500Y-14668750D01*
X15921500Y-14256000D01*
X16175500Y-14256000D01*
X16175500Y-14668750D01*
X16270750Y-14764000D01*
X16861000Y-14765843D01*
X16935689Y-14758487D01*
X17007508Y-14736701D01*
X17073696Y-14701322D01*
X17131711Y-14653711D01*
X17179322Y-14595696D01*
X17214701Y-14529508D01*
X17236487Y-14457689D01*
X17243843Y-14383000D01*
X17242000Y-14351250D01*
X17146750Y-14256000D01*
X16175500Y-14256000D01*
X15921500Y-14256000D01*
X14950250Y-14256000D01*
X14883592Y-14322658D01*
X14824775Y-14291219D01*
X14748168Y-14267981D01*
X14688460Y-14262100D01*
X14688453Y-14262100D01*
X14668500Y-14260135D01*
X14648547Y-14262100D01*
X13558837Y-14262100D01*
X13571315Y-14220966D01*
X13580274Y-14130000D01*
X13580274Y-13836967D01*
X13623624Y-13872544D01*
X13694225Y-13910281D01*
X13751075Y-13927526D01*
X13770831Y-13933519D01*
X13778835Y-13934307D01*
X13830540Y-13939400D01*
X13830546Y-13939400D01*
X13850499Y-13941365D01*
X13870452Y-13939400D01*
X14857451Y-13939400D01*
X14853157Y-13983000D01*
X14855000Y-14014750D01*
X14950250Y-14110000D01*
X15921500Y-14110000D01*
X15921500Y-14039274D01*
X16175500Y-14039274D01*
X16175500Y-14110000D01*
X17146750Y-14110000D01*
X17242000Y-14014750D01*
X17243843Y-13983000D01*
X17236487Y-13908311D01*
X17214701Y-13836492D01*
X17179322Y-13770304D01*
X17151970Y-13736975D01*
X17159468Y-13712260D01*
X17167274Y-13633000D01*
X17167274Y-13433000D01*
X17159468Y-13353740D01*
X17139950Y-13289400D01*
X18578124Y-13289400D01*
X18554798Y-13324309D01*
%TA.AperFunction,Conductor*%
D33*
G36*
X18554798Y-13324309D02*
G01*
X18512674Y-13426004D01*
X18491200Y-13533963D01*
X18491200Y-13644037D01*
X18512674Y-13751996D01*
X18554798Y-13853691D01*
X18615952Y-13945214D01*
X18693786Y-14023048D01*
X18785309Y-14084202D01*
X18887004Y-14126326D01*
X18994963Y-14147800D01*
X19105037Y-14147800D01*
X19154726Y-14137916D01*
X19154726Y-14283000D01*
X19162532Y-14362260D01*
X19185652Y-14438474D01*
X19223196Y-14508714D01*
X19273721Y-14570279D01*
X19335286Y-14620804D01*
X19385981Y-14647901D01*
X19380200Y-14676963D01*
X19380200Y-14787037D01*
X19401674Y-14894996D01*
X19443798Y-14996691D01*
X19504952Y-15088214D01*
X19532600Y-15115862D01*
X19532601Y-16389413D01*
X18797661Y-17124353D01*
X18785673Y-17106411D01*
X18707839Y-17028577D01*
X18616316Y-16967423D01*
X18514621Y-16925299D01*
X18406662Y-16903825D01*
X18296588Y-16903825D01*
X18211800Y-16920690D01*
X18211800Y-16776673D01*
X18252004Y-16793326D01*
X18359963Y-16814800D01*
X18470037Y-16814800D01*
X18577996Y-16793326D01*
X18679691Y-16751202D01*
X18771214Y-16690048D01*
X18849048Y-16612214D01*
X18910202Y-16520691D01*
X18952326Y-16418996D01*
X18973800Y-16311037D01*
X18973800Y-16200963D01*
X18952326Y-16093004D01*
X18910202Y-15991309D01*
X18849048Y-15899786D01*
X18771214Y-15821952D01*
X18679691Y-15760798D01*
X18577996Y-15718674D01*
X18470037Y-15697200D01*
X18359963Y-15697200D01*
X18252004Y-15718674D01*
X18150309Y-15760798D01*
X18058786Y-15821952D01*
X18034520Y-15846218D01*
X18028724Y-15841461D01*
X17585595Y-15398333D01*
X17558221Y-15332246D01*
X17491508Y-15232402D01*
X17406598Y-15147492D01*
X17306754Y-15080779D01*
X17195814Y-15034826D01*
X17078040Y-15011400D01*
X16957960Y-15011400D01*
X16840186Y-15034826D01*
X16729246Y-15080779D01*
X16629402Y-15147492D01*
X16544492Y-15232402D01*
X16477779Y-15332246D01*
X16431826Y-15443186D01*
X16408400Y-15560960D01*
X16408400Y-15681040D01*
X16431826Y-15798814D01*
X16477779Y-15909754D01*
X16544492Y-16009598D01*
X16629402Y-16094508D01*
X16729246Y-16161221D01*
X16795333Y-16188595D01*
X17094201Y-16487463D01*
X17094200Y-16830528D01*
X17063311Y-16792889D01*
X17005296Y-16745278D01*
X16939108Y-16709899D01*
X16867289Y-16688113D01*
X16792600Y-16680757D01*
X16647350Y-16682600D01*
X16552100Y-16777850D01*
X16552100Y-17246600D01*
X16572100Y-17246600D01*
X16572100Y-17500600D01*
X16552100Y-17500600D01*
X16552100Y-18249900D01*
X16572100Y-18249900D01*
X16572100Y-18503900D01*
X16552100Y-18503900D01*
X16552100Y-18523900D01*
X16298100Y-18523900D01*
X16298100Y-18503900D01*
X15451900Y-18503900D01*
X15451900Y-18523900D01*
X15197900Y-18523900D01*
X15197900Y-18503900D01*
X15177900Y-18503900D01*
X15177900Y-18249900D01*
X15197900Y-18249900D01*
X15197900Y-18050999D01*
X15214600Y-17967040D01*
X15214600Y-17846960D01*
X15197900Y-17763001D01*
X15197900Y-17500600D01*
X15451900Y-17500600D01*
X15451900Y-18249900D01*
X16298100Y-18249900D01*
X16298100Y-17500600D01*
X15451900Y-17500600D01*
X15197900Y-17500600D01*
X15177900Y-17500600D01*
X15177900Y-17246600D01*
X15197900Y-17246600D01*
X15197900Y-16777850D01*
X15451900Y-16777850D01*
X15451900Y-17246600D01*
X16298100Y-17246600D01*
X16298100Y-16777850D01*
X16202850Y-16682600D01*
X16057600Y-16680757D01*
X15982911Y-16688113D01*
X15911092Y-16709899D01*
X15875000Y-16729191D01*
X15838908Y-16709899D01*
X15767089Y-16688113D01*
X15692400Y-16680757D01*
X15547150Y-16682600D01*
X15451900Y-16777850D01*
X15197900Y-16777850D01*
X15102650Y-16682600D01*
X14957400Y-16680757D01*
X14882711Y-16688113D01*
X14810892Y-16709899D01*
X14744704Y-16745278D01*
X14686689Y-16792889D01*
X14654087Y-16832615D01*
X14578922Y-16792438D01*
X14492390Y-16766189D01*
X14488922Y-16765847D01*
X14507276Y-16760280D01*
X14577877Y-16722543D01*
X14620211Y-16687800D01*
X14660037Y-16687800D01*
X14767996Y-16666326D01*
X14869691Y-16624202D01*
X14961214Y-16563048D01*
X15039048Y-16485214D01*
X15100202Y-16393691D01*
X15142326Y-16291996D01*
X15163800Y-16184037D01*
X15163800Y-16073963D01*
X15142326Y-15966004D01*
X15118697Y-15908959D01*
X15137786Y-15928048D01*
X15229309Y-15989202D01*
X15331004Y-16031326D01*
X15438963Y-16052800D01*
X15549037Y-16052800D01*
X15656996Y-16031326D01*
X15758691Y-15989202D01*
X15850214Y-15928048D01*
X15928048Y-15850214D01*
X15989202Y-15758691D01*
X16031326Y-15656996D01*
X16052800Y-15549037D01*
X16052800Y-15438963D01*
X16031326Y-15331004D01*
X15989202Y-15229309D01*
X15928048Y-15137786D01*
X15850214Y-15059952D01*
X15758691Y-14998798D01*
X15656996Y-14956674D01*
X15549037Y-14935200D01*
X15509936Y-14935200D01*
X15340253Y-14765517D01*
X15826250Y-14764000D01*
X15921500Y-14668750D01*
X15921500Y-14256000D01*
X16175500Y-14256000D01*
X16175500Y-14668750D01*
X16270750Y-14764000D01*
X16861000Y-14765843D01*
X16935689Y-14758487D01*
X17007508Y-14736701D01*
X17073696Y-14701322D01*
X17131711Y-14653711D01*
X17179322Y-14595696D01*
X17214701Y-14529508D01*
X17236487Y-14457689D01*
X17243843Y-14383000D01*
X17242000Y-14351250D01*
X17146750Y-14256000D01*
X16175500Y-14256000D01*
X15921500Y-14256000D01*
X14950250Y-14256000D01*
X14883592Y-14322658D01*
X14824775Y-14291219D01*
X14748168Y-14267981D01*
X14688460Y-14262100D01*
X14688453Y-14262100D01*
X14668500Y-14260135D01*
X14648547Y-14262100D01*
X13558837Y-14262100D01*
X13571315Y-14220966D01*
X13580274Y-14130000D01*
X13580274Y-13836967D01*
X13623624Y-13872544D01*
X13694225Y-13910281D01*
X13751075Y-13927526D01*
X13770831Y-13933519D01*
X13778835Y-13934307D01*
X13830540Y-13939400D01*
X13830546Y-13939400D01*
X13850499Y-13941365D01*
X13870452Y-13939400D01*
X14857451Y-13939400D01*
X14853157Y-13983000D01*
X14855000Y-14014750D01*
X14950250Y-14110000D01*
X15921500Y-14110000D01*
X15921500Y-14039274D01*
X16175500Y-14039274D01*
X16175500Y-14110000D01*
X17146750Y-14110000D01*
X17242000Y-14014750D01*
X17243843Y-13983000D01*
X17236487Y-13908311D01*
X17214701Y-13836492D01*
X17179322Y-13770304D01*
X17151970Y-13736975D01*
X17159468Y-13712260D01*
X17167274Y-13633000D01*
X17167274Y-13433000D01*
X17159468Y-13353740D01*
X17139950Y-13289400D01*
X18578124Y-13289400D01*
X18554798Y-13324309D01*
G37*
%TD.AperFunction*%
D32*
X9150226Y-14868500D02*
X9156111Y-14928251D01*
X9173540Y-14985706D01*
X9177706Y-14993500D01*
X9173540Y-15001294D01*
X9156111Y-15058749D01*
X9150226Y-15118500D01*
X9150226Y-15518500D01*
X9156111Y-15578251D01*
X9173540Y-15635706D01*
X9201842Y-15688657D01*
X9239932Y-15735068D01*
X9286343Y-15773158D01*
X9339294Y-15801460D01*
X9396749Y-15818889D01*
X9456500Y-15824774D01*
X9728200Y-15824774D01*
X9728200Y-15930037D01*
X9744250Y-16010726D01*
X9619000Y-16010726D01*
X9528034Y-16019685D01*
X9440565Y-16046219D01*
X9359952Y-16089307D01*
X9330610Y-16113387D01*
X9305754Y-16096779D01*
X9194814Y-16050826D01*
X9077040Y-16027400D01*
X8956960Y-16027400D01*
X8839186Y-16050826D01*
X8728246Y-16096779D01*
X8628402Y-16163492D01*
X8543492Y-16248402D01*
X8504083Y-16307383D01*
X8407400Y-16210700D01*
X8407400Y-15507902D01*
X8845760Y-15069542D01*
X8861258Y-15056824D01*
X8873977Y-15041326D01*
X8873982Y-15041321D01*
X8901702Y-15007543D01*
X8912044Y-14994942D01*
X8949781Y-14924341D01*
X8950984Y-14920375D01*
X8991548Y-14898693D01*
X9062206Y-14840706D01*
X9120193Y-14770048D01*
X9150226Y-14713859D01*
X9150226Y-14868500D01*
%TA.AperFunction,Conductor*%
D33*
G36*
X9150226Y-14868500D02*
G01*
X9156111Y-14928251D01*
X9173540Y-14985706D01*
X9177706Y-14993500D01*
X9173540Y-15001294D01*
X9156111Y-15058749D01*
X9150226Y-15118500D01*
X9150226Y-15518500D01*
X9156111Y-15578251D01*
X9173540Y-15635706D01*
X9201842Y-15688657D01*
X9239932Y-15735068D01*
X9286343Y-15773158D01*
X9339294Y-15801460D01*
X9396749Y-15818889D01*
X9456500Y-15824774D01*
X9728200Y-15824774D01*
X9728200Y-15930037D01*
X9744250Y-16010726D01*
X9619000Y-16010726D01*
X9528034Y-16019685D01*
X9440565Y-16046219D01*
X9359952Y-16089307D01*
X9330610Y-16113387D01*
X9305754Y-16096779D01*
X9194814Y-16050826D01*
X9077040Y-16027400D01*
X8956960Y-16027400D01*
X8839186Y-16050826D01*
X8728246Y-16096779D01*
X8628402Y-16163492D01*
X8543492Y-16248402D01*
X8504083Y-16307383D01*
X8407400Y-16210700D01*
X8407400Y-15507902D01*
X8845760Y-15069542D01*
X8861258Y-15056824D01*
X8873977Y-15041326D01*
X8873982Y-15041321D01*
X8901702Y-15007543D01*
X8912044Y-14994942D01*
X8949781Y-14924341D01*
X8950984Y-14920375D01*
X8991548Y-14898693D01*
X9062206Y-14840706D01*
X9120193Y-14770048D01*
X9150226Y-14713859D01*
X9150226Y-14868500D01*
G37*
%TD.AperFunction*%
D32*
X419342Y-12778843D02*
X391040Y-12831794D01*
X373611Y-12889249D01*
X367726Y-12949000D01*
X367726Y-13599000D01*
X373611Y-13658751D01*
X391040Y-13716206D01*
X419342Y-13769157D01*
X457432Y-13815568D01*
X503843Y-13853658D01*
X534850Y-13870231D01*
X544364Y-13881823D01*
X572518Y-13916130D01*
X572524Y-13916136D01*
X585243Y-13931634D01*
X600741Y-13944353D01*
X1127848Y-14471460D01*
X1074000Y-14466157D01*
X1042250Y-14468000D01*
X947000Y-14563250D01*
X947000Y-15047000D01*
X1017726Y-15047000D01*
X1017726Y-15301000D01*
X947000Y-15301000D01*
X947000Y-15321000D01*
X801000Y-15321000D01*
X801000Y-15301000D01*
X727000Y-15301000D01*
X727000Y-15047000D01*
X801000Y-15047000D01*
X801000Y-14563250D01*
X705750Y-14468000D01*
X674000Y-14466157D01*
X599311Y-14473513D01*
X527492Y-14495299D01*
X461304Y-14530678D01*
X403289Y-14578289D01*
X355678Y-14636304D01*
X329800Y-14684717D01*
X329800Y-12732724D01*
X457301Y-12732592D01*
X419342Y-12778843D01*
%TA.AperFunction,Conductor*%
D33*
G36*
X419342Y-12778843D02*
G01*
X391040Y-12831794D01*
X373611Y-12889249D01*
X367726Y-12949000D01*
X367726Y-13599000D01*
X373611Y-13658751D01*
X391040Y-13716206D01*
X419342Y-13769157D01*
X457432Y-13815568D01*
X503843Y-13853658D01*
X534850Y-13870231D01*
X544364Y-13881823D01*
X572518Y-13916130D01*
X572524Y-13916136D01*
X585243Y-13931634D01*
X600741Y-13944353D01*
X1127848Y-14471460D01*
X1074000Y-14466157D01*
X1042250Y-14468000D01*
X947000Y-14563250D01*
X947000Y-15047000D01*
X1017726Y-15047000D01*
X1017726Y-15301000D01*
X947000Y-15301000D01*
X947000Y-15321000D01*
X801000Y-15321000D01*
X801000Y-15301000D01*
X727000Y-15301000D01*
X727000Y-15047000D01*
X801000Y-15047000D01*
X801000Y-14563250D01*
X705750Y-14468000D01*
X674000Y-14466157D01*
X599311Y-14473513D01*
X527492Y-14495299D01*
X461304Y-14530678D01*
X403289Y-14578289D01*
X355678Y-14636304D01*
X329800Y-14684717D01*
X329800Y-12732724D01*
X457301Y-12732592D01*
X419342Y-12778843D01*
G37*
%TD.AperFunction*%
D32*
X9928500Y-14091500D02*
X9908500Y-14091500D01*
X9908500Y-14162226D01*
X9654500Y-14162226D01*
X9654500Y-14091500D01*
X9634500Y-14091500D01*
X9634500Y-13995400D01*
X9759047Y-13995400D01*
X9779000Y-13997365D01*
X9798953Y-13995400D01*
X9798960Y-13995400D01*
X9858668Y-13989519D01*
X9928500Y-13968336D01*
X9928500Y-14091500D01*
%TA.AperFunction,Conductor*%
D33*
G36*
X9928500Y-14091500D02*
G01*
X9908500Y-14091500D01*
X9908500Y-14162226D01*
X9654500Y-14162226D01*
X9654500Y-14091500D01*
X9634500Y-14091500D01*
X9634500Y-13995400D01*
X9759047Y-13995400D01*
X9779000Y-13997365D01*
X9798953Y-13995400D01*
X9798960Y-13995400D01*
X9858668Y-13989519D01*
X9928500Y-13968336D01*
X9928500Y-14091500D01*
G37*
%TD.AperFunction*%
D32*
X19959000Y-9302002D02*
X20005248Y-9302002D01*
X19959000Y-9348250D01*
X19957157Y-9380000D01*
X19964513Y-9454689D01*
X19984854Y-9521745D01*
X19911611Y-9573312D01*
X19771171Y-9720775D01*
X19662198Y-9892803D01*
X19599316Y-10074508D01*
X19662908Y-10233000D01*
X21063000Y-10233000D01*
X21063000Y-10213000D01*
X21225200Y-10213000D01*
X21225200Y-10507000D01*
X21063000Y-10507000D01*
X21063000Y-10487000D01*
X19662908Y-10487000D01*
X19599316Y-10645492D01*
X19662198Y-10827197D01*
X19771171Y-10999225D01*
X19911611Y-11146688D01*
X20078121Y-11263919D01*
X20264302Y-11346413D01*
X20355755Y-11366935D01*
X20298457Y-11413957D01*
X20280961Y-11435276D01*
X19989512Y-11726726D01*
X19561000Y-11726726D01*
X19481740Y-11734532D01*
X19405526Y-11757652D01*
X19335286Y-11795196D01*
X19273721Y-11845721D01*
X19223196Y-11907286D01*
X19185652Y-11977526D01*
X19162532Y-12053740D01*
X19154726Y-12133000D01*
X19154726Y-12278084D01*
X19105037Y-12268200D01*
X18994963Y-12268200D01*
X18887004Y-12289674D01*
X18785309Y-12331798D01*
X18693786Y-12392952D01*
X18615952Y-12470786D01*
X18612067Y-12476600D01*
X17139950Y-12476600D01*
X17159468Y-12412260D01*
X17167274Y-12333000D01*
X17167274Y-12133000D01*
X17159468Y-12053740D01*
X17136348Y-11977526D01*
X17098804Y-11907286D01*
X17048279Y-11845721D01*
X16986714Y-11795196D01*
X16916474Y-11757652D01*
X16840260Y-11734532D01*
X16761000Y-11726726D01*
X15336000Y-11726726D01*
X15256740Y-11734532D01*
X15180526Y-11757652D01*
X15110286Y-11795196D01*
X15048721Y-11845721D01*
X14998196Y-11907286D01*
X14960652Y-11977526D01*
X14937532Y-12053740D01*
X14929726Y-12133000D01*
X14929726Y-12333000D01*
X14937532Y-12412260D01*
X14960652Y-12488474D01*
X14997814Y-12558000D01*
X14960652Y-12627526D01*
X14937532Y-12703740D01*
X14929726Y-12783000D01*
X14929726Y-12983000D01*
X14937532Y-13062260D01*
X14957050Y-13126600D01*
X14314876Y-13126600D01*
X14338202Y-13091691D01*
X14380326Y-12989996D01*
X14401800Y-12882037D01*
X14401800Y-12771963D01*
X14380326Y-12664004D01*
X14338202Y-12562309D01*
X14277048Y-12470786D01*
X14199214Y-12392952D01*
X14186502Y-12384458D01*
X14186502Y-12289752D01*
X14281750Y-12385000D01*
X14417000Y-12386843D01*
X14491689Y-12379487D01*
X14563508Y-12357701D01*
X14629696Y-12322322D01*
X14687711Y-12274711D01*
X14735322Y-12216696D01*
X14770701Y-12150508D01*
X14792487Y-12078689D01*
X14799843Y-12004000D01*
X14798000Y-11906250D01*
X14702750Y-11811000D01*
X14186500Y-11811000D01*
X14186500Y-11831000D01*
X13932500Y-11831000D01*
X13932500Y-11811000D01*
X13912500Y-11811000D01*
X13912500Y-11557000D01*
X13932500Y-11557000D01*
X13932500Y-11537000D01*
X14186500Y-11537000D01*
X14186500Y-11557000D01*
X14702750Y-11557000D01*
X14798000Y-11461750D01*
X14799843Y-11364000D01*
X14792487Y-11289311D01*
X14770701Y-11217492D01*
X14766452Y-11209544D01*
X14835485Y-11172645D01*
X14897367Y-11121859D01*
X14910092Y-11106354D01*
X15005251Y-11011195D01*
X15020758Y-10998468D01*
X15071544Y-10936586D01*
X15109281Y-10865985D01*
X15111552Y-10858500D01*
X15133206Y-10858500D01*
X15204004Y-10887826D01*
X15311963Y-10909300D01*
X15422037Y-10909300D01*
X15529996Y-10887826D01*
X15600794Y-10858500D01*
X19367500Y-10858500D01*
X19392276Y-10856060D01*
X19416101Y-10848833D01*
X19438057Y-10837097D01*
X19457303Y-10821303D01*
X19473097Y-10802057D01*
X19484833Y-10780101D01*
X19492060Y-10756276D01*
X19494500Y-10731500D01*
X19494500Y-9724526D01*
X19959000Y-9260027D01*
X19959000Y-9302002D01*
%TA.AperFunction,Conductor*%
D33*
G36*
X19959000Y-9302002D02*
G01*
X20005248Y-9302002D01*
X19959000Y-9348250D01*
X19957157Y-9380000D01*
X19964513Y-9454689D01*
X19984854Y-9521745D01*
X19911611Y-9573312D01*
X19771171Y-9720775D01*
X19662198Y-9892803D01*
X19599316Y-10074508D01*
X19662908Y-10233000D01*
X21063000Y-10233000D01*
X21063000Y-10213000D01*
X21225200Y-10213000D01*
X21225200Y-10507000D01*
X21063000Y-10507000D01*
X21063000Y-10487000D01*
X19662908Y-10487000D01*
X19599316Y-10645492D01*
X19662198Y-10827197D01*
X19771171Y-10999225D01*
X19911611Y-11146688D01*
X20078121Y-11263919D01*
X20264302Y-11346413D01*
X20355755Y-11366935D01*
X20298457Y-11413957D01*
X20280961Y-11435276D01*
X19989512Y-11726726D01*
X19561000Y-11726726D01*
X19481740Y-11734532D01*
X19405526Y-11757652D01*
X19335286Y-11795196D01*
X19273721Y-11845721D01*
X19223196Y-11907286D01*
X19185652Y-11977526D01*
X19162532Y-12053740D01*
X19154726Y-12133000D01*
X19154726Y-12278084D01*
X19105037Y-12268200D01*
X18994963Y-12268200D01*
X18887004Y-12289674D01*
X18785309Y-12331798D01*
X18693786Y-12392952D01*
X18615952Y-12470786D01*
X18612067Y-12476600D01*
X17139950Y-12476600D01*
X17159468Y-12412260D01*
X17167274Y-12333000D01*
X17167274Y-12133000D01*
X17159468Y-12053740D01*
X17136348Y-11977526D01*
X17098804Y-11907286D01*
X17048279Y-11845721D01*
X16986714Y-11795196D01*
X16916474Y-11757652D01*
X16840260Y-11734532D01*
X16761000Y-11726726D01*
X15336000Y-11726726D01*
X15256740Y-11734532D01*
X15180526Y-11757652D01*
X15110286Y-11795196D01*
X15048721Y-11845721D01*
X14998196Y-11907286D01*
X14960652Y-11977526D01*
X14937532Y-12053740D01*
X14929726Y-12133000D01*
X14929726Y-12333000D01*
X14937532Y-12412260D01*
X14960652Y-12488474D01*
X14997814Y-12558000D01*
X14960652Y-12627526D01*
X14937532Y-12703740D01*
X14929726Y-12783000D01*
X14929726Y-12983000D01*
X14937532Y-13062260D01*
X14957050Y-13126600D01*
X14314876Y-13126600D01*
X14338202Y-13091691D01*
X14380326Y-12989996D01*
X14401800Y-12882037D01*
X14401800Y-12771963D01*
X14380326Y-12664004D01*
X14338202Y-12562309D01*
X14277048Y-12470786D01*
X14199214Y-12392952D01*
X14186502Y-12384458D01*
X14186502Y-12289752D01*
X14281750Y-12385000D01*
X14417000Y-12386843D01*
X14491689Y-12379487D01*
X14563508Y-12357701D01*
X14629696Y-12322322D01*
X14687711Y-12274711D01*
X14735322Y-12216696D01*
X14770701Y-12150508D01*
X14792487Y-12078689D01*
X14799843Y-12004000D01*
X14798000Y-11906250D01*
X14702750Y-11811000D01*
X14186500Y-11811000D01*
X14186500Y-11831000D01*
X13932500Y-11831000D01*
X13932500Y-11811000D01*
X13912500Y-11811000D01*
X13912500Y-11557000D01*
X13932500Y-11557000D01*
X13932500Y-11537000D01*
X14186500Y-11537000D01*
X14186500Y-11557000D01*
X14702750Y-11557000D01*
X14798000Y-11461750D01*
X14799843Y-11364000D01*
X14792487Y-11289311D01*
X14770701Y-11217492D01*
X14766452Y-11209544D01*
X14835485Y-11172645D01*
X14897367Y-11121859D01*
X14910092Y-11106354D01*
X15005251Y-11011195D01*
X15020758Y-10998468D01*
X15071544Y-10936586D01*
X15109281Y-10865985D01*
X15111552Y-10858500D01*
X15133206Y-10858500D01*
X15204004Y-10887826D01*
X15311963Y-10909300D01*
X15422037Y-10909300D01*
X15529996Y-10887826D01*
X15600794Y-10858500D01*
X19367500Y-10858500D01*
X19392276Y-10856060D01*
X19416101Y-10848833D01*
X19438057Y-10837097D01*
X19457303Y-10821303D01*
X19473097Y-10802057D01*
X19484833Y-10780101D01*
X19492060Y-10756276D01*
X19494500Y-10731500D01*
X19494500Y-9724526D01*
X19959000Y-9260027D01*
X19959000Y-9302002D01*
G37*
%TD.AperFunction*%
D32*
X5802000Y-9077000D02*
X5822000Y-9077000D01*
X5822000Y-9123000D01*
X5802000Y-9123000D01*
X5802000Y-9973000D01*
X5822000Y-9973000D01*
X5822000Y-10227000D01*
X5802000Y-10227000D01*
X5802000Y-10885750D01*
X5897250Y-10981000D01*
X6175000Y-10982843D01*
X6249689Y-10975487D01*
X6321508Y-10953701D01*
X6387696Y-10918322D01*
X6445711Y-10870711D01*
X6457323Y-10856562D01*
X6477000Y-10858500D01*
X7743986Y-10858500D01*
X7727242Y-10872242D01*
X7714518Y-10887746D01*
X7652856Y-10949408D01*
X7637352Y-10962132D01*
X7624629Y-10977635D01*
X7624628Y-10977636D01*
X7620355Y-10982843D01*
X7586566Y-11024015D01*
X7552905Y-11086991D01*
X7548829Y-11094616D01*
X7525591Y-11171222D01*
X7525562Y-11171513D01*
X7519710Y-11230931D01*
X7519710Y-11230937D01*
X7517745Y-11250890D01*
X7519710Y-11270843D01*
X7519710Y-11343040D01*
X7467000Y-11395750D01*
X7467000Y-11874500D01*
X7487000Y-11874500D01*
X7487000Y-12128500D01*
X7467000Y-12128500D01*
X7467000Y-12148500D01*
X7213000Y-12148500D01*
X7213000Y-12128500D01*
X6696750Y-12128500D01*
X6601500Y-12223750D01*
X6599657Y-12321500D01*
X6607013Y-12396189D01*
X6624770Y-12454726D01*
X6380500Y-12454726D01*
X6289534Y-12463685D01*
X6202065Y-12490219D01*
X6121452Y-12533307D01*
X6050794Y-12591294D01*
X6032500Y-12613586D01*
X6014206Y-12591294D01*
X5943548Y-12533307D01*
X5862935Y-12490219D01*
X5775466Y-12463685D01*
X5684500Y-12454726D01*
X5364500Y-12454726D01*
X5273534Y-12463685D01*
X5186065Y-12490219D01*
X5105452Y-12533307D01*
X5034794Y-12591294D01*
X5016500Y-12613586D01*
X4998206Y-12591294D01*
X4927548Y-12533307D01*
X4846935Y-12490219D01*
X4759466Y-12463685D01*
X4668500Y-12454726D01*
X4581375Y-12454726D01*
X4590487Y-12424689D01*
X4597843Y-12350000D01*
X4596000Y-11822250D01*
X4500750Y-11727000D01*
X2342000Y-11727000D01*
X2342000Y-11747000D01*
X2088000Y-11747000D01*
X2088000Y-11727000D01*
X2068000Y-11727000D01*
X2068000Y-11681500D01*
X6599657Y-11681500D01*
X6601500Y-11779250D01*
X6696750Y-11874500D01*
X7213000Y-11874500D01*
X7213000Y-11395750D01*
X7117750Y-11300500D01*
X6982500Y-11298657D01*
X6907811Y-11306013D01*
X6835992Y-11327799D01*
X6769804Y-11363178D01*
X6711789Y-11410789D01*
X6664178Y-11468804D01*
X6628799Y-11534992D01*
X6607013Y-11606811D01*
X6599657Y-11681500D01*
X2068000Y-11681500D01*
X2068000Y-11473000D01*
X2088000Y-11473000D01*
X2088000Y-11453000D01*
X2342000Y-11453000D01*
X2342000Y-11473000D01*
X4500750Y-11473000D01*
X4596000Y-11377750D01*
X4596883Y-11124800D01*
X5190807Y-11124800D01*
X5207000Y-11126395D01*
X5223193Y-11124800D01*
X5271652Y-11120027D01*
X5333819Y-11101169D01*
X5391113Y-11070545D01*
X5441332Y-11029332D01*
X5482545Y-10979113D01*
X5513169Y-10921819D01*
X5513708Y-10920042D01*
X5548000Y-10885750D01*
X5548000Y-10227000D01*
X5536800Y-10227000D01*
X5536800Y-9973000D01*
X5548000Y-9973000D01*
X5548000Y-9123000D01*
X5536800Y-9123000D01*
X5536800Y-9077000D01*
X5548000Y-9077000D01*
X5548000Y-9056274D01*
X5802000Y-9056274D01*
X5802000Y-9077000D01*
%TA.AperFunction,Conductor*%
D33*
G36*
X5802000Y-9077000D02*
G01*
X5822000Y-9077000D01*
X5822000Y-9123000D01*
X5802000Y-9123000D01*
X5802000Y-9973000D01*
X5822000Y-9973000D01*
X5822000Y-10227000D01*
X5802000Y-10227000D01*
X5802000Y-10885750D01*
X5897250Y-10981000D01*
X6175000Y-10982843D01*
X6249689Y-10975487D01*
X6321508Y-10953701D01*
X6387696Y-10918322D01*
X6445711Y-10870711D01*
X6457323Y-10856562D01*
X6477000Y-10858500D01*
X7743986Y-10858500D01*
X7727242Y-10872242D01*
X7714518Y-10887746D01*
X7652856Y-10949408D01*
X7637352Y-10962132D01*
X7624629Y-10977635D01*
X7624628Y-10977636D01*
X7620355Y-10982843D01*
X7586566Y-11024015D01*
X7552905Y-11086991D01*
X7548829Y-11094616D01*
X7525591Y-11171222D01*
X7525562Y-11171513D01*
X7519710Y-11230931D01*
X7519710Y-11230937D01*
X7517745Y-11250890D01*
X7519710Y-11270843D01*
X7519710Y-11343040D01*
X7467000Y-11395750D01*
X7467000Y-11874500D01*
X7487000Y-11874500D01*
X7487000Y-12128500D01*
X7467000Y-12128500D01*
X7467000Y-12148500D01*
X7213000Y-12148500D01*
X7213000Y-12128500D01*
X6696750Y-12128500D01*
X6601500Y-12223750D01*
X6599657Y-12321500D01*
X6607013Y-12396189D01*
X6624770Y-12454726D01*
X6380500Y-12454726D01*
X6289534Y-12463685D01*
X6202065Y-12490219D01*
X6121452Y-12533307D01*
X6050794Y-12591294D01*
X6032500Y-12613586D01*
X6014206Y-12591294D01*
X5943548Y-12533307D01*
X5862935Y-12490219D01*
X5775466Y-12463685D01*
X5684500Y-12454726D01*
X5364500Y-12454726D01*
X5273534Y-12463685D01*
X5186065Y-12490219D01*
X5105452Y-12533307D01*
X5034794Y-12591294D01*
X5016500Y-12613586D01*
X4998206Y-12591294D01*
X4927548Y-12533307D01*
X4846935Y-12490219D01*
X4759466Y-12463685D01*
X4668500Y-12454726D01*
X4581375Y-12454726D01*
X4590487Y-12424689D01*
X4597843Y-12350000D01*
X4596000Y-11822250D01*
X4500750Y-11727000D01*
X2342000Y-11727000D01*
X2342000Y-11747000D01*
X2088000Y-11747000D01*
X2088000Y-11727000D01*
X2068000Y-11727000D01*
X2068000Y-11681500D01*
X6599657Y-11681500D01*
X6601500Y-11779250D01*
X6696750Y-11874500D01*
X7213000Y-11874500D01*
X7213000Y-11395750D01*
X7117750Y-11300500D01*
X6982500Y-11298657D01*
X6907811Y-11306013D01*
X6835992Y-11327799D01*
X6769804Y-11363178D01*
X6711789Y-11410789D01*
X6664178Y-11468804D01*
X6628799Y-11534992D01*
X6607013Y-11606811D01*
X6599657Y-11681500D01*
X2068000Y-11681500D01*
X2068000Y-11473000D01*
X2088000Y-11473000D01*
X2088000Y-11453000D01*
X2342000Y-11453000D01*
X2342000Y-11473000D01*
X4500750Y-11473000D01*
X4596000Y-11377750D01*
X4596883Y-11124800D01*
X5190807Y-11124800D01*
X5207000Y-11126395D01*
X5223193Y-11124800D01*
X5271652Y-11120027D01*
X5333819Y-11101169D01*
X5391113Y-11070545D01*
X5441332Y-11029332D01*
X5482545Y-10979113D01*
X5513169Y-10921819D01*
X5513708Y-10920042D01*
X5548000Y-10885750D01*
X5548000Y-10227000D01*
X5536800Y-10227000D01*
X5536800Y-9973000D01*
X5548000Y-9973000D01*
X5548000Y-9123000D01*
X5536800Y-9123000D01*
X5536800Y-9077000D01*
X5548000Y-9077000D01*
X5548000Y-9056274D01*
X5802000Y-9056274D01*
X5802000Y-9077000D01*
G37*
%TD.AperFunction*%
D32*
X21092000Y-9097000D02*
X21225200Y-9097000D01*
X21225200Y-9253000D01*
X21092000Y-9253000D01*
X21092000Y-9322000D01*
X20838000Y-9322000D01*
X20838000Y-9253000D01*
X20818000Y-9253000D01*
X20818000Y-9097000D01*
X20838000Y-9097000D01*
X20838000Y-9036274D01*
X21092000Y-9036274D01*
X21092000Y-9097000D01*
%TA.AperFunction,Conductor*%
D33*
G36*
X21092000Y-9097000D02*
G01*
X21225200Y-9097000D01*
X21225200Y-9253000D01*
X21092000Y-9253000D01*
X21092000Y-9322000D01*
X20838000Y-9322000D01*
X20838000Y-9253000D01*
X20818000Y-9253000D01*
X20818000Y-9097000D01*
X20838000Y-9097000D01*
X20838000Y-9036274D01*
X21092000Y-9036274D01*
X21092000Y-9097000D01*
G37*
%TD.AperFunction*%
D32*
X13494282Y-7635564D02*
X13585805Y-7696718D01*
X13687500Y-7738842D01*
X13795459Y-7760316D01*
X13839901Y-7760316D01*
X13856494Y-7773934D01*
X13918431Y-7807040D01*
X13927095Y-7811671D01*
X14003701Y-7834909D01*
X14010974Y-7835625D01*
X14063410Y-7840790D01*
X14063417Y-7840790D01*
X14083370Y-7842755D01*
X14103323Y-7840790D01*
X14935200Y-7840790D01*
X14935200Y-8229600D01*
X13195556Y-8229600D01*
X13240221Y-8162754D01*
X13286174Y-8051814D01*
X13309600Y-7934040D01*
X13309600Y-7813960D01*
X13292381Y-7727393D01*
X13373714Y-7673048D01*
X13451548Y-7595214D01*
X13452503Y-7593785D01*
X13494282Y-7635564D01*
%TA.AperFunction,Conductor*%
D33*
G36*
X13494282Y-7635564D02*
G01*
X13585805Y-7696718D01*
X13687500Y-7738842D01*
X13795459Y-7760316D01*
X13839901Y-7760316D01*
X13856494Y-7773934D01*
X13918431Y-7807040D01*
X13927095Y-7811671D01*
X14003701Y-7834909D01*
X14010974Y-7835625D01*
X14063410Y-7840790D01*
X14063417Y-7840790D01*
X14083370Y-7842755D01*
X14103323Y-7840790D01*
X14935200Y-7840790D01*
X14935200Y-8229600D01*
X13195556Y-8229600D01*
X13240221Y-8162754D01*
X13286174Y-8051814D01*
X13309600Y-7934040D01*
X13309600Y-7813960D01*
X13292381Y-7727393D01*
X13373714Y-7673048D01*
X13451548Y-7595214D01*
X13452503Y-7593785D01*
X13494282Y-7635564D01*
G37*
%TD.AperFunction*%
D32*
X15084513Y-4338311D02*
X15077157Y-4413000D01*
X15079000Y-4444750D01*
X15174250Y-4540000D01*
X16070500Y-4540000D01*
X16070500Y-4469274D01*
X16324500Y-4469274D01*
X16324500Y-4540000D01*
X16344500Y-4540000D01*
X16344500Y-4686000D01*
X16324500Y-4686000D01*
X16324500Y-4756726D01*
X16070500Y-4756726D01*
X16070500Y-4686000D01*
X15174250Y-4686000D01*
X15139380Y-4720870D01*
X15048331Y-4702760D01*
X14938257Y-4702760D01*
X14830298Y-4724234D01*
X14728603Y-4766358D01*
X14637080Y-4827512D01*
X14559246Y-4905346D01*
X14498092Y-4996869D01*
X14455968Y-5098564D01*
X14434494Y-5206523D01*
X14434494Y-5316597D01*
X14455968Y-5424556D01*
X14498092Y-5526251D01*
X14559246Y-5617774D01*
X14637080Y-5695608D01*
X14728603Y-5756762D01*
X14830298Y-5798886D01*
X14938257Y-5820360D01*
X15048331Y-5820360D01*
X15136977Y-5802727D01*
X15174250Y-5840000D01*
X16070500Y-5840000D01*
X16070500Y-5769274D01*
X16324500Y-5769274D01*
X16324500Y-5840000D01*
X16344500Y-5840000D01*
X16344500Y-5986000D01*
X16324500Y-5986000D01*
X16324500Y-6060000D01*
X16070500Y-6060000D01*
X16070500Y-5986000D01*
X15174250Y-5986000D01*
X15079000Y-6081250D01*
X15077157Y-6113000D01*
X15077335Y-6114808D01*
X14755504Y-5792978D01*
X14741976Y-5776494D01*
X14676226Y-5722534D01*
X14601212Y-5682439D01*
X14519818Y-5657748D01*
X14456380Y-5651500D01*
X14435170Y-5649411D01*
X14413960Y-5651500D01*
X13697446Y-5651500D01*
X13862259Y-5486688D01*
X13877758Y-5473968D01*
X13890477Y-5458470D01*
X13890482Y-5458465D01*
X13907717Y-5437464D01*
X13928544Y-5412086D01*
X13966281Y-5341485D01*
X13976070Y-5309214D01*
X13989519Y-5264879D01*
X13991136Y-5248457D01*
X13995400Y-5205170D01*
X13995400Y-5205163D01*
X13997365Y-5185210D01*
X13995400Y-5165257D01*
X13995400Y-5121538D01*
X14041963Y-5130800D01*
X14152037Y-5130800D01*
X14259996Y-5109326D01*
X14361691Y-5067202D01*
X14453214Y-5006048D01*
X14531048Y-4928214D01*
X14592202Y-4836691D01*
X14634326Y-4734996D01*
X14655800Y-4627037D01*
X14655800Y-4516963D01*
X14636213Y-4418490D01*
X14707214Y-4371048D01*
X14760263Y-4317999D01*
X15090675Y-4317999D01*
X15084513Y-4338311D01*
%TA.AperFunction,Conductor*%
D33*
G36*
X15084513Y-4338311D02*
G01*
X15077157Y-4413000D01*
X15079000Y-4444750D01*
X15174250Y-4540000D01*
X16070500Y-4540000D01*
X16070500Y-4469274D01*
X16324500Y-4469274D01*
X16324500Y-4540000D01*
X16344500Y-4540000D01*
X16344500Y-4686000D01*
X16324500Y-4686000D01*
X16324500Y-4756726D01*
X16070500Y-4756726D01*
X16070500Y-4686000D01*
X15174250Y-4686000D01*
X15139380Y-4720870D01*
X15048331Y-4702760D01*
X14938257Y-4702760D01*
X14830298Y-4724234D01*
X14728603Y-4766358D01*
X14637080Y-4827512D01*
X14559246Y-4905346D01*
X14498092Y-4996869D01*
X14455968Y-5098564D01*
X14434494Y-5206523D01*
X14434494Y-5316597D01*
X14455968Y-5424556D01*
X14498092Y-5526251D01*
X14559246Y-5617774D01*
X14637080Y-5695608D01*
X14728603Y-5756762D01*
X14830298Y-5798886D01*
X14938257Y-5820360D01*
X15048331Y-5820360D01*
X15136977Y-5802727D01*
X15174250Y-5840000D01*
X16070500Y-5840000D01*
X16070500Y-5769274D01*
X16324500Y-5769274D01*
X16324500Y-5840000D01*
X16344500Y-5840000D01*
X16344500Y-5986000D01*
X16324500Y-5986000D01*
X16324500Y-6060000D01*
X16070500Y-6060000D01*
X16070500Y-5986000D01*
X15174250Y-5986000D01*
X15079000Y-6081250D01*
X15077157Y-6113000D01*
X15077335Y-6114808D01*
X14755504Y-5792978D01*
X14741976Y-5776494D01*
X14676226Y-5722534D01*
X14601212Y-5682439D01*
X14519818Y-5657748D01*
X14456380Y-5651500D01*
X14435170Y-5649411D01*
X14413960Y-5651500D01*
X13697446Y-5651500D01*
X13862259Y-5486688D01*
X13877758Y-5473968D01*
X13890477Y-5458470D01*
X13890482Y-5458465D01*
X13907717Y-5437464D01*
X13928544Y-5412086D01*
X13966281Y-5341485D01*
X13976070Y-5309214D01*
X13989519Y-5264879D01*
X13991136Y-5248457D01*
X13995400Y-5205170D01*
X13995400Y-5205163D01*
X13997365Y-5185210D01*
X13995400Y-5165257D01*
X13995400Y-5121538D01*
X14041963Y-5130800D01*
X14152037Y-5130800D01*
X14259996Y-5109326D01*
X14361691Y-5067202D01*
X14453214Y-5006048D01*
X14531048Y-4928214D01*
X14592202Y-4836691D01*
X14634326Y-4734996D01*
X14655800Y-4627037D01*
X14655800Y-4516963D01*
X14636213Y-4418490D01*
X14707214Y-4371048D01*
X14760263Y-4317999D01*
X15090675Y-4317999D01*
X15084513Y-4338311D01*
G37*
%TD.AperFunction*%
D32*
X12455148Y-4536004D02*
X12433674Y-4643963D01*
X12433674Y-4683064D01*
X12227237Y-4889501D01*
X11584937Y-4889501D01*
X11585487Y-4887689D01*
X11592843Y-4813000D01*
X11591000Y-4781250D01*
X11495750Y-4686000D01*
X10599500Y-4686000D01*
X10599500Y-4756726D01*
X10345500Y-4756726D01*
X10345500Y-4686000D01*
X10325500Y-4686000D01*
X10325500Y-4540000D01*
X10345500Y-4540000D01*
X10345500Y-4508419D01*
X10362956Y-4513714D01*
X10445056Y-4521800D01*
X10599500Y-4521800D01*
X10599500Y-4540000D01*
X11495750Y-4540000D01*
X11513950Y-4521800D01*
X11895576Y-4521800D01*
X11906541Y-4522446D01*
X11922964Y-4521800D01*
X11939444Y-4521800D01*
X11950402Y-4520721D01*
X11984622Y-4519375D01*
X12028605Y-4537593D01*
X12146379Y-4561019D01*
X12266459Y-4561019D01*
X12384233Y-4537593D01*
X12469041Y-4502464D01*
X12455148Y-4536004D01*
%TA.AperFunction,Conductor*%
D33*
G36*
X12455148Y-4536004D02*
G01*
X12433674Y-4643963D01*
X12433674Y-4683064D01*
X12227237Y-4889501D01*
X11584937Y-4889501D01*
X11585487Y-4887689D01*
X11592843Y-4813000D01*
X11591000Y-4781250D01*
X11495750Y-4686000D01*
X10599500Y-4686000D01*
X10599500Y-4756726D01*
X10345500Y-4756726D01*
X10345500Y-4686000D01*
X10325500Y-4686000D01*
X10325500Y-4540000D01*
X10345500Y-4540000D01*
X10345500Y-4508419D01*
X10362956Y-4513714D01*
X10445056Y-4521800D01*
X10599500Y-4521800D01*
X10599500Y-4540000D01*
X11495750Y-4540000D01*
X11513950Y-4521800D01*
X11895576Y-4521800D01*
X11906541Y-4522446D01*
X11922964Y-4521800D01*
X11939444Y-4521800D01*
X11950402Y-4520721D01*
X11984622Y-4519375D01*
X12028605Y-4537593D01*
X12146379Y-4561019D01*
X12266459Y-4561019D01*
X12384233Y-4537593D01*
X12469041Y-4502464D01*
X12455148Y-4536004D01*
G37*
%TD.AperFunction*%
D32*
X21092000Y-3447000D02*
X21225201Y-3447000D01*
X21225201Y-3603000D01*
X21092000Y-3603000D01*
X21092000Y-3663726D01*
X20838000Y-3663726D01*
X20838000Y-3603000D01*
X20818000Y-3603000D01*
X20818000Y-3447000D01*
X20838000Y-3447000D01*
X20838000Y-3378000D01*
X21092000Y-3378000D01*
X21092000Y-3447000D01*
%TA.AperFunction,Conductor*%
D33*
G36*
X21092000Y-3447000D02*
G01*
X21225201Y-3447000D01*
X21225201Y-3603000D01*
X21092000Y-3603000D01*
X21092000Y-3663726D01*
X20838000Y-3663726D01*
X20838000Y-3603000D01*
X20818000Y-3603000D01*
X20818000Y-3447000D01*
X20838000Y-3447000D01*
X20838000Y-3378000D01*
X21092000Y-3378000D01*
X21092000Y-3447000D01*
G37*
%TD.AperFunction*%
D32*
X22977304Y-331678D02*
X22919289Y-379289D01*
X22871678Y-437304D01*
X22836299Y-503492D01*
X22814513Y-575311D01*
X22807157Y-650000D01*
X22809000Y-1177750D01*
X22866450Y-1235200D01*
X21607921Y-1235200D01*
X21590000Y-1233435D01*
X21572079Y-1235200D01*
X21518487Y-1240478D01*
X21449722Y-1261338D01*
X21386347Y-1295212D01*
X21369546Y-1309000D01*
X21317000Y-1309000D01*
X21317000Y-1357613D01*
X21285212Y-1396347D01*
X21251338Y-1459722D01*
X21230478Y-1528487D01*
X21223435Y-1600000D01*
X21225201Y-1617932D01*
X21225201Y-2487000D01*
X21063000Y-2487000D01*
X21063000Y-2467000D01*
X21043000Y-2467000D01*
X21043000Y-2213000D01*
X21063000Y-2213000D01*
X21063000Y-1309000D01*
X20463000Y-1309000D01*
X20264302Y-1353587D01*
X20078121Y-1436081D01*
X19911611Y-1553312D01*
X19841029Y-1627423D01*
X18885803Y-672197D01*
X18866557Y-656403D01*
X18844601Y-644667D01*
X18820776Y-637440D01*
X18796000Y-635000D01*
X7620000Y-635000D01*
X7595224Y-637440D01*
X7571399Y-644667D01*
X7549443Y-656403D01*
X7530197Y-672197D01*
X6514197Y-1688197D01*
X6498403Y-1707443D01*
X6486667Y-1729399D01*
X6479440Y-1753224D01*
X6477000Y-1778000D01*
X6477000Y-1867415D01*
X6445711Y-1829289D01*
X6387696Y-1781678D01*
X6321508Y-1746299D01*
X6249689Y-1724513D01*
X6175000Y-1717157D01*
X5897250Y-1719000D01*
X5802000Y-1814250D01*
X5802000Y-2473000D01*
X5822000Y-2473000D01*
X5822000Y-2727000D01*
X5802000Y-2727000D01*
X5802000Y-3577000D01*
X5822000Y-3577000D01*
X5822000Y-3623000D01*
X5802000Y-3623000D01*
X5802000Y-3643726D01*
X5548000Y-3643726D01*
X5548000Y-3623000D01*
X5536800Y-3623000D01*
X5536800Y-3577000D01*
X5548000Y-3577000D01*
X5548000Y-2727000D01*
X5536800Y-2727000D01*
X5536800Y-2473000D01*
X5548000Y-2473000D01*
X5548000Y-1814250D01*
X5513708Y-1779958D01*
X5513169Y-1778181D01*
X5482545Y-1720887D01*
X5441332Y-1670668D01*
X5391113Y-1629455D01*
X5333819Y-1598831D01*
X5271652Y-1579973D01*
X5223193Y-1575200D01*
X5207000Y-1573605D01*
X5190807Y-1575200D01*
X4596883Y-1575200D01*
X4596000Y-1322250D01*
X4500750Y-1227000D01*
X2342000Y-1227000D01*
X2342000Y-1247000D01*
X2088000Y-1247000D01*
X2088000Y-1227000D01*
X2068000Y-1227000D01*
X2068000Y-973000D01*
X2088000Y-973000D01*
X2088000Y-953000D01*
X2342000Y-953000D01*
X2342000Y-973000D01*
X4500750Y-973000D01*
X4596000Y-877750D01*
X4597843Y-350000D01*
X4595854Y-329800D01*
X22980817Y-329800D01*
X22977304Y-331678D01*
%TA.AperFunction,Conductor*%
D33*
G36*
X22977304Y-331678D02*
G01*
X22919289Y-379289D01*
X22871678Y-437304D01*
X22836299Y-503492D01*
X22814513Y-575311D01*
X22807157Y-650000D01*
X22809000Y-1177750D01*
X22866450Y-1235200D01*
X21607921Y-1235200D01*
X21590000Y-1233435D01*
X21572079Y-1235200D01*
X21518487Y-1240478D01*
X21449722Y-1261338D01*
X21386347Y-1295212D01*
X21369546Y-1309000D01*
X21317000Y-1309000D01*
X21317000Y-1357613D01*
X21285212Y-1396347D01*
X21251338Y-1459722D01*
X21230478Y-1528487D01*
X21223435Y-1600000D01*
X21225201Y-1617932D01*
X21225201Y-2487000D01*
X21063000Y-2487000D01*
X21063000Y-2467000D01*
X21043000Y-2467000D01*
X21043000Y-2213000D01*
X21063000Y-2213000D01*
X21063000Y-1309000D01*
X20463000Y-1309000D01*
X20264302Y-1353587D01*
X20078121Y-1436081D01*
X19911611Y-1553312D01*
X19841029Y-1627423D01*
X18885803Y-672197D01*
X18866557Y-656403D01*
X18844601Y-644667D01*
X18820776Y-637440D01*
X18796000Y-635000D01*
X7620000Y-635000D01*
X7595224Y-637440D01*
X7571399Y-644667D01*
X7549443Y-656403D01*
X7530197Y-672197D01*
X6514197Y-1688197D01*
X6498403Y-1707443D01*
X6486667Y-1729399D01*
X6479440Y-1753224D01*
X6477000Y-1778000D01*
X6477000Y-1867415D01*
X6445711Y-1829289D01*
X6387696Y-1781678D01*
X6321508Y-1746299D01*
X6249689Y-1724513D01*
X6175000Y-1717157D01*
X5897250Y-1719000D01*
X5802000Y-1814250D01*
X5802000Y-2473000D01*
X5822000Y-2473000D01*
X5822000Y-2727000D01*
X5802000Y-2727000D01*
X5802000Y-3577000D01*
X5822000Y-3577000D01*
X5822000Y-3623000D01*
X5802000Y-3623000D01*
X5802000Y-3643726D01*
X5548000Y-3643726D01*
X5548000Y-3623000D01*
X5536800Y-3623000D01*
X5536800Y-3577000D01*
X5548000Y-3577000D01*
X5548000Y-2727000D01*
X5536800Y-2727000D01*
X5536800Y-2473000D01*
X5548000Y-2473000D01*
X5548000Y-1814250D01*
X5513708Y-1779958D01*
X5513169Y-1778181D01*
X5482545Y-1720887D01*
X5441332Y-1670668D01*
X5391113Y-1629455D01*
X5333819Y-1598831D01*
X5271652Y-1579973D01*
X5223193Y-1575200D01*
X5207000Y-1573605D01*
X5190807Y-1575200D01*
X4596883Y-1575200D01*
X4596000Y-1322250D01*
X4500750Y-1227000D01*
X2342000Y-1227000D01*
X2342000Y-1247000D01*
X2088000Y-1247000D01*
X2088000Y-1227000D01*
X2068000Y-1227000D01*
X2068000Y-973000D01*
X2088000Y-973000D01*
X2088000Y-953000D01*
X2342000Y-953000D01*
X2342000Y-973000D01*
X4500750Y-973000D01*
X4596000Y-877750D01*
X4597843Y-350000D01*
X4595854Y-329800D01*
X22980817Y-329800D01*
X22977304Y-331678D01*
G37*
%TD.AperFunction*%
D32*
X19771171Y-2979225D02*
X19911611Y-3126688D01*
X19984854Y-3178255D01*
X19964513Y-3245311D01*
X19957952Y-3311925D01*
X19748500Y-3102474D01*
X19748500Y-2943436D01*
X19771171Y-2979225D01*
%TA.AperFunction,Conductor*%
D33*
G36*
X19771171Y-2979225D02*
G01*
X19911611Y-3126688D01*
X19984854Y-3178255D01*
X19964513Y-3245311D01*
X19957952Y-3311925D01*
X19748500Y-3102474D01*
X19748500Y-2943436D01*
X19771171Y-2979225D01*
G37*
%TD.AperFunction*%
D32*
X24417000Y-1273000D02*
X24437000Y-1273000D01*
X24437000Y-1527000D01*
X24417000Y-1527000D01*
X24417000Y-1785200D01*
X24163000Y-1785200D01*
X24163000Y-1527000D01*
X24143000Y-1527000D01*
X24143000Y-1273000D01*
X24163000Y-1273000D01*
X24163000Y-1253000D01*
X24417000Y-1253000D01*
X24417000Y-1273000D01*
%TA.AperFunction,Conductor*%
D33*
G36*
X24417000Y-1273000D02*
G01*
X24437000Y-1273000D01*
X24437000Y-1527000D01*
X24417000Y-1527000D01*
X24417000Y-1785200D01*
X24163000Y-1785200D01*
X24163000Y-1527000D01*
X24143000Y-1527000D01*
X24143000Y-1273000D01*
X24163000Y-1273000D01*
X24163000Y-1253000D01*
X24417000Y-1253000D01*
X24417000Y-1273000D01*
G37*
%TD.AperFunction*%
%TD*%
D32*
%TO.N,/CC2_RECEP*%
X11024555Y-7038960D02*
X10998200Y-7171455D01*
X10998200Y-7306545D01*
X11015079Y-7391400D01*
X8890000Y-7391400D01*
X8890000Y-6997700D01*
X11041645Y-6997700D01*
X11024555Y-7038960D01*
%TA.AperFunction,Conductor*%
D33*
G36*
X11024555Y-7038960D02*
G01*
X10998200Y-7171455D01*
X10998200Y-7306545D01*
X11015079Y-7391400D01*
X8890000Y-7391400D01*
X8890000Y-6997700D01*
X11041645Y-6997700D01*
X11024555Y-7038960D01*
G37*
%TD.AperFunction*%
%TD*%
D32*
%TO.N,/VBUS_PLUG*%
X21276000Y-7714772D02*
X20590000Y-7714772D01*
X20547071Y-7719000D01*
X20358708Y-7719000D01*
X20339998Y-7717157D01*
X20321288Y-7719000D01*
X20321286Y-7719000D01*
X20265310Y-7724513D01*
X20193491Y-7746299D01*
X20192180Y-7747000D01*
X19685000Y-7747000D01*
X19660224Y-7749440D01*
X19636399Y-7756667D01*
X19614443Y-7768403D01*
X19595197Y-7784197D01*
X19124394Y-8255000D01*
X18721606Y-8255000D01*
X18415000Y-7948394D01*
X18415000Y-7493000D01*
X21276000Y-7493000D01*
X21276000Y-7714772D01*
%TA.AperFunction,Conductor*%
D33*
G36*
X21276000Y-7714772D02*
G01*
X20590000Y-7714772D01*
X20547071Y-7719000D01*
X20358708Y-7719000D01*
X20339998Y-7717157D01*
X20321288Y-7719000D01*
X20321286Y-7719000D01*
X20265310Y-7724513D01*
X20193491Y-7746299D01*
X20192180Y-7747000D01*
X19685000Y-7747000D01*
X19660224Y-7749440D01*
X19636399Y-7756667D01*
X19614443Y-7768403D01*
X19595197Y-7784197D01*
X19124394Y-8255000D01*
X18721606Y-8255000D01*
X18415000Y-7948394D01*
X18415000Y-7493000D01*
X21276000Y-7493000D01*
X21276000Y-7714772D01*
G37*
%TD.AperFunction*%
%TD*%
D32*
%TO.N,/CC2_PLUG*%
X17983200Y-8001000D02*
X17989057Y-8060464D01*
X18006402Y-8117642D01*
X18011938Y-8128000D01*
X15367000Y-8128000D01*
X15367000Y-7840790D01*
X17374157Y-7840790D01*
X17394110Y-7842755D01*
X17414063Y-7840790D01*
X17414070Y-7840790D01*
X17473778Y-7834909D01*
X17550385Y-7811671D01*
X17620986Y-7773934D01*
X17682868Y-7723148D01*
X17695592Y-7707644D01*
X17906716Y-7496521D01*
X17983200Y-7496521D01*
X17983200Y-8001000D01*
%TA.AperFunction,Conductor*%
D33*
G36*
X17983200Y-8001000D02*
G01*
X17989057Y-8060464D01*
X18006402Y-8117642D01*
X18011938Y-8128000D01*
X15367000Y-8128000D01*
X15367000Y-7840790D01*
X17374157Y-7840790D01*
X17394110Y-7842755D01*
X17414063Y-7840790D01*
X17414070Y-7840790D01*
X17473778Y-7834909D01*
X17550385Y-7811671D01*
X17620986Y-7773934D01*
X17682868Y-7723148D01*
X17695592Y-7707644D01*
X17906716Y-7496521D01*
X17983200Y-7496521D01*
X17983200Y-8001000D01*
G37*
%TD.AperFunction*%
%TD*%
D32*
%TO.N,/VBUS_PLUG*%
X19341197Y-4915803D02*
X19360443Y-4931597D01*
X19382399Y-4943333D01*
X19406224Y-4950560D01*
X19431000Y-4953000D01*
X20192180Y-4953000D01*
X20193491Y-4953701D01*
X20265310Y-4975487D01*
X20321286Y-4981000D01*
X20321288Y-4981000D01*
X20339998Y-4982843D01*
X20358708Y-4981000D01*
X20547071Y-4981000D01*
X20590000Y-4985228D01*
X21276001Y-4985228D01*
X21276001Y-5214772D01*
X20590000Y-5214772D01*
X20540207Y-5219676D01*
X20492328Y-5234200D01*
X20473246Y-5244400D01*
X19694389Y-5244400D01*
X19676933Y-5242681D01*
X19659478Y-5244400D01*
X19659471Y-5244400D01*
X19607224Y-5249546D01*
X19540194Y-5269879D01*
X19525373Y-5277801D01*
X18478500Y-5277801D01*
X18478500Y-4318000D01*
X18743394Y-4318000D01*
X19341197Y-4915803D01*
%TA.AperFunction,Conductor*%
D33*
G36*
X19341197Y-4915803D02*
G01*
X19360443Y-4931597D01*
X19382399Y-4943333D01*
X19406224Y-4950560D01*
X19431000Y-4953000D01*
X20192180Y-4953000D01*
X20193491Y-4953701D01*
X20265310Y-4975487D01*
X20321286Y-4981000D01*
X20321288Y-4981000D01*
X20339998Y-4982843D01*
X20358708Y-4981000D01*
X20547071Y-4981000D01*
X20590000Y-4985228D01*
X21276001Y-4985228D01*
X21276001Y-5214772D01*
X20590000Y-5214772D01*
X20540207Y-5219676D01*
X20492328Y-5234200D01*
X20473246Y-5244400D01*
X19694389Y-5244400D01*
X19676933Y-5242681D01*
X19659478Y-5244400D01*
X19659471Y-5244400D01*
X19607224Y-5249546D01*
X19540194Y-5269879D01*
X19525373Y-5277801D01*
X18478500Y-5277801D01*
X18478500Y-4318000D01*
X18743394Y-4318000D01*
X19341197Y-4915803D01*
G37*
%TD.AperFunction*%
%TD*%
D32*
%TO.N,/VBUS_RECEP*%
X7822165Y-8113105D02*
X7833292Y-8126663D01*
X7846850Y-8137790D01*
X7846855Y-8137795D01*
X7881033Y-8165844D01*
X7887439Y-8171101D01*
X7949215Y-8204121D01*
X8016245Y-8224454D01*
X8047973Y-8227579D01*
X8257124Y-8436730D01*
X7513442Y-8440393D01*
X6876305Y-7903856D01*
X6855782Y-7889763D01*
X6832903Y-7879945D01*
X6808548Y-7874779D01*
X6794500Y-7874000D01*
X6670336Y-7874000D01*
X6614866Y-7828478D01*
X6548678Y-7793099D01*
X6476859Y-7771313D01*
X6420883Y-7765800D01*
X6420880Y-7765800D01*
X6402170Y-7763957D01*
X6383460Y-7765800D01*
X6350932Y-7765800D01*
X6316797Y-7737786D01*
X6272672Y-7714200D01*
X6224793Y-7699676D01*
X6175000Y-7694772D01*
X5486000Y-7694772D01*
X5486000Y-7505228D01*
X6175000Y-7505228D01*
X6224793Y-7500324D01*
X6272672Y-7485800D01*
X6316797Y-7462214D01*
X6324856Y-7455600D01*
X7164662Y-7455600D01*
X7822165Y-8113105D01*
%TA.AperFunction,Conductor*%
D33*
G36*
X7822165Y-8113105D02*
G01*
X7833292Y-8126663D01*
X7846850Y-8137790D01*
X7846855Y-8137795D01*
X7881033Y-8165844D01*
X7887439Y-8171101D01*
X7949215Y-8204121D01*
X8016245Y-8224454D01*
X8047973Y-8227579D01*
X8257124Y-8436730D01*
X7513442Y-8440393D01*
X6876305Y-7903856D01*
X6855782Y-7889763D01*
X6832903Y-7879945D01*
X6808548Y-7874779D01*
X6794500Y-7874000D01*
X6670336Y-7874000D01*
X6614866Y-7828478D01*
X6548678Y-7793099D01*
X6476859Y-7771313D01*
X6420883Y-7765800D01*
X6420880Y-7765800D01*
X6402170Y-7763957D01*
X6383460Y-7765800D01*
X6350932Y-7765800D01*
X6316797Y-7737786D01*
X6272672Y-7714200D01*
X6224793Y-7699676D01*
X6175000Y-7694772D01*
X5486000Y-7694772D01*
X5486000Y-7505228D01*
X6175000Y-7505228D01*
X6224793Y-7500324D01*
X6272672Y-7485800D01*
X6316797Y-7462214D01*
X6324856Y-7455600D01*
X7164662Y-7455600D01*
X7822165Y-8113105D01*
G37*
%TD.AperFunction*%
%TD*%
D32*
%TO.N,/VBUS_RECEP*%
X9334500Y-5019179D02*
X9321034Y-5016500D01*
X9268321Y-5016500D01*
X9271000Y-5003034D01*
X9271000Y-4902966D01*
X9251478Y-4804822D01*
X9213184Y-4712372D01*
X9157589Y-4629169D01*
X9086831Y-4558411D01*
X9003628Y-4502816D01*
X8911178Y-4464522D01*
X8813034Y-4445000D01*
X8712966Y-4445000D01*
X8614822Y-4464522D01*
X8522372Y-4502816D01*
X8439169Y-4558411D01*
X8368411Y-4629169D01*
X8312816Y-4712372D01*
X8274522Y-4804822D01*
X8255000Y-4902966D01*
X8255000Y-5003034D01*
X8274522Y-5101178D01*
X8292052Y-5143500D01*
X6238596Y-5143500D01*
X6223000Y-5141964D01*
X6207404Y-5143500D01*
X6160759Y-5148094D01*
X6100910Y-5166249D01*
X6047547Y-5194772D01*
X5486000Y-5194772D01*
X5486000Y-5005228D01*
X6175000Y-5005228D01*
X6224793Y-5000324D01*
X6272672Y-4985800D01*
X6316797Y-4962214D01*
X6350932Y-4934200D01*
X6510460Y-4934200D01*
X6529170Y-4936043D01*
X6547880Y-4934200D01*
X6547883Y-4934200D01*
X6603859Y-4928687D01*
X6675678Y-4906901D01*
X6741866Y-4871522D01*
X6797336Y-4826000D01*
X6985000Y-4826000D01*
X7009776Y-4823560D01*
X7033601Y-4816333D01*
X7055557Y-4804597D01*
X7073268Y-4790312D01*
X8941349Y-2984500D01*
X9334500Y-2984500D01*
X9334500Y-5019179D01*
%TA.AperFunction,Conductor*%
D33*
G36*
X9334500Y-5019179D02*
G01*
X9321034Y-5016500D01*
X9268321Y-5016500D01*
X9271000Y-5003034D01*
X9271000Y-4902966D01*
X9251478Y-4804822D01*
X9213184Y-4712372D01*
X9157589Y-4629169D01*
X9086831Y-4558411D01*
X9003628Y-4502816D01*
X8911178Y-4464522D01*
X8813034Y-4445000D01*
X8712966Y-4445000D01*
X8614822Y-4464522D01*
X8522372Y-4502816D01*
X8439169Y-4558411D01*
X8368411Y-4629169D01*
X8312816Y-4712372D01*
X8274522Y-4804822D01*
X8255000Y-4902966D01*
X8255000Y-5003034D01*
X8274522Y-5101178D01*
X8292052Y-5143500D01*
X6238596Y-5143500D01*
X6223000Y-5141964D01*
X6207404Y-5143500D01*
X6160759Y-5148094D01*
X6100910Y-5166249D01*
X6047547Y-5194772D01*
X5486000Y-5194772D01*
X5486000Y-5005228D01*
X6175000Y-5005228D01*
X6224793Y-5000324D01*
X6272672Y-4985800D01*
X6316797Y-4962214D01*
X6350932Y-4934200D01*
X6510460Y-4934200D01*
X6529170Y-4936043D01*
X6547880Y-4934200D01*
X6547883Y-4934200D01*
X6603859Y-4928687D01*
X6675678Y-4906901D01*
X6741866Y-4871522D01*
X6797336Y-4826000D01*
X6985000Y-4826000D01*
X7009776Y-4823560D01*
X7033601Y-4816333D01*
X7055557Y-4804597D01*
X7073268Y-4790312D01*
X8941349Y-2984500D01*
X9334500Y-2984500D01*
X9334500Y-5019179D01*
G37*
%TD.AperFunction*%
%TD*%
M02*
