%TF.GenerationSoftware,KiCad,Pcbnew,(5.1.7)-1*%
%TF.CreationDate,2020-11-18T22:53:05+01:00*%
%TF.ProjectId,twonkie,74776f6e-6b69-4652-9e6b-696361645f70,rev?*%
%TF.SameCoordinates,PX448d510PY20b3950*%
%TF.FileFunction,Paste,Top*%
%TF.FilePolarity,Positive*%
%FSLAX46Y46*%
G04 Gerber Fmt 4.6, Leading zero omitted, Abs format (unit mm)*
G04 Created by KiCad (PCBNEW (5.1.7)-1) date 2020-11-18 22:53:05*
%MOMM*%
%LPD*%
G01*
G04 APERTURE LIST*
%ADD10R,0.450000X1.300000*%
%ADD11R,1.000000X0.260000*%
%ADD12R,1.250000X0.410000*%
%ADD13R,2.200000X1.500000*%
%ADD14R,4.000000X1.500000*%
%ADD15R,1.000000X0.300000*%
%ADD16R,1.000000X1.000000*%
%ADD17R,0.650000X0.400000*%
%ADD18R,1.050000X1.400000*%
%ADD19R,0.400000X0.650000*%
%ADD20R,1.000000X0.800000*%
G04 APERTURE END LIST*
D10*
%TO.C,J3*%
X6634000Y-19436000D03*
X5984000Y-19436000D03*
X5334000Y-19436000D03*
X4684000Y-19436000D03*
X4034000Y-19436000D03*
%TD*%
%TO.C,R24*%
G36*
G01*
X19845000Y-19635500D02*
X19525000Y-19635500D01*
G75*
G02*
X19365000Y-19475500I0J160000D01*
G01*
X19365000Y-19080500D01*
G75*
G02*
X19525000Y-18920500I160000J0D01*
G01*
X19845000Y-18920500D01*
G75*
G02*
X20005000Y-19080500I0J-160000D01*
G01*
X20005000Y-19475500D01*
G75*
G02*
X19845000Y-19635500I-160000J0D01*
G01*
G37*
G36*
G01*
X19845000Y-20830500D02*
X19525000Y-20830500D01*
G75*
G02*
X19365000Y-20670500I0J160000D01*
G01*
X19365000Y-20275500D01*
G75*
G02*
X19525000Y-20115500I160000J0D01*
G01*
X19845000Y-20115500D01*
G75*
G02*
X20005000Y-20275500I0J-160000D01*
G01*
X20005000Y-20670500D01*
G75*
G02*
X19845000Y-20830500I-160000J0D01*
G01*
G37*
%TD*%
%TO.C,U2*%
G36*
G01*
X16935000Y-7763000D02*
X16935000Y-7963000D01*
G75*
G02*
X16835000Y-8063000I-100000J0D01*
G01*
X15560000Y-8063000D01*
G75*
G02*
X15460000Y-7963000I0J100000D01*
G01*
X15460000Y-7763000D01*
G75*
G02*
X15560000Y-7663000I100000J0D01*
G01*
X16835000Y-7663000D01*
G75*
G02*
X16935000Y-7763000I0J-100000D01*
G01*
G37*
G36*
G01*
X16935000Y-5813000D02*
X16935000Y-6013000D01*
G75*
G02*
X16835000Y-6113000I-100000J0D01*
G01*
X15560000Y-6113000D01*
G75*
G02*
X15460000Y-6013000I0J100000D01*
G01*
X15460000Y-5813000D01*
G75*
G02*
X15560000Y-5713000I100000J0D01*
G01*
X16835000Y-5713000D01*
G75*
G02*
X16935000Y-5813000I0J-100000D01*
G01*
G37*
G36*
G01*
X16935000Y-5163000D02*
X16935000Y-5363000D01*
G75*
G02*
X16835000Y-5463000I-100000J0D01*
G01*
X15560000Y-5463000D01*
G75*
G02*
X15460000Y-5363000I0J100000D01*
G01*
X15460000Y-5163000D01*
G75*
G02*
X15560000Y-5063000I100000J0D01*
G01*
X16835000Y-5063000D01*
G75*
G02*
X16935000Y-5163000I0J-100000D01*
G01*
G37*
G36*
G01*
X16935000Y-4513000D02*
X16935000Y-4713000D01*
G75*
G02*
X16835000Y-4813000I-100000J0D01*
G01*
X15560000Y-4813000D01*
G75*
G02*
X15460000Y-4713000I0J100000D01*
G01*
X15460000Y-4513000D01*
G75*
G02*
X15560000Y-4413000I100000J0D01*
G01*
X16835000Y-4413000D01*
G75*
G02*
X16935000Y-4513000I0J-100000D01*
G01*
G37*
G36*
G01*
X16935000Y-3863000D02*
X16935000Y-4063000D01*
G75*
G02*
X16835000Y-4163000I-100000J0D01*
G01*
X15560000Y-4163000D01*
G75*
G02*
X15460000Y-4063000I0J100000D01*
G01*
X15460000Y-3863000D01*
G75*
G02*
X15560000Y-3763000I100000J0D01*
G01*
X16835000Y-3763000D01*
G75*
G02*
X16935000Y-3863000I0J-100000D01*
G01*
G37*
G36*
G01*
X16935000Y-3213000D02*
X16935000Y-3413000D01*
G75*
G02*
X16835000Y-3513000I-100000J0D01*
G01*
X15560000Y-3513000D01*
G75*
G02*
X15460000Y-3413000I0J100000D01*
G01*
X15460000Y-3213000D01*
G75*
G02*
X15560000Y-3113000I100000J0D01*
G01*
X16835000Y-3113000D01*
G75*
G02*
X16935000Y-3213000I0J-100000D01*
G01*
G37*
G36*
G01*
X11210000Y-3213000D02*
X11210000Y-3413000D01*
G75*
G02*
X11110000Y-3513000I-100000J0D01*
G01*
X9835000Y-3513000D01*
G75*
G02*
X9735000Y-3413000I0J100000D01*
G01*
X9735000Y-3213000D01*
G75*
G02*
X9835000Y-3113000I100000J0D01*
G01*
X11110000Y-3113000D01*
G75*
G02*
X11210000Y-3213000I0J-100000D01*
G01*
G37*
G36*
G01*
X11210000Y-3863000D02*
X11210000Y-4063000D01*
G75*
G02*
X11110000Y-4163000I-100000J0D01*
G01*
X9835000Y-4163000D01*
G75*
G02*
X9735000Y-4063000I0J100000D01*
G01*
X9735000Y-3863000D01*
G75*
G02*
X9835000Y-3763000I100000J0D01*
G01*
X11110000Y-3763000D01*
G75*
G02*
X11210000Y-3863000I0J-100000D01*
G01*
G37*
G36*
G01*
X11210000Y-4513000D02*
X11210000Y-4713000D01*
G75*
G02*
X11110000Y-4813000I-100000J0D01*
G01*
X9835000Y-4813000D01*
G75*
G02*
X9735000Y-4713000I0J100000D01*
G01*
X9735000Y-4513000D01*
G75*
G02*
X9835000Y-4413000I100000J0D01*
G01*
X11110000Y-4413000D01*
G75*
G02*
X11210000Y-4513000I0J-100000D01*
G01*
G37*
G36*
G01*
X11210000Y-5163000D02*
X11210000Y-5363000D01*
G75*
G02*
X11110000Y-5463000I-100000J0D01*
G01*
X9835000Y-5463000D01*
G75*
G02*
X9735000Y-5363000I0J100000D01*
G01*
X9735000Y-5163000D01*
G75*
G02*
X9835000Y-5063000I100000J0D01*
G01*
X11110000Y-5063000D01*
G75*
G02*
X11210000Y-5163000I0J-100000D01*
G01*
G37*
G36*
G01*
X11210000Y-7113000D02*
X11210000Y-7313000D01*
G75*
G02*
X11110000Y-7413000I-100000J0D01*
G01*
X9835000Y-7413000D01*
G75*
G02*
X9735000Y-7313000I0J100000D01*
G01*
X9735000Y-7113000D01*
G75*
G02*
X9835000Y-7013000I100000J0D01*
G01*
X11110000Y-7013000D01*
G75*
G02*
X11210000Y-7113000I0J-100000D01*
G01*
G37*
%TD*%
D11*
%TO.C,J1*%
X21090000Y-8600000D03*
X21090000Y-8100000D03*
X21090000Y-7600000D03*
X21090000Y-7100000D03*
X21090000Y-6600000D03*
X21090000Y-6100000D03*
X21090000Y-5600000D03*
X21090000Y-5100000D03*
X21090000Y-4600000D03*
X21090000Y-4100000D03*
D12*
X20965000Y-9175000D03*
X20965000Y-3525000D03*
D13*
X24290000Y-11300000D03*
X24290000Y-1400000D03*
%TD*%
D14*
%TO.C,J2*%
X2215000Y-11600000D03*
X2215000Y-1100000D03*
D15*
X5675000Y-9100000D03*
X5675000Y-8600000D03*
X5675000Y-8100000D03*
X5675000Y-7600000D03*
X5675000Y-7100000D03*
X5675000Y-6600000D03*
X5675000Y-6100000D03*
X5675000Y-5600000D03*
X5675000Y-5100000D03*
X5675000Y-4600000D03*
X5675000Y-4100000D03*
X5675000Y-3600000D03*
D16*
X5675000Y-2600000D03*
X5675000Y-10100000D03*
%TD*%
D17*
%TO.C,Q3*%
X11681500Y-11161000D03*
X11681500Y-12461000D03*
X9781500Y-11811000D03*
X11681500Y-11811000D03*
X9781500Y-12461000D03*
X9781500Y-11161000D03*
%TD*%
%TO.C,C2*%
G36*
G01*
X14957400Y-18531900D02*
X14957400Y-18221900D01*
G75*
G02*
X15112400Y-18066900I155000J0D01*
G01*
X15537400Y-18066900D01*
G75*
G02*
X15692400Y-18221900I0J-155000D01*
G01*
X15692400Y-18531900D01*
G75*
G02*
X15537400Y-18686900I-155000J0D01*
G01*
X15112400Y-18686900D01*
G75*
G02*
X14957400Y-18531900I0J155000D01*
G01*
G37*
G36*
G01*
X13822400Y-18531900D02*
X13822400Y-18221900D01*
G75*
G02*
X13977400Y-18066900I155000J0D01*
G01*
X14402400Y-18066900D01*
G75*
G02*
X14557400Y-18221900I0J-155000D01*
G01*
X14557400Y-18531900D01*
G75*
G02*
X14402400Y-18686900I-155000J0D01*
G01*
X13977400Y-18686900D01*
G75*
G02*
X13822400Y-18531900I0J155000D01*
G01*
G37*
%TD*%
%TO.C,C4*%
G36*
G01*
X14957400Y-17528600D02*
X14957400Y-17218600D01*
G75*
G02*
X15112400Y-17063600I155000J0D01*
G01*
X15537400Y-17063600D01*
G75*
G02*
X15692400Y-17218600I0J-155000D01*
G01*
X15692400Y-17528600D01*
G75*
G02*
X15537400Y-17683600I-155000J0D01*
G01*
X15112400Y-17683600D01*
G75*
G02*
X14957400Y-17528600I0J155000D01*
G01*
G37*
G36*
G01*
X13822400Y-17528600D02*
X13822400Y-17218600D01*
G75*
G02*
X13977400Y-17063600I155000J0D01*
G01*
X14402400Y-17063600D01*
G75*
G02*
X14557400Y-17218600I0J-155000D01*
G01*
X14557400Y-17528600D01*
G75*
G02*
X14402400Y-17683600I-155000J0D01*
G01*
X13977400Y-17683600D01*
G75*
G02*
X13822400Y-17528600I0J155000D01*
G01*
G37*
%TD*%
%TO.C,R14*%
G36*
G01*
X2208500Y-16543000D02*
X2208500Y-16223000D01*
G75*
G02*
X2368500Y-16063000I160000J0D01*
G01*
X2763500Y-16063000D01*
G75*
G02*
X2923500Y-16223000I0J-160000D01*
G01*
X2923500Y-16543000D01*
G75*
G02*
X2763500Y-16703000I-160000J0D01*
G01*
X2368500Y-16703000D01*
G75*
G02*
X2208500Y-16543000I0J160000D01*
G01*
G37*
G36*
G01*
X1013500Y-16543000D02*
X1013500Y-16223000D01*
G75*
G02*
X1173500Y-16063000I160000J0D01*
G01*
X1568500Y-16063000D01*
G75*
G02*
X1728500Y-16223000I0J-160000D01*
G01*
X1728500Y-16543000D01*
G75*
G02*
X1568500Y-16703000I-160000J0D01*
G01*
X1173500Y-16703000D01*
G75*
G02*
X1013500Y-16543000I0J160000D01*
G01*
G37*
%TD*%
%TO.C,R16*%
G36*
G01*
X13702000Y-11844000D02*
X13702000Y-11524000D01*
G75*
G02*
X13862000Y-11364000I160000J0D01*
G01*
X14257000Y-11364000D01*
G75*
G02*
X14417000Y-11524000I0J-160000D01*
G01*
X14417000Y-11844000D01*
G75*
G02*
X14257000Y-12004000I-160000J0D01*
G01*
X13862000Y-12004000D01*
G75*
G02*
X13702000Y-11844000I0J160000D01*
G01*
G37*
G36*
G01*
X12507000Y-11844000D02*
X12507000Y-11524000D01*
G75*
G02*
X12667000Y-11364000I160000J0D01*
G01*
X13062000Y-11364000D01*
G75*
G02*
X13222000Y-11524000I0J-160000D01*
G01*
X13222000Y-11844000D01*
G75*
G02*
X13062000Y-12004000I-160000J0D01*
G01*
X12667000Y-12004000D01*
G75*
G02*
X12507000Y-11844000I0J160000D01*
G01*
G37*
%TD*%
D18*
%TO.C,SW1*%
X23897500Y-17802000D03*
X23897500Y-14202000D03*
X22457500Y-17802000D03*
X22457500Y-14202000D03*
%TD*%
%TO.C,U5*%
G36*
G01*
X19461000Y-12333000D02*
X19461000Y-12133000D01*
G75*
G02*
X19561000Y-12033000I100000J0D01*
G01*
X20986000Y-12033000D01*
G75*
G02*
X21086000Y-12133000I0J-100000D01*
G01*
X21086000Y-12333000D01*
G75*
G02*
X20986000Y-12433000I-100000J0D01*
G01*
X19561000Y-12433000D01*
G75*
G02*
X19461000Y-12333000I0J100000D01*
G01*
G37*
G36*
G01*
X19461000Y-12983000D02*
X19461000Y-12783000D01*
G75*
G02*
X19561000Y-12683000I100000J0D01*
G01*
X20986000Y-12683000D01*
G75*
G02*
X21086000Y-12783000I0J-100000D01*
G01*
X21086000Y-12983000D01*
G75*
G02*
X20986000Y-13083000I-100000J0D01*
G01*
X19561000Y-13083000D01*
G75*
G02*
X19461000Y-12983000I0J100000D01*
G01*
G37*
G36*
G01*
X19461000Y-13633000D02*
X19461000Y-13433000D01*
G75*
G02*
X19561000Y-13333000I100000J0D01*
G01*
X20986000Y-13333000D01*
G75*
G02*
X21086000Y-13433000I0J-100000D01*
G01*
X21086000Y-13633000D01*
G75*
G02*
X20986000Y-13733000I-100000J0D01*
G01*
X19561000Y-13733000D01*
G75*
G02*
X19461000Y-13633000I0J100000D01*
G01*
G37*
G36*
G01*
X19461000Y-14283000D02*
X19461000Y-14083000D01*
G75*
G02*
X19561000Y-13983000I100000J0D01*
G01*
X20986000Y-13983000D01*
G75*
G02*
X21086000Y-14083000I0J-100000D01*
G01*
X21086000Y-14283000D01*
G75*
G02*
X20986000Y-14383000I-100000J0D01*
G01*
X19561000Y-14383000D01*
G75*
G02*
X19461000Y-14283000I0J100000D01*
G01*
G37*
G36*
G01*
X15236000Y-14283000D02*
X15236000Y-14083000D01*
G75*
G02*
X15336000Y-13983000I100000J0D01*
G01*
X16761000Y-13983000D01*
G75*
G02*
X16861000Y-14083000I0J-100000D01*
G01*
X16861000Y-14283000D01*
G75*
G02*
X16761000Y-14383000I-100000J0D01*
G01*
X15336000Y-14383000D01*
G75*
G02*
X15236000Y-14283000I0J100000D01*
G01*
G37*
G36*
G01*
X15236000Y-13633000D02*
X15236000Y-13433000D01*
G75*
G02*
X15336000Y-13333000I100000J0D01*
G01*
X16761000Y-13333000D01*
G75*
G02*
X16861000Y-13433000I0J-100000D01*
G01*
X16861000Y-13633000D01*
G75*
G02*
X16761000Y-13733000I-100000J0D01*
G01*
X15336000Y-13733000D01*
G75*
G02*
X15236000Y-13633000I0J100000D01*
G01*
G37*
G36*
G01*
X15236000Y-12983000D02*
X15236000Y-12783000D01*
G75*
G02*
X15336000Y-12683000I100000J0D01*
G01*
X16761000Y-12683000D01*
G75*
G02*
X16861000Y-12783000I0J-100000D01*
G01*
X16861000Y-12983000D01*
G75*
G02*
X16761000Y-13083000I-100000J0D01*
G01*
X15336000Y-13083000D01*
G75*
G02*
X15236000Y-12983000I0J100000D01*
G01*
G37*
G36*
G01*
X15236000Y-12333000D02*
X15236000Y-12133000D01*
G75*
G02*
X15336000Y-12033000I100000J0D01*
G01*
X16761000Y-12033000D01*
G75*
G02*
X16861000Y-12133000I0J-100000D01*
G01*
X16861000Y-12333000D01*
G75*
G02*
X16761000Y-12433000I-100000J0D01*
G01*
X15336000Y-12433000D01*
G75*
G02*
X15236000Y-12333000I0J100000D01*
G01*
G37*
%TD*%
%TO.C,R23*%
G36*
G01*
X12794000Y-13575000D02*
X13114000Y-13575000D01*
G75*
G02*
X13274000Y-13735000I0J-160000D01*
G01*
X13274000Y-14130000D01*
G75*
G02*
X13114000Y-14290000I-160000J0D01*
G01*
X12794000Y-14290000D01*
G75*
G02*
X12634000Y-14130000I0J160000D01*
G01*
X12634000Y-13735000D01*
G75*
G02*
X12794000Y-13575000I160000J0D01*
G01*
G37*
G36*
G01*
X12794000Y-12380000D02*
X13114000Y-12380000D01*
G75*
G02*
X13274000Y-12540000I0J-160000D01*
G01*
X13274000Y-12935000D01*
G75*
G02*
X13114000Y-13095000I-160000J0D01*
G01*
X12794000Y-13095000D01*
G75*
G02*
X12634000Y-12935000I0J160000D01*
G01*
X12634000Y-12540000D01*
G75*
G02*
X12794000Y-12380000I160000J0D01*
G01*
G37*
%TD*%
%TO.C,R22*%
G36*
G01*
X10174000Y-16477000D02*
X10174000Y-16797000D01*
G75*
G02*
X10014000Y-16957000I-160000J0D01*
G01*
X9619000Y-16957000D01*
G75*
G02*
X9459000Y-16797000I0J160000D01*
G01*
X9459000Y-16477000D01*
G75*
G02*
X9619000Y-16317000I160000J0D01*
G01*
X10014000Y-16317000D01*
G75*
G02*
X10174000Y-16477000I0J-160000D01*
G01*
G37*
G36*
G01*
X11369000Y-16477000D02*
X11369000Y-16797000D01*
G75*
G02*
X11209000Y-16957000I-160000J0D01*
G01*
X10814000Y-16957000D01*
G75*
G02*
X10654000Y-16797000I0J160000D01*
G01*
X10654000Y-16477000D01*
G75*
G02*
X10814000Y-16317000I160000J0D01*
G01*
X11209000Y-16317000D01*
G75*
G02*
X11369000Y-16477000I0J-160000D01*
G01*
G37*
%TD*%
%TO.C,R21*%
G36*
G01*
X18318500Y-22147500D02*
X18638500Y-22147500D01*
G75*
G02*
X18798500Y-22307500I0J-160000D01*
G01*
X18798500Y-22702500D01*
G75*
G02*
X18638500Y-22862500I-160000J0D01*
G01*
X18318500Y-22862500D01*
G75*
G02*
X18158500Y-22702500I0J160000D01*
G01*
X18158500Y-22307500D01*
G75*
G02*
X18318500Y-22147500I160000J0D01*
G01*
G37*
G36*
G01*
X18318500Y-20952500D02*
X18638500Y-20952500D01*
G75*
G02*
X18798500Y-21112500I0J-160000D01*
G01*
X18798500Y-21507500D01*
G75*
G02*
X18638500Y-21667500I-160000J0D01*
G01*
X18318500Y-21667500D01*
G75*
G02*
X18158500Y-21507500I0J160000D01*
G01*
X18158500Y-21112500D01*
G75*
G02*
X18318500Y-20952500I160000J0D01*
G01*
G37*
%TD*%
%TO.C,R20*%
G36*
G01*
X17302500Y-22147500D02*
X17622500Y-22147500D01*
G75*
G02*
X17782500Y-22307500I0J-160000D01*
G01*
X17782500Y-22702500D01*
G75*
G02*
X17622500Y-22862500I-160000J0D01*
G01*
X17302500Y-22862500D01*
G75*
G02*
X17142500Y-22702500I0J160000D01*
G01*
X17142500Y-22307500D01*
G75*
G02*
X17302500Y-22147500I160000J0D01*
G01*
G37*
G36*
G01*
X17302500Y-20952500D02*
X17622500Y-20952500D01*
G75*
G02*
X17782500Y-21112500I0J-160000D01*
G01*
X17782500Y-21507500D01*
G75*
G02*
X17622500Y-21667500I-160000J0D01*
G01*
X17302500Y-21667500D01*
G75*
G02*
X17142500Y-21507500I0J160000D01*
G01*
X17142500Y-21112500D01*
G75*
G02*
X17302500Y-20952500I160000J0D01*
G01*
G37*
%TD*%
%TO.C,R19*%
G36*
G01*
X16286500Y-22147500D02*
X16606500Y-22147500D01*
G75*
G02*
X16766500Y-22307500I0J-160000D01*
G01*
X16766500Y-22702500D01*
G75*
G02*
X16606500Y-22862500I-160000J0D01*
G01*
X16286500Y-22862500D01*
G75*
G02*
X16126500Y-22702500I0J160000D01*
G01*
X16126500Y-22307500D01*
G75*
G02*
X16286500Y-22147500I160000J0D01*
G01*
G37*
G36*
G01*
X16286500Y-20952500D02*
X16606500Y-20952500D01*
G75*
G02*
X16766500Y-21112500I0J-160000D01*
G01*
X16766500Y-21507500D01*
G75*
G02*
X16606500Y-21667500I-160000J0D01*
G01*
X16286500Y-21667500D01*
G75*
G02*
X16126500Y-21507500I0J160000D01*
G01*
X16126500Y-21112500D01*
G75*
G02*
X16286500Y-20952500I160000J0D01*
G01*
G37*
%TD*%
%TO.C,R18*%
G36*
G01*
X15270500Y-22147500D02*
X15590500Y-22147500D01*
G75*
G02*
X15750500Y-22307500I0J-160000D01*
G01*
X15750500Y-22702500D01*
G75*
G02*
X15590500Y-22862500I-160000J0D01*
G01*
X15270500Y-22862500D01*
G75*
G02*
X15110500Y-22702500I0J160000D01*
G01*
X15110500Y-22307500D01*
G75*
G02*
X15270500Y-22147500I160000J0D01*
G01*
G37*
G36*
G01*
X15270500Y-20952500D02*
X15590500Y-20952500D01*
G75*
G02*
X15750500Y-21112500I0J-160000D01*
G01*
X15750500Y-21507500D01*
G75*
G02*
X15590500Y-21667500I-160000J0D01*
G01*
X15270500Y-21667500D01*
G75*
G02*
X15110500Y-21507500I0J160000D01*
G01*
X15110500Y-21112500D01*
G75*
G02*
X15270500Y-20952500I160000J0D01*
G01*
G37*
%TD*%
%TO.C,R17*%
G36*
G01*
X14254500Y-22147500D02*
X14574500Y-22147500D01*
G75*
G02*
X14734500Y-22307500I0J-160000D01*
G01*
X14734500Y-22702500D01*
G75*
G02*
X14574500Y-22862500I-160000J0D01*
G01*
X14254500Y-22862500D01*
G75*
G02*
X14094500Y-22702500I0J160000D01*
G01*
X14094500Y-22307500D01*
G75*
G02*
X14254500Y-22147500I160000J0D01*
G01*
G37*
G36*
G01*
X14254500Y-20952500D02*
X14574500Y-20952500D01*
G75*
G02*
X14734500Y-21112500I0J-160000D01*
G01*
X14734500Y-21507500D01*
G75*
G02*
X14574500Y-21667500I-160000J0D01*
G01*
X14254500Y-21667500D01*
G75*
G02*
X14094500Y-21507500I0J160000D01*
G01*
X14094500Y-21112500D01*
G75*
G02*
X14254500Y-20952500I160000J0D01*
G01*
G37*
%TD*%
%TO.C,R15*%
G36*
G01*
X3332500Y-13956000D02*
X3652500Y-13956000D01*
G75*
G02*
X3812500Y-14116000I0J-160000D01*
G01*
X3812500Y-14511000D01*
G75*
G02*
X3652500Y-14671000I-160000J0D01*
G01*
X3332500Y-14671000D01*
G75*
G02*
X3172500Y-14511000I0J160000D01*
G01*
X3172500Y-14116000D01*
G75*
G02*
X3332500Y-13956000I160000J0D01*
G01*
G37*
G36*
G01*
X3332500Y-12761000D02*
X3652500Y-12761000D01*
G75*
G02*
X3812500Y-12921000I0J-160000D01*
G01*
X3812500Y-13316000D01*
G75*
G02*
X3652500Y-13476000I-160000J0D01*
G01*
X3332500Y-13476000D01*
G75*
G02*
X3172500Y-13316000I0J160000D01*
G01*
X3172500Y-12921000D01*
G75*
G02*
X3332500Y-12761000I160000J0D01*
G01*
G37*
%TD*%
%TO.C,R13*%
G36*
G01*
X4668500Y-13476000D02*
X4348500Y-13476000D01*
G75*
G02*
X4188500Y-13316000I0J160000D01*
G01*
X4188500Y-12921000D01*
G75*
G02*
X4348500Y-12761000I160000J0D01*
G01*
X4668500Y-12761000D01*
G75*
G02*
X4828500Y-12921000I0J-160000D01*
G01*
X4828500Y-13316000D01*
G75*
G02*
X4668500Y-13476000I-160000J0D01*
G01*
G37*
G36*
G01*
X4668500Y-14671000D02*
X4348500Y-14671000D01*
G75*
G02*
X4188500Y-14511000I0J160000D01*
G01*
X4188500Y-14116000D01*
G75*
G02*
X4348500Y-13956000I160000J0D01*
G01*
X4668500Y-13956000D01*
G75*
G02*
X4828500Y-14116000I0J-160000D01*
G01*
X4828500Y-14511000D01*
G75*
G02*
X4668500Y-14671000I-160000J0D01*
G01*
G37*
%TD*%
%TO.C,R12*%
G36*
G01*
X5684500Y-13476000D02*
X5364500Y-13476000D01*
G75*
G02*
X5204500Y-13316000I0J160000D01*
G01*
X5204500Y-12921000D01*
G75*
G02*
X5364500Y-12761000I160000J0D01*
G01*
X5684500Y-12761000D01*
G75*
G02*
X5844500Y-12921000I0J-160000D01*
G01*
X5844500Y-13316000D01*
G75*
G02*
X5684500Y-13476000I-160000J0D01*
G01*
G37*
G36*
G01*
X5684500Y-14671000D02*
X5364500Y-14671000D01*
G75*
G02*
X5204500Y-14511000I0J160000D01*
G01*
X5204500Y-14116000D01*
G75*
G02*
X5364500Y-13956000I160000J0D01*
G01*
X5684500Y-13956000D01*
G75*
G02*
X5844500Y-14116000I0J-160000D01*
G01*
X5844500Y-14511000D01*
G75*
G02*
X5684500Y-14671000I-160000J0D01*
G01*
G37*
%TD*%
%TO.C,R11*%
G36*
G01*
X6700500Y-13476000D02*
X6380500Y-13476000D01*
G75*
G02*
X6220500Y-13316000I0J160000D01*
G01*
X6220500Y-12921000D01*
G75*
G02*
X6380500Y-12761000I160000J0D01*
G01*
X6700500Y-12761000D01*
G75*
G02*
X6860500Y-12921000I0J-160000D01*
G01*
X6860500Y-13316000D01*
G75*
G02*
X6700500Y-13476000I-160000J0D01*
G01*
G37*
G36*
G01*
X6700500Y-14671000D02*
X6380500Y-14671000D01*
G75*
G02*
X6220500Y-14511000I0J160000D01*
G01*
X6220500Y-14116000D01*
G75*
G02*
X6380500Y-13956000I160000J0D01*
G01*
X6700500Y-13956000D01*
G75*
G02*
X6860500Y-14116000I0J-160000D01*
G01*
X6860500Y-14511000D01*
G75*
G02*
X6700500Y-14671000I-160000J0D01*
G01*
G37*
%TD*%
%TO.C,R10*%
G36*
G01*
X7716500Y-13476000D02*
X7396500Y-13476000D01*
G75*
G02*
X7236500Y-13316000I0J160000D01*
G01*
X7236500Y-12921000D01*
G75*
G02*
X7396500Y-12761000I160000J0D01*
G01*
X7716500Y-12761000D01*
G75*
G02*
X7876500Y-12921000I0J-160000D01*
G01*
X7876500Y-13316000D01*
G75*
G02*
X7716500Y-13476000I-160000J0D01*
G01*
G37*
G36*
G01*
X7716500Y-14671000D02*
X7396500Y-14671000D01*
G75*
G02*
X7236500Y-14511000I0J160000D01*
G01*
X7236500Y-14116000D01*
G75*
G02*
X7396500Y-13956000I160000J0D01*
G01*
X7716500Y-13956000D01*
G75*
G02*
X7876500Y-14116000I0J-160000D01*
G01*
X7876500Y-14511000D01*
G75*
G02*
X7716500Y-14671000I-160000J0D01*
G01*
G37*
%TD*%
%TO.C,R9*%
G36*
G01*
X8732500Y-13476000D02*
X8412500Y-13476000D01*
G75*
G02*
X8252500Y-13316000I0J160000D01*
G01*
X8252500Y-12921000D01*
G75*
G02*
X8412500Y-12761000I160000J0D01*
G01*
X8732500Y-12761000D01*
G75*
G02*
X8892500Y-12921000I0J-160000D01*
G01*
X8892500Y-13316000D01*
G75*
G02*
X8732500Y-13476000I-160000J0D01*
G01*
G37*
G36*
G01*
X8732500Y-14671000D02*
X8412500Y-14671000D01*
G75*
G02*
X8252500Y-14511000I0J160000D01*
G01*
X8252500Y-14116000D01*
G75*
G02*
X8412500Y-13956000I160000J0D01*
G01*
X8732500Y-13956000D01*
G75*
G02*
X8892500Y-14116000I0J-160000D01*
G01*
X8892500Y-14511000D01*
G75*
G02*
X8732500Y-14671000I-160000J0D01*
G01*
G37*
%TD*%
%TO.C,R8*%
G36*
G01*
X7697500Y-11841500D02*
X7697500Y-12161500D01*
G75*
G02*
X7537500Y-12321500I-160000J0D01*
G01*
X7142500Y-12321500D01*
G75*
G02*
X6982500Y-12161500I0J160000D01*
G01*
X6982500Y-11841500D01*
G75*
G02*
X7142500Y-11681500I160000J0D01*
G01*
X7537500Y-11681500D01*
G75*
G02*
X7697500Y-11841500I0J-160000D01*
G01*
G37*
G36*
G01*
X8892500Y-11841500D02*
X8892500Y-12161500D01*
G75*
G02*
X8732500Y-12321500I-160000J0D01*
G01*
X8337500Y-12321500D01*
G75*
G02*
X8177500Y-12161500I0J160000D01*
G01*
X8177500Y-11841500D01*
G75*
G02*
X8337500Y-11681500I160000J0D01*
G01*
X8732500Y-11681500D01*
G75*
G02*
X8892500Y-11841500I0J-160000D01*
G01*
G37*
%TD*%
%TO.C,R7*%
G36*
G01*
X19318000Y-24097000D02*
X19318000Y-24417000D01*
G75*
G02*
X19158000Y-24577000I-160000J0D01*
G01*
X18763000Y-24577000D01*
G75*
G02*
X18603000Y-24417000I0J160000D01*
G01*
X18603000Y-24097000D01*
G75*
G02*
X18763000Y-23937000I160000J0D01*
G01*
X19158000Y-23937000D01*
G75*
G02*
X19318000Y-24097000I0J-160000D01*
G01*
G37*
G36*
G01*
X20513000Y-24097000D02*
X20513000Y-24417000D01*
G75*
G02*
X20353000Y-24577000I-160000J0D01*
G01*
X19958000Y-24577000D01*
G75*
G02*
X19798000Y-24417000I0J160000D01*
G01*
X19798000Y-24097000D01*
G75*
G02*
X19958000Y-23937000I160000J0D01*
G01*
X20353000Y-23937000D01*
G75*
G02*
X20513000Y-24097000I0J-160000D01*
G01*
G37*
%TD*%
%TO.C,R6*%
G36*
G01*
X21877000Y-19635500D02*
X21557000Y-19635500D01*
G75*
G02*
X21397000Y-19475500I0J160000D01*
G01*
X21397000Y-19080500D01*
G75*
G02*
X21557000Y-18920500I160000J0D01*
G01*
X21877000Y-18920500D01*
G75*
G02*
X22037000Y-19080500I0J-160000D01*
G01*
X22037000Y-19475500D01*
G75*
G02*
X21877000Y-19635500I-160000J0D01*
G01*
G37*
G36*
G01*
X21877000Y-20830500D02*
X21557000Y-20830500D01*
G75*
G02*
X21397000Y-20670500I0J160000D01*
G01*
X21397000Y-20275500D01*
G75*
G02*
X21557000Y-20115500I160000J0D01*
G01*
X21877000Y-20115500D01*
G75*
G02*
X22037000Y-20275500I0J-160000D01*
G01*
X22037000Y-20670500D01*
G75*
G02*
X21877000Y-20830500I-160000J0D01*
G01*
G37*
%TD*%
%TO.C,R5*%
G36*
G01*
X23763000Y-20922000D02*
X23763000Y-21242000D01*
G75*
G02*
X23603000Y-21402000I-160000J0D01*
G01*
X23208000Y-21402000D01*
G75*
G02*
X23048000Y-21242000I0J160000D01*
G01*
X23048000Y-20922000D01*
G75*
G02*
X23208000Y-20762000I160000J0D01*
G01*
X23603000Y-20762000D01*
G75*
G02*
X23763000Y-20922000I0J-160000D01*
G01*
G37*
G36*
G01*
X24958000Y-20922000D02*
X24958000Y-21242000D01*
G75*
G02*
X24798000Y-21402000I-160000J0D01*
G01*
X24403000Y-21402000D01*
G75*
G02*
X24243000Y-21242000I0J160000D01*
G01*
X24243000Y-20922000D01*
G75*
G02*
X24403000Y-20762000I160000J0D01*
G01*
X24798000Y-20762000D01*
G75*
G02*
X24958000Y-20922000I0J-160000D01*
G01*
G37*
%TD*%
%TO.C,R1*%
G36*
G01*
X20541000Y-20115500D02*
X20861000Y-20115500D01*
G75*
G02*
X21021000Y-20275500I0J-160000D01*
G01*
X21021000Y-20670500D01*
G75*
G02*
X20861000Y-20830500I-160000J0D01*
G01*
X20541000Y-20830500D01*
G75*
G02*
X20381000Y-20670500I0J160000D01*
G01*
X20381000Y-20275500D01*
G75*
G02*
X20541000Y-20115500I160000J0D01*
G01*
G37*
G36*
G01*
X20541000Y-18920500D02*
X20861000Y-18920500D01*
G75*
G02*
X21021000Y-19080500I0J-160000D01*
G01*
X21021000Y-19475500D01*
G75*
G02*
X20861000Y-19635500I-160000J0D01*
G01*
X20541000Y-19635500D01*
G75*
G02*
X20381000Y-19475500I0J160000D01*
G01*
X20381000Y-19080500D01*
G75*
G02*
X20541000Y-18920500I160000J0D01*
G01*
G37*
%TD*%
D17*
%TO.C,Q2*%
X9781500Y-15318500D03*
X9781500Y-14018500D03*
X11681500Y-14668500D03*
X9781500Y-14668500D03*
X11681500Y-14018500D03*
X11681500Y-15318500D03*
%TD*%
D19*
%TO.C,Q1*%
X2174000Y-15174000D03*
X874000Y-15174000D03*
X1524000Y-13274000D03*
X1524000Y-15174000D03*
X874000Y-13274000D03*
X2174000Y-13274000D03*
%TD*%
%TO.C,FB2*%
G36*
G01*
X16065000Y-19552900D02*
X16065000Y-19232900D01*
G75*
G02*
X16225000Y-19072900I160000J0D01*
G01*
X16670000Y-19072900D01*
G75*
G02*
X16830000Y-19232900I0J-160000D01*
G01*
X16830000Y-19552900D01*
G75*
G02*
X16670000Y-19712900I-160000J0D01*
G01*
X16225000Y-19712900D01*
G75*
G02*
X16065000Y-19552900I0J160000D01*
G01*
G37*
G36*
G01*
X14920000Y-19552900D02*
X14920000Y-19232900D01*
G75*
G02*
X15080000Y-19072900I160000J0D01*
G01*
X15525000Y-19072900D01*
G75*
G02*
X15685000Y-19232900I0J-160000D01*
G01*
X15685000Y-19552900D01*
G75*
G02*
X15525000Y-19712900I-160000J0D01*
G01*
X15080000Y-19712900D01*
G75*
G02*
X14920000Y-19552900I0J160000D01*
G01*
G37*
%TD*%
D20*
%TO.C,DS2*%
X24237000Y-22795000D03*
X21737000Y-22795000D03*
X21737000Y-24195000D03*
X24237000Y-24195000D03*
%TD*%
%TO.C,C6*%
G36*
G01*
X16792600Y-17218600D02*
X16792600Y-17528600D01*
G75*
G02*
X16637600Y-17683600I-155000J0D01*
G01*
X16212600Y-17683600D01*
G75*
G02*
X16057600Y-17528600I0J155000D01*
G01*
X16057600Y-17218600D01*
G75*
G02*
X16212600Y-17063600I155000J0D01*
G01*
X16637600Y-17063600D01*
G75*
G02*
X16792600Y-17218600I0J-155000D01*
G01*
G37*
G36*
G01*
X17927600Y-17218600D02*
X17927600Y-17528600D01*
G75*
G02*
X17772600Y-17683600I-155000J0D01*
G01*
X17347600Y-17683600D01*
G75*
G02*
X17192600Y-17528600I0J155000D01*
G01*
X17192600Y-17218600D01*
G75*
G02*
X17347600Y-17063600I155000J0D01*
G01*
X17772600Y-17063600D01*
G75*
G02*
X17927600Y-17218600I0J-155000D01*
G01*
G37*
%TD*%
%TO.C,C5*%
G36*
G01*
X16792600Y-18221900D02*
X16792600Y-18531900D01*
G75*
G02*
X16637600Y-18686900I-155000J0D01*
G01*
X16212600Y-18686900D01*
G75*
G02*
X16057600Y-18531900I0J155000D01*
G01*
X16057600Y-18221900D01*
G75*
G02*
X16212600Y-18066900I155000J0D01*
G01*
X16637600Y-18066900D01*
G75*
G02*
X16792600Y-18221900I0J-155000D01*
G01*
G37*
G36*
G01*
X17927600Y-18221900D02*
X17927600Y-18531900D01*
G75*
G02*
X17772600Y-18686900I-155000J0D01*
G01*
X17347600Y-18686900D01*
G75*
G02*
X17192600Y-18531900I0J155000D01*
G01*
X17192600Y-18221900D01*
G75*
G02*
X17347600Y-18066900I155000J0D01*
G01*
X17772600Y-18066900D01*
G75*
G02*
X17927600Y-18221900I0J-155000D01*
G01*
G37*
%TD*%
M02*
