%TF.GenerationSoftware,KiCad,Pcbnew,(5.1.7)-1*%
%TF.CreationDate,2020-11-18T22:53:05+01:00*%
%TF.ProjectId,twonkie,74776f6e-6b69-4652-9e6b-696361645f70,rev?*%
%TF.SameCoordinates,PX448d510PY20b3950*%
%TF.FileFunction,Copper,L4,Bot*%
%TF.FilePolarity,Positive*%
%FSLAX46Y46*%
G04 Gerber Fmt 4.6, Leading zero omitted, Abs format (unit mm)*
G04 Created by KiCad (PCBNEW (5.1.7)-1) date 2020-11-18 22:53:05*
%MOMM*%
%LPD*%
G01*
G04 APERTURE LIST*
%TA.AperFunction,ComponentPad*%
%ADD10O,1.150000X1.800000*%
%TD*%
%TA.AperFunction,ComponentPad*%
%ADD11O,1.450000X2.000000*%
%TD*%
%TA.AperFunction,SMDPad,CuDef*%
%ADD12R,1.000000X0.260000*%
%TD*%
%TA.AperFunction,SMDPad,CuDef*%
%ADD13R,1.250000X0.410000*%
%TD*%
%TA.AperFunction,ComponentPad*%
%ADD14O,2.500000X1.300000*%
%TD*%
%TA.AperFunction,SMDPad,CuDef*%
%ADD15R,2.200000X1.500000*%
%TD*%
%TA.AperFunction,SMDPad,CuDef*%
%ADD16R,4.000000X1.500000*%
%TD*%
%TA.AperFunction,SMDPad,CuDef*%
%ADD17R,1.000000X0.300000*%
%TD*%
%TA.AperFunction,SMDPad,CuDef*%
%ADD18R,1.000000X1.000000*%
%TD*%
%TA.AperFunction,SMDPad,CuDef*%
%ADD19C,1.000000*%
%TD*%
%TA.AperFunction,SMDPad,CuDef*%
%ADD20R,0.650000X1.560000*%
%TD*%
%TA.AperFunction,SMDPad,CuDef*%
%ADD21R,1.000000X0.800000*%
%TD*%
%TA.AperFunction,SMDPad,CuDef*%
%ADD22R,0.900000X1.200000*%
%TD*%
%TA.AperFunction,ViaPad*%
%ADD23C,0.609600*%
%TD*%
%TA.AperFunction,ViaPad*%
%ADD24C,0.508000*%
%TD*%
%TA.AperFunction,ViaPad*%
%ADD25C,0.457200*%
%TD*%
%TA.AperFunction,Conductor*%
%ADD26C,0.508000*%
%TD*%
%TA.AperFunction,Conductor*%
%ADD27C,0.304800*%
%TD*%
%TA.AperFunction,Conductor*%
%ADD28C,0.203200*%
%TD*%
%TA.AperFunction,Conductor*%
%ADD29C,0.248920*%
%TD*%
%TA.AperFunction,Conductor*%
%ADD30C,0.254000*%
%TD*%
%TA.AperFunction,Conductor*%
%ADD31C,0.100000*%
%TD*%
G04 APERTURE END LIST*
D10*
%TO.P,J3,6*%
%TO.N,GND*%
X9209000Y-23286000D03*
X1459000Y-23286000D03*
D11*
X9059000Y-19486000D03*
X1609000Y-19486000D03*
%TD*%
D12*
%TO.P,J1,B2*%
%TO.N,/TX2+*%
X21090000Y-8600000D03*
%TO.P,J1,B3*%
%TO.N,/TX2-*%
X21090000Y-8100000D03*
%TO.P,J1,B4*%
%TO.N,/VBUS_PLUG*%
X21090000Y-7600000D03*
%TO.P,J1,B5*%
%TO.N,/CC2_PLUG*%
X21090000Y-7100000D03*
%TO.P,J1,B6*%
%TO.N,N/C*%
X21090000Y-6600000D03*
%TO.P,J1,B7*%
X21090000Y-6100000D03*
%TO.P,J1,B8*%
%TO.N,/SBU2*%
X21090000Y-5600000D03*
%TO.P,J1,B9*%
%TO.N,/VBUS_PLUG*%
X21090000Y-5100000D03*
%TO.P,J1,B10*%
%TO.N,/RX1-*%
X21090000Y-4600000D03*
%TO.P,J1,B11*%
%TO.N,/RX1+*%
X21090000Y-4100000D03*
D13*
%TO.P,J1,B1*%
%TO.N,GND*%
X20965000Y-9175000D03*
%TO.P,J1,B12*%
X20965000Y-3525000D03*
D14*
%TO.P,J1,S1*%
X21190000Y-10360000D03*
%TO.P,J1,S2*%
X21190000Y-2340000D03*
D15*
%TO.P,J1,S5*%
X24290000Y-11300000D03*
%TO.P,J1,S6*%
X24290000Y-1400000D03*
%TD*%
D16*
%TO.P,J2,S7*%
%TO.N,GND*%
X2215000Y-1100000D03*
%TO.P,J2,S8*%
X2215000Y-11600000D03*
D17*
%TO.P,J2,B12*%
X5675000Y-3600000D03*
%TO.P,J2,B11*%
%TO.N,/RX1+*%
X5675000Y-4100000D03*
%TO.P,J2,B10*%
%TO.N,/RX1-*%
X5675000Y-4600000D03*
%TO.P,J2,B9*%
%TO.N,/VBUS_RECEP*%
X5675000Y-5100000D03*
%TO.P,J2,B8*%
%TO.N,/SBU2*%
X5675000Y-5600000D03*
%TO.P,J2,B5*%
%TO.N,/CC2_RECEP*%
X5675000Y-7100000D03*
%TO.P,J2,B4*%
%TO.N,/VBUS_RECEP*%
X5675000Y-7600000D03*
%TO.P,J2,B3*%
%TO.N,/TX2-*%
X5675000Y-8100000D03*
%TO.P,J2,B2*%
%TO.N,/TX2+*%
X5675000Y-8600000D03*
%TO.P,J2,B1*%
%TO.N,GND*%
X5675000Y-9100000D03*
%TO.P,J2,B7*%
%TO.N,/USBC_D-*%
X5675000Y-6100000D03*
%TO.P,J2,B6*%
%TO.N,/USBC_D+*%
X5675000Y-6600000D03*
D18*
%TO.P,J2,S3*%
%TO.N,GND*%
X5675000Y-10100000D03*
%TO.P,J2,S4*%
X5675000Y-2600000D03*
%TD*%
%TO.P,U4,48*%
%TO.N,+3V3*%
%TA.AperFunction,SMDPad,CuDef*%
G36*
G01*
X11050000Y-15197500D02*
X12375000Y-15197500D01*
G75*
G02*
X12450000Y-15272500I0J-75000D01*
G01*
X12450000Y-15422500D01*
G75*
G02*
X12375000Y-15497500I-75000J0D01*
G01*
X11050000Y-15497500D01*
G75*
G02*
X10975000Y-15422500I0J75000D01*
G01*
X10975000Y-15272500D01*
G75*
G02*
X11050000Y-15197500I75000J0D01*
G01*
G37*
%TD.AperFunction*%
%TO.P,U4,47*%
%TO.N,GND*%
%TA.AperFunction,SMDPad,CuDef*%
G36*
G01*
X11050000Y-15697500D02*
X12375000Y-15697500D01*
G75*
G02*
X12450000Y-15772500I0J-75000D01*
G01*
X12450000Y-15922500D01*
G75*
G02*
X12375000Y-15997500I-75000J0D01*
G01*
X11050000Y-15997500D01*
G75*
G02*
X10975000Y-15922500I0J75000D01*
G01*
X10975000Y-15772500D01*
G75*
G02*
X11050000Y-15697500I75000J0D01*
G01*
G37*
%TD.AperFunction*%
%TO.P,U4,46*%
%TO.N,/TX_CLK*%
%TA.AperFunction,SMDPad,CuDef*%
G36*
G01*
X11050000Y-16197500D02*
X12375000Y-16197500D01*
G75*
G02*
X12450000Y-16272500I0J-75000D01*
G01*
X12450000Y-16422500D01*
G75*
G02*
X12375000Y-16497500I-75000J0D01*
G01*
X11050000Y-16497500D01*
G75*
G02*
X10975000Y-16422500I0J75000D01*
G01*
X10975000Y-16272500D01*
G75*
G02*
X11050000Y-16197500I75000J0D01*
G01*
G37*
%TD.AperFunction*%
%TO.P,U4,45*%
%TO.N,/CC1_RA*%
%TA.AperFunction,SMDPad,CuDef*%
G36*
G01*
X11050000Y-16697500D02*
X12375000Y-16697500D01*
G75*
G02*
X12450000Y-16772500I0J-75000D01*
G01*
X12450000Y-16922500D01*
G75*
G02*
X12375000Y-16997500I-75000J0D01*
G01*
X11050000Y-16997500D01*
G75*
G02*
X10975000Y-16922500I0J75000D01*
G01*
X10975000Y-16772500D01*
G75*
G02*
X11050000Y-16697500I75000J0D01*
G01*
G37*
%TD.AperFunction*%
%TO.P,U4,44*%
%TO.N,/BOOT*%
%TA.AperFunction,SMDPad,CuDef*%
G36*
G01*
X11050000Y-17197500D02*
X12375000Y-17197500D01*
G75*
G02*
X12450000Y-17272500I0J-75000D01*
G01*
X12450000Y-17422500D01*
G75*
G02*
X12375000Y-17497500I-75000J0D01*
G01*
X11050000Y-17497500D01*
G75*
G02*
X10975000Y-17422500I0J75000D01*
G01*
X10975000Y-17272500D01*
G75*
G02*
X11050000Y-17197500I75000J0D01*
G01*
G37*
%TD.AperFunction*%
%TO.P,U4,43*%
%TO.N,/INA_SDA*%
%TA.AperFunction,SMDPad,CuDef*%
G36*
G01*
X11050000Y-17697500D02*
X12375000Y-17697500D01*
G75*
G02*
X12450000Y-17772500I0J-75000D01*
G01*
X12450000Y-17922500D01*
G75*
G02*
X12375000Y-17997500I-75000J0D01*
G01*
X11050000Y-17997500D01*
G75*
G02*
X10975000Y-17922500I0J75000D01*
G01*
X10975000Y-17772500D01*
G75*
G02*
X11050000Y-17697500I75000J0D01*
G01*
G37*
%TD.AperFunction*%
%TO.P,U4,42*%
%TO.N,/INA_SCL*%
%TA.AperFunction,SMDPad,CuDef*%
G36*
G01*
X11050000Y-18197500D02*
X12375000Y-18197500D01*
G75*
G02*
X12450000Y-18272500I0J-75000D01*
G01*
X12450000Y-18422500D01*
G75*
G02*
X12375000Y-18497500I-75000J0D01*
G01*
X11050000Y-18497500D01*
G75*
G02*
X10975000Y-18422500I0J75000D01*
G01*
X10975000Y-18272500D01*
G75*
G02*
X11050000Y-18197500I75000J0D01*
G01*
G37*
%TD.AperFunction*%
%TO.P,U4,41*%
%TO.N,/CC1_RP1A5*%
%TA.AperFunction,SMDPad,CuDef*%
G36*
G01*
X11050000Y-18697500D02*
X12375000Y-18697500D01*
G75*
G02*
X12450000Y-18772500I0J-75000D01*
G01*
X12450000Y-18922500D01*
G75*
G02*
X12375000Y-18997500I-75000J0D01*
G01*
X11050000Y-18997500D01*
G75*
G02*
X10975000Y-18922500I0J75000D01*
G01*
X10975000Y-18772500D01*
G75*
G02*
X11050000Y-18697500I75000J0D01*
G01*
G37*
%TD.AperFunction*%
%TO.P,U4,40*%
%TO.N,/CC1_TX_DATA*%
%TA.AperFunction,SMDPad,CuDef*%
G36*
G01*
X11050000Y-19197500D02*
X12375000Y-19197500D01*
G75*
G02*
X12450000Y-19272500I0J-75000D01*
G01*
X12450000Y-19422500D01*
G75*
G02*
X12375000Y-19497500I-75000J0D01*
G01*
X11050000Y-19497500D01*
G75*
G02*
X10975000Y-19422500I0J75000D01*
G01*
X10975000Y-19272500D01*
G75*
G02*
X11050000Y-19197500I75000J0D01*
G01*
G37*
%TD.AperFunction*%
%TO.P,U4,39*%
%TO.N,/CC1_RD*%
%TA.AperFunction,SMDPad,CuDef*%
G36*
G01*
X11050000Y-19697500D02*
X12375000Y-19697500D01*
G75*
G02*
X12450000Y-19772500I0J-75000D01*
G01*
X12450000Y-19922500D01*
G75*
G02*
X12375000Y-19997500I-75000J0D01*
G01*
X11050000Y-19997500D01*
G75*
G02*
X10975000Y-19922500I0J75000D01*
G01*
X10975000Y-19772500D01*
G75*
G02*
X11050000Y-19697500I75000J0D01*
G01*
G37*
%TD.AperFunction*%
%TO.P,U4,38*%
%TO.N,/CC1_RPUSB*%
%TA.AperFunction,SMDPad,CuDef*%
G36*
G01*
X11050000Y-20197500D02*
X12375000Y-20197500D01*
G75*
G02*
X12450000Y-20272500I0J-75000D01*
G01*
X12450000Y-20422500D01*
G75*
G02*
X12375000Y-20497500I-75000J0D01*
G01*
X11050000Y-20497500D01*
G75*
G02*
X10975000Y-20422500I0J75000D01*
G01*
X10975000Y-20272500D01*
G75*
G02*
X11050000Y-20197500I75000J0D01*
G01*
G37*
%TD.AperFunction*%
%TO.P,U4,37*%
%TO.N,/CC1_TX_EN*%
%TA.AperFunction,SMDPad,CuDef*%
G36*
G01*
X11050000Y-20697500D02*
X12375000Y-20697500D01*
G75*
G02*
X12450000Y-20772500I0J-75000D01*
G01*
X12450000Y-20922500D01*
G75*
G02*
X12375000Y-20997500I-75000J0D01*
G01*
X11050000Y-20997500D01*
G75*
G02*
X10975000Y-20922500I0J75000D01*
G01*
X10975000Y-20772500D01*
G75*
G02*
X11050000Y-20697500I75000J0D01*
G01*
G37*
%TD.AperFunction*%
%TO.P,U4,36*%
%TO.N,+3V3*%
%TA.AperFunction,SMDPad,CuDef*%
G36*
G01*
X13050000Y-21522500D02*
X13200000Y-21522500D01*
G75*
G02*
X13275000Y-21597500I0J-75000D01*
G01*
X13275000Y-22922500D01*
G75*
G02*
X13200000Y-22997500I-75000J0D01*
G01*
X13050000Y-22997500D01*
G75*
G02*
X12975000Y-22922500I0J75000D01*
G01*
X12975000Y-21597500D01*
G75*
G02*
X13050000Y-21522500I75000J0D01*
G01*
G37*
%TD.AperFunction*%
%TO.P,U4,35*%
%TO.N,GND*%
%TA.AperFunction,SMDPad,CuDef*%
G36*
G01*
X13550000Y-21522500D02*
X13700000Y-21522500D01*
G75*
G02*
X13775000Y-21597500I0J-75000D01*
G01*
X13775000Y-22922500D01*
G75*
G02*
X13700000Y-22997500I-75000J0D01*
G01*
X13550000Y-22997500D01*
G75*
G02*
X13475000Y-22922500I0J75000D01*
G01*
X13475000Y-21597500D01*
G75*
G02*
X13550000Y-21522500I75000J0D01*
G01*
G37*
%TD.AperFunction*%
%TO.P,U4,34*%
%TO.N,/CC2_RP3A0*%
%TA.AperFunction,SMDPad,CuDef*%
G36*
G01*
X14050000Y-21522500D02*
X14200000Y-21522500D01*
G75*
G02*
X14275000Y-21597500I0J-75000D01*
G01*
X14275000Y-22922500D01*
G75*
G02*
X14200000Y-22997500I-75000J0D01*
G01*
X14050000Y-22997500D01*
G75*
G02*
X13975000Y-22922500I0J75000D01*
G01*
X13975000Y-21597500D01*
G75*
G02*
X14050000Y-21522500I75000J0D01*
G01*
G37*
%TD.AperFunction*%
%TO.P,U4,33*%
%TO.N,/USB_B_D+*%
%TA.AperFunction,SMDPad,CuDef*%
G36*
G01*
X14550000Y-21522500D02*
X14700000Y-21522500D01*
G75*
G02*
X14775000Y-21597500I0J-75000D01*
G01*
X14775000Y-22922500D01*
G75*
G02*
X14700000Y-22997500I-75000J0D01*
G01*
X14550000Y-22997500D01*
G75*
G02*
X14475000Y-22922500I0J75000D01*
G01*
X14475000Y-21597500D01*
G75*
G02*
X14550000Y-21522500I75000J0D01*
G01*
G37*
%TD.AperFunction*%
%TO.P,U4,32*%
%TO.N,/USB_B_D-*%
%TA.AperFunction,SMDPad,CuDef*%
G36*
G01*
X15050000Y-21522500D02*
X15200000Y-21522500D01*
G75*
G02*
X15275000Y-21597500I0J-75000D01*
G01*
X15275000Y-22922500D01*
G75*
G02*
X15200000Y-22997500I-75000J0D01*
G01*
X15050000Y-22997500D01*
G75*
G02*
X14975000Y-22922500I0J75000D01*
G01*
X14975000Y-21597500D01*
G75*
G02*
X15050000Y-21522500I75000J0D01*
G01*
G37*
%TD.AperFunction*%
%TO.P,U4,31*%
%TO.N,/UART_RX*%
%TA.AperFunction,SMDPad,CuDef*%
G36*
G01*
X15550000Y-21522500D02*
X15700000Y-21522500D01*
G75*
G02*
X15775000Y-21597500I0J-75000D01*
G01*
X15775000Y-22922500D01*
G75*
G02*
X15700000Y-22997500I-75000J0D01*
G01*
X15550000Y-22997500D01*
G75*
G02*
X15475000Y-22922500I0J75000D01*
G01*
X15475000Y-21597500D01*
G75*
G02*
X15550000Y-21522500I75000J0D01*
G01*
G37*
%TD.AperFunction*%
%TO.P,U4,30*%
%TO.N,/UART_TX*%
%TA.AperFunction,SMDPad,CuDef*%
G36*
G01*
X16050000Y-21522500D02*
X16200000Y-21522500D01*
G75*
G02*
X16275000Y-21597500I0J-75000D01*
G01*
X16275000Y-22922500D01*
G75*
G02*
X16200000Y-22997500I-75000J0D01*
G01*
X16050000Y-22997500D01*
G75*
G02*
X15975000Y-22922500I0J75000D01*
G01*
X15975000Y-21597500D01*
G75*
G02*
X16050000Y-21522500I75000J0D01*
G01*
G37*
%TD.AperFunction*%
%TO.P,U4,29*%
%TO.N,/CC2_RA*%
%TA.AperFunction,SMDPad,CuDef*%
G36*
G01*
X16550000Y-21522500D02*
X16700000Y-21522500D01*
G75*
G02*
X16775000Y-21597500I0J-75000D01*
G01*
X16775000Y-22922500D01*
G75*
G02*
X16700000Y-22997500I-75000J0D01*
G01*
X16550000Y-22997500D01*
G75*
G02*
X16475000Y-22922500I0J75000D01*
G01*
X16475000Y-21597500D01*
G75*
G02*
X16550000Y-21522500I75000J0D01*
G01*
G37*
%TD.AperFunction*%
%TO.P,U4,28*%
%TO.N,/CC2_RP1A5*%
%TA.AperFunction,SMDPad,CuDef*%
G36*
G01*
X17050000Y-21522500D02*
X17200000Y-21522500D01*
G75*
G02*
X17275000Y-21597500I0J-75000D01*
G01*
X17275000Y-22922500D01*
G75*
G02*
X17200000Y-22997500I-75000J0D01*
G01*
X17050000Y-22997500D01*
G75*
G02*
X16975000Y-22922500I0J75000D01*
G01*
X16975000Y-21597500D01*
G75*
G02*
X17050000Y-21522500I75000J0D01*
G01*
G37*
%TD.AperFunction*%
%TO.P,U4,27*%
%TO.N,/LED_B_L*%
%TA.AperFunction,SMDPad,CuDef*%
G36*
G01*
X17550000Y-21522500D02*
X17700000Y-21522500D01*
G75*
G02*
X17775000Y-21597500I0J-75000D01*
G01*
X17775000Y-22922500D01*
G75*
G02*
X17700000Y-22997500I-75000J0D01*
G01*
X17550000Y-22997500D01*
G75*
G02*
X17475000Y-22922500I0J75000D01*
G01*
X17475000Y-21597500D01*
G75*
G02*
X17550000Y-21522500I75000J0D01*
G01*
G37*
%TD.AperFunction*%
%TO.P,U4,26*%
%TO.N,/CC2_RD*%
%TA.AperFunction,SMDPad,CuDef*%
G36*
G01*
X18050000Y-21522500D02*
X18200000Y-21522500D01*
G75*
G02*
X18275000Y-21597500I0J-75000D01*
G01*
X18275000Y-22922500D01*
G75*
G02*
X18200000Y-22997500I-75000J0D01*
G01*
X18050000Y-22997500D01*
G75*
G02*
X17975000Y-22922500I0J75000D01*
G01*
X17975000Y-21597500D01*
G75*
G02*
X18050000Y-21522500I75000J0D01*
G01*
G37*
%TD.AperFunction*%
%TO.P,U4,25*%
%TO.N,/CC2_RPUSB*%
%TA.AperFunction,SMDPad,CuDef*%
G36*
G01*
X18550000Y-21522500D02*
X18700000Y-21522500D01*
G75*
G02*
X18775000Y-21597500I0J-75000D01*
G01*
X18775000Y-22922500D01*
G75*
G02*
X18700000Y-22997500I-75000J0D01*
G01*
X18550000Y-22997500D01*
G75*
G02*
X18475000Y-22922500I0J75000D01*
G01*
X18475000Y-21597500D01*
G75*
G02*
X18550000Y-21522500I75000J0D01*
G01*
G37*
%TD.AperFunction*%
%TO.P,U4,24*%
%TO.N,+3V3*%
%TA.AperFunction,SMDPad,CuDef*%
G36*
G01*
X19375000Y-20697500D02*
X20700000Y-20697500D01*
G75*
G02*
X20775000Y-20772500I0J-75000D01*
G01*
X20775000Y-20922500D01*
G75*
G02*
X20700000Y-20997500I-75000J0D01*
G01*
X19375000Y-20997500D01*
G75*
G02*
X19300000Y-20922500I0J75000D01*
G01*
X19300000Y-20772500D01*
G75*
G02*
X19375000Y-20697500I75000J0D01*
G01*
G37*
%TD.AperFunction*%
%TO.P,U4,23*%
%TO.N,GND*%
%TA.AperFunction,SMDPad,CuDef*%
G36*
G01*
X19375000Y-20197500D02*
X20700000Y-20197500D01*
G75*
G02*
X20775000Y-20272500I0J-75000D01*
G01*
X20775000Y-20422500D01*
G75*
G02*
X20700000Y-20497500I-75000J0D01*
G01*
X19375000Y-20497500D01*
G75*
G02*
X19300000Y-20422500I0J75000D01*
G01*
X19300000Y-20272500D01*
G75*
G02*
X19375000Y-20197500I75000J0D01*
G01*
G37*
%TD.AperFunction*%
%TO.P,U4,22*%
%TO.N,/LED_R_L*%
%TA.AperFunction,SMDPad,CuDef*%
G36*
G01*
X19375000Y-19697500D02*
X20700000Y-19697500D01*
G75*
G02*
X20775000Y-19772500I0J-75000D01*
G01*
X20775000Y-19922500D01*
G75*
G02*
X20700000Y-19997500I-75000J0D01*
G01*
X19375000Y-19997500D01*
G75*
G02*
X19300000Y-19922500I0J75000D01*
G01*
X19300000Y-19772500D01*
G75*
G02*
X19375000Y-19697500I75000J0D01*
G01*
G37*
%TD.AperFunction*%
%TO.P,U4,21*%
%TO.N,/LED_G_L*%
%TA.AperFunction,SMDPad,CuDef*%
G36*
G01*
X19375000Y-19197500D02*
X20700000Y-19197500D01*
G75*
G02*
X20775000Y-19272500I0J-75000D01*
G01*
X20775000Y-19422500D01*
G75*
G02*
X20700000Y-19497500I-75000J0D01*
G01*
X19375000Y-19497500D01*
G75*
G02*
X19300000Y-19422500I0J75000D01*
G01*
X19300000Y-19272500D01*
G75*
G02*
X19375000Y-19197500I75000J0D01*
G01*
G37*
%TD.AperFunction*%
%TO.P,U4,20*%
%TO.N,/VBUS_ALERT_L*%
%TA.AperFunction,SMDPad,CuDef*%
G36*
G01*
X19375000Y-18697500D02*
X20700000Y-18697500D01*
G75*
G02*
X20775000Y-18772500I0J-75000D01*
G01*
X20775000Y-18922500D01*
G75*
G02*
X20700000Y-18997500I-75000J0D01*
G01*
X19375000Y-18997500D01*
G75*
G02*
X19300000Y-18922500I0J75000D01*
G01*
X19300000Y-18772500D01*
G75*
G02*
X19375000Y-18697500I75000J0D01*
G01*
G37*
%TD.AperFunction*%
%TO.P,U4,19*%
%TO.N,Net-(U4-Pad19)*%
%TA.AperFunction,SMDPad,CuDef*%
G36*
G01*
X19375000Y-18197500D02*
X20700000Y-18197500D01*
G75*
G02*
X20775000Y-18272500I0J-75000D01*
G01*
X20775000Y-18422500D01*
G75*
G02*
X20700000Y-18497500I-75000J0D01*
G01*
X19375000Y-18497500D01*
G75*
G02*
X19300000Y-18422500I0J75000D01*
G01*
X19300000Y-18272500D01*
G75*
G02*
X19375000Y-18197500I75000J0D01*
G01*
G37*
%TD.AperFunction*%
%TO.P,U4,18*%
%TO.N,Net-(U4-Pad18)*%
%TA.AperFunction,SMDPad,CuDef*%
G36*
G01*
X19375000Y-17697500D02*
X20700000Y-17697500D01*
G75*
G02*
X20775000Y-17772500I0J-75000D01*
G01*
X20775000Y-17922500D01*
G75*
G02*
X20700000Y-17997500I-75000J0D01*
G01*
X19375000Y-17997500D01*
G75*
G02*
X19300000Y-17922500I0J75000D01*
G01*
X19300000Y-17772500D01*
G75*
G02*
X19375000Y-17697500I75000J0D01*
G01*
G37*
%TD.AperFunction*%
%TO.P,U4,17*%
%TO.N,/VCONN_ALERT_L*%
%TA.AperFunction,SMDPad,CuDef*%
G36*
G01*
X19375000Y-17197500D02*
X20700000Y-17197500D01*
G75*
G02*
X20775000Y-17272500I0J-75000D01*
G01*
X20775000Y-17422500D01*
G75*
G02*
X20700000Y-17497500I-75000J0D01*
G01*
X19375000Y-17497500D01*
G75*
G02*
X19300000Y-17422500I0J75000D01*
G01*
X19300000Y-17272500D01*
G75*
G02*
X19375000Y-17197500I75000J0D01*
G01*
G37*
%TD.AperFunction*%
%TO.P,U4,16*%
%TO.N,/CC2_TX_DATA*%
%TA.AperFunction,SMDPad,CuDef*%
G36*
G01*
X19375000Y-16697500D02*
X20700000Y-16697500D01*
G75*
G02*
X20775000Y-16772500I0J-75000D01*
G01*
X20775000Y-16922500D01*
G75*
G02*
X20700000Y-16997500I-75000J0D01*
G01*
X19375000Y-16997500D01*
G75*
G02*
X19300000Y-16922500I0J75000D01*
G01*
X19300000Y-16772500D01*
G75*
G02*
X19375000Y-16697500I75000J0D01*
G01*
G37*
%TD.AperFunction*%
%TO.P,U4,15*%
%TO.N,/TX_CLK*%
%TA.AperFunction,SMDPad,CuDef*%
G36*
G01*
X19375000Y-16197500D02*
X20700000Y-16197500D01*
G75*
G02*
X20775000Y-16272500I0J-75000D01*
G01*
X20775000Y-16422500D01*
G75*
G02*
X20700000Y-16497500I-75000J0D01*
G01*
X19375000Y-16497500D01*
G75*
G02*
X19300000Y-16422500I0J75000D01*
G01*
X19300000Y-16272500D01*
G75*
G02*
X19375000Y-16197500I75000J0D01*
G01*
G37*
%TD.AperFunction*%
%TO.P,U4,14*%
%TO.N,/DAC*%
%TA.AperFunction,SMDPad,CuDef*%
G36*
G01*
X19375000Y-15697500D02*
X20700000Y-15697500D01*
G75*
G02*
X20775000Y-15772500I0J-75000D01*
G01*
X20775000Y-15922500D01*
G75*
G02*
X20700000Y-15997500I-75000J0D01*
G01*
X19375000Y-15997500D01*
G75*
G02*
X19300000Y-15922500I0J75000D01*
G01*
X19300000Y-15772500D01*
G75*
G02*
X19375000Y-15697500I75000J0D01*
G01*
G37*
%TD.AperFunction*%
%TO.P,U4,13*%
%TO.N,/CC2_BUF*%
%TA.AperFunction,SMDPad,CuDef*%
G36*
G01*
X19375000Y-15197500D02*
X20700000Y-15197500D01*
G75*
G02*
X20775000Y-15272500I0J-75000D01*
G01*
X20775000Y-15422500D01*
G75*
G02*
X20700000Y-15497500I-75000J0D01*
G01*
X19375000Y-15497500D01*
G75*
G02*
X19300000Y-15422500I0J75000D01*
G01*
X19300000Y-15272500D01*
G75*
G02*
X19375000Y-15197500I75000J0D01*
G01*
G37*
%TD.AperFunction*%
%TO.P,U4,12*%
%TO.N,/CC2_EN*%
%TA.AperFunction,SMDPad,CuDef*%
G36*
G01*
X18550000Y-13197500D02*
X18700000Y-13197500D01*
G75*
G02*
X18775000Y-13272500I0J-75000D01*
G01*
X18775000Y-14597500D01*
G75*
G02*
X18700000Y-14672500I-75000J0D01*
G01*
X18550000Y-14672500D01*
G75*
G02*
X18475000Y-14597500I0J75000D01*
G01*
X18475000Y-13272500D01*
G75*
G02*
X18550000Y-13197500I75000J0D01*
G01*
G37*
%TD.AperFunction*%
%TO.P,U4,11*%
%TO.N,/CC1_BUF*%
%TA.AperFunction,SMDPad,CuDef*%
G36*
G01*
X18050000Y-13197500D02*
X18200000Y-13197500D01*
G75*
G02*
X18275000Y-13272500I0J-75000D01*
G01*
X18275000Y-14597500D01*
G75*
G02*
X18200000Y-14672500I-75000J0D01*
G01*
X18050000Y-14672500D01*
G75*
G02*
X17975000Y-14597500I0J75000D01*
G01*
X17975000Y-13272500D01*
G75*
G02*
X18050000Y-13197500I75000J0D01*
G01*
G37*
%TD.AperFunction*%
%TO.P,U4,10*%
%TO.N,/CC1_EN*%
%TA.AperFunction,SMDPad,CuDef*%
G36*
G01*
X17550000Y-13197500D02*
X17700000Y-13197500D01*
G75*
G02*
X17775000Y-13272500I0J-75000D01*
G01*
X17775000Y-14597500D01*
G75*
G02*
X17700000Y-14672500I-75000J0D01*
G01*
X17550000Y-14672500D01*
G75*
G02*
X17475000Y-14597500I0J75000D01*
G01*
X17475000Y-13272500D01*
G75*
G02*
X17550000Y-13197500I75000J0D01*
G01*
G37*
%TD.AperFunction*%
%TO.P,U4,9*%
%TO.N,Net-(C5-Pad1)*%
%TA.AperFunction,SMDPad,CuDef*%
G36*
G01*
X17050000Y-13197500D02*
X17200000Y-13197500D01*
G75*
G02*
X17275000Y-13272500I0J-75000D01*
G01*
X17275000Y-14597500D01*
G75*
G02*
X17200000Y-14672500I-75000J0D01*
G01*
X17050000Y-14672500D01*
G75*
G02*
X16975000Y-14597500I0J75000D01*
G01*
X16975000Y-13272500D01*
G75*
G02*
X17050000Y-13197500I75000J0D01*
G01*
G37*
%TD.AperFunction*%
%TO.P,U4,8*%
%TO.N,GND*%
%TA.AperFunction,SMDPad,CuDef*%
G36*
G01*
X16550000Y-13197500D02*
X16700000Y-13197500D01*
G75*
G02*
X16775000Y-13272500I0J-75000D01*
G01*
X16775000Y-14597500D01*
G75*
G02*
X16700000Y-14672500I-75000J0D01*
G01*
X16550000Y-14672500D01*
G75*
G02*
X16475000Y-14597500I0J75000D01*
G01*
X16475000Y-13272500D01*
G75*
G02*
X16550000Y-13197500I75000J0D01*
G01*
G37*
%TD.AperFunction*%
%TO.P,U4,7*%
%TO.N,/NRST*%
%TA.AperFunction,SMDPad,CuDef*%
G36*
G01*
X16050000Y-13197500D02*
X16200000Y-13197500D01*
G75*
G02*
X16275000Y-13272500I0J-75000D01*
G01*
X16275000Y-14597500D01*
G75*
G02*
X16200000Y-14672500I-75000J0D01*
G01*
X16050000Y-14672500D01*
G75*
G02*
X15975000Y-14597500I0J75000D01*
G01*
X15975000Y-13272500D01*
G75*
G02*
X16050000Y-13197500I75000J0D01*
G01*
G37*
%TD.AperFunction*%
%TO.P,U4,6*%
%TO.N,/OSC_OUT*%
%TA.AperFunction,SMDPad,CuDef*%
G36*
G01*
X15550000Y-13197500D02*
X15700000Y-13197500D01*
G75*
G02*
X15775000Y-13272500I0J-75000D01*
G01*
X15775000Y-14597500D01*
G75*
G02*
X15700000Y-14672500I-75000J0D01*
G01*
X15550000Y-14672500D01*
G75*
G02*
X15475000Y-14597500I0J75000D01*
G01*
X15475000Y-13272500D01*
G75*
G02*
X15550000Y-13197500I75000J0D01*
G01*
G37*
%TD.AperFunction*%
%TO.P,U4,5*%
%TO.N,/OSC_IN*%
%TA.AperFunction,SMDPad,CuDef*%
G36*
G01*
X15050000Y-13197500D02*
X15200000Y-13197500D01*
G75*
G02*
X15275000Y-13272500I0J-75000D01*
G01*
X15275000Y-14597500D01*
G75*
G02*
X15200000Y-14672500I-75000J0D01*
G01*
X15050000Y-14672500D01*
G75*
G02*
X14975000Y-14597500I0J75000D01*
G01*
X14975000Y-13272500D01*
G75*
G02*
X15050000Y-13197500I75000J0D01*
G01*
G37*
%TD.AperFunction*%
%TO.P,U4,4*%
%TO.N,Net-(U4-Pad4)*%
%TA.AperFunction,SMDPad,CuDef*%
G36*
G01*
X14550000Y-13197500D02*
X14700000Y-13197500D01*
G75*
G02*
X14775000Y-13272500I0J-75000D01*
G01*
X14775000Y-14597500D01*
G75*
G02*
X14700000Y-14672500I-75000J0D01*
G01*
X14550000Y-14672500D01*
G75*
G02*
X14475000Y-14597500I0J75000D01*
G01*
X14475000Y-13272500D01*
G75*
G02*
X14550000Y-13197500I75000J0D01*
G01*
G37*
%TD.AperFunction*%
%TO.P,U4,3*%
%TO.N,/CC1_RP3A0*%
%TA.AperFunction,SMDPad,CuDef*%
G36*
G01*
X14050000Y-13197500D02*
X14200000Y-13197500D01*
G75*
G02*
X14275000Y-13272500I0J-75000D01*
G01*
X14275000Y-14597500D01*
G75*
G02*
X14200000Y-14672500I-75000J0D01*
G01*
X14050000Y-14672500D01*
G75*
G02*
X13975000Y-14597500I0J75000D01*
G01*
X13975000Y-13272500D01*
G75*
G02*
X14050000Y-13197500I75000J0D01*
G01*
G37*
%TD.AperFunction*%
%TO.P,U4,2*%
%TO.N,/CC2_TX_EN*%
%TA.AperFunction,SMDPad,CuDef*%
G36*
G01*
X13550000Y-13197500D02*
X13700000Y-13197500D01*
G75*
G02*
X13775000Y-13272500I0J-75000D01*
G01*
X13775000Y-14597500D01*
G75*
G02*
X13700000Y-14672500I-75000J0D01*
G01*
X13550000Y-14672500D01*
G75*
G02*
X13475000Y-14597500I0J75000D01*
G01*
X13475000Y-13272500D01*
G75*
G02*
X13550000Y-13197500I75000J0D01*
G01*
G37*
%TD.AperFunction*%
%TO.P,U4,1*%
%TO.N,+3V3*%
%TA.AperFunction,SMDPad,CuDef*%
G36*
G01*
X13050000Y-13197500D02*
X13200000Y-13197500D01*
G75*
G02*
X13275000Y-13272500I0J-75000D01*
G01*
X13275000Y-14597500D01*
G75*
G02*
X13200000Y-14672500I-75000J0D01*
G01*
X13050000Y-14672500D01*
G75*
G02*
X12975000Y-14597500I0J75000D01*
G01*
X12975000Y-13272500D01*
G75*
G02*
X13050000Y-13197500I75000J0D01*
G01*
G37*
%TD.AperFunction*%
%TD*%
D19*
%TO.P,TP1,1*%
%TO.N,/NRST*%
X20320000Y-13462000D03*
%TD*%
%TO.P,TP2,1*%
%TO.N,/UART_TX*%
X17399000Y-24257000D03*
%TD*%
%TO.P,TP3,1*%
%TO.N,/UART_RX*%
X15367000Y-24257000D03*
%TD*%
%TO.P,C9,2*%
%TO.N,GND*%
%TA.AperFunction,SMDPad,CuDef*%
G36*
G01*
X13662000Y-9045000D02*
X13662000Y-8735000D01*
G75*
G02*
X13817000Y-8580000I155000J0D01*
G01*
X14242000Y-8580000D01*
G75*
G02*
X14397000Y-8735000I0J-155000D01*
G01*
X14397000Y-9045000D01*
G75*
G02*
X14242000Y-9200000I-155000J0D01*
G01*
X13817000Y-9200000D01*
G75*
G02*
X13662000Y-9045000I0J155000D01*
G01*
G37*
%TD.AperFunction*%
%TO.P,C9,1*%
%TO.N,+3V3*%
%TA.AperFunction,SMDPad,CuDef*%
G36*
G01*
X12527000Y-9045000D02*
X12527000Y-8735000D01*
G75*
G02*
X12682000Y-8580000I155000J0D01*
G01*
X13107000Y-8580000D01*
G75*
G02*
X13262000Y-8735000I0J-155000D01*
G01*
X13262000Y-9045000D01*
G75*
G02*
X13107000Y-9200000I-155000J0D01*
G01*
X12682000Y-9200000D01*
G75*
G02*
X12527000Y-9045000I0J155000D01*
G01*
G37*
%TD.AperFunction*%
%TD*%
%TO.P,U1,1*%
%TO.N,/VBUS_PLUG*%
%TA.AperFunction,SMDPad,CuDef*%
G36*
G01*
X16935000Y-3213000D02*
X16935000Y-3413000D01*
G75*
G02*
X16835000Y-3513000I-100000J0D01*
G01*
X15560000Y-3513000D01*
G75*
G02*
X15460000Y-3413000I0J100000D01*
G01*
X15460000Y-3213000D01*
G75*
G02*
X15560000Y-3113000I100000J0D01*
G01*
X16835000Y-3113000D01*
G75*
G02*
X16935000Y-3213000I0J-100000D01*
G01*
G37*
%TD.AperFunction*%
%TO.P,U1,2*%
%TA.AperFunction,SMDPad,CuDef*%
G36*
G01*
X16935000Y-3863000D02*
X16935000Y-4063000D01*
G75*
G02*
X16835000Y-4163000I-100000J0D01*
G01*
X15560000Y-4163000D01*
G75*
G02*
X15460000Y-4063000I0J100000D01*
G01*
X15460000Y-3863000D01*
G75*
G02*
X15560000Y-3763000I100000J0D01*
G01*
X16835000Y-3763000D01*
G75*
G02*
X16935000Y-3863000I0J-100000D01*
G01*
G37*
%TD.AperFunction*%
%TO.P,U1,3*%
%TA.AperFunction,SMDPad,CuDef*%
G36*
G01*
X16935000Y-4513000D02*
X16935000Y-4713000D01*
G75*
G02*
X16835000Y-4813000I-100000J0D01*
G01*
X15560000Y-4813000D01*
G75*
G02*
X15460000Y-4713000I0J100000D01*
G01*
X15460000Y-4513000D01*
G75*
G02*
X15560000Y-4413000I100000J0D01*
G01*
X16835000Y-4413000D01*
G75*
G02*
X16935000Y-4513000I0J-100000D01*
G01*
G37*
%TD.AperFunction*%
%TO.P,U1,4*%
%TO.N,GND*%
%TA.AperFunction,SMDPad,CuDef*%
G36*
G01*
X16935000Y-5163000D02*
X16935000Y-5363000D01*
G75*
G02*
X16835000Y-5463000I-100000J0D01*
G01*
X15560000Y-5463000D01*
G75*
G02*
X15460000Y-5363000I0J100000D01*
G01*
X15460000Y-5163000D01*
G75*
G02*
X15560000Y-5063000I100000J0D01*
G01*
X16835000Y-5063000D01*
G75*
G02*
X16935000Y-5163000I0J-100000D01*
G01*
G37*
%TD.AperFunction*%
%TO.P,U1,5*%
%TA.AperFunction,SMDPad,CuDef*%
G36*
G01*
X16935000Y-5813000D02*
X16935000Y-6013000D01*
G75*
G02*
X16835000Y-6113000I-100000J0D01*
G01*
X15560000Y-6113000D01*
G75*
G02*
X15460000Y-6013000I0J100000D01*
G01*
X15460000Y-5813000D01*
G75*
G02*
X15560000Y-5713000I100000J0D01*
G01*
X16835000Y-5713000D01*
G75*
G02*
X16935000Y-5813000I0J-100000D01*
G01*
G37*
%TD.AperFunction*%
%TO.P,U1,6*%
%TA.AperFunction,SMDPad,CuDef*%
G36*
G01*
X16935000Y-6463000D02*
X16935000Y-6663000D01*
G75*
G02*
X16835000Y-6763000I-100000J0D01*
G01*
X15560000Y-6763000D01*
G75*
G02*
X15460000Y-6663000I0J100000D01*
G01*
X15460000Y-6463000D01*
G75*
G02*
X15560000Y-6363000I100000J0D01*
G01*
X16835000Y-6363000D01*
G75*
G02*
X16935000Y-6463000I0J-100000D01*
G01*
G37*
%TD.AperFunction*%
%TO.P,U1,7*%
%TO.N,/VBUS_ALERT_L*%
%TA.AperFunction,SMDPad,CuDef*%
G36*
G01*
X16935000Y-7113000D02*
X16935000Y-7313000D01*
G75*
G02*
X16835000Y-7413000I-100000J0D01*
G01*
X15560000Y-7413000D01*
G75*
G02*
X15460000Y-7313000I0J100000D01*
G01*
X15460000Y-7113000D01*
G75*
G02*
X15560000Y-7013000I100000J0D01*
G01*
X16835000Y-7013000D01*
G75*
G02*
X16935000Y-7113000I0J-100000D01*
G01*
G37*
%TD.AperFunction*%
%TO.P,U1,8*%
%TO.N,/INA_SDA*%
%TA.AperFunction,SMDPad,CuDef*%
G36*
G01*
X16935000Y-7763000D02*
X16935000Y-7963000D01*
G75*
G02*
X16835000Y-8063000I-100000J0D01*
G01*
X15560000Y-8063000D01*
G75*
G02*
X15460000Y-7963000I0J100000D01*
G01*
X15460000Y-7763000D01*
G75*
G02*
X15560000Y-7663000I100000J0D01*
G01*
X16835000Y-7663000D01*
G75*
G02*
X16935000Y-7763000I0J-100000D01*
G01*
G37*
%TD.AperFunction*%
%TO.P,U1,9*%
%TO.N,/INA_SCL*%
%TA.AperFunction,SMDPad,CuDef*%
G36*
G01*
X11210000Y-7763000D02*
X11210000Y-7963000D01*
G75*
G02*
X11110000Y-8063000I-100000J0D01*
G01*
X9835000Y-8063000D01*
G75*
G02*
X9735000Y-7963000I0J100000D01*
G01*
X9735000Y-7763000D01*
G75*
G02*
X9835000Y-7663000I100000J0D01*
G01*
X11110000Y-7663000D01*
G75*
G02*
X11210000Y-7763000I0J-100000D01*
G01*
G37*
%TD.AperFunction*%
%TO.P,U1,10*%
%TO.N,+3V3*%
%TA.AperFunction,SMDPad,CuDef*%
G36*
G01*
X11210000Y-7113000D02*
X11210000Y-7313000D01*
G75*
G02*
X11110000Y-7413000I-100000J0D01*
G01*
X9835000Y-7413000D01*
G75*
G02*
X9735000Y-7313000I0J100000D01*
G01*
X9735000Y-7113000D01*
G75*
G02*
X9835000Y-7013000I100000J0D01*
G01*
X11110000Y-7013000D01*
G75*
G02*
X11210000Y-7113000I0J-100000D01*
G01*
G37*
%TD.AperFunction*%
%TO.P,U1,11*%
%TO.N,GND*%
%TA.AperFunction,SMDPad,CuDef*%
G36*
G01*
X11210000Y-6463000D02*
X11210000Y-6663000D01*
G75*
G02*
X11110000Y-6763000I-100000J0D01*
G01*
X9835000Y-6763000D01*
G75*
G02*
X9735000Y-6663000I0J100000D01*
G01*
X9735000Y-6463000D01*
G75*
G02*
X9835000Y-6363000I100000J0D01*
G01*
X11110000Y-6363000D01*
G75*
G02*
X11210000Y-6463000I0J-100000D01*
G01*
G37*
%TD.AperFunction*%
%TO.P,U1,12*%
%TO.N,/VBUS_PLUG*%
%TA.AperFunction,SMDPad,CuDef*%
G36*
G01*
X11210000Y-5813000D02*
X11210000Y-6013000D01*
G75*
G02*
X11110000Y-6113000I-100000J0D01*
G01*
X9835000Y-6113000D01*
G75*
G02*
X9735000Y-6013000I0J100000D01*
G01*
X9735000Y-5813000D01*
G75*
G02*
X9835000Y-5713000I100000J0D01*
G01*
X11110000Y-5713000D01*
G75*
G02*
X11210000Y-5813000I0J-100000D01*
G01*
G37*
%TD.AperFunction*%
%TO.P,U1,13*%
%TO.N,Net-(U1-Pad13)*%
%TA.AperFunction,SMDPad,CuDef*%
G36*
G01*
X11210000Y-5163000D02*
X11210000Y-5363000D01*
G75*
G02*
X11110000Y-5463000I-100000J0D01*
G01*
X9835000Y-5463000D01*
G75*
G02*
X9735000Y-5363000I0J100000D01*
G01*
X9735000Y-5163000D01*
G75*
G02*
X9835000Y-5063000I100000J0D01*
G01*
X11110000Y-5063000D01*
G75*
G02*
X11210000Y-5163000I0J-100000D01*
G01*
G37*
%TD.AperFunction*%
%TO.P,U1,14*%
%TO.N,/VBUS_RECEP*%
%TA.AperFunction,SMDPad,CuDef*%
G36*
G01*
X11210000Y-4513000D02*
X11210000Y-4713000D01*
G75*
G02*
X11110000Y-4813000I-100000J0D01*
G01*
X9835000Y-4813000D01*
G75*
G02*
X9735000Y-4713000I0J100000D01*
G01*
X9735000Y-4513000D01*
G75*
G02*
X9835000Y-4413000I100000J0D01*
G01*
X11110000Y-4413000D01*
G75*
G02*
X11210000Y-4513000I0J-100000D01*
G01*
G37*
%TD.AperFunction*%
%TO.P,U1,15*%
%TA.AperFunction,SMDPad,CuDef*%
G36*
G01*
X11210000Y-3863000D02*
X11210000Y-4063000D01*
G75*
G02*
X11110000Y-4163000I-100000J0D01*
G01*
X9835000Y-4163000D01*
G75*
G02*
X9735000Y-4063000I0J100000D01*
G01*
X9735000Y-3863000D01*
G75*
G02*
X9835000Y-3763000I100000J0D01*
G01*
X11110000Y-3763000D01*
G75*
G02*
X11210000Y-3863000I0J-100000D01*
G01*
G37*
%TD.AperFunction*%
%TO.P,U1,16*%
%TA.AperFunction,SMDPad,CuDef*%
G36*
G01*
X11210000Y-3213000D02*
X11210000Y-3413000D01*
G75*
G02*
X11110000Y-3513000I-100000J0D01*
G01*
X9835000Y-3513000D01*
G75*
G02*
X9735000Y-3413000I0J100000D01*
G01*
X9735000Y-3213000D01*
G75*
G02*
X9835000Y-3113000I100000J0D01*
G01*
X11110000Y-3113000D01*
G75*
G02*
X11210000Y-3213000I0J-100000D01*
G01*
G37*
%TD.AperFunction*%
%TD*%
D20*
%TO.P,U3,5*%
%TO.N,+3V3*%
X6284000Y-16684000D03*
%TO.P,U3,4*%
%TO.N,Net-(U3-Pad4)*%
X4384000Y-16684000D03*
%TO.P,U3,3*%
%TO.N,+5V*%
X4384000Y-19384000D03*
%TO.P,U3,2*%
%TO.N,GND*%
X5334000Y-19384000D03*
%TO.P,U3,1*%
%TO.N,+5V*%
X6284000Y-19384000D03*
%TD*%
%TO.P,R4,2*%
%TO.N,/LED_B_L*%
%TA.AperFunction,SMDPad,CuDef*%
G36*
G01*
X19318000Y-24097000D02*
X19318000Y-24417000D01*
G75*
G02*
X19158000Y-24577000I-160000J0D01*
G01*
X18763000Y-24577000D01*
G75*
G02*
X18603000Y-24417000I0J160000D01*
G01*
X18603000Y-24097000D01*
G75*
G02*
X18763000Y-23937000I160000J0D01*
G01*
X19158000Y-23937000D01*
G75*
G02*
X19318000Y-24097000I0J-160000D01*
G01*
G37*
%TD.AperFunction*%
%TO.P,R4,1*%
%TO.N,Net-(DS1-Pad3)*%
%TA.AperFunction,SMDPad,CuDef*%
G36*
G01*
X20513000Y-24097000D02*
X20513000Y-24417000D01*
G75*
G02*
X20353000Y-24577000I-160000J0D01*
G01*
X19958000Y-24577000D01*
G75*
G02*
X19798000Y-24417000I0J160000D01*
G01*
X19798000Y-24097000D01*
G75*
G02*
X19958000Y-23937000I160000J0D01*
G01*
X20353000Y-23937000D01*
G75*
G02*
X20513000Y-24097000I0J-160000D01*
G01*
G37*
%TD.AperFunction*%
%TD*%
%TO.P,R3,2*%
%TO.N,/LED_G_L*%
%TA.AperFunction,SMDPad,CuDef*%
G36*
G01*
X22512000Y-20207000D02*
X22192000Y-20207000D01*
G75*
G02*
X22032000Y-20047000I0J160000D01*
G01*
X22032000Y-19652000D01*
G75*
G02*
X22192000Y-19492000I160000J0D01*
G01*
X22512000Y-19492000D01*
G75*
G02*
X22672000Y-19652000I0J-160000D01*
G01*
X22672000Y-20047000D01*
G75*
G02*
X22512000Y-20207000I-160000J0D01*
G01*
G37*
%TD.AperFunction*%
%TO.P,R3,1*%
%TO.N,Net-(DS1-Pad4)*%
%TA.AperFunction,SMDPad,CuDef*%
G36*
G01*
X22512000Y-21402000D02*
X22192000Y-21402000D01*
G75*
G02*
X22032000Y-21242000I0J160000D01*
G01*
X22032000Y-20847000D01*
G75*
G02*
X22192000Y-20687000I160000J0D01*
G01*
X22512000Y-20687000D01*
G75*
G02*
X22672000Y-20847000I0J-160000D01*
G01*
X22672000Y-21242000D01*
G75*
G02*
X22512000Y-21402000I-160000J0D01*
G01*
G37*
%TD.AperFunction*%
%TD*%
%TO.P,R2,2*%
%TO.N,/LED_R_L*%
%TA.AperFunction,SMDPad,CuDef*%
G36*
G01*
X23528000Y-20207000D02*
X23208000Y-20207000D01*
G75*
G02*
X23048000Y-20047000I0J160000D01*
G01*
X23048000Y-19652000D01*
G75*
G02*
X23208000Y-19492000I160000J0D01*
G01*
X23528000Y-19492000D01*
G75*
G02*
X23688000Y-19652000I0J-160000D01*
G01*
X23688000Y-20047000D01*
G75*
G02*
X23528000Y-20207000I-160000J0D01*
G01*
G37*
%TD.AperFunction*%
%TO.P,R2,1*%
%TO.N,Net-(DS1-Pad1)*%
%TA.AperFunction,SMDPad,CuDef*%
G36*
G01*
X23528000Y-21402000D02*
X23208000Y-21402000D01*
G75*
G02*
X23048000Y-21242000I0J160000D01*
G01*
X23048000Y-20847000D01*
G75*
G02*
X23208000Y-20687000I160000J0D01*
G01*
X23528000Y-20687000D01*
G75*
G02*
X23688000Y-20847000I0J-160000D01*
G01*
X23688000Y-21242000D01*
G75*
G02*
X23528000Y-21402000I-160000J0D01*
G01*
G37*
%TD.AperFunction*%
%TD*%
%TO.P,FB1,2*%
%TO.N,Net-(D1-Pad1)*%
%TA.AperFunction,SMDPad,CuDef*%
G36*
G01*
X3874000Y-21557000D02*
X3874000Y-21877000D01*
G75*
G02*
X3714000Y-22037000I-160000J0D01*
G01*
X3269000Y-22037000D01*
G75*
G02*
X3109000Y-21877000I0J160000D01*
G01*
X3109000Y-21557000D01*
G75*
G02*
X3269000Y-21397000I160000J0D01*
G01*
X3714000Y-21397000D01*
G75*
G02*
X3874000Y-21557000I0J-160000D01*
G01*
G37*
%TD.AperFunction*%
%TO.P,FB1,1*%
%TO.N,+5V*%
%TA.AperFunction,SMDPad,CuDef*%
G36*
G01*
X5019000Y-21557000D02*
X5019000Y-21877000D01*
G75*
G02*
X4859000Y-22037000I-160000J0D01*
G01*
X4414000Y-22037000D01*
G75*
G02*
X4254000Y-21877000I0J160000D01*
G01*
X4254000Y-21557000D01*
G75*
G02*
X4414000Y-21397000I160000J0D01*
G01*
X4859000Y-21397000D01*
G75*
G02*
X5019000Y-21557000I0J-160000D01*
G01*
G37*
%TD.AperFunction*%
%TD*%
D21*
%TO.P,DS1,2*%
%TO.N,+5V*%
X24237000Y-24195000D03*
%TO.P,DS1,3*%
%TO.N,Net-(DS1-Pad3)*%
X21737000Y-24195000D03*
%TO.P,DS1,4*%
%TO.N,Net-(DS1-Pad4)*%
X21737000Y-22795000D03*
%TO.P,DS1,1*%
%TO.N,Net-(DS1-Pad1)*%
X24237000Y-22795000D03*
%TD*%
D22*
%TO.P,D1,2*%
%TO.N,GND*%
X6984000Y-23622000D03*
%TO.P,D1,1*%
%TO.N,Net-(D1-Pad1)*%
X3684000Y-23622000D03*
%TD*%
%TO.P,C8,2*%
%TO.N,GND*%
%TA.AperFunction,SMDPad,CuDef*%
G36*
G01*
X11402000Y-22869500D02*
X11712000Y-22869500D01*
G75*
G02*
X11867000Y-23024500I0J-155000D01*
G01*
X11867000Y-23449500D01*
G75*
G02*
X11712000Y-23604500I-155000J0D01*
G01*
X11402000Y-23604500D01*
G75*
G02*
X11247000Y-23449500I0J155000D01*
G01*
X11247000Y-23024500D01*
G75*
G02*
X11402000Y-22869500I155000J0D01*
G01*
G37*
%TD.AperFunction*%
%TO.P,C8,1*%
%TO.N,+3V3*%
%TA.AperFunction,SMDPad,CuDef*%
G36*
G01*
X11402000Y-21734500D02*
X11712000Y-21734500D01*
G75*
G02*
X11867000Y-21889500I0J-155000D01*
G01*
X11867000Y-22314500D01*
G75*
G02*
X11712000Y-22469500I-155000J0D01*
G01*
X11402000Y-22469500D01*
G75*
G02*
X11247000Y-22314500I0J155000D01*
G01*
X11247000Y-21889500D01*
G75*
G02*
X11402000Y-21734500I155000J0D01*
G01*
G37*
%TD.AperFunction*%
%TD*%
%TO.P,C7,2*%
%TO.N,GND*%
%TA.AperFunction,SMDPad,CuDef*%
G36*
G01*
X12944500Y-24229000D02*
X12944500Y-24539000D01*
G75*
G02*
X12789500Y-24694000I-155000J0D01*
G01*
X12364500Y-24694000D01*
G75*
G02*
X12209500Y-24539000I0J155000D01*
G01*
X12209500Y-24229000D01*
G75*
G02*
X12364500Y-24074000I155000J0D01*
G01*
X12789500Y-24074000D01*
G75*
G02*
X12944500Y-24229000I0J-155000D01*
G01*
G37*
%TD.AperFunction*%
%TO.P,C7,1*%
%TO.N,+3V3*%
%TA.AperFunction,SMDPad,CuDef*%
G36*
G01*
X14079500Y-24229000D02*
X14079500Y-24539000D01*
G75*
G02*
X13924500Y-24694000I-155000J0D01*
G01*
X13499500Y-24694000D01*
G75*
G02*
X13344500Y-24539000I0J155000D01*
G01*
X13344500Y-24229000D01*
G75*
G02*
X13499500Y-24074000I155000J0D01*
G01*
X13924500Y-24074000D01*
G75*
G02*
X14079500Y-24229000I0J-155000D01*
G01*
G37*
%TD.AperFunction*%
%TD*%
%TO.P,C3,2*%
%TO.N,GND*%
%TA.AperFunction,SMDPad,CuDef*%
G36*
G01*
X20038000Y-22679000D02*
X20348000Y-22679000D01*
G75*
G02*
X20503000Y-22834000I0J-155000D01*
G01*
X20503000Y-23259000D01*
G75*
G02*
X20348000Y-23414000I-155000J0D01*
G01*
X20038000Y-23414000D01*
G75*
G02*
X19883000Y-23259000I0J155000D01*
G01*
X19883000Y-22834000D01*
G75*
G02*
X20038000Y-22679000I155000J0D01*
G01*
G37*
%TD.AperFunction*%
%TO.P,C3,1*%
%TO.N,+3V3*%
%TA.AperFunction,SMDPad,CuDef*%
G36*
G01*
X20038000Y-21544000D02*
X20348000Y-21544000D01*
G75*
G02*
X20503000Y-21699000I0J-155000D01*
G01*
X20503000Y-22124000D01*
G75*
G02*
X20348000Y-22279000I-155000J0D01*
G01*
X20038000Y-22279000D01*
G75*
G02*
X19883000Y-22124000I0J155000D01*
G01*
X19883000Y-21699000D01*
G75*
G02*
X20038000Y-21544000I155000J0D01*
G01*
G37*
%TD.AperFunction*%
%TD*%
%TO.P,C1,2*%
%TO.N,GND*%
%TA.AperFunction,SMDPad,CuDef*%
G36*
G01*
X6804000Y-21872000D02*
X6804000Y-21562000D01*
G75*
G02*
X6959000Y-21407000I155000J0D01*
G01*
X7384000Y-21407000D01*
G75*
G02*
X7539000Y-21562000I0J-155000D01*
G01*
X7539000Y-21872000D01*
G75*
G02*
X7384000Y-22027000I-155000J0D01*
G01*
X6959000Y-22027000D01*
G75*
G02*
X6804000Y-21872000I0J155000D01*
G01*
G37*
%TD.AperFunction*%
%TO.P,C1,1*%
%TO.N,+5V*%
%TA.AperFunction,SMDPad,CuDef*%
G36*
G01*
X5669000Y-21872000D02*
X5669000Y-21562000D01*
G75*
G02*
X5824000Y-21407000I155000J0D01*
G01*
X6249000Y-21407000D01*
G75*
G02*
X6404000Y-21562000I0J-155000D01*
G01*
X6404000Y-21872000D01*
G75*
G02*
X6249000Y-22027000I-155000J0D01*
G01*
X5824000Y-22027000D01*
G75*
G02*
X5669000Y-21872000I0J155000D01*
G01*
G37*
%TD.AperFunction*%
%TD*%
D23*
%TO.N,GND*%
X19494500Y-23050500D03*
X13462000Y-20447000D03*
X15875000Y-17881600D03*
X12192000Y-4699000D03*
X4953000Y-635000D03*
D24*
X6477000Y-10414000D03*
X6477000Y-9779000D03*
X6477000Y-2921000D03*
X6477000Y-2286000D03*
D23*
X5334000Y-18097500D03*
X13412792Y-16961149D03*
D24*
X19177000Y-14732000D03*
D23*
X8890000Y-15240000D03*
X5969000Y-18097500D03*
X4699000Y-18097500D03*
X12382500Y-23558500D03*
X21209000Y-21399500D03*
X5842000Y-12065000D03*
X21717000Y-635000D03*
X20320000Y-3492500D03*
X19939000Y-3048000D03*
X19431000Y-10414000D03*
X20256500Y-9271000D03*
X19558000Y-11303000D03*
X24257000Y-12700000D03*
X22352000Y-1016000D03*
X5334000Y-11430000D03*
X6350000Y-11430000D03*
X4953000Y-1333500D03*
X13906500Y-8102590D03*
X14922500Y-4445000D03*
X5651500Y-1460500D03*
X23622000Y-12700000D03*
%TO.N,+5V*%
X23241000Y-23368000D03*
%TO.N,+3V3*%
X5588000Y-17145000D03*
X11684000Y-7239000D03*
X12442000Y-22102000D03*
X12700000Y-7874000D03*
X19685000Y-21336000D03*
X5588000Y-16256000D03*
X14605000Y-17907000D03*
X9017000Y-16637000D03*
X12206419Y-3951419D03*
X14986000Y-20066000D03*
D24*
X14993294Y-5261560D03*
D23*
X8890000Y-10350500D03*
X22415500Y-11811000D03*
%TO.N,Net-(D1-Pad1)*%
X3810000Y-20828000D03*
D24*
%TO.N,/CC1_RECEP*%
X10033000Y-8509000D03*
X17399000Y-5588000D03*
X9271000Y-5524500D03*
X11049000Y-10350500D03*
D23*
%TO.N,/CC2_RECEP*%
X9144000Y-7239000D03*
D24*
X10414000Y-10350500D03*
%TO.N,/CC1_TX_DATA*%
X2794000Y-13716000D03*
X4000500Y-15113000D03*
%TO.N,/CC1_TX_EN*%
X10477500Y-21590000D03*
%TO.N,/CC2_TX_DATA*%
X15494000Y-15494000D03*
X18351625Y-17462625D03*
%TO.N,/CC2_TX_EN*%
X14132613Y-15704645D03*
%TO.N,/CC2*%
X10668000Y-13716000D03*
X19939000Y-14732000D03*
X10795000Y-12700000D03*
%TO.N,/CC1_EN*%
X9337588Y-13053528D03*
X18415000Y-16256000D03*
%TO.N,/CC2_EN*%
X13843000Y-12827000D03*
X19050000Y-13589000D03*
%TO.N,/BOOT*%
X18516600Y-19555981D03*
%TO.N,/LED_R_L*%
X23939500Y-20383500D03*
%TO.N,/LED_G_L*%
X22479000Y-18923000D03*
%TO.N,/LED_B_L*%
X18923000Y-23622000D03*
%TO.N,/CC1_RP3A0*%
X14605000Y-16129000D03*
%TO.N,/CC1_RA*%
X7576582Y-15013987D03*
%TO.N,/CC1_RP1A5*%
X6893653Y-15000138D03*
%TO.N,/CC1_RD*%
X14010642Y-20035519D03*
%TO.N,/CC1_RPUSB*%
X10383547Y-20741506D03*
%TO.N,/CC2_RP3A0*%
X14351000Y-20574000D03*
%TO.N,/CC2_RA*%
X15621000Y-20574000D03*
%TO.N,/CC2_RP1A5*%
X16793347Y-20574000D03*
%TO.N,/CC2_RD*%
X17653000Y-20574000D03*
%TO.N,/CC2_RPUSB*%
X18415000Y-20574000D03*
%TO.N,/INA_SCL*%
X12954000Y-5461000D03*
X13307848Y-19323564D03*
X13462000Y-10350500D03*
%TO.N,/INA_SDA*%
X10714245Y-17733755D03*
X14097000Y-4572000D03*
X12826997Y-10350500D03*
X14732000Y-10350500D03*
%TO.N,/VBUS_ALERT_L*%
X15367000Y-10350500D03*
X21209000Y-17970500D03*
%TO.N,/VCONN_ALERT_L*%
X21209000Y-17335500D03*
X14351000Y-3937000D03*
X14097000Y-10350500D03*
%TO.N,/CC2_BUF*%
X21463000Y-13081000D03*
%TO.N,/CC1_BUF*%
X19050000Y-12827000D03*
D23*
%TO.N,/VBUS_PLUG*%
X17907000Y-3746500D03*
X17399000Y-3429000D03*
X17399000Y-4064000D03*
X17907000Y-3175000D03*
X19240500Y-7683500D03*
X18923000Y-8128000D03*
X18669000Y-7683500D03*
X19387500Y-5100000D03*
X18796000Y-5080000D03*
X18669000Y-4508500D03*
X17907000Y-4318000D03*
%TO.N,/CC2_PLUG*%
X17843500Y-7747000D03*
D24*
X12992474Y-4699000D03*
X13017500Y-7239000D03*
D23*
%TO.N,/VBUS_RECEP*%
X8636000Y-3492500D03*
X8636000Y-4064000D03*
X9144000Y-3238500D03*
X9144000Y-3810000D03*
X7919185Y-4236185D03*
X7538185Y-4617185D03*
X7206621Y-7784100D03*
X7585260Y-8162740D03*
X9144000Y-4381500D03*
X8064500Y-8445500D03*
D24*
%TO.N,/SBU2*%
X17335500Y-4889500D03*
X8763000Y-4953000D03*
%TO.N,/SBU1*%
X13850496Y-7201516D03*
X11747500Y-8382000D03*
D25*
%TO.N,/USBC_D-*%
X6784653Y-6273790D03*
%TO.N,/USBC_D+*%
X7350212Y-6007090D03*
D24*
%TO.N,/USB_B_D+*%
X14519400Y-23368000D03*
%TO.N,/USB_B_D-*%
X15230600Y-23368000D03*
%TO.N,/TX_CLK*%
X21335742Y-16370299D03*
X10287000Y-15875000D03*
D23*
%TO.N,Net-(C5-Pad1)*%
X17272000Y-17907000D03*
X17018000Y-15621000D03*
%TD*%
D26*
%TO.N,GND*%
X16197500Y-5913000D02*
X16197500Y-5263000D01*
X16197500Y-6563000D02*
X16197500Y-5913000D01*
X19498500Y-23046500D02*
X19494500Y-23050500D01*
X20193000Y-23046500D02*
X19498500Y-23046500D01*
D27*
X13625000Y-20610000D02*
X13462000Y-20447000D01*
X13625000Y-22260000D02*
X13625000Y-20610000D01*
X11712500Y-15847500D02*
X12875364Y-15847500D01*
D26*
X5675000Y-10100000D02*
X5675000Y-9171001D01*
X5675000Y-2600000D02*
X5675000Y-3528999D01*
D27*
X12437500Y-15847500D02*
X12875364Y-15847500D01*
D26*
X5334000Y-19384000D02*
X5334000Y-18097500D01*
D27*
X16625000Y-13935000D02*
X16625000Y-15187799D01*
X12875364Y-15847500D02*
X13412792Y-16384928D01*
X16625000Y-15187799D02*
X16433799Y-15379000D01*
X13412792Y-16384928D02*
X13412792Y-16961149D01*
D26*
X5334000Y-18097500D02*
X5969000Y-18097500D01*
X5334000Y-18097500D02*
X4699000Y-18097500D01*
D27*
X16433799Y-15379000D02*
X16433799Y-16433799D01*
D26*
X23909000Y-1400000D02*
X23398000Y-889000D01*
X23398000Y-889000D02*
X20764500Y-889000D01*
D27*
X5675000Y-3600000D02*
X6115500Y-3600000D01*
X6477000Y-3238500D02*
X6477000Y-2921000D01*
X6115500Y-3600000D02*
X6477000Y-3238500D01*
X5989000Y-2286000D02*
X5675000Y-2600000D01*
X6477000Y-2286000D02*
X5989000Y-2286000D01*
X5996000Y-2921000D02*
X5675000Y-2600000D01*
X6477000Y-2921000D02*
X5996000Y-2921000D01*
X5675000Y-9100000D02*
X6115500Y-9100000D01*
X6477000Y-9461500D02*
X6477000Y-9779000D01*
X6115500Y-9100000D02*
X6477000Y-9461500D01*
X6477000Y-9779000D02*
X6477000Y-10414000D01*
X5989000Y-10414000D02*
X5675000Y-10100000D01*
X6477000Y-10414000D02*
X5989000Y-10414000D01*
X5996000Y-9779000D02*
X5675000Y-10100000D01*
X6477000Y-9779000D02*
X5996000Y-9779000D01*
X6477000Y-2921000D02*
X6477000Y-2286000D01*
X6477000Y-2286000D02*
X6477000Y-1841500D01*
X5715000Y-1079500D02*
X5080000Y-1079500D01*
X6477000Y-1841500D02*
X6350000Y-1079500D01*
D26*
X20965000Y-2523990D02*
X21148990Y-2340000D01*
X20965000Y-3525000D02*
X20965000Y-2523990D01*
X20965000Y-10176010D02*
X21148990Y-10360000D01*
X20965000Y-9175000D02*
X20965000Y-10176010D01*
D27*
X20965000Y-9175000D02*
X20225500Y-9175000D01*
X20225500Y-9175000D02*
X19558000Y-9842500D01*
D26*
X14029500Y-8890000D02*
X14029500Y-8225590D01*
X14029500Y-8225590D02*
X13906500Y-8102590D01*
D27*
X6350000Y-1079500D02*
X5715000Y-1079500D01*
X20352500Y-3525000D02*
X20320000Y-3492500D01*
X20965000Y-3525000D02*
X20352500Y-3525000D01*
X19939000Y-3111500D02*
X20320000Y-3492500D01*
X19939000Y-3048000D02*
X19939000Y-3111500D01*
%TO.N,+5V*%
X24068000Y-24195000D02*
X23241000Y-23368000D01*
X24237000Y-24195000D02*
X24068000Y-24195000D01*
X6748401Y-25036401D02*
X6036500Y-24324500D01*
X22715599Y-25036401D02*
X6748401Y-25036401D01*
X23241000Y-24511000D02*
X22715599Y-25036401D01*
X23241000Y-23368000D02*
X23241000Y-24511000D01*
X6036500Y-24324500D02*
X6036500Y-21717000D01*
D26*
%TO.N,+3V3*%
X11658000Y-7213000D02*
X11684000Y-7239000D01*
X20193000Y-21034010D02*
X20037500Y-20878510D01*
X20193000Y-21911500D02*
X20193000Y-21034010D01*
D27*
X12935990Y-22102000D02*
X13093990Y-22260000D01*
D26*
X11557000Y-22102000D02*
X12442000Y-22102000D01*
X13712000Y-24384000D02*
X13712000Y-24126000D01*
D27*
X13093990Y-23507990D02*
X13093990Y-22260000D01*
D26*
X13712000Y-24126000D02*
X13093990Y-23507990D01*
X12442000Y-22102000D02*
X12935990Y-22102000D01*
X20193000Y-21844000D02*
X19685000Y-21336000D01*
X20193000Y-21911500D02*
X20193000Y-21844000D01*
D27*
X11712500Y-15347500D02*
X12973500Y-15347500D01*
X13125000Y-15196000D02*
X13125000Y-13935000D01*
X12973500Y-15347500D02*
X13125000Y-15196000D01*
X13599212Y-15960678D02*
X14021534Y-16383000D01*
X13599212Y-15631212D02*
X13599212Y-15960678D01*
X13164000Y-15196000D02*
X13599212Y-15631212D01*
X13125000Y-15196000D02*
X13164000Y-15196000D01*
X13315500Y-15347500D02*
X13599212Y-15631212D01*
X11712500Y-15347500D02*
X13315500Y-15347500D01*
D26*
X14605000Y-17907000D02*
X14605000Y-17018000D01*
X14021534Y-16485336D02*
X14021534Y-16383000D01*
X14300199Y-16764001D02*
X14021534Y-16485336D01*
X14351001Y-16764001D02*
X14300199Y-16764001D01*
X14605000Y-17018000D02*
X14351001Y-16764001D01*
D27*
X11706599Y-15341599D02*
X11712500Y-15347500D01*
X9881349Y-15341599D02*
X11706599Y-15341599D01*
X9017000Y-16205948D02*
X9881349Y-15341599D01*
X9017000Y-16637000D02*
X9017000Y-16205948D01*
D26*
X10472500Y-7213000D02*
X11658000Y-7213000D01*
X12894500Y-8068500D02*
X12700000Y-7874000D01*
X12894500Y-8890000D02*
X12894500Y-8068500D01*
%TO.N,Net-(D1-Pad1)*%
X3491500Y-23429500D02*
X3491500Y-21717000D01*
X3684000Y-23622000D02*
X3491500Y-23429500D01*
X3810000Y-21398500D02*
X3491500Y-21717000D01*
X3810000Y-20828000D02*
X3810000Y-21398500D01*
D28*
%TO.N,Net-(DS1-Pad3)*%
X21712500Y-24219500D02*
X21737000Y-24195000D01*
X20193000Y-24219500D02*
X21712500Y-24219500D01*
%TO.N,Net-(DS1-Pad4)*%
X21737000Y-22795000D02*
X21737000Y-22649500D01*
X22352000Y-22034500D02*
X22352000Y-21044500D01*
X21737000Y-22649500D02*
X22352000Y-22034500D01*
%TO.N,/CC1_RECEP*%
X11049000Y-10350500D02*
X11049000Y-9525000D01*
X11049000Y-9525000D02*
X10033000Y-8509000D01*
%TO.N,/CC2_RECEP*%
X5675000Y-7100000D02*
X5749834Y-7174834D01*
X9079834Y-7174834D02*
X9144000Y-7239000D01*
X5749834Y-7174834D02*
X9079834Y-7174834D01*
X9189782Y-7284782D02*
X9144000Y-7239000D01*
X9189782Y-9316782D02*
X9189782Y-7284782D01*
X10414000Y-10350500D02*
X9189782Y-9316782D01*
%TO.N,/CC1_TX_DATA*%
X6254881Y-15138399D02*
X6248399Y-15138399D01*
X9489835Y-17830821D02*
X8487415Y-17830821D01*
X8487415Y-17830821D02*
X7112000Y-16455406D01*
X10836723Y-19177710D02*
X9489835Y-17830821D01*
X10924240Y-19226110D02*
X10875840Y-19177710D01*
X11606110Y-19226110D02*
X10924240Y-19226110D01*
X7112000Y-15995518D02*
X6254881Y-15138399D01*
X11712500Y-19332500D02*
X11606110Y-19226110D01*
X7112000Y-16455406D02*
X7112000Y-15995518D01*
X10875840Y-19177710D02*
X10836723Y-19177710D01*
X11712500Y-19347500D02*
X11712500Y-19332500D01*
X4025899Y-15138399D02*
X4000500Y-15113000D01*
X6254881Y-15138399D02*
X4025899Y-15138399D01*
%TO.N,/CC1_TX_EN*%
X11220000Y-20847500D02*
X10477500Y-21590000D01*
X11712500Y-20847500D02*
X11220000Y-20847500D01*
%TO.N,/CC2_TX_DATA*%
X18351625Y-17459181D02*
X18351625Y-17462625D01*
X18963306Y-16847500D02*
X18351625Y-17459181D01*
X20037500Y-16847500D02*
X18963306Y-16847500D01*
%TO.N,/CC2_TX_EN*%
X14236806Y-15621000D02*
X14265014Y-15621000D01*
X13625000Y-15009194D02*
X14236806Y-15621000D01*
X13625000Y-13935000D02*
X13625000Y-15009194D01*
X14181369Y-15704645D02*
X14132613Y-15704645D01*
X14265014Y-15621000D02*
X14181369Y-15704645D01*
%TO.N,/CC1_EN*%
X17625000Y-15466000D02*
X17625000Y-13935000D01*
X18415000Y-16256000D02*
X17625000Y-15466000D01*
%TO.N,/CC2_EN*%
X18704000Y-13935000D02*
X19050000Y-13589000D01*
X18625000Y-13935000D02*
X18704000Y-13935000D01*
%TO.N,/BOOT*%
X13103610Y-18197429D02*
X13328091Y-18421909D01*
X11712500Y-17347500D02*
X12786694Y-17347500D01*
X13665208Y-18999208D02*
X14097000Y-19431000D01*
X13328091Y-18421909D02*
X13665208Y-18759028D01*
X12786694Y-17347500D02*
X13103610Y-17664416D01*
X14097000Y-19431000D02*
X18288000Y-19431000D01*
X13103610Y-17664416D02*
X13103610Y-18197429D01*
X13665208Y-18759028D02*
X13665208Y-18999208D01*
X18288000Y-19431000D02*
X18415000Y-19558000D01*
%TO.N,/LED_R_L*%
X23939500Y-20383500D02*
X23939500Y-20548000D01*
X23876000Y-20447000D02*
X23939500Y-20383500D01*
X22006710Y-20447000D02*
X23876000Y-20447000D01*
X21407210Y-19847500D02*
X22006710Y-20447000D01*
X20037500Y-19847500D02*
X21407210Y-19847500D01*
X23405500Y-19849500D02*
X23939500Y-20383500D01*
X23368000Y-19849500D02*
X23405500Y-19849500D01*
%TO.N,/LED_G_L*%
X22352000Y-19849500D02*
X22350000Y-19847500D01*
X21589710Y-19347500D02*
X21758605Y-19516395D01*
X20037500Y-19347500D02*
X21589710Y-19347500D01*
X22091710Y-19849500D02*
X21758605Y-19516395D01*
X22352000Y-19849500D02*
X22091710Y-19849500D01*
X22352000Y-19050000D02*
X22479000Y-18923000D01*
X22352000Y-19849500D02*
X22352000Y-19050000D01*
D29*
%TO.N,/LED_B_L*%
X18732500Y-24257000D02*
X18960500Y-24257000D01*
D28*
X18249500Y-23622000D02*
X18923000Y-23622000D01*
X17625000Y-22997500D02*
X18249500Y-23622000D01*
X17625000Y-22260000D02*
X17625000Y-22997500D01*
X18923000Y-24219500D02*
X18960500Y-24257000D01*
X18923000Y-23622000D02*
X18923000Y-24219500D01*
%TO.N,/CC1_RP3A0*%
X14125000Y-14660000D02*
X14125000Y-15014000D01*
X14757399Y-15976601D02*
X14605000Y-16129000D01*
X14757399Y-15646399D02*
X14757399Y-15976601D01*
X14125000Y-15014000D02*
X14757399Y-15646399D01*
%TO.N,/CC1_RA*%
X7772420Y-15209825D02*
X7576582Y-15013987D01*
X8760967Y-17170401D02*
X7772420Y-16181854D01*
X7772420Y-16181854D02*
X7772420Y-15209825D01*
X9273033Y-17170401D02*
X8760967Y-17170401D01*
X9595934Y-16847500D02*
X9273033Y-17170401D01*
X11712500Y-16847500D02*
X9595934Y-16847500D01*
%TO.N,/CC1_RP1A5*%
X6893653Y-15035335D02*
X6893653Y-15000138D01*
X7442210Y-15583892D02*
X6893653Y-15035335D01*
X7442210Y-16318630D02*
X7442210Y-15583892D01*
X9626611Y-17500611D02*
X8624191Y-17500611D01*
X8624191Y-17500611D02*
X7442210Y-16318630D01*
X10973500Y-18847500D02*
X9626611Y-17500611D01*
X11712500Y-18847500D02*
X10973500Y-18847500D01*
%TO.N,/CC1_RD*%
X13822623Y-19847500D02*
X14010642Y-20035519D01*
X11712500Y-19847500D02*
X13822623Y-19847500D01*
%TO.N,/CC1_RPUSB*%
X11712500Y-20347500D02*
X10777553Y-20347500D01*
X10777553Y-20347500D02*
X10383547Y-20741506D01*
%TO.N,/CC2_RP3A0*%
X14125000Y-20800000D02*
X14351000Y-20574000D01*
X14125000Y-22260000D02*
X14125000Y-20800000D01*
%TO.N,/CC2_RA*%
X16079097Y-20574000D02*
X15621000Y-20574000D01*
X16625000Y-21119903D02*
X16079097Y-20574000D01*
X16625000Y-22260000D02*
X16625000Y-21119903D01*
%TO.N,/CC2_RP1A5*%
X17125000Y-20905653D02*
X16793347Y-20574000D01*
X17125000Y-21535000D02*
X17125000Y-20905653D01*
%TO.N,/CC2_RD*%
X18125000Y-21046000D02*
X17653000Y-20574000D01*
X18125000Y-22260000D02*
X18125000Y-21046000D01*
%TO.N,/CC2_RPUSB*%
X18625000Y-20784000D02*
X18415000Y-20574000D01*
X18625000Y-22260000D02*
X18625000Y-20784000D01*
%TO.N,/UART_TX*%
X16125000Y-22983000D02*
X17399000Y-24257000D01*
X16125000Y-22260000D02*
X16125000Y-22983000D01*
%TO.N,/UART_RX*%
X15866999Y-23757001D02*
X15367000Y-24257000D01*
X15866999Y-23239499D02*
X15866999Y-23757001D01*
X15625000Y-22997500D02*
X15866999Y-23239499D01*
X15625000Y-22260000D02*
X15625000Y-22997500D01*
%TO.N,/NRST*%
X16125000Y-13935000D02*
X16125000Y-13197500D01*
X16125000Y-13197500D02*
X16368500Y-12954000D01*
X20320000Y-13382750D02*
X20320000Y-13462000D01*
X19281649Y-12344399D02*
X20320000Y-13382750D01*
X18516602Y-12344399D02*
X19281649Y-12344399D01*
X17907001Y-12954000D02*
X18516602Y-12344399D01*
X16368500Y-12954000D02*
X17907001Y-12954000D01*
%TO.N,/INA_SCL*%
X12954000Y-5461000D02*
X12954000Y-5608478D01*
X10472500Y-7863000D02*
X11849434Y-7863000D01*
X11712500Y-18347500D02*
X12786694Y-18347500D01*
X12786694Y-18347500D02*
X13307848Y-18868654D01*
X13307848Y-18868654D02*
X13307848Y-19323564D01*
X12954000Y-6096000D02*
X12269217Y-6780783D01*
X12269217Y-6780783D02*
X12269217Y-7443217D01*
X11849434Y-7863000D02*
X12269217Y-7443217D01*
X12954000Y-5461000D02*
X12954000Y-6096000D01*
X14401790Y-7056269D02*
X14401790Y-7643356D01*
X13441521Y-6096000D02*
X14401790Y-7056269D01*
X12954000Y-6096000D02*
X13441521Y-6096000D01*
X14401790Y-7797790D02*
X14401790Y-7056268D01*
X14732000Y-9144000D02*
X14732000Y-8128000D01*
X14732000Y-8128000D02*
X14401790Y-7797790D01*
X13462000Y-9991290D02*
X13462000Y-10350500D01*
X14024680Y-9428610D02*
X13462000Y-9991290D01*
X14447390Y-9428610D02*
X14024680Y-9428610D01*
X14732000Y-9144000D02*
X14447390Y-9428610D01*
%TO.N,/INA_SDA*%
X11712500Y-17847500D02*
X10827990Y-17847500D01*
X10827990Y-17847500D02*
X10714245Y-17733755D01*
X15460000Y-7863000D02*
X16197500Y-7863000D01*
X15113000Y-7516000D02*
X15460000Y-7863000D01*
X15113000Y-6833505D02*
X15113000Y-7516000D01*
X13805285Y-5525791D02*
X15113000Y-6833505D01*
X13805285Y-4863715D02*
X13805285Y-5525791D01*
X14097000Y-4572000D02*
X13805285Y-4863715D01*
X14731997Y-10223503D02*
X14731997Y-10461753D01*
X16197500Y-8758000D02*
X14731997Y-10223503D01*
X16197500Y-7863000D02*
X16197500Y-8758000D01*
X14732000Y-10223500D02*
X16197500Y-8758000D01*
X14732000Y-10350500D02*
X14732000Y-10223500D01*
%TO.N,/VBUS_ALERT_L*%
X20049500Y-18859500D02*
X20037500Y-18847500D01*
X16935000Y-7213000D02*
X16197500Y-7213000D01*
X17272000Y-7550000D02*
X16935000Y-7213000D01*
X17272000Y-8445500D02*
X17272000Y-7550000D01*
X15367000Y-10350500D02*
X17272000Y-8445500D01*
X21209000Y-18413500D02*
X21209000Y-17970500D01*
X20775000Y-18847500D02*
X21209000Y-18413500D01*
X20037500Y-18847500D02*
X20775000Y-18847500D01*
%TO.N,/VCONN_ALERT_L*%
X21197000Y-17347500D02*
X21209000Y-17335500D01*
X20037500Y-17347500D02*
X21197000Y-17347500D01*
X14017750Y-3937000D02*
X14351000Y-3937000D01*
X13812254Y-5999746D02*
X13475075Y-5662559D01*
X13475075Y-5662559D02*
X13475075Y-4479675D01*
X14732000Y-6919493D02*
X13812254Y-5999746D01*
X14732000Y-7620000D02*
X14732000Y-6919493D01*
X15113000Y-8001000D02*
X14732000Y-7620000D01*
X15113000Y-9250493D02*
X15113000Y-8001000D01*
X13475075Y-4479675D02*
X14017750Y-3937000D01*
X14097000Y-10266494D02*
X15113000Y-9250493D01*
X14097000Y-10350500D02*
X14097000Y-10266494D01*
%TO.N,/CC2_BUF*%
X20037500Y-15347500D02*
X21463000Y-13922000D01*
X21463000Y-13922000D02*
X21463000Y-13081000D01*
%TO.N,/CC1_BUF*%
X19050000Y-12827000D02*
X18500988Y-12827000D01*
X18500988Y-12827000D02*
X18125000Y-13202988D01*
X18125000Y-13202988D02*
X18125000Y-13935000D01*
D29*
%TO.N,/VBUS_PLUG*%
X20604000Y-7600000D02*
X19451000Y-7600000D01*
D28*
X11210000Y-5913000D02*
X11557000Y-5566000D01*
X10472500Y-5913000D02*
X11210000Y-5913000D01*
X11557000Y-5566000D02*
X11557000Y-3810000D01*
D29*
X19387500Y-5100000D02*
X20604000Y-5100000D01*
D28*
X12295005Y-3073399D02*
X15957899Y-3073399D01*
X15957899Y-3073399D02*
X16197500Y-3313000D01*
X11685404Y-3683000D02*
X12295005Y-3073399D01*
X11684000Y-3683000D02*
X11685404Y-3683000D01*
X11684000Y-3683000D02*
X11557000Y-3810000D01*
D27*
%TO.N,/CC2_PLUG*%
X21090000Y-7100000D02*
X20117500Y-7100000D01*
X20117500Y-7100000D02*
X20002500Y-6985000D01*
X20002500Y-6985000D02*
X18923000Y-6985000D01*
X21090000Y-7100000D02*
X20371500Y-7100000D01*
X20371500Y-7100000D02*
X20193000Y-6921500D01*
X20193000Y-6921500D02*
X18796000Y-6921500D01*
D26*
%TO.N,/VBUS_RECEP*%
X7919185Y-4164355D02*
X8228355Y-3855185D01*
X7919185Y-4236185D02*
X7919185Y-4164355D01*
X7206621Y-7855930D02*
X7513431Y-8162740D01*
X7847355Y-4236185D02*
X7919185Y-4236185D01*
X7538185Y-4545355D02*
X7847355Y-4236185D01*
X7538185Y-4617185D02*
X7538185Y-4545355D01*
X7513431Y-8162740D02*
X7585260Y-8162740D01*
X8228355Y-3855185D02*
X8300185Y-3855185D01*
D29*
X5675000Y-5100000D02*
X6604000Y-5100000D01*
D26*
X7206621Y-7784100D02*
X7206621Y-7855930D01*
X7466355Y-4617185D02*
X7538185Y-4617185D01*
X7149100Y-7784100D02*
X7206621Y-7784100D01*
D27*
X6983540Y-5100000D02*
X7466355Y-4617185D01*
X6604000Y-5100000D02*
X6983540Y-5100000D01*
X7022521Y-7600000D02*
X7206621Y-7784100D01*
X5675000Y-7600000D02*
X7022521Y-7600000D01*
D26*
X7585260Y-8234569D02*
X7585260Y-8162740D01*
X7894431Y-8543740D02*
X7585260Y-8234569D01*
X8064500Y-8445500D02*
X7894431Y-8543740D01*
D30*
%TO.N,/RX1+*%
X20293199Y-4146800D02*
X20182170Y-4146800D01*
X20339999Y-4100000D02*
X20293199Y-4146800D01*
X21090000Y-4100000D02*
X20339999Y-4100000D01*
X20182170Y-4146800D02*
X19316700Y-3281330D01*
X18372170Y-1701800D02*
X19316700Y-2646330D01*
X7289800Y-3217830D02*
X7289800Y-2455830D01*
X6360830Y-4146800D02*
X7289800Y-3217830D01*
X6071800Y-4146800D02*
X6360830Y-4146800D01*
X8043830Y-1701800D02*
X18372170Y-1701800D01*
X6025000Y-4100000D02*
X6071800Y-4146800D01*
X7289800Y-2455830D02*
X8043830Y-1701800D01*
X5675000Y-4100000D02*
X6025000Y-4100000D01*
X19316700Y-3281330D02*
X19316700Y-2646330D01*
%TO.N,/RX1-*%
X20339999Y-4600000D02*
X20293199Y-4553200D01*
X21090000Y-4600000D02*
X20339999Y-4600000D01*
X20293199Y-4553200D02*
X20013830Y-4553200D01*
X20013830Y-4553200D02*
X18910300Y-3449670D01*
X18203830Y-2108200D02*
X18910300Y-2814670D01*
X8212170Y-2108200D02*
X18203830Y-2108200D01*
X7696200Y-2624170D02*
X8212170Y-2108200D01*
X7696200Y-3386170D02*
X7696200Y-2624170D01*
X6529170Y-4553200D02*
X7696200Y-3386170D01*
X6071800Y-4553200D02*
X6529170Y-4553200D01*
X6025000Y-4600000D02*
X6071800Y-4553200D01*
X5675000Y-4600000D02*
X6025000Y-4600000D01*
X18910300Y-3449670D02*
X18910300Y-2814670D01*
D28*
%TO.N,/SBU2*%
X20690520Y-5618480D02*
X20709000Y-5600000D01*
X17414750Y-4889500D02*
X17335500Y-4889500D01*
X18158651Y-5633401D02*
X17414750Y-4889500D01*
X20709000Y-5600000D02*
X19676934Y-5600000D01*
X19643533Y-5633401D02*
X18158651Y-5633401D01*
X19676934Y-5600000D02*
X19643533Y-5633401D01*
X8166111Y-5549889D02*
X8763000Y-4953000D01*
X5675000Y-5600000D02*
X5725111Y-5549889D01*
X5725111Y-5549889D02*
X8166111Y-5549889D01*
D30*
%TO.N,/TX2-*%
X6071800Y-8146800D02*
X6025000Y-8100000D01*
X7696200Y-10456830D02*
X7696200Y-9313830D01*
X6529170Y-8146800D02*
X6071800Y-8146800D01*
X18338800Y-10456830D02*
X17568830Y-11226800D01*
X6025000Y-8100000D02*
X5675000Y-8100000D01*
X7696200Y-9313830D02*
X6529170Y-8146800D01*
X8466170Y-11226800D02*
X7696200Y-10456830D01*
X17568830Y-11226800D02*
X8466170Y-11226800D01*
X20293199Y-8146800D02*
X19950330Y-8146800D01*
X21090000Y-8100000D02*
X20339999Y-8100000D01*
X20339999Y-8100000D02*
X20293199Y-8146800D01*
X18338800Y-9758330D02*
X18338800Y-10456830D01*
X19950330Y-8146800D02*
X18338800Y-9758330D01*
%TO.N,/TX2+*%
X6025000Y-8600000D02*
X5675000Y-8600000D01*
X6071800Y-8553200D02*
X6025000Y-8600000D01*
X18745200Y-10625170D02*
X17737170Y-11633200D01*
X7289800Y-9482170D02*
X6360830Y-8553200D01*
X17737170Y-11633200D02*
X8297830Y-11633200D01*
X7289800Y-10625170D02*
X7289800Y-9482170D01*
X8297830Y-11633200D02*
X7289800Y-10625170D01*
X6360830Y-8553200D02*
X6071800Y-8553200D01*
X20293199Y-8553200D02*
X20118670Y-8553200D01*
X20339999Y-8600000D02*
X20293199Y-8553200D01*
X21090000Y-8600000D02*
X20339999Y-8600000D01*
X18745200Y-9926670D02*
X18745200Y-10625170D01*
X20118670Y-8553200D02*
X18745200Y-9926670D01*
%TO.N,/USBC_D-*%
X5675000Y-6100000D02*
X6610863Y-6100000D01*
X6610863Y-6100000D02*
X6784653Y-6273790D01*
D28*
%TO.N,/USBC_D+*%
X7350212Y-6367636D02*
X7350212Y-6007090D01*
X6986857Y-6730991D02*
X7350212Y-6367636D01*
X6565196Y-6730991D02*
X6986857Y-6730991D01*
X6434205Y-6600000D02*
X6565196Y-6730991D01*
X5675000Y-6600000D02*
X6434205Y-6600000D01*
D29*
%TO.N,/USB_B_D+*%
X14648940Y-22283940D02*
X14648940Y-23238460D01*
X14625000Y-22260000D02*
X14648940Y-22283940D01*
X14648940Y-23238460D02*
X14519400Y-23368000D01*
%TO.N,/USB_B_D-*%
X15101060Y-22283940D02*
X15101060Y-23238460D01*
X15101060Y-23238460D02*
X15230600Y-23368000D01*
X15125000Y-22260000D02*
X15101060Y-22283940D01*
D28*
%TO.N,/TX_CLK*%
X20037500Y-16347500D02*
X19300000Y-16347500D01*
X20060299Y-16370299D02*
X20037500Y-16347500D01*
X21335742Y-16370299D02*
X20060299Y-16370299D01*
X10759500Y-16347500D02*
X11712500Y-16347500D01*
X10287000Y-15875000D02*
X10759500Y-16347500D01*
D29*
%TO.N,Net-(DS1-Pad1)*%
X24237000Y-22795000D02*
X23814000Y-22795000D01*
D28*
X24237000Y-21913500D02*
X23368000Y-21044500D01*
X24237000Y-22795000D02*
X24237000Y-21913500D01*
D27*
%TO.N,Net-(C5-Pad1)*%
X17125000Y-15514000D02*
X17018000Y-15621000D01*
X17125000Y-13935000D02*
X17125000Y-15514000D01*
%TD*%
D30*
%TO.N,GND*%
X19959000Y-9348250D02*
X19957157Y-9380000D01*
X19964513Y-9454689D01*
X19984854Y-9521745D01*
X19911611Y-9573312D01*
X19771171Y-9720775D01*
X19662198Y-9892803D01*
X19599316Y-10074508D01*
X19662908Y-10233000D01*
X21063000Y-10233000D01*
X21063000Y-10213000D01*
X21225200Y-10213000D01*
X21225200Y-11082079D01*
X21223435Y-11100000D01*
X21230478Y-11171513D01*
X21251338Y-11240278D01*
X21285212Y-11303653D01*
X21317000Y-11342387D01*
X21317000Y-11391000D01*
X21369546Y-11391000D01*
X21371791Y-11392842D01*
X21386347Y-11404788D01*
X21449722Y-11438662D01*
X21518487Y-11459522D01*
X21590000Y-11466565D01*
X21607921Y-11464800D01*
X21913663Y-11464800D01*
X21875279Y-11522246D01*
X21829326Y-11633186D01*
X21805900Y-11750960D01*
X21805900Y-11871040D01*
X21829326Y-11988814D01*
X21875279Y-12099754D01*
X21941992Y-12199598D01*
X22026902Y-12284508D01*
X22126746Y-12351221D01*
X22237686Y-12397174D01*
X22355460Y-12420600D01*
X22475540Y-12420600D01*
X22593314Y-12397174D01*
X22704254Y-12351221D01*
X22804098Y-12284508D01*
X22855736Y-12232870D01*
X22871678Y-12262696D01*
X22919289Y-12320711D01*
X22977304Y-12368322D01*
X23043492Y-12403701D01*
X23115311Y-12425487D01*
X23190000Y-12432843D01*
X24067750Y-12431000D01*
X24163000Y-12335750D01*
X24163000Y-11427000D01*
X24143000Y-11427000D01*
X24143000Y-11173000D01*
X24163000Y-11173000D01*
X24163000Y-10914800D01*
X24417000Y-10914800D01*
X24417000Y-11173000D01*
X24437000Y-11173000D01*
X24437000Y-11427000D01*
X24417000Y-11427000D01*
X24417000Y-12335750D01*
X24512250Y-12431000D01*
X25035201Y-12432098D01*
X25035201Y-12717921D01*
X25040479Y-12771513D01*
X25061339Y-12840278D01*
X25070200Y-12856856D01*
X25070201Y-25070200D01*
X23328378Y-25070200D01*
X23548408Y-24850170D01*
X23557938Y-24842349D01*
X23566843Y-24849658D01*
X23619794Y-24877960D01*
X23677249Y-24895389D01*
X23737000Y-24901274D01*
X24737000Y-24901274D01*
X24796751Y-24895389D01*
X24854206Y-24877960D01*
X24907157Y-24849658D01*
X24953568Y-24811568D01*
X24991658Y-24765157D01*
X25019960Y-24712206D01*
X25037389Y-24654751D01*
X25043274Y-24595000D01*
X25043274Y-23795000D01*
X25037389Y-23735249D01*
X25019960Y-23677794D01*
X24991658Y-23624843D01*
X24953568Y-23578432D01*
X24907157Y-23540342D01*
X24854206Y-23512040D01*
X24798033Y-23495000D01*
X24854206Y-23477960D01*
X24907157Y-23449658D01*
X24953568Y-23411568D01*
X24991658Y-23365157D01*
X25019960Y-23312206D01*
X25037389Y-23254751D01*
X25043274Y-23195000D01*
X25043274Y-22395000D01*
X25037389Y-22335249D01*
X25019960Y-22277794D01*
X24991658Y-22224843D01*
X24953568Y-22178432D01*
X24907157Y-22140342D01*
X24854206Y-22112040D01*
X24796751Y-22094611D01*
X24737000Y-22088726D01*
X24643400Y-22088726D01*
X24643400Y-21933453D01*
X24645365Y-21913500D01*
X24643400Y-21893547D01*
X24643400Y-21893540D01*
X24637519Y-21833832D01*
X24635952Y-21828664D01*
X24614281Y-21757225D01*
X24576544Y-21686624D01*
X24555717Y-21661246D01*
X24538482Y-21640245D01*
X24538477Y-21640240D01*
X24525758Y-21624742D01*
X24510259Y-21612022D01*
X23994274Y-21096038D01*
X23994274Y-20950971D01*
X24019168Y-20948519D01*
X24095775Y-20925281D01*
X24109666Y-20917856D01*
X24204191Y-20878702D01*
X24295714Y-20817548D01*
X24373548Y-20739714D01*
X24434702Y-20648191D01*
X24476826Y-20546496D01*
X24498300Y-20438537D01*
X24498300Y-20328463D01*
X24476826Y-20220504D01*
X24434702Y-20118809D01*
X24373548Y-20027286D01*
X24295714Y-19949452D01*
X24204191Y-19888298D01*
X24102496Y-19846174D01*
X23994537Y-19824700D01*
X23994274Y-19824700D01*
X23994274Y-19652000D01*
X23985315Y-19561034D01*
X23958781Y-19473565D01*
X23915693Y-19392952D01*
X23857706Y-19322294D01*
X23787048Y-19264307D01*
X23706435Y-19221219D01*
X23618966Y-19194685D01*
X23528000Y-19185726D01*
X23208000Y-19185726D01*
X23117034Y-19194685D01*
X23029565Y-19221219D01*
X22948952Y-19264307D01*
X22878294Y-19322294D01*
X22860000Y-19344586D01*
X22854445Y-19337817D01*
X22913048Y-19279214D01*
X22974202Y-19187691D01*
X23016326Y-19085996D01*
X23037800Y-18978037D01*
X23037800Y-18867963D01*
X23016326Y-18760004D01*
X22974202Y-18658309D01*
X22913048Y-18566786D01*
X22835214Y-18488952D01*
X22743691Y-18427798D01*
X22641996Y-18385674D01*
X22534037Y-18364200D01*
X22423963Y-18364200D01*
X22316004Y-18385674D01*
X22214309Y-18427798D01*
X22122786Y-18488952D01*
X22044952Y-18566786D01*
X21983798Y-18658309D01*
X21941674Y-18760004D01*
X21920200Y-18867963D01*
X21920200Y-18978037D01*
X21941674Y-19085996D01*
X21945601Y-19095476D01*
X21945601Y-19128655D01*
X21891192Y-19074246D01*
X21878468Y-19058742D01*
X21816586Y-19007956D01*
X21745985Y-18970219D01*
X21669378Y-18946981D01*
X21609670Y-18941100D01*
X21609663Y-18941100D01*
X21589710Y-18939135D01*
X21569757Y-18941100D01*
X21256136Y-18941100D01*
X21482260Y-18714977D01*
X21497758Y-18702258D01*
X21510477Y-18686760D01*
X21510482Y-18686755D01*
X21527717Y-18665754D01*
X21548544Y-18640376D01*
X21586281Y-18569775D01*
X21589628Y-18558742D01*
X21609519Y-18493169D01*
X21610247Y-18485774D01*
X21615400Y-18433460D01*
X21615400Y-18433453D01*
X21617365Y-18413500D01*
X21615400Y-18393547D01*
X21615400Y-18354362D01*
X21643048Y-18326714D01*
X21704202Y-18235191D01*
X21746326Y-18133496D01*
X21767800Y-18025537D01*
X21767800Y-17915463D01*
X21746326Y-17807504D01*
X21704202Y-17705809D01*
X21668916Y-17653000D01*
X21704202Y-17600191D01*
X21746326Y-17498496D01*
X21767800Y-17390537D01*
X21767800Y-17280463D01*
X21746326Y-17172504D01*
X21704202Y-17070809D01*
X21643048Y-16979286D01*
X21565214Y-16901452D01*
X21545478Y-16888265D01*
X21600433Y-16865501D01*
X21691956Y-16804347D01*
X21769790Y-16726513D01*
X21830944Y-16634990D01*
X21873068Y-16533295D01*
X21875527Y-16520931D01*
X21967336Y-16582276D01*
X22086502Y-16631636D01*
X22213008Y-16656800D01*
X22341992Y-16656800D01*
X22468498Y-16631636D01*
X22587664Y-16582276D01*
X22694910Y-16510616D01*
X22786116Y-16419410D01*
X22857776Y-16312164D01*
X22907136Y-16192998D01*
X22932300Y-16066492D01*
X22932300Y-15937508D01*
X23422700Y-15937508D01*
X23422700Y-16066492D01*
X23447864Y-16192998D01*
X23497224Y-16312164D01*
X23568884Y-16419410D01*
X23660090Y-16510616D01*
X23767336Y-16582276D01*
X23886502Y-16631636D01*
X24013008Y-16656800D01*
X24141992Y-16656800D01*
X24268498Y-16631636D01*
X24387664Y-16582276D01*
X24494910Y-16510616D01*
X24586116Y-16419410D01*
X24657776Y-16312164D01*
X24707136Y-16192998D01*
X24732300Y-16066492D01*
X24732300Y-15937508D01*
X24707136Y-15811002D01*
X24657776Y-15691836D01*
X24586116Y-15584590D01*
X24494910Y-15493384D01*
X24387664Y-15421724D01*
X24268498Y-15372364D01*
X24141992Y-15347200D01*
X24013008Y-15347200D01*
X23886502Y-15372364D01*
X23767336Y-15421724D01*
X23660090Y-15493384D01*
X23568884Y-15584590D01*
X23497224Y-15691836D01*
X23447864Y-15811002D01*
X23422700Y-15937508D01*
X22932300Y-15937508D01*
X22907136Y-15811002D01*
X22857776Y-15691836D01*
X22786116Y-15584590D01*
X22694910Y-15493384D01*
X22587664Y-15421724D01*
X22468498Y-15372364D01*
X22341992Y-15347200D01*
X22213008Y-15347200D01*
X22086502Y-15372364D01*
X21967336Y-15421724D01*
X21860090Y-15493384D01*
X21768884Y-15584590D01*
X21697224Y-15691836D01*
X21647864Y-15811002D01*
X21631046Y-15895552D01*
X21600433Y-15875097D01*
X21498738Y-15832973D01*
X21390779Y-15811499D01*
X21280705Y-15811499D01*
X21172746Y-15832973D01*
X21081274Y-15870862D01*
X21081274Y-15772500D01*
X21073948Y-15698117D01*
X21052251Y-15626593D01*
X21036701Y-15597500D01*
X21052251Y-15568407D01*
X21073948Y-15496883D01*
X21081274Y-15422500D01*
X21081274Y-15272500D01*
X21073948Y-15198117D01*
X21052251Y-15126593D01*
X21017018Y-15060676D01*
X20969601Y-15002899D01*
X20962590Y-14997146D01*
X21736255Y-14223481D01*
X21751758Y-14210758D01*
X21802544Y-14148876D01*
X21840281Y-14078275D01*
X21863519Y-14001668D01*
X21869400Y-13941960D01*
X21869400Y-13941954D01*
X21871365Y-13922001D01*
X21869400Y-13902048D01*
X21869400Y-13464862D01*
X21897048Y-13437214D01*
X21958202Y-13345691D01*
X22000326Y-13243996D01*
X22021800Y-13136037D01*
X22021800Y-13025963D01*
X22000326Y-12918004D01*
X21958202Y-12816309D01*
X21897048Y-12724786D01*
X21819214Y-12646952D01*
X21727691Y-12585798D01*
X21625996Y-12543674D01*
X21518037Y-12522200D01*
X21407963Y-12522200D01*
X21300004Y-12543674D01*
X21198309Y-12585798D01*
X21106786Y-12646952D01*
X21028952Y-12724786D01*
X20967798Y-12816309D01*
X20925674Y-12918004D01*
X20923764Y-12927605D01*
X20833030Y-12836871D01*
X20701216Y-12748796D01*
X20554751Y-12688128D01*
X20399266Y-12657200D01*
X20240734Y-12657200D01*
X20181057Y-12669071D01*
X19583131Y-12071145D01*
X19570407Y-12055641D01*
X19508525Y-12004855D01*
X19437924Y-11967118D01*
X19361317Y-11943880D01*
X19301609Y-11937999D01*
X19301602Y-11937999D01*
X19281649Y-11936034D01*
X19261696Y-11937999D01*
X18536554Y-11937999D01*
X18531595Y-11937511D01*
X19457303Y-11011803D01*
X19473097Y-10992557D01*
X19484833Y-10970601D01*
X19492060Y-10946776D01*
X19494500Y-10922000D01*
X19494500Y-10645492D01*
X19599316Y-10645492D01*
X19662198Y-10827197D01*
X19771171Y-10999225D01*
X19911611Y-11146688D01*
X20078121Y-11263919D01*
X20264302Y-11346413D01*
X20463000Y-11391000D01*
X21063000Y-11391000D01*
X21063000Y-10487000D01*
X19662908Y-10487000D01*
X19599316Y-10645492D01*
X19494500Y-10645492D01*
X19494500Y-9788026D01*
X19980525Y-9302002D01*
X20005248Y-9302002D01*
X19959000Y-9348250D01*
%TA.AperFunction,Conductor*%
D31*
G36*
X19959000Y-9348250D02*
G01*
X19957157Y-9380000D01*
X19964513Y-9454689D01*
X19984854Y-9521745D01*
X19911611Y-9573312D01*
X19771171Y-9720775D01*
X19662198Y-9892803D01*
X19599316Y-10074508D01*
X19662908Y-10233000D01*
X21063000Y-10233000D01*
X21063000Y-10213000D01*
X21225200Y-10213000D01*
X21225200Y-11082079D01*
X21223435Y-11100000D01*
X21230478Y-11171513D01*
X21251338Y-11240278D01*
X21285212Y-11303653D01*
X21317000Y-11342387D01*
X21317000Y-11391000D01*
X21369546Y-11391000D01*
X21371791Y-11392842D01*
X21386347Y-11404788D01*
X21449722Y-11438662D01*
X21518487Y-11459522D01*
X21590000Y-11466565D01*
X21607921Y-11464800D01*
X21913663Y-11464800D01*
X21875279Y-11522246D01*
X21829326Y-11633186D01*
X21805900Y-11750960D01*
X21805900Y-11871040D01*
X21829326Y-11988814D01*
X21875279Y-12099754D01*
X21941992Y-12199598D01*
X22026902Y-12284508D01*
X22126746Y-12351221D01*
X22237686Y-12397174D01*
X22355460Y-12420600D01*
X22475540Y-12420600D01*
X22593314Y-12397174D01*
X22704254Y-12351221D01*
X22804098Y-12284508D01*
X22855736Y-12232870D01*
X22871678Y-12262696D01*
X22919289Y-12320711D01*
X22977304Y-12368322D01*
X23043492Y-12403701D01*
X23115311Y-12425487D01*
X23190000Y-12432843D01*
X24067750Y-12431000D01*
X24163000Y-12335750D01*
X24163000Y-11427000D01*
X24143000Y-11427000D01*
X24143000Y-11173000D01*
X24163000Y-11173000D01*
X24163000Y-10914800D01*
X24417000Y-10914800D01*
X24417000Y-11173000D01*
X24437000Y-11173000D01*
X24437000Y-11427000D01*
X24417000Y-11427000D01*
X24417000Y-12335750D01*
X24512250Y-12431000D01*
X25035201Y-12432098D01*
X25035201Y-12717921D01*
X25040479Y-12771513D01*
X25061339Y-12840278D01*
X25070200Y-12856856D01*
X25070201Y-25070200D01*
X23328378Y-25070200D01*
X23548408Y-24850170D01*
X23557938Y-24842349D01*
X23566843Y-24849658D01*
X23619794Y-24877960D01*
X23677249Y-24895389D01*
X23737000Y-24901274D01*
X24737000Y-24901274D01*
X24796751Y-24895389D01*
X24854206Y-24877960D01*
X24907157Y-24849658D01*
X24953568Y-24811568D01*
X24991658Y-24765157D01*
X25019960Y-24712206D01*
X25037389Y-24654751D01*
X25043274Y-24595000D01*
X25043274Y-23795000D01*
X25037389Y-23735249D01*
X25019960Y-23677794D01*
X24991658Y-23624843D01*
X24953568Y-23578432D01*
X24907157Y-23540342D01*
X24854206Y-23512040D01*
X24798033Y-23495000D01*
X24854206Y-23477960D01*
X24907157Y-23449658D01*
X24953568Y-23411568D01*
X24991658Y-23365157D01*
X25019960Y-23312206D01*
X25037389Y-23254751D01*
X25043274Y-23195000D01*
X25043274Y-22395000D01*
X25037389Y-22335249D01*
X25019960Y-22277794D01*
X24991658Y-22224843D01*
X24953568Y-22178432D01*
X24907157Y-22140342D01*
X24854206Y-22112040D01*
X24796751Y-22094611D01*
X24737000Y-22088726D01*
X24643400Y-22088726D01*
X24643400Y-21933453D01*
X24645365Y-21913500D01*
X24643400Y-21893547D01*
X24643400Y-21893540D01*
X24637519Y-21833832D01*
X24635952Y-21828664D01*
X24614281Y-21757225D01*
X24576544Y-21686624D01*
X24555717Y-21661246D01*
X24538482Y-21640245D01*
X24538477Y-21640240D01*
X24525758Y-21624742D01*
X24510259Y-21612022D01*
X23994274Y-21096038D01*
X23994274Y-20950971D01*
X24019168Y-20948519D01*
X24095775Y-20925281D01*
X24109666Y-20917856D01*
X24204191Y-20878702D01*
X24295714Y-20817548D01*
X24373548Y-20739714D01*
X24434702Y-20648191D01*
X24476826Y-20546496D01*
X24498300Y-20438537D01*
X24498300Y-20328463D01*
X24476826Y-20220504D01*
X24434702Y-20118809D01*
X24373548Y-20027286D01*
X24295714Y-19949452D01*
X24204191Y-19888298D01*
X24102496Y-19846174D01*
X23994537Y-19824700D01*
X23994274Y-19824700D01*
X23994274Y-19652000D01*
X23985315Y-19561034D01*
X23958781Y-19473565D01*
X23915693Y-19392952D01*
X23857706Y-19322294D01*
X23787048Y-19264307D01*
X23706435Y-19221219D01*
X23618966Y-19194685D01*
X23528000Y-19185726D01*
X23208000Y-19185726D01*
X23117034Y-19194685D01*
X23029565Y-19221219D01*
X22948952Y-19264307D01*
X22878294Y-19322294D01*
X22860000Y-19344586D01*
X22854445Y-19337817D01*
X22913048Y-19279214D01*
X22974202Y-19187691D01*
X23016326Y-19085996D01*
X23037800Y-18978037D01*
X23037800Y-18867963D01*
X23016326Y-18760004D01*
X22974202Y-18658309D01*
X22913048Y-18566786D01*
X22835214Y-18488952D01*
X22743691Y-18427798D01*
X22641996Y-18385674D01*
X22534037Y-18364200D01*
X22423963Y-18364200D01*
X22316004Y-18385674D01*
X22214309Y-18427798D01*
X22122786Y-18488952D01*
X22044952Y-18566786D01*
X21983798Y-18658309D01*
X21941674Y-18760004D01*
X21920200Y-18867963D01*
X21920200Y-18978037D01*
X21941674Y-19085996D01*
X21945601Y-19095476D01*
X21945601Y-19128655D01*
X21891192Y-19074246D01*
X21878468Y-19058742D01*
X21816586Y-19007956D01*
X21745985Y-18970219D01*
X21669378Y-18946981D01*
X21609670Y-18941100D01*
X21609663Y-18941100D01*
X21589710Y-18939135D01*
X21569757Y-18941100D01*
X21256136Y-18941100D01*
X21482260Y-18714977D01*
X21497758Y-18702258D01*
X21510477Y-18686760D01*
X21510482Y-18686755D01*
X21527717Y-18665754D01*
X21548544Y-18640376D01*
X21586281Y-18569775D01*
X21589628Y-18558742D01*
X21609519Y-18493169D01*
X21610247Y-18485774D01*
X21615400Y-18433460D01*
X21615400Y-18433453D01*
X21617365Y-18413500D01*
X21615400Y-18393547D01*
X21615400Y-18354362D01*
X21643048Y-18326714D01*
X21704202Y-18235191D01*
X21746326Y-18133496D01*
X21767800Y-18025537D01*
X21767800Y-17915463D01*
X21746326Y-17807504D01*
X21704202Y-17705809D01*
X21668916Y-17653000D01*
X21704202Y-17600191D01*
X21746326Y-17498496D01*
X21767800Y-17390537D01*
X21767800Y-17280463D01*
X21746326Y-17172504D01*
X21704202Y-17070809D01*
X21643048Y-16979286D01*
X21565214Y-16901452D01*
X21545478Y-16888265D01*
X21600433Y-16865501D01*
X21691956Y-16804347D01*
X21769790Y-16726513D01*
X21830944Y-16634990D01*
X21873068Y-16533295D01*
X21875527Y-16520931D01*
X21967336Y-16582276D01*
X22086502Y-16631636D01*
X22213008Y-16656800D01*
X22341992Y-16656800D01*
X22468498Y-16631636D01*
X22587664Y-16582276D01*
X22694910Y-16510616D01*
X22786116Y-16419410D01*
X22857776Y-16312164D01*
X22907136Y-16192998D01*
X22932300Y-16066492D01*
X22932300Y-15937508D01*
X23422700Y-15937508D01*
X23422700Y-16066492D01*
X23447864Y-16192998D01*
X23497224Y-16312164D01*
X23568884Y-16419410D01*
X23660090Y-16510616D01*
X23767336Y-16582276D01*
X23886502Y-16631636D01*
X24013008Y-16656800D01*
X24141992Y-16656800D01*
X24268498Y-16631636D01*
X24387664Y-16582276D01*
X24494910Y-16510616D01*
X24586116Y-16419410D01*
X24657776Y-16312164D01*
X24707136Y-16192998D01*
X24732300Y-16066492D01*
X24732300Y-15937508D01*
X24707136Y-15811002D01*
X24657776Y-15691836D01*
X24586116Y-15584590D01*
X24494910Y-15493384D01*
X24387664Y-15421724D01*
X24268498Y-15372364D01*
X24141992Y-15347200D01*
X24013008Y-15347200D01*
X23886502Y-15372364D01*
X23767336Y-15421724D01*
X23660090Y-15493384D01*
X23568884Y-15584590D01*
X23497224Y-15691836D01*
X23447864Y-15811002D01*
X23422700Y-15937508D01*
X22932300Y-15937508D01*
X22907136Y-15811002D01*
X22857776Y-15691836D01*
X22786116Y-15584590D01*
X22694910Y-15493384D01*
X22587664Y-15421724D01*
X22468498Y-15372364D01*
X22341992Y-15347200D01*
X22213008Y-15347200D01*
X22086502Y-15372364D01*
X21967336Y-15421724D01*
X21860090Y-15493384D01*
X21768884Y-15584590D01*
X21697224Y-15691836D01*
X21647864Y-15811002D01*
X21631046Y-15895552D01*
X21600433Y-15875097D01*
X21498738Y-15832973D01*
X21390779Y-15811499D01*
X21280705Y-15811499D01*
X21172746Y-15832973D01*
X21081274Y-15870862D01*
X21081274Y-15772500D01*
X21073948Y-15698117D01*
X21052251Y-15626593D01*
X21036701Y-15597500D01*
X21052251Y-15568407D01*
X21073948Y-15496883D01*
X21081274Y-15422500D01*
X21081274Y-15272500D01*
X21073948Y-15198117D01*
X21052251Y-15126593D01*
X21017018Y-15060676D01*
X20969601Y-15002899D01*
X20962590Y-14997146D01*
X21736255Y-14223481D01*
X21751758Y-14210758D01*
X21802544Y-14148876D01*
X21840281Y-14078275D01*
X21863519Y-14001668D01*
X21869400Y-13941960D01*
X21869400Y-13941954D01*
X21871365Y-13922001D01*
X21869400Y-13902048D01*
X21869400Y-13464862D01*
X21897048Y-13437214D01*
X21958202Y-13345691D01*
X22000326Y-13243996D01*
X22021800Y-13136037D01*
X22021800Y-13025963D01*
X22000326Y-12918004D01*
X21958202Y-12816309D01*
X21897048Y-12724786D01*
X21819214Y-12646952D01*
X21727691Y-12585798D01*
X21625996Y-12543674D01*
X21518037Y-12522200D01*
X21407963Y-12522200D01*
X21300004Y-12543674D01*
X21198309Y-12585798D01*
X21106786Y-12646952D01*
X21028952Y-12724786D01*
X20967798Y-12816309D01*
X20925674Y-12918004D01*
X20923764Y-12927605D01*
X20833030Y-12836871D01*
X20701216Y-12748796D01*
X20554751Y-12688128D01*
X20399266Y-12657200D01*
X20240734Y-12657200D01*
X20181057Y-12669071D01*
X19583131Y-12071145D01*
X19570407Y-12055641D01*
X19508525Y-12004855D01*
X19437924Y-11967118D01*
X19361317Y-11943880D01*
X19301609Y-11937999D01*
X19301602Y-11937999D01*
X19281649Y-11936034D01*
X19261696Y-11937999D01*
X18536554Y-11937999D01*
X18531595Y-11937511D01*
X19457303Y-11011803D01*
X19473097Y-10992557D01*
X19484833Y-10970601D01*
X19492060Y-10946776D01*
X19494500Y-10922000D01*
X19494500Y-10645492D01*
X19599316Y-10645492D01*
X19662198Y-10827197D01*
X19771171Y-10999225D01*
X19911611Y-11146688D01*
X20078121Y-11263919D01*
X20264302Y-11346413D01*
X20463000Y-11391000D01*
X21063000Y-11391000D01*
X21063000Y-10487000D01*
X19662908Y-10487000D01*
X19599316Y-10645492D01*
X19494500Y-10645492D01*
X19494500Y-9788026D01*
X19980525Y-9302002D01*
X20005248Y-9302002D01*
X19959000Y-9348250D01*
G37*
%TD.AperFunction*%
D30*
X5802000Y-9077000D02*
X5822000Y-9077000D01*
X5822000Y-9123000D01*
X5802000Y-9123000D01*
X5802000Y-9973000D01*
X5822000Y-9973000D01*
X5822000Y-10227000D01*
X5802000Y-10227000D01*
X5802000Y-10885750D01*
X5897250Y-10981000D01*
X6175000Y-10982843D01*
X6249689Y-10975487D01*
X6321508Y-10953701D01*
X6387696Y-10918322D01*
X6405832Y-10903438D01*
X7911197Y-12408803D01*
X7930443Y-12424597D01*
X7952399Y-12436333D01*
X7976224Y-12443560D01*
X8001000Y-12446000D01*
X10295370Y-12446000D01*
X10257674Y-12537004D01*
X10236200Y-12644963D01*
X10236200Y-12755037D01*
X10257674Y-12862996D01*
X10299798Y-12964691D01*
X10360952Y-13056214D01*
X10438786Y-13134048D01*
X10505443Y-13178587D01*
X10505004Y-13178674D01*
X10403309Y-13220798D01*
X10311786Y-13281952D01*
X10233952Y-13359786D01*
X10172798Y-13451309D01*
X10130674Y-13553004D01*
X10109200Y-13660963D01*
X10109200Y-13771037D01*
X10130674Y-13878996D01*
X10172798Y-13980691D01*
X10233952Y-14072214D01*
X10311786Y-14150048D01*
X10403309Y-14211202D01*
X10505004Y-14253326D01*
X10612963Y-14274800D01*
X10723037Y-14274800D01*
X10830996Y-14253326D01*
X10932691Y-14211202D01*
X11024214Y-14150048D01*
X11102048Y-14072214D01*
X11163202Y-13980691D01*
X11205326Y-13878996D01*
X11226800Y-13771037D01*
X11226800Y-13660963D01*
X11205326Y-13553004D01*
X11163202Y-13451309D01*
X11102048Y-13359786D01*
X11024214Y-13281952D01*
X10957557Y-13237413D01*
X10957996Y-13237326D01*
X11059691Y-13195202D01*
X11151214Y-13134048D01*
X11229048Y-13056214D01*
X11290202Y-12964691D01*
X11332326Y-12862996D01*
X11353800Y-12755037D01*
X11353800Y-12644963D01*
X11332326Y-12537004D01*
X11294630Y-12446000D01*
X13433738Y-12446000D01*
X13408952Y-12470786D01*
X13347798Y-12562309D01*
X13305674Y-12664004D01*
X13284200Y-12771963D01*
X13284200Y-12882037D01*
X13288326Y-12902782D01*
X13274383Y-12898552D01*
X13200000Y-12891226D01*
X13050000Y-12891226D01*
X12975617Y-12898552D01*
X12904093Y-12920249D01*
X12838176Y-12955482D01*
X12780399Y-13002899D01*
X12732982Y-13060676D01*
X12697749Y-13126593D01*
X12676052Y-13198117D01*
X12668726Y-13272500D01*
X12668726Y-13903148D01*
X12667801Y-13912540D01*
X12667800Y-14890300D01*
X11788976Y-14890300D01*
X11729059Y-14884399D01*
X11729049Y-14884399D01*
X11706599Y-14882188D01*
X11684149Y-14884399D01*
X9903798Y-14884399D01*
X9881348Y-14882188D01*
X9858898Y-14884399D01*
X9858889Y-14884399D01*
X9791722Y-14891014D01*
X9705540Y-14917158D01*
X9626113Y-14959612D01*
X9556496Y-15016746D01*
X9542179Y-15034191D01*
X8709592Y-15866778D01*
X8692148Y-15881095D01*
X8677831Y-15898540D01*
X8677830Y-15898541D01*
X8635013Y-15950713D01*
X8609589Y-15998280D01*
X8592560Y-16030139D01*
X8566416Y-16116321D01*
X8559800Y-16183488D01*
X8559800Y-16183498D01*
X8557589Y-16205948D01*
X8559800Y-16228398D01*
X8559800Y-16232094D01*
X8543492Y-16248402D01*
X8491507Y-16326204D01*
X8178820Y-16013518D01*
X8178820Y-15229778D01*
X8180785Y-15209825D01*
X8178820Y-15189872D01*
X8178820Y-15189865D01*
X8172939Y-15130157D01*
X8165725Y-15106373D01*
X8149701Y-15053550D01*
X8149674Y-15053500D01*
X8135382Y-15026761D01*
X8135382Y-14958950D01*
X8113908Y-14850991D01*
X8071784Y-14749296D01*
X8010630Y-14657773D01*
X7932796Y-14579939D01*
X7841273Y-14518785D01*
X7739578Y-14476661D01*
X7631619Y-14455187D01*
X7521545Y-14455187D01*
X7413586Y-14476661D01*
X7311891Y-14518785D01*
X7245481Y-14563159D01*
X7158344Y-14504936D01*
X7056649Y-14462812D01*
X6948690Y-14441338D01*
X6838616Y-14441338D01*
X6730657Y-14462812D01*
X6628962Y-14504936D01*
X6537439Y-14566090D01*
X6459605Y-14643924D01*
X6398451Y-14735447D01*
X6390423Y-14754829D01*
X6334549Y-14737880D01*
X6274841Y-14731999D01*
X6274834Y-14731999D01*
X6254881Y-14730034D01*
X6234928Y-14731999D01*
X4409761Y-14731999D01*
X4356714Y-14678952D01*
X4265191Y-14617798D01*
X4163496Y-14575674D01*
X4055537Y-14554200D01*
X3945463Y-14554200D01*
X3837504Y-14575674D01*
X3735809Y-14617798D01*
X3644286Y-14678952D01*
X3566452Y-14756786D01*
X3505298Y-14848309D01*
X3463174Y-14950004D01*
X3441700Y-15057963D01*
X3441700Y-15168037D01*
X3463174Y-15275996D01*
X3505298Y-15377691D01*
X3566452Y-15469214D01*
X3644286Y-15547048D01*
X3735809Y-15608202D01*
X3837504Y-15650326D01*
X3877863Y-15658354D01*
X3842432Y-15687432D01*
X3804342Y-15733843D01*
X3776040Y-15786794D01*
X3758611Y-15844249D01*
X3752726Y-15904000D01*
X3752726Y-17464000D01*
X3758611Y-17523751D01*
X3776040Y-17581206D01*
X3804342Y-17634157D01*
X3842432Y-17680568D01*
X3888843Y-17718658D01*
X3941794Y-17746960D01*
X3999249Y-17764389D01*
X4059000Y-17770274D01*
X4709000Y-17770274D01*
X4768751Y-17764389D01*
X4826206Y-17746960D01*
X4837453Y-17740949D01*
X4855002Y-17798802D01*
X4890210Y-17864672D01*
X4937592Y-17922408D01*
X4995328Y-17969790D01*
X5061198Y-18004998D01*
X5132671Y-18026679D01*
X5207000Y-18034000D01*
X6731000Y-18034000D01*
X6805329Y-18026679D01*
X6876802Y-18004998D01*
X6942672Y-17969790D01*
X7000408Y-17922408D01*
X7047790Y-17864672D01*
X7082998Y-17798802D01*
X7104679Y-17727329D01*
X7112000Y-17653000D01*
X7112000Y-17030142D01*
X8185938Y-18104081D01*
X8198657Y-18119579D01*
X8214155Y-18132298D01*
X8214160Y-18132303D01*
X8230497Y-18145710D01*
X8260539Y-18170365D01*
X8331140Y-18208102D01*
X8407747Y-18231340D01*
X8467455Y-18237221D01*
X8467462Y-18237221D01*
X8487415Y-18239186D01*
X8507368Y-18237221D01*
X8524738Y-18237221D01*
X8366743Y-18339137D01*
X8209952Y-18490942D01*
X8085790Y-18670419D01*
X7999028Y-18870670D01*
X7953000Y-19084000D01*
X7953000Y-19359000D01*
X8932000Y-19359000D01*
X8932000Y-19339000D01*
X9186000Y-19339000D01*
X9186000Y-19359000D01*
X10165000Y-19359000D01*
X10165000Y-19084000D01*
X10164098Y-19079821D01*
X10535241Y-19450964D01*
X10547965Y-19466468D01*
X10609847Y-19517254D01*
X10671934Y-19550440D01*
X10680448Y-19554991D01*
X10686672Y-19556879D01*
X10696765Y-19565162D01*
X10697749Y-19568407D01*
X10713299Y-19597500D01*
X10697749Y-19626593D01*
X10676052Y-19698117D01*
X10668726Y-19772500D01*
X10668726Y-19922500D01*
X10671913Y-19954859D01*
X10633983Y-19966365D01*
X10621278Y-19970219D01*
X10550677Y-20007956D01*
X10527124Y-20027286D01*
X10504298Y-20046018D01*
X10504293Y-20046023D01*
X10488795Y-20058742D01*
X10476075Y-20074241D01*
X10367610Y-20182706D01*
X10328510Y-20182706D01*
X10220551Y-20204180D01*
X10118856Y-20246304D01*
X10028842Y-20306450D01*
X10032210Y-20301581D01*
X10118972Y-20101330D01*
X10165000Y-19888000D01*
X10165000Y-19613000D01*
X9186000Y-19613000D01*
X9186000Y-20763740D01*
X9356308Y-20826290D01*
X9567863Y-20751163D01*
X9751257Y-20632863D01*
X9872218Y-20515749D01*
X9846221Y-20578510D01*
X9824747Y-20686469D01*
X9824747Y-20796543D01*
X9846221Y-20904502D01*
X9888345Y-21006197D01*
X9949499Y-21097720D01*
X10027333Y-21175554D01*
X10071903Y-21205335D01*
X10043452Y-21233786D01*
X9982298Y-21325309D01*
X9940174Y-21427004D01*
X9918700Y-21534963D01*
X9918700Y-21645037D01*
X9940174Y-21752996D01*
X9982298Y-21854691D01*
X10043452Y-21946214D01*
X10121286Y-22024048D01*
X10212809Y-22085202D01*
X10314504Y-22127326D01*
X10422463Y-22148800D01*
X10532537Y-22148800D01*
X10640496Y-22127326D01*
X10742191Y-22085202D01*
X10833714Y-22024048D01*
X10911548Y-21946214D01*
X10940726Y-21902546D01*
X10940726Y-22314500D01*
X10949589Y-22404490D01*
X10975838Y-22491022D01*
X11016015Y-22566187D01*
X10976289Y-22598789D01*
X10928678Y-22656804D01*
X10893299Y-22722992D01*
X10871513Y-22794811D01*
X10864157Y-22869500D01*
X10866000Y-23014750D01*
X10961250Y-23110000D01*
X11430000Y-23110000D01*
X11430000Y-23090000D01*
X11684000Y-23090000D01*
X11684000Y-23110000D01*
X12152750Y-23110000D01*
X12248000Y-23014750D01*
X12249843Y-22869500D01*
X12242487Y-22794811D01*
X12220701Y-22722992D01*
X12187458Y-22660800D01*
X12198100Y-22660800D01*
X12264186Y-22688174D01*
X12381960Y-22711600D01*
X12502040Y-22711600D01*
X12619814Y-22688174D01*
X12636791Y-22681142D01*
X12636790Y-23184250D01*
X12627118Y-23196036D01*
X12575229Y-23293113D01*
X12543277Y-23398446D01*
X12532487Y-23507990D01*
X12543277Y-23617534D01*
X12566169Y-23693000D01*
X12449998Y-23693000D01*
X12449998Y-23788248D01*
X12354750Y-23693000D01*
X12238744Y-23691528D01*
X12242487Y-23679189D01*
X12249843Y-23604500D01*
X12248000Y-23459250D01*
X12152750Y-23364000D01*
X11684000Y-23364000D01*
X11684000Y-23890250D01*
X11779250Y-23985500D01*
X11837829Y-23986730D01*
X11834013Y-23999311D01*
X11826657Y-24074000D01*
X11828500Y-24161750D01*
X11923750Y-24257000D01*
X12450000Y-24257000D01*
X12450000Y-24237000D01*
X12704000Y-24237000D01*
X12704000Y-24257000D01*
X12724000Y-24257000D01*
X12724000Y-24511000D01*
X12704000Y-24511000D01*
X12704000Y-24531000D01*
X12450000Y-24531000D01*
X12450000Y-24511000D01*
X11923750Y-24511000D01*
X11855549Y-24579201D01*
X7568970Y-24579201D01*
X7580508Y-24575701D01*
X7646696Y-24540322D01*
X7704711Y-24492711D01*
X7752322Y-24434696D01*
X7787701Y-24368508D01*
X7809487Y-24296689D01*
X7816843Y-24222000D01*
X7815000Y-23844250D01*
X7719750Y-23749000D01*
X7111000Y-23749000D01*
X7111000Y-23769000D01*
X6857000Y-23769000D01*
X6857000Y-23749000D01*
X6837000Y-23749000D01*
X6837000Y-23495000D01*
X6857000Y-23495000D01*
X6857000Y-22736250D01*
X7111000Y-22736250D01*
X7111000Y-23495000D01*
X7719750Y-23495000D01*
X7801750Y-23413000D01*
X8253000Y-23413000D01*
X8253000Y-23738000D01*
X8296146Y-23922066D01*
X8374372Y-24094178D01*
X8484672Y-24247722D01*
X8622808Y-24376797D01*
X8783471Y-24476443D01*
X8935338Y-24526994D01*
X9082000Y-24462329D01*
X9082000Y-23413000D01*
X9336000Y-23413000D01*
X9336000Y-24462329D01*
X9482662Y-24526994D01*
X9634529Y-24476443D01*
X9795192Y-24376797D01*
X9933328Y-24247722D01*
X10043628Y-24094178D01*
X10121854Y-23922066D01*
X10165000Y-23738000D01*
X10165000Y-23604500D01*
X10864157Y-23604500D01*
X10871513Y-23679189D01*
X10893299Y-23751008D01*
X10928678Y-23817196D01*
X10976289Y-23875211D01*
X11034304Y-23922822D01*
X11100492Y-23958201D01*
X11172311Y-23979987D01*
X11247000Y-23987343D01*
X11334750Y-23985500D01*
X11430000Y-23890250D01*
X11430000Y-23364000D01*
X10961250Y-23364000D01*
X10866000Y-23459250D01*
X10864157Y-23604500D01*
X10165000Y-23604500D01*
X10165000Y-23413000D01*
X9336000Y-23413000D01*
X9082000Y-23413000D01*
X8253000Y-23413000D01*
X7801750Y-23413000D01*
X7815000Y-23399750D01*
X7816843Y-23022000D01*
X7809487Y-22947311D01*
X7787701Y-22875492D01*
X7765523Y-22834000D01*
X8253000Y-22834000D01*
X8253000Y-23159000D01*
X9082000Y-23159000D01*
X9082000Y-22109671D01*
X9336000Y-22109671D01*
X9336000Y-23159000D01*
X10165000Y-23159000D01*
X10165000Y-22834000D01*
X10121854Y-22649934D01*
X10043628Y-22477822D01*
X9933328Y-22324278D01*
X9795192Y-22195203D01*
X9634529Y-22095557D01*
X9482662Y-22045006D01*
X9336000Y-22109671D01*
X9082000Y-22109671D01*
X8935338Y-22045006D01*
X8783471Y-22095557D01*
X8622808Y-22195203D01*
X8484672Y-22324278D01*
X8374372Y-22477822D01*
X8296146Y-22649934D01*
X8253000Y-22834000D01*
X7765523Y-22834000D01*
X7752322Y-22809304D01*
X7704711Y-22751289D01*
X7646696Y-22703678D01*
X7580508Y-22668299D01*
X7508689Y-22646513D01*
X7434000Y-22639157D01*
X7206250Y-22641000D01*
X7111000Y-22736250D01*
X6857000Y-22736250D01*
X6761750Y-22641000D01*
X6534000Y-22639157D01*
X6493700Y-22643126D01*
X6493700Y-22606000D01*
X6604000Y-22606000D01*
X6678329Y-22598679D01*
X6749802Y-22576998D01*
X6815672Y-22541790D01*
X6873408Y-22494408D01*
X6920790Y-22436672D01*
X6936026Y-22408168D01*
X6949250Y-22408000D01*
X7044500Y-22312750D01*
X7044500Y-21844000D01*
X7298500Y-21844000D01*
X7298500Y-22312750D01*
X7393750Y-22408000D01*
X7539000Y-22409843D01*
X7613689Y-22402487D01*
X7685508Y-22380701D01*
X7751696Y-22345322D01*
X7809711Y-22297711D01*
X7857322Y-22239696D01*
X7892701Y-22173508D01*
X7914487Y-22101689D01*
X7921843Y-22027000D01*
X7920000Y-21939250D01*
X7824750Y-21844000D01*
X7298500Y-21844000D01*
X7044500Y-21844000D01*
X7024500Y-21844000D01*
X7024500Y-21590000D01*
X7044500Y-21590000D01*
X7044500Y-21121250D01*
X6985000Y-21061750D01*
X6985000Y-20466583D01*
X7129200Y-20466583D01*
X7129200Y-20605417D01*
X7156285Y-20741583D01*
X7209415Y-20869848D01*
X7286546Y-20985284D01*
X7360506Y-21059244D01*
X7298500Y-21121250D01*
X7298500Y-21590000D01*
X7824750Y-21590000D01*
X7920000Y-21494750D01*
X7921843Y-21407000D01*
X7914487Y-21332311D01*
X7892701Y-21260492D01*
X7882175Y-21240800D01*
X7903417Y-21240800D01*
X8039583Y-21213715D01*
X8167848Y-21160585D01*
X8283284Y-21083454D01*
X8381454Y-20985284D01*
X8458585Y-20869848D01*
X8511715Y-20741583D01*
X8514395Y-20728108D01*
X8550137Y-20751163D01*
X8761692Y-20826290D01*
X8932000Y-20763740D01*
X8932000Y-19613000D01*
X7953000Y-19613000D01*
X7953000Y-19841063D01*
X7903417Y-19831200D01*
X7764583Y-19831200D01*
X7628417Y-19858285D01*
X7500152Y-19911415D01*
X7384716Y-19988546D01*
X7286546Y-20086716D01*
X7209415Y-20202152D01*
X7156285Y-20330417D01*
X7129200Y-20466583D01*
X6985000Y-20466583D01*
X6985000Y-18542000D01*
X6977679Y-18467671D01*
X6955998Y-18396198D01*
X6920790Y-18330328D01*
X6873408Y-18272592D01*
X6815672Y-18225210D01*
X6749802Y-18190002D01*
X6678329Y-18168321D01*
X6604000Y-18161000D01*
X4064000Y-18161000D01*
X3989671Y-18168321D01*
X3918198Y-18190002D01*
X3852328Y-18225210D01*
X3794592Y-18272592D01*
X3747210Y-18330328D01*
X3712002Y-18396198D01*
X3690321Y-18467671D01*
X3683000Y-18542000D01*
X3683000Y-20231719D01*
X3632186Y-20241826D01*
X3521246Y-20287779D01*
X3499948Y-20302010D01*
X3458585Y-20202152D01*
X3381454Y-20086716D01*
X3283284Y-19988546D01*
X3167848Y-19911415D01*
X3039583Y-19858285D01*
X2903417Y-19831200D01*
X2764583Y-19831200D01*
X2715000Y-19841063D01*
X2715000Y-19613000D01*
X1736000Y-19613000D01*
X1736000Y-20763740D01*
X1906308Y-20826290D01*
X2117863Y-20751163D01*
X2153605Y-20728108D01*
X2156285Y-20741583D01*
X2209415Y-20869848D01*
X2286546Y-20985284D01*
X2384716Y-21083454D01*
X2500152Y-21160585D01*
X2628417Y-21213715D01*
X2764583Y-21240800D01*
X2903417Y-21240800D01*
X2933047Y-21234906D01*
X2881307Y-21297952D01*
X2838219Y-21378565D01*
X2811685Y-21466034D01*
X2802726Y-21557000D01*
X2802726Y-21877000D01*
X2811685Y-21967966D01*
X2838219Y-22055435D01*
X2881307Y-22136048D01*
X2932701Y-22198672D01*
X2932700Y-22971496D01*
X2927726Y-23022000D01*
X2927726Y-24222000D01*
X2933611Y-24281751D01*
X2951040Y-24339206D01*
X2979342Y-24392157D01*
X3017432Y-24438568D01*
X3063843Y-24476658D01*
X3116794Y-24504960D01*
X3174249Y-24522389D01*
X3234000Y-24528274D01*
X4134000Y-24528274D01*
X4193751Y-24522389D01*
X4251206Y-24504960D01*
X4304157Y-24476658D01*
X4350568Y-24438568D01*
X4388658Y-24392157D01*
X4416960Y-24339206D01*
X4434389Y-24281751D01*
X4440274Y-24222000D01*
X4440274Y-23022000D01*
X4434389Y-22962249D01*
X4416960Y-22904794D01*
X4388658Y-22851843D01*
X4350568Y-22805432D01*
X4304157Y-22767342D01*
X4251206Y-22739040D01*
X4193751Y-22721611D01*
X4134000Y-22715726D01*
X4050300Y-22715726D01*
X4050300Y-22604651D01*
X4064000Y-22606000D01*
X5579301Y-22606000D01*
X5579300Y-24302050D01*
X5577089Y-24324500D01*
X5579300Y-24346950D01*
X5579300Y-24346959D01*
X5585915Y-24414126D01*
X5612059Y-24500308D01*
X5654513Y-24579735D01*
X5711647Y-24649353D01*
X5729097Y-24663674D01*
X6135622Y-25070200D01*
X329800Y-25070200D01*
X329800Y-23413000D01*
X503000Y-23413000D01*
X503000Y-23738000D01*
X546146Y-23922066D01*
X624372Y-24094178D01*
X734672Y-24247722D01*
X872808Y-24376797D01*
X1033471Y-24476443D01*
X1185338Y-24526994D01*
X1332000Y-24462329D01*
X1332000Y-23413000D01*
X1586000Y-23413000D01*
X1586000Y-24462329D01*
X1732662Y-24526994D01*
X1884529Y-24476443D01*
X2045192Y-24376797D01*
X2183328Y-24247722D01*
X2293628Y-24094178D01*
X2371854Y-23922066D01*
X2415000Y-23738000D01*
X2415000Y-23413000D01*
X1586000Y-23413000D01*
X1332000Y-23413000D01*
X503000Y-23413000D01*
X329800Y-23413000D01*
X329800Y-22834000D01*
X503000Y-22834000D01*
X503000Y-23159000D01*
X1332000Y-23159000D01*
X1332000Y-22109671D01*
X1586000Y-22109671D01*
X1586000Y-23159000D01*
X2415000Y-23159000D01*
X2415000Y-22834000D01*
X2371854Y-22649934D01*
X2293628Y-22477822D01*
X2183328Y-22324278D01*
X2045192Y-22195203D01*
X1884529Y-22095557D01*
X1732662Y-22045006D01*
X1586000Y-22109671D01*
X1332000Y-22109671D01*
X1185338Y-22045006D01*
X1033471Y-22095557D01*
X872808Y-22195203D01*
X734672Y-22324278D01*
X624372Y-22477822D01*
X546146Y-22649934D01*
X503000Y-22834000D01*
X329800Y-22834000D01*
X329800Y-19613000D01*
X503000Y-19613000D01*
X503000Y-19888000D01*
X549028Y-20101330D01*
X635790Y-20301581D01*
X759952Y-20481058D01*
X916743Y-20632863D01*
X1100137Y-20751163D01*
X1311692Y-20826290D01*
X1482000Y-20763740D01*
X1482000Y-19613000D01*
X503000Y-19613000D01*
X329800Y-19613000D01*
X329800Y-19084000D01*
X503000Y-19084000D01*
X503000Y-19359000D01*
X1482000Y-19359000D01*
X1482000Y-18208260D01*
X1736000Y-18208260D01*
X1736000Y-19359000D01*
X2715000Y-19359000D01*
X2715000Y-19084000D01*
X2668972Y-18870670D01*
X2582210Y-18670419D01*
X2458048Y-18490942D01*
X2301257Y-18339137D01*
X2117863Y-18220837D01*
X1906308Y-18145710D01*
X1736000Y-18208260D01*
X1482000Y-18208260D01*
X1311692Y-18145710D01*
X1100137Y-18220837D01*
X916743Y-18339137D01*
X759952Y-18490942D01*
X635790Y-18670419D01*
X549028Y-18870670D01*
X503000Y-19084000D01*
X329800Y-19084000D01*
X329800Y-13660963D01*
X2235200Y-13660963D01*
X2235200Y-13771037D01*
X2256674Y-13878996D01*
X2298798Y-13980691D01*
X2359952Y-14072214D01*
X2437786Y-14150048D01*
X2529309Y-14211202D01*
X2631004Y-14253326D01*
X2738963Y-14274800D01*
X2849037Y-14274800D01*
X2956996Y-14253326D01*
X3058691Y-14211202D01*
X3150214Y-14150048D01*
X3228048Y-14072214D01*
X3289202Y-13980691D01*
X3331326Y-13878996D01*
X3352800Y-13771037D01*
X3352800Y-13660963D01*
X3331326Y-13553004D01*
X3289202Y-13451309D01*
X3228048Y-13359786D01*
X3150214Y-13281952D01*
X3058691Y-13220798D01*
X2956996Y-13178674D01*
X2849037Y-13157200D01*
X2738963Y-13157200D01*
X2631004Y-13178674D01*
X2529309Y-13220798D01*
X2437786Y-13281952D01*
X2359952Y-13359786D01*
X2298798Y-13451309D01*
X2256674Y-13553004D01*
X2235200Y-13660963D01*
X329800Y-13660963D01*
X329800Y-12998491D01*
X8778788Y-12998491D01*
X8778788Y-13108565D01*
X8800262Y-13216524D01*
X8842386Y-13318219D01*
X8903540Y-13409742D01*
X8981374Y-13487576D01*
X9072897Y-13548730D01*
X9174592Y-13590854D01*
X9282551Y-13612328D01*
X9392625Y-13612328D01*
X9500584Y-13590854D01*
X9602279Y-13548730D01*
X9693802Y-13487576D01*
X9771636Y-13409742D01*
X9832790Y-13318219D01*
X9874914Y-13216524D01*
X9896388Y-13108565D01*
X9896388Y-12998491D01*
X9874914Y-12890532D01*
X9832790Y-12788837D01*
X9771636Y-12697314D01*
X9693802Y-12619480D01*
X9602279Y-12558326D01*
X9500584Y-12516202D01*
X9392625Y-12494728D01*
X9282551Y-12494728D01*
X9174592Y-12516202D01*
X9072897Y-12558326D01*
X8981374Y-12619480D01*
X8903540Y-12697314D01*
X8842386Y-12788837D01*
X8800262Y-12890532D01*
X8778788Y-12998491D01*
X329800Y-12998491D01*
X329800Y-12732724D01*
X1992750Y-12731000D01*
X2088000Y-12635750D01*
X2088000Y-11727000D01*
X2342000Y-11727000D01*
X2342000Y-12635750D01*
X2437250Y-12731000D01*
X4215000Y-12732843D01*
X4289689Y-12725487D01*
X4361508Y-12703701D01*
X4427696Y-12668322D01*
X4485711Y-12620711D01*
X4533322Y-12562696D01*
X4568701Y-12496508D01*
X4590487Y-12424689D01*
X4597843Y-12350000D01*
X4596000Y-11822250D01*
X4500750Y-11727000D01*
X2342000Y-11727000D01*
X2088000Y-11727000D01*
X2068000Y-11727000D01*
X2068000Y-11473000D01*
X2088000Y-11473000D01*
X2088000Y-11453000D01*
X2342000Y-11453000D01*
X2342000Y-11473000D01*
X4500750Y-11473000D01*
X4596000Y-11377750D01*
X4596883Y-11124800D01*
X5190807Y-11124800D01*
X5207000Y-11126395D01*
X5223193Y-11124800D01*
X5271652Y-11120027D01*
X5333819Y-11101169D01*
X5391113Y-11070545D01*
X5441332Y-11029332D01*
X5482545Y-10979113D01*
X5513169Y-10921819D01*
X5513708Y-10920042D01*
X5548000Y-10885750D01*
X5548000Y-10227000D01*
X5536800Y-10227000D01*
X5536800Y-9973000D01*
X5548000Y-9973000D01*
X5548000Y-9123000D01*
X5536800Y-9123000D01*
X5536800Y-9077000D01*
X5548000Y-9077000D01*
X5548000Y-9056274D01*
X5802000Y-9056274D01*
X5802000Y-9077000D01*
%TA.AperFunction,Conductor*%
D31*
G36*
X5802000Y-9077000D02*
G01*
X5822000Y-9077000D01*
X5822000Y-9123000D01*
X5802000Y-9123000D01*
X5802000Y-9973000D01*
X5822000Y-9973000D01*
X5822000Y-10227000D01*
X5802000Y-10227000D01*
X5802000Y-10885750D01*
X5897250Y-10981000D01*
X6175000Y-10982843D01*
X6249689Y-10975487D01*
X6321508Y-10953701D01*
X6387696Y-10918322D01*
X6405832Y-10903438D01*
X7911197Y-12408803D01*
X7930443Y-12424597D01*
X7952399Y-12436333D01*
X7976224Y-12443560D01*
X8001000Y-12446000D01*
X10295370Y-12446000D01*
X10257674Y-12537004D01*
X10236200Y-12644963D01*
X10236200Y-12755037D01*
X10257674Y-12862996D01*
X10299798Y-12964691D01*
X10360952Y-13056214D01*
X10438786Y-13134048D01*
X10505443Y-13178587D01*
X10505004Y-13178674D01*
X10403309Y-13220798D01*
X10311786Y-13281952D01*
X10233952Y-13359786D01*
X10172798Y-13451309D01*
X10130674Y-13553004D01*
X10109200Y-13660963D01*
X10109200Y-13771037D01*
X10130674Y-13878996D01*
X10172798Y-13980691D01*
X10233952Y-14072214D01*
X10311786Y-14150048D01*
X10403309Y-14211202D01*
X10505004Y-14253326D01*
X10612963Y-14274800D01*
X10723037Y-14274800D01*
X10830996Y-14253326D01*
X10932691Y-14211202D01*
X11024214Y-14150048D01*
X11102048Y-14072214D01*
X11163202Y-13980691D01*
X11205326Y-13878996D01*
X11226800Y-13771037D01*
X11226800Y-13660963D01*
X11205326Y-13553004D01*
X11163202Y-13451309D01*
X11102048Y-13359786D01*
X11024214Y-13281952D01*
X10957557Y-13237413D01*
X10957996Y-13237326D01*
X11059691Y-13195202D01*
X11151214Y-13134048D01*
X11229048Y-13056214D01*
X11290202Y-12964691D01*
X11332326Y-12862996D01*
X11353800Y-12755037D01*
X11353800Y-12644963D01*
X11332326Y-12537004D01*
X11294630Y-12446000D01*
X13433738Y-12446000D01*
X13408952Y-12470786D01*
X13347798Y-12562309D01*
X13305674Y-12664004D01*
X13284200Y-12771963D01*
X13284200Y-12882037D01*
X13288326Y-12902782D01*
X13274383Y-12898552D01*
X13200000Y-12891226D01*
X13050000Y-12891226D01*
X12975617Y-12898552D01*
X12904093Y-12920249D01*
X12838176Y-12955482D01*
X12780399Y-13002899D01*
X12732982Y-13060676D01*
X12697749Y-13126593D01*
X12676052Y-13198117D01*
X12668726Y-13272500D01*
X12668726Y-13903148D01*
X12667801Y-13912540D01*
X12667800Y-14890300D01*
X11788976Y-14890300D01*
X11729059Y-14884399D01*
X11729049Y-14884399D01*
X11706599Y-14882188D01*
X11684149Y-14884399D01*
X9903798Y-14884399D01*
X9881348Y-14882188D01*
X9858898Y-14884399D01*
X9858889Y-14884399D01*
X9791722Y-14891014D01*
X9705540Y-14917158D01*
X9626113Y-14959612D01*
X9556496Y-15016746D01*
X9542179Y-15034191D01*
X8709592Y-15866778D01*
X8692148Y-15881095D01*
X8677831Y-15898540D01*
X8677830Y-15898541D01*
X8635013Y-15950713D01*
X8609589Y-15998280D01*
X8592560Y-16030139D01*
X8566416Y-16116321D01*
X8559800Y-16183488D01*
X8559800Y-16183498D01*
X8557589Y-16205948D01*
X8559800Y-16228398D01*
X8559800Y-16232094D01*
X8543492Y-16248402D01*
X8491507Y-16326204D01*
X8178820Y-16013518D01*
X8178820Y-15229778D01*
X8180785Y-15209825D01*
X8178820Y-15189872D01*
X8178820Y-15189865D01*
X8172939Y-15130157D01*
X8165725Y-15106373D01*
X8149701Y-15053550D01*
X8149674Y-15053500D01*
X8135382Y-15026761D01*
X8135382Y-14958950D01*
X8113908Y-14850991D01*
X8071784Y-14749296D01*
X8010630Y-14657773D01*
X7932796Y-14579939D01*
X7841273Y-14518785D01*
X7739578Y-14476661D01*
X7631619Y-14455187D01*
X7521545Y-14455187D01*
X7413586Y-14476661D01*
X7311891Y-14518785D01*
X7245481Y-14563159D01*
X7158344Y-14504936D01*
X7056649Y-14462812D01*
X6948690Y-14441338D01*
X6838616Y-14441338D01*
X6730657Y-14462812D01*
X6628962Y-14504936D01*
X6537439Y-14566090D01*
X6459605Y-14643924D01*
X6398451Y-14735447D01*
X6390423Y-14754829D01*
X6334549Y-14737880D01*
X6274841Y-14731999D01*
X6274834Y-14731999D01*
X6254881Y-14730034D01*
X6234928Y-14731999D01*
X4409761Y-14731999D01*
X4356714Y-14678952D01*
X4265191Y-14617798D01*
X4163496Y-14575674D01*
X4055537Y-14554200D01*
X3945463Y-14554200D01*
X3837504Y-14575674D01*
X3735809Y-14617798D01*
X3644286Y-14678952D01*
X3566452Y-14756786D01*
X3505298Y-14848309D01*
X3463174Y-14950004D01*
X3441700Y-15057963D01*
X3441700Y-15168037D01*
X3463174Y-15275996D01*
X3505298Y-15377691D01*
X3566452Y-15469214D01*
X3644286Y-15547048D01*
X3735809Y-15608202D01*
X3837504Y-15650326D01*
X3877863Y-15658354D01*
X3842432Y-15687432D01*
X3804342Y-15733843D01*
X3776040Y-15786794D01*
X3758611Y-15844249D01*
X3752726Y-15904000D01*
X3752726Y-17464000D01*
X3758611Y-17523751D01*
X3776040Y-17581206D01*
X3804342Y-17634157D01*
X3842432Y-17680568D01*
X3888843Y-17718658D01*
X3941794Y-17746960D01*
X3999249Y-17764389D01*
X4059000Y-17770274D01*
X4709000Y-17770274D01*
X4768751Y-17764389D01*
X4826206Y-17746960D01*
X4837453Y-17740949D01*
X4855002Y-17798802D01*
X4890210Y-17864672D01*
X4937592Y-17922408D01*
X4995328Y-17969790D01*
X5061198Y-18004998D01*
X5132671Y-18026679D01*
X5207000Y-18034000D01*
X6731000Y-18034000D01*
X6805329Y-18026679D01*
X6876802Y-18004998D01*
X6942672Y-17969790D01*
X7000408Y-17922408D01*
X7047790Y-17864672D01*
X7082998Y-17798802D01*
X7104679Y-17727329D01*
X7112000Y-17653000D01*
X7112000Y-17030142D01*
X8185938Y-18104081D01*
X8198657Y-18119579D01*
X8214155Y-18132298D01*
X8214160Y-18132303D01*
X8230497Y-18145710D01*
X8260539Y-18170365D01*
X8331140Y-18208102D01*
X8407747Y-18231340D01*
X8467455Y-18237221D01*
X8467462Y-18237221D01*
X8487415Y-18239186D01*
X8507368Y-18237221D01*
X8524738Y-18237221D01*
X8366743Y-18339137D01*
X8209952Y-18490942D01*
X8085790Y-18670419D01*
X7999028Y-18870670D01*
X7953000Y-19084000D01*
X7953000Y-19359000D01*
X8932000Y-19359000D01*
X8932000Y-19339000D01*
X9186000Y-19339000D01*
X9186000Y-19359000D01*
X10165000Y-19359000D01*
X10165000Y-19084000D01*
X10164098Y-19079821D01*
X10535241Y-19450964D01*
X10547965Y-19466468D01*
X10609847Y-19517254D01*
X10671934Y-19550440D01*
X10680448Y-19554991D01*
X10686672Y-19556879D01*
X10696765Y-19565162D01*
X10697749Y-19568407D01*
X10713299Y-19597500D01*
X10697749Y-19626593D01*
X10676052Y-19698117D01*
X10668726Y-19772500D01*
X10668726Y-19922500D01*
X10671913Y-19954859D01*
X10633983Y-19966365D01*
X10621278Y-19970219D01*
X10550677Y-20007956D01*
X10527124Y-20027286D01*
X10504298Y-20046018D01*
X10504293Y-20046023D01*
X10488795Y-20058742D01*
X10476075Y-20074241D01*
X10367610Y-20182706D01*
X10328510Y-20182706D01*
X10220551Y-20204180D01*
X10118856Y-20246304D01*
X10028842Y-20306450D01*
X10032210Y-20301581D01*
X10118972Y-20101330D01*
X10165000Y-19888000D01*
X10165000Y-19613000D01*
X9186000Y-19613000D01*
X9186000Y-20763740D01*
X9356308Y-20826290D01*
X9567863Y-20751163D01*
X9751257Y-20632863D01*
X9872218Y-20515749D01*
X9846221Y-20578510D01*
X9824747Y-20686469D01*
X9824747Y-20796543D01*
X9846221Y-20904502D01*
X9888345Y-21006197D01*
X9949499Y-21097720D01*
X10027333Y-21175554D01*
X10071903Y-21205335D01*
X10043452Y-21233786D01*
X9982298Y-21325309D01*
X9940174Y-21427004D01*
X9918700Y-21534963D01*
X9918700Y-21645037D01*
X9940174Y-21752996D01*
X9982298Y-21854691D01*
X10043452Y-21946214D01*
X10121286Y-22024048D01*
X10212809Y-22085202D01*
X10314504Y-22127326D01*
X10422463Y-22148800D01*
X10532537Y-22148800D01*
X10640496Y-22127326D01*
X10742191Y-22085202D01*
X10833714Y-22024048D01*
X10911548Y-21946214D01*
X10940726Y-21902546D01*
X10940726Y-22314500D01*
X10949589Y-22404490D01*
X10975838Y-22491022D01*
X11016015Y-22566187D01*
X10976289Y-22598789D01*
X10928678Y-22656804D01*
X10893299Y-22722992D01*
X10871513Y-22794811D01*
X10864157Y-22869500D01*
X10866000Y-23014750D01*
X10961250Y-23110000D01*
X11430000Y-23110000D01*
X11430000Y-23090000D01*
X11684000Y-23090000D01*
X11684000Y-23110000D01*
X12152750Y-23110000D01*
X12248000Y-23014750D01*
X12249843Y-22869500D01*
X12242487Y-22794811D01*
X12220701Y-22722992D01*
X12187458Y-22660800D01*
X12198100Y-22660800D01*
X12264186Y-22688174D01*
X12381960Y-22711600D01*
X12502040Y-22711600D01*
X12619814Y-22688174D01*
X12636791Y-22681142D01*
X12636790Y-23184250D01*
X12627118Y-23196036D01*
X12575229Y-23293113D01*
X12543277Y-23398446D01*
X12532487Y-23507990D01*
X12543277Y-23617534D01*
X12566169Y-23693000D01*
X12449998Y-23693000D01*
X12449998Y-23788248D01*
X12354750Y-23693000D01*
X12238744Y-23691528D01*
X12242487Y-23679189D01*
X12249843Y-23604500D01*
X12248000Y-23459250D01*
X12152750Y-23364000D01*
X11684000Y-23364000D01*
X11684000Y-23890250D01*
X11779250Y-23985500D01*
X11837829Y-23986730D01*
X11834013Y-23999311D01*
X11826657Y-24074000D01*
X11828500Y-24161750D01*
X11923750Y-24257000D01*
X12450000Y-24257000D01*
X12450000Y-24237000D01*
X12704000Y-24237000D01*
X12704000Y-24257000D01*
X12724000Y-24257000D01*
X12724000Y-24511000D01*
X12704000Y-24511000D01*
X12704000Y-24531000D01*
X12450000Y-24531000D01*
X12450000Y-24511000D01*
X11923750Y-24511000D01*
X11855549Y-24579201D01*
X7568970Y-24579201D01*
X7580508Y-24575701D01*
X7646696Y-24540322D01*
X7704711Y-24492711D01*
X7752322Y-24434696D01*
X7787701Y-24368508D01*
X7809487Y-24296689D01*
X7816843Y-24222000D01*
X7815000Y-23844250D01*
X7719750Y-23749000D01*
X7111000Y-23749000D01*
X7111000Y-23769000D01*
X6857000Y-23769000D01*
X6857000Y-23749000D01*
X6837000Y-23749000D01*
X6837000Y-23495000D01*
X6857000Y-23495000D01*
X6857000Y-22736250D01*
X7111000Y-22736250D01*
X7111000Y-23495000D01*
X7719750Y-23495000D01*
X7801750Y-23413000D01*
X8253000Y-23413000D01*
X8253000Y-23738000D01*
X8296146Y-23922066D01*
X8374372Y-24094178D01*
X8484672Y-24247722D01*
X8622808Y-24376797D01*
X8783471Y-24476443D01*
X8935338Y-24526994D01*
X9082000Y-24462329D01*
X9082000Y-23413000D01*
X9336000Y-23413000D01*
X9336000Y-24462329D01*
X9482662Y-24526994D01*
X9634529Y-24476443D01*
X9795192Y-24376797D01*
X9933328Y-24247722D01*
X10043628Y-24094178D01*
X10121854Y-23922066D01*
X10165000Y-23738000D01*
X10165000Y-23604500D01*
X10864157Y-23604500D01*
X10871513Y-23679189D01*
X10893299Y-23751008D01*
X10928678Y-23817196D01*
X10976289Y-23875211D01*
X11034304Y-23922822D01*
X11100492Y-23958201D01*
X11172311Y-23979987D01*
X11247000Y-23987343D01*
X11334750Y-23985500D01*
X11430000Y-23890250D01*
X11430000Y-23364000D01*
X10961250Y-23364000D01*
X10866000Y-23459250D01*
X10864157Y-23604500D01*
X10165000Y-23604500D01*
X10165000Y-23413000D01*
X9336000Y-23413000D01*
X9082000Y-23413000D01*
X8253000Y-23413000D01*
X7801750Y-23413000D01*
X7815000Y-23399750D01*
X7816843Y-23022000D01*
X7809487Y-22947311D01*
X7787701Y-22875492D01*
X7765523Y-22834000D01*
X8253000Y-22834000D01*
X8253000Y-23159000D01*
X9082000Y-23159000D01*
X9082000Y-22109671D01*
X9336000Y-22109671D01*
X9336000Y-23159000D01*
X10165000Y-23159000D01*
X10165000Y-22834000D01*
X10121854Y-22649934D01*
X10043628Y-22477822D01*
X9933328Y-22324278D01*
X9795192Y-22195203D01*
X9634529Y-22095557D01*
X9482662Y-22045006D01*
X9336000Y-22109671D01*
X9082000Y-22109671D01*
X8935338Y-22045006D01*
X8783471Y-22095557D01*
X8622808Y-22195203D01*
X8484672Y-22324278D01*
X8374372Y-22477822D01*
X8296146Y-22649934D01*
X8253000Y-22834000D01*
X7765523Y-22834000D01*
X7752322Y-22809304D01*
X7704711Y-22751289D01*
X7646696Y-22703678D01*
X7580508Y-22668299D01*
X7508689Y-22646513D01*
X7434000Y-22639157D01*
X7206250Y-22641000D01*
X7111000Y-22736250D01*
X6857000Y-22736250D01*
X6761750Y-22641000D01*
X6534000Y-22639157D01*
X6493700Y-22643126D01*
X6493700Y-22606000D01*
X6604000Y-22606000D01*
X6678329Y-22598679D01*
X6749802Y-22576998D01*
X6815672Y-22541790D01*
X6873408Y-22494408D01*
X6920790Y-22436672D01*
X6936026Y-22408168D01*
X6949250Y-22408000D01*
X7044500Y-22312750D01*
X7044500Y-21844000D01*
X7298500Y-21844000D01*
X7298500Y-22312750D01*
X7393750Y-22408000D01*
X7539000Y-22409843D01*
X7613689Y-22402487D01*
X7685508Y-22380701D01*
X7751696Y-22345322D01*
X7809711Y-22297711D01*
X7857322Y-22239696D01*
X7892701Y-22173508D01*
X7914487Y-22101689D01*
X7921843Y-22027000D01*
X7920000Y-21939250D01*
X7824750Y-21844000D01*
X7298500Y-21844000D01*
X7044500Y-21844000D01*
X7024500Y-21844000D01*
X7024500Y-21590000D01*
X7044500Y-21590000D01*
X7044500Y-21121250D01*
X6985000Y-21061750D01*
X6985000Y-20466583D01*
X7129200Y-20466583D01*
X7129200Y-20605417D01*
X7156285Y-20741583D01*
X7209415Y-20869848D01*
X7286546Y-20985284D01*
X7360506Y-21059244D01*
X7298500Y-21121250D01*
X7298500Y-21590000D01*
X7824750Y-21590000D01*
X7920000Y-21494750D01*
X7921843Y-21407000D01*
X7914487Y-21332311D01*
X7892701Y-21260492D01*
X7882175Y-21240800D01*
X7903417Y-21240800D01*
X8039583Y-21213715D01*
X8167848Y-21160585D01*
X8283284Y-21083454D01*
X8381454Y-20985284D01*
X8458585Y-20869848D01*
X8511715Y-20741583D01*
X8514395Y-20728108D01*
X8550137Y-20751163D01*
X8761692Y-20826290D01*
X8932000Y-20763740D01*
X8932000Y-19613000D01*
X7953000Y-19613000D01*
X7953000Y-19841063D01*
X7903417Y-19831200D01*
X7764583Y-19831200D01*
X7628417Y-19858285D01*
X7500152Y-19911415D01*
X7384716Y-19988546D01*
X7286546Y-20086716D01*
X7209415Y-20202152D01*
X7156285Y-20330417D01*
X7129200Y-20466583D01*
X6985000Y-20466583D01*
X6985000Y-18542000D01*
X6977679Y-18467671D01*
X6955998Y-18396198D01*
X6920790Y-18330328D01*
X6873408Y-18272592D01*
X6815672Y-18225210D01*
X6749802Y-18190002D01*
X6678329Y-18168321D01*
X6604000Y-18161000D01*
X4064000Y-18161000D01*
X3989671Y-18168321D01*
X3918198Y-18190002D01*
X3852328Y-18225210D01*
X3794592Y-18272592D01*
X3747210Y-18330328D01*
X3712002Y-18396198D01*
X3690321Y-18467671D01*
X3683000Y-18542000D01*
X3683000Y-20231719D01*
X3632186Y-20241826D01*
X3521246Y-20287779D01*
X3499948Y-20302010D01*
X3458585Y-20202152D01*
X3381454Y-20086716D01*
X3283284Y-19988546D01*
X3167848Y-19911415D01*
X3039583Y-19858285D01*
X2903417Y-19831200D01*
X2764583Y-19831200D01*
X2715000Y-19841063D01*
X2715000Y-19613000D01*
X1736000Y-19613000D01*
X1736000Y-20763740D01*
X1906308Y-20826290D01*
X2117863Y-20751163D01*
X2153605Y-20728108D01*
X2156285Y-20741583D01*
X2209415Y-20869848D01*
X2286546Y-20985284D01*
X2384716Y-21083454D01*
X2500152Y-21160585D01*
X2628417Y-21213715D01*
X2764583Y-21240800D01*
X2903417Y-21240800D01*
X2933047Y-21234906D01*
X2881307Y-21297952D01*
X2838219Y-21378565D01*
X2811685Y-21466034D01*
X2802726Y-21557000D01*
X2802726Y-21877000D01*
X2811685Y-21967966D01*
X2838219Y-22055435D01*
X2881307Y-22136048D01*
X2932701Y-22198672D01*
X2932700Y-22971496D01*
X2927726Y-23022000D01*
X2927726Y-24222000D01*
X2933611Y-24281751D01*
X2951040Y-24339206D01*
X2979342Y-24392157D01*
X3017432Y-24438568D01*
X3063843Y-24476658D01*
X3116794Y-24504960D01*
X3174249Y-24522389D01*
X3234000Y-24528274D01*
X4134000Y-24528274D01*
X4193751Y-24522389D01*
X4251206Y-24504960D01*
X4304157Y-24476658D01*
X4350568Y-24438568D01*
X4388658Y-24392157D01*
X4416960Y-24339206D01*
X4434389Y-24281751D01*
X4440274Y-24222000D01*
X4440274Y-23022000D01*
X4434389Y-22962249D01*
X4416960Y-22904794D01*
X4388658Y-22851843D01*
X4350568Y-22805432D01*
X4304157Y-22767342D01*
X4251206Y-22739040D01*
X4193751Y-22721611D01*
X4134000Y-22715726D01*
X4050300Y-22715726D01*
X4050300Y-22604651D01*
X4064000Y-22606000D01*
X5579301Y-22606000D01*
X5579300Y-24302050D01*
X5577089Y-24324500D01*
X5579300Y-24346950D01*
X5579300Y-24346959D01*
X5585915Y-24414126D01*
X5612059Y-24500308D01*
X5654513Y-24579735D01*
X5711647Y-24649353D01*
X5729097Y-24663674D01*
X6135622Y-25070200D01*
X329800Y-25070200D01*
X329800Y-23413000D01*
X503000Y-23413000D01*
X503000Y-23738000D01*
X546146Y-23922066D01*
X624372Y-24094178D01*
X734672Y-24247722D01*
X872808Y-24376797D01*
X1033471Y-24476443D01*
X1185338Y-24526994D01*
X1332000Y-24462329D01*
X1332000Y-23413000D01*
X1586000Y-23413000D01*
X1586000Y-24462329D01*
X1732662Y-24526994D01*
X1884529Y-24476443D01*
X2045192Y-24376797D01*
X2183328Y-24247722D01*
X2293628Y-24094178D01*
X2371854Y-23922066D01*
X2415000Y-23738000D01*
X2415000Y-23413000D01*
X1586000Y-23413000D01*
X1332000Y-23413000D01*
X503000Y-23413000D01*
X329800Y-23413000D01*
X329800Y-22834000D01*
X503000Y-22834000D01*
X503000Y-23159000D01*
X1332000Y-23159000D01*
X1332000Y-22109671D01*
X1586000Y-22109671D01*
X1586000Y-23159000D01*
X2415000Y-23159000D01*
X2415000Y-22834000D01*
X2371854Y-22649934D01*
X2293628Y-22477822D01*
X2183328Y-22324278D01*
X2045192Y-22195203D01*
X1884529Y-22095557D01*
X1732662Y-22045006D01*
X1586000Y-22109671D01*
X1332000Y-22109671D01*
X1185338Y-22045006D01*
X1033471Y-22095557D01*
X872808Y-22195203D01*
X734672Y-22324278D01*
X624372Y-22477822D01*
X546146Y-22649934D01*
X503000Y-22834000D01*
X329800Y-22834000D01*
X329800Y-19613000D01*
X503000Y-19613000D01*
X503000Y-19888000D01*
X549028Y-20101330D01*
X635790Y-20301581D01*
X759952Y-20481058D01*
X916743Y-20632863D01*
X1100137Y-20751163D01*
X1311692Y-20826290D01*
X1482000Y-20763740D01*
X1482000Y-19613000D01*
X503000Y-19613000D01*
X329800Y-19613000D01*
X329800Y-19084000D01*
X503000Y-19084000D01*
X503000Y-19359000D01*
X1482000Y-19359000D01*
X1482000Y-18208260D01*
X1736000Y-18208260D01*
X1736000Y-19359000D01*
X2715000Y-19359000D01*
X2715000Y-19084000D01*
X2668972Y-18870670D01*
X2582210Y-18670419D01*
X2458048Y-18490942D01*
X2301257Y-18339137D01*
X2117863Y-18220837D01*
X1906308Y-18145710D01*
X1736000Y-18208260D01*
X1482000Y-18208260D01*
X1311692Y-18145710D01*
X1100137Y-18220837D01*
X916743Y-18339137D01*
X759952Y-18490942D01*
X635790Y-18670419D01*
X549028Y-18870670D01*
X503000Y-19084000D01*
X329800Y-19084000D01*
X329800Y-13660963D01*
X2235200Y-13660963D01*
X2235200Y-13771037D01*
X2256674Y-13878996D01*
X2298798Y-13980691D01*
X2359952Y-14072214D01*
X2437786Y-14150048D01*
X2529309Y-14211202D01*
X2631004Y-14253326D01*
X2738963Y-14274800D01*
X2849037Y-14274800D01*
X2956996Y-14253326D01*
X3058691Y-14211202D01*
X3150214Y-14150048D01*
X3228048Y-14072214D01*
X3289202Y-13980691D01*
X3331326Y-13878996D01*
X3352800Y-13771037D01*
X3352800Y-13660963D01*
X3331326Y-13553004D01*
X3289202Y-13451309D01*
X3228048Y-13359786D01*
X3150214Y-13281952D01*
X3058691Y-13220798D01*
X2956996Y-13178674D01*
X2849037Y-13157200D01*
X2738963Y-13157200D01*
X2631004Y-13178674D01*
X2529309Y-13220798D01*
X2437786Y-13281952D01*
X2359952Y-13359786D01*
X2298798Y-13451309D01*
X2256674Y-13553004D01*
X2235200Y-13660963D01*
X329800Y-13660963D01*
X329800Y-12998491D01*
X8778788Y-12998491D01*
X8778788Y-13108565D01*
X8800262Y-13216524D01*
X8842386Y-13318219D01*
X8903540Y-13409742D01*
X8981374Y-13487576D01*
X9072897Y-13548730D01*
X9174592Y-13590854D01*
X9282551Y-13612328D01*
X9392625Y-13612328D01*
X9500584Y-13590854D01*
X9602279Y-13548730D01*
X9693802Y-13487576D01*
X9771636Y-13409742D01*
X9832790Y-13318219D01*
X9874914Y-13216524D01*
X9896388Y-13108565D01*
X9896388Y-12998491D01*
X9874914Y-12890532D01*
X9832790Y-12788837D01*
X9771636Y-12697314D01*
X9693802Y-12619480D01*
X9602279Y-12558326D01*
X9500584Y-12516202D01*
X9392625Y-12494728D01*
X9282551Y-12494728D01*
X9174592Y-12516202D01*
X9072897Y-12558326D01*
X8981374Y-12619480D01*
X8903540Y-12697314D01*
X8842386Y-12788837D01*
X8800262Y-12890532D01*
X8778788Y-12998491D01*
X329800Y-12998491D01*
X329800Y-12732724D01*
X1992750Y-12731000D01*
X2088000Y-12635750D01*
X2088000Y-11727000D01*
X2342000Y-11727000D01*
X2342000Y-12635750D01*
X2437250Y-12731000D01*
X4215000Y-12732843D01*
X4289689Y-12725487D01*
X4361508Y-12703701D01*
X4427696Y-12668322D01*
X4485711Y-12620711D01*
X4533322Y-12562696D01*
X4568701Y-12496508D01*
X4590487Y-12424689D01*
X4597843Y-12350000D01*
X4596000Y-11822250D01*
X4500750Y-11727000D01*
X2342000Y-11727000D01*
X2088000Y-11727000D01*
X2068000Y-11727000D01*
X2068000Y-11473000D01*
X2088000Y-11473000D01*
X2088000Y-11453000D01*
X2342000Y-11453000D01*
X2342000Y-11473000D01*
X4500750Y-11473000D01*
X4596000Y-11377750D01*
X4596883Y-11124800D01*
X5190807Y-11124800D01*
X5207000Y-11126395D01*
X5223193Y-11124800D01*
X5271652Y-11120027D01*
X5333819Y-11101169D01*
X5391113Y-11070545D01*
X5441332Y-11029332D01*
X5482545Y-10979113D01*
X5513169Y-10921819D01*
X5513708Y-10920042D01*
X5548000Y-10885750D01*
X5548000Y-10227000D01*
X5536800Y-10227000D01*
X5536800Y-9973000D01*
X5548000Y-9973000D01*
X5548000Y-9123000D01*
X5536800Y-9123000D01*
X5536800Y-9077000D01*
X5548000Y-9077000D01*
X5548000Y-9056274D01*
X5802000Y-9056274D01*
X5802000Y-9077000D01*
G37*
%TD.AperFunction*%
D30*
X21705232Y-20720259D02*
X21717952Y-20735758D01*
X21733450Y-20748477D01*
X21733455Y-20748482D01*
X21736274Y-20750796D01*
X21734685Y-20756034D01*
X21725726Y-20847000D01*
X21725726Y-21242000D01*
X21734685Y-21332966D01*
X21761219Y-21420435D01*
X21804307Y-21501048D01*
X21862294Y-21571706D01*
X21932952Y-21629693D01*
X21945600Y-21636454D01*
X21945600Y-21866164D01*
X21723038Y-22088726D01*
X21237000Y-22088726D01*
X21177249Y-22094611D01*
X21119794Y-22112040D01*
X21066843Y-22140342D01*
X21020432Y-22178432D01*
X20982342Y-22224843D01*
X20954040Y-22277794D01*
X20936611Y-22335249D01*
X20930726Y-22395000D01*
X20930726Y-23195000D01*
X20936611Y-23254751D01*
X20954040Y-23312206D01*
X20982342Y-23365157D01*
X21020432Y-23411568D01*
X21066843Y-23449658D01*
X21119794Y-23477960D01*
X21175967Y-23495000D01*
X21119794Y-23512040D01*
X21066843Y-23540342D01*
X21020432Y-23578432D01*
X20982342Y-23624843D01*
X20954040Y-23677794D01*
X20936611Y-23735249D01*
X20930726Y-23795000D01*
X20930726Y-23813100D01*
X20720298Y-23813100D01*
X20682706Y-23767294D01*
X20669912Y-23756794D01*
X20715696Y-23732322D01*
X20773711Y-23684711D01*
X20821322Y-23626696D01*
X20856701Y-23560508D01*
X20878487Y-23488689D01*
X20885843Y-23414000D01*
X20884000Y-23268750D01*
X20788750Y-23173500D01*
X20320000Y-23173500D01*
X20320000Y-23193500D01*
X20066000Y-23193500D01*
X20066000Y-23173500D01*
X19597250Y-23173500D01*
X19502000Y-23268750D01*
X19500157Y-23414000D01*
X19507513Y-23488689D01*
X19529299Y-23560508D01*
X19564678Y-23626696D01*
X19612289Y-23684711D01*
X19670304Y-23732322D01*
X19670670Y-23732517D01*
X19628294Y-23767294D01*
X19570307Y-23837952D01*
X19558000Y-23860977D01*
X19545693Y-23837952D01*
X19487706Y-23767294D01*
X19467195Y-23750461D01*
X19481800Y-23677037D01*
X19481800Y-23566963D01*
X19460326Y-23459004D01*
X19418202Y-23357309D01*
X19357048Y-23265786D01*
X19279214Y-23187952D01*
X19187691Y-23126798D01*
X19085996Y-23084674D01*
X19047635Y-23077044D01*
X19052251Y-23068407D01*
X19073948Y-22996883D01*
X19081274Y-22922500D01*
X19081274Y-21597500D01*
X19073948Y-21523117D01*
X19052251Y-21451593D01*
X19031400Y-21412583D01*
X19031400Y-21084592D01*
X19057982Y-21134324D01*
X19094678Y-21179038D01*
X19075400Y-21275960D01*
X19075400Y-21396040D01*
X19098826Y-21513814D01*
X19144779Y-21624754D01*
X19211492Y-21724598D01*
X19296402Y-21809508D01*
X19396246Y-21876221D01*
X19462333Y-21903595D01*
X19576726Y-22017988D01*
X19576726Y-22124000D01*
X19585589Y-22213990D01*
X19611838Y-22300522D01*
X19652015Y-22375687D01*
X19612289Y-22408289D01*
X19564678Y-22466304D01*
X19529299Y-22532492D01*
X19507513Y-22604311D01*
X19500157Y-22679000D01*
X19502000Y-22824250D01*
X19597250Y-22919500D01*
X20066000Y-22919500D01*
X20066000Y-22899500D01*
X20320000Y-22899500D01*
X20320000Y-22919500D01*
X20788750Y-22919500D01*
X20884000Y-22824250D01*
X20885843Y-22679000D01*
X20878487Y-22604311D01*
X20856701Y-22532492D01*
X20821322Y-22466304D01*
X20773711Y-22408289D01*
X20733985Y-22375687D01*
X20774162Y-22300522D01*
X20800411Y-22213990D01*
X20809274Y-22124000D01*
X20809274Y-21699000D01*
X20800411Y-21609010D01*
X20774162Y-21522478D01*
X20751800Y-21480642D01*
X20751800Y-21298672D01*
X20774383Y-21296448D01*
X20845907Y-21274751D01*
X20911824Y-21239518D01*
X20969601Y-21192101D01*
X21017018Y-21134324D01*
X21052251Y-21068407D01*
X21073948Y-20996883D01*
X21081274Y-20922500D01*
X21081274Y-20772500D01*
X21077086Y-20729980D01*
X21093322Y-20710196D01*
X21128701Y-20644008D01*
X21150487Y-20572189D01*
X21157843Y-20497500D01*
X21156000Y-20465750D01*
X21060750Y-20370500D01*
X20272491Y-20370500D01*
X20252377Y-20359749D01*
X20147044Y-20327797D01*
X20037500Y-20317007D01*
X19927956Y-20327797D01*
X19890500Y-20339159D01*
X19890500Y-20324500D01*
X19910500Y-20324500D01*
X19910500Y-20303774D01*
X20164500Y-20303774D01*
X20164500Y-20324500D01*
X21060750Y-20324500D01*
X21131350Y-20253900D01*
X21238874Y-20253900D01*
X21705232Y-20720259D01*
%TA.AperFunction,Conductor*%
D31*
G36*
X21705232Y-20720259D02*
G01*
X21717952Y-20735758D01*
X21733450Y-20748477D01*
X21733455Y-20748482D01*
X21736274Y-20750796D01*
X21734685Y-20756034D01*
X21725726Y-20847000D01*
X21725726Y-21242000D01*
X21734685Y-21332966D01*
X21761219Y-21420435D01*
X21804307Y-21501048D01*
X21862294Y-21571706D01*
X21932952Y-21629693D01*
X21945600Y-21636454D01*
X21945600Y-21866164D01*
X21723038Y-22088726D01*
X21237000Y-22088726D01*
X21177249Y-22094611D01*
X21119794Y-22112040D01*
X21066843Y-22140342D01*
X21020432Y-22178432D01*
X20982342Y-22224843D01*
X20954040Y-22277794D01*
X20936611Y-22335249D01*
X20930726Y-22395000D01*
X20930726Y-23195000D01*
X20936611Y-23254751D01*
X20954040Y-23312206D01*
X20982342Y-23365157D01*
X21020432Y-23411568D01*
X21066843Y-23449658D01*
X21119794Y-23477960D01*
X21175967Y-23495000D01*
X21119794Y-23512040D01*
X21066843Y-23540342D01*
X21020432Y-23578432D01*
X20982342Y-23624843D01*
X20954040Y-23677794D01*
X20936611Y-23735249D01*
X20930726Y-23795000D01*
X20930726Y-23813100D01*
X20720298Y-23813100D01*
X20682706Y-23767294D01*
X20669912Y-23756794D01*
X20715696Y-23732322D01*
X20773711Y-23684711D01*
X20821322Y-23626696D01*
X20856701Y-23560508D01*
X20878487Y-23488689D01*
X20885843Y-23414000D01*
X20884000Y-23268750D01*
X20788750Y-23173500D01*
X20320000Y-23173500D01*
X20320000Y-23193500D01*
X20066000Y-23193500D01*
X20066000Y-23173500D01*
X19597250Y-23173500D01*
X19502000Y-23268750D01*
X19500157Y-23414000D01*
X19507513Y-23488689D01*
X19529299Y-23560508D01*
X19564678Y-23626696D01*
X19612289Y-23684711D01*
X19670304Y-23732322D01*
X19670670Y-23732517D01*
X19628294Y-23767294D01*
X19570307Y-23837952D01*
X19558000Y-23860977D01*
X19545693Y-23837952D01*
X19487706Y-23767294D01*
X19467195Y-23750461D01*
X19481800Y-23677037D01*
X19481800Y-23566963D01*
X19460326Y-23459004D01*
X19418202Y-23357309D01*
X19357048Y-23265786D01*
X19279214Y-23187952D01*
X19187691Y-23126798D01*
X19085996Y-23084674D01*
X19047635Y-23077044D01*
X19052251Y-23068407D01*
X19073948Y-22996883D01*
X19081274Y-22922500D01*
X19081274Y-21597500D01*
X19073948Y-21523117D01*
X19052251Y-21451593D01*
X19031400Y-21412583D01*
X19031400Y-21084592D01*
X19057982Y-21134324D01*
X19094678Y-21179038D01*
X19075400Y-21275960D01*
X19075400Y-21396040D01*
X19098826Y-21513814D01*
X19144779Y-21624754D01*
X19211492Y-21724598D01*
X19296402Y-21809508D01*
X19396246Y-21876221D01*
X19462333Y-21903595D01*
X19576726Y-22017988D01*
X19576726Y-22124000D01*
X19585589Y-22213990D01*
X19611838Y-22300522D01*
X19652015Y-22375687D01*
X19612289Y-22408289D01*
X19564678Y-22466304D01*
X19529299Y-22532492D01*
X19507513Y-22604311D01*
X19500157Y-22679000D01*
X19502000Y-22824250D01*
X19597250Y-22919500D01*
X20066000Y-22919500D01*
X20066000Y-22899500D01*
X20320000Y-22899500D01*
X20320000Y-22919500D01*
X20788750Y-22919500D01*
X20884000Y-22824250D01*
X20885843Y-22679000D01*
X20878487Y-22604311D01*
X20856701Y-22532492D01*
X20821322Y-22466304D01*
X20773711Y-22408289D01*
X20733985Y-22375687D01*
X20774162Y-22300522D01*
X20800411Y-22213990D01*
X20809274Y-22124000D01*
X20809274Y-21699000D01*
X20800411Y-21609010D01*
X20774162Y-21522478D01*
X20751800Y-21480642D01*
X20751800Y-21298672D01*
X20774383Y-21296448D01*
X20845907Y-21274751D01*
X20911824Y-21239518D01*
X20969601Y-21192101D01*
X21017018Y-21134324D01*
X21052251Y-21068407D01*
X21073948Y-20996883D01*
X21081274Y-20922500D01*
X21081274Y-20772500D01*
X21077086Y-20729980D01*
X21093322Y-20710196D01*
X21128701Y-20644008D01*
X21150487Y-20572189D01*
X21157843Y-20497500D01*
X21156000Y-20465750D01*
X21060750Y-20370500D01*
X20272491Y-20370500D01*
X20252377Y-20359749D01*
X20147044Y-20327797D01*
X20037500Y-20317007D01*
X19927956Y-20327797D01*
X19890500Y-20339159D01*
X19890500Y-20324500D01*
X19910500Y-20324500D01*
X19910500Y-20303774D01*
X20164500Y-20303774D01*
X20164500Y-20324500D01*
X21060750Y-20324500D01*
X21131350Y-20253900D01*
X21238874Y-20253900D01*
X21705232Y-20720259D01*
G37*
%TD.AperFunction*%
D30*
X13515440Y-20300210D02*
X13576594Y-20391733D01*
X13654428Y-20469567D01*
X13745951Y-20530721D01*
X13792200Y-20549878D01*
X13792200Y-20564908D01*
X13785457Y-20573124D01*
X13769341Y-20603275D01*
X13747719Y-20643726D01*
X13724481Y-20720332D01*
X13716635Y-20800000D01*
X13718601Y-20819962D01*
X13718601Y-21166149D01*
X13648000Y-21236750D01*
X13648000Y-22133000D01*
X13668726Y-22133000D01*
X13668726Y-22387000D01*
X13648000Y-22387000D01*
X13648000Y-22407000D01*
X13602000Y-22407000D01*
X13602000Y-22387000D01*
X13581274Y-22387000D01*
X13581274Y-22133000D01*
X13602000Y-22133000D01*
X13602000Y-21236750D01*
X13506750Y-21141500D01*
X13475000Y-21139657D01*
X13400311Y-21147013D01*
X13328492Y-21168799D01*
X13262304Y-21204178D01*
X13242520Y-21220414D01*
X13200000Y-21216226D01*
X13050000Y-21216226D01*
X12975617Y-21223552D01*
X12904093Y-21245249D01*
X12838176Y-21280482D01*
X12780399Y-21327899D01*
X12732982Y-21385676D01*
X12697749Y-21451593D01*
X12676052Y-21523117D01*
X12674538Y-21538493D01*
X12619814Y-21515826D01*
X12502040Y-21492400D01*
X12381960Y-21492400D01*
X12264186Y-21515826D01*
X12198100Y-21543200D01*
X12013641Y-21543200D01*
X11968270Y-21505965D01*
X11888522Y-21463338D01*
X11801990Y-21437089D01*
X11712000Y-21428226D01*
X11402000Y-21428226D01*
X11312010Y-21437089D01*
X11225478Y-21463338D01*
X11145730Y-21505965D01*
X11092985Y-21549251D01*
X11338463Y-21303774D01*
X12375000Y-21303774D01*
X12449383Y-21296448D01*
X12520907Y-21274751D01*
X12586824Y-21239518D01*
X12644601Y-21192101D01*
X12692018Y-21134324D01*
X12727251Y-21068407D01*
X12748948Y-20996883D01*
X12756274Y-20922500D01*
X12756274Y-20772500D01*
X12748948Y-20698117D01*
X12727251Y-20626593D01*
X12711701Y-20597500D01*
X12727251Y-20568407D01*
X12748948Y-20496883D01*
X12756274Y-20422500D01*
X12756274Y-20272500D01*
X12754442Y-20253900D01*
X13496258Y-20253900D01*
X13515440Y-20300210D01*
%TA.AperFunction,Conductor*%
D31*
G36*
X13515440Y-20300210D02*
G01*
X13576594Y-20391733D01*
X13654428Y-20469567D01*
X13745951Y-20530721D01*
X13792200Y-20549878D01*
X13792200Y-20564908D01*
X13785457Y-20573124D01*
X13769341Y-20603275D01*
X13747719Y-20643726D01*
X13724481Y-20720332D01*
X13716635Y-20800000D01*
X13718601Y-20819962D01*
X13718601Y-21166149D01*
X13648000Y-21236750D01*
X13648000Y-22133000D01*
X13668726Y-22133000D01*
X13668726Y-22387000D01*
X13648000Y-22387000D01*
X13648000Y-22407000D01*
X13602000Y-22407000D01*
X13602000Y-22387000D01*
X13581274Y-22387000D01*
X13581274Y-22133000D01*
X13602000Y-22133000D01*
X13602000Y-21236750D01*
X13506750Y-21141500D01*
X13475000Y-21139657D01*
X13400311Y-21147013D01*
X13328492Y-21168799D01*
X13262304Y-21204178D01*
X13242520Y-21220414D01*
X13200000Y-21216226D01*
X13050000Y-21216226D01*
X12975617Y-21223552D01*
X12904093Y-21245249D01*
X12838176Y-21280482D01*
X12780399Y-21327899D01*
X12732982Y-21385676D01*
X12697749Y-21451593D01*
X12676052Y-21523117D01*
X12674538Y-21538493D01*
X12619814Y-21515826D01*
X12502040Y-21492400D01*
X12381960Y-21492400D01*
X12264186Y-21515826D01*
X12198100Y-21543200D01*
X12013641Y-21543200D01*
X11968270Y-21505965D01*
X11888522Y-21463338D01*
X11801990Y-21437089D01*
X11712000Y-21428226D01*
X11402000Y-21428226D01*
X11312010Y-21437089D01*
X11225478Y-21463338D01*
X11145730Y-21505965D01*
X11092985Y-21549251D01*
X11338463Y-21303774D01*
X12375000Y-21303774D01*
X12449383Y-21296448D01*
X12520907Y-21274751D01*
X12586824Y-21239518D01*
X12644601Y-21192101D01*
X12692018Y-21134324D01*
X12727251Y-21068407D01*
X12748948Y-20996883D01*
X12756274Y-20922500D01*
X12756274Y-20772500D01*
X12748948Y-20698117D01*
X12727251Y-20626593D01*
X12711701Y-20597500D01*
X12727251Y-20568407D01*
X12748948Y-20496883D01*
X12756274Y-20422500D01*
X12756274Y-20272500D01*
X12754442Y-20253900D01*
X13496258Y-20253900D01*
X13515440Y-20300210D01*
G37*
%TD.AperFunction*%
D30*
X16648000Y-13808000D02*
X16668726Y-13808000D01*
X16668726Y-13903139D01*
X16667800Y-13912541D01*
X16667800Y-14062000D01*
X16648000Y-14062000D01*
X16648000Y-14958250D01*
X16667801Y-14978051D01*
X16667801Y-15121835D01*
X16629402Y-15147492D01*
X16544492Y-15232402D01*
X16477779Y-15332246D01*
X16431826Y-15443186D01*
X16408400Y-15560960D01*
X16408400Y-15681040D01*
X16431826Y-15798814D01*
X16477779Y-15909754D01*
X16544492Y-16009598D01*
X16629402Y-16094508D01*
X16729246Y-16161221D01*
X16840186Y-16207174D01*
X16957960Y-16230600D01*
X17078040Y-16230600D01*
X17195814Y-16207174D01*
X17306754Y-16161221D01*
X17406598Y-16094508D01*
X17491508Y-16009598D01*
X17532505Y-15948241D01*
X17856200Y-16271937D01*
X17856200Y-16311037D01*
X17877674Y-16418996D01*
X17919798Y-16520691D01*
X17980952Y-16612214D01*
X18058786Y-16690048D01*
X18150309Y-16751202D01*
X18252004Y-16793326D01*
X18359963Y-16814800D01*
X18421269Y-16814800D01*
X18332245Y-16903825D01*
X18296588Y-16903825D01*
X18188629Y-16925299D01*
X18086934Y-16967423D01*
X17995411Y-17028577D01*
X17917577Y-17106411D01*
X17856423Y-17197934D01*
X17814299Y-17299629D01*
X17792825Y-17407588D01*
X17792825Y-17517662D01*
X17813397Y-17621084D01*
X17812221Y-17618246D01*
X17745508Y-17518402D01*
X17660598Y-17433492D01*
X17560754Y-17366779D01*
X17449814Y-17320826D01*
X17332040Y-17297400D01*
X17211960Y-17297400D01*
X17094186Y-17320826D01*
X16983246Y-17366779D01*
X16883402Y-17433492D01*
X16798492Y-17518402D01*
X16731779Y-17618246D01*
X16685826Y-17729186D01*
X16662400Y-17846960D01*
X16662400Y-17967040D01*
X16685826Y-18084814D01*
X16731779Y-18195754D01*
X16798492Y-18295598D01*
X16883402Y-18380508D01*
X16983246Y-18447221D01*
X17094186Y-18493174D01*
X17211960Y-18516600D01*
X17332040Y-18516600D01*
X17449814Y-18493174D01*
X17560754Y-18447221D01*
X17660598Y-18380508D01*
X17745508Y-18295598D01*
X17812221Y-18195754D01*
X17858174Y-18084814D01*
X17881600Y-17967040D01*
X17881600Y-17846960D01*
X17858387Y-17730255D01*
X17917577Y-17818839D01*
X17995411Y-17896673D01*
X18086934Y-17957827D01*
X18188629Y-17999951D01*
X18296588Y-18021425D01*
X18406662Y-18021425D01*
X18514621Y-17999951D01*
X18616316Y-17957827D01*
X18707839Y-17896673D01*
X18785673Y-17818839D01*
X18846827Y-17727316D01*
X18888951Y-17625621D01*
X18910425Y-17517662D01*
X18910425Y-17475117D01*
X18993726Y-17391817D01*
X18993726Y-17422500D01*
X19001052Y-17496883D01*
X19022749Y-17568407D01*
X19038299Y-17597500D01*
X19022749Y-17626593D01*
X19001052Y-17698117D01*
X18993726Y-17772500D01*
X18993726Y-17922500D01*
X19001052Y-17996883D01*
X19022749Y-18068407D01*
X19038299Y-18097500D01*
X19022749Y-18126593D01*
X19001052Y-18198117D01*
X18993726Y-18272500D01*
X18993726Y-18422500D01*
X19001052Y-18496883D01*
X19022749Y-18568407D01*
X19038299Y-18597500D01*
X19022749Y-18626593D01*
X19001052Y-18698117D01*
X18993726Y-18772500D01*
X18993726Y-18922500D01*
X19001052Y-18996883D01*
X19022749Y-19068407D01*
X19038299Y-19097500D01*
X19022749Y-19126593D01*
X19001052Y-19198117D01*
X18994435Y-19265299D01*
X18950648Y-19199767D01*
X18872814Y-19121933D01*
X18781291Y-19060779D01*
X18679596Y-19018655D01*
X18571637Y-18997181D01*
X18461563Y-18997181D01*
X18353604Y-19018655D01*
X18333240Y-19027090D01*
X18307960Y-19024600D01*
X18307953Y-19024600D01*
X18288000Y-19022635D01*
X18268047Y-19024600D01*
X14265336Y-19024600D01*
X14071608Y-18830872D01*
X14071608Y-18778982D01*
X14073573Y-18759029D01*
X14071608Y-18739076D01*
X14071608Y-18739068D01*
X14065727Y-18679360D01*
X14042489Y-18602753D01*
X14004752Y-18532152D01*
X13953966Y-18470270D01*
X13938464Y-18457548D01*
X13601346Y-18120428D01*
X13601345Y-18120427D01*
X13510010Y-18029093D01*
X13510010Y-17684369D01*
X13511975Y-17664416D01*
X13510010Y-17644463D01*
X13510010Y-17644456D01*
X13504129Y-17584748D01*
X13502774Y-17580279D01*
X13480891Y-17508141D01*
X13474873Y-17496883D01*
X13443154Y-17437540D01*
X13410110Y-17397276D01*
X13405092Y-17391161D01*
X13405087Y-17391156D01*
X13392368Y-17375658D01*
X13376870Y-17362939D01*
X13088176Y-17074246D01*
X13075452Y-17058742D01*
X13013570Y-17007956D01*
X12942969Y-16970219D01*
X12866362Y-16946981D01*
X12806654Y-16941100D01*
X12806647Y-16941100D01*
X12786694Y-16939135D01*
X12766741Y-16941100D01*
X12754442Y-16941100D01*
X12756274Y-16922500D01*
X12756274Y-16772500D01*
X12748948Y-16698117D01*
X12727251Y-16626593D01*
X12711701Y-16597500D01*
X12727251Y-16568407D01*
X12748948Y-16496883D01*
X12756274Y-16422500D01*
X12756274Y-16272500D01*
X12752086Y-16229980D01*
X12768322Y-16210196D01*
X12803701Y-16144008D01*
X12825487Y-16072189D01*
X12832843Y-15997500D01*
X12831000Y-15965750D01*
X12735750Y-15870500D01*
X11839500Y-15870500D01*
X11839500Y-15891226D01*
X11585500Y-15891226D01*
X11585500Y-15870500D01*
X11565500Y-15870500D01*
X11565500Y-15824500D01*
X11585500Y-15824500D01*
X11585500Y-15803774D01*
X11680638Y-15803774D01*
X11690040Y-15804700D01*
X11690050Y-15804700D01*
X11712499Y-15806911D01*
X11734949Y-15804700D01*
X11839500Y-15804700D01*
X11839500Y-15824500D01*
X12735750Y-15824500D01*
X12755550Y-15804700D01*
X12951050Y-15804700D01*
X12973500Y-15806911D01*
X12995950Y-15804700D01*
X13126122Y-15804700D01*
X13142012Y-15820590D01*
X13142012Y-15938228D01*
X13139801Y-15960678D01*
X13142012Y-15983128D01*
X13142012Y-15983138D01*
X13148627Y-16050305D01*
X13172126Y-16127764D01*
X13174772Y-16136487D01*
X13217225Y-16215913D01*
X13259835Y-16267832D01*
X13274360Y-16285531D01*
X13291804Y-16299847D01*
X13461579Y-16469623D01*
X13460031Y-16485336D01*
X13462734Y-16512778D01*
X13462734Y-16512779D01*
X13470820Y-16594879D01*
X13502773Y-16700213D01*
X13554661Y-16797290D01*
X13624491Y-16882379D01*
X13645815Y-16899879D01*
X13885656Y-17139720D01*
X13903156Y-17161044D01*
X13988245Y-17230874D01*
X14046200Y-17261851D01*
X14046200Y-17663100D01*
X14018826Y-17729186D01*
X13995400Y-17846960D01*
X13995400Y-17967040D01*
X14018826Y-18084814D01*
X14064779Y-18195754D01*
X14131492Y-18295598D01*
X14216402Y-18380508D01*
X14316246Y-18447221D01*
X14427186Y-18493174D01*
X14544960Y-18516600D01*
X14665040Y-18516600D01*
X14782814Y-18493174D01*
X14893754Y-18447221D01*
X14993598Y-18380508D01*
X15078508Y-18295598D01*
X15145221Y-18195754D01*
X15191174Y-18084814D01*
X15214600Y-17967040D01*
X15214600Y-17846960D01*
X15191174Y-17729186D01*
X15163800Y-17663100D01*
X15163800Y-17045442D01*
X15166503Y-17018000D01*
X15161797Y-16970219D01*
X15155714Y-16908456D01*
X15123761Y-16803122D01*
X15071873Y-16706046D01*
X15002043Y-16620957D01*
X14980719Y-16603457D01*
X14948683Y-16571421D01*
X14961214Y-16563048D01*
X15039048Y-16485214D01*
X15100202Y-16393691D01*
X15142326Y-16291996D01*
X15163800Y-16184037D01*
X15163800Y-16073963D01*
X15158700Y-16048325D01*
X15160431Y-16030755D01*
X15163799Y-15996561D01*
X15163799Y-15996554D01*
X15165764Y-15976601D01*
X15163799Y-15956648D01*
X15163799Y-15945429D01*
X15229309Y-15989202D01*
X15331004Y-16031326D01*
X15438963Y-16052800D01*
X15549037Y-16052800D01*
X15656996Y-16031326D01*
X15758691Y-15989202D01*
X15850214Y-15928048D01*
X15928048Y-15850214D01*
X15989202Y-15758691D01*
X16031326Y-15656996D01*
X16052800Y-15549037D01*
X16052800Y-15438963D01*
X16031326Y-15331004D01*
X15989202Y-15229309D01*
X15928048Y-15137786D01*
X15850214Y-15059952D01*
X15758691Y-14998798D01*
X15708361Y-14977950D01*
X15774383Y-14971448D01*
X15845907Y-14949751D01*
X15875000Y-14934201D01*
X15904093Y-14949751D01*
X15975617Y-14971448D01*
X16050000Y-14978774D01*
X16200000Y-14978774D01*
X16242520Y-14974586D01*
X16262304Y-14990822D01*
X16328492Y-15026201D01*
X16400311Y-15047987D01*
X16475000Y-15055343D01*
X16506750Y-15053500D01*
X16602000Y-14958250D01*
X16602000Y-14062000D01*
X16581274Y-14062000D01*
X16581274Y-13808000D01*
X16602000Y-13808000D01*
X16602000Y-13788000D01*
X16648000Y-13788000D01*
X16648000Y-13808000D01*
%TA.AperFunction,Conductor*%
D31*
G36*
X16648000Y-13808000D02*
G01*
X16668726Y-13808000D01*
X16668726Y-13903139D01*
X16667800Y-13912541D01*
X16667800Y-14062000D01*
X16648000Y-14062000D01*
X16648000Y-14958250D01*
X16667801Y-14978051D01*
X16667801Y-15121835D01*
X16629402Y-15147492D01*
X16544492Y-15232402D01*
X16477779Y-15332246D01*
X16431826Y-15443186D01*
X16408400Y-15560960D01*
X16408400Y-15681040D01*
X16431826Y-15798814D01*
X16477779Y-15909754D01*
X16544492Y-16009598D01*
X16629402Y-16094508D01*
X16729246Y-16161221D01*
X16840186Y-16207174D01*
X16957960Y-16230600D01*
X17078040Y-16230600D01*
X17195814Y-16207174D01*
X17306754Y-16161221D01*
X17406598Y-16094508D01*
X17491508Y-16009598D01*
X17532505Y-15948241D01*
X17856200Y-16271937D01*
X17856200Y-16311037D01*
X17877674Y-16418996D01*
X17919798Y-16520691D01*
X17980952Y-16612214D01*
X18058786Y-16690048D01*
X18150309Y-16751202D01*
X18252004Y-16793326D01*
X18359963Y-16814800D01*
X18421269Y-16814800D01*
X18332245Y-16903825D01*
X18296588Y-16903825D01*
X18188629Y-16925299D01*
X18086934Y-16967423D01*
X17995411Y-17028577D01*
X17917577Y-17106411D01*
X17856423Y-17197934D01*
X17814299Y-17299629D01*
X17792825Y-17407588D01*
X17792825Y-17517662D01*
X17813397Y-17621084D01*
X17812221Y-17618246D01*
X17745508Y-17518402D01*
X17660598Y-17433492D01*
X17560754Y-17366779D01*
X17449814Y-17320826D01*
X17332040Y-17297400D01*
X17211960Y-17297400D01*
X17094186Y-17320826D01*
X16983246Y-17366779D01*
X16883402Y-17433492D01*
X16798492Y-17518402D01*
X16731779Y-17618246D01*
X16685826Y-17729186D01*
X16662400Y-17846960D01*
X16662400Y-17967040D01*
X16685826Y-18084814D01*
X16731779Y-18195754D01*
X16798492Y-18295598D01*
X16883402Y-18380508D01*
X16983246Y-18447221D01*
X17094186Y-18493174D01*
X17211960Y-18516600D01*
X17332040Y-18516600D01*
X17449814Y-18493174D01*
X17560754Y-18447221D01*
X17660598Y-18380508D01*
X17745508Y-18295598D01*
X17812221Y-18195754D01*
X17858174Y-18084814D01*
X17881600Y-17967040D01*
X17881600Y-17846960D01*
X17858387Y-17730255D01*
X17917577Y-17818839D01*
X17995411Y-17896673D01*
X18086934Y-17957827D01*
X18188629Y-17999951D01*
X18296588Y-18021425D01*
X18406662Y-18021425D01*
X18514621Y-17999951D01*
X18616316Y-17957827D01*
X18707839Y-17896673D01*
X18785673Y-17818839D01*
X18846827Y-17727316D01*
X18888951Y-17625621D01*
X18910425Y-17517662D01*
X18910425Y-17475117D01*
X18993726Y-17391817D01*
X18993726Y-17422500D01*
X19001052Y-17496883D01*
X19022749Y-17568407D01*
X19038299Y-17597500D01*
X19022749Y-17626593D01*
X19001052Y-17698117D01*
X18993726Y-17772500D01*
X18993726Y-17922500D01*
X19001052Y-17996883D01*
X19022749Y-18068407D01*
X19038299Y-18097500D01*
X19022749Y-18126593D01*
X19001052Y-18198117D01*
X18993726Y-18272500D01*
X18993726Y-18422500D01*
X19001052Y-18496883D01*
X19022749Y-18568407D01*
X19038299Y-18597500D01*
X19022749Y-18626593D01*
X19001052Y-18698117D01*
X18993726Y-18772500D01*
X18993726Y-18922500D01*
X19001052Y-18996883D01*
X19022749Y-19068407D01*
X19038299Y-19097500D01*
X19022749Y-19126593D01*
X19001052Y-19198117D01*
X18994435Y-19265299D01*
X18950648Y-19199767D01*
X18872814Y-19121933D01*
X18781291Y-19060779D01*
X18679596Y-19018655D01*
X18571637Y-18997181D01*
X18461563Y-18997181D01*
X18353604Y-19018655D01*
X18333240Y-19027090D01*
X18307960Y-19024600D01*
X18307953Y-19024600D01*
X18288000Y-19022635D01*
X18268047Y-19024600D01*
X14265336Y-19024600D01*
X14071608Y-18830872D01*
X14071608Y-18778982D01*
X14073573Y-18759029D01*
X14071608Y-18739076D01*
X14071608Y-18739068D01*
X14065727Y-18679360D01*
X14042489Y-18602753D01*
X14004752Y-18532152D01*
X13953966Y-18470270D01*
X13938464Y-18457548D01*
X13601346Y-18120428D01*
X13601345Y-18120427D01*
X13510010Y-18029093D01*
X13510010Y-17684369D01*
X13511975Y-17664416D01*
X13510010Y-17644463D01*
X13510010Y-17644456D01*
X13504129Y-17584748D01*
X13502774Y-17580279D01*
X13480891Y-17508141D01*
X13474873Y-17496883D01*
X13443154Y-17437540D01*
X13410110Y-17397276D01*
X13405092Y-17391161D01*
X13405087Y-17391156D01*
X13392368Y-17375658D01*
X13376870Y-17362939D01*
X13088176Y-17074246D01*
X13075452Y-17058742D01*
X13013570Y-17007956D01*
X12942969Y-16970219D01*
X12866362Y-16946981D01*
X12806654Y-16941100D01*
X12806647Y-16941100D01*
X12786694Y-16939135D01*
X12766741Y-16941100D01*
X12754442Y-16941100D01*
X12756274Y-16922500D01*
X12756274Y-16772500D01*
X12748948Y-16698117D01*
X12727251Y-16626593D01*
X12711701Y-16597500D01*
X12727251Y-16568407D01*
X12748948Y-16496883D01*
X12756274Y-16422500D01*
X12756274Y-16272500D01*
X12752086Y-16229980D01*
X12768322Y-16210196D01*
X12803701Y-16144008D01*
X12825487Y-16072189D01*
X12832843Y-15997500D01*
X12831000Y-15965750D01*
X12735750Y-15870500D01*
X11839500Y-15870500D01*
X11839500Y-15891226D01*
X11585500Y-15891226D01*
X11585500Y-15870500D01*
X11565500Y-15870500D01*
X11565500Y-15824500D01*
X11585500Y-15824500D01*
X11585500Y-15803774D01*
X11680638Y-15803774D01*
X11690040Y-15804700D01*
X11690050Y-15804700D01*
X11712499Y-15806911D01*
X11734949Y-15804700D01*
X11839500Y-15804700D01*
X11839500Y-15824500D01*
X12735750Y-15824500D01*
X12755550Y-15804700D01*
X12951050Y-15804700D01*
X12973500Y-15806911D01*
X12995950Y-15804700D01*
X13126122Y-15804700D01*
X13142012Y-15820590D01*
X13142012Y-15938228D01*
X13139801Y-15960678D01*
X13142012Y-15983128D01*
X13142012Y-15983138D01*
X13148627Y-16050305D01*
X13172126Y-16127764D01*
X13174772Y-16136487D01*
X13217225Y-16215913D01*
X13259835Y-16267832D01*
X13274360Y-16285531D01*
X13291804Y-16299847D01*
X13461579Y-16469623D01*
X13460031Y-16485336D01*
X13462734Y-16512778D01*
X13462734Y-16512779D01*
X13470820Y-16594879D01*
X13502773Y-16700213D01*
X13554661Y-16797290D01*
X13624491Y-16882379D01*
X13645815Y-16899879D01*
X13885656Y-17139720D01*
X13903156Y-17161044D01*
X13988245Y-17230874D01*
X14046200Y-17261851D01*
X14046200Y-17663100D01*
X14018826Y-17729186D01*
X13995400Y-17846960D01*
X13995400Y-17967040D01*
X14018826Y-18084814D01*
X14064779Y-18195754D01*
X14131492Y-18295598D01*
X14216402Y-18380508D01*
X14316246Y-18447221D01*
X14427186Y-18493174D01*
X14544960Y-18516600D01*
X14665040Y-18516600D01*
X14782814Y-18493174D01*
X14893754Y-18447221D01*
X14993598Y-18380508D01*
X15078508Y-18295598D01*
X15145221Y-18195754D01*
X15191174Y-18084814D01*
X15214600Y-17967040D01*
X15214600Y-17846960D01*
X15191174Y-17729186D01*
X15163800Y-17663100D01*
X15163800Y-17045442D01*
X15166503Y-17018000D01*
X15161797Y-16970219D01*
X15155714Y-16908456D01*
X15123761Y-16803122D01*
X15071873Y-16706046D01*
X15002043Y-16620957D01*
X14980719Y-16603457D01*
X14948683Y-16571421D01*
X14961214Y-16563048D01*
X15039048Y-16485214D01*
X15100202Y-16393691D01*
X15142326Y-16291996D01*
X15163800Y-16184037D01*
X15163800Y-16073963D01*
X15158700Y-16048325D01*
X15160431Y-16030755D01*
X15163799Y-15996561D01*
X15163799Y-15996554D01*
X15165764Y-15976601D01*
X15163799Y-15956648D01*
X15163799Y-15945429D01*
X15229309Y-15989202D01*
X15331004Y-16031326D01*
X15438963Y-16052800D01*
X15549037Y-16052800D01*
X15656996Y-16031326D01*
X15758691Y-15989202D01*
X15850214Y-15928048D01*
X15928048Y-15850214D01*
X15989202Y-15758691D01*
X16031326Y-15656996D01*
X16052800Y-15549037D01*
X16052800Y-15438963D01*
X16031326Y-15331004D01*
X15989202Y-15229309D01*
X15928048Y-15137786D01*
X15850214Y-15059952D01*
X15758691Y-14998798D01*
X15708361Y-14977950D01*
X15774383Y-14971448D01*
X15845907Y-14949751D01*
X15875000Y-14934201D01*
X15904093Y-14949751D01*
X15975617Y-14971448D01*
X16050000Y-14978774D01*
X16200000Y-14978774D01*
X16242520Y-14974586D01*
X16262304Y-14990822D01*
X16328492Y-15026201D01*
X16400311Y-15047987D01*
X16475000Y-15055343D01*
X16506750Y-15053500D01*
X16602000Y-14958250D01*
X16602000Y-14062000D01*
X16581274Y-14062000D01*
X16581274Y-13808000D01*
X16602000Y-13808000D01*
X16602000Y-13788000D01*
X16648000Y-13788000D01*
X16648000Y-13808000D01*
G37*
%TD.AperFunction*%
D30*
X19606796Y-13843216D02*
X19694871Y-13975030D01*
X19806970Y-14087129D01*
X19935785Y-14173200D01*
X19883963Y-14173200D01*
X19776004Y-14194674D01*
X19674309Y-14236798D01*
X19582786Y-14297952D01*
X19504952Y-14375786D01*
X19443798Y-14467309D01*
X19401674Y-14569004D01*
X19380200Y-14676963D01*
X19380200Y-14787037D01*
X19400924Y-14891226D01*
X19375000Y-14891226D01*
X19300617Y-14898552D01*
X19229093Y-14920249D01*
X19163176Y-14955482D01*
X19105399Y-15002899D01*
X19057982Y-15060676D01*
X19022749Y-15126593D01*
X19001052Y-15198117D01*
X18993726Y-15272500D01*
X18993726Y-15422500D01*
X19001052Y-15496883D01*
X19022749Y-15568407D01*
X19038299Y-15597500D01*
X19022749Y-15626593D01*
X19001052Y-15698117D01*
X18993726Y-15772500D01*
X18993726Y-15922500D01*
X19001052Y-15996883D01*
X19018108Y-16053107D01*
X19011242Y-16058742D01*
X18960456Y-16120624D01*
X18958535Y-16124218D01*
X18952326Y-16093004D01*
X18910202Y-15991309D01*
X18849048Y-15899786D01*
X18771214Y-15821952D01*
X18679691Y-15760798D01*
X18577996Y-15718674D01*
X18470037Y-15697200D01*
X18430937Y-15697200D01*
X18031400Y-15297664D01*
X18031400Y-14976942D01*
X18050000Y-14978774D01*
X18200000Y-14978774D01*
X18274383Y-14971448D01*
X18345907Y-14949751D01*
X18375000Y-14934201D01*
X18404093Y-14949751D01*
X18475617Y-14971448D01*
X18550000Y-14978774D01*
X18700000Y-14978774D01*
X18774383Y-14971448D01*
X18845907Y-14949751D01*
X18911824Y-14914518D01*
X18969601Y-14867101D01*
X19017018Y-14809324D01*
X19052251Y-14743407D01*
X19073948Y-14671883D01*
X19081274Y-14597500D01*
X19081274Y-14147800D01*
X19105037Y-14147800D01*
X19212996Y-14126326D01*
X19314691Y-14084202D01*
X19406214Y-14023048D01*
X19484048Y-13945214D01*
X19545202Y-13853691D01*
X19578169Y-13774104D01*
X19606796Y-13843216D01*
%TA.AperFunction,Conductor*%
D31*
G36*
X19606796Y-13843216D02*
G01*
X19694871Y-13975030D01*
X19806970Y-14087129D01*
X19935785Y-14173200D01*
X19883963Y-14173200D01*
X19776004Y-14194674D01*
X19674309Y-14236798D01*
X19582786Y-14297952D01*
X19504952Y-14375786D01*
X19443798Y-14467309D01*
X19401674Y-14569004D01*
X19380200Y-14676963D01*
X19380200Y-14787037D01*
X19400924Y-14891226D01*
X19375000Y-14891226D01*
X19300617Y-14898552D01*
X19229093Y-14920249D01*
X19163176Y-14955482D01*
X19105399Y-15002899D01*
X19057982Y-15060676D01*
X19022749Y-15126593D01*
X19001052Y-15198117D01*
X18993726Y-15272500D01*
X18993726Y-15422500D01*
X19001052Y-15496883D01*
X19022749Y-15568407D01*
X19038299Y-15597500D01*
X19022749Y-15626593D01*
X19001052Y-15698117D01*
X18993726Y-15772500D01*
X18993726Y-15922500D01*
X19001052Y-15996883D01*
X19018108Y-16053107D01*
X19011242Y-16058742D01*
X18960456Y-16120624D01*
X18958535Y-16124218D01*
X18952326Y-16093004D01*
X18910202Y-15991309D01*
X18849048Y-15899786D01*
X18771214Y-15821952D01*
X18679691Y-15760798D01*
X18577996Y-15718674D01*
X18470037Y-15697200D01*
X18430937Y-15697200D01*
X18031400Y-15297664D01*
X18031400Y-14976942D01*
X18050000Y-14978774D01*
X18200000Y-14978774D01*
X18274383Y-14971448D01*
X18345907Y-14949751D01*
X18375000Y-14934201D01*
X18404093Y-14949751D01*
X18475617Y-14971448D01*
X18550000Y-14978774D01*
X18700000Y-14978774D01*
X18774383Y-14971448D01*
X18845907Y-14949751D01*
X18911824Y-14914518D01*
X18969601Y-14867101D01*
X19017018Y-14809324D01*
X19052251Y-14743407D01*
X19073948Y-14671883D01*
X19081274Y-14597500D01*
X19081274Y-14147800D01*
X19105037Y-14147800D01*
X19212996Y-14126326D01*
X19314691Y-14084202D01*
X19406214Y-14023048D01*
X19484048Y-13945214D01*
X19545202Y-13853691D01*
X19578169Y-13774104D01*
X19606796Y-13843216D01*
G37*
%TD.AperFunction*%
D30*
X21092000Y-9097000D02*
X21225200Y-9097000D01*
X21225200Y-9253000D01*
X21092000Y-9253000D01*
X21092000Y-9322000D01*
X20838000Y-9322000D01*
X20838000Y-9253000D01*
X20818000Y-9253000D01*
X20818000Y-9097000D01*
X20838000Y-9097000D01*
X20838000Y-9036274D01*
X21092000Y-9036274D01*
X21092000Y-9097000D01*
%TA.AperFunction,Conductor*%
D31*
G36*
X21092000Y-9097000D02*
G01*
X21225200Y-9097000D01*
X21225200Y-9253000D01*
X21092000Y-9253000D01*
X21092000Y-9322000D01*
X20838000Y-9322000D01*
X20838000Y-9253000D01*
X20818000Y-9253000D01*
X20818000Y-9097000D01*
X20838000Y-9097000D01*
X20838000Y-9036274D01*
X21092000Y-9036274D01*
X21092000Y-9097000D01*
G37*
%TD.AperFunction*%
D30*
X13494282Y-7635564D02*
X13585805Y-7696718D01*
X13687500Y-7738842D01*
X13795459Y-7760316D01*
X13905533Y-7760316D01*
X13995390Y-7742443D01*
X13995390Y-7777837D01*
X13993425Y-7797790D01*
X13995390Y-7817743D01*
X13995390Y-7817749D01*
X13999034Y-7854745D01*
X14001271Y-7877458D01*
X14022655Y-7947952D01*
X14024509Y-7954064D01*
X14062246Y-8024665D01*
X14093011Y-8062152D01*
X14100115Y-8070808D01*
X14113032Y-8086548D01*
X14128536Y-8099272D01*
X14240007Y-8210743D01*
X14156500Y-8294250D01*
X14156500Y-8382000D01*
X13902500Y-8382000D01*
X13902500Y-8294250D01*
X13807250Y-8199000D01*
X13662000Y-8197157D01*
X13587311Y-8204513D01*
X13515492Y-8226299D01*
X13453300Y-8259542D01*
X13453300Y-8095944D01*
X13456003Y-8068500D01*
X13445214Y-7958956D01*
X13429986Y-7908758D01*
X13413261Y-7853622D01*
X13361373Y-7756546D01*
X13321487Y-7707945D01*
X13373714Y-7673048D01*
X13451548Y-7595214D01*
X13452503Y-7593785D01*
X13494282Y-7635564D01*
%TA.AperFunction,Conductor*%
D31*
G36*
X13494282Y-7635564D02*
G01*
X13585805Y-7696718D01*
X13687500Y-7738842D01*
X13795459Y-7760316D01*
X13905533Y-7760316D01*
X13995390Y-7742443D01*
X13995390Y-7777837D01*
X13993425Y-7797790D01*
X13995390Y-7817743D01*
X13995390Y-7817749D01*
X13999034Y-7854745D01*
X14001271Y-7877458D01*
X14022655Y-7947952D01*
X14024509Y-7954064D01*
X14062246Y-8024665D01*
X14093011Y-8062152D01*
X14100115Y-8070808D01*
X14113032Y-8086548D01*
X14128536Y-8099272D01*
X14240007Y-8210743D01*
X14156500Y-8294250D01*
X14156500Y-8382000D01*
X13902500Y-8382000D01*
X13902500Y-8294250D01*
X13807250Y-8199000D01*
X13662000Y-8197157D01*
X13587311Y-8204513D01*
X13515492Y-8226299D01*
X13453300Y-8259542D01*
X13453300Y-8095944D01*
X13456003Y-8068500D01*
X13445214Y-7958956D01*
X13429986Y-7908758D01*
X13413261Y-7853622D01*
X13361373Y-7756546D01*
X13321487Y-7707945D01*
X13373714Y-7673048D01*
X13451548Y-7595214D01*
X13452503Y-7593785D01*
X13494282Y-7635564D01*
G37*
%TD.AperFunction*%
D30*
X15062200Y-4705519D02*
X15048331Y-4702760D01*
X14938257Y-4702760D01*
X14830298Y-4724234D01*
X14728603Y-4766358D01*
X14637080Y-4827512D01*
X14559246Y-4905346D01*
X14498092Y-4996869D01*
X14455968Y-5098564D01*
X14434494Y-5206523D01*
X14434494Y-5316597D01*
X14455968Y-5424556D01*
X14498092Y-5526251D01*
X14559246Y-5617774D01*
X14637080Y-5695608D01*
X14728603Y-5756762D01*
X14830298Y-5798886D01*
X14938257Y-5820360D01*
X15048331Y-5820360D01*
X15136977Y-5802727D01*
X15174250Y-5840000D01*
X15400673Y-5840000D01*
X15460000Y-5845843D01*
X15975250Y-5844000D01*
X15979250Y-5840000D01*
X16070500Y-5840000D01*
X16070500Y-5336000D01*
X16050500Y-5336000D01*
X16050500Y-5257800D01*
X16344500Y-5257800D01*
X16344500Y-5336000D01*
X16324500Y-5336000D01*
X16324500Y-5840000D01*
X16344500Y-5840000D01*
X16344500Y-5986000D01*
X16324500Y-5986000D01*
X16324500Y-6490000D01*
X16344500Y-6490000D01*
X16344500Y-6636000D01*
X16324500Y-6636000D01*
X16324500Y-6706726D01*
X16070500Y-6706726D01*
X16070500Y-6636000D01*
X16050500Y-6636000D01*
X16050500Y-6490000D01*
X16070500Y-6490000D01*
X16070500Y-5986000D01*
X15979250Y-5986000D01*
X15975250Y-5982000D01*
X15460000Y-5980157D01*
X15400673Y-5986000D01*
X15174250Y-5986000D01*
X15079000Y-6081250D01*
X15077157Y-6113000D01*
X15084513Y-6187689D01*
X15099775Y-6238000D01*
X15098019Y-6243787D01*
X14211685Y-5357455D01*
X14211685Y-5118935D01*
X14259996Y-5109326D01*
X14361691Y-5067202D01*
X14453214Y-5006048D01*
X14531048Y-4928214D01*
X14592202Y-4836691D01*
X14634326Y-4734996D01*
X14655800Y-4627037D01*
X14655800Y-4516963D01*
X14636213Y-4418490D01*
X14707214Y-4371048D01*
X14785048Y-4293214D01*
X14846202Y-4201691D01*
X14888326Y-4099996D01*
X14909800Y-3992037D01*
X14909800Y-3881963D01*
X14888326Y-3774004D01*
X14846202Y-3672309D01*
X14785048Y-3580786D01*
X14707214Y-3502952D01*
X14672563Y-3479799D01*
X15062200Y-3479799D01*
X15062200Y-4705519D01*
%TA.AperFunction,Conductor*%
D31*
G36*
X15062200Y-4705519D02*
G01*
X15048331Y-4702760D01*
X14938257Y-4702760D01*
X14830298Y-4724234D01*
X14728603Y-4766358D01*
X14637080Y-4827512D01*
X14559246Y-4905346D01*
X14498092Y-4996869D01*
X14455968Y-5098564D01*
X14434494Y-5206523D01*
X14434494Y-5316597D01*
X14455968Y-5424556D01*
X14498092Y-5526251D01*
X14559246Y-5617774D01*
X14637080Y-5695608D01*
X14728603Y-5756762D01*
X14830298Y-5798886D01*
X14938257Y-5820360D01*
X15048331Y-5820360D01*
X15136977Y-5802727D01*
X15174250Y-5840000D01*
X15400673Y-5840000D01*
X15460000Y-5845843D01*
X15975250Y-5844000D01*
X15979250Y-5840000D01*
X16070500Y-5840000D01*
X16070500Y-5336000D01*
X16050500Y-5336000D01*
X16050500Y-5257800D01*
X16344500Y-5257800D01*
X16344500Y-5336000D01*
X16324500Y-5336000D01*
X16324500Y-5840000D01*
X16344500Y-5840000D01*
X16344500Y-5986000D01*
X16324500Y-5986000D01*
X16324500Y-6490000D01*
X16344500Y-6490000D01*
X16344500Y-6636000D01*
X16324500Y-6636000D01*
X16324500Y-6706726D01*
X16070500Y-6706726D01*
X16070500Y-6636000D01*
X16050500Y-6636000D01*
X16050500Y-6490000D01*
X16070500Y-6490000D01*
X16070500Y-5986000D01*
X15979250Y-5986000D01*
X15975250Y-5982000D01*
X15460000Y-5980157D01*
X15400673Y-5986000D01*
X15174250Y-5986000D01*
X15079000Y-6081250D01*
X15077157Y-6113000D01*
X15084513Y-6187689D01*
X15099775Y-6238000D01*
X15098019Y-6243787D01*
X14211685Y-5357455D01*
X14211685Y-5118935D01*
X14259996Y-5109326D01*
X14361691Y-5067202D01*
X14453214Y-5006048D01*
X14531048Y-4928214D01*
X14592202Y-4836691D01*
X14634326Y-4734996D01*
X14655800Y-4627037D01*
X14655800Y-4516963D01*
X14636213Y-4418490D01*
X14707214Y-4371048D01*
X14785048Y-4293214D01*
X14846202Y-4201691D01*
X14888326Y-4099996D01*
X14909800Y-3992037D01*
X14909800Y-3881963D01*
X14888326Y-3774004D01*
X14846202Y-3672309D01*
X14785048Y-3580786D01*
X14707214Y-3502952D01*
X14672563Y-3479799D01*
X15062200Y-3479799D01*
X15062200Y-4705519D01*
G37*
%TD.AperFunction*%
D30*
X12455148Y-4536004D02*
X12433674Y-4643963D01*
X12433674Y-4754037D01*
X12455148Y-4861996D01*
X12497272Y-4963691D01*
X12558426Y-5055214D01*
X12563975Y-5060763D01*
X12519952Y-5104786D01*
X12458798Y-5196309D01*
X12416674Y-5298004D01*
X12395200Y-5405963D01*
X12395200Y-5516037D01*
X12416674Y-5623996D01*
X12458798Y-5725691D01*
X12519952Y-5817214D01*
X12547601Y-5844863D01*
X12547601Y-5927663D01*
X11995963Y-6479301D01*
X11980459Y-6492025D01*
X11929673Y-6553908D01*
X11903426Y-6603013D01*
X11891936Y-6624509D01*
X11880943Y-6660749D01*
X11861814Y-6652826D01*
X11744040Y-6629400D01*
X11623960Y-6629400D01*
X11511516Y-6651766D01*
X11495750Y-6636000D01*
X10599500Y-6636000D01*
X10599500Y-6654200D01*
X10445056Y-6654200D01*
X10362956Y-6662286D01*
X10345500Y-6667581D01*
X10345500Y-6636000D01*
X10325500Y-6636000D01*
X10325500Y-6490000D01*
X10345500Y-6490000D01*
X10345500Y-6419274D01*
X10599500Y-6419274D01*
X10599500Y-6490000D01*
X11495750Y-6490000D01*
X11591000Y-6394750D01*
X11592843Y-6363000D01*
X11585487Y-6288311D01*
X11563701Y-6216492D01*
X11534979Y-6162757D01*
X11830255Y-5867481D01*
X11845758Y-5854758D01*
X11896544Y-5792876D01*
X11934281Y-5722275D01*
X11952110Y-5663498D01*
X11957519Y-5645669D01*
X11959629Y-5624242D01*
X11963400Y-5585960D01*
X11963400Y-5585954D01*
X11965365Y-5566001D01*
X11963400Y-5546048D01*
X11963400Y-4510584D01*
X12028605Y-4537593D01*
X12146379Y-4561019D01*
X12266459Y-4561019D01*
X12384233Y-4537593D01*
X12469041Y-4502464D01*
X12455148Y-4536004D01*
%TA.AperFunction,Conductor*%
D31*
G36*
X12455148Y-4536004D02*
G01*
X12433674Y-4643963D01*
X12433674Y-4754037D01*
X12455148Y-4861996D01*
X12497272Y-4963691D01*
X12558426Y-5055214D01*
X12563975Y-5060763D01*
X12519952Y-5104786D01*
X12458798Y-5196309D01*
X12416674Y-5298004D01*
X12395200Y-5405963D01*
X12395200Y-5516037D01*
X12416674Y-5623996D01*
X12458798Y-5725691D01*
X12519952Y-5817214D01*
X12547601Y-5844863D01*
X12547601Y-5927663D01*
X11995963Y-6479301D01*
X11980459Y-6492025D01*
X11929673Y-6553908D01*
X11903426Y-6603013D01*
X11891936Y-6624509D01*
X11880943Y-6660749D01*
X11861814Y-6652826D01*
X11744040Y-6629400D01*
X11623960Y-6629400D01*
X11511516Y-6651766D01*
X11495750Y-6636000D01*
X10599500Y-6636000D01*
X10599500Y-6654200D01*
X10445056Y-6654200D01*
X10362956Y-6662286D01*
X10345500Y-6667581D01*
X10345500Y-6636000D01*
X10325500Y-6636000D01*
X10325500Y-6490000D01*
X10345500Y-6490000D01*
X10345500Y-6419274D01*
X10599500Y-6419274D01*
X10599500Y-6490000D01*
X11495750Y-6490000D01*
X11591000Y-6394750D01*
X11592843Y-6363000D01*
X11585487Y-6288311D01*
X11563701Y-6216492D01*
X11534979Y-6162757D01*
X11830255Y-5867481D01*
X11845758Y-5854758D01*
X11896544Y-5792876D01*
X11934281Y-5722275D01*
X11952110Y-5663498D01*
X11957519Y-5645669D01*
X11959629Y-5624242D01*
X11963400Y-5585960D01*
X11963400Y-5585954D01*
X11965365Y-5566001D01*
X11963400Y-5546048D01*
X11963400Y-4510584D01*
X12028605Y-4537593D01*
X12146379Y-4561019D01*
X12266459Y-4561019D01*
X12384233Y-4537593D01*
X12469041Y-4502464D01*
X12455148Y-4536004D01*
G37*
%TD.AperFunction*%
D30*
X21092000Y-3447000D02*
X21225201Y-3447000D01*
X21225201Y-3603000D01*
X21092000Y-3603000D01*
X21092000Y-3663726D01*
X20838000Y-3663726D01*
X20838000Y-3603000D01*
X20818000Y-3603000D01*
X20818000Y-3447000D01*
X20838000Y-3447000D01*
X20838000Y-3378000D01*
X21092000Y-3378000D01*
X21092000Y-3447000D01*
%TA.AperFunction,Conductor*%
D31*
G36*
X21092000Y-3447000D02*
G01*
X21225201Y-3447000D01*
X21225201Y-3603000D01*
X21092000Y-3603000D01*
X21092000Y-3663726D01*
X20838000Y-3663726D01*
X20838000Y-3603000D01*
X20818000Y-3603000D01*
X20818000Y-3447000D01*
X20838000Y-3447000D01*
X20838000Y-3378000D01*
X21092000Y-3378000D01*
X21092000Y-3447000D01*
G37*
%TD.AperFunction*%
D30*
X22977304Y-331678D02*
X22919289Y-379289D01*
X22871678Y-437304D01*
X22836299Y-503492D01*
X22814513Y-575311D01*
X22807157Y-650000D01*
X22809000Y-1177750D01*
X22866450Y-1235200D01*
X21607921Y-1235200D01*
X21590000Y-1233435D01*
X21572079Y-1235200D01*
X21518487Y-1240478D01*
X21449722Y-1261338D01*
X21386347Y-1295212D01*
X21369546Y-1309000D01*
X21317000Y-1309000D01*
X21317000Y-1357613D01*
X21285212Y-1396347D01*
X21251338Y-1459722D01*
X21230478Y-1528487D01*
X21223435Y-1600000D01*
X21225201Y-1617932D01*
X21225201Y-2487000D01*
X21063000Y-2487000D01*
X21063000Y-2467000D01*
X21043000Y-2467000D01*
X21043000Y-2213000D01*
X21063000Y-2213000D01*
X21063000Y-1309000D01*
X20463000Y-1309000D01*
X20264302Y-1353587D01*
X20078121Y-1436081D01*
X19911611Y-1553312D01*
X19841029Y-1627423D01*
X18885803Y-672197D01*
X18866557Y-656403D01*
X18844601Y-644667D01*
X18820776Y-637440D01*
X18796000Y-635000D01*
X7620000Y-635000D01*
X7595224Y-637440D01*
X7571399Y-644667D01*
X7549443Y-656403D01*
X7530197Y-672197D01*
X6514197Y-1688197D01*
X6498403Y-1707443D01*
X6486667Y-1729399D01*
X6479440Y-1753224D01*
X6477000Y-1778000D01*
X6477000Y-1867415D01*
X6445711Y-1829289D01*
X6387696Y-1781678D01*
X6321508Y-1746299D01*
X6249689Y-1724513D01*
X6175000Y-1717157D01*
X5897250Y-1719000D01*
X5802000Y-1814250D01*
X5802000Y-2473000D01*
X5822000Y-2473000D01*
X5822000Y-2727000D01*
X5802000Y-2727000D01*
X5802000Y-3577000D01*
X5822000Y-3577000D01*
X5822000Y-3623000D01*
X5802000Y-3623000D01*
X5802000Y-3643726D01*
X5548000Y-3643726D01*
X5548000Y-3623000D01*
X5536800Y-3623000D01*
X5536800Y-3577000D01*
X5548000Y-3577000D01*
X5548000Y-2727000D01*
X5536800Y-2727000D01*
X5536800Y-2473000D01*
X5548000Y-2473000D01*
X5548000Y-1814250D01*
X5513708Y-1779958D01*
X5513169Y-1778181D01*
X5482545Y-1720887D01*
X5441332Y-1670668D01*
X5391113Y-1629455D01*
X5333819Y-1598831D01*
X5271652Y-1579973D01*
X5223193Y-1575200D01*
X5207000Y-1573605D01*
X5190807Y-1575200D01*
X4596883Y-1575200D01*
X4596000Y-1322250D01*
X4500750Y-1227000D01*
X2342000Y-1227000D01*
X2342000Y-1247000D01*
X2088000Y-1247000D01*
X2088000Y-1227000D01*
X2068000Y-1227000D01*
X2068000Y-973000D01*
X2088000Y-973000D01*
X2088000Y-953000D01*
X2342000Y-953000D01*
X2342000Y-973000D01*
X4500750Y-973000D01*
X4596000Y-877750D01*
X4597843Y-350000D01*
X4595854Y-329800D01*
X22980817Y-329800D01*
X22977304Y-331678D01*
%TA.AperFunction,Conductor*%
D31*
G36*
X22977304Y-331678D02*
G01*
X22919289Y-379289D01*
X22871678Y-437304D01*
X22836299Y-503492D01*
X22814513Y-575311D01*
X22807157Y-650000D01*
X22809000Y-1177750D01*
X22866450Y-1235200D01*
X21607921Y-1235200D01*
X21590000Y-1233435D01*
X21572079Y-1235200D01*
X21518487Y-1240478D01*
X21449722Y-1261338D01*
X21386347Y-1295212D01*
X21369546Y-1309000D01*
X21317000Y-1309000D01*
X21317000Y-1357613D01*
X21285212Y-1396347D01*
X21251338Y-1459722D01*
X21230478Y-1528487D01*
X21223435Y-1600000D01*
X21225201Y-1617932D01*
X21225201Y-2487000D01*
X21063000Y-2487000D01*
X21063000Y-2467000D01*
X21043000Y-2467000D01*
X21043000Y-2213000D01*
X21063000Y-2213000D01*
X21063000Y-1309000D01*
X20463000Y-1309000D01*
X20264302Y-1353587D01*
X20078121Y-1436081D01*
X19911611Y-1553312D01*
X19841029Y-1627423D01*
X18885803Y-672197D01*
X18866557Y-656403D01*
X18844601Y-644667D01*
X18820776Y-637440D01*
X18796000Y-635000D01*
X7620000Y-635000D01*
X7595224Y-637440D01*
X7571399Y-644667D01*
X7549443Y-656403D01*
X7530197Y-672197D01*
X6514197Y-1688197D01*
X6498403Y-1707443D01*
X6486667Y-1729399D01*
X6479440Y-1753224D01*
X6477000Y-1778000D01*
X6477000Y-1867415D01*
X6445711Y-1829289D01*
X6387696Y-1781678D01*
X6321508Y-1746299D01*
X6249689Y-1724513D01*
X6175000Y-1717157D01*
X5897250Y-1719000D01*
X5802000Y-1814250D01*
X5802000Y-2473000D01*
X5822000Y-2473000D01*
X5822000Y-2727000D01*
X5802000Y-2727000D01*
X5802000Y-3577000D01*
X5822000Y-3577000D01*
X5822000Y-3623000D01*
X5802000Y-3623000D01*
X5802000Y-3643726D01*
X5548000Y-3643726D01*
X5548000Y-3623000D01*
X5536800Y-3623000D01*
X5536800Y-3577000D01*
X5548000Y-3577000D01*
X5548000Y-2727000D01*
X5536800Y-2727000D01*
X5536800Y-2473000D01*
X5548000Y-2473000D01*
X5548000Y-1814250D01*
X5513708Y-1779958D01*
X5513169Y-1778181D01*
X5482545Y-1720887D01*
X5441332Y-1670668D01*
X5391113Y-1629455D01*
X5333819Y-1598831D01*
X5271652Y-1579973D01*
X5223193Y-1575200D01*
X5207000Y-1573605D01*
X5190807Y-1575200D01*
X4596883Y-1575200D01*
X4596000Y-1322250D01*
X4500750Y-1227000D01*
X2342000Y-1227000D01*
X2342000Y-1247000D01*
X2088000Y-1247000D01*
X2088000Y-1227000D01*
X2068000Y-1227000D01*
X2068000Y-973000D01*
X2088000Y-973000D01*
X2088000Y-953000D01*
X2342000Y-953000D01*
X2342000Y-973000D01*
X4500750Y-973000D01*
X4596000Y-877750D01*
X4597843Y-350000D01*
X4595854Y-329800D01*
X22980817Y-329800D01*
X22977304Y-331678D01*
G37*
%TD.AperFunction*%
D30*
X19771171Y-2979225D02*
X19911611Y-3126688D01*
X19984854Y-3178255D01*
X19964513Y-3245311D01*
X19957952Y-3311925D01*
X19748500Y-3102474D01*
X19748500Y-2943436D01*
X19771171Y-2979225D01*
%TA.AperFunction,Conductor*%
D31*
G36*
X19771171Y-2979225D02*
G01*
X19911611Y-3126688D01*
X19984854Y-3178255D01*
X19964513Y-3245311D01*
X19957952Y-3311925D01*
X19748500Y-3102474D01*
X19748500Y-2943436D01*
X19771171Y-2979225D01*
G37*
%TD.AperFunction*%
D30*
X24417000Y-1273000D02*
X24437000Y-1273000D01*
X24437000Y-1527000D01*
X24417000Y-1527000D01*
X24417000Y-1785200D01*
X24163000Y-1785200D01*
X24163000Y-1527000D01*
X24143000Y-1527000D01*
X24143000Y-1273000D01*
X24163000Y-1273000D01*
X24163000Y-1253000D01*
X24417000Y-1253000D01*
X24417000Y-1273000D01*
%TA.AperFunction,Conductor*%
D31*
G36*
X24417000Y-1273000D02*
G01*
X24437000Y-1273000D01*
X24437000Y-1527000D01*
X24417000Y-1527000D01*
X24417000Y-1785200D01*
X24163000Y-1785200D01*
X24163000Y-1527000D01*
X24143000Y-1527000D01*
X24143000Y-1273000D01*
X24163000Y-1273000D01*
X24163000Y-1253000D01*
X24417000Y-1253000D01*
X24417000Y-1273000D01*
G37*
%TD.AperFunction*%
%TD*%
D30*
%TO.N,/VBUS_RECEP*%
X11176000Y-3513524D02*
X11153792Y-3540585D01*
X11108978Y-3624424D01*
X11081384Y-3715394D01*
X11072065Y-3810000D01*
X11074401Y-3833715D01*
X11074401Y-4680157D01*
X9835000Y-4680157D01*
X9740802Y-4689435D01*
X9650224Y-4716911D01*
X9566747Y-4761531D01*
X9493578Y-4821578D01*
X9489949Y-4826000D01*
X9385178Y-4826000D01*
X9373597Y-4767777D01*
X9325729Y-4652215D01*
X9256236Y-4548211D01*
X9167789Y-4459764D01*
X9063785Y-4390271D01*
X8948223Y-4342403D01*
X8825542Y-4318000D01*
X8700458Y-4318000D01*
X8577777Y-4342403D01*
X8462215Y-4390271D01*
X8382000Y-4443869D01*
X8382000Y-3048000D01*
X11176000Y-3048000D01*
X11176000Y-3513524D01*
%TA.AperFunction,Conductor*%
D31*
G36*
X11176000Y-3513524D02*
G01*
X11153792Y-3540585D01*
X11108978Y-3624424D01*
X11081384Y-3715394D01*
X11072065Y-3810000D01*
X11074401Y-3833715D01*
X11074401Y-4680157D01*
X9835000Y-4680157D01*
X9740802Y-4689435D01*
X9650224Y-4716911D01*
X9566747Y-4761531D01*
X9493578Y-4821578D01*
X9489949Y-4826000D01*
X9385178Y-4826000D01*
X9373597Y-4767777D01*
X9325729Y-4652215D01*
X9256236Y-4548211D01*
X9167789Y-4459764D01*
X9063785Y-4390271D01*
X8948223Y-4342403D01*
X8825542Y-4318000D01*
X8700458Y-4318000D01*
X8577777Y-4342403D01*
X8462215Y-4390271D01*
X8382000Y-4443869D01*
X8382000Y-3048000D01*
X11176000Y-3048000D01*
X11176000Y-3513524D01*
G37*
%TD.AperFunction*%
%TD*%
D30*
%TO.N,/VBUS_PLUG*%
X20037832Y-7500519D02*
X20097540Y-7506400D01*
X20097547Y-7506400D01*
X20117500Y-7508365D01*
X20137453Y-7506400D01*
X20351546Y-7506400D01*
X20371499Y-7508365D01*
X20391452Y-7506400D01*
X21109960Y-7506400D01*
X21169668Y-7500519D01*
X21194455Y-7493000D01*
X21276000Y-7493000D01*
X21276000Y-7714772D01*
X20590000Y-7714772D01*
X20547071Y-7719000D01*
X20358708Y-7719000D01*
X20339998Y-7717157D01*
X20321288Y-7719000D01*
X20321286Y-7719000D01*
X20265310Y-7724513D01*
X20193491Y-7746299D01*
X20192180Y-7747000D01*
X19685000Y-7747000D01*
X19660224Y-7749440D01*
X19636399Y-7756667D01*
X19614443Y-7768403D01*
X19595197Y-7784197D01*
X19124394Y-8255000D01*
X18721606Y-8255000D01*
X18415000Y-7948394D01*
X18415000Y-7493000D01*
X20013045Y-7493000D01*
X20037832Y-7500519D01*
%TA.AperFunction,Conductor*%
D31*
G36*
X20037832Y-7500519D02*
G01*
X20097540Y-7506400D01*
X20097547Y-7506400D01*
X20117500Y-7508365D01*
X20137453Y-7506400D01*
X20351546Y-7506400D01*
X20371499Y-7508365D01*
X20391452Y-7506400D01*
X21109960Y-7506400D01*
X21169668Y-7500519D01*
X21194455Y-7493000D01*
X21276000Y-7493000D01*
X21276000Y-7714772D01*
X20590000Y-7714772D01*
X20547071Y-7719000D01*
X20358708Y-7719000D01*
X20339998Y-7717157D01*
X20321288Y-7719000D01*
X20321286Y-7719000D01*
X20265310Y-7724513D01*
X20193491Y-7746299D01*
X20192180Y-7747000D01*
X19685000Y-7747000D01*
X19660224Y-7749440D01*
X19636399Y-7756667D01*
X19614443Y-7768403D01*
X19595197Y-7784197D01*
X19124394Y-8255000D01*
X18721606Y-8255000D01*
X18415000Y-7948394D01*
X18415000Y-7493000D01*
X20013045Y-7493000D01*
X20037832Y-7500519D01*
G37*
%TD.AperFunction*%
%TD*%
D30*
%TO.N,+5V*%
X4374152Y-18705248D02*
X4498960Y-18756945D01*
X4626157Y-18782246D01*
X4626157Y-20164000D01*
X4633513Y-20238689D01*
X4655299Y-20310508D01*
X4690678Y-20376696D01*
X4738289Y-20434711D01*
X4796304Y-20482322D01*
X4862492Y-20517701D01*
X4934311Y-20539487D01*
X5009000Y-20546843D01*
X5659000Y-20546843D01*
X5733689Y-20539487D01*
X5805508Y-20517701D01*
X5871696Y-20482322D01*
X5929711Y-20434711D01*
X5977322Y-20376696D01*
X6012701Y-20310508D01*
X6034487Y-20238689D01*
X6041843Y-20164000D01*
X6041843Y-18782246D01*
X6169040Y-18756945D01*
X6293848Y-18705248D01*
X6348097Y-18669000D01*
X6477000Y-18669000D01*
X6477000Y-21328296D01*
X6462098Y-21356176D01*
X6431492Y-21457072D01*
X6421157Y-21562000D01*
X6421157Y-21872000D01*
X6431492Y-21976928D01*
X6462098Y-22077824D01*
X6472882Y-22098000D01*
X4208433Y-22098000D01*
X4215522Y-22084737D01*
X4246412Y-21982903D01*
X4256843Y-21877000D01*
X4256843Y-21853248D01*
X4261185Y-21849685D01*
X4340537Y-21752994D01*
X4399502Y-21642680D01*
X4435812Y-21522982D01*
X4445000Y-21429692D01*
X4445000Y-21429682D01*
X4448071Y-21398501D01*
X4445000Y-21367320D01*
X4445000Y-21087056D01*
X4469445Y-21028040D01*
X4495800Y-20895545D01*
X4495800Y-20760455D01*
X4469445Y-20627960D01*
X4417748Y-20503152D01*
X4342695Y-20390828D01*
X4247172Y-20295305D01*
X4191000Y-20257772D01*
X4191000Y-18669000D01*
X4319903Y-18669000D01*
X4374152Y-18705248D01*
%TA.AperFunction,Conductor*%
D31*
G36*
X4374152Y-18705248D02*
G01*
X4498960Y-18756945D01*
X4626157Y-18782246D01*
X4626157Y-20164000D01*
X4633513Y-20238689D01*
X4655299Y-20310508D01*
X4690678Y-20376696D01*
X4738289Y-20434711D01*
X4796304Y-20482322D01*
X4862492Y-20517701D01*
X4934311Y-20539487D01*
X5009000Y-20546843D01*
X5659000Y-20546843D01*
X5733689Y-20539487D01*
X5805508Y-20517701D01*
X5871696Y-20482322D01*
X5929711Y-20434711D01*
X5977322Y-20376696D01*
X6012701Y-20310508D01*
X6034487Y-20238689D01*
X6041843Y-20164000D01*
X6041843Y-18782246D01*
X6169040Y-18756945D01*
X6293848Y-18705248D01*
X6348097Y-18669000D01*
X6477000Y-18669000D01*
X6477000Y-21328296D01*
X6462098Y-21356176D01*
X6431492Y-21457072D01*
X6421157Y-21562000D01*
X6421157Y-21872000D01*
X6431492Y-21976928D01*
X6462098Y-22077824D01*
X6472882Y-22098000D01*
X4208433Y-22098000D01*
X4215522Y-22084737D01*
X4246412Y-21982903D01*
X4256843Y-21877000D01*
X4256843Y-21853248D01*
X4261185Y-21849685D01*
X4340537Y-21752994D01*
X4399502Y-21642680D01*
X4435812Y-21522982D01*
X4445000Y-21429692D01*
X4445000Y-21429682D01*
X4448071Y-21398501D01*
X4445000Y-21367320D01*
X4445000Y-21087056D01*
X4469445Y-21028040D01*
X4495800Y-20895545D01*
X4495800Y-20760455D01*
X4469445Y-20627960D01*
X4417748Y-20503152D01*
X4342695Y-20390828D01*
X4247172Y-20295305D01*
X4191000Y-20257772D01*
X4191000Y-18669000D01*
X4319903Y-18669000D01*
X4374152Y-18705248D01*
G37*
%TD.AperFunction*%
%TD*%
D30*
%TO.N,+3V3*%
X6604000Y-16170017D02*
X6604000Y-17526000D01*
X6348097Y-17526000D01*
X6293848Y-17489752D01*
X6169040Y-17438055D01*
X6036545Y-17411700D01*
X5901455Y-17411700D01*
X5768960Y-17438055D01*
X5709944Y-17462500D01*
X5593056Y-17462500D01*
X5534040Y-17438055D01*
X5401545Y-17411700D01*
X5334000Y-17411700D01*
X5334000Y-15875000D01*
X6308983Y-15875000D01*
X6604000Y-16170017D01*
%TA.AperFunction,Conductor*%
D31*
G36*
X6604000Y-16170017D02*
G01*
X6604000Y-17526000D01*
X6348097Y-17526000D01*
X6293848Y-17489752D01*
X6169040Y-17438055D01*
X6036545Y-17411700D01*
X5901455Y-17411700D01*
X5768960Y-17438055D01*
X5709944Y-17462500D01*
X5593056Y-17462500D01*
X5534040Y-17438055D01*
X5401545Y-17411700D01*
X5334000Y-17411700D01*
X5334000Y-15875000D01*
X6308983Y-15875000D01*
X6604000Y-16170017D01*
G37*
%TD.AperFunction*%
%TD*%
D30*
%TO.N,/CC2_RECEP*%
X9398000Y-7429500D02*
X8458077Y-7429500D01*
X7621368Y-7262158D01*
X7545605Y-7186395D01*
X7507115Y-7154807D01*
X7463202Y-7131335D01*
X7415553Y-7116881D01*
X7366000Y-7112000D01*
X5486000Y-7112000D01*
X5486000Y-7005228D01*
X6175000Y-7005228D01*
X6224793Y-7000324D01*
X6272672Y-6985800D01*
X6301603Y-6970336D01*
X6312533Y-6983654D01*
X6366680Y-7028092D01*
X6428456Y-7061112D01*
X6495486Y-7081445D01*
X6547733Y-7086591D01*
X6547742Y-7086591D01*
X6565195Y-7088310D01*
X6582648Y-7086591D01*
X6969402Y-7086591D01*
X6986857Y-7088310D01*
X7004312Y-7086591D01*
X7004320Y-7086591D01*
X7056567Y-7081445D01*
X7123597Y-7061112D01*
X7185373Y-7028092D01*
X7239520Y-6983654D01*
X7250656Y-6970086D01*
X7299242Y-6921500D01*
X9398000Y-6921500D01*
X9398000Y-7429500D01*
%TA.AperFunction,Conductor*%
D31*
G36*
X9398000Y-7429500D02*
G01*
X8458077Y-7429500D01*
X7621368Y-7262158D01*
X7545605Y-7186395D01*
X7507115Y-7154807D01*
X7463202Y-7131335D01*
X7415553Y-7116881D01*
X7366000Y-7112000D01*
X5486000Y-7112000D01*
X5486000Y-7005228D01*
X6175000Y-7005228D01*
X6224793Y-7000324D01*
X6272672Y-6985800D01*
X6301603Y-6970336D01*
X6312533Y-6983654D01*
X6366680Y-7028092D01*
X6428456Y-7061112D01*
X6495486Y-7081445D01*
X6547733Y-7086591D01*
X6547742Y-7086591D01*
X6565195Y-7088310D01*
X6582648Y-7086591D01*
X6969402Y-7086591D01*
X6986857Y-7088310D01*
X7004312Y-7086591D01*
X7004320Y-7086591D01*
X7056567Y-7081445D01*
X7123597Y-7061112D01*
X7185373Y-7028092D01*
X7239520Y-6983654D01*
X7250656Y-6970086D01*
X7299242Y-6921500D01*
X9398000Y-6921500D01*
X9398000Y-7429500D01*
G37*
%TD.AperFunction*%
%TD*%
D30*
%TO.N,/VBUS_PLUG*%
X18161000Y-3683000D02*
X18163440Y-3707776D01*
X18170667Y-3731601D01*
X18182403Y-3753557D01*
X18198197Y-3772803D01*
X19341197Y-4915803D01*
X19360443Y-4931597D01*
X19382399Y-4943333D01*
X19406224Y-4950560D01*
X19431000Y-4953000D01*
X19845803Y-4953000D01*
X19847788Y-4954061D01*
X19929182Y-4978752D01*
X20013829Y-4987089D01*
X20035039Y-4985000D01*
X20144283Y-4985000D01*
X20173957Y-5000861D01*
X20255351Y-5025552D01*
X20292084Y-5029170D01*
X20339998Y-5033889D01*
X20361208Y-5031800D01*
X20544575Y-5031800D01*
X20590000Y-5036274D01*
X21225201Y-5036274D01*
X21225201Y-5163726D01*
X20590000Y-5163726D01*
X20530249Y-5169611D01*
X20472794Y-5187040D01*
X20460521Y-5193600D01*
X19696886Y-5193600D01*
X19676933Y-5191635D01*
X19656981Y-5193600D01*
X19656974Y-5193600D01*
X19597266Y-5199481D01*
X19520659Y-5222719D01*
X19512648Y-5227001D01*
X18340350Y-5227001D01*
X18321049Y-5221062D01*
X17884331Y-4784345D01*
X17872826Y-4726504D01*
X17830702Y-4624809D01*
X17769548Y-4533286D01*
X17691714Y-4455452D01*
X17600191Y-4394298D01*
X17498496Y-4352174D01*
X17390537Y-4330700D01*
X17280463Y-4330700D01*
X17172504Y-4352174D01*
X17070809Y-4394298D01*
X16979286Y-4455452D01*
X16901452Y-4533286D01*
X16840298Y-4624809D01*
X16798174Y-4726504D01*
X16792163Y-4756726D01*
X16435740Y-4756726D01*
X16412378Y-4744239D01*
X16307044Y-4712286D01*
X16197500Y-4701497D01*
X16087957Y-4712286D01*
X15982623Y-4744239D01*
X15959261Y-4756726D01*
X15560000Y-4756726D01*
X15494000Y-4763226D01*
X15494000Y-4658240D01*
X15508674Y-4622814D01*
X15532100Y-4505040D01*
X15532100Y-4384960D01*
X15508674Y-4267186D01*
X15494000Y-4231760D01*
X15494000Y-3048000D01*
X18161000Y-3048000D01*
X18161000Y-3683000D01*
%TA.AperFunction,Conductor*%
D31*
G36*
X18161000Y-3683000D02*
G01*
X18163440Y-3707776D01*
X18170667Y-3731601D01*
X18182403Y-3753557D01*
X18198197Y-3772803D01*
X19341197Y-4915803D01*
X19360443Y-4931597D01*
X19382399Y-4943333D01*
X19406224Y-4950560D01*
X19431000Y-4953000D01*
X19845803Y-4953000D01*
X19847788Y-4954061D01*
X19929182Y-4978752D01*
X20013829Y-4987089D01*
X20035039Y-4985000D01*
X20144283Y-4985000D01*
X20173957Y-5000861D01*
X20255351Y-5025552D01*
X20292084Y-5029170D01*
X20339998Y-5033889D01*
X20361208Y-5031800D01*
X20544575Y-5031800D01*
X20590000Y-5036274D01*
X21225201Y-5036274D01*
X21225201Y-5163726D01*
X20590000Y-5163726D01*
X20530249Y-5169611D01*
X20472794Y-5187040D01*
X20460521Y-5193600D01*
X19696886Y-5193600D01*
X19676933Y-5191635D01*
X19656981Y-5193600D01*
X19656974Y-5193600D01*
X19597266Y-5199481D01*
X19520659Y-5222719D01*
X19512648Y-5227001D01*
X18340350Y-5227001D01*
X18321049Y-5221062D01*
X17884331Y-4784345D01*
X17872826Y-4726504D01*
X17830702Y-4624809D01*
X17769548Y-4533286D01*
X17691714Y-4455452D01*
X17600191Y-4394298D01*
X17498496Y-4352174D01*
X17390537Y-4330700D01*
X17280463Y-4330700D01*
X17172504Y-4352174D01*
X17070809Y-4394298D01*
X16979286Y-4455452D01*
X16901452Y-4533286D01*
X16840298Y-4624809D01*
X16798174Y-4726504D01*
X16792163Y-4756726D01*
X16435740Y-4756726D01*
X16412378Y-4744239D01*
X16307044Y-4712286D01*
X16197500Y-4701497D01*
X16087957Y-4712286D01*
X15982623Y-4744239D01*
X15959261Y-4756726D01*
X15560000Y-4756726D01*
X15494000Y-4763226D01*
X15494000Y-4658240D01*
X15508674Y-4622814D01*
X15532100Y-4505040D01*
X15532100Y-4384960D01*
X15508674Y-4267186D01*
X15494000Y-4231760D01*
X15494000Y-3048000D01*
X18161000Y-3048000D01*
X18161000Y-3683000D01*
G37*
%TD.AperFunction*%
%TD*%
D30*
%TO.N,/CC2_PLUG*%
X19955000Y-6938250D02*
X19989748Y-6972998D01*
X19955000Y-6972998D01*
X19955000Y-7061200D01*
X18288000Y-7061200D01*
X18228536Y-7067057D01*
X18171358Y-7084402D01*
X18118662Y-7112568D01*
X18072474Y-7150474D01*
X18034568Y-7196662D01*
X18006402Y-7249358D01*
X17989057Y-7306536D01*
X17983200Y-7366000D01*
X17983200Y-8001000D01*
X17989057Y-8060464D01*
X18006402Y-8117642D01*
X18011938Y-8128000D01*
X17678400Y-8128000D01*
X17678400Y-7569953D01*
X17680365Y-7550000D01*
X17678400Y-7530047D01*
X17678400Y-7530040D01*
X17672519Y-7470332D01*
X17672419Y-7470000D01*
X17653000Y-7405985D01*
X17653000Y-6858000D01*
X19963972Y-6858000D01*
X19955000Y-6938250D01*
%TA.AperFunction,Conductor*%
D31*
G36*
X19955000Y-6938250D02*
G01*
X19989748Y-6972998D01*
X19955000Y-6972998D01*
X19955000Y-7061200D01*
X18288000Y-7061200D01*
X18228536Y-7067057D01*
X18171358Y-7084402D01*
X18118662Y-7112568D01*
X18072474Y-7150474D01*
X18034568Y-7196662D01*
X18006402Y-7249358D01*
X17989057Y-7306536D01*
X17983200Y-7366000D01*
X17983200Y-8001000D01*
X17989057Y-8060464D01*
X18006402Y-8117642D01*
X18011938Y-8128000D01*
X17678400Y-8128000D01*
X17678400Y-7569953D01*
X17680365Y-7550000D01*
X17678400Y-7530047D01*
X17678400Y-7530040D01*
X17672519Y-7470332D01*
X17672419Y-7470000D01*
X17653000Y-7405985D01*
X17653000Y-6858000D01*
X19963972Y-6858000D01*
X19955000Y-6938250D01*
G37*
%TD.AperFunction*%
D30*
X21209000Y-7061200D02*
X20963000Y-7061200D01*
X20963000Y-7036274D01*
X21209000Y-7036274D01*
X21209000Y-7061200D01*
%TA.AperFunction,Conductor*%
D31*
G36*
X21209000Y-7061200D02*
G01*
X20963000Y-7061200D01*
X20963000Y-7036274D01*
X21209000Y-7036274D01*
X21209000Y-7061200D01*
G37*
%TD.AperFunction*%
%TD*%
D30*
%TO.N,/VBUS_RECEP*%
X8191500Y-4328894D02*
X7326105Y-5194289D01*
X5742566Y-5194289D01*
X5725111Y-5192570D01*
X5707656Y-5194289D01*
X5707648Y-5194289D01*
X5702744Y-5194772D01*
X5486000Y-5194772D01*
X5486000Y-5005228D01*
X6175000Y-5005228D01*
X6224793Y-5000324D01*
X6272672Y-4985800D01*
X6316797Y-4962214D01*
X6350932Y-4934200D01*
X6510460Y-4934200D01*
X6529170Y-4936043D01*
X6547880Y-4934200D01*
X6547883Y-4934200D01*
X6603859Y-4928687D01*
X6675678Y-4906901D01*
X6741866Y-4871522D01*
X6797336Y-4826000D01*
X6985000Y-4826000D01*
X7009776Y-4823560D01*
X7033601Y-4816333D01*
X7055557Y-4804597D01*
X7074803Y-4788803D01*
X8191500Y-3672106D01*
X8191500Y-4328894D01*
%TA.AperFunction,Conductor*%
D31*
G36*
X8191500Y-4328894D02*
G01*
X7326105Y-5194289D01*
X5742566Y-5194289D01*
X5725111Y-5192570D01*
X5707656Y-5194289D01*
X5707648Y-5194289D01*
X5702744Y-5194772D01*
X5486000Y-5194772D01*
X5486000Y-5005228D01*
X6175000Y-5005228D01*
X6224793Y-5000324D01*
X6272672Y-4985800D01*
X6316797Y-4962214D01*
X6350932Y-4934200D01*
X6510460Y-4934200D01*
X6529170Y-4936043D01*
X6547880Y-4934200D01*
X6547883Y-4934200D01*
X6603859Y-4928687D01*
X6675678Y-4906901D01*
X6741866Y-4871522D01*
X6797336Y-4826000D01*
X6985000Y-4826000D01*
X7009776Y-4823560D01*
X7033601Y-4816333D01*
X7055557Y-4804597D01*
X7074803Y-4788803D01*
X8191500Y-3672106D01*
X8191500Y-4328894D01*
G37*
%TD.AperFunction*%
%TD*%
D30*
%TO.N,/VBUS_RECEP*%
X5680124Y-7525288D02*
X5732371Y-7530434D01*
X5732380Y-7530434D01*
X5749833Y-7532153D01*
X5767286Y-7530434D01*
X7350828Y-7530434D01*
X8202394Y-8382000D01*
X7303185Y-8382000D01*
X6811816Y-7890632D01*
X6799881Y-7876089D01*
X6741866Y-7828478D01*
X6675678Y-7793099D01*
X6603859Y-7771313D01*
X6547883Y-7765800D01*
X6547880Y-7765800D01*
X6529170Y-7763957D01*
X6510460Y-7765800D01*
X6350932Y-7765800D01*
X6316797Y-7737786D01*
X6272672Y-7714200D01*
X6224793Y-7699676D01*
X6175000Y-7694772D01*
X5486000Y-7694772D01*
X5486000Y-7505228D01*
X5613994Y-7505228D01*
X5680124Y-7525288D01*
%TA.AperFunction,Conductor*%
D31*
G36*
X5680124Y-7525288D02*
G01*
X5732371Y-7530434D01*
X5732380Y-7530434D01*
X5749833Y-7532153D01*
X5767286Y-7530434D01*
X7350828Y-7530434D01*
X8202394Y-8382000D01*
X7303185Y-8382000D01*
X6811816Y-7890632D01*
X6799881Y-7876089D01*
X6741866Y-7828478D01*
X6675678Y-7793099D01*
X6603859Y-7771313D01*
X6547883Y-7765800D01*
X6547880Y-7765800D01*
X6529170Y-7763957D01*
X6510460Y-7765800D01*
X6350932Y-7765800D01*
X6316797Y-7737786D01*
X6272672Y-7714200D01*
X6224793Y-7699676D01*
X6175000Y-7694772D01*
X5486000Y-7694772D01*
X5486000Y-7505228D01*
X5613994Y-7505228D01*
X5680124Y-7525288D01*
G37*
%TD.AperFunction*%
%TD*%
M02*
