%TF.GenerationSoftware,KiCad,Pcbnew,(5.1.7)-1*%
%TF.CreationDate,2020-11-18T22:53:05+01:00*%
%TF.ProjectId,twonkie,74776f6e-6b69-4652-9e6b-696361645f70,rev?*%
%TF.SameCoordinates,PX448d510PY20b3950*%
%TF.FileFunction,Copper,L2,Inr*%
%TF.FilePolarity,Positive*%
%FSLAX46Y46*%
G04 Gerber Fmt 4.6, Leading zero omitted, Abs format (unit mm)*
G04 Created by KiCad (PCBNEW (5.1.7)-1) date 2020-11-18 22:53:05*
%MOMM*%
%LPD*%
G01*
G04 APERTURE LIST*
%TA.AperFunction,ComponentPad*%
%ADD10O,1.150000X1.800000*%
%TD*%
%TA.AperFunction,ComponentPad*%
%ADD11O,1.450000X2.000000*%
%TD*%
%TA.AperFunction,ComponentPad*%
%ADD12O,2.500000X1.300000*%
%TD*%
%TA.AperFunction,ViaPad*%
%ADD13C,0.609600*%
%TD*%
%TA.AperFunction,ViaPad*%
%ADD14C,0.508000*%
%TD*%
%TA.AperFunction,ViaPad*%
%ADD15C,0.457200*%
%TD*%
%TA.AperFunction,Conductor*%
%ADD16C,0.508000*%
%TD*%
%TA.AperFunction,Conductor*%
%ADD17C,0.203200*%
%TD*%
%TA.AperFunction,Conductor*%
%ADD18C,0.254000*%
%TD*%
%TA.AperFunction,Conductor*%
%ADD19C,0.100000*%
%TD*%
G04 APERTURE END LIST*
D10*
%TO.N,GND*%
%TO.C,J3*%
X9209000Y-23286000D03*
X1459000Y-23286000D03*
D11*
X9059000Y-19486000D03*
X1609000Y-19486000D03*
%TD*%
D12*
%TO.N,GND*%
%TO.C,J1*%
X21190000Y-10360000D03*
X21190000Y-2340000D03*
%TD*%
D13*
%TO.N,GND*%
X19494500Y-23050500D03*
X13462000Y-20447000D03*
X15875000Y-17881600D03*
X12192000Y-4699000D03*
X4953000Y-635000D03*
D14*
X6477000Y-10414000D03*
X6477000Y-9779000D03*
X6477000Y-2921000D03*
X6477000Y-2286000D03*
D13*
X5334000Y-18097500D03*
X13412792Y-16961149D03*
D14*
X19177000Y-14732000D03*
D13*
X8890000Y-15240000D03*
X5969000Y-18097500D03*
X4699000Y-18097500D03*
X12382500Y-23558500D03*
X21209000Y-21399500D03*
X5842000Y-12065000D03*
X21717000Y-635000D03*
X20320000Y-3492500D03*
X19939000Y-3048000D03*
X19431000Y-10414000D03*
X20256500Y-9271000D03*
X19558000Y-11303000D03*
X24257000Y-12700000D03*
X22352000Y-1016000D03*
X5334000Y-11430000D03*
X6350000Y-11430000D03*
X4953000Y-1333500D03*
X13906500Y-8102590D03*
X14922500Y-4445000D03*
X5651500Y-1460500D03*
X23622000Y-12700000D03*
%TO.N,+5V*%
X23241000Y-23368000D03*
%TO.N,+3V3*%
X5588000Y-17145000D03*
X11684000Y-7239000D03*
X12442000Y-22102000D03*
X12700000Y-7874000D03*
X19685000Y-21336000D03*
X5588000Y-16256000D03*
X14605000Y-17907000D03*
X9017000Y-16637000D03*
X12206419Y-3951419D03*
X14986000Y-20066000D03*
D14*
X14993294Y-5261560D03*
D13*
X8890000Y-10350500D03*
X22415500Y-11811000D03*
%TO.N,Net-(D1-Pad1)*%
X3810000Y-20828000D03*
D14*
%TO.N,/CC1_RECEP*%
X10033000Y-8509000D03*
X17399000Y-5588000D03*
X9271000Y-5524500D03*
X11049000Y-10350500D03*
D13*
%TO.N,/CC2_RECEP*%
X9144000Y-7239000D03*
D14*
X10414000Y-10350500D03*
%TO.N,/CC1_TX_DATA*%
X2794000Y-13716000D03*
X4000500Y-15113000D03*
%TO.N,/CC1_TX_EN*%
X10477500Y-21590000D03*
%TO.N,/CC2_TX_DATA*%
X15494000Y-15494000D03*
X18351625Y-17462625D03*
%TO.N,/CC2_TX_EN*%
X14132613Y-15704645D03*
%TO.N,/CC2*%
X10668000Y-13716000D03*
X19939000Y-14732000D03*
X10795000Y-12700000D03*
%TO.N,/CC1_EN*%
X9337588Y-13053528D03*
X18415000Y-16256000D03*
%TO.N,/CC2_EN*%
X13843000Y-12827000D03*
X19050000Y-13589000D03*
%TO.N,/BOOT*%
X18516600Y-19555981D03*
%TO.N,/LED_R_L*%
X23939500Y-20383500D03*
%TO.N,/LED_G_L*%
X22479000Y-18923000D03*
%TO.N,/LED_B_L*%
X18923000Y-23622000D03*
%TO.N,/CC1_RP3A0*%
X14605000Y-16129000D03*
%TO.N,/CC1_RA*%
X7576582Y-15013987D03*
%TO.N,/CC1_RP1A5*%
X6893653Y-15000138D03*
%TO.N,/CC1_RD*%
X14010642Y-20035519D03*
%TO.N,/CC1_RPUSB*%
X10383547Y-20741506D03*
%TO.N,/CC2_RP3A0*%
X14351000Y-20574000D03*
%TO.N,/CC2_RA*%
X15621000Y-20574000D03*
%TO.N,/CC2_RP1A5*%
X16793347Y-20574000D03*
%TO.N,/CC2_RD*%
X17653000Y-20574000D03*
%TO.N,/CC2_RPUSB*%
X18415000Y-20574000D03*
%TO.N,/INA_SCL*%
X12954000Y-5461000D03*
X13307848Y-19323564D03*
X13462000Y-10350500D03*
%TO.N,/INA_SDA*%
X10714245Y-17733755D03*
X14097000Y-4572000D03*
X12826997Y-10350500D03*
X14732000Y-10350500D03*
%TO.N,/VBUS_ALERT_L*%
X15367000Y-10350500D03*
X21209000Y-17970500D03*
%TO.N,/VCONN_ALERT_L*%
X21209000Y-17335500D03*
X14351000Y-3937000D03*
X14097000Y-10350500D03*
%TO.N,/CC2_BUF*%
X21463000Y-13081000D03*
%TO.N,/CC1_BUF*%
X19050000Y-12827000D03*
D13*
%TO.N,/VBUS_PLUG*%
X17907000Y-3746500D03*
X17399000Y-3429000D03*
X17399000Y-4064000D03*
X17907000Y-3175000D03*
X19240500Y-7683500D03*
X18923000Y-8128000D03*
X18669000Y-7683500D03*
X19387500Y-5100000D03*
X18796000Y-5080000D03*
X18669000Y-4508500D03*
X17907000Y-4318000D03*
%TO.N,/CC2_PLUG*%
X17843500Y-7747000D03*
D14*
X12992474Y-4699000D03*
X13017500Y-7239000D03*
D13*
%TO.N,/VBUS_RECEP*%
X8636000Y-3492500D03*
X8636000Y-4064000D03*
X9144000Y-3238500D03*
X9144000Y-3810000D03*
X7919185Y-4236185D03*
X7538185Y-4617185D03*
X7206621Y-7784100D03*
X7585260Y-8162740D03*
X9144000Y-4381500D03*
X8064500Y-8445500D03*
D14*
%TO.N,/SBU2*%
X17335500Y-4889500D03*
X8763000Y-4953000D03*
%TO.N,/SBU1*%
X13850496Y-7201516D03*
X11747500Y-8382000D03*
D15*
%TO.N,/USBC_D-*%
X6784653Y-6273790D03*
%TO.N,/USBC_D+*%
X7350212Y-6007090D03*
D14*
%TO.N,/USB_B_D+*%
X14519400Y-23368000D03*
%TO.N,/USB_B_D-*%
X15230600Y-23368000D03*
%TO.N,/TX_CLK*%
X21335742Y-16370299D03*
X10287000Y-15875000D03*
D13*
%TO.N,Net-(C5-Pad1)*%
X17272000Y-17907000D03*
X17018000Y-15621000D03*
%TD*%
D16*
%TO.N,+3V3*%
X8890000Y-10350500D02*
X8890000Y-11430000D01*
D17*
%TO.N,/CC2_TX_DATA*%
X16002000Y-15494000D02*
X15494000Y-15494000D01*
X17970625Y-17462625D02*
X16002000Y-15494000D01*
X18351625Y-17462625D02*
X17970625Y-17462625D01*
%TO.N,/INA_SCL*%
X13360399Y-10452101D02*
X13462000Y-10350500D01*
X13360399Y-15646681D02*
X13360399Y-10452101D01*
X15138401Y-17424683D02*
X13360399Y-15646681D01*
X15138401Y-18163033D02*
X15138401Y-17424683D01*
X13977870Y-19323564D02*
X15138401Y-18163033D01*
X13307848Y-19323564D02*
X13977870Y-19323564D01*
%TO.N,/INA_SDA*%
X12826997Y-15621003D02*
X10714245Y-17733755D01*
X12826997Y-10350500D02*
X12826997Y-15621003D01*
%TO.N,/VBUS_ALERT_L*%
X18669000Y-14747750D02*
X15367000Y-11445750D01*
X15367000Y-11445750D02*
X15367000Y-10350500D01*
X18669000Y-14986000D02*
X18669000Y-14747750D01*
X18923000Y-15240000D02*
X18669000Y-14986000D01*
X21440649Y-16852899D02*
X20774149Y-16852899D01*
X20774149Y-16852899D02*
X19161250Y-15240000D01*
X21691601Y-17103851D02*
X21440649Y-16852899D01*
X19161250Y-15240000D02*
X18923000Y-15240000D01*
X21691601Y-17567149D02*
X21691601Y-17103851D01*
X21440649Y-17818101D02*
X21691601Y-17567149D01*
X21297899Y-17818101D02*
X21440649Y-17818101D01*
X21209000Y-17907000D02*
X21297899Y-17818101D01*
X21209000Y-17970500D02*
X21209000Y-17907000D01*
%TO.N,/VCONN_ALERT_L*%
X14097000Y-10350500D02*
X14097000Y-10642736D01*
X19075264Y-15621000D02*
X20789764Y-17335500D01*
X14097000Y-10642736D02*
X18288000Y-14833736D01*
X18288000Y-14833736D02*
X18288000Y-15113000D01*
X18288000Y-15113000D02*
X18796000Y-15621000D01*
X18796000Y-15621000D02*
X19075264Y-15621000D01*
X20789764Y-17335500D02*
X21209000Y-17335500D01*
%TO.N,/SBU1*%
X13373099Y-7678913D02*
X13850496Y-7201516D01*
X13373099Y-7990335D02*
X13373099Y-7678913D01*
X12956033Y-8407401D02*
X13373099Y-7990335D01*
X11772901Y-8407401D02*
X12956033Y-8407401D01*
X11747500Y-8382000D02*
X11772901Y-8407401D01*
%TD*%
D18*
%TO.N,+3V3*%
X12420598Y-15452665D02*
X10698309Y-17174955D01*
X10659208Y-17174955D01*
X10551249Y-17196429D01*
X10449554Y-17238553D01*
X10358031Y-17299707D01*
X10280197Y-17377541D01*
X10219043Y-17469064D01*
X10176919Y-17570759D01*
X10155445Y-17678718D01*
X10155445Y-17788792D01*
X10176919Y-17896751D01*
X10219043Y-17998446D01*
X10280197Y-18089969D01*
X10358031Y-18167803D01*
X10449554Y-18228957D01*
X10551249Y-18271081D01*
X10659208Y-18292555D01*
X10769282Y-18292555D01*
X10877241Y-18271081D01*
X10978936Y-18228957D01*
X11070459Y-18167803D01*
X11148293Y-18089969D01*
X11209447Y-17998446D01*
X11251571Y-17896751D01*
X11273045Y-17788792D01*
X11273045Y-17749691D01*
X13080240Y-15942497D01*
X13087145Y-15948163D01*
X13494925Y-16355943D01*
X13472832Y-16351549D01*
X13352752Y-16351549D01*
X13234978Y-16374975D01*
X13124038Y-16420928D01*
X13024194Y-16487641D01*
X12939284Y-16572551D01*
X12872571Y-16672395D01*
X12826618Y-16783335D01*
X12803192Y-16901109D01*
X12803192Y-17021189D01*
X12826618Y-17138963D01*
X12872571Y-17249903D01*
X12939284Y-17349747D01*
X13024194Y-17434657D01*
X13124038Y-17501370D01*
X13234978Y-17547323D01*
X13352752Y-17570749D01*
X13472832Y-17570749D01*
X13590606Y-17547323D01*
X13701546Y-17501370D01*
X13801390Y-17434657D01*
X13886300Y-17349747D01*
X13953013Y-17249903D01*
X13998966Y-17138963D01*
X14022392Y-17021189D01*
X14022392Y-16901109D01*
X14017998Y-16879016D01*
X14732002Y-17593021D01*
X14732001Y-17994696D01*
X13809534Y-18917164D01*
X13691710Y-18917164D01*
X13664062Y-18889516D01*
X13572539Y-18828362D01*
X13470844Y-18786238D01*
X13362885Y-18764764D01*
X13252811Y-18764764D01*
X13144852Y-18786238D01*
X13043157Y-18828362D01*
X12951634Y-18889516D01*
X12873800Y-18967350D01*
X12812646Y-19058873D01*
X12770522Y-19160568D01*
X12749048Y-19268527D01*
X12749048Y-19378601D01*
X12770522Y-19486560D01*
X12812646Y-19588255D01*
X12873800Y-19679778D01*
X12951634Y-19757612D01*
X13043157Y-19818766D01*
X13144852Y-19860890D01*
X13238879Y-19879593D01*
X13173246Y-19906779D01*
X13073402Y-19973492D01*
X12988492Y-20058402D01*
X12921779Y-20158246D01*
X12875826Y-20269186D01*
X12852400Y-20386960D01*
X12852400Y-20507040D01*
X12875826Y-20624814D01*
X12921779Y-20735754D01*
X12988492Y-20835598D01*
X13073402Y-20920508D01*
X13173246Y-20987221D01*
X13284186Y-21033174D01*
X13401960Y-21056600D01*
X13522040Y-21056600D01*
X13639814Y-21033174D01*
X13750754Y-20987221D01*
X13850598Y-20920508D01*
X13886487Y-20884619D01*
X13916952Y-20930214D01*
X13994786Y-21008048D01*
X14086309Y-21069202D01*
X14188004Y-21111326D01*
X14295963Y-21132800D01*
X14406037Y-21132800D01*
X14513996Y-21111326D01*
X14615691Y-21069202D01*
X14707214Y-21008048D01*
X14785048Y-20930214D01*
X14846202Y-20838691D01*
X14888326Y-20736996D01*
X14909800Y-20629037D01*
X14909800Y-20518963D01*
X15062200Y-20518963D01*
X15062200Y-20629037D01*
X15083674Y-20736996D01*
X15125798Y-20838691D01*
X15186952Y-20930214D01*
X15264786Y-21008048D01*
X15356309Y-21069202D01*
X15458004Y-21111326D01*
X15565963Y-21132800D01*
X15676037Y-21132800D01*
X15783996Y-21111326D01*
X15885691Y-21069202D01*
X15977214Y-21008048D01*
X16055048Y-20930214D01*
X16116202Y-20838691D01*
X16158326Y-20736996D01*
X16179800Y-20629037D01*
X16179800Y-20518963D01*
X16234547Y-20518963D01*
X16234547Y-20629037D01*
X16256021Y-20736996D01*
X16298145Y-20838691D01*
X16359299Y-20930214D01*
X16437133Y-21008048D01*
X16528656Y-21069202D01*
X16630351Y-21111326D01*
X16738310Y-21132800D01*
X16848384Y-21132800D01*
X16956343Y-21111326D01*
X17058038Y-21069202D01*
X17149561Y-21008048D01*
X17223174Y-20934436D01*
X17296786Y-21008048D01*
X17388309Y-21069202D01*
X17490004Y-21111326D01*
X17597963Y-21132800D01*
X17708037Y-21132800D01*
X17815996Y-21111326D01*
X17917691Y-21069202D01*
X18009214Y-21008048D01*
X18034000Y-20983262D01*
X18058786Y-21008048D01*
X18150309Y-21069202D01*
X18252004Y-21111326D01*
X18359963Y-21132800D01*
X18470037Y-21132800D01*
X18577996Y-21111326D01*
X18679691Y-21069202D01*
X18771214Y-21008048D01*
X18849048Y-20930214D01*
X18910202Y-20838691D01*
X18952326Y-20736996D01*
X18973800Y-20629037D01*
X18973800Y-20518963D01*
X18952326Y-20411004D01*
X18918136Y-20328463D01*
X23380700Y-20328463D01*
X23380700Y-20438537D01*
X23402174Y-20546496D01*
X23444298Y-20648191D01*
X23505452Y-20739714D01*
X23583286Y-20817548D01*
X23674809Y-20878702D01*
X23776504Y-20920826D01*
X23884463Y-20942300D01*
X23994537Y-20942300D01*
X24102496Y-20920826D01*
X24204191Y-20878702D01*
X24295714Y-20817548D01*
X24373548Y-20739714D01*
X24434702Y-20648191D01*
X24476826Y-20546496D01*
X24498300Y-20438537D01*
X24498300Y-20328463D01*
X24476826Y-20220504D01*
X24434702Y-20118809D01*
X24373548Y-20027286D01*
X24295714Y-19949452D01*
X24204191Y-19888298D01*
X24102496Y-19846174D01*
X23994537Y-19824700D01*
X23884463Y-19824700D01*
X23776504Y-19846174D01*
X23674809Y-19888298D01*
X23583286Y-19949452D01*
X23505452Y-20027286D01*
X23444298Y-20118809D01*
X23402174Y-20220504D01*
X23380700Y-20328463D01*
X18918136Y-20328463D01*
X18910202Y-20309309D01*
X18849048Y-20217786D01*
X18771214Y-20139952D01*
X18693059Y-20087730D01*
X18781291Y-20051183D01*
X18872814Y-19990029D01*
X18950648Y-19912195D01*
X19011802Y-19820672D01*
X19053926Y-19718977D01*
X19075400Y-19611018D01*
X19075400Y-19500944D01*
X19053926Y-19392985D01*
X19011802Y-19291290D01*
X18950648Y-19199767D01*
X18872814Y-19121933D01*
X18781291Y-19060779D01*
X18679596Y-19018655D01*
X18571637Y-18997181D01*
X18461563Y-18997181D01*
X18353604Y-19018655D01*
X18251909Y-19060779D01*
X18160386Y-19121933D01*
X18082552Y-19199767D01*
X18021398Y-19291290D01*
X17979274Y-19392985D01*
X17957800Y-19500944D01*
X17957800Y-19611018D01*
X17979274Y-19718977D01*
X18021398Y-19820672D01*
X18082552Y-19912195D01*
X18160386Y-19990029D01*
X18238541Y-20042251D01*
X18150309Y-20078798D01*
X18058786Y-20139952D01*
X18034000Y-20164738D01*
X18009214Y-20139952D01*
X17917691Y-20078798D01*
X17815996Y-20036674D01*
X17708037Y-20015200D01*
X17597963Y-20015200D01*
X17490004Y-20036674D01*
X17388309Y-20078798D01*
X17296786Y-20139952D01*
X17223174Y-20213565D01*
X17149561Y-20139952D01*
X17058038Y-20078798D01*
X16956343Y-20036674D01*
X16848384Y-20015200D01*
X16738310Y-20015200D01*
X16630351Y-20036674D01*
X16528656Y-20078798D01*
X16437133Y-20139952D01*
X16359299Y-20217786D01*
X16298145Y-20309309D01*
X16256021Y-20411004D01*
X16234547Y-20518963D01*
X16179800Y-20518963D01*
X16158326Y-20411004D01*
X16116202Y-20309309D01*
X16055048Y-20217786D01*
X15977214Y-20139952D01*
X15885691Y-20078798D01*
X15783996Y-20036674D01*
X15676037Y-20015200D01*
X15565963Y-20015200D01*
X15458004Y-20036674D01*
X15356309Y-20078798D01*
X15264786Y-20139952D01*
X15186952Y-20217786D01*
X15125798Y-20309309D01*
X15083674Y-20411004D01*
X15062200Y-20518963D01*
X14909800Y-20518963D01*
X14888326Y-20411004D01*
X14846202Y-20309309D01*
X14785048Y-20217786D01*
X14707214Y-20139952D01*
X14615691Y-20078798D01*
X14569442Y-20059641D01*
X14569442Y-19980482D01*
X14547968Y-19872523D01*
X14505844Y-19770828D01*
X14444690Y-19679305D01*
X14366856Y-19601471D01*
X14311612Y-19564558D01*
X15008207Y-18867963D01*
X21920200Y-18867963D01*
X21920200Y-18978037D01*
X21941674Y-19085996D01*
X21983798Y-19187691D01*
X22044952Y-19279214D01*
X22122786Y-19357048D01*
X22214309Y-19418202D01*
X22316004Y-19460326D01*
X22423963Y-19481800D01*
X22534037Y-19481800D01*
X22641996Y-19460326D01*
X22743691Y-19418202D01*
X22835214Y-19357048D01*
X22913048Y-19279214D01*
X22974202Y-19187691D01*
X23016326Y-19085996D01*
X23037800Y-18978037D01*
X23037800Y-18867963D01*
X23016326Y-18760004D01*
X22974202Y-18658309D01*
X22913048Y-18566786D01*
X22835214Y-18488952D01*
X22743691Y-18427798D01*
X22641996Y-18385674D01*
X22534037Y-18364200D01*
X22423963Y-18364200D01*
X22316004Y-18385674D01*
X22214309Y-18427798D01*
X22122786Y-18488952D01*
X22044952Y-18566786D01*
X21983798Y-18658309D01*
X21941674Y-18760004D01*
X21920200Y-18867963D01*
X15008207Y-18867963D01*
X15411662Y-18464509D01*
X15427159Y-18451791D01*
X15439878Y-18436293D01*
X15439883Y-18436288D01*
X15457118Y-18415287D01*
X15477945Y-18389909D01*
X15493877Y-18360103D01*
X15586246Y-18421821D01*
X15697186Y-18467774D01*
X15814960Y-18491200D01*
X15935040Y-18491200D01*
X16052814Y-18467774D01*
X16163754Y-18421821D01*
X16263598Y-18355108D01*
X16348508Y-18270198D01*
X16415221Y-18170354D01*
X16461174Y-18059414D01*
X16484600Y-17941640D01*
X16484600Y-17821560D01*
X16461174Y-17703786D01*
X16415221Y-17592846D01*
X16348508Y-17493002D01*
X16263598Y-17408092D01*
X16163754Y-17341379D01*
X16052814Y-17295426D01*
X15935040Y-17272000D01*
X15814960Y-17272000D01*
X15697186Y-17295426D01*
X15586246Y-17341379D01*
X15541506Y-17371273D01*
X15538920Y-17345015D01*
X15515682Y-17268408D01*
X15477945Y-17197807D01*
X15457118Y-17172429D01*
X15439883Y-17151428D01*
X15439878Y-17151423D01*
X15427159Y-17135925D01*
X15411661Y-17123206D01*
X14895447Y-16606992D01*
X14961214Y-16563048D01*
X15039048Y-16485214D01*
X15100202Y-16393691D01*
X15142326Y-16291996D01*
X15163800Y-16184037D01*
X15163800Y-16073963D01*
X15142326Y-15966004D01*
X15118697Y-15908959D01*
X15137786Y-15928048D01*
X15229309Y-15989202D01*
X15331004Y-16031326D01*
X15438963Y-16052800D01*
X15549037Y-16052800D01*
X15656996Y-16031326D01*
X15758691Y-15989202D01*
X15850214Y-15928048D01*
X15855763Y-15922499D01*
X17230664Y-17297400D01*
X17211960Y-17297400D01*
X17094186Y-17320826D01*
X16983246Y-17366779D01*
X16883402Y-17433492D01*
X16798492Y-17518402D01*
X16731779Y-17618246D01*
X16685826Y-17729186D01*
X16662400Y-17846960D01*
X16662400Y-17967040D01*
X16685826Y-18084814D01*
X16731779Y-18195754D01*
X16798492Y-18295598D01*
X16883402Y-18380508D01*
X16983246Y-18447221D01*
X17094186Y-18493174D01*
X17211960Y-18516600D01*
X17332040Y-18516600D01*
X17449814Y-18493174D01*
X17560754Y-18447221D01*
X17660598Y-18380508D01*
X17745508Y-18295598D01*
X17812221Y-18195754D01*
X17858174Y-18084814D01*
X17881600Y-17967040D01*
X17881600Y-17860306D01*
X17890956Y-17863144D01*
X17898960Y-17863932D01*
X17950665Y-17869025D01*
X17950671Y-17869025D01*
X17969630Y-17870892D01*
X17995411Y-17896673D01*
X18086934Y-17957827D01*
X18188629Y-17999951D01*
X18296588Y-18021425D01*
X18406662Y-18021425D01*
X18514621Y-17999951D01*
X18616316Y-17957827D01*
X18707839Y-17896673D01*
X18785673Y-17818839D01*
X18846827Y-17727316D01*
X18888951Y-17625621D01*
X18910425Y-17517662D01*
X18910425Y-17407588D01*
X18888951Y-17299629D01*
X18846827Y-17197934D01*
X18785673Y-17106411D01*
X18707839Y-17028577D01*
X18616316Y-16967423D01*
X18514621Y-16925299D01*
X18406662Y-16903825D01*
X18296588Y-16903825D01*
X18188629Y-16925299D01*
X18086934Y-16967423D01*
X18064889Y-16982153D01*
X17262350Y-16179614D01*
X17306754Y-16161221D01*
X17406598Y-16094508D01*
X17491508Y-16009598D01*
X17558221Y-15909754D01*
X17604174Y-15798814D01*
X17627600Y-15681040D01*
X17627600Y-15560960D01*
X17604174Y-15443186D01*
X17558221Y-15332246D01*
X17491508Y-15232402D01*
X17406598Y-15147492D01*
X17306754Y-15080779D01*
X17195814Y-15034826D01*
X17078040Y-15011400D01*
X16957960Y-15011400D01*
X16840186Y-15034826D01*
X16729246Y-15080779D01*
X16629402Y-15147492D01*
X16544492Y-15232402D01*
X16477779Y-15332246D01*
X16459386Y-15376650D01*
X16303482Y-15220746D01*
X16290758Y-15205242D01*
X16228876Y-15154456D01*
X16158275Y-15116719D01*
X16081668Y-15093481D01*
X16021960Y-15087600D01*
X16021953Y-15087600D01*
X16002000Y-15085635D01*
X15982047Y-15087600D01*
X15877862Y-15087600D01*
X15850214Y-15059952D01*
X15758691Y-14998798D01*
X15656996Y-14956674D01*
X15549037Y-14935200D01*
X15438963Y-14935200D01*
X15331004Y-14956674D01*
X15229309Y-14998798D01*
X15137786Y-15059952D01*
X15059952Y-15137786D01*
X14998798Y-15229309D01*
X14956674Y-15331004D01*
X14935200Y-15438963D01*
X14935200Y-15549037D01*
X14956674Y-15656996D01*
X14980303Y-15714041D01*
X14961214Y-15694952D01*
X14869691Y-15633798D01*
X14767996Y-15591674D01*
X14676260Y-15573427D01*
X14669939Y-15541649D01*
X14627815Y-15439954D01*
X14566661Y-15348431D01*
X14488827Y-15270597D01*
X14397304Y-15209443D01*
X14295609Y-15167319D01*
X14187650Y-15145845D01*
X14077576Y-15145845D01*
X13969617Y-15167319D01*
X13867922Y-15209443D01*
X13776399Y-15270597D01*
X13766799Y-15280197D01*
X13766799Y-13381590D01*
X13787963Y-13385800D01*
X13898037Y-13385800D01*
X14005996Y-13364326D01*
X14107691Y-13322202D01*
X14199214Y-13261048D01*
X14277048Y-13183214D01*
X14338202Y-13091691D01*
X14380326Y-12989996D01*
X14401800Y-12882037D01*
X14401800Y-12771963D01*
X14380326Y-12664004D01*
X14338202Y-12562309D01*
X14277048Y-12470786D01*
X14199214Y-12392952D01*
X14107691Y-12331798D01*
X14005996Y-12289674D01*
X13898037Y-12268200D01*
X13787963Y-12268200D01*
X13766799Y-12272410D01*
X13766799Y-11049000D01*
X13928528Y-11049000D01*
X17881600Y-15002073D01*
X17881600Y-15093047D01*
X17879635Y-15113000D01*
X17881600Y-15132953D01*
X17881600Y-15132960D01*
X17887481Y-15192668D01*
X17910719Y-15269275D01*
X17948457Y-15339876D01*
X17955478Y-15348431D01*
X17986518Y-15386254D01*
X17986524Y-15386260D01*
X17999243Y-15401758D01*
X18014741Y-15414477D01*
X18307833Y-15707569D01*
X18252004Y-15718674D01*
X18150309Y-15760798D01*
X18058786Y-15821952D01*
X17980952Y-15899786D01*
X17919798Y-15991309D01*
X17877674Y-16093004D01*
X17856200Y-16200963D01*
X17856200Y-16311037D01*
X17877674Y-16418996D01*
X17919798Y-16520691D01*
X17980952Y-16612214D01*
X18058786Y-16690048D01*
X18150309Y-16751202D01*
X18252004Y-16793326D01*
X18359963Y-16814800D01*
X18470037Y-16814800D01*
X18577996Y-16793326D01*
X18679691Y-16751202D01*
X18771214Y-16690048D01*
X18849048Y-16612214D01*
X18910202Y-16520691D01*
X18952326Y-16418996D01*
X18973800Y-16311037D01*
X18973800Y-16200963D01*
X18952326Y-16093004D01*
X18938038Y-16058510D01*
X20488282Y-17608754D01*
X20501006Y-17624258D01*
X20562888Y-17675044D01*
X20633489Y-17712781D01*
X20687570Y-17729186D01*
X20702268Y-17733645D01*
X20671674Y-17807504D01*
X20650200Y-17915463D01*
X20650200Y-18025537D01*
X20671674Y-18133496D01*
X20713798Y-18235191D01*
X20774952Y-18326714D01*
X20852786Y-18404548D01*
X20944309Y-18465702D01*
X21046004Y-18507826D01*
X21153963Y-18529300D01*
X21264037Y-18529300D01*
X21371996Y-18507826D01*
X21473691Y-18465702D01*
X21565214Y-18404548D01*
X21643048Y-18326714D01*
X21704202Y-18235191D01*
X21746326Y-18133496D01*
X21757831Y-18075655D01*
X21964856Y-17868630D01*
X21980359Y-17855907D01*
X22031145Y-17794025D01*
X22068882Y-17723424D01*
X22079173Y-17689500D01*
X22092120Y-17646818D01*
X22094368Y-17623992D01*
X22098001Y-17587109D01*
X22098001Y-17587102D01*
X22099966Y-17567149D01*
X22098001Y-17547196D01*
X22098001Y-17123804D01*
X22099966Y-17103851D01*
X22098001Y-17083898D01*
X22098001Y-17083891D01*
X22092120Y-17024183D01*
X22092115Y-17024164D01*
X22068882Y-16947576D01*
X22062150Y-16934981D01*
X22031145Y-16876975D01*
X21980359Y-16815093D01*
X21964855Y-16802369D01*
X21817539Y-16655053D01*
X21830944Y-16634990D01*
X21873068Y-16533295D01*
X21875527Y-16520931D01*
X21967336Y-16582276D01*
X22086502Y-16631636D01*
X22213008Y-16656800D01*
X22341992Y-16656800D01*
X22468498Y-16631636D01*
X22587664Y-16582276D01*
X22694910Y-16510616D01*
X22786116Y-16419410D01*
X22857776Y-16312164D01*
X22907136Y-16192998D01*
X22932300Y-16066492D01*
X22932300Y-15937508D01*
X23422700Y-15937508D01*
X23422700Y-16066492D01*
X23447864Y-16192998D01*
X23497224Y-16312164D01*
X23568884Y-16419410D01*
X23660090Y-16510616D01*
X23767336Y-16582276D01*
X23886502Y-16631636D01*
X24013008Y-16656800D01*
X24141992Y-16656800D01*
X24268498Y-16631636D01*
X24387664Y-16582276D01*
X24494910Y-16510616D01*
X24586116Y-16419410D01*
X24657776Y-16312164D01*
X24707136Y-16192998D01*
X24732300Y-16066492D01*
X24732300Y-15937508D01*
X24707136Y-15811002D01*
X24657776Y-15691836D01*
X24586116Y-15584590D01*
X24494910Y-15493384D01*
X24387664Y-15421724D01*
X24268498Y-15372364D01*
X24141992Y-15347200D01*
X24013008Y-15347200D01*
X23886502Y-15372364D01*
X23767336Y-15421724D01*
X23660090Y-15493384D01*
X23568884Y-15584590D01*
X23497224Y-15691836D01*
X23447864Y-15811002D01*
X23422700Y-15937508D01*
X22932300Y-15937508D01*
X22907136Y-15811002D01*
X22857776Y-15691836D01*
X22786116Y-15584590D01*
X22694910Y-15493384D01*
X22587664Y-15421724D01*
X22468498Y-15372364D01*
X22341992Y-15347200D01*
X22213008Y-15347200D01*
X22086502Y-15372364D01*
X21967336Y-15421724D01*
X21860090Y-15493384D01*
X21768884Y-15584590D01*
X21697224Y-15691836D01*
X21647864Y-15811002D01*
X21631046Y-15895552D01*
X21600433Y-15875097D01*
X21498738Y-15832973D01*
X21390779Y-15811499D01*
X21280705Y-15811499D01*
X21172746Y-15832973D01*
X21071051Y-15875097D01*
X20979528Y-15936251D01*
X20901694Y-16014085D01*
X20840540Y-16105608D01*
X20798416Y-16207303D01*
X20782634Y-16286647D01*
X19757752Y-15261766D01*
X19776004Y-15269326D01*
X19883963Y-15290800D01*
X19994037Y-15290800D01*
X20101996Y-15269326D01*
X20203691Y-15227202D01*
X20295214Y-15166048D01*
X20373048Y-15088214D01*
X20434202Y-14996691D01*
X20476326Y-14894996D01*
X20497800Y-14787037D01*
X20497800Y-14676963D01*
X20476326Y-14569004D01*
X20434202Y-14467309D01*
X20373048Y-14375786D01*
X20295214Y-14297952D01*
X20203691Y-14236798D01*
X20101996Y-14194674D01*
X19994037Y-14173200D01*
X19883963Y-14173200D01*
X19776004Y-14194674D01*
X19674309Y-14236798D01*
X19582786Y-14297952D01*
X19558000Y-14322738D01*
X19533214Y-14297952D01*
X19441691Y-14236798D01*
X19339996Y-14194674D01*
X19232037Y-14173200D01*
X19121963Y-14173200D01*
X19014004Y-14194674D01*
X18912309Y-14236798D01*
X18820786Y-14297952D01*
X18807362Y-14311376D01*
X17267949Y-12771963D01*
X18491200Y-12771963D01*
X18491200Y-12882037D01*
X18512674Y-12989996D01*
X18554798Y-13091691D01*
X18615952Y-13183214D01*
X18640738Y-13208000D01*
X18615952Y-13232786D01*
X18554798Y-13324309D01*
X18512674Y-13426004D01*
X18491200Y-13533963D01*
X18491200Y-13644037D01*
X18512674Y-13751996D01*
X18554798Y-13853691D01*
X18615952Y-13945214D01*
X18693786Y-14023048D01*
X18785309Y-14084202D01*
X18887004Y-14126326D01*
X18994963Y-14147800D01*
X19105037Y-14147800D01*
X19212996Y-14126326D01*
X19314691Y-14084202D01*
X19406214Y-14023048D01*
X19484048Y-13945214D01*
X19545202Y-13853691D01*
X19587326Y-13751996D01*
X19608800Y-13644037D01*
X19608800Y-13533963D01*
X19587326Y-13426004D01*
X19545202Y-13324309D01*
X19484048Y-13232786D01*
X19459262Y-13208000D01*
X19484048Y-13183214D01*
X19545202Y-13091691D01*
X19572427Y-13025963D01*
X20904200Y-13025963D01*
X20904200Y-13136037D01*
X20925674Y-13243996D01*
X20967798Y-13345691D01*
X21028952Y-13437214D01*
X21106786Y-13515048D01*
X21198309Y-13576202D01*
X21300004Y-13618326D01*
X21407963Y-13639800D01*
X21518037Y-13639800D01*
X21625996Y-13618326D01*
X21727691Y-13576202D01*
X21819214Y-13515048D01*
X21897048Y-13437214D01*
X21958202Y-13345691D01*
X22000326Y-13243996D01*
X22021800Y-13136037D01*
X22021800Y-13025963D01*
X22000326Y-12918004D01*
X21958202Y-12816309D01*
X21897048Y-12724786D01*
X21819214Y-12646952D01*
X21808750Y-12639960D01*
X23012400Y-12639960D01*
X23012400Y-12760040D01*
X23035826Y-12877814D01*
X23081779Y-12988754D01*
X23148492Y-13088598D01*
X23233402Y-13173508D01*
X23333246Y-13240221D01*
X23444186Y-13286174D01*
X23561960Y-13309600D01*
X23682040Y-13309600D01*
X23799814Y-13286174D01*
X23910754Y-13240221D01*
X23939500Y-13221014D01*
X23968246Y-13240221D01*
X24079186Y-13286174D01*
X24196960Y-13309600D01*
X24317040Y-13309600D01*
X24434814Y-13286174D01*
X24545754Y-13240221D01*
X24645598Y-13173508D01*
X24730508Y-13088598D01*
X24797221Y-12988754D01*
X24843174Y-12877814D01*
X24866600Y-12760040D01*
X24866600Y-12639960D01*
X24843174Y-12522186D01*
X24797221Y-12411246D01*
X24730508Y-12311402D01*
X24645598Y-12226492D01*
X24545754Y-12159779D01*
X24434814Y-12113826D01*
X24317040Y-12090400D01*
X24196960Y-12090400D01*
X24079186Y-12113826D01*
X23968246Y-12159779D01*
X23939500Y-12178986D01*
X23910754Y-12159779D01*
X23799814Y-12113826D01*
X23682040Y-12090400D01*
X23561960Y-12090400D01*
X23444186Y-12113826D01*
X23333246Y-12159779D01*
X23233402Y-12226492D01*
X23148492Y-12311402D01*
X23081779Y-12411246D01*
X23035826Y-12522186D01*
X23012400Y-12639960D01*
X21808750Y-12639960D01*
X21727691Y-12585798D01*
X21625996Y-12543674D01*
X21518037Y-12522200D01*
X21407963Y-12522200D01*
X21300004Y-12543674D01*
X21198309Y-12585798D01*
X21106786Y-12646952D01*
X21028952Y-12724786D01*
X20967798Y-12816309D01*
X20925674Y-12918004D01*
X20904200Y-13025963D01*
X19572427Y-13025963D01*
X19587326Y-12989996D01*
X19608800Y-12882037D01*
X19608800Y-12771963D01*
X19587326Y-12664004D01*
X19545202Y-12562309D01*
X19484048Y-12470786D01*
X19406214Y-12392952D01*
X19314691Y-12331798D01*
X19212996Y-12289674D01*
X19105037Y-12268200D01*
X18994963Y-12268200D01*
X18887004Y-12289674D01*
X18785309Y-12331798D01*
X18693786Y-12392952D01*
X18615952Y-12470786D01*
X18554798Y-12562309D01*
X18512674Y-12664004D01*
X18491200Y-12771963D01*
X17267949Y-12771963D01*
X15773400Y-11277414D01*
X15773400Y-11049000D01*
X19003383Y-11049000D01*
X18971826Y-11125186D01*
X18948400Y-11242960D01*
X18948400Y-11363040D01*
X18971826Y-11480814D01*
X19017779Y-11591754D01*
X19084492Y-11691598D01*
X19169402Y-11776508D01*
X19269246Y-11843221D01*
X19380186Y-11889174D01*
X19497960Y-11912600D01*
X19618040Y-11912600D01*
X19735814Y-11889174D01*
X19846754Y-11843221D01*
X19946598Y-11776508D01*
X20031508Y-11691598D01*
X20098221Y-11591754D01*
X20144174Y-11480814D01*
X20167600Y-11363040D01*
X20167600Y-11242960D01*
X20161791Y-11213753D01*
X20222846Y-11246388D01*
X20402827Y-11300984D01*
X20543103Y-11314800D01*
X21294360Y-11314800D01*
X21330799Y-11359201D01*
X21386347Y-11404788D01*
X21449722Y-11438662D01*
X21518487Y-11459522D01*
X21590000Y-11466565D01*
X21607921Y-11464800D01*
X23172079Y-11464800D01*
X23190000Y-11466565D01*
X23207921Y-11464800D01*
X23261513Y-11459522D01*
X23330278Y-11438662D01*
X23393653Y-11404788D01*
X23449201Y-11359201D01*
X23494788Y-11303653D01*
X23528662Y-11240278D01*
X23549522Y-11171513D01*
X23556565Y-11100000D01*
X23554800Y-11082079D01*
X23554800Y-11049000D01*
X25035200Y-11049000D01*
X25035201Y-12717921D01*
X25040479Y-12771513D01*
X25061339Y-12840278D01*
X25070200Y-12856856D01*
X25070201Y-25070200D01*
X329800Y-25070200D01*
X329800Y-22917789D01*
X579200Y-22917789D01*
X579200Y-23654212D01*
X591931Y-23783471D01*
X642240Y-23949314D01*
X723935Y-24102155D01*
X833879Y-24236122D01*
X967846Y-24346066D01*
X1120687Y-24427761D01*
X1286530Y-24478069D01*
X1459000Y-24495056D01*
X1631471Y-24478069D01*
X1797314Y-24427761D01*
X1950155Y-24346066D01*
X2084122Y-24236122D01*
X2194066Y-24102155D01*
X2275761Y-23949314D01*
X2326069Y-23783471D01*
X2338800Y-23654212D01*
X2338800Y-22917789D01*
X8329200Y-22917789D01*
X8329200Y-23654212D01*
X8341931Y-23783471D01*
X8392240Y-23949314D01*
X8473935Y-24102155D01*
X8583879Y-24236122D01*
X8717846Y-24346066D01*
X8870687Y-24427761D01*
X9036530Y-24478069D01*
X9209000Y-24495056D01*
X9381471Y-24478069D01*
X9547314Y-24427761D01*
X9700155Y-24346066D01*
X9834122Y-24236122D01*
X9944066Y-24102155D01*
X10025761Y-23949314D01*
X10076069Y-23783471D01*
X10088800Y-23654212D01*
X10088800Y-23498460D01*
X11772900Y-23498460D01*
X11772900Y-23618540D01*
X11796326Y-23736314D01*
X11842279Y-23847254D01*
X11908992Y-23947098D01*
X11993902Y-24032008D01*
X12093746Y-24098721D01*
X12204686Y-24144674D01*
X12322460Y-24168100D01*
X12442540Y-24168100D01*
X12560314Y-24144674D01*
X12671254Y-24098721D01*
X12771098Y-24032008D01*
X12856008Y-23947098D01*
X12922721Y-23847254D01*
X12968674Y-23736314D01*
X12992100Y-23618540D01*
X12992100Y-23498460D01*
X12968674Y-23380686D01*
X12940623Y-23312963D01*
X13960600Y-23312963D01*
X13960600Y-23423037D01*
X13982074Y-23530996D01*
X14024198Y-23632691D01*
X14085352Y-23724214D01*
X14163186Y-23802048D01*
X14254709Y-23863202D01*
X14356404Y-23905326D01*
X14464363Y-23926800D01*
X14574437Y-23926800D01*
X14682396Y-23905326D01*
X14784091Y-23863202D01*
X14875000Y-23802458D01*
X14965909Y-23863202D01*
X15067604Y-23905326D01*
X15175563Y-23926800D01*
X15285637Y-23926800D01*
X15393596Y-23905326D01*
X15495291Y-23863202D01*
X15586814Y-23802048D01*
X15664648Y-23724214D01*
X15725802Y-23632691D01*
X15753027Y-23566963D01*
X18364200Y-23566963D01*
X18364200Y-23677037D01*
X18385674Y-23784996D01*
X18427798Y-23886691D01*
X18488952Y-23978214D01*
X18566786Y-24056048D01*
X18658309Y-24117202D01*
X18760004Y-24159326D01*
X18867963Y-24180800D01*
X18978037Y-24180800D01*
X19085996Y-24159326D01*
X19187691Y-24117202D01*
X19279214Y-24056048D01*
X19357048Y-23978214D01*
X19418202Y-23886691D01*
X19460326Y-23784996D01*
X19481800Y-23677037D01*
X19481800Y-23660100D01*
X19554540Y-23660100D01*
X19672314Y-23636674D01*
X19783254Y-23590721D01*
X19883098Y-23524008D01*
X19968008Y-23439098D01*
X20034721Y-23339254D01*
X20047683Y-23307960D01*
X22631400Y-23307960D01*
X22631400Y-23428040D01*
X22654826Y-23545814D01*
X22700779Y-23656754D01*
X22767492Y-23756598D01*
X22852402Y-23841508D01*
X22952246Y-23908221D01*
X23063186Y-23954174D01*
X23180960Y-23977600D01*
X23301040Y-23977600D01*
X23418814Y-23954174D01*
X23529754Y-23908221D01*
X23629598Y-23841508D01*
X23714508Y-23756598D01*
X23781221Y-23656754D01*
X23827174Y-23545814D01*
X23850600Y-23428040D01*
X23850600Y-23307960D01*
X23827174Y-23190186D01*
X23781221Y-23079246D01*
X23714508Y-22979402D01*
X23629598Y-22894492D01*
X23529754Y-22827779D01*
X23418814Y-22781826D01*
X23301040Y-22758400D01*
X23180960Y-22758400D01*
X23063186Y-22781826D01*
X22952246Y-22827779D01*
X22852402Y-22894492D01*
X22767492Y-22979402D01*
X22700779Y-23079246D01*
X22654826Y-23190186D01*
X22631400Y-23307960D01*
X20047683Y-23307960D01*
X20080674Y-23228314D01*
X20104100Y-23110540D01*
X20104100Y-22990460D01*
X20080674Y-22872686D01*
X20034721Y-22761746D01*
X19968008Y-22661902D01*
X19883098Y-22576992D01*
X19783254Y-22510279D01*
X19672314Y-22464326D01*
X19554540Y-22440900D01*
X19434460Y-22440900D01*
X19316686Y-22464326D01*
X19205746Y-22510279D01*
X19105902Y-22576992D01*
X19020992Y-22661902D01*
X18954279Y-22761746D01*
X18908326Y-22872686D01*
X18884900Y-22990460D01*
X18884900Y-23063200D01*
X18867963Y-23063200D01*
X18760004Y-23084674D01*
X18658309Y-23126798D01*
X18566786Y-23187952D01*
X18488952Y-23265786D01*
X18427798Y-23357309D01*
X18385674Y-23459004D01*
X18364200Y-23566963D01*
X15753027Y-23566963D01*
X15767926Y-23530996D01*
X15789400Y-23423037D01*
X15789400Y-23312963D01*
X15767926Y-23205004D01*
X15725802Y-23103309D01*
X15664648Y-23011786D01*
X15586814Y-22933952D01*
X15495291Y-22872798D01*
X15393596Y-22830674D01*
X15285637Y-22809200D01*
X15175563Y-22809200D01*
X15067604Y-22830674D01*
X14965909Y-22872798D01*
X14875000Y-22933542D01*
X14784091Y-22872798D01*
X14682396Y-22830674D01*
X14574437Y-22809200D01*
X14464363Y-22809200D01*
X14356404Y-22830674D01*
X14254709Y-22872798D01*
X14163186Y-22933952D01*
X14085352Y-23011786D01*
X14024198Y-23103309D01*
X13982074Y-23205004D01*
X13960600Y-23312963D01*
X12940623Y-23312963D01*
X12922721Y-23269746D01*
X12856008Y-23169902D01*
X12771098Y-23084992D01*
X12671254Y-23018279D01*
X12560314Y-22972326D01*
X12442540Y-22948900D01*
X12322460Y-22948900D01*
X12204686Y-22972326D01*
X12093746Y-23018279D01*
X11993902Y-23084992D01*
X11908992Y-23169902D01*
X11842279Y-23269746D01*
X11796326Y-23380686D01*
X11772900Y-23498460D01*
X10088800Y-23498460D01*
X10088800Y-22917788D01*
X10076069Y-22788529D01*
X10025761Y-22622686D01*
X9944066Y-22469845D01*
X9834122Y-22335878D01*
X9700154Y-22225934D01*
X9547313Y-22144239D01*
X9381470Y-22093931D01*
X9209000Y-22076944D01*
X9036529Y-22093931D01*
X8870686Y-22144239D01*
X8717845Y-22225934D01*
X8583878Y-22335878D01*
X8473934Y-22469846D01*
X8392239Y-22622687D01*
X8341931Y-22788530D01*
X8329200Y-22917789D01*
X2338800Y-22917789D01*
X2338800Y-22917788D01*
X2326069Y-22788529D01*
X2275761Y-22622686D01*
X2194066Y-22469845D01*
X2084122Y-22335878D01*
X1950154Y-22225934D01*
X1797313Y-22144239D01*
X1631470Y-22093931D01*
X1459000Y-22076944D01*
X1286529Y-22093931D01*
X1120686Y-22144239D01*
X967845Y-22225934D01*
X833878Y-22335878D01*
X723934Y-22469846D01*
X642239Y-22622687D01*
X591931Y-22788530D01*
X579200Y-22917789D01*
X329800Y-22917789D01*
X329800Y-19160418D01*
X579200Y-19160418D01*
X579200Y-19811583D01*
X594101Y-19962876D01*
X652986Y-20156994D01*
X748611Y-20335894D01*
X877300Y-20492701D01*
X1034107Y-20621390D01*
X1213007Y-20717014D01*
X1407125Y-20775899D01*
X1609000Y-20795782D01*
X1810876Y-20775899D01*
X2004994Y-20717014D01*
X2137328Y-20646280D01*
X2156285Y-20741583D01*
X2209415Y-20869848D01*
X2286546Y-20985284D01*
X2384716Y-21083454D01*
X2500152Y-21160585D01*
X2628417Y-21213715D01*
X2764583Y-21240800D01*
X2903417Y-21240800D01*
X3039583Y-21213715D01*
X3167848Y-21160585D01*
X3261903Y-21097740D01*
X3269779Y-21116754D01*
X3336492Y-21216598D01*
X3421402Y-21301508D01*
X3521246Y-21368221D01*
X3632186Y-21414174D01*
X3749960Y-21437600D01*
X3870040Y-21437600D01*
X3987814Y-21414174D01*
X4098754Y-21368221D01*
X4198598Y-21301508D01*
X4283508Y-21216598D01*
X4350221Y-21116754D01*
X4396174Y-21005814D01*
X4419600Y-20888040D01*
X4419600Y-20767960D01*
X4396174Y-20650186D01*
X4350221Y-20539246D01*
X4301670Y-20466583D01*
X7129200Y-20466583D01*
X7129200Y-20605417D01*
X7156285Y-20741583D01*
X7209415Y-20869848D01*
X7286546Y-20985284D01*
X7384716Y-21083454D01*
X7500152Y-21160585D01*
X7628417Y-21213715D01*
X7764583Y-21240800D01*
X7903417Y-21240800D01*
X8039583Y-21213715D01*
X8167848Y-21160585D01*
X8283284Y-21083454D01*
X8381454Y-20985284D01*
X8458585Y-20869848D01*
X8511715Y-20741583D01*
X8530672Y-20646279D01*
X8663007Y-20717014D01*
X8857125Y-20775899D01*
X9059000Y-20795782D01*
X9260876Y-20775899D01*
X9454994Y-20717014D01*
X9512139Y-20686469D01*
X9824747Y-20686469D01*
X9824747Y-20796543D01*
X9846221Y-20904502D01*
X9888345Y-21006197D01*
X9949499Y-21097720D01*
X10027333Y-21175554D01*
X10071903Y-21205335D01*
X10043452Y-21233786D01*
X9982298Y-21325309D01*
X9940174Y-21427004D01*
X9918700Y-21534963D01*
X9918700Y-21645037D01*
X9940174Y-21752996D01*
X9982298Y-21854691D01*
X10043452Y-21946214D01*
X10121286Y-22024048D01*
X10212809Y-22085202D01*
X10314504Y-22127326D01*
X10422463Y-22148800D01*
X10532537Y-22148800D01*
X10640496Y-22127326D01*
X10742191Y-22085202D01*
X10833714Y-22024048D01*
X10911548Y-21946214D01*
X10972702Y-21854691D01*
X11014826Y-21752996D01*
X11036300Y-21645037D01*
X11036300Y-21534963D01*
X11014826Y-21427004D01*
X10978564Y-21339460D01*
X20599400Y-21339460D01*
X20599400Y-21459540D01*
X20622826Y-21577314D01*
X20668779Y-21688254D01*
X20735492Y-21788098D01*
X20820402Y-21873008D01*
X20920246Y-21939721D01*
X21031186Y-21985674D01*
X21148960Y-22009100D01*
X21269040Y-22009100D01*
X21386814Y-21985674D01*
X21497754Y-21939721D01*
X21597598Y-21873008D01*
X21682508Y-21788098D01*
X21749221Y-21688254D01*
X21795174Y-21577314D01*
X21818600Y-21459540D01*
X21818600Y-21339460D01*
X21795174Y-21221686D01*
X21749221Y-21110746D01*
X21682508Y-21010902D01*
X21597598Y-20925992D01*
X21497754Y-20859279D01*
X21386814Y-20813326D01*
X21269040Y-20789900D01*
X21148960Y-20789900D01*
X21031186Y-20813326D01*
X20920246Y-20859279D01*
X20820402Y-20925992D01*
X20735492Y-21010902D01*
X20668779Y-21110746D01*
X20622826Y-21221686D01*
X20599400Y-21339460D01*
X10978564Y-21339460D01*
X10972702Y-21325309D01*
X10911548Y-21233786D01*
X10833714Y-21155952D01*
X10789144Y-21126171D01*
X10817595Y-21097720D01*
X10878749Y-21006197D01*
X10920873Y-20904502D01*
X10942347Y-20796543D01*
X10942347Y-20686469D01*
X10920873Y-20578510D01*
X10878749Y-20476815D01*
X10817595Y-20385292D01*
X10739761Y-20307458D01*
X10648238Y-20246304D01*
X10546543Y-20204180D01*
X10438584Y-20182706D01*
X10328510Y-20182706D01*
X10220551Y-20204180D01*
X10118856Y-20246304D01*
X10027333Y-20307458D01*
X9949499Y-20385292D01*
X9888345Y-20476815D01*
X9846221Y-20578510D01*
X9824747Y-20686469D01*
X9512139Y-20686469D01*
X9633894Y-20621390D01*
X9790701Y-20492701D01*
X9919390Y-20335894D01*
X10015014Y-20156993D01*
X10073899Y-19962875D01*
X10088800Y-19811582D01*
X10088800Y-19160417D01*
X10073899Y-19009124D01*
X10015014Y-18815006D01*
X9919390Y-18636106D01*
X9790701Y-18479299D01*
X9633894Y-18350610D01*
X9454993Y-18254986D01*
X9260875Y-18196101D01*
X9059000Y-18176218D01*
X8857124Y-18196101D01*
X8663006Y-18254986D01*
X8484106Y-18350610D01*
X8327299Y-18479299D01*
X8198610Y-18636106D01*
X8102986Y-18815007D01*
X8044101Y-19009125D01*
X8029200Y-19160418D01*
X8029200Y-19811583D01*
X8033684Y-19857112D01*
X7903417Y-19831200D01*
X7764583Y-19831200D01*
X7628417Y-19858285D01*
X7500152Y-19911415D01*
X7384716Y-19988546D01*
X7286546Y-20086716D01*
X7209415Y-20202152D01*
X7156285Y-20330417D01*
X7129200Y-20466583D01*
X4301670Y-20466583D01*
X4283508Y-20439402D01*
X4198598Y-20354492D01*
X4098754Y-20287779D01*
X3987814Y-20241826D01*
X3870040Y-20218400D01*
X3749960Y-20218400D01*
X3632186Y-20241826D01*
X3521246Y-20287779D01*
X3499948Y-20302010D01*
X3458585Y-20202152D01*
X3381454Y-20086716D01*
X3283284Y-19988546D01*
X3167848Y-19911415D01*
X3039583Y-19858285D01*
X2903417Y-19831200D01*
X2764583Y-19831200D01*
X2634316Y-19857112D01*
X2638800Y-19811582D01*
X2638800Y-19160417D01*
X2623899Y-19009124D01*
X2565014Y-18815006D01*
X2469390Y-18636106D01*
X2340701Y-18479299D01*
X2183894Y-18350610D01*
X2004993Y-18254986D01*
X1810875Y-18196101D01*
X1609000Y-18176218D01*
X1407124Y-18196101D01*
X1213006Y-18254986D01*
X1034106Y-18350610D01*
X877299Y-18479299D01*
X748610Y-18636106D01*
X652986Y-18815007D01*
X594101Y-19009125D01*
X579200Y-19160418D01*
X329800Y-19160418D01*
X329800Y-18037460D01*
X4089400Y-18037460D01*
X4089400Y-18157540D01*
X4112826Y-18275314D01*
X4158779Y-18386254D01*
X4225492Y-18486098D01*
X4310402Y-18571008D01*
X4410246Y-18637721D01*
X4521186Y-18683674D01*
X4638960Y-18707100D01*
X4759040Y-18707100D01*
X4876814Y-18683674D01*
X4987754Y-18637721D01*
X5016500Y-18618514D01*
X5045246Y-18637721D01*
X5156186Y-18683674D01*
X5273960Y-18707100D01*
X5394040Y-18707100D01*
X5511814Y-18683674D01*
X5622754Y-18637721D01*
X5651500Y-18618514D01*
X5680246Y-18637721D01*
X5791186Y-18683674D01*
X5908960Y-18707100D01*
X6029040Y-18707100D01*
X6146814Y-18683674D01*
X6257754Y-18637721D01*
X6357598Y-18571008D01*
X6442508Y-18486098D01*
X6509221Y-18386254D01*
X6555174Y-18275314D01*
X6578600Y-18157540D01*
X6578600Y-18037460D01*
X6555174Y-17919686D01*
X6509221Y-17808746D01*
X6442508Y-17708902D01*
X6357598Y-17623992D01*
X6257754Y-17557279D01*
X6146814Y-17511326D01*
X6029040Y-17487900D01*
X5908960Y-17487900D01*
X5791186Y-17511326D01*
X5680246Y-17557279D01*
X5651500Y-17576486D01*
X5622754Y-17557279D01*
X5511814Y-17511326D01*
X5394040Y-17487900D01*
X5273960Y-17487900D01*
X5156186Y-17511326D01*
X5045246Y-17557279D01*
X5016500Y-17576486D01*
X4987754Y-17557279D01*
X4876814Y-17511326D01*
X4759040Y-17487900D01*
X4638960Y-17487900D01*
X4521186Y-17511326D01*
X4410246Y-17557279D01*
X4310402Y-17623992D01*
X4225492Y-17708902D01*
X4158779Y-17808746D01*
X4112826Y-17919686D01*
X4089400Y-18037460D01*
X329800Y-18037460D01*
X329800Y-15057963D01*
X3441700Y-15057963D01*
X3441700Y-15168037D01*
X3463174Y-15275996D01*
X3505298Y-15377691D01*
X3566452Y-15469214D01*
X3644286Y-15547048D01*
X3735809Y-15608202D01*
X3837504Y-15650326D01*
X3945463Y-15671800D01*
X4055537Y-15671800D01*
X4163496Y-15650326D01*
X4265191Y-15608202D01*
X4356714Y-15547048D01*
X4434548Y-15469214D01*
X4495702Y-15377691D01*
X4537826Y-15275996D01*
X4559300Y-15168037D01*
X4559300Y-15057963D01*
X4537826Y-14950004D01*
X4535796Y-14945101D01*
X6334853Y-14945101D01*
X6334853Y-15055175D01*
X6356327Y-15163134D01*
X6398451Y-15264829D01*
X6459605Y-15356352D01*
X6537439Y-15434186D01*
X6628962Y-15495340D01*
X6730657Y-15537464D01*
X6838616Y-15558938D01*
X6948690Y-15558938D01*
X7056649Y-15537464D01*
X7158344Y-15495340D01*
X7224754Y-15450966D01*
X7311891Y-15509189D01*
X7413586Y-15551313D01*
X7521545Y-15572787D01*
X7631619Y-15572787D01*
X7739578Y-15551313D01*
X7841273Y-15509189D01*
X7932796Y-15448035D01*
X8010630Y-15370201D01*
X8071784Y-15278678D01*
X8112674Y-15179960D01*
X8280400Y-15179960D01*
X8280400Y-15300040D01*
X8303826Y-15417814D01*
X8349779Y-15528754D01*
X8416492Y-15628598D01*
X8501402Y-15713508D01*
X8601246Y-15780221D01*
X8712186Y-15826174D01*
X8829960Y-15849600D01*
X8950040Y-15849600D01*
X9067814Y-15826174D01*
X9082808Y-15819963D01*
X9728200Y-15819963D01*
X9728200Y-15930037D01*
X9749674Y-16037996D01*
X9791798Y-16139691D01*
X9852952Y-16231214D01*
X9930786Y-16309048D01*
X10022309Y-16370202D01*
X10124004Y-16412326D01*
X10231963Y-16433800D01*
X10342037Y-16433800D01*
X10449996Y-16412326D01*
X10551691Y-16370202D01*
X10643214Y-16309048D01*
X10721048Y-16231214D01*
X10782202Y-16139691D01*
X10824326Y-16037996D01*
X10845800Y-15930037D01*
X10845800Y-15819963D01*
X10824326Y-15712004D01*
X10782202Y-15610309D01*
X10721048Y-15518786D01*
X10643214Y-15440952D01*
X10551691Y-15379798D01*
X10449996Y-15337674D01*
X10342037Y-15316200D01*
X10231963Y-15316200D01*
X10124004Y-15337674D01*
X10022309Y-15379798D01*
X9930786Y-15440952D01*
X9852952Y-15518786D01*
X9791798Y-15610309D01*
X9749674Y-15712004D01*
X9728200Y-15819963D01*
X9082808Y-15819963D01*
X9178754Y-15780221D01*
X9278598Y-15713508D01*
X9363508Y-15628598D01*
X9430221Y-15528754D01*
X9476174Y-15417814D01*
X9499600Y-15300040D01*
X9499600Y-15179960D01*
X9476174Y-15062186D01*
X9430221Y-14951246D01*
X9363508Y-14851402D01*
X9278598Y-14766492D01*
X9178754Y-14699779D01*
X9067814Y-14653826D01*
X8950040Y-14630400D01*
X8829960Y-14630400D01*
X8712186Y-14653826D01*
X8601246Y-14699779D01*
X8501402Y-14766492D01*
X8416492Y-14851402D01*
X8349779Y-14951246D01*
X8303826Y-15062186D01*
X8280400Y-15179960D01*
X8112674Y-15179960D01*
X8113908Y-15176983D01*
X8135382Y-15069024D01*
X8135382Y-14958950D01*
X8113908Y-14850991D01*
X8071784Y-14749296D01*
X8010630Y-14657773D01*
X7932796Y-14579939D01*
X7841273Y-14518785D01*
X7739578Y-14476661D01*
X7631619Y-14455187D01*
X7521545Y-14455187D01*
X7413586Y-14476661D01*
X7311891Y-14518785D01*
X7245481Y-14563159D01*
X7158344Y-14504936D01*
X7056649Y-14462812D01*
X6948690Y-14441338D01*
X6838616Y-14441338D01*
X6730657Y-14462812D01*
X6628962Y-14504936D01*
X6537439Y-14566090D01*
X6459605Y-14643924D01*
X6398451Y-14735447D01*
X6356327Y-14837142D01*
X6334853Y-14945101D01*
X4535796Y-14945101D01*
X4495702Y-14848309D01*
X4434548Y-14756786D01*
X4356714Y-14678952D01*
X4265191Y-14617798D01*
X4163496Y-14575674D01*
X4055537Y-14554200D01*
X3945463Y-14554200D01*
X3837504Y-14575674D01*
X3735809Y-14617798D01*
X3644286Y-14678952D01*
X3566452Y-14756786D01*
X3505298Y-14848309D01*
X3463174Y-14950004D01*
X3441700Y-15057963D01*
X329800Y-15057963D01*
X329800Y-13660963D01*
X2235200Y-13660963D01*
X2235200Y-13771037D01*
X2256674Y-13878996D01*
X2298798Y-13980691D01*
X2359952Y-14072214D01*
X2437786Y-14150048D01*
X2529309Y-14211202D01*
X2631004Y-14253326D01*
X2738963Y-14274800D01*
X2849037Y-14274800D01*
X2956996Y-14253326D01*
X3058691Y-14211202D01*
X3150214Y-14150048D01*
X3228048Y-14072214D01*
X3289202Y-13980691D01*
X3331326Y-13878996D01*
X3352800Y-13771037D01*
X3352800Y-13660963D01*
X10109200Y-13660963D01*
X10109200Y-13771037D01*
X10130674Y-13878996D01*
X10172798Y-13980691D01*
X10233952Y-14072214D01*
X10311786Y-14150048D01*
X10403309Y-14211202D01*
X10505004Y-14253326D01*
X10612963Y-14274800D01*
X10723037Y-14274800D01*
X10830996Y-14253326D01*
X10932691Y-14211202D01*
X11024214Y-14150048D01*
X11102048Y-14072214D01*
X11163202Y-13980691D01*
X11205326Y-13878996D01*
X11226800Y-13771037D01*
X11226800Y-13660963D01*
X11205326Y-13553004D01*
X11163202Y-13451309D01*
X11102048Y-13359786D01*
X11024214Y-13281952D01*
X10957557Y-13237413D01*
X10957996Y-13237326D01*
X11059691Y-13195202D01*
X11151214Y-13134048D01*
X11229048Y-13056214D01*
X11290202Y-12964691D01*
X11332326Y-12862996D01*
X11353800Y-12755037D01*
X11353800Y-12644963D01*
X11332326Y-12537004D01*
X11290202Y-12435309D01*
X11229048Y-12343786D01*
X11151214Y-12265952D01*
X11059691Y-12204798D01*
X10957996Y-12162674D01*
X10850037Y-12141200D01*
X10739963Y-12141200D01*
X10632004Y-12162674D01*
X10530309Y-12204798D01*
X10438786Y-12265952D01*
X10360952Y-12343786D01*
X10299798Y-12435309D01*
X10257674Y-12537004D01*
X10236200Y-12644963D01*
X10236200Y-12755037D01*
X10257674Y-12862996D01*
X10299798Y-12964691D01*
X10360952Y-13056214D01*
X10438786Y-13134048D01*
X10505443Y-13178587D01*
X10505004Y-13178674D01*
X10403309Y-13220798D01*
X10311786Y-13281952D01*
X10233952Y-13359786D01*
X10172798Y-13451309D01*
X10130674Y-13553004D01*
X10109200Y-13660963D01*
X3352800Y-13660963D01*
X3331326Y-13553004D01*
X3289202Y-13451309D01*
X3228048Y-13359786D01*
X3150214Y-13281952D01*
X3058691Y-13220798D01*
X2956996Y-13178674D01*
X2849037Y-13157200D01*
X2738963Y-13157200D01*
X2631004Y-13178674D01*
X2529309Y-13220798D01*
X2437786Y-13281952D01*
X2359952Y-13359786D01*
X2298798Y-13451309D01*
X2256674Y-13553004D01*
X2235200Y-13660963D01*
X329800Y-13660963D01*
X329800Y-12998491D01*
X8778788Y-12998491D01*
X8778788Y-13108565D01*
X8800262Y-13216524D01*
X8842386Y-13318219D01*
X8903540Y-13409742D01*
X8981374Y-13487576D01*
X9072897Y-13548730D01*
X9174592Y-13590854D01*
X9282551Y-13612328D01*
X9392625Y-13612328D01*
X9500584Y-13590854D01*
X9602279Y-13548730D01*
X9693802Y-13487576D01*
X9771636Y-13409742D01*
X9832790Y-13318219D01*
X9874914Y-13216524D01*
X9896388Y-13108565D01*
X9896388Y-12998491D01*
X9874914Y-12890532D01*
X9832790Y-12788837D01*
X9771636Y-12697314D01*
X9693802Y-12619480D01*
X9602279Y-12558326D01*
X9500584Y-12516202D01*
X9392625Y-12494728D01*
X9282551Y-12494728D01*
X9174592Y-12516202D01*
X9072897Y-12558326D01*
X8981374Y-12619480D01*
X8903540Y-12697314D01*
X8842386Y-12788837D01*
X8800262Y-12890532D01*
X8778788Y-12998491D01*
X329800Y-12998491D01*
X329800Y-11124800D01*
X4804768Y-11124800D01*
X4793779Y-11141246D01*
X4747826Y-11252186D01*
X4724400Y-11369960D01*
X4724400Y-11490040D01*
X4747826Y-11607814D01*
X4793779Y-11718754D01*
X4860492Y-11818598D01*
X4945402Y-11903508D01*
X5045246Y-11970221D01*
X5156186Y-12016174D01*
X5232400Y-12031333D01*
X5232400Y-12125040D01*
X5255826Y-12242814D01*
X5301779Y-12353754D01*
X5368492Y-12453598D01*
X5453402Y-12538508D01*
X5553246Y-12605221D01*
X5664186Y-12651174D01*
X5781960Y-12674600D01*
X5902040Y-12674600D01*
X6019814Y-12651174D01*
X6130754Y-12605221D01*
X6230598Y-12538508D01*
X6315508Y-12453598D01*
X6382221Y-12353754D01*
X6428174Y-12242814D01*
X6451600Y-12125040D01*
X6451600Y-12031333D01*
X6527814Y-12016174D01*
X6638754Y-11970221D01*
X6738598Y-11903508D01*
X6823508Y-11818598D01*
X6890221Y-11718754D01*
X6936174Y-11607814D01*
X6959600Y-11490040D01*
X6959600Y-11369960D01*
X6936174Y-11252186D01*
X6890221Y-11141246D01*
X6828585Y-11049000D01*
X12420597Y-11049000D01*
X12420598Y-15452665D01*
%TA.AperFunction,Conductor*%
D19*
G36*
X12420598Y-15452665D02*
G01*
X10698309Y-17174955D01*
X10659208Y-17174955D01*
X10551249Y-17196429D01*
X10449554Y-17238553D01*
X10358031Y-17299707D01*
X10280197Y-17377541D01*
X10219043Y-17469064D01*
X10176919Y-17570759D01*
X10155445Y-17678718D01*
X10155445Y-17788792D01*
X10176919Y-17896751D01*
X10219043Y-17998446D01*
X10280197Y-18089969D01*
X10358031Y-18167803D01*
X10449554Y-18228957D01*
X10551249Y-18271081D01*
X10659208Y-18292555D01*
X10769282Y-18292555D01*
X10877241Y-18271081D01*
X10978936Y-18228957D01*
X11070459Y-18167803D01*
X11148293Y-18089969D01*
X11209447Y-17998446D01*
X11251571Y-17896751D01*
X11273045Y-17788792D01*
X11273045Y-17749691D01*
X13080240Y-15942497D01*
X13087145Y-15948163D01*
X13494925Y-16355943D01*
X13472832Y-16351549D01*
X13352752Y-16351549D01*
X13234978Y-16374975D01*
X13124038Y-16420928D01*
X13024194Y-16487641D01*
X12939284Y-16572551D01*
X12872571Y-16672395D01*
X12826618Y-16783335D01*
X12803192Y-16901109D01*
X12803192Y-17021189D01*
X12826618Y-17138963D01*
X12872571Y-17249903D01*
X12939284Y-17349747D01*
X13024194Y-17434657D01*
X13124038Y-17501370D01*
X13234978Y-17547323D01*
X13352752Y-17570749D01*
X13472832Y-17570749D01*
X13590606Y-17547323D01*
X13701546Y-17501370D01*
X13801390Y-17434657D01*
X13886300Y-17349747D01*
X13953013Y-17249903D01*
X13998966Y-17138963D01*
X14022392Y-17021189D01*
X14022392Y-16901109D01*
X14017998Y-16879016D01*
X14732002Y-17593021D01*
X14732001Y-17994696D01*
X13809534Y-18917164D01*
X13691710Y-18917164D01*
X13664062Y-18889516D01*
X13572539Y-18828362D01*
X13470844Y-18786238D01*
X13362885Y-18764764D01*
X13252811Y-18764764D01*
X13144852Y-18786238D01*
X13043157Y-18828362D01*
X12951634Y-18889516D01*
X12873800Y-18967350D01*
X12812646Y-19058873D01*
X12770522Y-19160568D01*
X12749048Y-19268527D01*
X12749048Y-19378601D01*
X12770522Y-19486560D01*
X12812646Y-19588255D01*
X12873800Y-19679778D01*
X12951634Y-19757612D01*
X13043157Y-19818766D01*
X13144852Y-19860890D01*
X13238879Y-19879593D01*
X13173246Y-19906779D01*
X13073402Y-19973492D01*
X12988492Y-20058402D01*
X12921779Y-20158246D01*
X12875826Y-20269186D01*
X12852400Y-20386960D01*
X12852400Y-20507040D01*
X12875826Y-20624814D01*
X12921779Y-20735754D01*
X12988492Y-20835598D01*
X13073402Y-20920508D01*
X13173246Y-20987221D01*
X13284186Y-21033174D01*
X13401960Y-21056600D01*
X13522040Y-21056600D01*
X13639814Y-21033174D01*
X13750754Y-20987221D01*
X13850598Y-20920508D01*
X13886487Y-20884619D01*
X13916952Y-20930214D01*
X13994786Y-21008048D01*
X14086309Y-21069202D01*
X14188004Y-21111326D01*
X14295963Y-21132800D01*
X14406037Y-21132800D01*
X14513996Y-21111326D01*
X14615691Y-21069202D01*
X14707214Y-21008048D01*
X14785048Y-20930214D01*
X14846202Y-20838691D01*
X14888326Y-20736996D01*
X14909800Y-20629037D01*
X14909800Y-20518963D01*
X15062200Y-20518963D01*
X15062200Y-20629037D01*
X15083674Y-20736996D01*
X15125798Y-20838691D01*
X15186952Y-20930214D01*
X15264786Y-21008048D01*
X15356309Y-21069202D01*
X15458004Y-21111326D01*
X15565963Y-21132800D01*
X15676037Y-21132800D01*
X15783996Y-21111326D01*
X15885691Y-21069202D01*
X15977214Y-21008048D01*
X16055048Y-20930214D01*
X16116202Y-20838691D01*
X16158326Y-20736996D01*
X16179800Y-20629037D01*
X16179800Y-20518963D01*
X16234547Y-20518963D01*
X16234547Y-20629037D01*
X16256021Y-20736996D01*
X16298145Y-20838691D01*
X16359299Y-20930214D01*
X16437133Y-21008048D01*
X16528656Y-21069202D01*
X16630351Y-21111326D01*
X16738310Y-21132800D01*
X16848384Y-21132800D01*
X16956343Y-21111326D01*
X17058038Y-21069202D01*
X17149561Y-21008048D01*
X17223174Y-20934436D01*
X17296786Y-21008048D01*
X17388309Y-21069202D01*
X17490004Y-21111326D01*
X17597963Y-21132800D01*
X17708037Y-21132800D01*
X17815996Y-21111326D01*
X17917691Y-21069202D01*
X18009214Y-21008048D01*
X18034000Y-20983262D01*
X18058786Y-21008048D01*
X18150309Y-21069202D01*
X18252004Y-21111326D01*
X18359963Y-21132800D01*
X18470037Y-21132800D01*
X18577996Y-21111326D01*
X18679691Y-21069202D01*
X18771214Y-21008048D01*
X18849048Y-20930214D01*
X18910202Y-20838691D01*
X18952326Y-20736996D01*
X18973800Y-20629037D01*
X18973800Y-20518963D01*
X18952326Y-20411004D01*
X18918136Y-20328463D01*
X23380700Y-20328463D01*
X23380700Y-20438537D01*
X23402174Y-20546496D01*
X23444298Y-20648191D01*
X23505452Y-20739714D01*
X23583286Y-20817548D01*
X23674809Y-20878702D01*
X23776504Y-20920826D01*
X23884463Y-20942300D01*
X23994537Y-20942300D01*
X24102496Y-20920826D01*
X24204191Y-20878702D01*
X24295714Y-20817548D01*
X24373548Y-20739714D01*
X24434702Y-20648191D01*
X24476826Y-20546496D01*
X24498300Y-20438537D01*
X24498300Y-20328463D01*
X24476826Y-20220504D01*
X24434702Y-20118809D01*
X24373548Y-20027286D01*
X24295714Y-19949452D01*
X24204191Y-19888298D01*
X24102496Y-19846174D01*
X23994537Y-19824700D01*
X23884463Y-19824700D01*
X23776504Y-19846174D01*
X23674809Y-19888298D01*
X23583286Y-19949452D01*
X23505452Y-20027286D01*
X23444298Y-20118809D01*
X23402174Y-20220504D01*
X23380700Y-20328463D01*
X18918136Y-20328463D01*
X18910202Y-20309309D01*
X18849048Y-20217786D01*
X18771214Y-20139952D01*
X18693059Y-20087730D01*
X18781291Y-20051183D01*
X18872814Y-19990029D01*
X18950648Y-19912195D01*
X19011802Y-19820672D01*
X19053926Y-19718977D01*
X19075400Y-19611018D01*
X19075400Y-19500944D01*
X19053926Y-19392985D01*
X19011802Y-19291290D01*
X18950648Y-19199767D01*
X18872814Y-19121933D01*
X18781291Y-19060779D01*
X18679596Y-19018655D01*
X18571637Y-18997181D01*
X18461563Y-18997181D01*
X18353604Y-19018655D01*
X18251909Y-19060779D01*
X18160386Y-19121933D01*
X18082552Y-19199767D01*
X18021398Y-19291290D01*
X17979274Y-19392985D01*
X17957800Y-19500944D01*
X17957800Y-19611018D01*
X17979274Y-19718977D01*
X18021398Y-19820672D01*
X18082552Y-19912195D01*
X18160386Y-19990029D01*
X18238541Y-20042251D01*
X18150309Y-20078798D01*
X18058786Y-20139952D01*
X18034000Y-20164738D01*
X18009214Y-20139952D01*
X17917691Y-20078798D01*
X17815996Y-20036674D01*
X17708037Y-20015200D01*
X17597963Y-20015200D01*
X17490004Y-20036674D01*
X17388309Y-20078798D01*
X17296786Y-20139952D01*
X17223174Y-20213565D01*
X17149561Y-20139952D01*
X17058038Y-20078798D01*
X16956343Y-20036674D01*
X16848384Y-20015200D01*
X16738310Y-20015200D01*
X16630351Y-20036674D01*
X16528656Y-20078798D01*
X16437133Y-20139952D01*
X16359299Y-20217786D01*
X16298145Y-20309309D01*
X16256021Y-20411004D01*
X16234547Y-20518963D01*
X16179800Y-20518963D01*
X16158326Y-20411004D01*
X16116202Y-20309309D01*
X16055048Y-20217786D01*
X15977214Y-20139952D01*
X15885691Y-20078798D01*
X15783996Y-20036674D01*
X15676037Y-20015200D01*
X15565963Y-20015200D01*
X15458004Y-20036674D01*
X15356309Y-20078798D01*
X15264786Y-20139952D01*
X15186952Y-20217786D01*
X15125798Y-20309309D01*
X15083674Y-20411004D01*
X15062200Y-20518963D01*
X14909800Y-20518963D01*
X14888326Y-20411004D01*
X14846202Y-20309309D01*
X14785048Y-20217786D01*
X14707214Y-20139952D01*
X14615691Y-20078798D01*
X14569442Y-20059641D01*
X14569442Y-19980482D01*
X14547968Y-19872523D01*
X14505844Y-19770828D01*
X14444690Y-19679305D01*
X14366856Y-19601471D01*
X14311612Y-19564558D01*
X15008207Y-18867963D01*
X21920200Y-18867963D01*
X21920200Y-18978037D01*
X21941674Y-19085996D01*
X21983798Y-19187691D01*
X22044952Y-19279214D01*
X22122786Y-19357048D01*
X22214309Y-19418202D01*
X22316004Y-19460326D01*
X22423963Y-19481800D01*
X22534037Y-19481800D01*
X22641996Y-19460326D01*
X22743691Y-19418202D01*
X22835214Y-19357048D01*
X22913048Y-19279214D01*
X22974202Y-19187691D01*
X23016326Y-19085996D01*
X23037800Y-18978037D01*
X23037800Y-18867963D01*
X23016326Y-18760004D01*
X22974202Y-18658309D01*
X22913048Y-18566786D01*
X22835214Y-18488952D01*
X22743691Y-18427798D01*
X22641996Y-18385674D01*
X22534037Y-18364200D01*
X22423963Y-18364200D01*
X22316004Y-18385674D01*
X22214309Y-18427798D01*
X22122786Y-18488952D01*
X22044952Y-18566786D01*
X21983798Y-18658309D01*
X21941674Y-18760004D01*
X21920200Y-18867963D01*
X15008207Y-18867963D01*
X15411662Y-18464509D01*
X15427159Y-18451791D01*
X15439878Y-18436293D01*
X15439883Y-18436288D01*
X15457118Y-18415287D01*
X15477945Y-18389909D01*
X15493877Y-18360103D01*
X15586246Y-18421821D01*
X15697186Y-18467774D01*
X15814960Y-18491200D01*
X15935040Y-18491200D01*
X16052814Y-18467774D01*
X16163754Y-18421821D01*
X16263598Y-18355108D01*
X16348508Y-18270198D01*
X16415221Y-18170354D01*
X16461174Y-18059414D01*
X16484600Y-17941640D01*
X16484600Y-17821560D01*
X16461174Y-17703786D01*
X16415221Y-17592846D01*
X16348508Y-17493002D01*
X16263598Y-17408092D01*
X16163754Y-17341379D01*
X16052814Y-17295426D01*
X15935040Y-17272000D01*
X15814960Y-17272000D01*
X15697186Y-17295426D01*
X15586246Y-17341379D01*
X15541506Y-17371273D01*
X15538920Y-17345015D01*
X15515682Y-17268408D01*
X15477945Y-17197807D01*
X15457118Y-17172429D01*
X15439883Y-17151428D01*
X15439878Y-17151423D01*
X15427159Y-17135925D01*
X15411661Y-17123206D01*
X14895447Y-16606992D01*
X14961214Y-16563048D01*
X15039048Y-16485214D01*
X15100202Y-16393691D01*
X15142326Y-16291996D01*
X15163800Y-16184037D01*
X15163800Y-16073963D01*
X15142326Y-15966004D01*
X15118697Y-15908959D01*
X15137786Y-15928048D01*
X15229309Y-15989202D01*
X15331004Y-16031326D01*
X15438963Y-16052800D01*
X15549037Y-16052800D01*
X15656996Y-16031326D01*
X15758691Y-15989202D01*
X15850214Y-15928048D01*
X15855763Y-15922499D01*
X17230664Y-17297400D01*
X17211960Y-17297400D01*
X17094186Y-17320826D01*
X16983246Y-17366779D01*
X16883402Y-17433492D01*
X16798492Y-17518402D01*
X16731779Y-17618246D01*
X16685826Y-17729186D01*
X16662400Y-17846960D01*
X16662400Y-17967040D01*
X16685826Y-18084814D01*
X16731779Y-18195754D01*
X16798492Y-18295598D01*
X16883402Y-18380508D01*
X16983246Y-18447221D01*
X17094186Y-18493174D01*
X17211960Y-18516600D01*
X17332040Y-18516600D01*
X17449814Y-18493174D01*
X17560754Y-18447221D01*
X17660598Y-18380508D01*
X17745508Y-18295598D01*
X17812221Y-18195754D01*
X17858174Y-18084814D01*
X17881600Y-17967040D01*
X17881600Y-17860306D01*
X17890956Y-17863144D01*
X17898960Y-17863932D01*
X17950665Y-17869025D01*
X17950671Y-17869025D01*
X17969630Y-17870892D01*
X17995411Y-17896673D01*
X18086934Y-17957827D01*
X18188629Y-17999951D01*
X18296588Y-18021425D01*
X18406662Y-18021425D01*
X18514621Y-17999951D01*
X18616316Y-17957827D01*
X18707839Y-17896673D01*
X18785673Y-17818839D01*
X18846827Y-17727316D01*
X18888951Y-17625621D01*
X18910425Y-17517662D01*
X18910425Y-17407588D01*
X18888951Y-17299629D01*
X18846827Y-17197934D01*
X18785673Y-17106411D01*
X18707839Y-17028577D01*
X18616316Y-16967423D01*
X18514621Y-16925299D01*
X18406662Y-16903825D01*
X18296588Y-16903825D01*
X18188629Y-16925299D01*
X18086934Y-16967423D01*
X18064889Y-16982153D01*
X17262350Y-16179614D01*
X17306754Y-16161221D01*
X17406598Y-16094508D01*
X17491508Y-16009598D01*
X17558221Y-15909754D01*
X17604174Y-15798814D01*
X17627600Y-15681040D01*
X17627600Y-15560960D01*
X17604174Y-15443186D01*
X17558221Y-15332246D01*
X17491508Y-15232402D01*
X17406598Y-15147492D01*
X17306754Y-15080779D01*
X17195814Y-15034826D01*
X17078040Y-15011400D01*
X16957960Y-15011400D01*
X16840186Y-15034826D01*
X16729246Y-15080779D01*
X16629402Y-15147492D01*
X16544492Y-15232402D01*
X16477779Y-15332246D01*
X16459386Y-15376650D01*
X16303482Y-15220746D01*
X16290758Y-15205242D01*
X16228876Y-15154456D01*
X16158275Y-15116719D01*
X16081668Y-15093481D01*
X16021960Y-15087600D01*
X16021953Y-15087600D01*
X16002000Y-15085635D01*
X15982047Y-15087600D01*
X15877862Y-15087600D01*
X15850214Y-15059952D01*
X15758691Y-14998798D01*
X15656996Y-14956674D01*
X15549037Y-14935200D01*
X15438963Y-14935200D01*
X15331004Y-14956674D01*
X15229309Y-14998798D01*
X15137786Y-15059952D01*
X15059952Y-15137786D01*
X14998798Y-15229309D01*
X14956674Y-15331004D01*
X14935200Y-15438963D01*
X14935200Y-15549037D01*
X14956674Y-15656996D01*
X14980303Y-15714041D01*
X14961214Y-15694952D01*
X14869691Y-15633798D01*
X14767996Y-15591674D01*
X14676260Y-15573427D01*
X14669939Y-15541649D01*
X14627815Y-15439954D01*
X14566661Y-15348431D01*
X14488827Y-15270597D01*
X14397304Y-15209443D01*
X14295609Y-15167319D01*
X14187650Y-15145845D01*
X14077576Y-15145845D01*
X13969617Y-15167319D01*
X13867922Y-15209443D01*
X13776399Y-15270597D01*
X13766799Y-15280197D01*
X13766799Y-13381590D01*
X13787963Y-13385800D01*
X13898037Y-13385800D01*
X14005996Y-13364326D01*
X14107691Y-13322202D01*
X14199214Y-13261048D01*
X14277048Y-13183214D01*
X14338202Y-13091691D01*
X14380326Y-12989996D01*
X14401800Y-12882037D01*
X14401800Y-12771963D01*
X14380326Y-12664004D01*
X14338202Y-12562309D01*
X14277048Y-12470786D01*
X14199214Y-12392952D01*
X14107691Y-12331798D01*
X14005996Y-12289674D01*
X13898037Y-12268200D01*
X13787963Y-12268200D01*
X13766799Y-12272410D01*
X13766799Y-11049000D01*
X13928528Y-11049000D01*
X17881600Y-15002073D01*
X17881600Y-15093047D01*
X17879635Y-15113000D01*
X17881600Y-15132953D01*
X17881600Y-15132960D01*
X17887481Y-15192668D01*
X17910719Y-15269275D01*
X17948457Y-15339876D01*
X17955478Y-15348431D01*
X17986518Y-15386254D01*
X17986524Y-15386260D01*
X17999243Y-15401758D01*
X18014741Y-15414477D01*
X18307833Y-15707569D01*
X18252004Y-15718674D01*
X18150309Y-15760798D01*
X18058786Y-15821952D01*
X17980952Y-15899786D01*
X17919798Y-15991309D01*
X17877674Y-16093004D01*
X17856200Y-16200963D01*
X17856200Y-16311037D01*
X17877674Y-16418996D01*
X17919798Y-16520691D01*
X17980952Y-16612214D01*
X18058786Y-16690048D01*
X18150309Y-16751202D01*
X18252004Y-16793326D01*
X18359963Y-16814800D01*
X18470037Y-16814800D01*
X18577996Y-16793326D01*
X18679691Y-16751202D01*
X18771214Y-16690048D01*
X18849048Y-16612214D01*
X18910202Y-16520691D01*
X18952326Y-16418996D01*
X18973800Y-16311037D01*
X18973800Y-16200963D01*
X18952326Y-16093004D01*
X18938038Y-16058510D01*
X20488282Y-17608754D01*
X20501006Y-17624258D01*
X20562888Y-17675044D01*
X20633489Y-17712781D01*
X20687570Y-17729186D01*
X20702268Y-17733645D01*
X20671674Y-17807504D01*
X20650200Y-17915463D01*
X20650200Y-18025537D01*
X20671674Y-18133496D01*
X20713798Y-18235191D01*
X20774952Y-18326714D01*
X20852786Y-18404548D01*
X20944309Y-18465702D01*
X21046004Y-18507826D01*
X21153963Y-18529300D01*
X21264037Y-18529300D01*
X21371996Y-18507826D01*
X21473691Y-18465702D01*
X21565214Y-18404548D01*
X21643048Y-18326714D01*
X21704202Y-18235191D01*
X21746326Y-18133496D01*
X21757831Y-18075655D01*
X21964856Y-17868630D01*
X21980359Y-17855907D01*
X22031145Y-17794025D01*
X22068882Y-17723424D01*
X22079173Y-17689500D01*
X22092120Y-17646818D01*
X22094368Y-17623992D01*
X22098001Y-17587109D01*
X22098001Y-17587102D01*
X22099966Y-17567149D01*
X22098001Y-17547196D01*
X22098001Y-17123804D01*
X22099966Y-17103851D01*
X22098001Y-17083898D01*
X22098001Y-17083891D01*
X22092120Y-17024183D01*
X22092115Y-17024164D01*
X22068882Y-16947576D01*
X22062150Y-16934981D01*
X22031145Y-16876975D01*
X21980359Y-16815093D01*
X21964855Y-16802369D01*
X21817539Y-16655053D01*
X21830944Y-16634990D01*
X21873068Y-16533295D01*
X21875527Y-16520931D01*
X21967336Y-16582276D01*
X22086502Y-16631636D01*
X22213008Y-16656800D01*
X22341992Y-16656800D01*
X22468498Y-16631636D01*
X22587664Y-16582276D01*
X22694910Y-16510616D01*
X22786116Y-16419410D01*
X22857776Y-16312164D01*
X22907136Y-16192998D01*
X22932300Y-16066492D01*
X22932300Y-15937508D01*
X23422700Y-15937508D01*
X23422700Y-16066492D01*
X23447864Y-16192998D01*
X23497224Y-16312164D01*
X23568884Y-16419410D01*
X23660090Y-16510616D01*
X23767336Y-16582276D01*
X23886502Y-16631636D01*
X24013008Y-16656800D01*
X24141992Y-16656800D01*
X24268498Y-16631636D01*
X24387664Y-16582276D01*
X24494910Y-16510616D01*
X24586116Y-16419410D01*
X24657776Y-16312164D01*
X24707136Y-16192998D01*
X24732300Y-16066492D01*
X24732300Y-15937508D01*
X24707136Y-15811002D01*
X24657776Y-15691836D01*
X24586116Y-15584590D01*
X24494910Y-15493384D01*
X24387664Y-15421724D01*
X24268498Y-15372364D01*
X24141992Y-15347200D01*
X24013008Y-15347200D01*
X23886502Y-15372364D01*
X23767336Y-15421724D01*
X23660090Y-15493384D01*
X23568884Y-15584590D01*
X23497224Y-15691836D01*
X23447864Y-15811002D01*
X23422700Y-15937508D01*
X22932300Y-15937508D01*
X22907136Y-15811002D01*
X22857776Y-15691836D01*
X22786116Y-15584590D01*
X22694910Y-15493384D01*
X22587664Y-15421724D01*
X22468498Y-15372364D01*
X22341992Y-15347200D01*
X22213008Y-15347200D01*
X22086502Y-15372364D01*
X21967336Y-15421724D01*
X21860090Y-15493384D01*
X21768884Y-15584590D01*
X21697224Y-15691836D01*
X21647864Y-15811002D01*
X21631046Y-15895552D01*
X21600433Y-15875097D01*
X21498738Y-15832973D01*
X21390779Y-15811499D01*
X21280705Y-15811499D01*
X21172746Y-15832973D01*
X21071051Y-15875097D01*
X20979528Y-15936251D01*
X20901694Y-16014085D01*
X20840540Y-16105608D01*
X20798416Y-16207303D01*
X20782634Y-16286647D01*
X19757752Y-15261766D01*
X19776004Y-15269326D01*
X19883963Y-15290800D01*
X19994037Y-15290800D01*
X20101996Y-15269326D01*
X20203691Y-15227202D01*
X20295214Y-15166048D01*
X20373048Y-15088214D01*
X20434202Y-14996691D01*
X20476326Y-14894996D01*
X20497800Y-14787037D01*
X20497800Y-14676963D01*
X20476326Y-14569004D01*
X20434202Y-14467309D01*
X20373048Y-14375786D01*
X20295214Y-14297952D01*
X20203691Y-14236798D01*
X20101996Y-14194674D01*
X19994037Y-14173200D01*
X19883963Y-14173200D01*
X19776004Y-14194674D01*
X19674309Y-14236798D01*
X19582786Y-14297952D01*
X19558000Y-14322738D01*
X19533214Y-14297952D01*
X19441691Y-14236798D01*
X19339996Y-14194674D01*
X19232037Y-14173200D01*
X19121963Y-14173200D01*
X19014004Y-14194674D01*
X18912309Y-14236798D01*
X18820786Y-14297952D01*
X18807362Y-14311376D01*
X17267949Y-12771963D01*
X18491200Y-12771963D01*
X18491200Y-12882037D01*
X18512674Y-12989996D01*
X18554798Y-13091691D01*
X18615952Y-13183214D01*
X18640738Y-13208000D01*
X18615952Y-13232786D01*
X18554798Y-13324309D01*
X18512674Y-13426004D01*
X18491200Y-13533963D01*
X18491200Y-13644037D01*
X18512674Y-13751996D01*
X18554798Y-13853691D01*
X18615952Y-13945214D01*
X18693786Y-14023048D01*
X18785309Y-14084202D01*
X18887004Y-14126326D01*
X18994963Y-14147800D01*
X19105037Y-14147800D01*
X19212996Y-14126326D01*
X19314691Y-14084202D01*
X19406214Y-14023048D01*
X19484048Y-13945214D01*
X19545202Y-13853691D01*
X19587326Y-13751996D01*
X19608800Y-13644037D01*
X19608800Y-13533963D01*
X19587326Y-13426004D01*
X19545202Y-13324309D01*
X19484048Y-13232786D01*
X19459262Y-13208000D01*
X19484048Y-13183214D01*
X19545202Y-13091691D01*
X19572427Y-13025963D01*
X20904200Y-13025963D01*
X20904200Y-13136037D01*
X20925674Y-13243996D01*
X20967798Y-13345691D01*
X21028952Y-13437214D01*
X21106786Y-13515048D01*
X21198309Y-13576202D01*
X21300004Y-13618326D01*
X21407963Y-13639800D01*
X21518037Y-13639800D01*
X21625996Y-13618326D01*
X21727691Y-13576202D01*
X21819214Y-13515048D01*
X21897048Y-13437214D01*
X21958202Y-13345691D01*
X22000326Y-13243996D01*
X22021800Y-13136037D01*
X22021800Y-13025963D01*
X22000326Y-12918004D01*
X21958202Y-12816309D01*
X21897048Y-12724786D01*
X21819214Y-12646952D01*
X21808750Y-12639960D01*
X23012400Y-12639960D01*
X23012400Y-12760040D01*
X23035826Y-12877814D01*
X23081779Y-12988754D01*
X23148492Y-13088598D01*
X23233402Y-13173508D01*
X23333246Y-13240221D01*
X23444186Y-13286174D01*
X23561960Y-13309600D01*
X23682040Y-13309600D01*
X23799814Y-13286174D01*
X23910754Y-13240221D01*
X23939500Y-13221014D01*
X23968246Y-13240221D01*
X24079186Y-13286174D01*
X24196960Y-13309600D01*
X24317040Y-13309600D01*
X24434814Y-13286174D01*
X24545754Y-13240221D01*
X24645598Y-13173508D01*
X24730508Y-13088598D01*
X24797221Y-12988754D01*
X24843174Y-12877814D01*
X24866600Y-12760040D01*
X24866600Y-12639960D01*
X24843174Y-12522186D01*
X24797221Y-12411246D01*
X24730508Y-12311402D01*
X24645598Y-12226492D01*
X24545754Y-12159779D01*
X24434814Y-12113826D01*
X24317040Y-12090400D01*
X24196960Y-12090400D01*
X24079186Y-12113826D01*
X23968246Y-12159779D01*
X23939500Y-12178986D01*
X23910754Y-12159779D01*
X23799814Y-12113826D01*
X23682040Y-12090400D01*
X23561960Y-12090400D01*
X23444186Y-12113826D01*
X23333246Y-12159779D01*
X23233402Y-12226492D01*
X23148492Y-12311402D01*
X23081779Y-12411246D01*
X23035826Y-12522186D01*
X23012400Y-12639960D01*
X21808750Y-12639960D01*
X21727691Y-12585798D01*
X21625996Y-12543674D01*
X21518037Y-12522200D01*
X21407963Y-12522200D01*
X21300004Y-12543674D01*
X21198309Y-12585798D01*
X21106786Y-12646952D01*
X21028952Y-12724786D01*
X20967798Y-12816309D01*
X20925674Y-12918004D01*
X20904200Y-13025963D01*
X19572427Y-13025963D01*
X19587326Y-12989996D01*
X19608800Y-12882037D01*
X19608800Y-12771963D01*
X19587326Y-12664004D01*
X19545202Y-12562309D01*
X19484048Y-12470786D01*
X19406214Y-12392952D01*
X19314691Y-12331798D01*
X19212996Y-12289674D01*
X19105037Y-12268200D01*
X18994963Y-12268200D01*
X18887004Y-12289674D01*
X18785309Y-12331798D01*
X18693786Y-12392952D01*
X18615952Y-12470786D01*
X18554798Y-12562309D01*
X18512674Y-12664004D01*
X18491200Y-12771963D01*
X17267949Y-12771963D01*
X15773400Y-11277414D01*
X15773400Y-11049000D01*
X19003383Y-11049000D01*
X18971826Y-11125186D01*
X18948400Y-11242960D01*
X18948400Y-11363040D01*
X18971826Y-11480814D01*
X19017779Y-11591754D01*
X19084492Y-11691598D01*
X19169402Y-11776508D01*
X19269246Y-11843221D01*
X19380186Y-11889174D01*
X19497960Y-11912600D01*
X19618040Y-11912600D01*
X19735814Y-11889174D01*
X19846754Y-11843221D01*
X19946598Y-11776508D01*
X20031508Y-11691598D01*
X20098221Y-11591754D01*
X20144174Y-11480814D01*
X20167600Y-11363040D01*
X20167600Y-11242960D01*
X20161791Y-11213753D01*
X20222846Y-11246388D01*
X20402827Y-11300984D01*
X20543103Y-11314800D01*
X21294360Y-11314800D01*
X21330799Y-11359201D01*
X21386347Y-11404788D01*
X21449722Y-11438662D01*
X21518487Y-11459522D01*
X21590000Y-11466565D01*
X21607921Y-11464800D01*
X23172079Y-11464800D01*
X23190000Y-11466565D01*
X23207921Y-11464800D01*
X23261513Y-11459522D01*
X23330278Y-11438662D01*
X23393653Y-11404788D01*
X23449201Y-11359201D01*
X23494788Y-11303653D01*
X23528662Y-11240278D01*
X23549522Y-11171513D01*
X23556565Y-11100000D01*
X23554800Y-11082079D01*
X23554800Y-11049000D01*
X25035200Y-11049000D01*
X25035201Y-12717921D01*
X25040479Y-12771513D01*
X25061339Y-12840278D01*
X25070200Y-12856856D01*
X25070201Y-25070200D01*
X329800Y-25070200D01*
X329800Y-22917789D01*
X579200Y-22917789D01*
X579200Y-23654212D01*
X591931Y-23783471D01*
X642240Y-23949314D01*
X723935Y-24102155D01*
X833879Y-24236122D01*
X967846Y-24346066D01*
X1120687Y-24427761D01*
X1286530Y-24478069D01*
X1459000Y-24495056D01*
X1631471Y-24478069D01*
X1797314Y-24427761D01*
X1950155Y-24346066D01*
X2084122Y-24236122D01*
X2194066Y-24102155D01*
X2275761Y-23949314D01*
X2326069Y-23783471D01*
X2338800Y-23654212D01*
X2338800Y-22917789D01*
X8329200Y-22917789D01*
X8329200Y-23654212D01*
X8341931Y-23783471D01*
X8392240Y-23949314D01*
X8473935Y-24102155D01*
X8583879Y-24236122D01*
X8717846Y-24346066D01*
X8870687Y-24427761D01*
X9036530Y-24478069D01*
X9209000Y-24495056D01*
X9381471Y-24478069D01*
X9547314Y-24427761D01*
X9700155Y-24346066D01*
X9834122Y-24236122D01*
X9944066Y-24102155D01*
X10025761Y-23949314D01*
X10076069Y-23783471D01*
X10088800Y-23654212D01*
X10088800Y-23498460D01*
X11772900Y-23498460D01*
X11772900Y-23618540D01*
X11796326Y-23736314D01*
X11842279Y-23847254D01*
X11908992Y-23947098D01*
X11993902Y-24032008D01*
X12093746Y-24098721D01*
X12204686Y-24144674D01*
X12322460Y-24168100D01*
X12442540Y-24168100D01*
X12560314Y-24144674D01*
X12671254Y-24098721D01*
X12771098Y-24032008D01*
X12856008Y-23947098D01*
X12922721Y-23847254D01*
X12968674Y-23736314D01*
X12992100Y-23618540D01*
X12992100Y-23498460D01*
X12968674Y-23380686D01*
X12940623Y-23312963D01*
X13960600Y-23312963D01*
X13960600Y-23423037D01*
X13982074Y-23530996D01*
X14024198Y-23632691D01*
X14085352Y-23724214D01*
X14163186Y-23802048D01*
X14254709Y-23863202D01*
X14356404Y-23905326D01*
X14464363Y-23926800D01*
X14574437Y-23926800D01*
X14682396Y-23905326D01*
X14784091Y-23863202D01*
X14875000Y-23802458D01*
X14965909Y-23863202D01*
X15067604Y-23905326D01*
X15175563Y-23926800D01*
X15285637Y-23926800D01*
X15393596Y-23905326D01*
X15495291Y-23863202D01*
X15586814Y-23802048D01*
X15664648Y-23724214D01*
X15725802Y-23632691D01*
X15753027Y-23566963D01*
X18364200Y-23566963D01*
X18364200Y-23677037D01*
X18385674Y-23784996D01*
X18427798Y-23886691D01*
X18488952Y-23978214D01*
X18566786Y-24056048D01*
X18658309Y-24117202D01*
X18760004Y-24159326D01*
X18867963Y-24180800D01*
X18978037Y-24180800D01*
X19085996Y-24159326D01*
X19187691Y-24117202D01*
X19279214Y-24056048D01*
X19357048Y-23978214D01*
X19418202Y-23886691D01*
X19460326Y-23784996D01*
X19481800Y-23677037D01*
X19481800Y-23660100D01*
X19554540Y-23660100D01*
X19672314Y-23636674D01*
X19783254Y-23590721D01*
X19883098Y-23524008D01*
X19968008Y-23439098D01*
X20034721Y-23339254D01*
X20047683Y-23307960D01*
X22631400Y-23307960D01*
X22631400Y-23428040D01*
X22654826Y-23545814D01*
X22700779Y-23656754D01*
X22767492Y-23756598D01*
X22852402Y-23841508D01*
X22952246Y-23908221D01*
X23063186Y-23954174D01*
X23180960Y-23977600D01*
X23301040Y-23977600D01*
X23418814Y-23954174D01*
X23529754Y-23908221D01*
X23629598Y-23841508D01*
X23714508Y-23756598D01*
X23781221Y-23656754D01*
X23827174Y-23545814D01*
X23850600Y-23428040D01*
X23850600Y-23307960D01*
X23827174Y-23190186D01*
X23781221Y-23079246D01*
X23714508Y-22979402D01*
X23629598Y-22894492D01*
X23529754Y-22827779D01*
X23418814Y-22781826D01*
X23301040Y-22758400D01*
X23180960Y-22758400D01*
X23063186Y-22781826D01*
X22952246Y-22827779D01*
X22852402Y-22894492D01*
X22767492Y-22979402D01*
X22700779Y-23079246D01*
X22654826Y-23190186D01*
X22631400Y-23307960D01*
X20047683Y-23307960D01*
X20080674Y-23228314D01*
X20104100Y-23110540D01*
X20104100Y-22990460D01*
X20080674Y-22872686D01*
X20034721Y-22761746D01*
X19968008Y-22661902D01*
X19883098Y-22576992D01*
X19783254Y-22510279D01*
X19672314Y-22464326D01*
X19554540Y-22440900D01*
X19434460Y-22440900D01*
X19316686Y-22464326D01*
X19205746Y-22510279D01*
X19105902Y-22576992D01*
X19020992Y-22661902D01*
X18954279Y-22761746D01*
X18908326Y-22872686D01*
X18884900Y-22990460D01*
X18884900Y-23063200D01*
X18867963Y-23063200D01*
X18760004Y-23084674D01*
X18658309Y-23126798D01*
X18566786Y-23187952D01*
X18488952Y-23265786D01*
X18427798Y-23357309D01*
X18385674Y-23459004D01*
X18364200Y-23566963D01*
X15753027Y-23566963D01*
X15767926Y-23530996D01*
X15789400Y-23423037D01*
X15789400Y-23312963D01*
X15767926Y-23205004D01*
X15725802Y-23103309D01*
X15664648Y-23011786D01*
X15586814Y-22933952D01*
X15495291Y-22872798D01*
X15393596Y-22830674D01*
X15285637Y-22809200D01*
X15175563Y-22809200D01*
X15067604Y-22830674D01*
X14965909Y-22872798D01*
X14875000Y-22933542D01*
X14784091Y-22872798D01*
X14682396Y-22830674D01*
X14574437Y-22809200D01*
X14464363Y-22809200D01*
X14356404Y-22830674D01*
X14254709Y-22872798D01*
X14163186Y-22933952D01*
X14085352Y-23011786D01*
X14024198Y-23103309D01*
X13982074Y-23205004D01*
X13960600Y-23312963D01*
X12940623Y-23312963D01*
X12922721Y-23269746D01*
X12856008Y-23169902D01*
X12771098Y-23084992D01*
X12671254Y-23018279D01*
X12560314Y-22972326D01*
X12442540Y-22948900D01*
X12322460Y-22948900D01*
X12204686Y-22972326D01*
X12093746Y-23018279D01*
X11993902Y-23084992D01*
X11908992Y-23169902D01*
X11842279Y-23269746D01*
X11796326Y-23380686D01*
X11772900Y-23498460D01*
X10088800Y-23498460D01*
X10088800Y-22917788D01*
X10076069Y-22788529D01*
X10025761Y-22622686D01*
X9944066Y-22469845D01*
X9834122Y-22335878D01*
X9700154Y-22225934D01*
X9547313Y-22144239D01*
X9381470Y-22093931D01*
X9209000Y-22076944D01*
X9036529Y-22093931D01*
X8870686Y-22144239D01*
X8717845Y-22225934D01*
X8583878Y-22335878D01*
X8473934Y-22469846D01*
X8392239Y-22622687D01*
X8341931Y-22788530D01*
X8329200Y-22917789D01*
X2338800Y-22917789D01*
X2338800Y-22917788D01*
X2326069Y-22788529D01*
X2275761Y-22622686D01*
X2194066Y-22469845D01*
X2084122Y-22335878D01*
X1950154Y-22225934D01*
X1797313Y-22144239D01*
X1631470Y-22093931D01*
X1459000Y-22076944D01*
X1286529Y-22093931D01*
X1120686Y-22144239D01*
X967845Y-22225934D01*
X833878Y-22335878D01*
X723934Y-22469846D01*
X642239Y-22622687D01*
X591931Y-22788530D01*
X579200Y-22917789D01*
X329800Y-22917789D01*
X329800Y-19160418D01*
X579200Y-19160418D01*
X579200Y-19811583D01*
X594101Y-19962876D01*
X652986Y-20156994D01*
X748611Y-20335894D01*
X877300Y-20492701D01*
X1034107Y-20621390D01*
X1213007Y-20717014D01*
X1407125Y-20775899D01*
X1609000Y-20795782D01*
X1810876Y-20775899D01*
X2004994Y-20717014D01*
X2137328Y-20646280D01*
X2156285Y-20741583D01*
X2209415Y-20869848D01*
X2286546Y-20985284D01*
X2384716Y-21083454D01*
X2500152Y-21160585D01*
X2628417Y-21213715D01*
X2764583Y-21240800D01*
X2903417Y-21240800D01*
X3039583Y-21213715D01*
X3167848Y-21160585D01*
X3261903Y-21097740D01*
X3269779Y-21116754D01*
X3336492Y-21216598D01*
X3421402Y-21301508D01*
X3521246Y-21368221D01*
X3632186Y-21414174D01*
X3749960Y-21437600D01*
X3870040Y-21437600D01*
X3987814Y-21414174D01*
X4098754Y-21368221D01*
X4198598Y-21301508D01*
X4283508Y-21216598D01*
X4350221Y-21116754D01*
X4396174Y-21005814D01*
X4419600Y-20888040D01*
X4419600Y-20767960D01*
X4396174Y-20650186D01*
X4350221Y-20539246D01*
X4301670Y-20466583D01*
X7129200Y-20466583D01*
X7129200Y-20605417D01*
X7156285Y-20741583D01*
X7209415Y-20869848D01*
X7286546Y-20985284D01*
X7384716Y-21083454D01*
X7500152Y-21160585D01*
X7628417Y-21213715D01*
X7764583Y-21240800D01*
X7903417Y-21240800D01*
X8039583Y-21213715D01*
X8167848Y-21160585D01*
X8283284Y-21083454D01*
X8381454Y-20985284D01*
X8458585Y-20869848D01*
X8511715Y-20741583D01*
X8530672Y-20646279D01*
X8663007Y-20717014D01*
X8857125Y-20775899D01*
X9059000Y-20795782D01*
X9260876Y-20775899D01*
X9454994Y-20717014D01*
X9512139Y-20686469D01*
X9824747Y-20686469D01*
X9824747Y-20796543D01*
X9846221Y-20904502D01*
X9888345Y-21006197D01*
X9949499Y-21097720D01*
X10027333Y-21175554D01*
X10071903Y-21205335D01*
X10043452Y-21233786D01*
X9982298Y-21325309D01*
X9940174Y-21427004D01*
X9918700Y-21534963D01*
X9918700Y-21645037D01*
X9940174Y-21752996D01*
X9982298Y-21854691D01*
X10043452Y-21946214D01*
X10121286Y-22024048D01*
X10212809Y-22085202D01*
X10314504Y-22127326D01*
X10422463Y-22148800D01*
X10532537Y-22148800D01*
X10640496Y-22127326D01*
X10742191Y-22085202D01*
X10833714Y-22024048D01*
X10911548Y-21946214D01*
X10972702Y-21854691D01*
X11014826Y-21752996D01*
X11036300Y-21645037D01*
X11036300Y-21534963D01*
X11014826Y-21427004D01*
X10978564Y-21339460D01*
X20599400Y-21339460D01*
X20599400Y-21459540D01*
X20622826Y-21577314D01*
X20668779Y-21688254D01*
X20735492Y-21788098D01*
X20820402Y-21873008D01*
X20920246Y-21939721D01*
X21031186Y-21985674D01*
X21148960Y-22009100D01*
X21269040Y-22009100D01*
X21386814Y-21985674D01*
X21497754Y-21939721D01*
X21597598Y-21873008D01*
X21682508Y-21788098D01*
X21749221Y-21688254D01*
X21795174Y-21577314D01*
X21818600Y-21459540D01*
X21818600Y-21339460D01*
X21795174Y-21221686D01*
X21749221Y-21110746D01*
X21682508Y-21010902D01*
X21597598Y-20925992D01*
X21497754Y-20859279D01*
X21386814Y-20813326D01*
X21269040Y-20789900D01*
X21148960Y-20789900D01*
X21031186Y-20813326D01*
X20920246Y-20859279D01*
X20820402Y-20925992D01*
X20735492Y-21010902D01*
X20668779Y-21110746D01*
X20622826Y-21221686D01*
X20599400Y-21339460D01*
X10978564Y-21339460D01*
X10972702Y-21325309D01*
X10911548Y-21233786D01*
X10833714Y-21155952D01*
X10789144Y-21126171D01*
X10817595Y-21097720D01*
X10878749Y-21006197D01*
X10920873Y-20904502D01*
X10942347Y-20796543D01*
X10942347Y-20686469D01*
X10920873Y-20578510D01*
X10878749Y-20476815D01*
X10817595Y-20385292D01*
X10739761Y-20307458D01*
X10648238Y-20246304D01*
X10546543Y-20204180D01*
X10438584Y-20182706D01*
X10328510Y-20182706D01*
X10220551Y-20204180D01*
X10118856Y-20246304D01*
X10027333Y-20307458D01*
X9949499Y-20385292D01*
X9888345Y-20476815D01*
X9846221Y-20578510D01*
X9824747Y-20686469D01*
X9512139Y-20686469D01*
X9633894Y-20621390D01*
X9790701Y-20492701D01*
X9919390Y-20335894D01*
X10015014Y-20156993D01*
X10073899Y-19962875D01*
X10088800Y-19811582D01*
X10088800Y-19160417D01*
X10073899Y-19009124D01*
X10015014Y-18815006D01*
X9919390Y-18636106D01*
X9790701Y-18479299D01*
X9633894Y-18350610D01*
X9454993Y-18254986D01*
X9260875Y-18196101D01*
X9059000Y-18176218D01*
X8857124Y-18196101D01*
X8663006Y-18254986D01*
X8484106Y-18350610D01*
X8327299Y-18479299D01*
X8198610Y-18636106D01*
X8102986Y-18815007D01*
X8044101Y-19009125D01*
X8029200Y-19160418D01*
X8029200Y-19811583D01*
X8033684Y-19857112D01*
X7903417Y-19831200D01*
X7764583Y-19831200D01*
X7628417Y-19858285D01*
X7500152Y-19911415D01*
X7384716Y-19988546D01*
X7286546Y-20086716D01*
X7209415Y-20202152D01*
X7156285Y-20330417D01*
X7129200Y-20466583D01*
X4301670Y-20466583D01*
X4283508Y-20439402D01*
X4198598Y-20354492D01*
X4098754Y-20287779D01*
X3987814Y-20241826D01*
X3870040Y-20218400D01*
X3749960Y-20218400D01*
X3632186Y-20241826D01*
X3521246Y-20287779D01*
X3499948Y-20302010D01*
X3458585Y-20202152D01*
X3381454Y-20086716D01*
X3283284Y-19988546D01*
X3167848Y-19911415D01*
X3039583Y-19858285D01*
X2903417Y-19831200D01*
X2764583Y-19831200D01*
X2634316Y-19857112D01*
X2638800Y-19811582D01*
X2638800Y-19160417D01*
X2623899Y-19009124D01*
X2565014Y-18815006D01*
X2469390Y-18636106D01*
X2340701Y-18479299D01*
X2183894Y-18350610D01*
X2004993Y-18254986D01*
X1810875Y-18196101D01*
X1609000Y-18176218D01*
X1407124Y-18196101D01*
X1213006Y-18254986D01*
X1034106Y-18350610D01*
X877299Y-18479299D01*
X748610Y-18636106D01*
X652986Y-18815007D01*
X594101Y-19009125D01*
X579200Y-19160418D01*
X329800Y-19160418D01*
X329800Y-18037460D01*
X4089400Y-18037460D01*
X4089400Y-18157540D01*
X4112826Y-18275314D01*
X4158779Y-18386254D01*
X4225492Y-18486098D01*
X4310402Y-18571008D01*
X4410246Y-18637721D01*
X4521186Y-18683674D01*
X4638960Y-18707100D01*
X4759040Y-18707100D01*
X4876814Y-18683674D01*
X4987754Y-18637721D01*
X5016500Y-18618514D01*
X5045246Y-18637721D01*
X5156186Y-18683674D01*
X5273960Y-18707100D01*
X5394040Y-18707100D01*
X5511814Y-18683674D01*
X5622754Y-18637721D01*
X5651500Y-18618514D01*
X5680246Y-18637721D01*
X5791186Y-18683674D01*
X5908960Y-18707100D01*
X6029040Y-18707100D01*
X6146814Y-18683674D01*
X6257754Y-18637721D01*
X6357598Y-18571008D01*
X6442508Y-18486098D01*
X6509221Y-18386254D01*
X6555174Y-18275314D01*
X6578600Y-18157540D01*
X6578600Y-18037460D01*
X6555174Y-17919686D01*
X6509221Y-17808746D01*
X6442508Y-17708902D01*
X6357598Y-17623992D01*
X6257754Y-17557279D01*
X6146814Y-17511326D01*
X6029040Y-17487900D01*
X5908960Y-17487900D01*
X5791186Y-17511326D01*
X5680246Y-17557279D01*
X5651500Y-17576486D01*
X5622754Y-17557279D01*
X5511814Y-17511326D01*
X5394040Y-17487900D01*
X5273960Y-17487900D01*
X5156186Y-17511326D01*
X5045246Y-17557279D01*
X5016500Y-17576486D01*
X4987754Y-17557279D01*
X4876814Y-17511326D01*
X4759040Y-17487900D01*
X4638960Y-17487900D01*
X4521186Y-17511326D01*
X4410246Y-17557279D01*
X4310402Y-17623992D01*
X4225492Y-17708902D01*
X4158779Y-17808746D01*
X4112826Y-17919686D01*
X4089400Y-18037460D01*
X329800Y-18037460D01*
X329800Y-15057963D01*
X3441700Y-15057963D01*
X3441700Y-15168037D01*
X3463174Y-15275996D01*
X3505298Y-15377691D01*
X3566452Y-15469214D01*
X3644286Y-15547048D01*
X3735809Y-15608202D01*
X3837504Y-15650326D01*
X3945463Y-15671800D01*
X4055537Y-15671800D01*
X4163496Y-15650326D01*
X4265191Y-15608202D01*
X4356714Y-15547048D01*
X4434548Y-15469214D01*
X4495702Y-15377691D01*
X4537826Y-15275996D01*
X4559300Y-15168037D01*
X4559300Y-15057963D01*
X4537826Y-14950004D01*
X4535796Y-14945101D01*
X6334853Y-14945101D01*
X6334853Y-15055175D01*
X6356327Y-15163134D01*
X6398451Y-15264829D01*
X6459605Y-15356352D01*
X6537439Y-15434186D01*
X6628962Y-15495340D01*
X6730657Y-15537464D01*
X6838616Y-15558938D01*
X6948690Y-15558938D01*
X7056649Y-15537464D01*
X7158344Y-15495340D01*
X7224754Y-15450966D01*
X7311891Y-15509189D01*
X7413586Y-15551313D01*
X7521545Y-15572787D01*
X7631619Y-15572787D01*
X7739578Y-15551313D01*
X7841273Y-15509189D01*
X7932796Y-15448035D01*
X8010630Y-15370201D01*
X8071784Y-15278678D01*
X8112674Y-15179960D01*
X8280400Y-15179960D01*
X8280400Y-15300040D01*
X8303826Y-15417814D01*
X8349779Y-15528754D01*
X8416492Y-15628598D01*
X8501402Y-15713508D01*
X8601246Y-15780221D01*
X8712186Y-15826174D01*
X8829960Y-15849600D01*
X8950040Y-15849600D01*
X9067814Y-15826174D01*
X9082808Y-15819963D01*
X9728200Y-15819963D01*
X9728200Y-15930037D01*
X9749674Y-16037996D01*
X9791798Y-16139691D01*
X9852952Y-16231214D01*
X9930786Y-16309048D01*
X10022309Y-16370202D01*
X10124004Y-16412326D01*
X10231963Y-16433800D01*
X10342037Y-16433800D01*
X10449996Y-16412326D01*
X10551691Y-16370202D01*
X10643214Y-16309048D01*
X10721048Y-16231214D01*
X10782202Y-16139691D01*
X10824326Y-16037996D01*
X10845800Y-15930037D01*
X10845800Y-15819963D01*
X10824326Y-15712004D01*
X10782202Y-15610309D01*
X10721048Y-15518786D01*
X10643214Y-15440952D01*
X10551691Y-15379798D01*
X10449996Y-15337674D01*
X10342037Y-15316200D01*
X10231963Y-15316200D01*
X10124004Y-15337674D01*
X10022309Y-15379798D01*
X9930786Y-15440952D01*
X9852952Y-15518786D01*
X9791798Y-15610309D01*
X9749674Y-15712004D01*
X9728200Y-15819963D01*
X9082808Y-15819963D01*
X9178754Y-15780221D01*
X9278598Y-15713508D01*
X9363508Y-15628598D01*
X9430221Y-15528754D01*
X9476174Y-15417814D01*
X9499600Y-15300040D01*
X9499600Y-15179960D01*
X9476174Y-15062186D01*
X9430221Y-14951246D01*
X9363508Y-14851402D01*
X9278598Y-14766492D01*
X9178754Y-14699779D01*
X9067814Y-14653826D01*
X8950040Y-14630400D01*
X8829960Y-14630400D01*
X8712186Y-14653826D01*
X8601246Y-14699779D01*
X8501402Y-14766492D01*
X8416492Y-14851402D01*
X8349779Y-14951246D01*
X8303826Y-15062186D01*
X8280400Y-15179960D01*
X8112674Y-15179960D01*
X8113908Y-15176983D01*
X8135382Y-15069024D01*
X8135382Y-14958950D01*
X8113908Y-14850991D01*
X8071784Y-14749296D01*
X8010630Y-14657773D01*
X7932796Y-14579939D01*
X7841273Y-14518785D01*
X7739578Y-14476661D01*
X7631619Y-14455187D01*
X7521545Y-14455187D01*
X7413586Y-14476661D01*
X7311891Y-14518785D01*
X7245481Y-14563159D01*
X7158344Y-14504936D01*
X7056649Y-14462812D01*
X6948690Y-14441338D01*
X6838616Y-14441338D01*
X6730657Y-14462812D01*
X6628962Y-14504936D01*
X6537439Y-14566090D01*
X6459605Y-14643924D01*
X6398451Y-14735447D01*
X6356327Y-14837142D01*
X6334853Y-14945101D01*
X4535796Y-14945101D01*
X4495702Y-14848309D01*
X4434548Y-14756786D01*
X4356714Y-14678952D01*
X4265191Y-14617798D01*
X4163496Y-14575674D01*
X4055537Y-14554200D01*
X3945463Y-14554200D01*
X3837504Y-14575674D01*
X3735809Y-14617798D01*
X3644286Y-14678952D01*
X3566452Y-14756786D01*
X3505298Y-14848309D01*
X3463174Y-14950004D01*
X3441700Y-15057963D01*
X329800Y-15057963D01*
X329800Y-13660963D01*
X2235200Y-13660963D01*
X2235200Y-13771037D01*
X2256674Y-13878996D01*
X2298798Y-13980691D01*
X2359952Y-14072214D01*
X2437786Y-14150048D01*
X2529309Y-14211202D01*
X2631004Y-14253326D01*
X2738963Y-14274800D01*
X2849037Y-14274800D01*
X2956996Y-14253326D01*
X3058691Y-14211202D01*
X3150214Y-14150048D01*
X3228048Y-14072214D01*
X3289202Y-13980691D01*
X3331326Y-13878996D01*
X3352800Y-13771037D01*
X3352800Y-13660963D01*
X10109200Y-13660963D01*
X10109200Y-13771037D01*
X10130674Y-13878996D01*
X10172798Y-13980691D01*
X10233952Y-14072214D01*
X10311786Y-14150048D01*
X10403309Y-14211202D01*
X10505004Y-14253326D01*
X10612963Y-14274800D01*
X10723037Y-14274800D01*
X10830996Y-14253326D01*
X10932691Y-14211202D01*
X11024214Y-14150048D01*
X11102048Y-14072214D01*
X11163202Y-13980691D01*
X11205326Y-13878996D01*
X11226800Y-13771037D01*
X11226800Y-13660963D01*
X11205326Y-13553004D01*
X11163202Y-13451309D01*
X11102048Y-13359786D01*
X11024214Y-13281952D01*
X10957557Y-13237413D01*
X10957996Y-13237326D01*
X11059691Y-13195202D01*
X11151214Y-13134048D01*
X11229048Y-13056214D01*
X11290202Y-12964691D01*
X11332326Y-12862996D01*
X11353800Y-12755037D01*
X11353800Y-12644963D01*
X11332326Y-12537004D01*
X11290202Y-12435309D01*
X11229048Y-12343786D01*
X11151214Y-12265952D01*
X11059691Y-12204798D01*
X10957996Y-12162674D01*
X10850037Y-12141200D01*
X10739963Y-12141200D01*
X10632004Y-12162674D01*
X10530309Y-12204798D01*
X10438786Y-12265952D01*
X10360952Y-12343786D01*
X10299798Y-12435309D01*
X10257674Y-12537004D01*
X10236200Y-12644963D01*
X10236200Y-12755037D01*
X10257674Y-12862996D01*
X10299798Y-12964691D01*
X10360952Y-13056214D01*
X10438786Y-13134048D01*
X10505443Y-13178587D01*
X10505004Y-13178674D01*
X10403309Y-13220798D01*
X10311786Y-13281952D01*
X10233952Y-13359786D01*
X10172798Y-13451309D01*
X10130674Y-13553004D01*
X10109200Y-13660963D01*
X3352800Y-13660963D01*
X3331326Y-13553004D01*
X3289202Y-13451309D01*
X3228048Y-13359786D01*
X3150214Y-13281952D01*
X3058691Y-13220798D01*
X2956996Y-13178674D01*
X2849037Y-13157200D01*
X2738963Y-13157200D01*
X2631004Y-13178674D01*
X2529309Y-13220798D01*
X2437786Y-13281952D01*
X2359952Y-13359786D01*
X2298798Y-13451309D01*
X2256674Y-13553004D01*
X2235200Y-13660963D01*
X329800Y-13660963D01*
X329800Y-12998491D01*
X8778788Y-12998491D01*
X8778788Y-13108565D01*
X8800262Y-13216524D01*
X8842386Y-13318219D01*
X8903540Y-13409742D01*
X8981374Y-13487576D01*
X9072897Y-13548730D01*
X9174592Y-13590854D01*
X9282551Y-13612328D01*
X9392625Y-13612328D01*
X9500584Y-13590854D01*
X9602279Y-13548730D01*
X9693802Y-13487576D01*
X9771636Y-13409742D01*
X9832790Y-13318219D01*
X9874914Y-13216524D01*
X9896388Y-13108565D01*
X9896388Y-12998491D01*
X9874914Y-12890532D01*
X9832790Y-12788837D01*
X9771636Y-12697314D01*
X9693802Y-12619480D01*
X9602279Y-12558326D01*
X9500584Y-12516202D01*
X9392625Y-12494728D01*
X9282551Y-12494728D01*
X9174592Y-12516202D01*
X9072897Y-12558326D01*
X8981374Y-12619480D01*
X8903540Y-12697314D01*
X8842386Y-12788837D01*
X8800262Y-12890532D01*
X8778788Y-12998491D01*
X329800Y-12998491D01*
X329800Y-11124800D01*
X4804768Y-11124800D01*
X4793779Y-11141246D01*
X4747826Y-11252186D01*
X4724400Y-11369960D01*
X4724400Y-11490040D01*
X4747826Y-11607814D01*
X4793779Y-11718754D01*
X4860492Y-11818598D01*
X4945402Y-11903508D01*
X5045246Y-11970221D01*
X5156186Y-12016174D01*
X5232400Y-12031333D01*
X5232400Y-12125040D01*
X5255826Y-12242814D01*
X5301779Y-12353754D01*
X5368492Y-12453598D01*
X5453402Y-12538508D01*
X5553246Y-12605221D01*
X5664186Y-12651174D01*
X5781960Y-12674600D01*
X5902040Y-12674600D01*
X6019814Y-12651174D01*
X6130754Y-12605221D01*
X6230598Y-12538508D01*
X6315508Y-12453598D01*
X6382221Y-12353754D01*
X6428174Y-12242814D01*
X6451600Y-12125040D01*
X6451600Y-12031333D01*
X6527814Y-12016174D01*
X6638754Y-11970221D01*
X6738598Y-11903508D01*
X6823508Y-11818598D01*
X6890221Y-11718754D01*
X6936174Y-11607814D01*
X6959600Y-11490040D01*
X6959600Y-11369960D01*
X6936174Y-11252186D01*
X6890221Y-11141246D01*
X6828585Y-11049000D01*
X12420597Y-11049000D01*
X12420598Y-15452665D01*
G37*
%TD.AperFunction*%
%TD*%
D18*
%TO.N,GND*%
X25035200Y-1785200D02*
X23554800Y-1785200D01*
X23554800Y-1617921D01*
X23556565Y-1600000D01*
X23549522Y-1528487D01*
X23528662Y-1459722D01*
X23494788Y-1396347D01*
X23449201Y-1340799D01*
X23393653Y-1295212D01*
X23330278Y-1261338D01*
X23261513Y-1240478D01*
X23207921Y-1235200D01*
X23190000Y-1233435D01*
X23172079Y-1235200D01*
X21607921Y-1235200D01*
X21590000Y-1233435D01*
X21572079Y-1235200D01*
X21518487Y-1240478D01*
X21449722Y-1261338D01*
X21386347Y-1295212D01*
X21369546Y-1309000D01*
X21317000Y-1309000D01*
X21317000Y-1357613D01*
X21285212Y-1396347D01*
X21251338Y-1459722D01*
X21230478Y-1528487D01*
X21223435Y-1600000D01*
X21225201Y-1617932D01*
X21225200Y-10507000D01*
X21063000Y-10507000D01*
X21063000Y-10487000D01*
X19662908Y-10487000D01*
X19610668Y-10617200D01*
X15860860Y-10617200D01*
X15862202Y-10615191D01*
X15904326Y-10513496D01*
X15925800Y-10405537D01*
X15925800Y-10295463D01*
X15904326Y-10187504D01*
X15862202Y-10085809D01*
X15854651Y-10074508D01*
X19599316Y-10074508D01*
X19662908Y-10233000D01*
X21063000Y-10233000D01*
X21063000Y-9329000D01*
X20463000Y-9329000D01*
X20264302Y-9373587D01*
X20078121Y-9456081D01*
X19911611Y-9573312D01*
X19771171Y-9720775D01*
X19662198Y-9892803D01*
X19599316Y-10074508D01*
X15854651Y-10074508D01*
X15801048Y-9994286D01*
X15723214Y-9916452D01*
X15631691Y-9855298D01*
X15529996Y-9813174D01*
X15422037Y-9791700D01*
X15311963Y-9791700D01*
X15204004Y-9813174D01*
X15102309Y-9855298D01*
X15049500Y-9890584D01*
X14996691Y-9855298D01*
X14894996Y-9813174D01*
X14787037Y-9791700D01*
X14676963Y-9791700D01*
X14569004Y-9813174D01*
X14467309Y-9855298D01*
X14414500Y-9890584D01*
X14361691Y-9855298D01*
X14259996Y-9813174D01*
X14152037Y-9791700D01*
X14041963Y-9791700D01*
X13934004Y-9813174D01*
X13832309Y-9855298D01*
X13779500Y-9890584D01*
X13726691Y-9855298D01*
X13624996Y-9813174D01*
X13517037Y-9791700D01*
X13406963Y-9791700D01*
X13299004Y-9813174D01*
X13197309Y-9855298D01*
X13144499Y-9890585D01*
X13091688Y-9855298D01*
X12989993Y-9813174D01*
X12882034Y-9791700D01*
X12771960Y-9791700D01*
X12664001Y-9813174D01*
X12562306Y-9855298D01*
X12470783Y-9916452D01*
X12392949Y-9994286D01*
X12331795Y-10085809D01*
X12289671Y-10187504D01*
X12268197Y-10295463D01*
X12268197Y-10405537D01*
X12289671Y-10513496D01*
X12331795Y-10615191D01*
X12333137Y-10617200D01*
X11542860Y-10617200D01*
X11544202Y-10615191D01*
X11586326Y-10513496D01*
X11607800Y-10405537D01*
X11607800Y-10295463D01*
X11586326Y-10187504D01*
X11544202Y-10085809D01*
X11483048Y-9994286D01*
X11405214Y-9916452D01*
X11313691Y-9855298D01*
X11211996Y-9813174D01*
X11104037Y-9791700D01*
X10993963Y-9791700D01*
X10886004Y-9813174D01*
X10784309Y-9855298D01*
X10731500Y-9890584D01*
X10678691Y-9855298D01*
X10576996Y-9813174D01*
X10469037Y-9791700D01*
X10358963Y-9791700D01*
X10251004Y-9813174D01*
X10149309Y-9855298D01*
X10057786Y-9916452D01*
X9979952Y-9994286D01*
X9918798Y-10085809D01*
X9876674Y-10187504D01*
X9855200Y-10295463D01*
X9855200Y-10405537D01*
X9876674Y-10513496D01*
X9918798Y-10615191D01*
X9920140Y-10617200D01*
X9448800Y-10617200D01*
X9448800Y-10594400D01*
X9476174Y-10528314D01*
X9499600Y-10410540D01*
X9499600Y-10290460D01*
X9476174Y-10172686D01*
X9430221Y-10061746D01*
X9363508Y-9961902D01*
X9278598Y-9876992D01*
X9178754Y-9810279D01*
X9067814Y-9764326D01*
X8950040Y-9740900D01*
X8829960Y-9740900D01*
X8712186Y-9764326D01*
X8601246Y-9810279D01*
X8501402Y-9876992D01*
X8416492Y-9961902D01*
X8349779Y-10061746D01*
X8303826Y-10172686D01*
X8280400Y-10290460D01*
X8280400Y-10410540D01*
X8303826Y-10528314D01*
X8331200Y-10594401D01*
X8331200Y-10617200D01*
X5536800Y-10617200D01*
X5536800Y-7724060D01*
X6597021Y-7724060D01*
X6597021Y-7844140D01*
X6620447Y-7961914D01*
X6666400Y-8072854D01*
X6733113Y-8172698D01*
X6818023Y-8257608D01*
X6917867Y-8324321D01*
X7007791Y-8361569D01*
X7045039Y-8451494D01*
X7111752Y-8551338D01*
X7196662Y-8636248D01*
X7296506Y-8702961D01*
X7407446Y-8748914D01*
X7525220Y-8772340D01*
X7549727Y-8772340D01*
X7590992Y-8834098D01*
X7675902Y-8919008D01*
X7775746Y-8985721D01*
X7886686Y-9031674D01*
X8004460Y-9055100D01*
X8124540Y-9055100D01*
X8242314Y-9031674D01*
X8353254Y-8985721D01*
X8453098Y-8919008D01*
X8538008Y-8834098D01*
X8604721Y-8734254D01*
X8650674Y-8623314D01*
X8674100Y-8505540D01*
X8674100Y-8453963D01*
X9474200Y-8453963D01*
X9474200Y-8564037D01*
X9495674Y-8671996D01*
X9537798Y-8773691D01*
X9598952Y-8865214D01*
X9676786Y-8943048D01*
X9768309Y-9004202D01*
X9870004Y-9046326D01*
X9977963Y-9067800D01*
X10088037Y-9067800D01*
X10195996Y-9046326D01*
X10297691Y-9004202D01*
X10389214Y-8943048D01*
X10467048Y-8865214D01*
X10528202Y-8773691D01*
X10570326Y-8671996D01*
X10591800Y-8564037D01*
X10591800Y-8453963D01*
X10570326Y-8346004D01*
X10528202Y-8244309D01*
X10467048Y-8152786D01*
X10389214Y-8074952D01*
X10297691Y-8013798D01*
X10195996Y-7971674D01*
X10088037Y-7950200D01*
X9977963Y-7950200D01*
X9870004Y-7971674D01*
X9768309Y-8013798D01*
X9676786Y-8074952D01*
X9598952Y-8152786D01*
X9537798Y-8244309D01*
X9495674Y-8346004D01*
X9474200Y-8453963D01*
X8674100Y-8453963D01*
X8674100Y-8385460D01*
X8650674Y-8267686D01*
X8604721Y-8156746D01*
X8538008Y-8056902D01*
X8453098Y-7971992D01*
X8353254Y-7905279D01*
X8242314Y-7859326D01*
X8124540Y-7835900D01*
X8100033Y-7835900D01*
X8058768Y-7774142D01*
X7973858Y-7689232D01*
X7874014Y-7622519D01*
X7784090Y-7585271D01*
X7746842Y-7495346D01*
X7680129Y-7395502D01*
X7595219Y-7310592D01*
X7495375Y-7243879D01*
X7384435Y-7197926D01*
X7289084Y-7178960D01*
X8534400Y-7178960D01*
X8534400Y-7299040D01*
X8557826Y-7416814D01*
X8603779Y-7527754D01*
X8670492Y-7627598D01*
X8755402Y-7712508D01*
X8855246Y-7779221D01*
X8966186Y-7825174D01*
X9083960Y-7848600D01*
X9204040Y-7848600D01*
X9321814Y-7825174D01*
X9432754Y-7779221D01*
X9532598Y-7712508D01*
X9617508Y-7627598D01*
X9684221Y-7527754D01*
X9730174Y-7416814D01*
X9753600Y-7299040D01*
X9753600Y-7178960D01*
X11074400Y-7178960D01*
X11074400Y-7299040D01*
X11097826Y-7416814D01*
X11143779Y-7527754D01*
X11210492Y-7627598D01*
X11295402Y-7712508D01*
X11395246Y-7779221D01*
X11506186Y-7825174D01*
X11594363Y-7842713D01*
X11584504Y-7844674D01*
X11482809Y-7886798D01*
X11391286Y-7947952D01*
X11313452Y-8025786D01*
X11252298Y-8117309D01*
X11210174Y-8219004D01*
X11188700Y-8326963D01*
X11188700Y-8437037D01*
X11210174Y-8544996D01*
X11252298Y-8646691D01*
X11313452Y-8738214D01*
X11391286Y-8816048D01*
X11482809Y-8877202D01*
X11584504Y-8919326D01*
X11692463Y-8940800D01*
X11802537Y-8940800D01*
X11910496Y-8919326D01*
X12012191Y-8877202D01*
X12103714Y-8816048D01*
X12105961Y-8813801D01*
X12936080Y-8813801D01*
X12956033Y-8815766D01*
X12975986Y-8813801D01*
X12975993Y-8813801D01*
X13035701Y-8807920D01*
X13112308Y-8784682D01*
X13182909Y-8746945D01*
X13244791Y-8696159D01*
X13257515Y-8680655D01*
X13646354Y-8291816D01*
X13661857Y-8279093D01*
X13712643Y-8217211D01*
X13750380Y-8146610D01*
X13768378Y-8087278D01*
X13773618Y-8070004D01*
X13774978Y-8056194D01*
X13779499Y-8010295D01*
X13779499Y-8010289D01*
X13781464Y-7990336D01*
X13779499Y-7970383D01*
X13779499Y-7847249D01*
X13866432Y-7760316D01*
X13905533Y-7760316D01*
X14013492Y-7738842D01*
X14115187Y-7696718D01*
X14129790Y-7686960D01*
X17233900Y-7686960D01*
X17233900Y-7807040D01*
X17257326Y-7924814D01*
X17303279Y-8035754D01*
X17369992Y-8135598D01*
X17454902Y-8220508D01*
X17554746Y-8287221D01*
X17665686Y-8333174D01*
X17783460Y-8356600D01*
X17903540Y-8356600D01*
X18021314Y-8333174D01*
X18132254Y-8287221D01*
X18232098Y-8220508D01*
X18289511Y-8163095D01*
X18313400Y-8179056D01*
X18313400Y-8188040D01*
X18336826Y-8305814D01*
X18382779Y-8416754D01*
X18449492Y-8516598D01*
X18534402Y-8601508D01*
X18634246Y-8668221D01*
X18745186Y-8714174D01*
X18862960Y-8737600D01*
X18983040Y-8737600D01*
X19100814Y-8714174D01*
X19211754Y-8668221D01*
X19311598Y-8601508D01*
X19396508Y-8516598D01*
X19463221Y-8416754D01*
X19509174Y-8305814D01*
X19525166Y-8225414D01*
X19529254Y-8223721D01*
X19629098Y-8157008D01*
X19714008Y-8072098D01*
X19780721Y-7972254D01*
X19826674Y-7861314D01*
X19850100Y-7743540D01*
X19850100Y-7623460D01*
X19826674Y-7505686D01*
X19780721Y-7394746D01*
X19714008Y-7294902D01*
X19629098Y-7209992D01*
X19529254Y-7143279D01*
X19418314Y-7097326D01*
X19300540Y-7073900D01*
X19180460Y-7073900D01*
X19062686Y-7097326D01*
X18954750Y-7142035D01*
X18846814Y-7097326D01*
X18729040Y-7073900D01*
X18608960Y-7073900D01*
X18491186Y-7097326D01*
X18380246Y-7143279D01*
X18280402Y-7209992D01*
X18222989Y-7267405D01*
X18132254Y-7206779D01*
X18021314Y-7160826D01*
X17903540Y-7137400D01*
X17783460Y-7137400D01*
X17665686Y-7160826D01*
X17554746Y-7206779D01*
X17454902Y-7273492D01*
X17369992Y-7358402D01*
X17303279Y-7458246D01*
X17257326Y-7569186D01*
X17233900Y-7686960D01*
X14129790Y-7686960D01*
X14206710Y-7635564D01*
X14284544Y-7557730D01*
X14345698Y-7466207D01*
X14387822Y-7364512D01*
X14409296Y-7256553D01*
X14409296Y-7146479D01*
X14387822Y-7038520D01*
X14345698Y-6936825D01*
X14284544Y-6845302D01*
X14206710Y-6767468D01*
X14115187Y-6706314D01*
X14013492Y-6664190D01*
X13905533Y-6642716D01*
X13795459Y-6642716D01*
X13687500Y-6664190D01*
X13585805Y-6706314D01*
X13494282Y-6767468D01*
X13416448Y-6845302D01*
X13415493Y-6846731D01*
X13373714Y-6804952D01*
X13282191Y-6743798D01*
X13180496Y-6701674D01*
X13072537Y-6680200D01*
X12962463Y-6680200D01*
X12854504Y-6701674D01*
X12752809Y-6743798D01*
X12661286Y-6804952D01*
X12583452Y-6882786D01*
X12522298Y-6974309D01*
X12480174Y-7076004D01*
X12458700Y-7183963D01*
X12458700Y-7294037D01*
X12462391Y-7312594D01*
X12411246Y-7333779D01*
X12311402Y-7400492D01*
X12252563Y-7459331D01*
X12270174Y-7416814D01*
X12293600Y-7299040D01*
X12293600Y-7178960D01*
X12270174Y-7061186D01*
X12224221Y-6950246D01*
X12157508Y-6850402D01*
X12072598Y-6765492D01*
X11972754Y-6698779D01*
X11861814Y-6652826D01*
X11744040Y-6629400D01*
X11623960Y-6629400D01*
X11506186Y-6652826D01*
X11395246Y-6698779D01*
X11295402Y-6765492D01*
X11210492Y-6850402D01*
X11143779Y-6950246D01*
X11097826Y-7061186D01*
X11074400Y-7178960D01*
X9753600Y-7178960D01*
X9730174Y-7061186D01*
X9684221Y-6950246D01*
X9617508Y-6850402D01*
X9532598Y-6765492D01*
X9432754Y-6698779D01*
X9321814Y-6652826D01*
X9204040Y-6629400D01*
X9083960Y-6629400D01*
X8966186Y-6652826D01*
X8855246Y-6698779D01*
X8755402Y-6765492D01*
X8670492Y-6850402D01*
X8603779Y-6950246D01*
X8557826Y-7061186D01*
X8534400Y-7178960D01*
X7289084Y-7178960D01*
X7266661Y-7174500D01*
X7146581Y-7174500D01*
X7028807Y-7197926D01*
X6917867Y-7243879D01*
X6818023Y-7310592D01*
X6733113Y-7395502D01*
X6666400Y-7495346D01*
X6620447Y-7606286D01*
X6597021Y-7724060D01*
X5536800Y-7724060D01*
X5536800Y-6221255D01*
X6251253Y-6221255D01*
X6251253Y-6326325D01*
X6271751Y-6429377D01*
X6311960Y-6526450D01*
X6370334Y-6613813D01*
X6444630Y-6688109D01*
X6531993Y-6746483D01*
X6629066Y-6786692D01*
X6732118Y-6807190D01*
X6837188Y-6807190D01*
X6940240Y-6786692D01*
X7037313Y-6746483D01*
X7124676Y-6688109D01*
X7198972Y-6613813D01*
X7253797Y-6531762D01*
X7297677Y-6540490D01*
X7402747Y-6540490D01*
X7505799Y-6519992D01*
X7602872Y-6479783D01*
X7690235Y-6421409D01*
X7764531Y-6347113D01*
X7822905Y-6259750D01*
X7863114Y-6162677D01*
X7883612Y-6059625D01*
X7883612Y-5954555D01*
X7863114Y-5851503D01*
X7822905Y-5754430D01*
X7764531Y-5667067D01*
X7690235Y-5592771D01*
X7602872Y-5534397D01*
X7505799Y-5494188D01*
X7402747Y-5473690D01*
X7297677Y-5473690D01*
X7194625Y-5494188D01*
X7097552Y-5534397D01*
X7010189Y-5592771D01*
X6935893Y-5667067D01*
X6881068Y-5749118D01*
X6837188Y-5740390D01*
X6732118Y-5740390D01*
X6629066Y-5760888D01*
X6531993Y-5801097D01*
X6444630Y-5859471D01*
X6370334Y-5933767D01*
X6311960Y-6021130D01*
X6271751Y-6118203D01*
X6251253Y-6221255D01*
X5536800Y-6221255D01*
X5536800Y-4557145D01*
X6928585Y-4557145D01*
X6928585Y-4677225D01*
X6952011Y-4794999D01*
X6997964Y-4905939D01*
X7064677Y-5005783D01*
X7149587Y-5090693D01*
X7249431Y-5157406D01*
X7360371Y-5203359D01*
X7478145Y-5226785D01*
X7598225Y-5226785D01*
X7715999Y-5203359D01*
X7826939Y-5157406D01*
X7926783Y-5090693D01*
X8011693Y-5005783D01*
X8078406Y-4905939D01*
X8116345Y-4814345D01*
X8207939Y-4776406D01*
X8240249Y-4754817D01*
X8225674Y-4790004D01*
X8204200Y-4897963D01*
X8204200Y-5008037D01*
X8225674Y-5115996D01*
X8267798Y-5217691D01*
X8328952Y-5309214D01*
X8406786Y-5387048D01*
X8498309Y-5448202D01*
X8600004Y-5490326D01*
X8707963Y-5511800D01*
X8712200Y-5511800D01*
X8712200Y-5579537D01*
X8733674Y-5687496D01*
X8775798Y-5789191D01*
X8836952Y-5880714D01*
X8914786Y-5958548D01*
X9006309Y-6019702D01*
X9108004Y-6061826D01*
X9215963Y-6083300D01*
X9326037Y-6083300D01*
X9433996Y-6061826D01*
X9535691Y-6019702D01*
X9627214Y-5958548D01*
X9705048Y-5880714D01*
X9766202Y-5789191D01*
X9808326Y-5687496D01*
X9829800Y-5579537D01*
X9829800Y-5469463D01*
X9808326Y-5361504D01*
X9766202Y-5259809D01*
X9705048Y-5168286D01*
X9627214Y-5090452D01*
X9535691Y-5029298D01*
X9433996Y-4987174D01*
X9326404Y-4965773D01*
X9432754Y-4921721D01*
X9532598Y-4855008D01*
X9617508Y-4770098D01*
X9684221Y-4670254D01*
X9730174Y-4559314D01*
X9753600Y-4441540D01*
X9753600Y-4321460D01*
X9730174Y-4203686D01*
X9685465Y-4095750D01*
X9730174Y-3987814D01*
X9749355Y-3891379D01*
X11596819Y-3891379D01*
X11596819Y-4011459D01*
X11620245Y-4129233D01*
X11666198Y-4240173D01*
X11732911Y-4340017D01*
X11817821Y-4424927D01*
X11917665Y-4491640D01*
X12028605Y-4537593D01*
X12146379Y-4561019D01*
X12266459Y-4561019D01*
X12384233Y-4537593D01*
X12469041Y-4502464D01*
X12455148Y-4536004D01*
X12433674Y-4643963D01*
X12433674Y-4754037D01*
X12455148Y-4861996D01*
X12497272Y-4963691D01*
X12558426Y-5055214D01*
X12563975Y-5060763D01*
X12519952Y-5104786D01*
X12458798Y-5196309D01*
X12416674Y-5298004D01*
X12395200Y-5405963D01*
X12395200Y-5516037D01*
X12416674Y-5623996D01*
X12458798Y-5725691D01*
X12519952Y-5817214D01*
X12597786Y-5895048D01*
X12689309Y-5956202D01*
X12791004Y-5998326D01*
X12898963Y-6019800D01*
X13009037Y-6019800D01*
X13116996Y-5998326D01*
X13218691Y-5956202D01*
X13310214Y-5895048D01*
X13388048Y-5817214D01*
X13449202Y-5725691D01*
X13491326Y-5623996D01*
X13512800Y-5516037D01*
X13512800Y-5405963D01*
X13491326Y-5298004D01*
X13453433Y-5206523D01*
X14434494Y-5206523D01*
X14434494Y-5316597D01*
X14455968Y-5424556D01*
X14498092Y-5526251D01*
X14559246Y-5617774D01*
X14637080Y-5695608D01*
X14728603Y-5756762D01*
X14830298Y-5798886D01*
X14938257Y-5820360D01*
X15048331Y-5820360D01*
X15156290Y-5798886D01*
X15257985Y-5756762D01*
X15349508Y-5695608D01*
X15427342Y-5617774D01*
X15488496Y-5526251D01*
X15530620Y-5424556D01*
X15552094Y-5316597D01*
X15552094Y-5206523D01*
X15530620Y-5098564D01*
X15488496Y-4996869D01*
X15427342Y-4905346D01*
X15356459Y-4834463D01*
X16776700Y-4834463D01*
X16776700Y-4944537D01*
X16798174Y-5052496D01*
X16840298Y-5154191D01*
X16901452Y-5245714D01*
X16933939Y-5278201D01*
X16903798Y-5323309D01*
X16861674Y-5425004D01*
X16840200Y-5532963D01*
X16840200Y-5643037D01*
X16861674Y-5750996D01*
X16903798Y-5852691D01*
X16964952Y-5944214D01*
X17042786Y-6022048D01*
X17134309Y-6083202D01*
X17236004Y-6125326D01*
X17343963Y-6146800D01*
X17454037Y-6146800D01*
X17561996Y-6125326D01*
X17663691Y-6083202D01*
X17755214Y-6022048D01*
X17833048Y-5944214D01*
X17894202Y-5852691D01*
X17936326Y-5750996D01*
X17957800Y-5643037D01*
X17957800Y-5532963D01*
X17936326Y-5425004D01*
X17894202Y-5323309D01*
X17833048Y-5231786D01*
X17800561Y-5199299D01*
X17830702Y-5154191D01*
X17872826Y-5052496D01*
X17894300Y-4944537D01*
X17894300Y-4927600D01*
X17967040Y-4927600D01*
X18084814Y-4904174D01*
X18175203Y-4866733D01*
X18195492Y-4897098D01*
X18208292Y-4909898D01*
X18186400Y-5019960D01*
X18186400Y-5140040D01*
X18209826Y-5257814D01*
X18255779Y-5368754D01*
X18322492Y-5468598D01*
X18407402Y-5553508D01*
X18507246Y-5620221D01*
X18618186Y-5666174D01*
X18735960Y-5689600D01*
X18856040Y-5689600D01*
X18973814Y-5666174D01*
X19074914Y-5624297D01*
X19098746Y-5640221D01*
X19209686Y-5686174D01*
X19327460Y-5709600D01*
X19447540Y-5709600D01*
X19565314Y-5686174D01*
X19676254Y-5640221D01*
X19776098Y-5573508D01*
X19861008Y-5488598D01*
X19927721Y-5388754D01*
X19973674Y-5277814D01*
X19997100Y-5160040D01*
X19997100Y-5039960D01*
X19973674Y-4922186D01*
X19927721Y-4811246D01*
X19861008Y-4711402D01*
X19776098Y-4626492D01*
X19676254Y-4559779D01*
X19565314Y-4513826D01*
X19447540Y-4490400D01*
X19327460Y-4490400D01*
X19278600Y-4500119D01*
X19278600Y-4448460D01*
X19255174Y-4330686D01*
X19209221Y-4219746D01*
X19142508Y-4119902D01*
X19057598Y-4034992D01*
X18957754Y-3968279D01*
X18846814Y-3922326D01*
X18729040Y-3898900D01*
X18608960Y-3898900D01*
X18493668Y-3921832D01*
X18516600Y-3806540D01*
X18516600Y-3686460D01*
X18493174Y-3568686D01*
X18448465Y-3460750D01*
X18493174Y-3352814D01*
X18516600Y-3235040D01*
X18516600Y-3114960D01*
X18493174Y-2997186D01*
X18447221Y-2886246D01*
X18380508Y-2786402D01*
X18295598Y-2701492D01*
X18195754Y-2634779D01*
X18173334Y-2625492D01*
X19599316Y-2625492D01*
X19662198Y-2807197D01*
X19771171Y-2979225D01*
X19911611Y-3126688D01*
X20078121Y-3243919D01*
X20264302Y-3326413D01*
X20463000Y-3371000D01*
X21063000Y-3371000D01*
X21063000Y-2467000D01*
X19662908Y-2467000D01*
X19599316Y-2625492D01*
X18173334Y-2625492D01*
X18084814Y-2588826D01*
X17967040Y-2565400D01*
X17846960Y-2565400D01*
X17729186Y-2588826D01*
X17618246Y-2634779D01*
X17518402Y-2701492D01*
X17433492Y-2786402D01*
X17411444Y-2819400D01*
X17338960Y-2819400D01*
X17221186Y-2842826D01*
X17110246Y-2888779D01*
X17010402Y-2955492D01*
X16925492Y-3040402D01*
X16858779Y-3140246D01*
X16812826Y-3251186D01*
X16789400Y-3368960D01*
X16789400Y-3489040D01*
X16812826Y-3606814D01*
X16858779Y-3717754D01*
X16877986Y-3746500D01*
X16858779Y-3775246D01*
X16812826Y-3886186D01*
X16789400Y-4003960D01*
X16789400Y-4124040D01*
X16812826Y-4241814D01*
X16858779Y-4352754D01*
X16925492Y-4452598D01*
X16953816Y-4480922D01*
X16901452Y-4533286D01*
X16840298Y-4624809D01*
X16798174Y-4726504D01*
X16776700Y-4834463D01*
X15356459Y-4834463D01*
X15349508Y-4827512D01*
X15257985Y-4766358D01*
X15156290Y-4724234D01*
X15048331Y-4702760D01*
X14938257Y-4702760D01*
X14830298Y-4724234D01*
X14728603Y-4766358D01*
X14637080Y-4827512D01*
X14559246Y-4905346D01*
X14498092Y-4996869D01*
X14455968Y-5098564D01*
X14434494Y-5206523D01*
X13453433Y-5206523D01*
X13449202Y-5196309D01*
X13388048Y-5104786D01*
X13382499Y-5099237D01*
X13426522Y-5055214D01*
X13487676Y-4963691D01*
X13529800Y-4861996D01*
X13551274Y-4754037D01*
X13551274Y-4692766D01*
X13559674Y-4734996D01*
X13601798Y-4836691D01*
X13662952Y-4928214D01*
X13740786Y-5006048D01*
X13832309Y-5067202D01*
X13934004Y-5109326D01*
X14041963Y-5130800D01*
X14152037Y-5130800D01*
X14259996Y-5109326D01*
X14361691Y-5067202D01*
X14453214Y-5006048D01*
X14531048Y-4928214D01*
X14592202Y-4836691D01*
X14634326Y-4734996D01*
X14655800Y-4627037D01*
X14655800Y-4516963D01*
X14636213Y-4418490D01*
X14707214Y-4371048D01*
X14785048Y-4293214D01*
X14846202Y-4201691D01*
X14888326Y-4099996D01*
X14909800Y-3992037D01*
X14909800Y-3881963D01*
X14888326Y-3774004D01*
X14846202Y-3672309D01*
X14785048Y-3580786D01*
X14707214Y-3502952D01*
X14615691Y-3441798D01*
X14513996Y-3399674D01*
X14406037Y-3378200D01*
X14295963Y-3378200D01*
X14188004Y-3399674D01*
X14086309Y-3441798D01*
X13994786Y-3502952D01*
X13916952Y-3580786D01*
X13855798Y-3672309D01*
X13813674Y-3774004D01*
X13792200Y-3881963D01*
X13792200Y-3992037D01*
X13811787Y-4090510D01*
X13740786Y-4137952D01*
X13662952Y-4215786D01*
X13601798Y-4307309D01*
X13559674Y-4409004D01*
X13538200Y-4516963D01*
X13538200Y-4578234D01*
X13529800Y-4536004D01*
X13487676Y-4434309D01*
X13426522Y-4342786D01*
X13348688Y-4264952D01*
X13257165Y-4203798D01*
X13155470Y-4161674D01*
X13047511Y-4140200D01*
X12937437Y-4140200D01*
X12829478Y-4161674D01*
X12768733Y-4186836D01*
X12792593Y-4129233D01*
X12816019Y-4011459D01*
X12816019Y-3891379D01*
X12792593Y-3773605D01*
X12746640Y-3662665D01*
X12679927Y-3562821D01*
X12595017Y-3477911D01*
X12495173Y-3411198D01*
X12384233Y-3365245D01*
X12266459Y-3341819D01*
X12146379Y-3341819D01*
X12028605Y-3365245D01*
X11917665Y-3411198D01*
X11817821Y-3477911D01*
X11732911Y-3562821D01*
X11666198Y-3662665D01*
X11620245Y-3773605D01*
X11596819Y-3891379D01*
X9749355Y-3891379D01*
X9753600Y-3870040D01*
X9753600Y-3749960D01*
X9730174Y-3632186D01*
X9685465Y-3524250D01*
X9730174Y-3416314D01*
X9753600Y-3298540D01*
X9753600Y-3178460D01*
X9730174Y-3060686D01*
X9684221Y-2949746D01*
X9617508Y-2849902D01*
X9532598Y-2764992D01*
X9432754Y-2698279D01*
X9321814Y-2652326D01*
X9204040Y-2628900D01*
X9083960Y-2628900D01*
X8966186Y-2652326D01*
X8855246Y-2698279D01*
X8755402Y-2764992D01*
X8670492Y-2849902D01*
X8648444Y-2882900D01*
X8575960Y-2882900D01*
X8458186Y-2906326D01*
X8347246Y-2952279D01*
X8247402Y-3018992D01*
X8162492Y-3103902D01*
X8095779Y-3203746D01*
X8049826Y-3314686D01*
X8026400Y-3432460D01*
X8026400Y-3552540D01*
X8043678Y-3639405D01*
X7979225Y-3626585D01*
X7859145Y-3626585D01*
X7741371Y-3650011D01*
X7630431Y-3695964D01*
X7530587Y-3762677D01*
X7445677Y-3847587D01*
X7378964Y-3947431D01*
X7341025Y-4039025D01*
X7249431Y-4076964D01*
X7149587Y-4143677D01*
X7064677Y-4228587D01*
X6997964Y-4328431D01*
X6952011Y-4439371D01*
X6928585Y-4557145D01*
X5536800Y-4557145D01*
X5536800Y-2054508D01*
X19599316Y-2054508D01*
X19662908Y-2213000D01*
X21063000Y-2213000D01*
X21063000Y-1309000D01*
X20463000Y-1309000D01*
X20264302Y-1353587D01*
X20078121Y-1436081D01*
X19911611Y-1553312D01*
X19771171Y-1700775D01*
X19662198Y-1872803D01*
X19599316Y-2054508D01*
X5536800Y-2054508D01*
X5536800Y-1921193D01*
X5538395Y-1905000D01*
X5532027Y-1840348D01*
X5513169Y-1778181D01*
X5482545Y-1720887D01*
X5441332Y-1670668D01*
X5391113Y-1629455D01*
X5333819Y-1598831D01*
X5271652Y-1579973D01*
X5223193Y-1575200D01*
X5207000Y-1573605D01*
X5190807Y-1575200D01*
X329800Y-1575200D01*
X329800Y-329800D01*
X25035201Y-329800D01*
X25035200Y-1785200D01*
%TA.AperFunction,Conductor*%
D19*
G36*
X25035200Y-1785200D02*
G01*
X23554800Y-1785200D01*
X23554800Y-1617921D01*
X23556565Y-1600000D01*
X23549522Y-1528487D01*
X23528662Y-1459722D01*
X23494788Y-1396347D01*
X23449201Y-1340799D01*
X23393653Y-1295212D01*
X23330278Y-1261338D01*
X23261513Y-1240478D01*
X23207921Y-1235200D01*
X23190000Y-1233435D01*
X23172079Y-1235200D01*
X21607921Y-1235200D01*
X21590000Y-1233435D01*
X21572079Y-1235200D01*
X21518487Y-1240478D01*
X21449722Y-1261338D01*
X21386347Y-1295212D01*
X21369546Y-1309000D01*
X21317000Y-1309000D01*
X21317000Y-1357613D01*
X21285212Y-1396347D01*
X21251338Y-1459722D01*
X21230478Y-1528487D01*
X21223435Y-1600000D01*
X21225201Y-1617932D01*
X21225200Y-10507000D01*
X21063000Y-10507000D01*
X21063000Y-10487000D01*
X19662908Y-10487000D01*
X19610668Y-10617200D01*
X15860860Y-10617200D01*
X15862202Y-10615191D01*
X15904326Y-10513496D01*
X15925800Y-10405537D01*
X15925800Y-10295463D01*
X15904326Y-10187504D01*
X15862202Y-10085809D01*
X15854651Y-10074508D01*
X19599316Y-10074508D01*
X19662908Y-10233000D01*
X21063000Y-10233000D01*
X21063000Y-9329000D01*
X20463000Y-9329000D01*
X20264302Y-9373587D01*
X20078121Y-9456081D01*
X19911611Y-9573312D01*
X19771171Y-9720775D01*
X19662198Y-9892803D01*
X19599316Y-10074508D01*
X15854651Y-10074508D01*
X15801048Y-9994286D01*
X15723214Y-9916452D01*
X15631691Y-9855298D01*
X15529996Y-9813174D01*
X15422037Y-9791700D01*
X15311963Y-9791700D01*
X15204004Y-9813174D01*
X15102309Y-9855298D01*
X15049500Y-9890584D01*
X14996691Y-9855298D01*
X14894996Y-9813174D01*
X14787037Y-9791700D01*
X14676963Y-9791700D01*
X14569004Y-9813174D01*
X14467309Y-9855298D01*
X14414500Y-9890584D01*
X14361691Y-9855298D01*
X14259996Y-9813174D01*
X14152037Y-9791700D01*
X14041963Y-9791700D01*
X13934004Y-9813174D01*
X13832309Y-9855298D01*
X13779500Y-9890584D01*
X13726691Y-9855298D01*
X13624996Y-9813174D01*
X13517037Y-9791700D01*
X13406963Y-9791700D01*
X13299004Y-9813174D01*
X13197309Y-9855298D01*
X13144499Y-9890585D01*
X13091688Y-9855298D01*
X12989993Y-9813174D01*
X12882034Y-9791700D01*
X12771960Y-9791700D01*
X12664001Y-9813174D01*
X12562306Y-9855298D01*
X12470783Y-9916452D01*
X12392949Y-9994286D01*
X12331795Y-10085809D01*
X12289671Y-10187504D01*
X12268197Y-10295463D01*
X12268197Y-10405537D01*
X12289671Y-10513496D01*
X12331795Y-10615191D01*
X12333137Y-10617200D01*
X11542860Y-10617200D01*
X11544202Y-10615191D01*
X11586326Y-10513496D01*
X11607800Y-10405537D01*
X11607800Y-10295463D01*
X11586326Y-10187504D01*
X11544202Y-10085809D01*
X11483048Y-9994286D01*
X11405214Y-9916452D01*
X11313691Y-9855298D01*
X11211996Y-9813174D01*
X11104037Y-9791700D01*
X10993963Y-9791700D01*
X10886004Y-9813174D01*
X10784309Y-9855298D01*
X10731500Y-9890584D01*
X10678691Y-9855298D01*
X10576996Y-9813174D01*
X10469037Y-9791700D01*
X10358963Y-9791700D01*
X10251004Y-9813174D01*
X10149309Y-9855298D01*
X10057786Y-9916452D01*
X9979952Y-9994286D01*
X9918798Y-10085809D01*
X9876674Y-10187504D01*
X9855200Y-10295463D01*
X9855200Y-10405537D01*
X9876674Y-10513496D01*
X9918798Y-10615191D01*
X9920140Y-10617200D01*
X9448800Y-10617200D01*
X9448800Y-10594400D01*
X9476174Y-10528314D01*
X9499600Y-10410540D01*
X9499600Y-10290460D01*
X9476174Y-10172686D01*
X9430221Y-10061746D01*
X9363508Y-9961902D01*
X9278598Y-9876992D01*
X9178754Y-9810279D01*
X9067814Y-9764326D01*
X8950040Y-9740900D01*
X8829960Y-9740900D01*
X8712186Y-9764326D01*
X8601246Y-9810279D01*
X8501402Y-9876992D01*
X8416492Y-9961902D01*
X8349779Y-10061746D01*
X8303826Y-10172686D01*
X8280400Y-10290460D01*
X8280400Y-10410540D01*
X8303826Y-10528314D01*
X8331200Y-10594401D01*
X8331200Y-10617200D01*
X5536800Y-10617200D01*
X5536800Y-7724060D01*
X6597021Y-7724060D01*
X6597021Y-7844140D01*
X6620447Y-7961914D01*
X6666400Y-8072854D01*
X6733113Y-8172698D01*
X6818023Y-8257608D01*
X6917867Y-8324321D01*
X7007791Y-8361569D01*
X7045039Y-8451494D01*
X7111752Y-8551338D01*
X7196662Y-8636248D01*
X7296506Y-8702961D01*
X7407446Y-8748914D01*
X7525220Y-8772340D01*
X7549727Y-8772340D01*
X7590992Y-8834098D01*
X7675902Y-8919008D01*
X7775746Y-8985721D01*
X7886686Y-9031674D01*
X8004460Y-9055100D01*
X8124540Y-9055100D01*
X8242314Y-9031674D01*
X8353254Y-8985721D01*
X8453098Y-8919008D01*
X8538008Y-8834098D01*
X8604721Y-8734254D01*
X8650674Y-8623314D01*
X8674100Y-8505540D01*
X8674100Y-8453963D01*
X9474200Y-8453963D01*
X9474200Y-8564037D01*
X9495674Y-8671996D01*
X9537798Y-8773691D01*
X9598952Y-8865214D01*
X9676786Y-8943048D01*
X9768309Y-9004202D01*
X9870004Y-9046326D01*
X9977963Y-9067800D01*
X10088037Y-9067800D01*
X10195996Y-9046326D01*
X10297691Y-9004202D01*
X10389214Y-8943048D01*
X10467048Y-8865214D01*
X10528202Y-8773691D01*
X10570326Y-8671996D01*
X10591800Y-8564037D01*
X10591800Y-8453963D01*
X10570326Y-8346004D01*
X10528202Y-8244309D01*
X10467048Y-8152786D01*
X10389214Y-8074952D01*
X10297691Y-8013798D01*
X10195996Y-7971674D01*
X10088037Y-7950200D01*
X9977963Y-7950200D01*
X9870004Y-7971674D01*
X9768309Y-8013798D01*
X9676786Y-8074952D01*
X9598952Y-8152786D01*
X9537798Y-8244309D01*
X9495674Y-8346004D01*
X9474200Y-8453963D01*
X8674100Y-8453963D01*
X8674100Y-8385460D01*
X8650674Y-8267686D01*
X8604721Y-8156746D01*
X8538008Y-8056902D01*
X8453098Y-7971992D01*
X8353254Y-7905279D01*
X8242314Y-7859326D01*
X8124540Y-7835900D01*
X8100033Y-7835900D01*
X8058768Y-7774142D01*
X7973858Y-7689232D01*
X7874014Y-7622519D01*
X7784090Y-7585271D01*
X7746842Y-7495346D01*
X7680129Y-7395502D01*
X7595219Y-7310592D01*
X7495375Y-7243879D01*
X7384435Y-7197926D01*
X7289084Y-7178960D01*
X8534400Y-7178960D01*
X8534400Y-7299040D01*
X8557826Y-7416814D01*
X8603779Y-7527754D01*
X8670492Y-7627598D01*
X8755402Y-7712508D01*
X8855246Y-7779221D01*
X8966186Y-7825174D01*
X9083960Y-7848600D01*
X9204040Y-7848600D01*
X9321814Y-7825174D01*
X9432754Y-7779221D01*
X9532598Y-7712508D01*
X9617508Y-7627598D01*
X9684221Y-7527754D01*
X9730174Y-7416814D01*
X9753600Y-7299040D01*
X9753600Y-7178960D01*
X11074400Y-7178960D01*
X11074400Y-7299040D01*
X11097826Y-7416814D01*
X11143779Y-7527754D01*
X11210492Y-7627598D01*
X11295402Y-7712508D01*
X11395246Y-7779221D01*
X11506186Y-7825174D01*
X11594363Y-7842713D01*
X11584504Y-7844674D01*
X11482809Y-7886798D01*
X11391286Y-7947952D01*
X11313452Y-8025786D01*
X11252298Y-8117309D01*
X11210174Y-8219004D01*
X11188700Y-8326963D01*
X11188700Y-8437037D01*
X11210174Y-8544996D01*
X11252298Y-8646691D01*
X11313452Y-8738214D01*
X11391286Y-8816048D01*
X11482809Y-8877202D01*
X11584504Y-8919326D01*
X11692463Y-8940800D01*
X11802537Y-8940800D01*
X11910496Y-8919326D01*
X12012191Y-8877202D01*
X12103714Y-8816048D01*
X12105961Y-8813801D01*
X12936080Y-8813801D01*
X12956033Y-8815766D01*
X12975986Y-8813801D01*
X12975993Y-8813801D01*
X13035701Y-8807920D01*
X13112308Y-8784682D01*
X13182909Y-8746945D01*
X13244791Y-8696159D01*
X13257515Y-8680655D01*
X13646354Y-8291816D01*
X13661857Y-8279093D01*
X13712643Y-8217211D01*
X13750380Y-8146610D01*
X13768378Y-8087278D01*
X13773618Y-8070004D01*
X13774978Y-8056194D01*
X13779499Y-8010295D01*
X13779499Y-8010289D01*
X13781464Y-7990336D01*
X13779499Y-7970383D01*
X13779499Y-7847249D01*
X13866432Y-7760316D01*
X13905533Y-7760316D01*
X14013492Y-7738842D01*
X14115187Y-7696718D01*
X14129790Y-7686960D01*
X17233900Y-7686960D01*
X17233900Y-7807040D01*
X17257326Y-7924814D01*
X17303279Y-8035754D01*
X17369992Y-8135598D01*
X17454902Y-8220508D01*
X17554746Y-8287221D01*
X17665686Y-8333174D01*
X17783460Y-8356600D01*
X17903540Y-8356600D01*
X18021314Y-8333174D01*
X18132254Y-8287221D01*
X18232098Y-8220508D01*
X18289511Y-8163095D01*
X18313400Y-8179056D01*
X18313400Y-8188040D01*
X18336826Y-8305814D01*
X18382779Y-8416754D01*
X18449492Y-8516598D01*
X18534402Y-8601508D01*
X18634246Y-8668221D01*
X18745186Y-8714174D01*
X18862960Y-8737600D01*
X18983040Y-8737600D01*
X19100814Y-8714174D01*
X19211754Y-8668221D01*
X19311598Y-8601508D01*
X19396508Y-8516598D01*
X19463221Y-8416754D01*
X19509174Y-8305814D01*
X19525166Y-8225414D01*
X19529254Y-8223721D01*
X19629098Y-8157008D01*
X19714008Y-8072098D01*
X19780721Y-7972254D01*
X19826674Y-7861314D01*
X19850100Y-7743540D01*
X19850100Y-7623460D01*
X19826674Y-7505686D01*
X19780721Y-7394746D01*
X19714008Y-7294902D01*
X19629098Y-7209992D01*
X19529254Y-7143279D01*
X19418314Y-7097326D01*
X19300540Y-7073900D01*
X19180460Y-7073900D01*
X19062686Y-7097326D01*
X18954750Y-7142035D01*
X18846814Y-7097326D01*
X18729040Y-7073900D01*
X18608960Y-7073900D01*
X18491186Y-7097326D01*
X18380246Y-7143279D01*
X18280402Y-7209992D01*
X18222989Y-7267405D01*
X18132254Y-7206779D01*
X18021314Y-7160826D01*
X17903540Y-7137400D01*
X17783460Y-7137400D01*
X17665686Y-7160826D01*
X17554746Y-7206779D01*
X17454902Y-7273492D01*
X17369992Y-7358402D01*
X17303279Y-7458246D01*
X17257326Y-7569186D01*
X17233900Y-7686960D01*
X14129790Y-7686960D01*
X14206710Y-7635564D01*
X14284544Y-7557730D01*
X14345698Y-7466207D01*
X14387822Y-7364512D01*
X14409296Y-7256553D01*
X14409296Y-7146479D01*
X14387822Y-7038520D01*
X14345698Y-6936825D01*
X14284544Y-6845302D01*
X14206710Y-6767468D01*
X14115187Y-6706314D01*
X14013492Y-6664190D01*
X13905533Y-6642716D01*
X13795459Y-6642716D01*
X13687500Y-6664190D01*
X13585805Y-6706314D01*
X13494282Y-6767468D01*
X13416448Y-6845302D01*
X13415493Y-6846731D01*
X13373714Y-6804952D01*
X13282191Y-6743798D01*
X13180496Y-6701674D01*
X13072537Y-6680200D01*
X12962463Y-6680200D01*
X12854504Y-6701674D01*
X12752809Y-6743798D01*
X12661286Y-6804952D01*
X12583452Y-6882786D01*
X12522298Y-6974309D01*
X12480174Y-7076004D01*
X12458700Y-7183963D01*
X12458700Y-7294037D01*
X12462391Y-7312594D01*
X12411246Y-7333779D01*
X12311402Y-7400492D01*
X12252563Y-7459331D01*
X12270174Y-7416814D01*
X12293600Y-7299040D01*
X12293600Y-7178960D01*
X12270174Y-7061186D01*
X12224221Y-6950246D01*
X12157508Y-6850402D01*
X12072598Y-6765492D01*
X11972754Y-6698779D01*
X11861814Y-6652826D01*
X11744040Y-6629400D01*
X11623960Y-6629400D01*
X11506186Y-6652826D01*
X11395246Y-6698779D01*
X11295402Y-6765492D01*
X11210492Y-6850402D01*
X11143779Y-6950246D01*
X11097826Y-7061186D01*
X11074400Y-7178960D01*
X9753600Y-7178960D01*
X9730174Y-7061186D01*
X9684221Y-6950246D01*
X9617508Y-6850402D01*
X9532598Y-6765492D01*
X9432754Y-6698779D01*
X9321814Y-6652826D01*
X9204040Y-6629400D01*
X9083960Y-6629400D01*
X8966186Y-6652826D01*
X8855246Y-6698779D01*
X8755402Y-6765492D01*
X8670492Y-6850402D01*
X8603779Y-6950246D01*
X8557826Y-7061186D01*
X8534400Y-7178960D01*
X7289084Y-7178960D01*
X7266661Y-7174500D01*
X7146581Y-7174500D01*
X7028807Y-7197926D01*
X6917867Y-7243879D01*
X6818023Y-7310592D01*
X6733113Y-7395502D01*
X6666400Y-7495346D01*
X6620447Y-7606286D01*
X6597021Y-7724060D01*
X5536800Y-7724060D01*
X5536800Y-6221255D01*
X6251253Y-6221255D01*
X6251253Y-6326325D01*
X6271751Y-6429377D01*
X6311960Y-6526450D01*
X6370334Y-6613813D01*
X6444630Y-6688109D01*
X6531993Y-6746483D01*
X6629066Y-6786692D01*
X6732118Y-6807190D01*
X6837188Y-6807190D01*
X6940240Y-6786692D01*
X7037313Y-6746483D01*
X7124676Y-6688109D01*
X7198972Y-6613813D01*
X7253797Y-6531762D01*
X7297677Y-6540490D01*
X7402747Y-6540490D01*
X7505799Y-6519992D01*
X7602872Y-6479783D01*
X7690235Y-6421409D01*
X7764531Y-6347113D01*
X7822905Y-6259750D01*
X7863114Y-6162677D01*
X7883612Y-6059625D01*
X7883612Y-5954555D01*
X7863114Y-5851503D01*
X7822905Y-5754430D01*
X7764531Y-5667067D01*
X7690235Y-5592771D01*
X7602872Y-5534397D01*
X7505799Y-5494188D01*
X7402747Y-5473690D01*
X7297677Y-5473690D01*
X7194625Y-5494188D01*
X7097552Y-5534397D01*
X7010189Y-5592771D01*
X6935893Y-5667067D01*
X6881068Y-5749118D01*
X6837188Y-5740390D01*
X6732118Y-5740390D01*
X6629066Y-5760888D01*
X6531993Y-5801097D01*
X6444630Y-5859471D01*
X6370334Y-5933767D01*
X6311960Y-6021130D01*
X6271751Y-6118203D01*
X6251253Y-6221255D01*
X5536800Y-6221255D01*
X5536800Y-4557145D01*
X6928585Y-4557145D01*
X6928585Y-4677225D01*
X6952011Y-4794999D01*
X6997964Y-4905939D01*
X7064677Y-5005783D01*
X7149587Y-5090693D01*
X7249431Y-5157406D01*
X7360371Y-5203359D01*
X7478145Y-5226785D01*
X7598225Y-5226785D01*
X7715999Y-5203359D01*
X7826939Y-5157406D01*
X7926783Y-5090693D01*
X8011693Y-5005783D01*
X8078406Y-4905939D01*
X8116345Y-4814345D01*
X8207939Y-4776406D01*
X8240249Y-4754817D01*
X8225674Y-4790004D01*
X8204200Y-4897963D01*
X8204200Y-5008037D01*
X8225674Y-5115996D01*
X8267798Y-5217691D01*
X8328952Y-5309214D01*
X8406786Y-5387048D01*
X8498309Y-5448202D01*
X8600004Y-5490326D01*
X8707963Y-5511800D01*
X8712200Y-5511800D01*
X8712200Y-5579537D01*
X8733674Y-5687496D01*
X8775798Y-5789191D01*
X8836952Y-5880714D01*
X8914786Y-5958548D01*
X9006309Y-6019702D01*
X9108004Y-6061826D01*
X9215963Y-6083300D01*
X9326037Y-6083300D01*
X9433996Y-6061826D01*
X9535691Y-6019702D01*
X9627214Y-5958548D01*
X9705048Y-5880714D01*
X9766202Y-5789191D01*
X9808326Y-5687496D01*
X9829800Y-5579537D01*
X9829800Y-5469463D01*
X9808326Y-5361504D01*
X9766202Y-5259809D01*
X9705048Y-5168286D01*
X9627214Y-5090452D01*
X9535691Y-5029298D01*
X9433996Y-4987174D01*
X9326404Y-4965773D01*
X9432754Y-4921721D01*
X9532598Y-4855008D01*
X9617508Y-4770098D01*
X9684221Y-4670254D01*
X9730174Y-4559314D01*
X9753600Y-4441540D01*
X9753600Y-4321460D01*
X9730174Y-4203686D01*
X9685465Y-4095750D01*
X9730174Y-3987814D01*
X9749355Y-3891379D01*
X11596819Y-3891379D01*
X11596819Y-4011459D01*
X11620245Y-4129233D01*
X11666198Y-4240173D01*
X11732911Y-4340017D01*
X11817821Y-4424927D01*
X11917665Y-4491640D01*
X12028605Y-4537593D01*
X12146379Y-4561019D01*
X12266459Y-4561019D01*
X12384233Y-4537593D01*
X12469041Y-4502464D01*
X12455148Y-4536004D01*
X12433674Y-4643963D01*
X12433674Y-4754037D01*
X12455148Y-4861996D01*
X12497272Y-4963691D01*
X12558426Y-5055214D01*
X12563975Y-5060763D01*
X12519952Y-5104786D01*
X12458798Y-5196309D01*
X12416674Y-5298004D01*
X12395200Y-5405963D01*
X12395200Y-5516037D01*
X12416674Y-5623996D01*
X12458798Y-5725691D01*
X12519952Y-5817214D01*
X12597786Y-5895048D01*
X12689309Y-5956202D01*
X12791004Y-5998326D01*
X12898963Y-6019800D01*
X13009037Y-6019800D01*
X13116996Y-5998326D01*
X13218691Y-5956202D01*
X13310214Y-5895048D01*
X13388048Y-5817214D01*
X13449202Y-5725691D01*
X13491326Y-5623996D01*
X13512800Y-5516037D01*
X13512800Y-5405963D01*
X13491326Y-5298004D01*
X13453433Y-5206523D01*
X14434494Y-5206523D01*
X14434494Y-5316597D01*
X14455968Y-5424556D01*
X14498092Y-5526251D01*
X14559246Y-5617774D01*
X14637080Y-5695608D01*
X14728603Y-5756762D01*
X14830298Y-5798886D01*
X14938257Y-5820360D01*
X15048331Y-5820360D01*
X15156290Y-5798886D01*
X15257985Y-5756762D01*
X15349508Y-5695608D01*
X15427342Y-5617774D01*
X15488496Y-5526251D01*
X15530620Y-5424556D01*
X15552094Y-5316597D01*
X15552094Y-5206523D01*
X15530620Y-5098564D01*
X15488496Y-4996869D01*
X15427342Y-4905346D01*
X15356459Y-4834463D01*
X16776700Y-4834463D01*
X16776700Y-4944537D01*
X16798174Y-5052496D01*
X16840298Y-5154191D01*
X16901452Y-5245714D01*
X16933939Y-5278201D01*
X16903798Y-5323309D01*
X16861674Y-5425004D01*
X16840200Y-5532963D01*
X16840200Y-5643037D01*
X16861674Y-5750996D01*
X16903798Y-5852691D01*
X16964952Y-5944214D01*
X17042786Y-6022048D01*
X17134309Y-6083202D01*
X17236004Y-6125326D01*
X17343963Y-6146800D01*
X17454037Y-6146800D01*
X17561996Y-6125326D01*
X17663691Y-6083202D01*
X17755214Y-6022048D01*
X17833048Y-5944214D01*
X17894202Y-5852691D01*
X17936326Y-5750996D01*
X17957800Y-5643037D01*
X17957800Y-5532963D01*
X17936326Y-5425004D01*
X17894202Y-5323309D01*
X17833048Y-5231786D01*
X17800561Y-5199299D01*
X17830702Y-5154191D01*
X17872826Y-5052496D01*
X17894300Y-4944537D01*
X17894300Y-4927600D01*
X17967040Y-4927600D01*
X18084814Y-4904174D01*
X18175203Y-4866733D01*
X18195492Y-4897098D01*
X18208292Y-4909898D01*
X18186400Y-5019960D01*
X18186400Y-5140040D01*
X18209826Y-5257814D01*
X18255779Y-5368754D01*
X18322492Y-5468598D01*
X18407402Y-5553508D01*
X18507246Y-5620221D01*
X18618186Y-5666174D01*
X18735960Y-5689600D01*
X18856040Y-5689600D01*
X18973814Y-5666174D01*
X19074914Y-5624297D01*
X19098746Y-5640221D01*
X19209686Y-5686174D01*
X19327460Y-5709600D01*
X19447540Y-5709600D01*
X19565314Y-5686174D01*
X19676254Y-5640221D01*
X19776098Y-5573508D01*
X19861008Y-5488598D01*
X19927721Y-5388754D01*
X19973674Y-5277814D01*
X19997100Y-5160040D01*
X19997100Y-5039960D01*
X19973674Y-4922186D01*
X19927721Y-4811246D01*
X19861008Y-4711402D01*
X19776098Y-4626492D01*
X19676254Y-4559779D01*
X19565314Y-4513826D01*
X19447540Y-4490400D01*
X19327460Y-4490400D01*
X19278600Y-4500119D01*
X19278600Y-4448460D01*
X19255174Y-4330686D01*
X19209221Y-4219746D01*
X19142508Y-4119902D01*
X19057598Y-4034992D01*
X18957754Y-3968279D01*
X18846814Y-3922326D01*
X18729040Y-3898900D01*
X18608960Y-3898900D01*
X18493668Y-3921832D01*
X18516600Y-3806540D01*
X18516600Y-3686460D01*
X18493174Y-3568686D01*
X18448465Y-3460750D01*
X18493174Y-3352814D01*
X18516600Y-3235040D01*
X18516600Y-3114960D01*
X18493174Y-2997186D01*
X18447221Y-2886246D01*
X18380508Y-2786402D01*
X18295598Y-2701492D01*
X18195754Y-2634779D01*
X18173334Y-2625492D01*
X19599316Y-2625492D01*
X19662198Y-2807197D01*
X19771171Y-2979225D01*
X19911611Y-3126688D01*
X20078121Y-3243919D01*
X20264302Y-3326413D01*
X20463000Y-3371000D01*
X21063000Y-3371000D01*
X21063000Y-2467000D01*
X19662908Y-2467000D01*
X19599316Y-2625492D01*
X18173334Y-2625492D01*
X18084814Y-2588826D01*
X17967040Y-2565400D01*
X17846960Y-2565400D01*
X17729186Y-2588826D01*
X17618246Y-2634779D01*
X17518402Y-2701492D01*
X17433492Y-2786402D01*
X17411444Y-2819400D01*
X17338960Y-2819400D01*
X17221186Y-2842826D01*
X17110246Y-2888779D01*
X17010402Y-2955492D01*
X16925492Y-3040402D01*
X16858779Y-3140246D01*
X16812826Y-3251186D01*
X16789400Y-3368960D01*
X16789400Y-3489040D01*
X16812826Y-3606814D01*
X16858779Y-3717754D01*
X16877986Y-3746500D01*
X16858779Y-3775246D01*
X16812826Y-3886186D01*
X16789400Y-4003960D01*
X16789400Y-4124040D01*
X16812826Y-4241814D01*
X16858779Y-4352754D01*
X16925492Y-4452598D01*
X16953816Y-4480922D01*
X16901452Y-4533286D01*
X16840298Y-4624809D01*
X16798174Y-4726504D01*
X16776700Y-4834463D01*
X15356459Y-4834463D01*
X15349508Y-4827512D01*
X15257985Y-4766358D01*
X15156290Y-4724234D01*
X15048331Y-4702760D01*
X14938257Y-4702760D01*
X14830298Y-4724234D01*
X14728603Y-4766358D01*
X14637080Y-4827512D01*
X14559246Y-4905346D01*
X14498092Y-4996869D01*
X14455968Y-5098564D01*
X14434494Y-5206523D01*
X13453433Y-5206523D01*
X13449202Y-5196309D01*
X13388048Y-5104786D01*
X13382499Y-5099237D01*
X13426522Y-5055214D01*
X13487676Y-4963691D01*
X13529800Y-4861996D01*
X13551274Y-4754037D01*
X13551274Y-4692766D01*
X13559674Y-4734996D01*
X13601798Y-4836691D01*
X13662952Y-4928214D01*
X13740786Y-5006048D01*
X13832309Y-5067202D01*
X13934004Y-5109326D01*
X14041963Y-5130800D01*
X14152037Y-5130800D01*
X14259996Y-5109326D01*
X14361691Y-5067202D01*
X14453214Y-5006048D01*
X14531048Y-4928214D01*
X14592202Y-4836691D01*
X14634326Y-4734996D01*
X14655800Y-4627037D01*
X14655800Y-4516963D01*
X14636213Y-4418490D01*
X14707214Y-4371048D01*
X14785048Y-4293214D01*
X14846202Y-4201691D01*
X14888326Y-4099996D01*
X14909800Y-3992037D01*
X14909800Y-3881963D01*
X14888326Y-3774004D01*
X14846202Y-3672309D01*
X14785048Y-3580786D01*
X14707214Y-3502952D01*
X14615691Y-3441798D01*
X14513996Y-3399674D01*
X14406037Y-3378200D01*
X14295963Y-3378200D01*
X14188004Y-3399674D01*
X14086309Y-3441798D01*
X13994786Y-3502952D01*
X13916952Y-3580786D01*
X13855798Y-3672309D01*
X13813674Y-3774004D01*
X13792200Y-3881963D01*
X13792200Y-3992037D01*
X13811787Y-4090510D01*
X13740786Y-4137952D01*
X13662952Y-4215786D01*
X13601798Y-4307309D01*
X13559674Y-4409004D01*
X13538200Y-4516963D01*
X13538200Y-4578234D01*
X13529800Y-4536004D01*
X13487676Y-4434309D01*
X13426522Y-4342786D01*
X13348688Y-4264952D01*
X13257165Y-4203798D01*
X13155470Y-4161674D01*
X13047511Y-4140200D01*
X12937437Y-4140200D01*
X12829478Y-4161674D01*
X12768733Y-4186836D01*
X12792593Y-4129233D01*
X12816019Y-4011459D01*
X12816019Y-3891379D01*
X12792593Y-3773605D01*
X12746640Y-3662665D01*
X12679927Y-3562821D01*
X12595017Y-3477911D01*
X12495173Y-3411198D01*
X12384233Y-3365245D01*
X12266459Y-3341819D01*
X12146379Y-3341819D01*
X12028605Y-3365245D01*
X11917665Y-3411198D01*
X11817821Y-3477911D01*
X11732911Y-3562821D01*
X11666198Y-3662665D01*
X11620245Y-3773605D01*
X11596819Y-3891379D01*
X9749355Y-3891379D01*
X9753600Y-3870040D01*
X9753600Y-3749960D01*
X9730174Y-3632186D01*
X9685465Y-3524250D01*
X9730174Y-3416314D01*
X9753600Y-3298540D01*
X9753600Y-3178460D01*
X9730174Y-3060686D01*
X9684221Y-2949746D01*
X9617508Y-2849902D01*
X9532598Y-2764992D01*
X9432754Y-2698279D01*
X9321814Y-2652326D01*
X9204040Y-2628900D01*
X9083960Y-2628900D01*
X8966186Y-2652326D01*
X8855246Y-2698279D01*
X8755402Y-2764992D01*
X8670492Y-2849902D01*
X8648444Y-2882900D01*
X8575960Y-2882900D01*
X8458186Y-2906326D01*
X8347246Y-2952279D01*
X8247402Y-3018992D01*
X8162492Y-3103902D01*
X8095779Y-3203746D01*
X8049826Y-3314686D01*
X8026400Y-3432460D01*
X8026400Y-3552540D01*
X8043678Y-3639405D01*
X7979225Y-3626585D01*
X7859145Y-3626585D01*
X7741371Y-3650011D01*
X7630431Y-3695964D01*
X7530587Y-3762677D01*
X7445677Y-3847587D01*
X7378964Y-3947431D01*
X7341025Y-4039025D01*
X7249431Y-4076964D01*
X7149587Y-4143677D01*
X7064677Y-4228587D01*
X6997964Y-4328431D01*
X6952011Y-4439371D01*
X6928585Y-4557145D01*
X5536800Y-4557145D01*
X5536800Y-2054508D01*
X19599316Y-2054508D01*
X19662908Y-2213000D01*
X21063000Y-2213000D01*
X21063000Y-1309000D01*
X20463000Y-1309000D01*
X20264302Y-1353587D01*
X20078121Y-1436081D01*
X19911611Y-1553312D01*
X19771171Y-1700775D01*
X19662198Y-1872803D01*
X19599316Y-2054508D01*
X5536800Y-2054508D01*
X5536800Y-1921193D01*
X5538395Y-1905000D01*
X5532027Y-1840348D01*
X5513169Y-1778181D01*
X5482545Y-1720887D01*
X5441332Y-1670668D01*
X5391113Y-1629455D01*
X5333819Y-1598831D01*
X5271652Y-1579973D01*
X5223193Y-1575200D01*
X5207000Y-1573605D01*
X5190807Y-1575200D01*
X329800Y-1575200D01*
X329800Y-329800D01*
X25035201Y-329800D01*
X25035200Y-1785200D01*
G37*
%TD.AperFunction*%
%TD*%
M02*
