%TF.GenerationSoftware,KiCad,Pcbnew,(6.0.10)*%
%TF.CreationDate,2023-01-29T16:34:23+01:00*%
%TF.ProjectId,twonkie,74776f6e-6b69-4652-9e6b-696361645f70,rev?*%
%TF.SameCoordinates,PX448d510PY20b3950*%
%TF.FileFunction,Profile,NP*%
%FSLAX46Y46*%
G04 Gerber Fmt 4.6, Leading zero omitted, Abs format (unit mm)*
G04 Created by KiCad (PCBNEW (6.0.10)) date 2023-01-29 16:34:23*
%MOMM*%
%LPD*%
G01*
G04 APERTURE LIST*
%TA.AperFunction,Profile*%
%ADD10C,0.050000*%
%TD*%
%TA.AperFunction,Profile*%
%ADD11C,0.050800*%
%TD*%
%TA.AperFunction,Profile*%
%ADD12C,0.120000*%
%TD*%
G04 APERTURE END LIST*
D10*
X24892000Y-25400000D02*
X508000Y-25400000D01*
X0Y-508000D02*
X0Y-1905000D01*
X3937000Y-10795000D02*
X0Y-10795000D01*
X5207000Y-3175000D02*
X5207000Y-9525000D01*
X24892000Y0D02*
X508000Y0D01*
X0Y-1905000D02*
X3937000Y-1905000D01*
D11*
X3937000Y-10795000D02*
G75*
G03*
X5207000Y-9525000I635000J635000D01*
G01*
D10*
X24892000Y-25400000D02*
G75*
G03*
X25400000Y-24892000I0J508000D01*
G01*
X0Y-10795000D02*
X0Y-24892000D01*
X0Y-24892000D02*
G75*
G03*
X508000Y-25400000I508000J0D01*
G01*
X25400000Y-508000D02*
G75*
G03*
X24892000Y0I-508000J0D01*
G01*
X508000Y0D02*
G75*
G03*
X0Y-508000I0J-508000D01*
G01*
D11*
X5207000Y-3175000D02*
G75*
G03*
X3937000Y-1905000I-635000J635000D01*
G01*
D10*
X25400000Y-12192000D02*
X25400000Y-24892000D01*
D12*
%TO.C,J1*%
X23190000Y-2150000D02*
X23190000Y-1600000D01*
X21590000Y-11100000D02*
X23190000Y-11100000D01*
X21590000Y-1600000D02*
X23190000Y-1600000D01*
X21590000Y-11100000D02*
X21590000Y-1600000D01*
X23190000Y-10550000D02*
X25400000Y-10550000D01*
X25400000Y-10550000D02*
X25400000Y-12192000D01*
X23190000Y-2150000D02*
X25400000Y-2150000D01*
X25400000Y-2150000D02*
X25400000Y-508000D01*
X23190000Y-10550000D02*
X23190000Y-11100000D01*
%TD*%
M02*
