%TF.GenerationSoftware,KiCad,Pcbnew,(6.0.10)*%
%TF.CreationDate,2023-02-04T16:55:40+01:00*%
%TF.ProjectId,twonkie,74776f6e-6b69-4652-9e6b-696361645f70,rev?*%
%TF.SameCoordinates,PX448d510PY20b3950*%
%TF.FileFunction,Legend,Bot*%
%TF.FilePolarity,Positive*%
%FSLAX46Y46*%
G04 Gerber Fmt 4.6, Leading zero omitted, Abs format (unit mm)*
G04 Created by KiCad (PCBNEW (6.0.10)) date 2023-02-04 16:55:40*
%MOMM*%
%LPD*%
G01*
G04 APERTURE LIST*
%ADD10C,0.120000*%
%ADD11C,0.114300*%
%ADD12C,0.127000*%
%ADD13C,0.150000*%
G04 APERTURE END LIST*
D10*
X10287000Y-16256000D02*
X10287000Y-24257000D01*
X10287000Y-16256000D02*
X10795000Y-16256000D01*
X11430000Y-24257000D02*
X10985500Y-24574500D01*
X6921500Y-16256000D02*
X10287000Y-16256000D01*
X10795000Y-16256000D02*
X10795000Y-15113000D01*
X10795000Y-15113000D02*
X10922000Y-15113000D01*
X10922000Y-15113000D02*
X10922000Y-12954000D01*
X11430000Y-24257000D02*
X10985500Y-23939500D01*
X10287000Y-24257000D02*
X11430000Y-24257000D01*
D11*
X13424548Y-12162971D02*
X13400055Y-12141200D01*
X13353791Y-12119428D01*
X13244934Y-12119428D01*
X13204112Y-12141200D01*
X13185062Y-12162971D01*
X13168734Y-12206514D01*
X13174177Y-12250057D01*
X13204112Y-12315371D01*
X13498027Y-12576628D01*
X13214998Y-12576628D01*
X12874820Y-12119428D02*
X12831277Y-12119428D01*
X12790455Y-12141200D01*
X12771405Y-12162971D01*
X12755077Y-12206514D01*
X12744191Y-12293600D01*
X12757798Y-12402457D01*
X12790455Y-12489542D01*
X12817670Y-12533085D01*
X12842162Y-12554857D01*
X12888427Y-12576628D01*
X12931970Y-12576628D01*
X12972791Y-12554857D01*
X12991841Y-12533085D01*
X13008170Y-12489542D01*
X13019055Y-12402457D01*
X13005448Y-12293600D01*
X12972791Y-12206514D01*
X12945577Y-12162971D01*
X12921084Y-12141200D01*
X12874820Y-12119428D01*
X12553691Y-12162971D02*
X12529198Y-12141200D01*
X12482934Y-12119428D01*
X12374077Y-12119428D01*
X12333255Y-12141200D01*
X12314205Y-12162971D01*
X12297877Y-12206514D01*
X12303320Y-12250057D01*
X12333255Y-12315371D01*
X12627170Y-12576628D01*
X12344141Y-12576628D01*
X12134591Y-12119428D02*
X11851562Y-12119428D01*
X12025734Y-12293600D01*
X11960420Y-12293600D01*
X11919598Y-12315371D01*
X11900548Y-12337142D01*
X11884220Y-12380685D01*
X11897827Y-12489542D01*
X11925041Y-12533085D01*
X11949534Y-12554857D01*
X11995798Y-12576628D01*
X12126427Y-12576628D01*
X12167248Y-12554857D01*
X12186298Y-12533085D01*
D12*
X20026085Y-1030514D02*
X19928114Y-1063171D01*
X19895457Y-1095828D01*
X19862800Y-1161142D01*
X19862800Y-1259114D01*
X19895457Y-1324428D01*
X19928114Y-1357085D01*
X19993428Y-1389742D01*
X20254685Y-1389742D01*
X20254685Y-703942D01*
X20026085Y-703942D01*
X19960771Y-736600D01*
X19928114Y-769257D01*
X19895457Y-834571D01*
X19895457Y-899885D01*
X19928114Y-965200D01*
X19960771Y-997857D01*
X20026085Y-1030514D01*
X20254685Y-1030514D01*
X19274971Y-1389742D02*
X19274971Y-1030514D01*
X19307628Y-965200D01*
X19372942Y-932542D01*
X19503571Y-932542D01*
X19568885Y-965200D01*
X19274971Y-1357085D02*
X19340285Y-1389742D01*
X19503571Y-1389742D01*
X19568885Y-1357085D01*
X19601542Y-1291771D01*
X19601542Y-1226457D01*
X19568885Y-1161142D01*
X19503571Y-1128485D01*
X19340285Y-1128485D01*
X19274971Y-1095828D01*
X18981057Y-1357085D02*
X18915742Y-1389742D01*
X18785114Y-1389742D01*
X18719800Y-1357085D01*
X18687142Y-1291771D01*
X18687142Y-1259114D01*
X18719800Y-1193800D01*
X18785114Y-1161142D01*
X18883085Y-1161142D01*
X18948400Y-1128485D01*
X18981057Y-1063171D01*
X18981057Y-1030514D01*
X18948400Y-965200D01*
X18883085Y-932542D01*
X18785114Y-932542D01*
X18719800Y-965200D01*
X18131971Y-1357085D02*
X18197285Y-1389742D01*
X18327914Y-1389742D01*
X18393228Y-1357085D01*
X18425885Y-1291771D01*
X18425885Y-1030514D01*
X18393228Y-965200D01*
X18327914Y-932542D01*
X18197285Y-932542D01*
X18131971Y-965200D01*
X18099314Y-1030514D01*
X18099314Y-1095828D01*
X18425885Y-1161142D01*
X17511485Y-1389742D02*
X17511485Y-703942D01*
X17511485Y-1357085D02*
X17576800Y-1389742D01*
X17707428Y-1389742D01*
X17772742Y-1357085D01*
X17805400Y-1324428D01*
X17838057Y-1259114D01*
X17838057Y-1063171D01*
X17805400Y-997857D01*
X17772742Y-965200D01*
X17707428Y-932542D01*
X17576800Y-932542D01*
X17511485Y-965200D01*
X16564428Y-1389742D02*
X16629742Y-1357085D01*
X16662400Y-1324428D01*
X16695057Y-1259114D01*
X16695057Y-1063171D01*
X16662400Y-997857D01*
X16629742Y-965200D01*
X16564428Y-932542D01*
X16466457Y-932542D01*
X16401142Y-965200D01*
X16368485Y-997857D01*
X16335828Y-1063171D01*
X16335828Y-1259114D01*
X16368485Y-1324428D01*
X16401142Y-1357085D01*
X16466457Y-1389742D01*
X16564428Y-1389742D01*
X16041914Y-932542D02*
X16041914Y-1389742D01*
X16041914Y-997857D02*
X16009257Y-965200D01*
X15943942Y-932542D01*
X15845971Y-932542D01*
X15780657Y-965200D01*
X15748000Y-1030514D01*
X15748000Y-1389742D01*
X14539685Y-736600D02*
X14605000Y-703942D01*
X14702971Y-703942D01*
X14800942Y-736600D01*
X14866257Y-801914D01*
X14898914Y-867228D01*
X14931571Y-997857D01*
X14931571Y-1095828D01*
X14898914Y-1226457D01*
X14866257Y-1291771D01*
X14800942Y-1357085D01*
X14702971Y-1389742D01*
X14637657Y-1389742D01*
X14539685Y-1357085D01*
X14507028Y-1324428D01*
X14507028Y-1095828D01*
X14637657Y-1095828D01*
X14115142Y-1389742D02*
X14180457Y-1357085D01*
X14213114Y-1324428D01*
X14245771Y-1259114D01*
X14245771Y-1063171D01*
X14213114Y-997857D01*
X14180457Y-965200D01*
X14115142Y-932542D01*
X14017171Y-932542D01*
X13951857Y-965200D01*
X13919200Y-997857D01*
X13886542Y-1063171D01*
X13886542Y-1259114D01*
X13919200Y-1324428D01*
X13951857Y-1357085D01*
X14017171Y-1389742D01*
X14115142Y-1389742D01*
X13494657Y-1389742D02*
X13559971Y-1357085D01*
X13592628Y-1324428D01*
X13625285Y-1259114D01*
X13625285Y-1063171D01*
X13592628Y-997857D01*
X13559971Y-965200D01*
X13494657Y-932542D01*
X13396685Y-932542D01*
X13331371Y-965200D01*
X13298714Y-997857D01*
X13266057Y-1063171D01*
X13266057Y-1259114D01*
X13298714Y-1324428D01*
X13331371Y-1357085D01*
X13396685Y-1389742D01*
X13494657Y-1389742D01*
X12678228Y-932542D02*
X12678228Y-1487714D01*
X12710885Y-1553028D01*
X12743542Y-1585685D01*
X12808857Y-1618342D01*
X12906828Y-1618342D01*
X12972142Y-1585685D01*
X12678228Y-1357085D02*
X12743542Y-1389742D01*
X12874171Y-1389742D01*
X12939485Y-1357085D01*
X12972142Y-1324428D01*
X13004800Y-1259114D01*
X13004800Y-1063171D01*
X12972142Y-997857D01*
X12939485Y-965200D01*
X12874171Y-932542D01*
X12743542Y-932542D01*
X12678228Y-965200D01*
X12253685Y-1389742D02*
X12319000Y-1357085D01*
X12351657Y-1291771D01*
X12351657Y-703942D01*
X11731171Y-1357085D02*
X11796485Y-1389742D01*
X11927114Y-1389742D01*
X11992428Y-1357085D01*
X12025085Y-1291771D01*
X12025085Y-1030514D01*
X11992428Y-965200D01*
X11927114Y-932542D01*
X11796485Y-932542D01*
X11731171Y-965200D01*
X11698514Y-1030514D01*
X11698514Y-1095828D01*
X12025085Y-1161142D01*
X11371942Y-703942D02*
X11437257Y-834571D01*
X11110685Y-1357085D02*
X11045371Y-1389742D01*
X10914742Y-1389742D01*
X10849428Y-1357085D01*
X10816771Y-1291771D01*
X10816771Y-1259114D01*
X10849428Y-1193800D01*
X10914742Y-1161142D01*
X11012714Y-1161142D01*
X11078028Y-1128485D01*
X11110685Y-1063171D01*
X11110685Y-1030514D01*
X11078028Y-965200D01*
X11012714Y-932542D01*
X10914742Y-932542D01*
X10849428Y-965200D01*
X10098314Y-703942D02*
X9706428Y-703942D01*
X9902371Y-1389742D02*
X9902371Y-703942D01*
X9543142Y-932542D02*
X9412514Y-1389742D01*
X9281885Y-1063171D01*
X9151257Y-1389742D01*
X9020628Y-932542D01*
X8759371Y-1389742D02*
X8759371Y-932542D01*
X8759371Y-703942D02*
X8792028Y-736600D01*
X8759371Y-769257D01*
X8726714Y-736600D01*
X8759371Y-703942D01*
X8759371Y-769257D01*
X8432800Y-932542D02*
X8432800Y-1389742D01*
X8432800Y-997857D02*
X8400142Y-965200D01*
X8334828Y-932542D01*
X8236857Y-932542D01*
X8171542Y-965200D01*
X8138885Y-1030514D01*
X8138885Y-1389742D01*
X7812314Y-1389742D02*
X7812314Y-703942D01*
X7747000Y-1128485D02*
X7551057Y-1389742D01*
X7551057Y-932542D02*
X7812314Y-1193800D01*
X7257142Y-1389742D02*
X7257142Y-932542D01*
X7257142Y-703942D02*
X7289800Y-736600D01*
X7257142Y-769257D01*
X7224485Y-736600D01*
X7257142Y-703942D01*
X7257142Y-769257D01*
X6669314Y-1357085D02*
X6734628Y-1389742D01*
X6865257Y-1389742D01*
X6930571Y-1357085D01*
X6963228Y-1291771D01*
X6963228Y-1030514D01*
X6930571Y-965200D01*
X6865257Y-932542D01*
X6734628Y-932542D01*
X6669314Y-965200D01*
X6636657Y-1030514D01*
X6636657Y-1095828D01*
X6963228Y-1161142D01*
D13*
%TO.C,U4*%
X11110980Y-13360495D02*
X11920504Y-13360495D01*
X12015742Y-13408114D01*
X12063361Y-13455733D01*
X12110980Y-13550971D01*
X12110980Y-13741447D01*
X12063361Y-13836685D01*
X12015742Y-13884304D01*
X11920504Y-13931923D01*
X11110980Y-13931923D01*
X11444314Y-14836685D02*
X12110980Y-14836685D01*
X11063361Y-14598590D02*
X11777647Y-14360495D01*
X11777647Y-14979542D01*
D12*
%TO.C,R4*%
X10287000Y-14822714D02*
X10541000Y-14459857D01*
X10722428Y-14822714D02*
X10722428Y-14060714D01*
X10432142Y-14060714D01*
X10359571Y-14097000D01*
X10323285Y-14133285D01*
X10287000Y-14205857D01*
X10287000Y-14314714D01*
X10323285Y-14387285D01*
X10359571Y-14423571D01*
X10432142Y-14459857D01*
X10722428Y-14459857D01*
X9633857Y-14314714D02*
X9633857Y-14822714D01*
X9815285Y-14024428D02*
X9996714Y-14568714D01*
X9525000Y-14568714D01*
%TO.C,U3*%
X7139214Y-18621828D02*
X7756071Y-18621828D01*
X7828642Y-18658114D01*
X7864928Y-18694400D01*
X7901214Y-18766971D01*
X7901214Y-18912114D01*
X7864928Y-18984685D01*
X7828642Y-19020971D01*
X7756071Y-19057257D01*
X7139214Y-19057257D01*
X7139214Y-19347542D02*
X7139214Y-19819257D01*
X7429500Y-19565257D01*
X7429500Y-19674114D01*
X7465785Y-19746685D01*
X7502071Y-19782971D01*
X7574642Y-19819257D01*
X7756071Y-19819257D01*
X7828642Y-19782971D01*
X7864928Y-19746685D01*
X7901214Y-19674114D01*
X7901214Y-19456400D01*
X7864928Y-19383828D01*
X7828642Y-19347542D01*
%TO.C,TP2*%
X10232571Y-15330714D02*
X9797142Y-15330714D01*
X10014857Y-16092714D02*
X10014857Y-15330714D01*
X9543142Y-16092714D02*
X9543142Y-15330714D01*
X9252857Y-15330714D01*
X9180285Y-15367000D01*
X9144000Y-15403285D01*
X9107714Y-15475857D01*
X9107714Y-15584714D01*
X9144000Y-15657285D01*
X9180285Y-15693571D01*
X9252857Y-15729857D01*
X9543142Y-15729857D01*
X8817428Y-15403285D02*
X8781142Y-15367000D01*
X8708571Y-15330714D01*
X8527142Y-15330714D01*
X8454571Y-15367000D01*
X8418285Y-15403285D01*
X8382000Y-15475857D01*
X8382000Y-15548428D01*
X8418285Y-15657285D01*
X8853714Y-16092714D01*
X8382000Y-16092714D01*
%TO.C,TP3*%
X9153071Y-14060714D02*
X8717642Y-14060714D01*
X8935357Y-14822714D02*
X8935357Y-14060714D01*
X8463642Y-14822714D02*
X8463642Y-14060714D01*
X8173357Y-14060714D01*
X8100785Y-14097000D01*
X8064500Y-14133285D01*
X8028214Y-14205857D01*
X8028214Y-14314714D01*
X8064500Y-14387285D01*
X8100785Y-14423571D01*
X8173357Y-14459857D01*
X8463642Y-14459857D01*
X7774214Y-14060714D02*
X7302500Y-14060714D01*
X7556500Y-14351000D01*
X7447642Y-14351000D01*
X7375071Y-14387285D01*
X7338785Y-14423571D01*
X7302500Y-14496142D01*
X7302500Y-14677571D01*
X7338785Y-14750142D01*
X7375071Y-14786428D01*
X7447642Y-14822714D01*
X7665357Y-14822714D01*
X7737928Y-14786428D01*
X7774214Y-14750142D01*
%TO.C,TP1*%
X21535571Y-11774714D02*
X21100142Y-11774714D01*
X21317857Y-12536714D02*
X21317857Y-11774714D01*
X20846142Y-12536714D02*
X20846142Y-11774714D01*
X20555857Y-11774714D01*
X20483285Y-11811000D01*
X20447000Y-11847285D01*
X20410714Y-11919857D01*
X20410714Y-12028714D01*
X20447000Y-12101285D01*
X20483285Y-12137571D01*
X20555857Y-12173857D01*
X20846142Y-12173857D01*
X19685000Y-12536714D02*
X20120428Y-12536714D01*
X19902714Y-12536714D02*
X19902714Y-11774714D01*
X19975285Y-11883571D01*
X20047857Y-11956142D01*
X20120428Y-11992428D01*
%TO.C,C3*%
X10368642Y-13081000D02*
X10404928Y-13044714D01*
X10441214Y-12935857D01*
X10441214Y-12863285D01*
X10404928Y-12754428D01*
X10332357Y-12681857D01*
X10259785Y-12645571D01*
X10114642Y-12609285D01*
X10005785Y-12609285D01*
X9860642Y-12645571D01*
X9788071Y-12681857D01*
X9715500Y-12754428D01*
X9679214Y-12863285D01*
X9679214Y-12935857D01*
X9715500Y-13044714D01*
X9751785Y-13081000D01*
X9679214Y-13335000D02*
X9679214Y-13806714D01*
X9969500Y-13552714D01*
X9969500Y-13661571D01*
X10005785Y-13734142D01*
X10042071Y-13770428D01*
X10114642Y-13806714D01*
X10296071Y-13806714D01*
X10368642Y-13770428D01*
X10404928Y-13734142D01*
X10441214Y-13661571D01*
X10441214Y-13443857D01*
X10404928Y-13371285D01*
X10368642Y-13335000D01*
%TO.C,C7*%
X7429500Y-16020142D02*
X7465785Y-16056428D01*
X7574642Y-16092714D01*
X7647214Y-16092714D01*
X7756071Y-16056428D01*
X7828642Y-15983857D01*
X7864928Y-15911285D01*
X7901214Y-15766142D01*
X7901214Y-15657285D01*
X7864928Y-15512142D01*
X7828642Y-15439571D01*
X7756071Y-15367000D01*
X7647214Y-15330714D01*
X7574642Y-15330714D01*
X7465785Y-15367000D01*
X7429500Y-15403285D01*
X7175500Y-15330714D02*
X6667500Y-15330714D01*
X6994071Y-16092714D01*
%TO.C,DS1*%
X23331714Y-22633214D02*
X22569714Y-22633214D01*
X22569714Y-22814642D01*
X22606000Y-22923500D01*
X22678571Y-22996071D01*
X22751142Y-23032357D01*
X22896285Y-23068642D01*
X23005142Y-23068642D01*
X23150285Y-23032357D01*
X23222857Y-22996071D01*
X23295428Y-22923500D01*
X23331714Y-22814642D01*
X23331714Y-22633214D01*
X23295428Y-23358928D02*
X23331714Y-23467785D01*
X23331714Y-23649214D01*
X23295428Y-23721785D01*
X23259142Y-23758071D01*
X23186571Y-23794357D01*
X23114000Y-23794357D01*
X23041428Y-23758071D01*
X23005142Y-23721785D01*
X22968857Y-23649214D01*
X22932571Y-23504071D01*
X22896285Y-23431500D01*
X22860000Y-23395214D01*
X22787428Y-23358928D01*
X22714857Y-23358928D01*
X22642285Y-23395214D01*
X22606000Y-23431500D01*
X22569714Y-23504071D01*
X22569714Y-23685500D01*
X22606000Y-23794357D01*
X23331714Y-24520071D02*
X23331714Y-24084642D01*
X23331714Y-24302357D02*
X22569714Y-24302357D01*
X22678571Y-24229785D01*
X22751142Y-24157214D01*
X22787428Y-24084642D01*
%TO.C,D1*%
X2797628Y-24982714D02*
X2797628Y-24220714D01*
X2616200Y-24220714D01*
X2507342Y-24257000D01*
X2434771Y-24329571D01*
X2398485Y-24402142D01*
X2362200Y-24547285D01*
X2362200Y-24656142D01*
X2398485Y-24801285D01*
X2434771Y-24873857D01*
X2507342Y-24946428D01*
X2616200Y-24982714D01*
X2797628Y-24982714D01*
X1636485Y-24982714D02*
X2071914Y-24982714D01*
X1854200Y-24982714D02*
X1854200Y-24220714D01*
X1926771Y-24329571D01*
X1999342Y-24402142D01*
X2071914Y-24438428D01*
%TO.C,U1*%
X8752114Y-5312228D02*
X9368971Y-5312228D01*
X9441542Y-5348514D01*
X9477828Y-5384800D01*
X9514114Y-5457371D01*
X9514114Y-5602514D01*
X9477828Y-5675085D01*
X9441542Y-5711371D01*
X9368971Y-5747657D01*
X8752114Y-5747657D01*
X9514114Y-6509657D02*
X9514114Y-6074228D01*
X9514114Y-6291942D02*
X8752114Y-6291942D01*
X8860971Y-6219371D01*
X8933542Y-6146800D01*
X8969828Y-6074228D01*
%TO.C,R3*%
X22696714Y-14541500D02*
X22333857Y-14287500D01*
X22696714Y-14106071D02*
X21934714Y-14106071D01*
X21934714Y-14396357D01*
X21971000Y-14468928D01*
X22007285Y-14505214D01*
X22079857Y-14541500D01*
X22188714Y-14541500D01*
X22261285Y-14505214D01*
X22297571Y-14468928D01*
X22333857Y-14396357D01*
X22333857Y-14106071D01*
X21934714Y-14795500D02*
X21934714Y-15267214D01*
X22225000Y-15013214D01*
X22225000Y-15122071D01*
X22261285Y-15194642D01*
X22297571Y-15230928D01*
X22370142Y-15267214D01*
X22551571Y-15267214D01*
X22624142Y-15230928D01*
X22660428Y-15194642D01*
X22696714Y-15122071D01*
X22696714Y-14904357D01*
X22660428Y-14831785D01*
X22624142Y-14795500D01*
%TO.C,R5*%
X24728714Y-14541500D02*
X24365857Y-14287500D01*
X24728714Y-14106071D02*
X23966714Y-14106071D01*
X23966714Y-14396357D01*
X24003000Y-14468928D01*
X24039285Y-14505214D01*
X24111857Y-14541500D01*
X24220714Y-14541500D01*
X24293285Y-14505214D01*
X24329571Y-14468928D01*
X24365857Y-14396357D01*
X24365857Y-14106071D01*
X23966714Y-15230928D02*
X23966714Y-14868071D01*
X24329571Y-14831785D01*
X24293285Y-14868071D01*
X24257000Y-14940642D01*
X24257000Y-15122071D01*
X24293285Y-15194642D01*
X24329571Y-15230928D01*
X24402142Y-15267214D01*
X24583571Y-15267214D01*
X24656142Y-15230928D01*
X24692428Y-15194642D01*
X24728714Y-15122071D01*
X24728714Y-14940642D01*
X24692428Y-14868071D01*
X24656142Y-14831785D01*
%TO.C,FB1*%
X2768600Y-21992771D02*
X3022600Y-21992771D01*
X3022600Y-22391914D02*
X3022600Y-21629914D01*
X2659742Y-21629914D01*
X2115457Y-21992771D02*
X2006600Y-22029057D01*
X1970314Y-22065342D01*
X1934028Y-22137914D01*
X1934028Y-22246771D01*
X1970314Y-22319342D01*
X2006600Y-22355628D01*
X2079171Y-22391914D01*
X2369457Y-22391914D01*
X2369457Y-21629914D01*
X2115457Y-21629914D01*
X2042885Y-21666200D01*
X2006600Y-21702485D01*
X1970314Y-21775057D01*
X1970314Y-21847628D01*
X2006600Y-21920200D01*
X2042885Y-21956485D01*
X2115457Y-21992771D01*
X2369457Y-21992771D01*
X1208314Y-22391914D02*
X1643742Y-22391914D01*
X1426028Y-22391914D02*
X1426028Y-21629914D01*
X1498600Y-21738771D01*
X1571171Y-21811342D01*
X1643742Y-21847628D01*
%TO.C,C1*%
X8509000Y-22370142D02*
X8545285Y-22406428D01*
X8654142Y-22442714D01*
X8726714Y-22442714D01*
X8835571Y-22406428D01*
X8908142Y-22333857D01*
X8944428Y-22261285D01*
X8980714Y-22116142D01*
X8980714Y-22007285D01*
X8944428Y-21862142D01*
X8908142Y-21789571D01*
X8835571Y-21717000D01*
X8726714Y-21680714D01*
X8654142Y-21680714D01*
X8545285Y-21717000D01*
X8509000Y-21753285D01*
X7783285Y-22442714D02*
X8218714Y-22442714D01*
X8001000Y-22442714D02*
X8001000Y-21680714D01*
X8073571Y-21789571D01*
X8146142Y-21862142D01*
X8218714Y-21898428D01*
%TO.C,Q4*%
X23186571Y-13752285D02*
X23259142Y-13716000D01*
X23331714Y-13643428D01*
X23440571Y-13534571D01*
X23513142Y-13498285D01*
X23585714Y-13498285D01*
X23549428Y-13679714D02*
X23622000Y-13643428D01*
X23694571Y-13570857D01*
X23730857Y-13425714D01*
X23730857Y-13171714D01*
X23694571Y-13026571D01*
X23622000Y-12954000D01*
X23549428Y-12917714D01*
X23404285Y-12917714D01*
X23331714Y-12954000D01*
X23259142Y-13026571D01*
X23222857Y-13171714D01*
X23222857Y-13425714D01*
X23259142Y-13570857D01*
X23331714Y-13643428D01*
X23404285Y-13679714D01*
X23549428Y-13679714D01*
X22569714Y-13171714D02*
X22569714Y-13679714D01*
X22751142Y-12881428D02*
X22932571Y-13425714D01*
X22460857Y-13425714D01*
%TO.C,R2*%
X23712714Y-14541500D02*
X23349857Y-14287500D01*
X23712714Y-14106071D02*
X22950714Y-14106071D01*
X22950714Y-14396357D01*
X22987000Y-14468928D01*
X23023285Y-14505214D01*
X23095857Y-14541500D01*
X23204714Y-14541500D01*
X23277285Y-14505214D01*
X23313571Y-14468928D01*
X23349857Y-14396357D01*
X23349857Y-14106071D01*
X23023285Y-14831785D02*
X22987000Y-14868071D01*
X22950714Y-14940642D01*
X22950714Y-15122071D01*
X22987000Y-15194642D01*
X23023285Y-15230928D01*
X23095857Y-15267214D01*
X23168428Y-15267214D01*
X23277285Y-15230928D01*
X23712714Y-14795500D01*
X23712714Y-15267214D01*
%TO.C,C8*%
X6812642Y-13906500D02*
X6848928Y-13870214D01*
X6885214Y-13761357D01*
X6885214Y-13688785D01*
X6848928Y-13579928D01*
X6776357Y-13507357D01*
X6703785Y-13471071D01*
X6558642Y-13434785D01*
X6449785Y-13434785D01*
X6304642Y-13471071D01*
X6232071Y-13507357D01*
X6159500Y-13579928D01*
X6123214Y-13688785D01*
X6123214Y-13761357D01*
X6159500Y-13870214D01*
X6195785Y-13906500D01*
X6449785Y-14341928D02*
X6413500Y-14269357D01*
X6377214Y-14233071D01*
X6304642Y-14196785D01*
X6268357Y-14196785D01*
X6195785Y-14233071D01*
X6159500Y-14269357D01*
X6123214Y-14341928D01*
X6123214Y-14487071D01*
X6159500Y-14559642D01*
X6195785Y-14595928D01*
X6268357Y-14632214D01*
X6304642Y-14632214D01*
X6377214Y-14595928D01*
X6413500Y-14559642D01*
X6449785Y-14487071D01*
X6449785Y-14341928D01*
X6486071Y-14269357D01*
X6522357Y-14233071D01*
X6594928Y-14196785D01*
X6740071Y-14196785D01*
X6812642Y-14233071D01*
X6848928Y-14269357D01*
X6885214Y-14341928D01*
X6885214Y-14487071D01*
X6848928Y-14559642D01*
X6812642Y-14595928D01*
X6740071Y-14632214D01*
X6594928Y-14632214D01*
X6522357Y-14595928D01*
X6486071Y-14559642D01*
X6449785Y-14487071D01*
%TO.C,R28*%
X15110957Y-2454414D02*
X15364957Y-2091557D01*
X15546385Y-2454414D02*
X15546385Y-1692414D01*
X15256100Y-1692414D01*
X15183528Y-1728700D01*
X15147242Y-1764985D01*
X15110957Y-1837557D01*
X15110957Y-1946414D01*
X15147242Y-2018985D01*
X15183528Y-2055271D01*
X15256100Y-2091557D01*
X15546385Y-2091557D01*
X14820671Y-1764985D02*
X14784385Y-1728700D01*
X14711814Y-1692414D01*
X14530385Y-1692414D01*
X14457814Y-1728700D01*
X14421528Y-1764985D01*
X14385242Y-1837557D01*
X14385242Y-1910128D01*
X14421528Y-2018985D01*
X14856957Y-2454414D01*
X14385242Y-2454414D01*
X13949814Y-2018985D02*
X14022385Y-1982700D01*
X14058671Y-1946414D01*
X14094957Y-1873842D01*
X14094957Y-1837557D01*
X14058671Y-1764985D01*
X14022385Y-1728700D01*
X13949814Y-1692414D01*
X13804671Y-1692414D01*
X13732100Y-1728700D01*
X13695814Y-1764985D01*
X13659528Y-1837557D01*
X13659528Y-1873842D01*
X13695814Y-1946414D01*
X13732100Y-1982700D01*
X13804671Y-2018985D01*
X13949814Y-2018985D01*
X14022385Y-2055271D01*
X14058671Y-2091557D01*
X14094957Y-2164128D01*
X14094957Y-2309271D01*
X14058671Y-2381842D01*
X14022385Y-2418128D01*
X13949814Y-2454414D01*
X13804671Y-2454414D01*
X13732100Y-2418128D01*
X13695814Y-2381842D01*
X13659528Y-2309271D01*
X13659528Y-2164128D01*
X13695814Y-2091557D01*
X13732100Y-2055271D01*
X13804671Y-2018985D01*
%TO.C,HEART*%
G36*
X6372533Y-111564D02*
G01*
X6428007Y-135957D01*
X6477154Y-177437D01*
X6511603Y-236848D01*
X6534717Y-314976D01*
X6539852Y-389371D01*
X6531242Y-439381D01*
X6513888Y-489573D01*
X6486253Y-542912D01*
X6446797Y-602366D01*
X6393984Y-670903D01*
X6345366Y-735769D01*
X6302124Y-800613D01*
X6270606Y-852956D01*
X6257165Y-880320D01*
X6250621Y-884224D01*
X6214655Y-854656D01*
X6162848Y-826408D01*
X6095867Y-796247D01*
X6000165Y-757073D01*
X5945067Y-732814D01*
X5898296Y-709254D01*
X5832708Y-667916D01*
X5782365Y-619780D01*
X5745518Y-562739D01*
X5720420Y-494682D01*
X5709029Y-438621D01*
X5711733Y-394732D01*
X5737260Y-320384D01*
X5783295Y-261733D01*
X5819455Y-233713D01*
X5874070Y-213027D01*
X5931791Y-202942D01*
X5976524Y-210472D01*
X6042799Y-240829D01*
X6088650Y-285422D01*
X6098971Y-303804D01*
X6104103Y-273305D01*
X6123557Y-214196D01*
X6157823Y-166741D01*
X6203376Y-131845D01*
X6256695Y-110414D01*
X6314254Y-103352D01*
X6372533Y-111564D01*
G37*
%TO.C,dojoe-logo*%
G36*
X13934935Y-12304600D02*
G01*
X13944503Y-12320138D01*
X13956467Y-12335842D01*
X13970640Y-12351598D01*
X13986831Y-12367291D01*
X14004852Y-12382805D01*
X14024513Y-12398025D01*
X14045626Y-12412836D01*
X14068000Y-12427124D01*
X14091447Y-12440772D01*
X14115778Y-12453667D01*
X14140803Y-12465693D01*
X14166334Y-12476735D01*
X14192181Y-12486679D01*
X14218156Y-12495408D01*
X14244068Y-12502807D01*
X14269729Y-12508763D01*
X14294950Y-12513160D01*
X14319542Y-12515882D01*
X14343315Y-12516815D01*
X15179245Y-12516815D01*
X15210069Y-12515055D01*
X15237731Y-12510013D01*
X15262118Y-12502045D01*
X15283119Y-12491506D01*
X15300621Y-12478752D01*
X15314512Y-12464139D01*
X15324679Y-12448022D01*
X15331010Y-12430758D01*
X15333394Y-12412703D01*
X15331718Y-12394211D01*
X15322318Y-12368801D01*
X15211306Y-12191806D01*
X15324547Y-12120476D01*
X15437342Y-12301037D01*
X15439542Y-12304637D01*
X15450027Y-12326222D01*
X15458206Y-12347603D01*
X15464153Y-12368724D01*
X15467941Y-12389526D01*
X15469644Y-12409952D01*
X15469335Y-12429944D01*
X15467088Y-12449444D01*
X15462977Y-12468395D01*
X15457075Y-12486739D01*
X15449456Y-12504418D01*
X15440194Y-12521374D01*
X15429362Y-12537551D01*
X15417033Y-12552889D01*
X15403282Y-12567332D01*
X15388182Y-12580822D01*
X15371806Y-12593301D01*
X15354228Y-12604711D01*
X15335523Y-12614995D01*
X15315763Y-12624095D01*
X15295021Y-12631954D01*
X15273373Y-12638512D01*
X15250891Y-12643714D01*
X15227648Y-12647501D01*
X15203719Y-12649816D01*
X15179178Y-12650600D01*
X14343315Y-12650565D01*
X14320568Y-12649935D01*
X14297224Y-12648073D01*
X14273379Y-12645026D01*
X14249131Y-12640836D01*
X14224574Y-12635549D01*
X14199807Y-12629210D01*
X14174924Y-12621862D01*
X14150022Y-12613550D01*
X14125198Y-12604318D01*
X14100549Y-12594212D01*
X14076169Y-12583276D01*
X14052157Y-12571554D01*
X14028608Y-12559090D01*
X14005618Y-12545930D01*
X13983285Y-12532117D01*
X13961704Y-12517697D01*
X13940972Y-12502713D01*
X13921185Y-12487211D01*
X13902439Y-12471234D01*
X13884832Y-12454828D01*
X13868458Y-12438037D01*
X13853416Y-12420904D01*
X13839800Y-12403476D01*
X13827709Y-12385796D01*
X13817237Y-12367909D01*
X12924240Y-10702738D01*
X13041938Y-10639428D01*
X13934935Y-12304600D01*
G37*
G36*
X16201018Y-11563208D02*
G01*
X16210522Y-11578679D01*
X16222438Y-11594324D01*
X16236573Y-11610026D01*
X16252739Y-11625672D01*
X16270744Y-11641145D01*
X16290398Y-11656329D01*
X16311512Y-11671110D01*
X16333894Y-11685372D01*
X16357354Y-11698999D01*
X16381703Y-11711876D01*
X16406749Y-11723888D01*
X16432302Y-11734920D01*
X16458173Y-11744854D01*
X16484170Y-11753578D01*
X16510104Y-11760973D01*
X16535784Y-11766927D01*
X16561019Y-11771322D01*
X16585620Y-11774044D01*
X16609397Y-11774977D01*
X17612513Y-11774977D01*
X17643664Y-11773384D01*
X17671350Y-11768810D01*
X17695558Y-11761560D01*
X17716278Y-11751942D01*
X17733500Y-11740263D01*
X17747212Y-11726827D01*
X17757403Y-11711943D01*
X17764063Y-11695916D01*
X17767182Y-11679054D01*
X17766748Y-11661661D01*
X17762750Y-11644046D01*
X17755179Y-11626515D01*
X17423927Y-11008596D01*
X17414422Y-10993125D01*
X17402507Y-10977480D01*
X17388372Y-10961777D01*
X17372209Y-10946132D01*
X17354208Y-10930659D01*
X17334560Y-10915474D01*
X17313454Y-10900694D01*
X17291083Y-10886432D01*
X17267637Y-10872804D01*
X17243306Y-10859927D01*
X17218282Y-10847915D01*
X17192754Y-10836884D01*
X17166914Y-10826949D01*
X17140952Y-10818226D01*
X17115060Y-10810830D01*
X17089427Y-10804877D01*
X17064244Y-10800482D01*
X17039703Y-10797760D01*
X17015994Y-10796827D01*
X15946004Y-10796827D01*
X15946004Y-10663079D01*
X17015994Y-10663079D01*
X17038640Y-10663707D01*
X17061895Y-10665562D01*
X17085663Y-10668600D01*
X17109845Y-10672777D01*
X17134346Y-10678048D01*
X17159067Y-10684369D01*
X17183913Y-10691697D01*
X17208785Y-10699986D01*
X17233586Y-10709194D01*
X17258220Y-10719274D01*
X17282590Y-10730185D01*
X17306598Y-10741880D01*
X17330147Y-10754317D01*
X17353141Y-10767451D01*
X17375482Y-10781237D01*
X17397073Y-10795632D01*
X17417816Y-10810592D01*
X17437616Y-10826072D01*
X17456375Y-10842028D01*
X17473995Y-10858415D01*
X17490380Y-10875191D01*
X17505433Y-10892310D01*
X17519056Y-10909729D01*
X17531153Y-10927403D01*
X17541626Y-10945288D01*
X17872878Y-11563208D01*
X17883363Y-11584791D01*
X17891542Y-11606166D01*
X17897489Y-11627277D01*
X17901277Y-11648067D01*
X17902980Y-11668477D01*
X17902671Y-11688450D01*
X17900424Y-11707930D01*
X17896313Y-11726858D01*
X17890412Y-11745178D01*
X17882793Y-11762832D01*
X17873530Y-11779762D01*
X17862698Y-11795912D01*
X17850369Y-11811224D01*
X17836618Y-11825641D01*
X17821518Y-11839104D01*
X17805142Y-11851558D01*
X17787564Y-11862944D01*
X17768859Y-11873206D01*
X17749098Y-11882285D01*
X17728357Y-11890125D01*
X17706708Y-11896668D01*
X17684226Y-11901857D01*
X17660983Y-11905634D01*
X17637054Y-11907943D01*
X17612513Y-11908725D01*
X16609397Y-11908728D01*
X16586699Y-11908100D01*
X16563396Y-11906245D01*
X16539586Y-11903207D01*
X16515364Y-11899030D01*
X16490828Y-11893759D01*
X16466074Y-11887437D01*
X16441200Y-11880110D01*
X16416302Y-11871820D01*
X16391478Y-11862613D01*
X16366823Y-11852532D01*
X16342436Y-11841622D01*
X16318413Y-11829926D01*
X16294850Y-11817489D01*
X16271845Y-11804356D01*
X16249495Y-11790569D01*
X16227897Y-11776174D01*
X16207147Y-11761214D01*
X16187342Y-11745735D01*
X16168580Y-11729779D01*
X16150956Y-11713391D01*
X16134569Y-11696615D01*
X16119515Y-11679496D01*
X16105890Y-11662077D01*
X16093793Y-11644403D01*
X16083319Y-11626518D01*
X15057466Y-9713910D01*
X15175165Y-9650600D01*
X16201018Y-11563208D01*
G37*
G36*
X11368169Y-11571693D02*
G01*
X11377738Y-11587227D01*
X11389702Y-11602921D01*
X11403875Y-11618661D01*
X11420066Y-11634332D01*
X11438087Y-11649821D01*
X11457748Y-11665012D01*
X11478861Y-11679792D01*
X11501235Y-11694046D01*
X11524682Y-11707660D01*
X11549013Y-11720519D01*
X11574038Y-11732511D01*
X11599569Y-11743519D01*
X11625416Y-11753431D01*
X11651391Y-11762131D01*
X11677303Y-11769505D01*
X11702964Y-11775440D01*
X11728185Y-11779820D01*
X11752777Y-11782533D01*
X11776549Y-11783462D01*
X12779665Y-11783462D01*
X12811721Y-11781484D01*
X12840100Y-11775965D01*
X12864764Y-11767522D01*
X12885676Y-11756776D01*
X12902796Y-11744346D01*
X12916088Y-11730852D01*
X12926607Y-11714764D01*
X12933092Y-11697048D01*
X12934948Y-11677792D01*
X12931579Y-11657081D01*
X12922388Y-11635002D01*
X12591136Y-11017082D01*
X12581569Y-11001544D01*
X12569604Y-10985840D01*
X12555431Y-10970084D01*
X12539240Y-10954391D01*
X12521219Y-10938877D01*
X12501558Y-10923657D01*
X12480446Y-10908846D01*
X12458072Y-10894558D01*
X12434625Y-10880910D01*
X12410294Y-10868015D01*
X12385268Y-10855989D01*
X12359737Y-10844947D01*
X12333890Y-10835003D01*
X12307916Y-10826274D01*
X12282004Y-10818875D01*
X12256342Y-10812919D01*
X12231122Y-10808522D01*
X12206530Y-10805800D01*
X12182757Y-10804867D01*
X11112767Y-10804867D01*
X11112767Y-10671119D01*
X12182760Y-10671119D01*
X12205557Y-10671749D01*
X12228942Y-10673611D01*
X12252820Y-10676658D01*
X12277095Y-10680848D01*
X12301672Y-10686135D01*
X12326454Y-10692474D01*
X12351346Y-10699822D01*
X12376251Y-10708134D01*
X12401074Y-10717366D01*
X12425719Y-10727472D01*
X12450091Y-10738408D01*
X12474092Y-10750130D01*
X12497628Y-10762594D01*
X12520602Y-10775754D01*
X12542919Y-10789567D01*
X12564483Y-10803987D01*
X12585197Y-10818971D01*
X12604967Y-10834473D01*
X12623695Y-10850449D01*
X12641287Y-10866855D01*
X12657646Y-10883647D01*
X12672677Y-10900779D01*
X12686283Y-10918207D01*
X12698369Y-10935887D01*
X12708839Y-10953774D01*
X13040090Y-11571693D01*
X13051209Y-11595039D01*
X13059556Y-11618541D01*
X13065189Y-11642069D01*
X13068168Y-11665493D01*
X13068550Y-11688681D01*
X13066394Y-11711504D01*
X13061758Y-11733831D01*
X13054700Y-11755530D01*
X13045279Y-11776472D01*
X13033553Y-11796526D01*
X13019580Y-11815562D01*
X13004267Y-11832501D01*
X12987335Y-11848027D01*
X12968892Y-11862097D01*
X12949044Y-11874670D01*
X12927898Y-11885704D01*
X12905560Y-11895155D01*
X12882137Y-11902983D01*
X12857735Y-11909144D01*
X12832461Y-11913598D01*
X12806422Y-11916301D01*
X12779724Y-11917211D01*
X11776549Y-11917213D01*
X11753803Y-11916585D01*
X11730459Y-11914730D01*
X11706614Y-11911692D01*
X11682365Y-11907515D01*
X11657809Y-11902244D01*
X11633041Y-11895922D01*
X11608158Y-11888595D01*
X11583256Y-11880305D01*
X11558433Y-11871098D01*
X11533783Y-11861017D01*
X11509404Y-11850107D01*
X11485391Y-11838411D01*
X11461842Y-11825974D01*
X11438853Y-11812841D01*
X11416519Y-11799054D01*
X11394938Y-11784659D01*
X11374206Y-11769700D01*
X11354419Y-11754220D01*
X11335673Y-11738264D01*
X11318066Y-11721876D01*
X11301692Y-11705101D01*
X11286650Y-11687981D01*
X11273034Y-11670563D01*
X11260943Y-11652889D01*
X11250470Y-11635004D01*
X10754708Y-10710799D01*
X10872853Y-10647489D01*
X11368169Y-11571693D01*
G37*
G36*
X10032130Y-10671749D02*
G01*
X10055515Y-10673611D01*
X10079394Y-10676658D01*
X10103669Y-10680848D01*
X10128246Y-10686135D01*
X10153029Y-10692474D01*
X10177921Y-10699822D01*
X10202827Y-10708134D01*
X10227650Y-10717366D01*
X10252296Y-10727472D01*
X10276667Y-10738408D01*
X10300669Y-10750130D01*
X10324205Y-10762594D01*
X10347180Y-10775754D01*
X10369497Y-10789567D01*
X10391060Y-10803987D01*
X10411775Y-10818971D01*
X10431544Y-10834473D01*
X10450273Y-10850449D01*
X10467864Y-10866855D01*
X10484223Y-10883647D01*
X10499253Y-10900779D01*
X10512858Y-10918207D01*
X10524944Y-10935887D01*
X10535412Y-10953774D01*
X10866663Y-11571693D01*
X10877784Y-11595039D01*
X10886133Y-11618541D01*
X10891768Y-11642069D01*
X10894748Y-11665493D01*
X10895131Y-11688681D01*
X10892976Y-11711504D01*
X10888340Y-11733831D01*
X10881283Y-11755530D01*
X10871862Y-11776472D01*
X10860136Y-11796526D01*
X10846163Y-11815562D01*
X10830850Y-11832501D01*
X10813918Y-11848027D01*
X10795475Y-11862097D01*
X10775627Y-11874670D01*
X10754480Y-11885704D01*
X10732142Y-11895155D01*
X10708719Y-11902983D01*
X10684317Y-11909144D01*
X10659044Y-11913598D01*
X10633004Y-11916301D01*
X10606306Y-11917211D01*
X9201939Y-11917207D01*
X9201939Y-11783458D01*
X10606301Y-11783458D01*
X10638358Y-11781480D01*
X10666737Y-11775961D01*
X10691401Y-11767518D01*
X10712313Y-11756772D01*
X10729433Y-11744342D01*
X10742725Y-11730848D01*
X10753245Y-11714760D01*
X10759732Y-11697044D01*
X10761589Y-11677788D01*
X10758220Y-11657077D01*
X10749025Y-11634998D01*
X10417775Y-11017078D01*
X10408207Y-11001540D01*
X10396243Y-10985836D01*
X10382070Y-10970080D01*
X10365878Y-10954388D01*
X10347858Y-10938874D01*
X10328197Y-10923654D01*
X10307084Y-10908843D01*
X10284710Y-10894555D01*
X10261263Y-10880906D01*
X10236932Y-10868011D01*
X10211906Y-10855985D01*
X10186375Y-10844943D01*
X10160528Y-10835000D01*
X10134554Y-10826271D01*
X10108642Y-10818872D01*
X10082980Y-10812916D01*
X10057760Y-10808519D01*
X10033168Y-10805797D01*
X10009395Y-10804864D01*
X9006279Y-10804864D01*
X8974224Y-10806844D01*
X8945847Y-10812378D01*
X8921184Y-10820860D01*
X8900274Y-10831683D01*
X8883152Y-10844240D01*
X8869856Y-10857924D01*
X8859333Y-10873800D01*
X8852846Y-10891408D01*
X8850990Y-10910663D01*
X8854361Y-10931480D01*
X8863556Y-10953774D01*
X8929986Y-11077269D01*
X8939488Y-11092803D01*
X8951393Y-11108498D01*
X8965512Y-11124238D01*
X8981657Y-11139909D01*
X8999637Y-11155397D01*
X9019262Y-11170588D01*
X9040344Y-11185368D01*
X9062692Y-11199622D01*
X9086118Y-11213236D01*
X9110431Y-11226096D01*
X9135442Y-11238087D01*
X9160962Y-11249095D01*
X9186801Y-11259007D01*
X9212769Y-11267707D01*
X9238678Y-11275081D01*
X9264336Y-11281016D01*
X9289556Y-11285396D01*
X9314147Y-11288109D01*
X9337919Y-11289038D01*
X10407909Y-11289038D01*
X10407909Y-11422787D01*
X9337919Y-11422787D01*
X9315175Y-11422159D01*
X9291837Y-11420304D01*
X9268001Y-11417266D01*
X9243764Y-11413089D01*
X9219222Y-11407818D01*
X9194469Y-11401496D01*
X9169603Y-11394169D01*
X9144719Y-11385879D01*
X9119913Y-11376672D01*
X9095280Y-11366591D01*
X9070917Y-11355680D01*
X9046920Y-11343985D01*
X9023384Y-11331548D01*
X9000406Y-11318414D01*
X8978080Y-11304628D01*
X8956504Y-11290233D01*
X8935772Y-11275273D01*
X8915981Y-11259793D01*
X8897227Y-11243837D01*
X8879606Y-11227449D01*
X8863212Y-11210674D01*
X8848144Y-11193554D01*
X8834495Y-11176136D01*
X8822362Y-11158462D01*
X8811841Y-11140577D01*
X8745861Y-11017082D01*
X8734741Y-10993626D01*
X8726392Y-10970035D01*
X8720757Y-10946440D01*
X8717777Y-10922972D01*
X8717394Y-10899761D01*
X8719549Y-10876938D01*
X8724185Y-10854633D01*
X8731242Y-10832978D01*
X8740663Y-10812102D01*
X8752389Y-10792137D01*
X8766361Y-10773213D01*
X8781675Y-10756163D01*
X8798606Y-10740547D01*
X8817049Y-10726404D01*
X8836896Y-10713774D01*
X8858041Y-10702698D01*
X8880379Y-10693216D01*
X8903802Y-10685368D01*
X8928203Y-10679195D01*
X8953478Y-10674735D01*
X8979518Y-10672030D01*
X9006218Y-10671119D01*
X10009333Y-10671119D01*
X10032130Y-10671749D01*
G37*
G36*
X14043148Y-11571693D02*
G01*
X14052715Y-11587227D01*
X14064680Y-11602921D01*
X14078853Y-11618661D01*
X14095044Y-11634332D01*
X14113065Y-11649821D01*
X14132726Y-11665012D01*
X14153838Y-11679792D01*
X14176212Y-11694046D01*
X14199659Y-11707660D01*
X14223990Y-11720519D01*
X14249016Y-11732511D01*
X14274547Y-11743519D01*
X14300394Y-11753431D01*
X14326368Y-11762131D01*
X14352280Y-11769505D01*
X14377942Y-11775440D01*
X14403162Y-11779820D01*
X14427754Y-11782533D01*
X14451527Y-11783462D01*
X15454643Y-11783462D01*
X15486698Y-11781484D01*
X15515076Y-11775965D01*
X15539739Y-11767522D01*
X15560649Y-11756776D01*
X15577771Y-11744346D01*
X15591067Y-11730852D01*
X15601586Y-11714764D01*
X15608073Y-11697048D01*
X15609931Y-11677792D01*
X15606561Y-11657081D01*
X15597367Y-11635002D01*
X15266115Y-11017082D01*
X15256547Y-11001544D01*
X15244582Y-10985840D01*
X15230409Y-10970084D01*
X15214218Y-10954391D01*
X15196197Y-10938877D01*
X15176536Y-10923657D01*
X15155424Y-10908846D01*
X15133050Y-10894558D01*
X15109603Y-10880910D01*
X15085272Y-10868015D01*
X15060246Y-10855989D01*
X15034715Y-10844947D01*
X15008868Y-10835003D01*
X14982894Y-10826274D01*
X14956982Y-10818875D01*
X14931320Y-10812919D01*
X14906100Y-10808522D01*
X14881508Y-10805800D01*
X14857736Y-10804867D01*
X13787746Y-10804867D01*
X13787746Y-10671119D01*
X14857736Y-10671119D01*
X14880532Y-10671749D01*
X14903917Y-10673611D01*
X14927795Y-10676658D01*
X14952071Y-10680848D01*
X14976648Y-10686135D01*
X15001430Y-10692474D01*
X15026322Y-10699822D01*
X15051228Y-10708134D01*
X15076051Y-10717366D01*
X15100697Y-10727472D01*
X15125069Y-10738408D01*
X15149070Y-10750130D01*
X15172606Y-10762594D01*
X15195581Y-10775754D01*
X15217898Y-10789567D01*
X15239461Y-10803987D01*
X15260176Y-10818971D01*
X15279945Y-10834473D01*
X15298674Y-10850449D01*
X15316265Y-10866855D01*
X15332624Y-10883647D01*
X15347654Y-10900779D01*
X15361259Y-10918207D01*
X15373345Y-10935887D01*
X15383814Y-10953774D01*
X15715066Y-11571693D01*
X15726184Y-11595039D01*
X15734532Y-11618541D01*
X15740166Y-11642069D01*
X15743145Y-11665493D01*
X15743528Y-11688681D01*
X15741373Y-11711504D01*
X15736737Y-11733831D01*
X15729679Y-11755530D01*
X15720258Y-11776472D01*
X15708530Y-11796526D01*
X15694556Y-11815562D01*
X15679242Y-11832501D01*
X15662310Y-11848027D01*
X15643867Y-11862097D01*
X15624019Y-11874670D01*
X15602873Y-11885704D01*
X15580535Y-11895155D01*
X15557112Y-11902983D01*
X15532710Y-11909144D01*
X15507436Y-11913598D01*
X15481397Y-11916301D01*
X15454700Y-11917211D01*
X14451527Y-11917213D01*
X14428780Y-11916585D01*
X14405436Y-11914730D01*
X14381591Y-11911692D01*
X14357343Y-11907515D01*
X14332786Y-11902244D01*
X14308019Y-11895922D01*
X14283136Y-11888595D01*
X14258234Y-11880305D01*
X14233410Y-11871098D01*
X14208761Y-11861017D01*
X14184381Y-11850107D01*
X14160369Y-11838411D01*
X14136820Y-11825974D01*
X14113830Y-11812841D01*
X14091497Y-11799054D01*
X14069916Y-11784659D01*
X14049184Y-11769700D01*
X14029397Y-11754220D01*
X14010651Y-11738264D01*
X13993044Y-11721876D01*
X13976670Y-11705101D01*
X13961628Y-11687981D01*
X13948012Y-11670563D01*
X13935921Y-11652889D01*
X13925449Y-11635004D01*
X13429687Y-10710799D01*
X13547831Y-10647489D01*
X14043148Y-11571693D01*
G37*
D10*
%TO.C,U4*%
X19485000Y-21707500D02*
X19035000Y-21707500D01*
X12265000Y-21707500D02*
X12715000Y-21707500D01*
X19485000Y-14487500D02*
X19035000Y-14487500D01*
X12265000Y-14937500D02*
X12265000Y-14487500D01*
X12715000Y-14487500D02*
X12715000Y-13197500D01*
X19485000Y-21257500D02*
X19485000Y-21707500D01*
X19485000Y-14937500D02*
X19485000Y-14487500D01*
X12265000Y-14487500D02*
X12715000Y-14487500D01*
X12265000Y-21257500D02*
X12265000Y-21707500D01*
%TO.C,R4*%
X19725621Y-23877000D02*
X19390379Y-23877000D01*
X19725621Y-24637000D02*
X19390379Y-24637000D01*
%TO.C,U3*%
X3724000Y-18832400D02*
X3724000Y-17032400D01*
X6944000Y-17032400D02*
X6944000Y-19482400D01*
%TO.C,TP2*%
X18099000Y-24257000D02*
G75*
G03*
X18099000Y-24257000I-700000J0D01*
G01*
%TO.C,TP3*%
X16067000Y-24257000D02*
G75*
G03*
X16067000Y-24257000I-700000J0D01*
G01*
%TO.C,TP1*%
X21020000Y-13462000D02*
G75*
G03*
X21020000Y-13462000I-700000J0D01*
G01*
%TO.C,C3*%
X19833000Y-22363165D02*
X19833000Y-22594835D01*
X20553000Y-22363165D02*
X20553000Y-22594835D01*
%TO.C,C7*%
X13260335Y-24744000D02*
X13028665Y-24744000D01*
X13260335Y-24024000D02*
X13028665Y-24024000D01*
%TO.C,DS1*%
X24937000Y-22795000D02*
X24937000Y-21995000D01*
X24937000Y-21995000D02*
X21037000Y-21995000D01*
X24937000Y-24995000D02*
X21037000Y-24995000D01*
%TO.C,D1*%
X3084000Y-22825200D02*
X6984000Y-22825200D01*
X3084000Y-24825200D02*
X3084000Y-22825200D01*
X3084000Y-24825200D02*
X6984000Y-24825200D01*
%TO.C,U1*%
X12978000Y-5588000D02*
X12978000Y-8513000D01*
X12978000Y-5588000D02*
X12978000Y-4088000D01*
X9758000Y-5588000D02*
X9758000Y-4088000D01*
X9758000Y-5588000D02*
X9758000Y-7088000D01*
%TO.C,R3*%
X21972000Y-20614621D02*
X21972000Y-20279379D01*
X22732000Y-20614621D02*
X22732000Y-20279379D01*
%TO.C,R5*%
X24004000Y-20614621D02*
X24004000Y-20279379D01*
X24764000Y-20614621D02*
X24764000Y-20279379D01*
%TO.C,FB1*%
X4164200Y-20671200D02*
X3963800Y-20671200D01*
X4164200Y-21391200D02*
X3963800Y-21391200D01*
%TO.C,C1*%
X6488165Y-21687200D02*
X6719835Y-21687200D01*
X6488165Y-22407200D02*
X6719835Y-22407200D01*
%TO.C,Q4*%
X23875000Y-18813000D02*
X21975000Y-18813000D01*
X22475000Y-16493000D02*
X23875000Y-16493000D01*
%TO.C,R2*%
X22988000Y-20614621D02*
X22988000Y-20279379D01*
X23748000Y-20614621D02*
X23748000Y-20279379D01*
%TO.C,C8*%
X11260500Y-22553665D02*
X11260500Y-22785335D01*
X11980500Y-22553665D02*
X11980500Y-22785335D01*
%TO.C,R28*%
X16173400Y-2962400D02*
X15373400Y-2962400D01*
X15373400Y-4962400D02*
X16173400Y-4962400D01*
%TD*%
M02*
