%TF.GenerationSoftware,KiCad,Pcbnew,(6.0.10)*%
%TF.CreationDate,2023-06-11T21:48:15+02:00*%
%TF.ProjectId,twonkie,74776f6e-6b69-4652-9e6b-696361645f70,rev?*%
%TF.SameCoordinates,PX448d510PY20b3950*%
%TF.FileFunction,Paste,Bot*%
%TF.FilePolarity,Positive*%
%FSLAX46Y46*%
G04 Gerber Fmt 4.6, Leading zero omitted, Abs format (unit mm)*
G04 Created by KiCad (PCBNEW (6.0.10)) date 2023-06-11 21:48:15*
%MOMM*%
%LPD*%
G01*
G04 APERTURE LIST*
G04 Aperture macros list*
%AMRoundRect*
0 Rectangle with rounded corners*
0 $1 Rounding radius*
0 $2 $3 $4 $5 $6 $7 $8 $9 X,Y pos of 4 corners*
0 Add a 4 corners polygon primitive as box body*
4,1,4,$2,$3,$4,$5,$6,$7,$8,$9,$2,$3,0*
0 Add four circle primitives for the rounded corners*
1,1,$1+$1,$2,$3*
1,1,$1+$1,$4,$5*
1,1,$1+$1,$6,$7*
1,1,$1+$1,$8,$9*
0 Add four rect primitives between the rounded corners*
20,1,$1+$1,$2,$3,$4,$5,0*
20,1,$1+$1,$4,$5,$6,$7,0*
20,1,$1+$1,$6,$7,$8,$9,0*
20,1,$1+$1,$8,$9,$2,$3,0*%
G04 Aperture macros list end*
%ADD10R,1.250000X0.410000*%
%ADD11R,1.000000X0.260000*%
%ADD12R,2.200000X1.500000*%
%ADD13R,1.000000X0.300000*%
%ADD14R,1.000000X1.000000*%
%ADD15R,4.000000X1.500000*%
%ADD16RoundRect,0.062500X-0.062500X0.375000X-0.062500X-0.375000X0.062500X-0.375000X0.062500X0.375000X0*%
%ADD17RoundRect,0.075000X-0.075000X0.662500X-0.075000X-0.662500X0.075000X-0.662500X0.075000X0.662500X0*%
%ADD18RoundRect,0.075000X-0.662500X0.075000X-0.662500X-0.075000X0.662500X-0.075000X0.662500X0.075000X0*%
%ADD19RoundRect,0.062500X-0.375000X0.062500X-0.375000X-0.062500X0.375000X-0.062500X0.375000X0.062500X0*%
%ADD20RoundRect,0.160000X0.197500X0.160000X-0.197500X0.160000X-0.197500X-0.160000X0.197500X-0.160000X0*%
%ADD21R,0.650000X1.560000*%
%ADD22RoundRect,0.155000X-0.155000X0.212500X-0.155000X-0.212500X0.155000X-0.212500X0.155000X0.212500X0*%
%ADD23RoundRect,0.155000X0.212500X0.155000X-0.212500X0.155000X-0.212500X-0.155000X0.212500X-0.155000X0*%
%ADD24R,1.000000X0.800000*%
%ADD25R,0.900000X1.200000*%
%ADD26RoundRect,0.075000X0.075000X-0.650000X0.075000X0.650000X-0.075000X0.650000X-0.075000X-0.650000X0*%
%ADD27RoundRect,0.160000X0.160000X-0.197500X0.160000X0.197500X-0.160000X0.197500X-0.160000X-0.197500X0*%
%ADD28RoundRect,0.160000X0.222500X0.160000X-0.222500X0.160000X-0.222500X-0.160000X0.222500X-0.160000X0*%
%ADD29RoundRect,0.155000X-0.212500X-0.155000X0.212500X-0.155000X0.212500X0.155000X-0.212500X0.155000X0*%
%ADD30R,0.650000X0.400000*%
%ADD31R,1.750000X1.100000*%
G04 APERTURE END LIST*
D10*
%TO.C,J1*%
X20965000Y-9175000D03*
D11*
X21090000Y-8600000D03*
X21090000Y-8100000D03*
X21090000Y-7600000D03*
X21090000Y-7100000D03*
X21090000Y-6600000D03*
X21090000Y-6100000D03*
X21090000Y-5600000D03*
X21090000Y-5100000D03*
X21090000Y-4600000D03*
X21090000Y-4100000D03*
D10*
X20965000Y-3525000D03*
D12*
X24290000Y-11300000D03*
X24290000Y-1400000D03*
%TD*%
D13*
%TO.C,J2*%
X5675000Y-9100000D03*
X5675000Y-8600000D03*
X5675000Y-8100000D03*
X5675000Y-7600000D03*
X5675000Y-7100000D03*
X5675000Y-6600000D03*
X5675000Y-6100000D03*
X5675000Y-5600000D03*
X5675000Y-5100000D03*
X5675000Y-4600000D03*
X5675000Y-4100000D03*
X5675000Y-3600000D03*
D14*
X5675000Y-10100000D03*
X5675000Y-2600000D03*
D15*
X2215000Y-1100000D03*
X2215000Y-11600000D03*
%TD*%
D16*
%TO.C,U4*%
X13125000Y-14660000D03*
D17*
X13125000Y-13935000D03*
D16*
X13625000Y-14660000D03*
D17*
X13625000Y-13935000D03*
X14125000Y-13935000D03*
D16*
X14125000Y-14660000D03*
D17*
X14625000Y-13935000D03*
D16*
X14625000Y-14660000D03*
X15125000Y-14660000D03*
D17*
X15125000Y-13935000D03*
D16*
X15625000Y-14660000D03*
D17*
X15625000Y-13935000D03*
D16*
X16125000Y-14660000D03*
D17*
X16125000Y-13935000D03*
D16*
X16625000Y-14660000D03*
D17*
X16625000Y-13935000D03*
D16*
X17125000Y-14660000D03*
D17*
X17125000Y-13935000D03*
X17625000Y-13935000D03*
D16*
X17625000Y-14660000D03*
X18125000Y-14660000D03*
D17*
X18125000Y-13935000D03*
D16*
X18625000Y-14660000D03*
D17*
X18625000Y-13935000D03*
D18*
X20037500Y-15347500D03*
D19*
X19312500Y-15347500D03*
D18*
X20037500Y-15847500D03*
D19*
X19312500Y-15847500D03*
D18*
X20037500Y-16347500D03*
D19*
X19312500Y-16347500D03*
X19312500Y-16847500D03*
D18*
X20037500Y-16847500D03*
X20037500Y-17347500D03*
D19*
X19312500Y-17347500D03*
X19312500Y-17847500D03*
D18*
X20037500Y-17847500D03*
D19*
X19312500Y-18347500D03*
D18*
X20037500Y-18347500D03*
D19*
X19312500Y-18847500D03*
D18*
X20037500Y-18847500D03*
X20037500Y-19347500D03*
D19*
X19312500Y-19347500D03*
X19312500Y-19847500D03*
D18*
X20037500Y-19847500D03*
D19*
X19312500Y-20347500D03*
D18*
X20037500Y-20347500D03*
D19*
X19312500Y-20847500D03*
D18*
X20037500Y-20847500D03*
D17*
X18625000Y-22260000D03*
D16*
X18625000Y-21535000D03*
D17*
X18125000Y-22260000D03*
D16*
X18125000Y-21535000D03*
X17625000Y-21535000D03*
D17*
X17625000Y-22260000D03*
X17125000Y-22260000D03*
D16*
X17125000Y-21535000D03*
D17*
X16625000Y-22260000D03*
D16*
X16625000Y-21535000D03*
D17*
X16125000Y-22260000D03*
D16*
X16125000Y-21535000D03*
X15625000Y-21535000D03*
D17*
X15625000Y-22260000D03*
D16*
X15125000Y-21535000D03*
D17*
X15125000Y-22260000D03*
D16*
X14625000Y-21535000D03*
D17*
X14625000Y-22260000D03*
X14125000Y-22260000D03*
D16*
X14125000Y-21535000D03*
D17*
X13625000Y-22260000D03*
D16*
X13625000Y-21535000D03*
D17*
X13125000Y-22260000D03*
D16*
X13125000Y-21535000D03*
D19*
X12437500Y-20847500D03*
D18*
X11712500Y-20847500D03*
D19*
X12437500Y-20347500D03*
D18*
X11712500Y-20347500D03*
D19*
X12437500Y-19847500D03*
D18*
X11712500Y-19847500D03*
X11712500Y-19347500D03*
D19*
X12437500Y-19347500D03*
D18*
X11712500Y-18847500D03*
D19*
X12437500Y-18847500D03*
X12437500Y-18347500D03*
D18*
X11712500Y-18347500D03*
D19*
X12437500Y-17847500D03*
D18*
X11712500Y-17847500D03*
D19*
X12437500Y-17347500D03*
D18*
X11712500Y-17347500D03*
X11712500Y-16847500D03*
D19*
X12437500Y-16847500D03*
X12437500Y-16347500D03*
D18*
X11712500Y-16347500D03*
D19*
X12437500Y-15847500D03*
D18*
X11712500Y-15847500D03*
X11712500Y-15347500D03*
D19*
X12437500Y-15347500D03*
%TD*%
D20*
%TO.C,R4*%
X20155500Y-24257000D03*
X18960500Y-24257000D03*
%TD*%
D21*
%TO.C,U3*%
X6284000Y-19282400D03*
X5334000Y-19282400D03*
X4384000Y-19282400D03*
X4384000Y-16582400D03*
X6284000Y-16582400D03*
%TD*%
D22*
%TO.C,C3*%
X20193000Y-21911500D03*
X20193000Y-23046500D03*
%TD*%
D23*
%TO.C,C7*%
X13712000Y-24384000D03*
X12577000Y-24384000D03*
%TD*%
D24*
%TO.C,DS1*%
X24237000Y-22795000D03*
X24237000Y-24195000D03*
X21737000Y-24195000D03*
X21737000Y-22795000D03*
%TD*%
D25*
%TO.C,D1*%
X3684000Y-23825200D03*
X6984000Y-23825200D03*
%TD*%
D26*
%TO.C,U1*%
X12368000Y-7788000D03*
X11868000Y-7788000D03*
X11368000Y-7788000D03*
X10868000Y-7788000D03*
X10368000Y-7788000D03*
X10368000Y-3388000D03*
X10868000Y-3388000D03*
X11368000Y-3388000D03*
X11868000Y-3388000D03*
X12368000Y-3388000D03*
%TD*%
D27*
%TO.C,R3*%
X22352000Y-21044500D03*
X22352000Y-19849500D03*
%TD*%
%TO.C,R5*%
X24384000Y-21044500D03*
X24384000Y-19849500D03*
%TD*%
D28*
%TO.C,FB1*%
X4636500Y-21031200D03*
X3491500Y-21031200D03*
%TD*%
D29*
%TO.C,C1*%
X6036500Y-22047200D03*
X7171500Y-22047200D03*
%TD*%
D30*
%TO.C,Q4*%
X22225000Y-18303000D03*
X22225000Y-17653000D03*
X22225000Y-17003000D03*
X24125000Y-17003000D03*
X24125000Y-17653000D03*
X24125000Y-18303000D03*
%TD*%
D27*
%TO.C,R2*%
X23368000Y-21044500D03*
X23368000Y-19849500D03*
%TD*%
D22*
%TO.C,C8*%
X11620500Y-22102000D03*
X11620500Y-23237000D03*
%TD*%
D31*
%TO.C,R28*%
X14398400Y-4662400D03*
X14398400Y-3262400D03*
X17148400Y-3262400D03*
X17148400Y-4662400D03*
%TD*%
M02*
