%TF.GenerationSoftware,KiCad,Pcbnew,(6.0.10)*%
%TF.CreationDate,2023-06-11T21:48:14+02:00*%
%TF.ProjectId,twonkie,74776f6e-6b69-4652-9e6b-696361645f70,rev?*%
%TF.SameCoordinates,PX448d510PY20b3950*%
%TF.FileFunction,Copper,L2,Inr*%
%TF.FilePolarity,Positive*%
%FSLAX46Y46*%
G04 Gerber Fmt 4.6, Leading zero omitted, Abs format (unit mm)*
G04 Created by KiCad (PCBNEW (6.0.10)) date 2023-06-11 21:48:14*
%MOMM*%
%LPD*%
G01*
G04 APERTURE LIST*
%TA.AperFunction,ComponentPad*%
%ADD10O,1.450000X2.000000*%
%TD*%
%TA.AperFunction,ComponentPad*%
%ADD11O,1.150000X1.800000*%
%TD*%
%TA.AperFunction,ComponentPad*%
%ADD12O,2.500000X1.300000*%
%TD*%
%TA.AperFunction,ViaPad*%
%ADD13C,0.609600*%
%TD*%
%TA.AperFunction,ViaPad*%
%ADD14C,0.508000*%
%TD*%
%TA.AperFunction,ViaPad*%
%ADD15C,0.457200*%
%TD*%
%TA.AperFunction,Conductor*%
%ADD16C,0.508000*%
%TD*%
%TA.AperFunction,Conductor*%
%ADD17C,0.203200*%
%TD*%
G04 APERTURE END LIST*
D10*
%TO.N,GND*%
%TO.C,J3*%
X1304200Y-19790800D03*
D11*
X1154200Y-23590800D03*
X8904200Y-23590800D03*
D10*
X8754200Y-19790800D03*
%TD*%
D12*
%TO.N,GND*%
%TO.C,J1*%
X21190000Y-10360000D03*
X21190000Y-2340000D03*
%TD*%
D13*
%TO.N,GND*%
X8890000Y-15240000D03*
D14*
X19177000Y-14732000D03*
D13*
X4673600Y-17881600D03*
X13462000Y-20447000D03*
X13412792Y-16961149D03*
X5334000Y-17881600D03*
X571500Y-12001500D03*
D14*
X6477000Y-9779000D03*
X6477000Y-2921000D03*
X6477000Y-2286000D03*
X6477000Y-10414000D03*
D13*
X635000Y-698500D03*
X19431000Y-10414000D03*
X19939000Y-3048000D03*
X21526500Y-21399500D03*
X20320000Y-3492500D03*
X24257000Y-11620500D03*
X5715000Y-1460500D03*
X16256000Y-15621000D03*
X19558000Y-11303000D03*
X8888837Y-2795747D03*
X22288500Y-889000D03*
X3873500Y-698500D03*
X3873500Y-12001500D03*
X24257000Y-12636500D03*
X23558500Y-1016000D03*
X20256500Y-9271000D03*
X19514320Y-23067117D03*
D14*
X14520288Y-10337780D03*
D13*
X5715000Y-11303000D03*
%TO.N,+5V*%
X23241000Y-23368000D03*
%TO.N,+3V3*%
X5588000Y-16967200D03*
X19685000Y-21336000D03*
X5588000Y-16154400D03*
X12442000Y-22102000D03*
X9017000Y-16637000D03*
X22415500Y-11811000D03*
X14859000Y-17843500D03*
X8890000Y-10350500D03*
D15*
X9499600Y-8622800D03*
D13*
X12942773Y-2656965D03*
X17058298Y-10337800D03*
X8991600Y-3996500D03*
%TO.N,Net-(D1-Pad1)*%
X3491500Y-21959300D03*
D14*
%TO.N,/CC1_RECEP*%
X10515000Y-10341207D03*
D13*
X9976419Y-4433116D03*
D14*
%TO.N,/CC2_RECEP*%
X9728200Y-10350500D03*
X11277600Y-10337800D03*
D15*
X16398395Y-10337800D03*
D14*
%TO.N,/CC1_TX_DATA*%
X2794000Y-13716000D03*
X4000500Y-15113000D03*
%TO.N,/CC1_TX_EN*%
X10414000Y-20701000D03*
%TO.N,/CC2_TX_DATA*%
X18391125Y-15914625D03*
%TO.N,/CC2_TX_EN*%
X14132613Y-15704645D03*
%TO.N,/CC2*%
X10795000Y-12700000D03*
X19939000Y-14732000D03*
X10668000Y-13716000D03*
%TO.N,/CC1_EN*%
X9337588Y-13053528D03*
X17780000Y-15557500D03*
%TO.N,/CC2_EN*%
X19050000Y-13589000D03*
X13843000Y-12827000D03*
%TO.N,/BOOT*%
X21526500Y-18796000D03*
X18516599Y-19558000D03*
%TO.N,/LED_G_L*%
X22796500Y-19240500D03*
%TO.N,/LED_B_L*%
X18923000Y-23622000D03*
%TO.N,/CC1_RP3A0*%
X14605000Y-16129000D03*
%TO.N,/CC1_RA*%
X7576582Y-15013987D03*
%TO.N,/CC1_RP1A5*%
X6893953Y-14999838D03*
%TO.N,/CC1_RD*%
X14010642Y-20035519D03*
%TO.N,/CC1_RPUSB*%
X10414000Y-20002500D03*
%TO.N,/CC2_RP3A0*%
X14351000Y-20574000D03*
%TO.N,/CC2_RA*%
X15621000Y-20574000D03*
%TO.N,/CC2_RP1A5*%
X16793347Y-20574000D03*
%TO.N,/CC2_RD*%
X17653000Y-20574000D03*
%TO.N,/CC2_RPUSB*%
X18415000Y-20574000D03*
%TO.N,/INA_SCL*%
X13307848Y-19323564D03*
X12597662Y-10337303D03*
X10102421Y-8225857D03*
%TO.N,/INA_SDA*%
X10714245Y-17733755D03*
X9667107Y-7759700D03*
X13251284Y-10337300D03*
%TO.N,/VBUS_ALERT_L*%
X13885786Y-10337915D03*
X21209000Y-17970500D03*
%TO.N,/VCONN_ALERT_L*%
X21209000Y-17335500D03*
X15154790Y-10337801D03*
D15*
X13284200Y-8356600D03*
D14*
%TO.N,/CC2_BUF*%
X21463000Y-13081000D03*
%TO.N,/CC1_BUF*%
X19050000Y-12827000D03*
D13*
%TO.N,/VBUS_PLUG*%
X18135600Y-4318000D03*
X18516600Y-4699000D03*
X18932637Y-8010637D03*
X18643600Y-4140200D03*
X18538937Y-8404337D03*
X19405600Y-7658300D03*
X19431000Y-4953000D03*
X19050000Y-4572000D03*
%TO.N,/VBUS_RECEP*%
X7213600Y-4800600D03*
X7585260Y-8162740D03*
X14097000Y-7594600D03*
X14423163Y-7114210D03*
X7569200Y-4368800D03*
X14423798Y-8090400D03*
X7772400Y-4851899D03*
X8064500Y-8445500D03*
X7203578Y-7809844D03*
D14*
%TO.N,/SBU2*%
X11963168Y-10334026D03*
X15789292Y-10337800D03*
D15*
%TO.N,/USBC_D-*%
X6890246Y-6388110D03*
%TO.N,/USBC_D+*%
X7302500Y-5969000D03*
D14*
%TO.N,/USB_B_D+*%
X14122400Y-23520400D03*
%TO.N,/USB_B_D-*%
X14478000Y-24066500D03*
%TO.N,/TX_CLK*%
X21335742Y-16370299D03*
X10287000Y-15875000D03*
%TO.N,Net-(DS2-Pad1)*%
X24965601Y-21706899D03*
D13*
%TO.N,Net-(C5-Pad1)*%
X17018000Y-15621000D03*
D14*
%TO.N,/USB_B_ID*%
X22923500Y-16637000D03*
%TO.N,/VRCONN+*%
X16535400Y-7112000D03*
X9837500Y-3714271D03*
D13*
%TO.N,/CC1_PLUG*%
X15519400Y-8001000D03*
X18301778Y-5588500D03*
%TD*%
D16*
%TO.N,+3V3*%
X20193000Y-11811000D02*
X22415500Y-11811000D01*
X8890000Y-10350500D02*
X8890000Y-11430000D01*
X17058298Y-10733698D02*
X18440400Y-12115800D01*
X17058298Y-10337800D02*
X17058298Y-10733698D01*
X19888200Y-12115800D02*
X20193000Y-11811000D01*
X18440400Y-12115800D02*
X19888200Y-12115800D01*
D17*
%TO.N,/INA_SCL*%
X12751299Y-15229727D02*
X10739313Y-17241713D01*
X10231645Y-17533855D02*
X10231645Y-17933655D01*
X11621554Y-19323564D02*
X13307848Y-19323564D01*
X12751299Y-10490940D02*
X12751299Y-15229727D01*
X10523787Y-17241713D02*
X10231645Y-17533855D01*
X12597662Y-10337303D02*
X12751299Y-10490940D01*
X10739313Y-17241713D02*
X10523787Y-17241713D01*
X10231645Y-17933655D02*
X11621554Y-19323564D01*
%TO.N,/INA_SDA*%
X13251284Y-10337300D02*
X13081000Y-10507584D01*
X13081000Y-15367000D02*
X10714245Y-17733755D01*
X13081000Y-10507584D02*
X13081000Y-15367000D01*
%TO.N,/VBUS_ALERT_L*%
X13885786Y-10337915D02*
X13885786Y-10694786D01*
X21161500Y-17970500D02*
X21209000Y-17970500D01*
X13885786Y-10694786D02*
X21161500Y-17970500D01*
%TO.N,/VCONN_ALERT_L*%
X15154790Y-10337801D02*
X15154790Y-11497190D01*
X20993100Y-17335500D02*
X21209000Y-17335500D01*
X15154790Y-11497190D02*
X20993100Y-17335500D01*
%TD*%
%TA.AperFunction,Conductor*%
%TO.N,GND*%
G36*
X24869695Y-179691D02*
G01*
X24877853Y-179705D01*
X24891681Y-182885D01*
X24903164Y-180287D01*
X24911083Y-180813D01*
X24960885Y-187369D01*
X24992658Y-195882D01*
X25041524Y-216123D01*
X25070009Y-232569D01*
X25111972Y-264768D01*
X25135232Y-288028D01*
X25167431Y-329991D01*
X25183877Y-358476D01*
X25204118Y-407342D01*
X25212631Y-439112D01*
X25219198Y-488992D01*
X25219684Y-496510D01*
X25217115Y-507681D01*
X25220247Y-521523D01*
X25220234Y-528901D01*
X25221700Y-542021D01*
X25221700Y-1845700D01*
X25201698Y-1913821D01*
X25148042Y-1960314D01*
X25095700Y-1971700D01*
X23494300Y-1971700D01*
X23426179Y-1951698D01*
X23379686Y-1898042D01*
X23368300Y-1845700D01*
X23368300Y-1633145D01*
X23371646Y-1633145D01*
X23370694Y-1626907D01*
X23372188Y-1623016D01*
X23369135Y-1596629D01*
X23368710Y-1589262D01*
X23368300Y-1585875D01*
X23368300Y-1578276D01*
X23366487Y-1570894D01*
X23365790Y-1565138D01*
X23364953Y-1560486D01*
X23363871Y-1551135D01*
X23362119Y-1535990D01*
X23355534Y-1526300D01*
X23352739Y-1514922D01*
X23336431Y-1496424D01*
X23326735Y-1483924D01*
X23321448Y-1476145D01*
X23312876Y-1463532D01*
X23302553Y-1457997D01*
X23294804Y-1449207D01*
X23280571Y-1443743D01*
X23280570Y-1443743D01*
X23271783Y-1440370D01*
X23257398Y-1433784D01*
X23235668Y-1422133D01*
X23232240Y-1421700D01*
X23223145Y-1421700D01*
X23223145Y-1420351D01*
X23218912Y-1419000D01*
X23216907Y-1419306D01*
X23213016Y-1417812D01*
X23186629Y-1420865D01*
X23172147Y-1421700D01*
X21623145Y-1421700D01*
X21623145Y-1418354D01*
X21616907Y-1419306D01*
X21613016Y-1417812D01*
X21586629Y-1420865D01*
X21579262Y-1421290D01*
X21575875Y-1421700D01*
X21568276Y-1421700D01*
X21560894Y-1423513D01*
X21555138Y-1424210D01*
X21550488Y-1425047D01*
X21525990Y-1427881D01*
X21522009Y-1430587D01*
X21491922Y-1436000D01*
X21462115Y-1436000D01*
X21446876Y-1440475D01*
X21445671Y-1441865D01*
X21444000Y-1449548D01*
X21444000Y-1459356D01*
X21435633Y-1504505D01*
X21430371Y-1518215D01*
X21423784Y-1532602D01*
X21412133Y-1554332D01*
X21411700Y-1557760D01*
X21411700Y-1566855D01*
X21410351Y-1566855D01*
X21409000Y-1571088D01*
X21409306Y-1573093D01*
X21407812Y-1576984D01*
X21409565Y-1592133D01*
X21410865Y-1603371D01*
X21411700Y-1617853D01*
X21411700Y-10488000D01*
X21391698Y-10556121D01*
X21338042Y-10602614D01*
X21285700Y-10614000D01*
X19737909Y-10614000D01*
X19724378Y-10617973D01*
X19722869Y-10628468D01*
X19725510Y-10640890D01*
X19723045Y-10641414D01*
X19724742Y-10701046D01*
X19688072Y-10761839D01*
X19624356Y-10793157D01*
X19602885Y-10795000D01*
X19208148Y-10795000D01*
X19144753Y-10777890D01*
X19124550Y-10766127D01*
X19056429Y-10746125D01*
X19051970Y-10745484D01*
X19051966Y-10745483D01*
X19030608Y-10742412D01*
X19004788Y-10738700D01*
X17726855Y-10738700D01*
X17658734Y-10718698D01*
X17637760Y-10701795D01*
X17552066Y-10616101D01*
X17518040Y-10553789D01*
X17521026Y-10490804D01*
X17523262Y-10486189D01*
X17525041Y-10475619D01*
X17545413Y-10354522D01*
X17546220Y-10349725D01*
X17546366Y-10337800D01*
X17544332Y-10323592D01*
X17528021Y-10209703D01*
X17528020Y-10209701D01*
X17526748Y-10200816D01*
X17475581Y-10088279D01*
X19723561Y-10088279D01*
X19724634Y-10102341D01*
X19734589Y-10106000D01*
X20917885Y-10106000D01*
X20933124Y-10101525D01*
X20934329Y-10100135D01*
X20936000Y-10092452D01*
X20936000Y-9474115D01*
X20931525Y-9458876D01*
X20930135Y-9457671D01*
X20922452Y-9456000D01*
X20545917Y-9456000D01*
X20539357Y-9456344D01*
X20407576Y-9470194D01*
X20394735Y-9472924D01*
X20226561Y-9527567D01*
X20214572Y-9532905D01*
X20061431Y-9621321D01*
X20050812Y-9629037D01*
X19919405Y-9747355D01*
X19910614Y-9757118D01*
X19806682Y-9900168D01*
X19800115Y-9911542D01*
X19728194Y-10073081D01*
X19724137Y-10085567D01*
X19723561Y-10088279D01*
X17475581Y-10088279D01*
X17469472Y-10074843D01*
X17379142Y-9970010D01*
X17263019Y-9894743D01*
X17254417Y-9892171D01*
X17254414Y-9892169D01*
X17139042Y-9857666D01*
X17139043Y-9857666D01*
X17130439Y-9855093D01*
X17121463Y-9855038D01*
X17121462Y-9855038D01*
X17062239Y-9854677D01*
X16992060Y-9854248D01*
X16983429Y-9856715D01*
X16983427Y-9856715D01*
X16867639Y-9889807D01*
X16867636Y-9889808D01*
X16859005Y-9892275D01*
X16741971Y-9966118D01*
X16738960Y-9969527D01*
X16676156Y-9997538D01*
X16602129Y-9984933D01*
X16534535Y-9950492D01*
X16534534Y-9950492D01*
X16525701Y-9945991D01*
X16398395Y-9925828D01*
X16271089Y-9945991D01*
X16172683Y-9996132D01*
X16102907Y-10009236D01*
X16046948Y-9989597D01*
X16016729Y-9970010D01*
X15972486Y-9941333D01*
X15963884Y-9938760D01*
X15963881Y-9938759D01*
X15875504Y-9912329D01*
X15853847Y-9905852D01*
X15844871Y-9905797D01*
X15844870Y-9905797D01*
X15792756Y-9905479D01*
X15730019Y-9905096D01*
X15721388Y-9907563D01*
X15721386Y-9907563D01*
X15619586Y-9936657D01*
X15619584Y-9936658D01*
X15610956Y-9939124D01*
X15549616Y-9977827D01*
X15539054Y-9984491D01*
X15470769Y-10003925D01*
X15403287Y-9983662D01*
X15337984Y-9941334D01*
X15329382Y-9938761D01*
X15329379Y-9938760D01*
X15232429Y-9909766D01*
X15219345Y-9905853D01*
X15210369Y-9905798D01*
X15210368Y-9905798D01*
X15158254Y-9905480D01*
X15095517Y-9905097D01*
X15086886Y-9907564D01*
X15086884Y-9907564D01*
X14985084Y-9936658D01*
X14985081Y-9936660D01*
X14976454Y-9939125D01*
X14968867Y-9943912D01*
X14968865Y-9943913D01*
X14879322Y-10000411D01*
X14871727Y-10005203D01*
X14789755Y-10098018D01*
X14737129Y-10210109D01*
X14735748Y-10218977D01*
X14735748Y-10218978D01*
X14719459Y-10323592D01*
X14719459Y-10323596D01*
X14718078Y-10332465D01*
X14719242Y-10341367D01*
X14719242Y-10341370D01*
X14723265Y-10372133D01*
X14734134Y-10455250D01*
X14784006Y-10568594D01*
X14789783Y-10575467D01*
X14789784Y-10575468D01*
X14800256Y-10587926D01*
X14828777Y-10652942D01*
X14817619Y-10723056D01*
X14770327Y-10776008D01*
X14703804Y-10795000D01*
X14434028Y-10795000D01*
X14365907Y-10774998D01*
X14344933Y-10758095D01*
X14285493Y-10698655D01*
X14251467Y-10636343D01*
X14256532Y-10565528D01*
X14261196Y-10554622D01*
X14273961Y-10528276D01*
X14301856Y-10470700D01*
X14315894Y-10387261D01*
X14321595Y-10353379D01*
X14321595Y-10353374D01*
X14322401Y-10348586D01*
X14322531Y-10337915D01*
X14304976Y-10215335D01*
X14253723Y-10102610D01*
X14172891Y-10008800D01*
X14068980Y-9941448D01*
X14060378Y-9938875D01*
X14060375Y-9938874D01*
X13968982Y-9911542D01*
X13950341Y-9905967D01*
X13941365Y-9905912D01*
X13941364Y-9905912D01*
X13889250Y-9905594D01*
X13826513Y-9905211D01*
X13817882Y-9907678D01*
X13817880Y-9907678D01*
X13716080Y-9936772D01*
X13716077Y-9936774D01*
X13707450Y-9939239D01*
X13699864Y-9944025D01*
X13699856Y-9944029D01*
X13636030Y-9984301D01*
X13567745Y-10003736D01*
X13500262Y-9983472D01*
X13442965Y-9946334D01*
X13434478Y-9940833D01*
X13425876Y-9938260D01*
X13425873Y-9938259D01*
X13344112Y-9913808D01*
X13315839Y-9905352D01*
X13306863Y-9905297D01*
X13306862Y-9905297D01*
X13254748Y-9904979D01*
X13192011Y-9904596D01*
X13183380Y-9907063D01*
X13183378Y-9907063D01*
X13081578Y-9936157D01*
X13081575Y-9936159D01*
X13072948Y-9938624D01*
X12992161Y-9989597D01*
X12991356Y-9990105D01*
X12923071Y-10009539D01*
X12855588Y-9989275D01*
X12812471Y-9961328D01*
X12780856Y-9940836D01*
X12772254Y-9938263D01*
X12772251Y-9938262D01*
X12690490Y-9913811D01*
X12662217Y-9905355D01*
X12653241Y-9905300D01*
X12653240Y-9905300D01*
X12599975Y-9904975D01*
X12538389Y-9904599D01*
X12529758Y-9907066D01*
X12529756Y-9907066D01*
X12427956Y-9936160D01*
X12427953Y-9936162D01*
X12419326Y-9938627D01*
X12411735Y-9943416D01*
X12411734Y-9943417D01*
X12349990Y-9982374D01*
X12281705Y-10001808D01*
X12214225Y-9981545D01*
X12146362Y-9937559D01*
X12137760Y-9934986D01*
X12137757Y-9934985D01*
X12045662Y-9907443D01*
X12027723Y-9902078D01*
X12018747Y-9902023D01*
X12018746Y-9902023D01*
X11966632Y-9901705D01*
X11903895Y-9901322D01*
X11895264Y-9903789D01*
X11895262Y-9903789D01*
X11793462Y-9932883D01*
X11793459Y-9932885D01*
X11784832Y-9935350D01*
X11685419Y-9998075D01*
X11684104Y-9998905D01*
X11615819Y-10018339D01*
X11548336Y-9998075D01*
X11499032Y-9966118D01*
X11460794Y-9941333D01*
X11452192Y-9938760D01*
X11452189Y-9938759D01*
X11363812Y-9912329D01*
X11342155Y-9905852D01*
X11333179Y-9905797D01*
X11333178Y-9905797D01*
X11281064Y-9905479D01*
X11218327Y-9905096D01*
X11209696Y-9907563D01*
X11209694Y-9907563D01*
X11107894Y-9936657D01*
X11107892Y-9936658D01*
X11099264Y-9939124D01*
X11091677Y-9943911D01*
X11091675Y-9943912D01*
X11004517Y-9998905D01*
X10994537Y-10005202D01*
X10988593Y-10011932D01*
X10981761Y-10017747D01*
X10980692Y-10016491D01*
X10929328Y-10048818D01*
X10858335Y-10048146D01*
X10812150Y-10022542D01*
X10807960Y-10018887D01*
X10802105Y-10012092D01*
X10791653Y-10005317D01*
X10759229Y-9984301D01*
X10698194Y-9944740D01*
X10689592Y-9942167D01*
X10689589Y-9942166D01*
X10607828Y-9917715D01*
X10579555Y-9909259D01*
X10570579Y-9909204D01*
X10570578Y-9909204D01*
X10518464Y-9908886D01*
X10455727Y-9908503D01*
X10447096Y-9910970D01*
X10447094Y-9910970D01*
X10345294Y-9940064D01*
X10345291Y-9940066D01*
X10336664Y-9942531D01*
X10329077Y-9947318D01*
X10329075Y-9947319D01*
X10262069Y-9989597D01*
X10231937Y-10008609D01*
X10223867Y-10017747D01*
X10212325Y-10030815D01*
X10152238Y-10068633D01*
X10081245Y-10067962D01*
X10028403Y-10033545D01*
X10027930Y-10034087D01*
X10024082Y-10030731D01*
X10022431Y-10029655D01*
X10021165Y-10028185D01*
X10021162Y-10028182D01*
X10015305Y-10021385D01*
X9911394Y-9954033D01*
X9902792Y-9951460D01*
X9902789Y-9951459D01*
X9801358Y-9921125D01*
X9801359Y-9921125D01*
X9792755Y-9918552D01*
X9783779Y-9918497D01*
X9783778Y-9918497D01*
X9731664Y-9918179D01*
X9668927Y-9917796D01*
X9660296Y-9920263D01*
X9660294Y-9920263D01*
X9558494Y-9949357D01*
X9558491Y-9949359D01*
X9549864Y-9951824D01*
X9542277Y-9956611D01*
X9542275Y-9956612D01*
X9454345Y-10012092D01*
X9445137Y-10017902D01*
X9439193Y-10024632D01*
X9439191Y-10024634D01*
X9437504Y-10026544D01*
X9435365Y-10027890D01*
X9432361Y-10030447D01*
X9431992Y-10030013D01*
X9377417Y-10064361D01*
X9306424Y-10063689D01*
X9247613Y-10025382D01*
X9210844Y-9982710D01*
X9094721Y-9907443D01*
X9086119Y-9904871D01*
X9086116Y-9904869D01*
X8970744Y-9870366D01*
X8970745Y-9870366D01*
X8962141Y-9867793D01*
X8953165Y-9867738D01*
X8953164Y-9867738D01*
X8893941Y-9867377D01*
X8823762Y-9866948D01*
X8815131Y-9869415D01*
X8815129Y-9869415D01*
X8699341Y-9902507D01*
X8699338Y-9902508D01*
X8690707Y-9904975D01*
X8573673Y-9978818D01*
X8567731Y-9985546D01*
X8541418Y-10015340D01*
X8482069Y-10082540D01*
X8478255Y-10090663D01*
X8478254Y-10090665D01*
X8470987Y-10106144D01*
X8423258Y-10207803D01*
X8421878Y-10216668D01*
X8421877Y-10216670D01*
X8403769Y-10332972D01*
X8401968Y-10344537D01*
X8403132Y-10353439D01*
X8403132Y-10353442D01*
X8418746Y-10472846D01*
X8418747Y-10472850D01*
X8419911Y-10481751D01*
X8445283Y-10539412D01*
X8447029Y-10543381D01*
X8457700Y-10594127D01*
X8457700Y-10612700D01*
X8437698Y-10680821D01*
X8384042Y-10727314D01*
X8331700Y-10738700D01*
X6268204Y-10738700D01*
X6242269Y-10740544D01*
X6206972Y-10745589D01*
X6134065Y-10772678D01*
X6128388Y-10776313D01*
X6122359Y-10779320D01*
X6121535Y-10777668D01*
X6062321Y-10795000D01*
X5661567Y-10795000D01*
X5593446Y-10774998D01*
X5546953Y-10721342D01*
X5536849Y-10651068D01*
X5546303Y-10618106D01*
X5594550Y-10508837D01*
X5594551Y-10508835D01*
X5596901Y-10503512D01*
X5600385Y-10488698D01*
X5641237Y-10315007D01*
X5641237Y-10315004D01*
X5642570Y-10309338D01*
X5646506Y-10224222D01*
X5651514Y-10115899D01*
X5651514Y-10115898D01*
X5651783Y-10110079D01*
X5624224Y-9912519D01*
X5621990Y-9905852D01*
X5562687Y-9728915D01*
X5562686Y-9728913D01*
X5560834Y-9723387D01*
X5463769Y-9549124D01*
X5414364Y-9489627D01*
X5386233Y-9424442D01*
X5385300Y-9409133D01*
X5385300Y-7803881D01*
X6715546Y-7803881D01*
X6716710Y-7812783D01*
X6716710Y-7812786D01*
X6732324Y-7932190D01*
X6732325Y-7932194D01*
X6733489Y-7941095D01*
X6789222Y-8067758D01*
X6878265Y-8173687D01*
X6993459Y-8250367D01*
X7002029Y-8253044D01*
X7002030Y-8253045D01*
X7057632Y-8270416D01*
X7116689Y-8309821D01*
X7135387Y-8339935D01*
X7170904Y-8420654D01*
X7259947Y-8526583D01*
X7267418Y-8531556D01*
X7267419Y-8531557D01*
X7294145Y-8549347D01*
X7375141Y-8603263D01*
X7450100Y-8626682D01*
X7498658Y-8641853D01*
X7498659Y-8641853D01*
X7507227Y-8644530D01*
X7532506Y-8644993D01*
X7547762Y-8645273D01*
X7615505Y-8666520D01*
X7649256Y-8701395D01*
X7650144Y-8703414D01*
X7739187Y-8809343D01*
X7854381Y-8886023D01*
X7947790Y-8915206D01*
X7977898Y-8924613D01*
X7977899Y-8924613D01*
X7986467Y-8927290D01*
X8052099Y-8928492D01*
X8115848Y-8929661D01*
X8115851Y-8929661D01*
X8124826Y-8929825D01*
X8133489Y-8927463D01*
X8133491Y-8927463D01*
X8249671Y-8895789D01*
X8258335Y-8893427D01*
X8376262Y-8821019D01*
X8469127Y-8718424D01*
X8515457Y-8622800D01*
X9087628Y-8622800D01*
X9089179Y-8632593D01*
X9093876Y-8662251D01*
X9107791Y-8750106D01*
X9166308Y-8864951D01*
X9257449Y-8956092D01*
X9372294Y-9014609D01*
X9499600Y-9034772D01*
X9626906Y-9014609D01*
X9741751Y-8956092D01*
X9832892Y-8864951D01*
X9891409Y-8750106D01*
X9892869Y-8740886D01*
X9932760Y-8682545D01*
X9998157Y-8654907D01*
X10028173Y-8655603D01*
X10032594Y-8656984D01*
X10156403Y-8659253D01*
X10175550Y-8654033D01*
X10267214Y-8629043D01*
X10267216Y-8629042D01*
X10275873Y-8626682D01*
X10381400Y-8561888D01*
X10397765Y-8543808D01*
X10458471Y-8476742D01*
X10458472Y-8476740D01*
X10464499Y-8470082D01*
X10470080Y-8458564D01*
X10514576Y-8366723D01*
X10514576Y-8366722D01*
X10518491Y-8358642D01*
X10518835Y-8356600D01*
X12872228Y-8356600D01*
X12873779Y-8366393D01*
X12875383Y-8376519D01*
X12892391Y-8483906D01*
X12950908Y-8598751D01*
X13042049Y-8689892D01*
X13156894Y-8748409D01*
X13284200Y-8768572D01*
X13411506Y-8748409D01*
X13526351Y-8689892D01*
X13617492Y-8598751D01*
X13676009Y-8483906D01*
X13693017Y-8376519D01*
X13694621Y-8366393D01*
X13696172Y-8356600D01*
X13676009Y-8229294D01*
X13636499Y-8151752D01*
X13623394Y-8081975D01*
X13650093Y-8016190D01*
X13708121Y-7975283D01*
X13779052Y-7972242D01*
X13818583Y-7989660D01*
X13819923Y-7990552D01*
X13885675Y-8034320D01*
X13931297Y-8088717D01*
X13940792Y-8122868D01*
X13953709Y-8221651D01*
X14009442Y-8348314D01*
X14098485Y-8454243D01*
X14105956Y-8459216D01*
X14105957Y-8459217D01*
X14122279Y-8470082D01*
X14213679Y-8530923D01*
X14291490Y-8555233D01*
X14337196Y-8569513D01*
X14337197Y-8569513D01*
X14345765Y-8572190D01*
X14411397Y-8573392D01*
X14475146Y-8574561D01*
X14475149Y-8574561D01*
X14484124Y-8574725D01*
X14492787Y-8572363D01*
X14492789Y-8572363D01*
X14608969Y-8540689D01*
X14617633Y-8538327D01*
X14735560Y-8465919D01*
X14742218Y-8458564D01*
X14822400Y-8369980D01*
X14828425Y-8363324D01*
X14878977Y-8258985D01*
X14926680Y-8206402D01*
X14995238Y-8187957D01*
X15062886Y-8209505D01*
X15099341Y-8247343D01*
X15101428Y-8250696D01*
X15105044Y-8258914D01*
X15139871Y-8300345D01*
X15185969Y-8355185D01*
X15194087Y-8364843D01*
X15309281Y-8441523D01*
X15374817Y-8461998D01*
X15432798Y-8480113D01*
X15432799Y-8480113D01*
X15441367Y-8482790D01*
X15506999Y-8483992D01*
X15570748Y-8485161D01*
X15570751Y-8485161D01*
X15579726Y-8485325D01*
X15588389Y-8482963D01*
X15588391Y-8482963D01*
X15704571Y-8451289D01*
X15713235Y-8448927D01*
X15795568Y-8398374D01*
X18050905Y-8398374D01*
X18052069Y-8407276D01*
X18052069Y-8407279D01*
X18067683Y-8526683D01*
X18067684Y-8526687D01*
X18068848Y-8535588D01*
X18124581Y-8662251D01*
X18213624Y-8768180D01*
X18328818Y-8844860D01*
X18393125Y-8864951D01*
X18452335Y-8883450D01*
X18452336Y-8883450D01*
X18460904Y-8886127D01*
X18526536Y-8887329D01*
X18590285Y-8888498D01*
X18590288Y-8888498D01*
X18599263Y-8888662D01*
X18607926Y-8886300D01*
X18607928Y-8886300D01*
X18724108Y-8854626D01*
X18732772Y-8852264D01*
X18850699Y-8779856D01*
X18943564Y-8677261D01*
X19003901Y-8552726D01*
X19004450Y-8549465D01*
X19042619Y-8493016D01*
X19089744Y-8468577D01*
X19117809Y-8460926D01*
X19117810Y-8460925D01*
X19126472Y-8458564D01*
X19244399Y-8386156D01*
X19337264Y-8283561D01*
X19372471Y-8210894D01*
X19420174Y-8158311D01*
X19465106Y-8142610D01*
X19465926Y-8142625D01*
X19599435Y-8106227D01*
X19717362Y-8033819D01*
X19810227Y-7931224D01*
X19858383Y-7831830D01*
X19866650Y-7814768D01*
X19866651Y-7814766D01*
X19870564Y-7806689D01*
X19893522Y-7670225D01*
X19893668Y-7658300D01*
X19891907Y-7646000D01*
X19875323Y-7530203D01*
X19875322Y-7530201D01*
X19874050Y-7521316D01*
X19870190Y-7512825D01*
X19856663Y-7483075D01*
X19816774Y-7395343D01*
X19726444Y-7290510D01*
X19610321Y-7215243D01*
X19601719Y-7212671D01*
X19601716Y-7212669D01*
X19486344Y-7178166D01*
X19486345Y-7178166D01*
X19477741Y-7175593D01*
X19468765Y-7175538D01*
X19468764Y-7175538D01*
X19409541Y-7175177D01*
X19339362Y-7174748D01*
X19330731Y-7177215D01*
X19330729Y-7177215D01*
X19214941Y-7210307D01*
X19214938Y-7210308D01*
X19206307Y-7212775D01*
X19089273Y-7286618D01*
X19083331Y-7293346D01*
X19050672Y-7330325D01*
X18997669Y-7390340D01*
X18993855Y-7398463D01*
X18993854Y-7398465D01*
X18966537Y-7456648D01*
X18919480Y-7509810D01*
X18871828Y-7527118D01*
X18866399Y-7527085D01*
X18857768Y-7529552D01*
X18857766Y-7529552D01*
X18741978Y-7562644D01*
X18741975Y-7562645D01*
X18733344Y-7565112D01*
X18616310Y-7638955D01*
X18524706Y-7742677D01*
X18520892Y-7750800D01*
X18520891Y-7750802D01*
X18469710Y-7859814D01*
X18465895Y-7867940D01*
X18465329Y-7867674D01*
X18429978Y-7921362D01*
X18383153Y-7946377D01*
X18339644Y-7958812D01*
X18332057Y-7963599D01*
X18332055Y-7963600D01*
X18300121Y-7983749D01*
X18222610Y-8032655D01*
X18131006Y-8136377D01*
X18072195Y-8261640D01*
X18070815Y-8270505D01*
X18070814Y-8270507D01*
X18052290Y-8389482D01*
X18050905Y-8398374D01*
X15795568Y-8398374D01*
X15831162Y-8376519D01*
X15924027Y-8273924D01*
X15979695Y-8159026D01*
X15980450Y-8157468D01*
X15980451Y-8157466D01*
X15984364Y-8149389D01*
X16007322Y-8012925D01*
X16007468Y-8001000D01*
X16005964Y-7990493D01*
X15989123Y-7872903D01*
X15989122Y-7872901D01*
X15987850Y-7864016D01*
X15930574Y-7738043D01*
X15840244Y-7633210D01*
X15724121Y-7557943D01*
X15715519Y-7555371D01*
X15715516Y-7555369D01*
X15620939Y-7527085D01*
X15591541Y-7518293D01*
X15582565Y-7518238D01*
X15582564Y-7518238D01*
X15523341Y-7517877D01*
X15453162Y-7517448D01*
X15444531Y-7519915D01*
X15444529Y-7519915D01*
X15328741Y-7553007D01*
X15328738Y-7553008D01*
X15320107Y-7555475D01*
X15203073Y-7629318D01*
X15197131Y-7636046D01*
X15194562Y-7638955D01*
X15111469Y-7733040D01*
X15107655Y-7741163D01*
X15107654Y-7741165D01*
X15065087Y-7831830D01*
X15018030Y-7884992D01*
X14949702Y-7904274D01*
X14881796Y-7883554D01*
X14845925Y-7841642D01*
X14843524Y-7843178D01*
X14838689Y-7835617D01*
X14834972Y-7827443D01*
X14744642Y-7722610D01*
X14722982Y-7708571D01*
X14676698Y-7654737D01*
X14666867Y-7584424D01*
X14696610Y-7519958D01*
X14725584Y-7495465D01*
X14727274Y-7494427D01*
X14727275Y-7494426D01*
X14734925Y-7489729D01*
X14827790Y-7387134D01*
X14888127Y-7262599D01*
X14911085Y-7126135D01*
X14911231Y-7114210D01*
X14910151Y-7106664D01*
X16098688Y-7106664D01*
X16099852Y-7115566D01*
X16099852Y-7115569D01*
X16102693Y-7137294D01*
X16114744Y-7229449D01*
X16118361Y-7237669D01*
X16157509Y-7326640D01*
X16164616Y-7342793D01*
X16170393Y-7349666D01*
X16170394Y-7349667D01*
X16238515Y-7430707D01*
X16244295Y-7437583D01*
X16347376Y-7506200D01*
X16383379Y-7517448D01*
X16431779Y-7532569D01*
X16465573Y-7543127D01*
X16589382Y-7545396D01*
X16607524Y-7540450D01*
X16700193Y-7515186D01*
X16700195Y-7515185D01*
X16708852Y-7512825D01*
X16814379Y-7448031D01*
X16824209Y-7437171D01*
X16891450Y-7362885D01*
X16891451Y-7362883D01*
X16897478Y-7356225D01*
X16907876Y-7334765D01*
X16947555Y-7252866D01*
X16947555Y-7252865D01*
X16951470Y-7244785D01*
X16969947Y-7134964D01*
X16971209Y-7127464D01*
X16971209Y-7127459D01*
X16972015Y-7122671D01*
X16972145Y-7112000D01*
X16954590Y-6989420D01*
X16903337Y-6876695D01*
X16822505Y-6782885D01*
X16718594Y-6715533D01*
X16709992Y-6712960D01*
X16709989Y-6712959D01*
X16608558Y-6682625D01*
X16608559Y-6682625D01*
X16599955Y-6680052D01*
X16590979Y-6679997D01*
X16590978Y-6679997D01*
X16538864Y-6679679D01*
X16476127Y-6679296D01*
X16467496Y-6681763D01*
X16467494Y-6681763D01*
X16365694Y-6710857D01*
X16365691Y-6710859D01*
X16357064Y-6713324D01*
X16349477Y-6718111D01*
X16349475Y-6718112D01*
X16259930Y-6774611D01*
X16252337Y-6779402D01*
X16170365Y-6872217D01*
X16117739Y-6984308D01*
X16116358Y-6993176D01*
X16116358Y-6993177D01*
X16100069Y-7097791D01*
X16100069Y-7097795D01*
X16098688Y-7106664D01*
X14910151Y-7106664D01*
X14892886Y-6986113D01*
X14892885Y-6986111D01*
X14891613Y-6977226D01*
X14834337Y-6851253D01*
X14744007Y-6746420D01*
X14627884Y-6671153D01*
X14619282Y-6668581D01*
X14619279Y-6668579D01*
X14503907Y-6634076D01*
X14503908Y-6634076D01*
X14495304Y-6631503D01*
X14486328Y-6631448D01*
X14486327Y-6631448D01*
X14427104Y-6631087D01*
X14356925Y-6630658D01*
X14348294Y-6633125D01*
X14348292Y-6633125D01*
X14232504Y-6666217D01*
X14232501Y-6666218D01*
X14223870Y-6668685D01*
X14106836Y-6742528D01*
X14015232Y-6846250D01*
X13956421Y-6971513D01*
X13955041Y-6980379D01*
X13940972Y-7070732D01*
X13910727Y-7134964D01*
X13883709Y-7157907D01*
X13780673Y-7222918D01*
X13689069Y-7326640D01*
X13685255Y-7334763D01*
X13685254Y-7334765D01*
X13669129Y-7369110D01*
X13630258Y-7451903D01*
X13628878Y-7460768D01*
X13628877Y-7460770D01*
X13611600Y-7571735D01*
X13608968Y-7588637D01*
X13610132Y-7597539D01*
X13610132Y-7597542D01*
X13625746Y-7716946D01*
X13625747Y-7716950D01*
X13626911Y-7725851D01*
X13630528Y-7734071D01*
X13682364Y-7851878D01*
X13691492Y-7922286D01*
X13661105Y-7986451D01*
X13600851Y-8024001D01*
X13529862Y-8023016D01*
X13509832Y-8014891D01*
X13492131Y-8005872D01*
X13411506Y-7964791D01*
X13284200Y-7944628D01*
X13156894Y-7964791D01*
X13042049Y-8023308D01*
X12950908Y-8114449D01*
X12892391Y-8229294D01*
X12872228Y-8356600D01*
X10518835Y-8356600D01*
X10531123Y-8283561D01*
X10538230Y-8241321D01*
X10538230Y-8241316D01*
X10539036Y-8236528D01*
X10539101Y-8231207D01*
X10539107Y-8230717D01*
X10539107Y-8230714D01*
X10539166Y-8225857D01*
X10526351Y-8136377D01*
X10522884Y-8112164D01*
X10522883Y-8112162D01*
X10521611Y-8103277D01*
X10470358Y-7990552D01*
X10389526Y-7896742D01*
X10285615Y-7829390D01*
X10183345Y-7798804D01*
X10123813Y-7760123D01*
X10094723Y-7695954D01*
X10086297Y-7637120D01*
X10035044Y-7524395D01*
X9954212Y-7430585D01*
X9850301Y-7363233D01*
X9841699Y-7360660D01*
X9841696Y-7360659D01*
X9759935Y-7336208D01*
X9731662Y-7327752D01*
X9722686Y-7327697D01*
X9722685Y-7327697D01*
X9670571Y-7327379D01*
X9607834Y-7326996D01*
X9599203Y-7329463D01*
X9599201Y-7329463D01*
X9497401Y-7358557D01*
X9497398Y-7358559D01*
X9488771Y-7361024D01*
X9481184Y-7365811D01*
X9481182Y-7365812D01*
X9421424Y-7403517D01*
X9384044Y-7427102D01*
X9302072Y-7519917D01*
X9249446Y-7632008D01*
X9248065Y-7640876D01*
X9248065Y-7640877D01*
X9231776Y-7745491D01*
X9231776Y-7745495D01*
X9230395Y-7754364D01*
X9231559Y-7763266D01*
X9231559Y-7763269D01*
X9235512Y-7793499D01*
X9246451Y-7877149D01*
X9265905Y-7921362D01*
X9289631Y-7975283D01*
X9296323Y-7990493D01*
X9358628Y-8064613D01*
X9387147Y-8129626D01*
X9375991Y-8199741D01*
X9328699Y-8252693D01*
X9319379Y-8257952D01*
X9266284Y-8285006D01*
X9266283Y-8285007D01*
X9257449Y-8289508D01*
X9166308Y-8380649D01*
X9107791Y-8495494D01*
X9106240Y-8505287D01*
X9090327Y-8605762D01*
X9087628Y-8622800D01*
X8515457Y-8622800D01*
X8517961Y-8617632D01*
X8525550Y-8601968D01*
X8525551Y-8601966D01*
X8529464Y-8593889D01*
X8549172Y-8476742D01*
X8551615Y-8462222D01*
X8552422Y-8457425D01*
X8552568Y-8445500D01*
X8547095Y-8407279D01*
X8534223Y-8317403D01*
X8534222Y-8317401D01*
X8532950Y-8308516D01*
X8475674Y-8182543D01*
X8385344Y-8077710D01*
X8269221Y-8002443D01*
X8260619Y-7999871D01*
X8260616Y-7999869D01*
X8145244Y-7965366D01*
X8145245Y-7965366D01*
X8136641Y-7962793D01*
X8127664Y-7962738D01*
X8127663Y-7962738D01*
X8103303Y-7962589D01*
X8035306Y-7942170D01*
X7999113Y-7905675D01*
X7996434Y-7899783D01*
X7990575Y-7892984D01*
X7990573Y-7892980D01*
X7911963Y-7801750D01*
X7906104Y-7794950D01*
X7789981Y-7719683D01*
X7752829Y-7708572D01*
X7732991Y-7702639D01*
X7673457Y-7663956D01*
X7654393Y-7634073D01*
X7631819Y-7584424D01*
X7614752Y-7546887D01*
X7524422Y-7442054D01*
X7408299Y-7366787D01*
X7399697Y-7364215D01*
X7399694Y-7364213D01*
X7300583Y-7334573D01*
X7275719Y-7327137D01*
X7266743Y-7327082D01*
X7266742Y-7327082D01*
X7207519Y-7326721D01*
X7137340Y-7326292D01*
X7128709Y-7328759D01*
X7128707Y-7328759D01*
X7012919Y-7361851D01*
X7012916Y-7361852D01*
X7004285Y-7364319D01*
X6887251Y-7438162D01*
X6795647Y-7541884D01*
X6791833Y-7550007D01*
X6791832Y-7550009D01*
X6765298Y-7606525D01*
X6736836Y-7667147D01*
X6735456Y-7676012D01*
X6735455Y-7676014D01*
X6716937Y-7794950D01*
X6715546Y-7803881D01*
X5385300Y-7803881D01*
X5385300Y-6388110D01*
X6478274Y-6388110D01*
X6498437Y-6515416D01*
X6556954Y-6630261D01*
X6648095Y-6721402D01*
X6762940Y-6779919D01*
X6890246Y-6800082D01*
X7017552Y-6779919D01*
X7132397Y-6721402D01*
X7223538Y-6630261D01*
X7282055Y-6515416D01*
X7289050Y-6471251D01*
X7319463Y-6407098D01*
X7379731Y-6369571D01*
X7393785Y-6366514D01*
X7429806Y-6360809D01*
X7544651Y-6302292D01*
X7635792Y-6211151D01*
X7694309Y-6096306D01*
X7714472Y-5969000D01*
X7694309Y-5841694D01*
X7635792Y-5726849D01*
X7544651Y-5635708D01*
X7429806Y-5577191D01*
X7302500Y-5557028D01*
X7175194Y-5577191D01*
X7060349Y-5635708D01*
X6969208Y-5726849D01*
X6910691Y-5841694D01*
X6909140Y-5851485D01*
X6909140Y-5851486D01*
X6903696Y-5885859D01*
X6873283Y-5950012D01*
X6813015Y-5987539D01*
X6798961Y-5990596D01*
X6762940Y-5996301D01*
X6648095Y-6054818D01*
X6556954Y-6145959D01*
X6498437Y-6260804D01*
X6478274Y-6388110D01*
X5385300Y-6388110D01*
X5385300Y-4794637D01*
X6725568Y-4794637D01*
X6726732Y-4803539D01*
X6726732Y-4803542D01*
X6742346Y-4922946D01*
X6742347Y-4922950D01*
X6743511Y-4931851D01*
X6799244Y-5058514D01*
X6888287Y-5164443D01*
X7003481Y-5241123D01*
X7071328Y-5262320D01*
X7126998Y-5279713D01*
X7126999Y-5279713D01*
X7135567Y-5282390D01*
X7201199Y-5283592D01*
X7264948Y-5284761D01*
X7264951Y-5284761D01*
X7273926Y-5284925D01*
X7282589Y-5282563D01*
X7282591Y-5282563D01*
X7407435Y-5248527D01*
X7407904Y-5250248D01*
X7467658Y-5242871D01*
X7517058Y-5262319D01*
X7531472Y-5271914D01*
X7554806Y-5287447D01*
X7554810Y-5287449D01*
X7562281Y-5292422D01*
X7640447Y-5316843D01*
X7685798Y-5331012D01*
X7685799Y-5331012D01*
X7694367Y-5333689D01*
X7759999Y-5334891D01*
X7823748Y-5336060D01*
X7823751Y-5336060D01*
X7832726Y-5336224D01*
X7841389Y-5333862D01*
X7841391Y-5333862D01*
X7957571Y-5302188D01*
X7966235Y-5299826D01*
X8084162Y-5227418D01*
X8177027Y-5124823D01*
X8237364Y-5000288D01*
X8260322Y-4863824D01*
X8260468Y-4851899D01*
X8259247Y-4843367D01*
X8242123Y-4723802D01*
X8242122Y-4723800D01*
X8240850Y-4714915D01*
X8183574Y-4588942D01*
X8093244Y-4484109D01*
X8094213Y-4483274D01*
X8060874Y-4431015D01*
X8056417Y-4384917D01*
X8057122Y-4380725D01*
X8057187Y-4375469D01*
X8057208Y-4373672D01*
X8057268Y-4368800D01*
X8055989Y-4359863D01*
X8038923Y-4240703D01*
X8038922Y-4240701D01*
X8037650Y-4231816D01*
X7980374Y-4105843D01*
X7890044Y-4001010D01*
X7873886Y-3990537D01*
X8503568Y-3990537D01*
X8504732Y-3999439D01*
X8504732Y-3999442D01*
X8520346Y-4118846D01*
X8520347Y-4118850D01*
X8521511Y-4127751D01*
X8577244Y-4254414D01*
X8666287Y-4360343D01*
X8673758Y-4365316D01*
X8673759Y-4365317D01*
X8683827Y-4372019D01*
X8781481Y-4437023D01*
X8851437Y-4458879D01*
X8904998Y-4475613D01*
X8904999Y-4475613D01*
X8913567Y-4478290D01*
X8979199Y-4479492D01*
X9042948Y-4480661D01*
X9042951Y-4480661D01*
X9051926Y-4480825D01*
X9060589Y-4478463D01*
X9060591Y-4478463D01*
X9176771Y-4446789D01*
X9185435Y-4444427D01*
X9302302Y-4372670D01*
X9370819Y-4354072D01*
X9438515Y-4375469D01*
X9483896Y-4430068D01*
X9493167Y-4463707D01*
X9506330Y-4564367D01*
X9562063Y-4691030D01*
X9651106Y-4796959D01*
X9766300Y-4873639D01*
X9859709Y-4902822D01*
X9889817Y-4912229D01*
X9889818Y-4912229D01*
X9898386Y-4914906D01*
X9964018Y-4916108D01*
X10027767Y-4917277D01*
X10027770Y-4917277D01*
X10036745Y-4917441D01*
X10045408Y-4915079D01*
X10045410Y-4915079D01*
X10161590Y-4883405D01*
X10170254Y-4881043D01*
X10288181Y-4808635D01*
X10381046Y-4706040D01*
X10409564Y-4647179D01*
X10437469Y-4589584D01*
X10437470Y-4589582D01*
X10441383Y-4581505D01*
X10464341Y-4445041D01*
X10464407Y-4439700D01*
X10464427Y-4437988D01*
X10464487Y-4433116D01*
X10456288Y-4375861D01*
X10447147Y-4312037D01*
X17647568Y-4312037D01*
X17648732Y-4320939D01*
X17648732Y-4320942D01*
X17664346Y-4440346D01*
X17664347Y-4440350D01*
X17665511Y-4449251D01*
X17721244Y-4575914D01*
X17810287Y-4681843D01*
X17817758Y-4686816D01*
X17817759Y-4686817D01*
X17834885Y-4698217D01*
X17925481Y-4758523D01*
X17974527Y-4773846D01*
X18033584Y-4813252D01*
X18052282Y-4843367D01*
X18102244Y-4956914D01*
X18108020Y-4963785D01*
X18111584Y-4968025D01*
X18140108Y-5033040D01*
X18128954Y-5103155D01*
X18082371Y-5155666D01*
X17985451Y-5216818D01*
X17893847Y-5320540D01*
X17890033Y-5328663D01*
X17890032Y-5328665D01*
X17887592Y-5333862D01*
X17835036Y-5445803D01*
X17833656Y-5454668D01*
X17833655Y-5454670D01*
X17817718Y-5557028D01*
X17813746Y-5582537D01*
X17814910Y-5591439D01*
X17814910Y-5591442D01*
X17830524Y-5710846D01*
X17830525Y-5710850D01*
X17831689Y-5719751D01*
X17887422Y-5846414D01*
X17976465Y-5952343D01*
X17983936Y-5957316D01*
X17983937Y-5957317D01*
X17994005Y-5964019D01*
X18091659Y-6029023D01*
X18174223Y-6054818D01*
X18215176Y-6067613D01*
X18215177Y-6067613D01*
X18223745Y-6070290D01*
X18289377Y-6071492D01*
X18353126Y-6072661D01*
X18353129Y-6072661D01*
X18362104Y-6072825D01*
X18370767Y-6070463D01*
X18370769Y-6070463D01*
X18486949Y-6038789D01*
X18495613Y-6036427D01*
X18613540Y-5964019D01*
X18706405Y-5861424D01*
X18766742Y-5736889D01*
X18789700Y-5600425D01*
X18789846Y-5588500D01*
X18788227Y-5577191D01*
X18771501Y-5460403D01*
X18771500Y-5460401D01*
X18770228Y-5451516D01*
X18712952Y-5325543D01*
X18707090Y-5318740D01*
X18702256Y-5311181D01*
X18703707Y-5310253D01*
X18678754Y-5255214D01*
X18689052Y-5184968D01*
X18737593Y-5130252D01*
X18806261Y-5088090D01*
X18874778Y-5069492D01*
X18942473Y-5090889D01*
X18987517Y-5144717D01*
X19016644Y-5210914D01*
X19074476Y-5279713D01*
X19087434Y-5295128D01*
X19105687Y-5316843D01*
X19220881Y-5393523D01*
X19314290Y-5422706D01*
X19344398Y-5432113D01*
X19344399Y-5432113D01*
X19352967Y-5434790D01*
X19418599Y-5435992D01*
X19482348Y-5437161D01*
X19482351Y-5437161D01*
X19491326Y-5437325D01*
X19499989Y-5434963D01*
X19499991Y-5434963D01*
X19616171Y-5403289D01*
X19624835Y-5400927D01*
X19742762Y-5328519D01*
X19835627Y-5225924D01*
X19875816Y-5142975D01*
X19892050Y-5109468D01*
X19892051Y-5109466D01*
X19895964Y-5101389D01*
X19918922Y-4964925D01*
X19919068Y-4953000D01*
X19917217Y-4940071D01*
X19900723Y-4824903D01*
X19900722Y-4824901D01*
X19899450Y-4816016D01*
X19893779Y-4803542D01*
X19857523Y-4723802D01*
X19842174Y-4690043D01*
X19751844Y-4585210D01*
X19635721Y-4509943D01*
X19594308Y-4497558D01*
X19534777Y-4458879D01*
X19515711Y-4428992D01*
X19464892Y-4317219D01*
X19464890Y-4317216D01*
X19461174Y-4309043D01*
X19370844Y-4204210D01*
X19254721Y-4128943D01*
X19204812Y-4114017D01*
X19201679Y-4113080D01*
X19142146Y-4074398D01*
X19117580Y-4020211D01*
X19115843Y-4020719D01*
X19113322Y-4012097D01*
X19112050Y-4003216D01*
X19102252Y-3981665D01*
X19079047Y-3930629D01*
X19054774Y-3877243D01*
X18964444Y-3772410D01*
X18848321Y-3697143D01*
X18839719Y-3694571D01*
X18839716Y-3694569D01*
X18724344Y-3660066D01*
X18724345Y-3660066D01*
X18715741Y-3657493D01*
X18706765Y-3657438D01*
X18706764Y-3657438D01*
X18647541Y-3657077D01*
X18577362Y-3656648D01*
X18568731Y-3659115D01*
X18568729Y-3659115D01*
X18452941Y-3692207D01*
X18452938Y-3692208D01*
X18444307Y-3694675D01*
X18327273Y-3768518D01*
X18321331Y-3775247D01*
X18321330Y-3775247D01*
X18305568Y-3793094D01*
X18245482Y-3830912D01*
X18207753Y-3833327D01*
X18207741Y-3835293D01*
X18069362Y-3834448D01*
X18060731Y-3836915D01*
X18060729Y-3836915D01*
X17944941Y-3870007D01*
X17944938Y-3870008D01*
X17936307Y-3872475D01*
X17819273Y-3946318D01*
X17727669Y-4050040D01*
X17723855Y-4058163D01*
X17723854Y-4058165D01*
X17706977Y-4094112D01*
X17668858Y-4175303D01*
X17667478Y-4184168D01*
X17667477Y-4184170D01*
X17651317Y-4287961D01*
X17647568Y-4312037D01*
X10447147Y-4312037D01*
X10446142Y-4305019D01*
X10446141Y-4305017D01*
X10444869Y-4296132D01*
X10387593Y-4170159D01*
X10297263Y-4065326D01*
X10289732Y-4060444D01*
X10289730Y-4060443D01*
X10276912Y-4052135D01*
X10230629Y-3998299D01*
X10220799Y-3927986D01*
X10232053Y-3891467D01*
X10234984Y-3885417D01*
X10253570Y-3847056D01*
X10266950Y-3767527D01*
X10273309Y-3729735D01*
X10273309Y-3729730D01*
X10274115Y-3724942D01*
X10274245Y-3714271D01*
X10256690Y-3591691D01*
X10205437Y-3478966D01*
X10124605Y-3385156D01*
X10020694Y-3317804D01*
X10012092Y-3315231D01*
X10012089Y-3315230D01*
X9910658Y-3284896D01*
X9910659Y-3284896D01*
X9902055Y-3282323D01*
X9893079Y-3282268D01*
X9893078Y-3282268D01*
X9840964Y-3281950D01*
X9778227Y-3281567D01*
X9769596Y-3284034D01*
X9769594Y-3284034D01*
X9667794Y-3313128D01*
X9667791Y-3313130D01*
X9659164Y-3315595D01*
X9651577Y-3320382D01*
X9651575Y-3320383D01*
X9647919Y-3322690D01*
X9554437Y-3381673D01*
X9472465Y-3474488D01*
X9468651Y-3482611D01*
X9468650Y-3482613D01*
X9441001Y-3541505D01*
X9393945Y-3594667D01*
X9325617Y-3613950D01*
X9258415Y-3593690D01*
X9239098Y-3581170D01*
X9196321Y-3553443D01*
X9187719Y-3550871D01*
X9187716Y-3550869D01*
X9072344Y-3516366D01*
X9072345Y-3516366D01*
X9063741Y-3513793D01*
X9054765Y-3513738D01*
X9054764Y-3513738D01*
X8995541Y-3513377D01*
X8925362Y-3512948D01*
X8916731Y-3515415D01*
X8916729Y-3515415D01*
X8800941Y-3548507D01*
X8800938Y-3548508D01*
X8792307Y-3550975D01*
X8675273Y-3624818D01*
X8583669Y-3728540D01*
X8579855Y-3736663D01*
X8579854Y-3736665D01*
X8564899Y-3768518D01*
X8524858Y-3853803D01*
X8523478Y-3862668D01*
X8523477Y-3862670D01*
X8511199Y-3941528D01*
X8503568Y-3990537D01*
X7873886Y-3990537D01*
X7773921Y-3925743D01*
X7765319Y-3923171D01*
X7765316Y-3923169D01*
X7649944Y-3888666D01*
X7649945Y-3888666D01*
X7641341Y-3886093D01*
X7632365Y-3886038D01*
X7632364Y-3886038D01*
X7573141Y-3885677D01*
X7502962Y-3885248D01*
X7494331Y-3887715D01*
X7494329Y-3887715D01*
X7378541Y-3920807D01*
X7378538Y-3920808D01*
X7369907Y-3923275D01*
X7252873Y-3997118D01*
X7161269Y-4100840D01*
X7157455Y-4108963D01*
X7157454Y-4108965D01*
X7144775Y-4135971D01*
X7102458Y-4226103D01*
X7098830Y-4249405D01*
X7097775Y-4256179D01*
X7067530Y-4320411D01*
X7024724Y-4351809D01*
X7022935Y-4352609D01*
X7014307Y-4355075D01*
X7006720Y-4359862D01*
X7006718Y-4359863D01*
X6981984Y-4375469D01*
X6897273Y-4428918D01*
X6805669Y-4532640D01*
X6801855Y-4540763D01*
X6801854Y-4540765D01*
X6773481Y-4601197D01*
X6746858Y-4657903D01*
X6745478Y-4666768D01*
X6745477Y-4666770D01*
X6731966Y-4753548D01*
X6725568Y-4794637D01*
X5385300Y-4794637D01*
X5385300Y-3290867D01*
X5405302Y-3222746D01*
X5414364Y-3210372D01*
X5418749Y-3205092D01*
X5463769Y-3150876D01*
X5560834Y-2976613D01*
X5568867Y-2952645D01*
X5622373Y-2793005D01*
X5622374Y-2793001D01*
X5624224Y-2787481D01*
X5643262Y-2651002D01*
X12454741Y-2651002D01*
X12455905Y-2659904D01*
X12455905Y-2659907D01*
X12471519Y-2779311D01*
X12471520Y-2779315D01*
X12472684Y-2788216D01*
X12528417Y-2914879D01*
X12617460Y-3020808D01*
X12732654Y-3097488D01*
X12786312Y-3114252D01*
X12856171Y-3136078D01*
X12856172Y-3136078D01*
X12864740Y-3138755D01*
X12930372Y-3139957D01*
X12994121Y-3141126D01*
X12994124Y-3141126D01*
X13003099Y-3141290D01*
X13011762Y-3138928D01*
X13011764Y-3138928D01*
X13127944Y-3107254D01*
X13136608Y-3104892D01*
X13254535Y-3032484D01*
X13347400Y-2929889D01*
X13407737Y-2805354D01*
X13430695Y-2668890D01*
X13430841Y-2656965D01*
X13428717Y-2642130D01*
X13423896Y-2608468D01*
X19722869Y-2608468D01*
X19724136Y-2614428D01*
X19728196Y-2626923D01*
X19800116Y-2788459D01*
X19806682Y-2799831D01*
X19910614Y-2942882D01*
X19919405Y-2952645D01*
X20050812Y-3070963D01*
X20061431Y-3078679D01*
X20214572Y-3167095D01*
X20226561Y-3172433D01*
X20394735Y-3227076D01*
X20407576Y-3229806D01*
X20539357Y-3243656D01*
X20545917Y-3244000D01*
X20917885Y-3244000D01*
X20933124Y-3239525D01*
X20934329Y-3238135D01*
X20936000Y-3230452D01*
X20936000Y-2612115D01*
X20931525Y-2596876D01*
X20930135Y-2595671D01*
X20922452Y-2594000D01*
X19737909Y-2594000D01*
X19724378Y-2597973D01*
X19722869Y-2608468D01*
X13423896Y-2608468D01*
X13412496Y-2528868D01*
X13412495Y-2528866D01*
X13411223Y-2519981D01*
X13353947Y-2394008D01*
X13263617Y-2289175D01*
X13147494Y-2213908D01*
X13138892Y-2211336D01*
X13138889Y-2211334D01*
X13023517Y-2176831D01*
X13023518Y-2176831D01*
X13014914Y-2174258D01*
X13005938Y-2174203D01*
X13005937Y-2174203D01*
X12946714Y-2173842D01*
X12876535Y-2173413D01*
X12867904Y-2175880D01*
X12867902Y-2175880D01*
X12752114Y-2208972D01*
X12752111Y-2208973D01*
X12743480Y-2211440D01*
X12626446Y-2285283D01*
X12534842Y-2389005D01*
X12476031Y-2514268D01*
X12474651Y-2523133D01*
X12474650Y-2523135D01*
X12460436Y-2614428D01*
X12454741Y-2651002D01*
X5643262Y-2651002D01*
X5651783Y-2589921D01*
X5648285Y-2514268D01*
X5642839Y-2396476D01*
X5642839Y-2396474D01*
X5642570Y-2390662D01*
X5601545Y-2216231D01*
X5598234Y-2202155D01*
X5598234Y-2202154D01*
X5596901Y-2196488D01*
X5594550Y-2191163D01*
X5540292Y-2068279D01*
X19723561Y-2068279D01*
X19724634Y-2082341D01*
X19734589Y-2086000D01*
X20917885Y-2086000D01*
X20933124Y-2081525D01*
X20934329Y-2080135D01*
X20936000Y-2072452D01*
X20936000Y-1454115D01*
X20931525Y-1438876D01*
X20930135Y-1437671D01*
X20922452Y-1436000D01*
X20545917Y-1436000D01*
X20539357Y-1436344D01*
X20407576Y-1450194D01*
X20394735Y-1452924D01*
X20226561Y-1507567D01*
X20214572Y-1512905D01*
X20061431Y-1601321D01*
X20050812Y-1609037D01*
X19919405Y-1727355D01*
X19910614Y-1737118D01*
X19806682Y-1880168D01*
X19800115Y-1891542D01*
X19728194Y-2053081D01*
X19724137Y-2065567D01*
X19723561Y-2068279D01*
X5540292Y-2068279D01*
X5518683Y-2019340D01*
X5518681Y-2019336D01*
X5516330Y-2014012D01*
X5403601Y-1849447D01*
X5262553Y-1708399D01*
X5097988Y-1595670D01*
X5092664Y-1593319D01*
X5092660Y-1593317D01*
X4920837Y-1517450D01*
X4920835Y-1517449D01*
X4915512Y-1515099D01*
X4909846Y-1513766D01*
X4909845Y-1513766D01*
X4727007Y-1470763D01*
X4727004Y-1470763D01*
X4721338Y-1469430D01*
X4715526Y-1469161D01*
X4715524Y-1469161D01*
X4527899Y-1460486D01*
X4527898Y-1460486D01*
X4522079Y-1460217D01*
X4324519Y-1487776D01*
X4318999Y-1489626D01*
X4318995Y-1489627D01*
X4140915Y-1549313D01*
X4140913Y-1549314D01*
X4135387Y-1551166D01*
X3961124Y-1648231D01*
X3955331Y-1653042D01*
X3901628Y-1697636D01*
X3836442Y-1725767D01*
X3821133Y-1726700D01*
X304300Y-1726700D01*
X236179Y-1706698D01*
X189686Y-1653042D01*
X178300Y-1600700D01*
X178300Y-542827D01*
X180603Y-522690D01*
X180457Y-522673D01*
X181273Y-515589D01*
X182884Y-508638D01*
X182885Y-508000D01*
X182079Y-504466D01*
X182345Y-477278D01*
X187369Y-439115D01*
X195882Y-407342D01*
X216123Y-358476D01*
X232569Y-329991D01*
X264768Y-288028D01*
X288028Y-264768D01*
X329991Y-232569D01*
X358476Y-216123D01*
X407342Y-195882D01*
X439112Y-187369D01*
X488992Y-180802D01*
X496510Y-180316D01*
X507681Y-182885D01*
X521523Y-179753D01*
X528901Y-179766D01*
X542021Y-178300D01*
X24857443Y-178300D01*
X24869695Y-179691D01*
G37*
%TD.AperFunction*%
%TD*%
%TA.AperFunction,Conductor*%
%TO.N,+3V3*%
G36*
X12413520Y-10942002D02*
G01*
X12460013Y-10995658D01*
X12471399Y-11048000D01*
X12471399Y-15061599D01*
X12451397Y-15129720D01*
X12434494Y-15150694D01*
X10660411Y-16924777D01*
X10598099Y-16958803D01*
X10565380Y-16959909D01*
X10565384Y-16960019D01*
X10519971Y-16961724D01*
X10515244Y-16961813D01*
X10497756Y-16961813D01*
X10493253Y-16962652D01*
X10490504Y-16962830D01*
X10472811Y-16963494D01*
X10472808Y-16963495D01*
X10461186Y-16963931D01*
X10450496Y-16968523D01*
X10443608Y-16970076D01*
X10439306Y-16971383D01*
X10432717Y-16973926D01*
X10421279Y-16976056D01*
X10402268Y-16987775D01*
X10385895Y-16996279D01*
X10373554Y-17001581D01*
X10373551Y-17001583D01*
X10365383Y-17005092D01*
X10360830Y-17008832D01*
X10358645Y-17011017D01*
X10356379Y-17013072D01*
X10356138Y-17012806D01*
X10351030Y-17016843D01*
X10351037Y-17016851D01*
X10342419Y-17024666D01*
X10332516Y-17030770D01*
X10325475Y-17040030D01*
X10317443Y-17050592D01*
X10306242Y-17063420D01*
X10067965Y-17301697D01*
X10066421Y-17303030D01*
X10061871Y-17305254D01*
X10053959Y-17313783D01*
X10053958Y-17313784D01*
X10030952Y-17338585D01*
X10027672Y-17341990D01*
X10015319Y-17354343D01*
X10012726Y-17358122D01*
X10010911Y-17360189D01*
X9990958Y-17381699D01*
X9986646Y-17392507D01*
X9982878Y-17398467D01*
X9980753Y-17402446D01*
X9977894Y-17408897D01*
X9971313Y-17418491D01*
X9968627Y-17429811D01*
X9966158Y-17440215D01*
X9960593Y-17457811D01*
X9952320Y-17478547D01*
X9951745Y-17484411D01*
X9951745Y-17487499D01*
X9951595Y-17490562D01*
X9951237Y-17490545D01*
X9950481Y-17497006D01*
X9950492Y-17497007D01*
X9949924Y-17508623D01*
X9947237Y-17519945D01*
X9948806Y-17531474D01*
X9948806Y-17531475D01*
X9950594Y-17544612D01*
X9951745Y-17561603D01*
X9951745Y-17885239D01*
X9951596Y-17887267D01*
X9949951Y-17892058D01*
X9950387Y-17903681D01*
X9950387Y-17903683D01*
X9951656Y-17937471D01*
X9951745Y-17942198D01*
X9951745Y-17959686D01*
X9952584Y-17964189D01*
X9952762Y-17966938D01*
X9953426Y-17984631D01*
X9953427Y-17984634D01*
X9953863Y-17996256D01*
X9958455Y-18006946D01*
X9960008Y-18013834D01*
X9961315Y-18018136D01*
X9963858Y-18024725D01*
X9965988Y-18036163D01*
X9977707Y-18055174D01*
X9986211Y-18071547D01*
X9989432Y-18079043D01*
X9995024Y-18092059D01*
X9998764Y-18096612D01*
X10000949Y-18098797D01*
X10003004Y-18101063D01*
X10002738Y-18101304D01*
X10006775Y-18106412D01*
X10006783Y-18106405D01*
X10014598Y-18115023D01*
X10020702Y-18124926D01*
X10033398Y-18134580D01*
X10040524Y-18139999D01*
X10053352Y-18151200D01*
X11389399Y-19487248D01*
X11390730Y-19488789D01*
X11392953Y-19493338D01*
X11401482Y-19501250D01*
X11401483Y-19501251D01*
X11426270Y-19524244D01*
X11429675Y-19527524D01*
X11442041Y-19539890D01*
X11445826Y-19542486D01*
X11447889Y-19544299D01*
X11469398Y-19564251D01*
X11480203Y-19568562D01*
X11486175Y-19572337D01*
X11490140Y-19574454D01*
X11496599Y-19577316D01*
X11506190Y-19583896D01*
X11517504Y-19586581D01*
X11517507Y-19586582D01*
X11527914Y-19589051D01*
X11545510Y-19594616D01*
X11566246Y-19602889D01*
X11572110Y-19603464D01*
X11575198Y-19603464D01*
X11578261Y-19603614D01*
X11578244Y-19603972D01*
X11584705Y-19604728D01*
X11584706Y-19604717D01*
X11596322Y-19605285D01*
X11607644Y-19607972D01*
X11619173Y-19606403D01*
X11619174Y-19606403D01*
X11632311Y-19604615D01*
X11649302Y-19603464D01*
X12919655Y-19603464D01*
X12987776Y-19623466D01*
X13003429Y-19637239D01*
X13004276Y-19636292D01*
X13010963Y-19642271D01*
X13016743Y-19649147D01*
X13119824Y-19717764D01*
X13238021Y-19754691D01*
X13246995Y-19754855D01*
X13250221Y-19755378D01*
X13314267Y-19786015D01*
X13351582Y-19846414D01*
X13350320Y-19917400D01*
X13310880Y-19976434D01*
X13278700Y-19993487D01*
X13279531Y-19995344D01*
X13271341Y-19999007D01*
X13262707Y-20001475D01*
X13145673Y-20075318D01*
X13054069Y-20179040D01*
X13050255Y-20187163D01*
X13050254Y-20187165D01*
X13032920Y-20224085D01*
X12995258Y-20304303D01*
X12993878Y-20313168D01*
X12993877Y-20313170D01*
X12976726Y-20423326D01*
X12973968Y-20441037D01*
X12975132Y-20449939D01*
X12975132Y-20449942D01*
X12990746Y-20569346D01*
X12990747Y-20569350D01*
X12991911Y-20578251D01*
X13047644Y-20704914D01*
X13136687Y-20810843D01*
X13251881Y-20887523D01*
X13323924Y-20910031D01*
X13375398Y-20926113D01*
X13375399Y-20926113D01*
X13383967Y-20928790D01*
X13449599Y-20929992D01*
X13513348Y-20931161D01*
X13513351Y-20931161D01*
X13522326Y-20931325D01*
X13530989Y-20928963D01*
X13530991Y-20928963D01*
X13647171Y-20897289D01*
X13655835Y-20894927D01*
X13773762Y-20822519D01*
X13779786Y-20815864D01*
X13791607Y-20802805D01*
X13852151Y-20765725D01*
X13923131Y-20767264D01*
X13981472Y-20806287D01*
X13985155Y-20810669D01*
X14049758Y-20887523D01*
X14059895Y-20899583D01*
X14162976Y-20968200D01*
X14281173Y-21005127D01*
X14404982Y-21007396D01*
X14434326Y-20999396D01*
X14515793Y-20977186D01*
X14515795Y-20977185D01*
X14524452Y-20974825D01*
X14594536Y-20931793D01*
X14622331Y-20914727D01*
X14629979Y-20910031D01*
X14637865Y-20901319D01*
X14707050Y-20824885D01*
X14707051Y-20824883D01*
X14713078Y-20818225D01*
X14723569Y-20796573D01*
X14763155Y-20714866D01*
X14763155Y-20714865D01*
X14767070Y-20706785D01*
X14784266Y-20604579D01*
X14786809Y-20589464D01*
X14786809Y-20589459D01*
X14787615Y-20584671D01*
X14787745Y-20574000D01*
X14786981Y-20568664D01*
X15184288Y-20568664D01*
X15185452Y-20577566D01*
X15185452Y-20577569D01*
X15188984Y-20604579D01*
X15200344Y-20691449D01*
X15222050Y-20740781D01*
X15239446Y-20780315D01*
X15250216Y-20804793D01*
X15255993Y-20811666D01*
X15255994Y-20811667D01*
X15322008Y-20890200D01*
X15329895Y-20899583D01*
X15432976Y-20968200D01*
X15551173Y-21005127D01*
X15674982Y-21007396D01*
X15704326Y-20999396D01*
X15785793Y-20977186D01*
X15785795Y-20977185D01*
X15794452Y-20974825D01*
X15864536Y-20931793D01*
X15892331Y-20914727D01*
X15899979Y-20910031D01*
X15907865Y-20901319D01*
X15977050Y-20824885D01*
X15977051Y-20824883D01*
X15983078Y-20818225D01*
X15993569Y-20796573D01*
X16033155Y-20714866D01*
X16033155Y-20714865D01*
X16037070Y-20706785D01*
X16054266Y-20604579D01*
X16056809Y-20589464D01*
X16056809Y-20589459D01*
X16057615Y-20584671D01*
X16057745Y-20574000D01*
X16056981Y-20568664D01*
X16356635Y-20568664D01*
X16357799Y-20577566D01*
X16357799Y-20577569D01*
X16361331Y-20604579D01*
X16372691Y-20691449D01*
X16394397Y-20740781D01*
X16411793Y-20780315D01*
X16422563Y-20804793D01*
X16428340Y-20811666D01*
X16428341Y-20811667D01*
X16494355Y-20890200D01*
X16502242Y-20899583D01*
X16605323Y-20968200D01*
X16723520Y-21005127D01*
X16847329Y-21007396D01*
X16876673Y-20999396D01*
X16958140Y-20977186D01*
X16958142Y-20977185D01*
X16966799Y-20974825D01*
X17036883Y-20931793D01*
X17064678Y-20914727D01*
X17072326Y-20910031D01*
X17130093Y-20846212D01*
X17190636Y-20809131D01*
X17261616Y-20810669D01*
X17319957Y-20849691D01*
X17361895Y-20899583D01*
X17464976Y-20968200D01*
X17583173Y-21005127D01*
X17706982Y-21007396D01*
X17736326Y-20999396D01*
X17817793Y-20977186D01*
X17817795Y-20977185D01*
X17826452Y-20974825D01*
X17896536Y-20931793D01*
X17924331Y-20914727D01*
X17931979Y-20910031D01*
X17939864Y-20901319D01*
X17942211Y-20899882D01*
X17944908Y-20897643D01*
X17945231Y-20898032D01*
X18000409Y-20864238D01*
X18071389Y-20865776D01*
X18117263Y-20891946D01*
X18118118Y-20892710D01*
X18123895Y-20899583D01*
X18226976Y-20968200D01*
X18345173Y-21005127D01*
X18468982Y-21007396D01*
X18498326Y-20999396D01*
X18579793Y-20977186D01*
X18579795Y-20977185D01*
X18588452Y-20974825D01*
X18658536Y-20931793D01*
X18686331Y-20914727D01*
X18693979Y-20910031D01*
X18701865Y-20901319D01*
X18771050Y-20824885D01*
X18771051Y-20824883D01*
X18777078Y-20818225D01*
X18787569Y-20796573D01*
X18827155Y-20714866D01*
X18827155Y-20714865D01*
X18831070Y-20706785D01*
X18848266Y-20604579D01*
X18850809Y-20589464D01*
X18850809Y-20589459D01*
X18851615Y-20584671D01*
X18851745Y-20574000D01*
X18836757Y-20469343D01*
X18835463Y-20460307D01*
X18835462Y-20460305D01*
X18834190Y-20451420D01*
X18782937Y-20338695D01*
X18702105Y-20244885D01*
X18624238Y-20194414D01*
X18577954Y-20140578D01*
X18568123Y-20070265D01*
X18597867Y-20005800D01*
X18659629Y-19967119D01*
X18681391Y-19961186D01*
X18690051Y-19958825D01*
X18795578Y-19894031D01*
X18878677Y-19802225D01*
X18882948Y-19793411D01*
X18928754Y-19698866D01*
X18928754Y-19698865D01*
X18932669Y-19690785D01*
X18946866Y-19606403D01*
X18952408Y-19573464D01*
X18952408Y-19573459D01*
X18953214Y-19568671D01*
X18953344Y-19558000D01*
X18941692Y-19476641D01*
X18937062Y-19444307D01*
X18937061Y-19444305D01*
X18935789Y-19435420D01*
X18884536Y-19322695D01*
X18809114Y-19235164D01*
X22359788Y-19235164D01*
X22360952Y-19244066D01*
X22360952Y-19244069D01*
X22361881Y-19251171D01*
X22375844Y-19357949D01*
X22379461Y-19366169D01*
X22419141Y-19456349D01*
X22425716Y-19471293D01*
X22431493Y-19478166D01*
X22431494Y-19478167D01*
X22499615Y-19559207D01*
X22505395Y-19566083D01*
X22608476Y-19634700D01*
X22637239Y-19643686D01*
X22688161Y-19659595D01*
X22726673Y-19671627D01*
X22850482Y-19673896D01*
X22877449Y-19666544D01*
X22961293Y-19643686D01*
X22961295Y-19643685D01*
X22969952Y-19641325D01*
X23046022Y-19594618D01*
X23067831Y-19581227D01*
X23075479Y-19576531D01*
X23081503Y-19569876D01*
X23152550Y-19491385D01*
X23152551Y-19491383D01*
X23158578Y-19484725D01*
X23169069Y-19463073D01*
X23208655Y-19381366D01*
X23208655Y-19381365D01*
X23212570Y-19373285D01*
X23233115Y-19251171D01*
X23233245Y-19240500D01*
X23218945Y-19140648D01*
X23216963Y-19126807D01*
X23216962Y-19126805D01*
X23215690Y-19117920D01*
X23164437Y-19005195D01*
X23083605Y-18911385D01*
X22979694Y-18844033D01*
X22971092Y-18841460D01*
X22971089Y-18841459D01*
X22869658Y-18811125D01*
X22869659Y-18811125D01*
X22861055Y-18808552D01*
X22852079Y-18808497D01*
X22852078Y-18808497D01*
X22799964Y-18808179D01*
X22737227Y-18807796D01*
X22728596Y-18810263D01*
X22728594Y-18810263D01*
X22626794Y-18839357D01*
X22626791Y-18839359D01*
X22618164Y-18841824D01*
X22610577Y-18846611D01*
X22610575Y-18846612D01*
X22521030Y-18903111D01*
X22513437Y-18907902D01*
X22431465Y-19000717D01*
X22378839Y-19112808D01*
X22377458Y-19121676D01*
X22377458Y-19121677D01*
X22361169Y-19226291D01*
X22361169Y-19226295D01*
X22359788Y-19235164D01*
X18809114Y-19235164D01*
X18803704Y-19228885D01*
X18699793Y-19161533D01*
X18691191Y-19158960D01*
X18691188Y-19158959D01*
X18589757Y-19128625D01*
X18589758Y-19128625D01*
X18581154Y-19126052D01*
X18572178Y-19125997D01*
X18572177Y-19125997D01*
X18520063Y-19125679D01*
X18457326Y-19125296D01*
X18448695Y-19127763D01*
X18448693Y-19127763D01*
X18346893Y-19156857D01*
X18346890Y-19156859D01*
X18338263Y-19159324D01*
X18330676Y-19164111D01*
X18330674Y-19164112D01*
X18272236Y-19200984D01*
X18233536Y-19225402D01*
X18151564Y-19318217D01*
X18098938Y-19430308D01*
X18097557Y-19439176D01*
X18097557Y-19439177D01*
X18081268Y-19543791D01*
X18081268Y-19543795D01*
X18079887Y-19552664D01*
X18081051Y-19561566D01*
X18081051Y-19561569D01*
X18082607Y-19573464D01*
X18095943Y-19675449D01*
X18145815Y-19788793D01*
X18225494Y-19883583D01*
X18248245Y-19898727D01*
X18308478Y-19938822D01*
X18354101Y-19993219D01*
X18363072Y-20063647D01*
X18332542Y-20127744D01*
X18273284Y-20164858D01*
X18236664Y-20175324D01*
X18229077Y-20180111D01*
X18229075Y-20180112D01*
X18157817Y-20225073D01*
X18131937Y-20241402D01*
X18125993Y-20248132D01*
X18119161Y-20253947D01*
X18117547Y-20252051D01*
X18068674Y-20282802D01*
X17997681Y-20282121D01*
X17951508Y-20256521D01*
X17945963Y-20251684D01*
X17940105Y-20244885D01*
X17836194Y-20177533D01*
X17827592Y-20174960D01*
X17827589Y-20174959D01*
X17726158Y-20144625D01*
X17726159Y-20144625D01*
X17717555Y-20142052D01*
X17708579Y-20141997D01*
X17708578Y-20141997D01*
X17656464Y-20141679D01*
X17593727Y-20141296D01*
X17585096Y-20143763D01*
X17585094Y-20143763D01*
X17483294Y-20172857D01*
X17483292Y-20172858D01*
X17474664Y-20175324D01*
X17467077Y-20180111D01*
X17467075Y-20180112D01*
X17395817Y-20225073D01*
X17369937Y-20241402D01*
X17321558Y-20296180D01*
X17317502Y-20300773D01*
X17257416Y-20338591D01*
X17186423Y-20337921D01*
X17127609Y-20299613D01*
X17080452Y-20244885D01*
X16976541Y-20177533D01*
X16967939Y-20174960D01*
X16967936Y-20174959D01*
X16866505Y-20144625D01*
X16866506Y-20144625D01*
X16857902Y-20142052D01*
X16848926Y-20141997D01*
X16848925Y-20141997D01*
X16796811Y-20141679D01*
X16734074Y-20141296D01*
X16725443Y-20143763D01*
X16725441Y-20143763D01*
X16623641Y-20172857D01*
X16623639Y-20172858D01*
X16615011Y-20175324D01*
X16607424Y-20180111D01*
X16607422Y-20180112D01*
X16536164Y-20225073D01*
X16510284Y-20241402D01*
X16428312Y-20334217D01*
X16424497Y-20342343D01*
X16380888Y-20435229D01*
X16375686Y-20446308D01*
X16374305Y-20455176D01*
X16374305Y-20455177D01*
X16358016Y-20559791D01*
X16358016Y-20559795D01*
X16356635Y-20568664D01*
X16056981Y-20568664D01*
X16042757Y-20469343D01*
X16041463Y-20460307D01*
X16041462Y-20460305D01*
X16040190Y-20451420D01*
X15988937Y-20338695D01*
X15908105Y-20244885D01*
X15804194Y-20177533D01*
X15795592Y-20174960D01*
X15795589Y-20174959D01*
X15694158Y-20144625D01*
X15694159Y-20144625D01*
X15685555Y-20142052D01*
X15676579Y-20141997D01*
X15676578Y-20141997D01*
X15624464Y-20141679D01*
X15561727Y-20141296D01*
X15553096Y-20143763D01*
X15553094Y-20143763D01*
X15451294Y-20172857D01*
X15451292Y-20172858D01*
X15442664Y-20175324D01*
X15435077Y-20180111D01*
X15435075Y-20180112D01*
X15363817Y-20225073D01*
X15337937Y-20241402D01*
X15255965Y-20334217D01*
X15252150Y-20342343D01*
X15208541Y-20435229D01*
X15203339Y-20446308D01*
X15201958Y-20455176D01*
X15201958Y-20455177D01*
X15185669Y-20559791D01*
X15185669Y-20559795D01*
X15184288Y-20568664D01*
X14786981Y-20568664D01*
X14772757Y-20469343D01*
X14771463Y-20460307D01*
X14771462Y-20460305D01*
X14770190Y-20451420D01*
X14718937Y-20338695D01*
X14638105Y-20244885D01*
X14534194Y-20177533D01*
X14525595Y-20174961D01*
X14519496Y-20172143D01*
X14466048Y-20125412D01*
X14446349Y-20057203D01*
X14446715Y-20049413D01*
X14447257Y-20046190D01*
X14447387Y-20035519D01*
X14436742Y-19961186D01*
X14431105Y-19921826D01*
X14431104Y-19921824D01*
X14429832Y-19912939D01*
X14378579Y-19800214D01*
X14297747Y-19706404D01*
X14193836Y-19639052D01*
X14185234Y-19636479D01*
X14185231Y-19636478D01*
X14092053Y-19608612D01*
X14075197Y-19603571D01*
X14066221Y-19603516D01*
X14066220Y-19603516D01*
X14014106Y-19603198D01*
X13951369Y-19602815D01*
X13942738Y-19605282D01*
X13942736Y-19605282D01*
X13874364Y-19624823D01*
X13803370Y-19624311D01*
X13743922Y-19585497D01*
X13714896Y-19520705D01*
X13719705Y-19465365D01*
X13720005Y-19464426D01*
X13723918Y-19456349D01*
X13728814Y-19427250D01*
X13743657Y-19339028D01*
X13743657Y-19339023D01*
X13744463Y-19334235D01*
X13744593Y-19323564D01*
X13732008Y-19235685D01*
X13728311Y-19209871D01*
X13728310Y-19209869D01*
X13727038Y-19200984D01*
X13675785Y-19088259D01*
X13594953Y-18994449D01*
X13491042Y-18927097D01*
X13482440Y-18924524D01*
X13482437Y-18924523D01*
X13381006Y-18894189D01*
X13381007Y-18894189D01*
X13372403Y-18891616D01*
X13363427Y-18891561D01*
X13363426Y-18891561D01*
X13311312Y-18891243D01*
X13248575Y-18890860D01*
X13239944Y-18893327D01*
X13239942Y-18893327D01*
X13138142Y-18922421D01*
X13138139Y-18922423D01*
X13129512Y-18924888D01*
X13121925Y-18929675D01*
X13121923Y-18929676D01*
X13032378Y-18986175D01*
X13024785Y-18990966D01*
X13015860Y-19001071D01*
X13012080Y-19003450D01*
X13012009Y-19003511D01*
X13012000Y-19003501D01*
X12955777Y-19038889D01*
X12921419Y-19043664D01*
X11789682Y-19043664D01*
X11721561Y-19023662D01*
X11700587Y-19006759D01*
X10963878Y-18270050D01*
X10929852Y-18207738D01*
X10934917Y-18136923D01*
X10977464Y-18080087D01*
X10984941Y-18075009D01*
X10985576Y-18074482D01*
X10993224Y-18069786D01*
X11037319Y-18021071D01*
X11070295Y-17984640D01*
X11070296Y-17984638D01*
X11076323Y-17977980D01*
X11082281Y-17965684D01*
X11126400Y-17874621D01*
X11126400Y-17874620D01*
X11130315Y-17866540D01*
X11150860Y-17744426D01*
X11150919Y-17739568D01*
X11151355Y-17734707D01*
X11153538Y-17734903D01*
X11171730Y-17675716D01*
X11187766Y-17656073D01*
X11888653Y-16955186D01*
X12924760Y-16955186D01*
X12925924Y-16964088D01*
X12925924Y-16964091D01*
X12941538Y-17083495D01*
X12941539Y-17083499D01*
X12942703Y-17092400D01*
X12998436Y-17219063D01*
X13087479Y-17324992D01*
X13094950Y-17329965D01*
X13094951Y-17329966D01*
X13119296Y-17346171D01*
X13202673Y-17401672D01*
X13256507Y-17418491D01*
X13326190Y-17440262D01*
X13326191Y-17440262D01*
X13334759Y-17442939D01*
X13400391Y-17444141D01*
X13464140Y-17445310D01*
X13464143Y-17445310D01*
X13473118Y-17445474D01*
X13481781Y-17443112D01*
X13481783Y-17443112D01*
X13597963Y-17411438D01*
X13606627Y-17409076D01*
X13724554Y-17336668D01*
X13817419Y-17234073D01*
X13877756Y-17109538D01*
X13900714Y-16973074D01*
X13900860Y-16961149D01*
X13898736Y-16946314D01*
X13882515Y-16833052D01*
X13882514Y-16833050D01*
X13881242Y-16824165D01*
X13823966Y-16698192D01*
X13733636Y-16593359D01*
X13617513Y-16518092D01*
X13608911Y-16515520D01*
X13608908Y-16515518D01*
X13509132Y-16485679D01*
X13484933Y-16478442D01*
X13475957Y-16478387D01*
X13475956Y-16478387D01*
X13416733Y-16478026D01*
X13346554Y-16477597D01*
X13337923Y-16480064D01*
X13337921Y-16480064D01*
X13222133Y-16513156D01*
X13222130Y-16513157D01*
X13213499Y-16515624D01*
X13096465Y-16589467D01*
X13004861Y-16693189D01*
X13001047Y-16701312D01*
X13001046Y-16701314D01*
X12996121Y-16711805D01*
X12946050Y-16818452D01*
X12944670Y-16827317D01*
X12944669Y-16827319D01*
X12929495Y-16924777D01*
X12924760Y-16955186D01*
X11888653Y-16955186D01*
X13144530Y-15699309D01*
X13695901Y-15699309D01*
X13697065Y-15708211D01*
X13697065Y-15708214D01*
X13702260Y-15747938D01*
X13711957Y-15822094D01*
X13715574Y-15830314D01*
X13738793Y-15883083D01*
X13761829Y-15935438D01*
X13767606Y-15942311D01*
X13767607Y-15942312D01*
X13830496Y-16017128D01*
X13841508Y-16030228D01*
X13944589Y-16098845D01*
X13983172Y-16110899D01*
X14045345Y-16130323D01*
X14062786Y-16135772D01*
X14071760Y-16135936D01*
X14079394Y-16137173D01*
X14143440Y-16167810D01*
X14180755Y-16228209D01*
X14181226Y-16230547D01*
X14183180Y-16237544D01*
X14184344Y-16246449D01*
X14234216Y-16359793D01*
X14239993Y-16366666D01*
X14239994Y-16366667D01*
X14273537Y-16406571D01*
X14313895Y-16454583D01*
X14416976Y-16523200D01*
X14535173Y-16560127D01*
X14658982Y-16562396D01*
X14677124Y-16557450D01*
X14769793Y-16532186D01*
X14769795Y-16532185D01*
X14778452Y-16529825D01*
X14857947Y-16481015D01*
X14876331Y-16469727D01*
X14883979Y-16465031D01*
X14893436Y-16454583D01*
X14961050Y-16379885D01*
X14961051Y-16379883D01*
X14967078Y-16373225D01*
X14977569Y-16351573D01*
X15017155Y-16269866D01*
X15017155Y-16269865D01*
X15021070Y-16261785D01*
X15036881Y-16167810D01*
X15040809Y-16144464D01*
X15040809Y-16144459D01*
X15041615Y-16139671D01*
X15041745Y-16129000D01*
X15028352Y-16035484D01*
X15025463Y-16015307D01*
X15025462Y-16015305D01*
X15024190Y-16006420D01*
X14972937Y-15893695D01*
X14892105Y-15799885D01*
X14788194Y-15732533D01*
X14779592Y-15729960D01*
X14779589Y-15729959D01*
X14723417Y-15713160D01*
X14669555Y-15697052D01*
X14660577Y-15696997D01*
X14659044Y-15696768D01*
X14594628Y-15666916D01*
X14556577Y-15606978D01*
X14553325Y-15591804D01*
X14553076Y-15590951D01*
X14551803Y-15582065D01*
X14500550Y-15469340D01*
X14419718Y-15375530D01*
X14315807Y-15308178D01*
X14307205Y-15305605D01*
X14307202Y-15305604D01*
X14205771Y-15275270D01*
X14205772Y-15275270D01*
X14197168Y-15272697D01*
X14188192Y-15272642D01*
X14188191Y-15272642D01*
X14136077Y-15272324D01*
X14073340Y-15271941D01*
X14064709Y-15274408D01*
X14064707Y-15274408D01*
X13962907Y-15303502D01*
X13962904Y-15303504D01*
X13954277Y-15305969D01*
X13946690Y-15310756D01*
X13946688Y-15310757D01*
X13873041Y-15357225D01*
X13849550Y-15372047D01*
X13767578Y-15464862D01*
X13714952Y-15576953D01*
X13713571Y-15585821D01*
X13713571Y-15585822D01*
X13697282Y-15690436D01*
X13697282Y-15690440D01*
X13695901Y-15699309D01*
X13144530Y-15699309D01*
X13244684Y-15599155D01*
X13246225Y-15597824D01*
X13250774Y-15595601D01*
X13259846Y-15585822D01*
X13281680Y-15562284D01*
X13284960Y-15558879D01*
X13297326Y-15546513D01*
X13299922Y-15542728D01*
X13301743Y-15540655D01*
X13313774Y-15527686D01*
X13321687Y-15519156D01*
X13325998Y-15508351D01*
X13329773Y-15502379D01*
X13331890Y-15498414D01*
X13334752Y-15491955D01*
X13341332Y-15482364D01*
X13344017Y-15471050D01*
X13344018Y-15471047D01*
X13346487Y-15460640D01*
X13352052Y-15443044D01*
X13360325Y-15422308D01*
X13360900Y-15416444D01*
X13360900Y-15413356D01*
X13361050Y-15410293D01*
X13361408Y-15410310D01*
X13362164Y-15403849D01*
X13362153Y-15403848D01*
X13362721Y-15392232D01*
X13365408Y-15380910D01*
X13362051Y-15356243D01*
X13360900Y-15339252D01*
X13360900Y-13260681D01*
X13380902Y-13192560D01*
X13434558Y-13146067D01*
X13504832Y-13135963D01*
X13556718Y-13155794D01*
X13654976Y-13221200D01*
X13773173Y-13258127D01*
X13896982Y-13260396D01*
X13915124Y-13255450D01*
X14007793Y-13230186D01*
X14007795Y-13230185D01*
X14016452Y-13227825D01*
X14074230Y-13192349D01*
X14114331Y-13167727D01*
X14121979Y-13163031D01*
X14146480Y-13135963D01*
X14199050Y-13077885D01*
X14199053Y-13077881D01*
X14205078Y-13071225D01*
X14210837Y-13059340D01*
X14255155Y-12967866D01*
X14255155Y-12967865D01*
X14259070Y-12959785D01*
X14276890Y-12853869D01*
X14278809Y-12842464D01*
X14278809Y-12842459D01*
X14279615Y-12837671D01*
X14279745Y-12827000D01*
X14271001Y-12765942D01*
X14263463Y-12713307D01*
X14263462Y-12713305D01*
X14262190Y-12704420D01*
X14210937Y-12591695D01*
X14130105Y-12497885D01*
X14026194Y-12430533D01*
X14017592Y-12427960D01*
X14017589Y-12427959D01*
X13916158Y-12397625D01*
X13916159Y-12397625D01*
X13907555Y-12395052D01*
X13898579Y-12394997D01*
X13898578Y-12394997D01*
X13846464Y-12394679D01*
X13783727Y-12394296D01*
X13775096Y-12396763D01*
X13775094Y-12396763D01*
X13673294Y-12425857D01*
X13673291Y-12425859D01*
X13664664Y-12428324D01*
X13657077Y-12433111D01*
X13657075Y-12433112D01*
X13559937Y-12494402D01*
X13559039Y-12492979D01*
X13503722Y-12517649D01*
X13433541Y-12506921D01*
X13380301Y-12459953D01*
X13360900Y-12392777D01*
X13360900Y-11048000D01*
X13380902Y-10979879D01*
X13434558Y-10933386D01*
X13486900Y-10922000D01*
X13664972Y-10922000D01*
X13733093Y-10942002D01*
X13754067Y-10958905D01*
X17724269Y-14929107D01*
X17758295Y-14991419D01*
X17753230Y-15062234D01*
X17710683Y-15119070D01*
X17669799Y-15139351D01*
X17643834Y-15146772D01*
X17601664Y-15158824D01*
X17594077Y-15163611D01*
X17594075Y-15163612D01*
X17563623Y-15182826D01*
X17496937Y-15224902D01*
X17490993Y-15231632D01*
X17484161Y-15237447D01*
X17482105Y-15235031D01*
X17435283Y-15264509D01*
X17364289Y-15263848D01*
X17332384Y-15249023D01*
X17222721Y-15177943D01*
X17214119Y-15175371D01*
X17214116Y-15175369D01*
X17098744Y-15140866D01*
X17098745Y-15140866D01*
X17090141Y-15138293D01*
X17081165Y-15138238D01*
X17081164Y-15138238D01*
X17021941Y-15137877D01*
X16951762Y-15137448D01*
X16943131Y-15139915D01*
X16943129Y-15139915D01*
X16827341Y-15173007D01*
X16827338Y-15173008D01*
X16818707Y-15175475D01*
X16807052Y-15182829D01*
X16703524Y-15248150D01*
X16635239Y-15267584D01*
X16567757Y-15247320D01*
X16468259Y-15182829D01*
X16468260Y-15182829D01*
X16460721Y-15177943D01*
X16452119Y-15175371D01*
X16452116Y-15175369D01*
X16336744Y-15140866D01*
X16336745Y-15140866D01*
X16328141Y-15138293D01*
X16319165Y-15138238D01*
X16319164Y-15138238D01*
X16259941Y-15137877D01*
X16189762Y-15137448D01*
X16181131Y-15139915D01*
X16181129Y-15139915D01*
X16065341Y-15173007D01*
X16065338Y-15173008D01*
X16056707Y-15175475D01*
X15939673Y-15249318D01*
X15933731Y-15256046D01*
X15919074Y-15272642D01*
X15848069Y-15353040D01*
X15844255Y-15361163D01*
X15844254Y-15361165D01*
X15824513Y-15403212D01*
X15789258Y-15478303D01*
X15787878Y-15487168D01*
X15787877Y-15487170D01*
X15770441Y-15599155D01*
X15767968Y-15615037D01*
X15769132Y-15623939D01*
X15769132Y-15623942D01*
X15784746Y-15743346D01*
X15784747Y-15743350D01*
X15785911Y-15752251D01*
X15841644Y-15878914D01*
X15893097Y-15940124D01*
X15919268Y-15971258D01*
X15930687Y-15984843D01*
X15938158Y-15989816D01*
X15938159Y-15989817D01*
X15951852Y-15998932D01*
X16045881Y-16061523D01*
X16139290Y-16090706D01*
X16169398Y-16100113D01*
X16169399Y-16100113D01*
X16177967Y-16102790D01*
X16243599Y-16103992D01*
X16307348Y-16105161D01*
X16307351Y-16105161D01*
X16316326Y-16105325D01*
X16324989Y-16102963D01*
X16324991Y-16102963D01*
X16441171Y-16071289D01*
X16449835Y-16068927D01*
X16567762Y-15996519D01*
X16568877Y-15998335D01*
X16623034Y-15974965D01*
X16693080Y-15986542D01*
X16708161Y-15995144D01*
X16807881Y-16061523D01*
X16901290Y-16090706D01*
X16931398Y-16100113D01*
X16931399Y-16100113D01*
X16939967Y-16102790D01*
X17005599Y-16103992D01*
X17069348Y-16105161D01*
X17069351Y-16105161D01*
X17078326Y-16105325D01*
X17086989Y-16102963D01*
X17086991Y-16102963D01*
X17203171Y-16071289D01*
X17211835Y-16068927D01*
X17329762Y-15996519D01*
X17340331Y-15984843D01*
X17380809Y-15940124D01*
X17441353Y-15903043D01*
X17512333Y-15904581D01*
X17544043Y-15919793D01*
X17575788Y-15940924D01*
X17591976Y-15951700D01*
X17645801Y-15968516D01*
X17673207Y-15977078D01*
X17710173Y-15988627D01*
X17833982Y-15990896D01*
X17842647Y-15988534D01*
X17851549Y-15987425D01*
X17851990Y-15990964D01*
X17905952Y-15992032D01*
X17964907Y-16031591D01*
X17983397Y-16061456D01*
X18008816Y-16119225D01*
X18020341Y-16145418D01*
X18026118Y-16152291D01*
X18026119Y-16152292D01*
X18060932Y-16193707D01*
X18100020Y-16240208D01*
X18203101Y-16308825D01*
X18321298Y-16345752D01*
X18445107Y-16348021D01*
X18463249Y-16343075D01*
X18555918Y-16317811D01*
X18555920Y-16317810D01*
X18564577Y-16315450D01*
X18651979Y-16261785D01*
X18662456Y-16255352D01*
X18670104Y-16250656D01*
X18753203Y-16158850D01*
X18753967Y-16159542D01*
X18802372Y-16119442D01*
X18872853Y-16110899D01*
X18941255Y-16146093D01*
X19845753Y-17050592D01*
X20743801Y-17948640D01*
X20777827Y-18010952D01*
X20779642Y-18021399D01*
X20785099Y-18063131D01*
X20788344Y-18087949D01*
X20838216Y-18201293D01*
X20843993Y-18208166D01*
X20843994Y-18208167D01*
X20896012Y-18270050D01*
X20917895Y-18296083D01*
X21020976Y-18364700D01*
X21059550Y-18376751D01*
X21084044Y-18384404D01*
X21143101Y-18423810D01*
X21171478Y-18488889D01*
X21160525Y-18558219D01*
X21108839Y-18668308D01*
X21107458Y-18677176D01*
X21107458Y-18677177D01*
X21091169Y-18781791D01*
X21091169Y-18781795D01*
X21089788Y-18790664D01*
X21090952Y-18799566D01*
X21090952Y-18799569D01*
X21096430Y-18841459D01*
X21105844Y-18913449D01*
X21109461Y-18921669D01*
X21138492Y-18987647D01*
X21155716Y-19026793D01*
X21161493Y-19033666D01*
X21161494Y-19033667D01*
X21172605Y-19046885D01*
X21235395Y-19121583D01*
X21338476Y-19190200D01*
X21367239Y-19199186D01*
X21401440Y-19209871D01*
X21456673Y-19227127D01*
X21580482Y-19229396D01*
X21600267Y-19224002D01*
X21691293Y-19199186D01*
X21691295Y-19199185D01*
X21699952Y-19196825D01*
X21805479Y-19132031D01*
X21811503Y-19125376D01*
X21882550Y-19046885D01*
X21882551Y-19046883D01*
X21888578Y-19040225D01*
X21899069Y-19018573D01*
X21938655Y-18936866D01*
X21938655Y-18936865D01*
X21942570Y-18928785D01*
X21963115Y-18806671D01*
X21963245Y-18796000D01*
X21945690Y-18673420D01*
X21894437Y-18560695D01*
X21813605Y-18466885D01*
X21709694Y-18399533D01*
X21652255Y-18382355D01*
X21592722Y-18343673D01*
X21563552Y-18278945D01*
X21574966Y-18206700D01*
X21621155Y-18111366D01*
X21621155Y-18111365D01*
X21625070Y-18103285D01*
X21645615Y-17981171D01*
X21645745Y-17970500D01*
X21633435Y-17884542D01*
X21629463Y-17856807D01*
X21629462Y-17856805D01*
X21628190Y-17847920D01*
X21576937Y-17735195D01*
X21571075Y-17728391D01*
X21566241Y-17720833D01*
X21569424Y-17718797D01*
X21547471Y-17670292D01*
X21557812Y-17600053D01*
X21566251Y-17585058D01*
X21571078Y-17579725D01*
X21601640Y-17516646D01*
X21621155Y-17476366D01*
X21621155Y-17476365D01*
X21625070Y-17468285D01*
X21636754Y-17398838D01*
X21644809Y-17350964D01*
X21644809Y-17350959D01*
X21645615Y-17346171D01*
X21645745Y-17335500D01*
X21632173Y-17240729D01*
X21629463Y-17221807D01*
X21629462Y-17221805D01*
X21628190Y-17212920D01*
X21576937Y-17100195D01*
X21496105Y-17006385D01*
X21479805Y-16995820D01*
X21433522Y-16941985D01*
X21423692Y-16871672D01*
X21453437Y-16807206D01*
X21498300Y-16774451D01*
X21500530Y-16773486D01*
X21509194Y-16771124D01*
X21614721Y-16706330D01*
X21638093Y-16680509D01*
X21691792Y-16621184D01*
X21691793Y-16621182D01*
X21697820Y-16614524D01*
X21706701Y-16596195D01*
X21747897Y-16511165D01*
X21747897Y-16511164D01*
X21751812Y-16503084D01*
X21753301Y-16494232D01*
X21756031Y-16485679D01*
X21759446Y-16486769D01*
X21783029Y-16438288D01*
X21843672Y-16401370D01*
X21914647Y-16403098D01*
X21942612Y-16416007D01*
X22060601Y-16489164D01*
X22068850Y-16491560D01*
X22068851Y-16491561D01*
X22119412Y-16506250D01*
X22199599Y-16529546D01*
X22206755Y-16530072D01*
X22207559Y-16530131D01*
X22207570Y-16530131D01*
X22209866Y-16530300D01*
X22313760Y-16530300D01*
X22331557Y-16527862D01*
X22345124Y-16526004D01*
X22415329Y-16536576D01*
X22468673Y-16583426D01*
X22487159Y-16634501D01*
X22502844Y-16754449D01*
X22552716Y-16867793D01*
X22558493Y-16874666D01*
X22558494Y-16874667D01*
X22623881Y-16952454D01*
X22632395Y-16962583D01*
X22735476Y-17031200D01*
X22764239Y-17040186D01*
X22838607Y-17063420D01*
X22853673Y-17068127D01*
X22977482Y-17070396D01*
X23025214Y-17057383D01*
X23088293Y-17040186D01*
X23088295Y-17040185D01*
X23096952Y-17037825D01*
X23202479Y-16973031D01*
X23210716Y-16963931D01*
X23279550Y-16887885D01*
X23279551Y-16887883D01*
X23285578Y-16881225D01*
X23290207Y-16871672D01*
X23335655Y-16777866D01*
X23335655Y-16777865D01*
X23339570Y-16769785D01*
X23360115Y-16647671D01*
X23360245Y-16637000D01*
X23349236Y-16560127D01*
X23343963Y-16523307D01*
X23343962Y-16523305D01*
X23342690Y-16514420D01*
X23291437Y-16401695D01*
X23210605Y-16307885D01*
X23106694Y-16240533D01*
X23098092Y-16237960D01*
X23098089Y-16237959D01*
X22996658Y-16207625D01*
X22996659Y-16207625D01*
X22988055Y-16205052D01*
X22979078Y-16204997D01*
X22979077Y-16204997D01*
X22927194Y-16204680D01*
X22859197Y-16184262D01*
X22813033Y-16130323D01*
X22802302Y-16069455D01*
X22804797Y-16035484D01*
X23545285Y-16035484D01*
X23573895Y-16177374D01*
X23577795Y-16185028D01*
X23635708Y-16298690D01*
X23635710Y-16298693D01*
X23639608Y-16306343D01*
X23645421Y-16312664D01*
X23645422Y-16312666D01*
X23731773Y-16406571D01*
X23737583Y-16412889D01*
X23860601Y-16489164D01*
X23868850Y-16491560D01*
X23868851Y-16491561D01*
X23919412Y-16506250D01*
X23999599Y-16529546D01*
X24006755Y-16530072D01*
X24007559Y-16530131D01*
X24007570Y-16530131D01*
X24009866Y-16530300D01*
X24113760Y-16530300D01*
X24118006Y-16529718D01*
X24118012Y-16529718D01*
X24212397Y-16516789D01*
X24212400Y-16516788D01*
X24220906Y-16515623D01*
X24353747Y-16458138D01*
X24431848Y-16394892D01*
X24459563Y-16372449D01*
X24466235Y-16367046D01*
X24471390Y-16359793D01*
X24545107Y-16256062D01*
X24550083Y-16249060D01*
X24599114Y-16112872D01*
X24599843Y-16102954D01*
X24607531Y-15998250D01*
X24609715Y-15968516D01*
X24581105Y-15826626D01*
X24548697Y-15763021D01*
X24519292Y-15705310D01*
X24519290Y-15705307D01*
X24515392Y-15697657D01*
X24499637Y-15680523D01*
X24423227Y-15597429D01*
X24423226Y-15597428D01*
X24417417Y-15591111D01*
X24402828Y-15582065D01*
X24301700Y-15519363D01*
X24301701Y-15519363D01*
X24294399Y-15514836D01*
X24286150Y-15512440D01*
X24286149Y-15512439D01*
X24169441Y-15478533D01*
X24155401Y-15474454D01*
X24148245Y-15473928D01*
X24147441Y-15473869D01*
X24147430Y-15473869D01*
X24145134Y-15473700D01*
X24041240Y-15473700D01*
X24036994Y-15474282D01*
X24036988Y-15474282D01*
X23942603Y-15487211D01*
X23942600Y-15487212D01*
X23934094Y-15488377D01*
X23801253Y-15545862D01*
X23794576Y-15551269D01*
X23756547Y-15582065D01*
X23688765Y-15636954D01*
X23683791Y-15643953D01*
X23646056Y-15697052D01*
X23604917Y-15754940D01*
X23555886Y-15891128D01*
X23555257Y-15899688D01*
X23555257Y-15899690D01*
X23552422Y-15938296D01*
X23545285Y-16035484D01*
X22804797Y-16035484D01*
X22809715Y-15968516D01*
X22781105Y-15826626D01*
X22748697Y-15763021D01*
X22719292Y-15705310D01*
X22719290Y-15705307D01*
X22715392Y-15697657D01*
X22699637Y-15680523D01*
X22623227Y-15597429D01*
X22623226Y-15597428D01*
X22617417Y-15591111D01*
X22602828Y-15582065D01*
X22501700Y-15519363D01*
X22501701Y-15519363D01*
X22494399Y-15514836D01*
X22486150Y-15512440D01*
X22486149Y-15512439D01*
X22369441Y-15478533D01*
X22355401Y-15474454D01*
X22348245Y-15473928D01*
X22347441Y-15473869D01*
X22347430Y-15473869D01*
X22345134Y-15473700D01*
X22241240Y-15473700D01*
X22236994Y-15474282D01*
X22236988Y-15474282D01*
X22142603Y-15487211D01*
X22142600Y-15487212D01*
X22134094Y-15488377D01*
X22001253Y-15545862D01*
X21994576Y-15551269D01*
X21956547Y-15582065D01*
X21888765Y-15636954D01*
X21883791Y-15643953D01*
X21846056Y-15697052D01*
X21804917Y-15754940D01*
X21755886Y-15891128D01*
X21755257Y-15899688D01*
X21755257Y-15899690D01*
X21754911Y-15904406D01*
X21729975Y-15970880D01*
X21673059Y-16013319D01*
X21602234Y-16018251D01*
X21560717Y-16000913D01*
X21526474Y-15978718D01*
X21526475Y-15978718D01*
X21518936Y-15973832D01*
X21510334Y-15971259D01*
X21510331Y-15971258D01*
X21428297Y-15946725D01*
X21400297Y-15938351D01*
X21391321Y-15938296D01*
X21391320Y-15938296D01*
X21339206Y-15937978D01*
X21276469Y-15937595D01*
X21267838Y-15940062D01*
X21267836Y-15940062D01*
X21166036Y-15969156D01*
X21166033Y-15969158D01*
X21157406Y-15971623D01*
X21149819Y-15976410D01*
X21149817Y-15976411D01*
X21061597Y-16032074D01*
X21052679Y-16037701D01*
X20970707Y-16130516D01*
X20954919Y-16164144D01*
X20922436Y-16233332D01*
X20918081Y-16242607D01*
X20916700Y-16251475D01*
X20916700Y-16251476D01*
X20900411Y-16356090D01*
X20900411Y-16356094D01*
X20899030Y-16364963D01*
X20900194Y-16373865D01*
X20900194Y-16373868D01*
X20903791Y-16401370D01*
X20915086Y-16487748D01*
X20934639Y-16532186D01*
X20938372Y-16540669D01*
X20947498Y-16611076D01*
X20917111Y-16675241D01*
X20856858Y-16712791D01*
X20785868Y-16711805D01*
X20733947Y-16680509D01*
X19361640Y-15308202D01*
X19327614Y-15245890D01*
X19332679Y-15175075D01*
X19375226Y-15118239D01*
X19384806Y-15111732D01*
X19448331Y-15072727D01*
X19455979Y-15068031D01*
X19463864Y-15059319D01*
X19466211Y-15057882D01*
X19468908Y-15055643D01*
X19469231Y-15056032D01*
X19524409Y-15022238D01*
X19595389Y-15023776D01*
X19641263Y-15049946D01*
X19642118Y-15050711D01*
X19647895Y-15057583D01*
X19750976Y-15126200D01*
X19779739Y-15135186D01*
X19855400Y-15158824D01*
X19869173Y-15163127D01*
X19992982Y-15165396D01*
X20019942Y-15158046D01*
X20103793Y-15135186D01*
X20103795Y-15135185D01*
X20112452Y-15132825D01*
X20217979Y-15068031D01*
X20225865Y-15059319D01*
X20295050Y-14982885D01*
X20295051Y-14982883D01*
X20301078Y-14976225D01*
X20306366Y-14965312D01*
X20351155Y-14872866D01*
X20351155Y-14872865D01*
X20355070Y-14864785D01*
X20366917Y-14794369D01*
X20374809Y-14747464D01*
X20374809Y-14747459D01*
X20375615Y-14742671D01*
X20375745Y-14732000D01*
X20358190Y-14609420D01*
X20306937Y-14496695D01*
X20226105Y-14402885D01*
X20122194Y-14335533D01*
X20113592Y-14332960D01*
X20113589Y-14332959D01*
X20012158Y-14302625D01*
X20012159Y-14302625D01*
X20003555Y-14300052D01*
X19994579Y-14299997D01*
X19994578Y-14299997D01*
X19942464Y-14299679D01*
X19879727Y-14299296D01*
X19871096Y-14301763D01*
X19871094Y-14301763D01*
X19769294Y-14330857D01*
X19769291Y-14330859D01*
X19760664Y-14333324D01*
X19753077Y-14338111D01*
X19753075Y-14338112D01*
X19749419Y-14340419D01*
X19655937Y-14399402D01*
X19649993Y-14406132D01*
X19643161Y-14411947D01*
X19641547Y-14410051D01*
X19592674Y-14440802D01*
X19521681Y-14440121D01*
X19475508Y-14414521D01*
X19469964Y-14409685D01*
X19464105Y-14402885D01*
X19360194Y-14335533D01*
X19351592Y-14332960D01*
X19351589Y-14332959D01*
X19250158Y-14302625D01*
X19250159Y-14302625D01*
X19241555Y-14300052D01*
X19232579Y-14299997D01*
X19232578Y-14299997D01*
X19180464Y-14299679D01*
X19117727Y-14299296D01*
X19109096Y-14301763D01*
X19109094Y-14301763D01*
X19007294Y-14330857D01*
X19007291Y-14330859D01*
X18998664Y-14333324D01*
X18991077Y-14338111D01*
X18991075Y-14338112D01*
X18987419Y-14340419D01*
X18893937Y-14399402D01*
X18811965Y-14492217D01*
X18803142Y-14511009D01*
X18756088Y-14564170D01*
X18687760Y-14583453D01*
X18619854Y-14562734D01*
X18599993Y-14546555D01*
X17637102Y-13583664D01*
X18613288Y-13583664D01*
X18614452Y-13592566D01*
X18614452Y-13592569D01*
X18616008Y-13604464D01*
X18629344Y-13706449D01*
X18679216Y-13819793D01*
X18684993Y-13826666D01*
X18684994Y-13826667D01*
X18703586Y-13848785D01*
X18758895Y-13914583D01*
X18861976Y-13983200D01*
X18980173Y-14020127D01*
X19103982Y-14022396D01*
X19122124Y-14017450D01*
X19214793Y-13992186D01*
X19214795Y-13992185D01*
X19223452Y-13989825D01*
X19328979Y-13925031D01*
X19412078Y-13833225D01*
X19422569Y-13811573D01*
X19462155Y-13729866D01*
X19462155Y-13729865D01*
X19466070Y-13721785D01*
X19486615Y-13599671D01*
X19486745Y-13589000D01*
X19475736Y-13512127D01*
X19470463Y-13475307D01*
X19470462Y-13475305D01*
X19469190Y-13466420D01*
X19417937Y-13353695D01*
X19412078Y-13346896D01*
X19412076Y-13346892D01*
X19369734Y-13297753D01*
X19363026Y-13289967D01*
X19333712Y-13225306D01*
X19344011Y-13155060D01*
X19365061Y-13123168D01*
X19408060Y-13075664D01*
X21026288Y-13075664D01*
X21027452Y-13084566D01*
X21027452Y-13084569D01*
X21033412Y-13130140D01*
X21042344Y-13198449D01*
X21067280Y-13255121D01*
X21070511Y-13262463D01*
X21092216Y-13311793D01*
X21097993Y-13318666D01*
X21097994Y-13318667D01*
X21151991Y-13382904D01*
X21171895Y-13406583D01*
X21274976Y-13475200D01*
X21393173Y-13512127D01*
X21516982Y-13514396D01*
X21535124Y-13509450D01*
X21627793Y-13484186D01*
X21627795Y-13484185D01*
X21636452Y-13481825D01*
X21741979Y-13417031D01*
X21772419Y-13383402D01*
X21819050Y-13331885D01*
X21819051Y-13331883D01*
X21825078Y-13325225D01*
X21830102Y-13314857D01*
X21875155Y-13221866D01*
X21875155Y-13221865D01*
X21879070Y-13213785D01*
X21893615Y-13127333D01*
X21898809Y-13096464D01*
X21898809Y-13096459D01*
X21899615Y-13091671D01*
X21899745Y-13081000D01*
X21882190Y-12958420D01*
X21830937Y-12845695D01*
X21750105Y-12751885D01*
X21646194Y-12684533D01*
X21637592Y-12681960D01*
X21637589Y-12681959D01*
X21554335Y-12657061D01*
X21527555Y-12649052D01*
X21518579Y-12648997D01*
X21518578Y-12648997D01*
X21466464Y-12648679D01*
X21403727Y-12648296D01*
X21395096Y-12650763D01*
X21395094Y-12650763D01*
X21293294Y-12679857D01*
X21293291Y-12679859D01*
X21284664Y-12682324D01*
X21277077Y-12687111D01*
X21277075Y-12687112D01*
X21225696Y-12719530D01*
X21179937Y-12748402D01*
X21097965Y-12841217D01*
X21045339Y-12953308D01*
X21043958Y-12962176D01*
X21043958Y-12962177D01*
X21027669Y-13066791D01*
X21027669Y-13066795D01*
X21026288Y-13075664D01*
X19408060Y-13075664D01*
X19412078Y-13071225D01*
X19417837Y-13059340D01*
X19462155Y-12967866D01*
X19462155Y-12967865D01*
X19466070Y-12959785D01*
X19483890Y-12853869D01*
X19485809Y-12842464D01*
X19485809Y-12842459D01*
X19486615Y-12837671D01*
X19486745Y-12827000D01*
X19478001Y-12765942D01*
X19470463Y-12713307D01*
X19470462Y-12713305D01*
X19469190Y-12704420D01*
X19417937Y-12591695D01*
X19337105Y-12497885D01*
X19233194Y-12430533D01*
X19224592Y-12427960D01*
X19224589Y-12427959D01*
X19123158Y-12397625D01*
X19123159Y-12397625D01*
X19114555Y-12395052D01*
X19105579Y-12394997D01*
X19105578Y-12394997D01*
X19053464Y-12394679D01*
X18990727Y-12394296D01*
X18982096Y-12396763D01*
X18982094Y-12396763D01*
X18880294Y-12425857D01*
X18880291Y-12425859D01*
X18871664Y-12428324D01*
X18864077Y-12433111D01*
X18864075Y-12433112D01*
X18774530Y-12489611D01*
X18766937Y-12494402D01*
X18684965Y-12587217D01*
X18632339Y-12699308D01*
X18630958Y-12708176D01*
X18630958Y-12708177D01*
X18614669Y-12812791D01*
X18614669Y-12812795D01*
X18613288Y-12821664D01*
X18614452Y-12830566D01*
X18614452Y-12830569D01*
X18616008Y-12842464D01*
X18629344Y-12944449D01*
X18639402Y-12967307D01*
X18674992Y-13048192D01*
X18679216Y-13057793D01*
X18715388Y-13100825D01*
X18737670Y-13127333D01*
X18766191Y-13192349D01*
X18755035Y-13262463D01*
X18735660Y-13291816D01*
X18684965Y-13349217D01*
X18632339Y-13461308D01*
X18630958Y-13470176D01*
X18630958Y-13470177D01*
X18614669Y-13574791D01*
X18614669Y-13574795D01*
X18613288Y-13583664D01*
X17637102Y-13583664D01*
X15471595Y-11418157D01*
X15437569Y-11355845D01*
X15434690Y-11329062D01*
X15434690Y-11048000D01*
X15454692Y-10979879D01*
X15508348Y-10933386D01*
X15560690Y-10922000D01*
X19004788Y-10922000D01*
X19072909Y-10942002D01*
X19119402Y-10995658D01*
X19129506Y-11065932D01*
X19118843Y-11101549D01*
X19091258Y-11160303D01*
X19089878Y-11169168D01*
X19089877Y-11169170D01*
X19072740Y-11279237D01*
X19069968Y-11297037D01*
X19071132Y-11305939D01*
X19071132Y-11305942D01*
X19086746Y-11425346D01*
X19086747Y-11425350D01*
X19087911Y-11434251D01*
X19143644Y-11560914D01*
X19232687Y-11666843D01*
X19347881Y-11743523D01*
X19400742Y-11760038D01*
X19471398Y-11782113D01*
X19471399Y-11782113D01*
X19479967Y-11784790D01*
X19545599Y-11785992D01*
X19609348Y-11787161D01*
X19609351Y-11787161D01*
X19618326Y-11787325D01*
X19626989Y-11784963D01*
X19626991Y-11784963D01*
X19743171Y-11753289D01*
X19751835Y-11750927D01*
X19869762Y-11678519D01*
X19962627Y-11575924D01*
X20003093Y-11492403D01*
X20019050Y-11459468D01*
X20019051Y-11459466D01*
X20022964Y-11451389D01*
X20045922Y-11314925D01*
X20046068Y-11303000D01*
X20043944Y-11288165D01*
X20037997Y-11246647D01*
X20035686Y-11230508D01*
X20045828Y-11160241D01*
X20092350Y-11106611D01*
X20160482Y-11086646D01*
X20213663Y-11098451D01*
X20321493Y-11148733D01*
X20373254Y-11160303D01*
X20492082Y-11186865D01*
X20492088Y-11186866D01*
X20497126Y-11187992D01*
X20502635Y-11188300D01*
X21370696Y-11188300D01*
X21438817Y-11208302D01*
X21455003Y-11220661D01*
X21458555Y-11223859D01*
X21467124Y-11236468D01*
X21477447Y-11242003D01*
X21485196Y-11250793D01*
X21499429Y-11256257D01*
X21499430Y-11256257D01*
X21508217Y-11259630D01*
X21522602Y-11266216D01*
X21544332Y-11277867D01*
X21547760Y-11278300D01*
X21556855Y-11278300D01*
X21556855Y-11279649D01*
X21561088Y-11281000D01*
X21563093Y-11280694D01*
X21566984Y-11282188D01*
X21593371Y-11279135D01*
X21607853Y-11278300D01*
X23156855Y-11278300D01*
X23156855Y-11281646D01*
X23163093Y-11280694D01*
X23166984Y-11282188D01*
X23193371Y-11279135D01*
X23200738Y-11278710D01*
X23204125Y-11278300D01*
X23211724Y-11278300D01*
X23219106Y-11276487D01*
X23224862Y-11275790D01*
X23229512Y-11274953D01*
X23254010Y-11272119D01*
X23263700Y-11265534D01*
X23275078Y-11262739D01*
X23291624Y-11248152D01*
X23293576Y-11246431D01*
X23306076Y-11236735D01*
X23313855Y-11231448D01*
X23326468Y-11222876D01*
X23332003Y-11212553D01*
X23340793Y-11204804D01*
X23347154Y-11188232D01*
X23349630Y-11181783D01*
X23356216Y-11167398D01*
X23367867Y-11145668D01*
X23368300Y-11142240D01*
X23368300Y-11133145D01*
X23369649Y-11133145D01*
X23371000Y-11128912D01*
X23370694Y-11126907D01*
X23372188Y-11123016D01*
X23369135Y-11096629D01*
X23368300Y-11082147D01*
X23368300Y-11048000D01*
X23388302Y-10979879D01*
X23441958Y-10933386D01*
X23494300Y-10922000D01*
X24043468Y-10922000D01*
X24111589Y-10942002D01*
X24158082Y-10995658D01*
X24168186Y-11065932D01*
X24138692Y-11130512D01*
X24078092Y-11169149D01*
X24077684Y-11169266D01*
X24066341Y-11172507D01*
X24066338Y-11172508D01*
X24057707Y-11174975D01*
X23940673Y-11248818D01*
X23849069Y-11352540D01*
X23790258Y-11477803D01*
X23788878Y-11486668D01*
X23788877Y-11486670D01*
X23773944Y-11582580D01*
X23768968Y-11614537D01*
X23770132Y-11623439D01*
X23770132Y-11623442D01*
X23785746Y-11742846D01*
X23785747Y-11742850D01*
X23786911Y-11751751D01*
X23842644Y-11878414D01*
X23931687Y-11984343D01*
X23939158Y-11989316D01*
X23939159Y-11989317D01*
X23990553Y-12023528D01*
X24036176Y-12077926D01*
X24045146Y-12148353D01*
X24014617Y-12212451D01*
X23987972Y-12234975D01*
X23940673Y-12264818D01*
X23849069Y-12368540D01*
X23845255Y-12376663D01*
X23845254Y-12376665D01*
X23822159Y-12425857D01*
X23790258Y-12493803D01*
X23788878Y-12502668D01*
X23788877Y-12502670D01*
X23770363Y-12621580D01*
X23768968Y-12630537D01*
X23770132Y-12639439D01*
X23770132Y-12639442D01*
X23785746Y-12758846D01*
X23785747Y-12758850D01*
X23786911Y-12767751D01*
X23842644Y-12894414D01*
X23931687Y-13000343D01*
X24046881Y-13077023D01*
X24123066Y-13100825D01*
X24170398Y-13115613D01*
X24170399Y-13115613D01*
X24178967Y-13118290D01*
X24244599Y-13119492D01*
X24308348Y-13120661D01*
X24308351Y-13120661D01*
X24317326Y-13120825D01*
X24325989Y-13118463D01*
X24325991Y-13118463D01*
X24442171Y-13086789D01*
X24450835Y-13084427D01*
X24568762Y-13012019D01*
X24661627Y-12909424D01*
X24698745Y-12832812D01*
X24718050Y-12792968D01*
X24718051Y-12792966D01*
X24721964Y-12784889D01*
X24738025Y-12689419D01*
X24744115Y-12653222D01*
X24744922Y-12648425D01*
X24745068Y-12636500D01*
X24743177Y-12623291D01*
X24726723Y-12508403D01*
X24726722Y-12508401D01*
X24725450Y-12499516D01*
X24668174Y-12373543D01*
X24577844Y-12268710D01*
X24543421Y-12246398D01*
X24524952Y-12234427D01*
X24478668Y-12180591D01*
X24468837Y-12110278D01*
X24498581Y-12045813D01*
X24527556Y-12021320D01*
X24561111Y-12000717D01*
X24561112Y-12000716D01*
X24568762Y-11996019D01*
X24661627Y-11893424D01*
X24721964Y-11768889D01*
X24744922Y-11632425D01*
X24745068Y-11620500D01*
X24742944Y-11605665D01*
X24726723Y-11492403D01*
X24726722Y-11492401D01*
X24725450Y-11483516D01*
X24668174Y-11357543D01*
X24577844Y-11252710D01*
X24461721Y-11177443D01*
X24432543Y-11168717D01*
X24373010Y-11130036D01*
X24343839Y-11065308D01*
X24354294Y-10995086D01*
X24401055Y-10941663D01*
X24468645Y-10922000D01*
X25095700Y-10922000D01*
X25163821Y-10942002D01*
X25210314Y-10995658D01*
X25221700Y-11048000D01*
X25221700Y-21163039D01*
X25201698Y-21231160D01*
X25148042Y-21277653D01*
X25077768Y-21287757D01*
X25059598Y-21283756D01*
X25049143Y-21280629D01*
X25030156Y-21274951D01*
X25021180Y-21274896D01*
X25021179Y-21274896D01*
X24969065Y-21274578D01*
X24906328Y-21274195D01*
X24897697Y-21276662D01*
X24897695Y-21276662D01*
X24795895Y-21305756D01*
X24795892Y-21305758D01*
X24787265Y-21308223D01*
X24779678Y-21313010D01*
X24779676Y-21313011D01*
X24690131Y-21369510D01*
X24682538Y-21374301D01*
X24600566Y-21467116D01*
X24596117Y-21476593D01*
X24558851Y-21555968D01*
X24547940Y-21579207D01*
X24546559Y-21588075D01*
X24546559Y-21588076D01*
X24530270Y-21692690D01*
X24530270Y-21692694D01*
X24528889Y-21701563D01*
X24544945Y-21824348D01*
X24594817Y-21937692D01*
X24600594Y-21944565D01*
X24600595Y-21944566D01*
X24668716Y-22025606D01*
X24674496Y-22032482D01*
X24777577Y-22101099D01*
X24895774Y-22138026D01*
X25019583Y-22140295D01*
X25028245Y-22137934D01*
X25028249Y-22137933D01*
X25062559Y-22128579D01*
X25133542Y-22129959D01*
X25192511Y-22169497D01*
X25220743Y-22234639D01*
X25221700Y-22250142D01*
X25221700Y-24857443D01*
X25220309Y-24869695D01*
X25220295Y-24877853D01*
X25217115Y-24891681D01*
X25219713Y-24903164D01*
X25219187Y-24911083D01*
X25212631Y-24960885D01*
X25204118Y-24992658D01*
X25183877Y-25041524D01*
X25167431Y-25070009D01*
X25135232Y-25111972D01*
X25111972Y-25135232D01*
X25070009Y-25167431D01*
X25041524Y-25183877D01*
X24992658Y-25204118D01*
X24960888Y-25212631D01*
X24911008Y-25219198D01*
X24903490Y-25219684D01*
X24892319Y-25217115D01*
X24878477Y-25220247D01*
X24871099Y-25220234D01*
X24857979Y-25221700D01*
X542557Y-25221700D01*
X530305Y-25220309D01*
X522147Y-25220295D01*
X508319Y-25217115D01*
X496836Y-25219713D01*
X488917Y-25219187D01*
X439115Y-25212631D01*
X407342Y-25204118D01*
X358476Y-25183877D01*
X329991Y-25167431D01*
X288028Y-25135232D01*
X264768Y-25111972D01*
X232569Y-25070009D01*
X216123Y-25041524D01*
X195882Y-24992658D01*
X187369Y-24960885D01*
X182382Y-24923003D01*
X182160Y-24895759D01*
X182884Y-24892638D01*
X182885Y-24892000D01*
X181302Y-24885059D01*
X180510Y-24877981D01*
X180582Y-24877973D01*
X178300Y-24857713D01*
X178300Y-24151519D01*
X198302Y-24083398D01*
X251958Y-24036905D01*
X322232Y-24026801D01*
X386812Y-24056295D01*
X422739Y-24108528D01*
X453099Y-24192169D01*
X476048Y-24255393D01*
X572360Y-24402293D01*
X699884Y-24523097D01*
X706211Y-24526772D01*
X706215Y-24526775D01*
X829820Y-24598570D01*
X851778Y-24611324D01*
X858786Y-24613446D01*
X858787Y-24613447D01*
X961678Y-24644610D01*
X1019894Y-24662242D01*
X1027201Y-24662695D01*
X1027205Y-24662696D01*
X1107554Y-24667680D01*
X1195215Y-24673118D01*
X1202431Y-24671878D01*
X1202433Y-24671878D01*
X1270866Y-24660119D01*
X1368336Y-24643371D01*
X1375070Y-24640506D01*
X1375072Y-24640505D01*
X1523233Y-24577461D01*
X1523235Y-24577460D01*
X1529970Y-24574594D01*
X1671447Y-24470479D01*
X1785177Y-24336610D01*
X1830161Y-24248514D01*
X1861734Y-24186683D01*
X1861735Y-24186681D01*
X1865061Y-24180167D01*
X1906812Y-24009543D01*
X1907500Y-23998454D01*
X1907500Y-23959784D01*
X8150900Y-23959784D01*
X8159892Y-24036905D01*
X8164020Y-24072312D01*
X8166114Y-24090276D01*
X8226048Y-24255393D01*
X8322360Y-24402293D01*
X8449884Y-24523097D01*
X8456211Y-24526772D01*
X8456215Y-24526775D01*
X8579820Y-24598570D01*
X8601778Y-24611324D01*
X8608786Y-24613446D01*
X8608787Y-24613447D01*
X8711678Y-24644610D01*
X8769894Y-24662242D01*
X8777201Y-24662695D01*
X8777205Y-24662696D01*
X8857554Y-24667680D01*
X8945215Y-24673118D01*
X8952431Y-24671878D01*
X8952433Y-24671878D01*
X9020866Y-24660119D01*
X9118336Y-24643371D01*
X9125070Y-24640506D01*
X9125072Y-24640505D01*
X9273233Y-24577461D01*
X9273235Y-24577460D01*
X9279970Y-24574594D01*
X9421447Y-24470479D01*
X9535177Y-24336610D01*
X9580161Y-24248514D01*
X9611734Y-24186683D01*
X9611735Y-24186681D01*
X9615061Y-24180167D01*
X9656812Y-24009543D01*
X9657500Y-23998454D01*
X9657500Y-23515064D01*
X13685688Y-23515064D01*
X13686852Y-23523966D01*
X13686852Y-23523969D01*
X13690445Y-23551442D01*
X13701744Y-23637849D01*
X13715905Y-23670033D01*
X13746449Y-23739449D01*
X13751616Y-23751193D01*
X13831295Y-23845983D01*
X13934376Y-23914600D01*
X13953006Y-23920420D01*
X13954461Y-23920875D01*
X14013518Y-23960281D01*
X14041895Y-24025360D01*
X14041638Y-24043303D01*
X14042779Y-24043317D01*
X14042669Y-24052293D01*
X14041288Y-24061164D01*
X14042452Y-24070066D01*
X14042452Y-24070069D01*
X14049316Y-24122556D01*
X14057344Y-24183949D01*
X14107216Y-24297293D01*
X14186895Y-24392083D01*
X14289976Y-24460700D01*
X14408173Y-24497627D01*
X14531982Y-24499896D01*
X14550124Y-24494950D01*
X14642793Y-24469686D01*
X14642795Y-24469685D01*
X14651452Y-24467325D01*
X14756979Y-24402531D01*
X14840078Y-24310725D01*
X14850569Y-24289073D01*
X14890155Y-24207366D01*
X14890155Y-24207365D01*
X14894070Y-24199285D01*
X14905449Y-24131652D01*
X14913809Y-24081964D01*
X14913809Y-24081959D01*
X14914615Y-24077171D01*
X14914745Y-24066500D01*
X14904722Y-23996515D01*
X14898463Y-23952807D01*
X14898462Y-23952805D01*
X14897190Y-23943920D01*
X14845937Y-23831195D01*
X14765105Y-23737385D01*
X14661194Y-23670033D01*
X14647763Y-23666016D01*
X14588231Y-23627334D01*
X14583423Y-23616664D01*
X18486288Y-23616664D01*
X18487452Y-23625566D01*
X18487452Y-23625569D01*
X18491278Y-23654827D01*
X18502344Y-23739449D01*
X18552216Y-23852793D01*
X18631895Y-23947583D01*
X18734976Y-24016200D01*
X18853173Y-24053127D01*
X18976982Y-24055396D01*
X19044807Y-24036905D01*
X19087793Y-24025186D01*
X19087795Y-24025185D01*
X19096452Y-24022825D01*
X19201979Y-23958031D01*
X19285078Y-23866225D01*
X19291813Y-23852325D01*
X19335155Y-23762866D01*
X19335155Y-23762865D01*
X19339070Y-23754785D01*
X19355888Y-23654826D01*
X19386914Y-23590969D01*
X19447540Y-23554023D01*
X19482449Y-23549753D01*
X19565668Y-23551278D01*
X19565671Y-23551278D01*
X19574646Y-23551442D01*
X19583309Y-23549080D01*
X19583311Y-23549080D01*
X19699491Y-23517406D01*
X19708155Y-23515044D01*
X19826082Y-23442636D01*
X19899037Y-23362037D01*
X22752968Y-23362037D01*
X22754132Y-23370939D01*
X22754132Y-23370942D01*
X22769746Y-23490346D01*
X22769747Y-23490350D01*
X22770911Y-23499251D01*
X22826644Y-23625914D01*
X22915687Y-23731843D01*
X22923158Y-23736816D01*
X22923159Y-23736817D01*
X22927113Y-23739449D01*
X23030881Y-23808523D01*
X23103449Y-23831195D01*
X23154398Y-23847113D01*
X23154399Y-23847113D01*
X23162967Y-23849790D01*
X23228599Y-23850992D01*
X23292348Y-23852161D01*
X23292351Y-23852161D01*
X23301326Y-23852325D01*
X23309989Y-23849963D01*
X23309991Y-23849963D01*
X23426171Y-23818289D01*
X23434835Y-23815927D01*
X23552762Y-23743519D01*
X23564507Y-23730544D01*
X23614856Y-23674919D01*
X23645627Y-23640924D01*
X23674145Y-23582063D01*
X23702050Y-23524468D01*
X23702051Y-23524466D01*
X23705964Y-23516389D01*
X23728922Y-23379925D01*
X23729068Y-23368000D01*
X23726944Y-23353165D01*
X23710723Y-23239903D01*
X23710722Y-23239901D01*
X23709450Y-23231016D01*
X23652174Y-23105043D01*
X23561844Y-23000210D01*
X23445721Y-22924943D01*
X23437119Y-22922371D01*
X23437116Y-22922369D01*
X23321744Y-22887866D01*
X23321745Y-22887866D01*
X23313141Y-22885293D01*
X23304165Y-22885238D01*
X23304164Y-22885238D01*
X23244941Y-22884877D01*
X23174762Y-22884448D01*
X23166131Y-22886915D01*
X23166129Y-22886915D01*
X23050341Y-22920007D01*
X23050338Y-22920008D01*
X23041707Y-22922475D01*
X22924673Y-22996318D01*
X22833069Y-23100040D01*
X22829255Y-23108163D01*
X22829254Y-23108165D01*
X22822888Y-23121724D01*
X22774258Y-23225303D01*
X22772878Y-23234168D01*
X22772877Y-23234170D01*
X22756393Y-23340041D01*
X22752968Y-23362037D01*
X19899037Y-23362037D01*
X19918947Y-23340041D01*
X19967464Y-23239903D01*
X19975370Y-23223585D01*
X19975371Y-23223583D01*
X19979284Y-23215506D01*
X19996628Y-23112413D01*
X20001435Y-23083839D01*
X20002242Y-23079042D01*
X20002388Y-23067117D01*
X19994000Y-23008542D01*
X19984043Y-22939020D01*
X19984042Y-22939018D01*
X19982770Y-22930133D01*
X19925494Y-22804160D01*
X19835164Y-22699327D01*
X19719041Y-22624060D01*
X19710439Y-22621488D01*
X19710436Y-22621486D01*
X19595064Y-22586983D01*
X19595065Y-22586983D01*
X19586461Y-22584410D01*
X19577485Y-22584355D01*
X19577484Y-22584355D01*
X19518261Y-22583994D01*
X19448082Y-22583565D01*
X19439451Y-22586032D01*
X19439449Y-22586032D01*
X19323661Y-22619124D01*
X19323658Y-22619125D01*
X19315027Y-22621592D01*
X19197993Y-22695435D01*
X19106389Y-22799157D01*
X19047578Y-22924420D01*
X19046198Y-22933285D01*
X19046197Y-22933287D01*
X19034718Y-23007010D01*
X19026288Y-23061154D01*
X19027013Y-23066694D01*
X19006679Y-23132936D01*
X18952459Y-23178769D01*
X18900753Y-23189522D01*
X18894886Y-23189486D01*
X18863727Y-23189296D01*
X18855096Y-23191763D01*
X18855094Y-23191763D01*
X18753294Y-23220857D01*
X18753291Y-23220859D01*
X18744664Y-23223324D01*
X18737077Y-23228111D01*
X18737075Y-23228112D01*
X18664522Y-23273890D01*
X18639937Y-23289402D01*
X18557965Y-23382217D01*
X18505339Y-23494308D01*
X18503958Y-23503176D01*
X18503958Y-23503177D01*
X18487669Y-23607791D01*
X18487669Y-23607795D01*
X18486288Y-23616664D01*
X14583423Y-23616664D01*
X14559062Y-23562607D01*
X14558389Y-23534792D01*
X14559015Y-23531071D01*
X14559145Y-23520400D01*
X14541590Y-23397820D01*
X14490337Y-23285095D01*
X14409505Y-23191285D01*
X14305594Y-23123933D01*
X14296992Y-23121360D01*
X14296989Y-23121359D01*
X14215228Y-23096908D01*
X14186955Y-23088452D01*
X14177979Y-23088397D01*
X14177978Y-23088397D01*
X14125864Y-23088079D01*
X14063127Y-23087696D01*
X14054496Y-23090163D01*
X14054494Y-23090163D01*
X13952694Y-23119257D01*
X13952691Y-23119259D01*
X13944064Y-23121724D01*
X13936477Y-23126511D01*
X13936475Y-23126512D01*
X13872935Y-23166603D01*
X13839337Y-23187802D01*
X13757365Y-23280617D01*
X13751425Y-23293269D01*
X13710741Y-23379925D01*
X13704739Y-23392708D01*
X13703358Y-23401576D01*
X13703358Y-23401577D01*
X13687069Y-23506191D01*
X13687069Y-23506195D01*
X13685688Y-23515064D01*
X9657500Y-23515064D01*
X9657500Y-23221816D01*
X9645543Y-23119257D01*
X9643134Y-23098596D01*
X9643134Y-23098595D01*
X9642286Y-23091324D01*
X9582352Y-22926207D01*
X9486040Y-22779307D01*
X9358516Y-22658503D01*
X9352189Y-22654828D01*
X9352185Y-22654825D01*
X9212954Y-22573954D01*
X9212955Y-22573954D01*
X9206622Y-22570276D01*
X9199614Y-22568154D01*
X9199613Y-22568153D01*
X9045516Y-22521481D01*
X9045515Y-22521481D01*
X9038506Y-22519358D01*
X9031199Y-22518905D01*
X9031195Y-22518904D01*
X8950845Y-22513920D01*
X8863185Y-22508482D01*
X8855969Y-22509722D01*
X8855967Y-22509722D01*
X8802531Y-22518904D01*
X8690064Y-22538229D01*
X8683330Y-22541094D01*
X8683328Y-22541095D01*
X8535167Y-22604139D01*
X8535165Y-22604140D01*
X8528430Y-22607006D01*
X8386953Y-22711121D01*
X8273223Y-22844990D01*
X8193339Y-23001433D01*
X8191600Y-23008538D01*
X8191599Y-23008542D01*
X8178448Y-23062289D01*
X8151588Y-23172057D01*
X8151240Y-23177659D01*
X8151240Y-23177662D01*
X8151172Y-23178769D01*
X8150900Y-23183146D01*
X8150900Y-23959784D01*
X1907500Y-23959784D01*
X1907500Y-23221816D01*
X1895543Y-23119257D01*
X1893134Y-23098596D01*
X1893134Y-23098595D01*
X1892286Y-23091324D01*
X1832352Y-22926207D01*
X1736040Y-22779307D01*
X1608516Y-22658503D01*
X1602189Y-22654828D01*
X1602185Y-22654825D01*
X1462954Y-22573954D01*
X1462955Y-22573954D01*
X1456622Y-22570276D01*
X1449614Y-22568154D01*
X1449613Y-22568153D01*
X1295516Y-22521481D01*
X1295515Y-22521481D01*
X1288506Y-22519358D01*
X1281199Y-22518905D01*
X1281195Y-22518904D01*
X1200845Y-22513920D01*
X1113185Y-22508482D01*
X1105969Y-22509722D01*
X1105967Y-22509722D01*
X1052531Y-22518904D01*
X940064Y-22538229D01*
X933330Y-22541094D01*
X933328Y-22541095D01*
X785167Y-22604139D01*
X785165Y-22604140D01*
X778430Y-22607006D01*
X636953Y-22711121D01*
X523223Y-22844990D01*
X443339Y-23001433D01*
X441600Y-23008538D01*
X441599Y-23008542D01*
X426689Y-23069477D01*
X391069Y-23130891D01*
X327901Y-23163299D01*
X257239Y-23156410D01*
X201519Y-23112413D01*
X178300Y-23039529D01*
X178300Y-21953337D01*
X3003468Y-21953337D01*
X3004632Y-21962239D01*
X3004632Y-21962242D01*
X3020246Y-22081646D01*
X3020247Y-22081650D01*
X3021411Y-22090551D01*
X3077144Y-22217214D01*
X3166187Y-22323143D01*
X3281381Y-22399823D01*
X3374790Y-22429006D01*
X3404898Y-22438413D01*
X3404899Y-22438413D01*
X3413467Y-22441090D01*
X3479099Y-22442292D01*
X3542848Y-22443461D01*
X3542851Y-22443461D01*
X3551826Y-22443625D01*
X3560489Y-22441263D01*
X3560491Y-22441263D01*
X3676671Y-22409589D01*
X3685335Y-22407227D01*
X3803262Y-22334819D01*
X3896127Y-22232224D01*
X3926518Y-22169497D01*
X3952550Y-22115768D01*
X3952551Y-22115766D01*
X3956464Y-22107689D01*
X3979422Y-21971225D01*
X3979568Y-21959300D01*
X3977444Y-21944465D01*
X3961223Y-21831203D01*
X3961222Y-21831201D01*
X3959950Y-21822316D01*
X3902674Y-21696343D01*
X3812344Y-21591510D01*
X3696221Y-21516243D01*
X3687619Y-21513671D01*
X3687616Y-21513669D01*
X3572244Y-21479166D01*
X3572245Y-21479166D01*
X3563641Y-21476593D01*
X3554665Y-21476538D01*
X3554664Y-21476538D01*
X3495441Y-21476177D01*
X3425262Y-21475748D01*
X3416631Y-21478215D01*
X3416629Y-21478215D01*
X3300841Y-21511307D01*
X3300838Y-21511308D01*
X3292207Y-21513775D01*
X3175173Y-21587618D01*
X3083569Y-21691340D01*
X3024758Y-21816603D01*
X3023378Y-21825468D01*
X3023377Y-21825470D01*
X3007184Y-21929472D01*
X3003468Y-21953337D01*
X178300Y-21953337D01*
X178300Y-20319309D01*
X198302Y-20251188D01*
X251958Y-20204695D01*
X322232Y-20194591D01*
X386812Y-20224085D01*
X424133Y-20280373D01*
X474449Y-20435229D01*
X569389Y-20599671D01*
X573807Y-20604578D01*
X573808Y-20604579D01*
X664150Y-20704914D01*
X696445Y-20740781D01*
X701787Y-20744662D01*
X701789Y-20744664D01*
X844720Y-20848509D01*
X850062Y-20852390D01*
X856090Y-20855074D01*
X856092Y-20855075D01*
X1017496Y-20926937D01*
X1023527Y-20929622D01*
X1116393Y-20949361D01*
X1202802Y-20967728D01*
X1202806Y-20967728D01*
X1209259Y-20969100D01*
X1399141Y-20969100D01*
X1405594Y-20967728D01*
X1405598Y-20967728D01*
X1492007Y-20949361D01*
X1584873Y-20929622D01*
X1590904Y-20926937D01*
X1752308Y-20855075D01*
X1752310Y-20855074D01*
X1758338Y-20852390D01*
X1763679Y-20848509D01*
X1769397Y-20845208D01*
X1770724Y-20847506D01*
X1826468Y-20827623D01*
X1895618Y-20843710D01*
X1945093Y-20894628D01*
X1958571Y-20936971D01*
X1965785Y-20991767D01*
X2024056Y-21132445D01*
X2116752Y-21253248D01*
X2237555Y-21345944D01*
X2378233Y-21404215D01*
X2529200Y-21424090D01*
X2537388Y-21423012D01*
X2671979Y-21405293D01*
X2680167Y-21404215D01*
X2820845Y-21345944D01*
X2941648Y-21253248D01*
X3034344Y-21132445D01*
X3092615Y-20991767D01*
X3112490Y-20840800D01*
X6945910Y-20840800D01*
X6965785Y-20991767D01*
X7024056Y-21132445D01*
X7116752Y-21253248D01*
X7237555Y-21345944D01*
X7378233Y-21404215D01*
X7529200Y-21424090D01*
X7537388Y-21423012D01*
X7671979Y-21405293D01*
X7680167Y-21404215D01*
X7705946Y-21393537D01*
X21038468Y-21393537D01*
X21039632Y-21402439D01*
X21039632Y-21402442D01*
X21055246Y-21521846D01*
X21055247Y-21521850D01*
X21056411Y-21530751D01*
X21112144Y-21657414D01*
X21201187Y-21763343D01*
X21316381Y-21840023D01*
X21409790Y-21869206D01*
X21439898Y-21878613D01*
X21439899Y-21878613D01*
X21448467Y-21881290D01*
X21514099Y-21882492D01*
X21577848Y-21883661D01*
X21577851Y-21883661D01*
X21586826Y-21883825D01*
X21595489Y-21881463D01*
X21595491Y-21881463D01*
X21711671Y-21849789D01*
X21720335Y-21847427D01*
X21838262Y-21775019D01*
X21931127Y-21672424D01*
X21970330Y-21591510D01*
X21987550Y-21555968D01*
X21987551Y-21555966D01*
X21991464Y-21547889D01*
X22014422Y-21411425D01*
X22014568Y-21399500D01*
X22012444Y-21384665D01*
X21996223Y-21271403D01*
X21996222Y-21271401D01*
X21994950Y-21262516D01*
X21937674Y-21136543D01*
X21847344Y-21031710D01*
X21731221Y-20956443D01*
X21722619Y-20953871D01*
X21722616Y-20953869D01*
X21629805Y-20926113D01*
X21598641Y-20916793D01*
X21589665Y-20916738D01*
X21589664Y-20916738D01*
X21530441Y-20916377D01*
X21460262Y-20915948D01*
X21451631Y-20918415D01*
X21451629Y-20918415D01*
X21335841Y-20951507D01*
X21335838Y-20951508D01*
X21327207Y-20953975D01*
X21210173Y-21027818D01*
X21118569Y-21131540D01*
X21059758Y-21256803D01*
X21058378Y-21265668D01*
X21058377Y-21265670D01*
X21051408Y-21310432D01*
X21038468Y-21393537D01*
X7705946Y-21393537D01*
X7820845Y-21345944D01*
X7941648Y-21253248D01*
X8034344Y-21132445D01*
X8092615Y-20991767D01*
X8099829Y-20936971D01*
X8128552Y-20872044D01*
X8187817Y-20832953D01*
X8258808Y-20832108D01*
X8288316Y-20846397D01*
X8289003Y-20845208D01*
X8294721Y-20848509D01*
X8300062Y-20852390D01*
X8306090Y-20855074D01*
X8306092Y-20855075D01*
X8467496Y-20926937D01*
X8473527Y-20929622D01*
X8566393Y-20949361D01*
X8652802Y-20967728D01*
X8652806Y-20967728D01*
X8659259Y-20969100D01*
X8849141Y-20969100D01*
X8855594Y-20967728D01*
X8855598Y-20967728D01*
X8942007Y-20949361D01*
X9034873Y-20929622D01*
X9040904Y-20926937D01*
X9202308Y-20855075D01*
X9202310Y-20855074D01*
X9208338Y-20852390D01*
X9213680Y-20848509D01*
X9356611Y-20744664D01*
X9356613Y-20744662D01*
X9361955Y-20740781D01*
X9394250Y-20704914D01*
X9402579Y-20695664D01*
X9977288Y-20695664D01*
X9978452Y-20704566D01*
X9978452Y-20704569D01*
X9983188Y-20740781D01*
X9993344Y-20818449D01*
X9996961Y-20826669D01*
X10037330Y-20918415D01*
X10043216Y-20931793D01*
X10048993Y-20938666D01*
X10048994Y-20938667D01*
X10093629Y-20991767D01*
X10122895Y-21026583D01*
X10225976Y-21095200D01*
X10254739Y-21104186D01*
X10320769Y-21124815D01*
X10344173Y-21132127D01*
X10467982Y-21134396D01*
X10503136Y-21124812D01*
X10578793Y-21104186D01*
X10578795Y-21104185D01*
X10587452Y-21101825D01*
X10692979Y-21037031D01*
X10708660Y-21019707D01*
X10770050Y-20951885D01*
X10770051Y-20951883D01*
X10776078Y-20945225D01*
X10782813Y-20931325D01*
X10826155Y-20841866D01*
X10826155Y-20841865D01*
X10830070Y-20833785D01*
X10845064Y-20744664D01*
X10849809Y-20716464D01*
X10849809Y-20716459D01*
X10850615Y-20711671D01*
X10850745Y-20701000D01*
X10836936Y-20604579D01*
X10834463Y-20587307D01*
X10834462Y-20587305D01*
X10833190Y-20578420D01*
X10781937Y-20465695D01*
X10755057Y-20434500D01*
X10725743Y-20369839D01*
X10736041Y-20299593D01*
X10757095Y-20267697D01*
X10770050Y-20253385D01*
X10770051Y-20253383D01*
X10776078Y-20246725D01*
X10780979Y-20236611D01*
X10826155Y-20143366D01*
X10826155Y-20143365D01*
X10830070Y-20135285D01*
X10843207Y-20057203D01*
X10849809Y-20017964D01*
X10849809Y-20017959D01*
X10850615Y-20013171D01*
X10850745Y-20002500D01*
X10841626Y-19938822D01*
X10834463Y-19888807D01*
X10834462Y-19888805D01*
X10833190Y-19879920D01*
X10781937Y-19767195D01*
X10701105Y-19673385D01*
X10597194Y-19606033D01*
X10588592Y-19603460D01*
X10588589Y-19603459D01*
X10487158Y-19573125D01*
X10487159Y-19573125D01*
X10478555Y-19570552D01*
X10469579Y-19570497D01*
X10469578Y-19570497D01*
X10417464Y-19570179D01*
X10354727Y-19569796D01*
X10346096Y-19572263D01*
X10346094Y-19572263D01*
X10244294Y-19601357D01*
X10244291Y-19601359D01*
X10235664Y-19603824D01*
X10228077Y-19608611D01*
X10228075Y-19608612D01*
X10138530Y-19665111D01*
X10130937Y-19669902D01*
X10048965Y-19762717D01*
X9996339Y-19874808D01*
X9994958Y-19883676D01*
X9994958Y-19883677D01*
X9978669Y-19988291D01*
X9978669Y-19988295D01*
X9977288Y-19997164D01*
X9978452Y-20006066D01*
X9978452Y-20006069D01*
X9982303Y-20035519D01*
X9993344Y-20119949D01*
X10043216Y-20233293D01*
X10074323Y-20270300D01*
X10102843Y-20335313D01*
X10091687Y-20405428D01*
X10072313Y-20434780D01*
X10066787Y-20441037D01*
X10048965Y-20461217D01*
X10045150Y-20469343D01*
X10019001Y-20525040D01*
X9996339Y-20573308D01*
X9994958Y-20582176D01*
X9994958Y-20582177D01*
X9978669Y-20686791D01*
X9978669Y-20686795D01*
X9977288Y-20695664D01*
X9402579Y-20695664D01*
X9484592Y-20604579D01*
X9484593Y-20604578D01*
X9489011Y-20599671D01*
X9583951Y-20435229D01*
X9617331Y-20332496D01*
X9640588Y-20260920D01*
X9640588Y-20260918D01*
X9642628Y-20254641D01*
X9644020Y-20241402D01*
X9646478Y-20218010D01*
X9657500Y-20113143D01*
X9657500Y-19468457D01*
X9644949Y-19349044D01*
X9643318Y-19333523D01*
X9643318Y-19333522D01*
X9642628Y-19326959D01*
X9583951Y-19146371D01*
X9573706Y-19128625D01*
X9507163Y-19013369D01*
X9489011Y-18981929D01*
X9444040Y-18931983D01*
X9366377Y-18845730D01*
X9366376Y-18845729D01*
X9361955Y-18840819D01*
X9356613Y-18836938D01*
X9356611Y-18836936D01*
X9213680Y-18733091D01*
X9213679Y-18733090D01*
X9208338Y-18729210D01*
X9202310Y-18726526D01*
X9202308Y-18726525D01*
X9040904Y-18654663D01*
X9040902Y-18654662D01*
X9034873Y-18651978D01*
X8942007Y-18632239D01*
X8855598Y-18613872D01*
X8855594Y-18613872D01*
X8849141Y-18612500D01*
X8659259Y-18612500D01*
X8652806Y-18613872D01*
X8652802Y-18613872D01*
X8566393Y-18632239D01*
X8473527Y-18651978D01*
X8467498Y-18654662D01*
X8467496Y-18654663D01*
X8306092Y-18726525D01*
X8306090Y-18726526D01*
X8300062Y-18729210D01*
X8294721Y-18733090D01*
X8294720Y-18733091D01*
X8151789Y-18836936D01*
X8151787Y-18836938D01*
X8146445Y-18840819D01*
X8142024Y-18845729D01*
X8142023Y-18845730D01*
X8064361Y-18931983D01*
X8019389Y-18981929D01*
X8001237Y-19013369D01*
X7934695Y-19128625D01*
X7924449Y-19146371D01*
X7865772Y-19326959D01*
X7865082Y-19333522D01*
X7865082Y-19333523D01*
X7863451Y-19349044D01*
X7850900Y-19468457D01*
X7850900Y-20113143D01*
X7851243Y-20116403D01*
X7851243Y-20116410D01*
X7852297Y-20126432D01*
X7854405Y-20146486D01*
X7854582Y-20148171D01*
X7841810Y-20218010D01*
X7793309Y-20269857D01*
X7724476Y-20287252D01*
X7696206Y-20281073D01*
X7695775Y-20282683D01*
X7687796Y-20280545D01*
X7680167Y-20277385D01*
X7529200Y-20257510D01*
X7378233Y-20277385D01*
X7370604Y-20280545D01*
X7365155Y-20282802D01*
X7237555Y-20335656D01*
X7116752Y-20428352D01*
X7024056Y-20549155D01*
X6965785Y-20689833D01*
X6945910Y-20840800D01*
X3112490Y-20840800D01*
X3092615Y-20689833D01*
X3034344Y-20549155D01*
X2941648Y-20428352D01*
X2820845Y-20335656D01*
X2693245Y-20282802D01*
X2687796Y-20280545D01*
X2680167Y-20277385D01*
X2529200Y-20257510D01*
X2378233Y-20277385D01*
X2370604Y-20280545D01*
X2362625Y-20282683D01*
X2361755Y-20279436D01*
X2306708Y-20285332D01*
X2243233Y-20253528D01*
X2207030Y-20192456D01*
X2203818Y-20148171D01*
X2203996Y-20146486D01*
X2206103Y-20126432D01*
X2207157Y-20116410D01*
X2207157Y-20116403D01*
X2207500Y-20113143D01*
X2207500Y-19468457D01*
X2194949Y-19349044D01*
X2193318Y-19333523D01*
X2193318Y-19333522D01*
X2192628Y-19326959D01*
X2133951Y-19146371D01*
X2123706Y-19128625D01*
X2057163Y-19013369D01*
X2039011Y-18981929D01*
X1994040Y-18931983D01*
X1916377Y-18845730D01*
X1916376Y-18845729D01*
X1911955Y-18840819D01*
X1906613Y-18836938D01*
X1906611Y-18836936D01*
X1763680Y-18733091D01*
X1763679Y-18733090D01*
X1758338Y-18729210D01*
X1752310Y-18726526D01*
X1752308Y-18726525D01*
X1590904Y-18654663D01*
X1590902Y-18654662D01*
X1584873Y-18651978D01*
X1492007Y-18632239D01*
X1405598Y-18613872D01*
X1405594Y-18613872D01*
X1399141Y-18612500D01*
X1209259Y-18612500D01*
X1202806Y-18613872D01*
X1202802Y-18613872D01*
X1116393Y-18632239D01*
X1023527Y-18651978D01*
X1017498Y-18654662D01*
X1017496Y-18654663D01*
X856092Y-18726525D01*
X856090Y-18726526D01*
X850062Y-18729210D01*
X844721Y-18733090D01*
X844720Y-18733091D01*
X701789Y-18836936D01*
X701787Y-18836938D01*
X696445Y-18840819D01*
X692024Y-18845729D01*
X692023Y-18845730D01*
X614361Y-18931983D01*
X569389Y-18981929D01*
X551237Y-19013369D01*
X484695Y-19128625D01*
X474449Y-19146371D01*
X442705Y-19244069D01*
X424133Y-19301227D01*
X384059Y-19359833D01*
X318663Y-19387470D01*
X248706Y-19375363D01*
X196400Y-19327357D01*
X178300Y-19262291D01*
X178300Y-17875637D01*
X4185568Y-17875637D01*
X4186732Y-17884539D01*
X4186732Y-17884542D01*
X4202346Y-18003946D01*
X4202347Y-18003950D01*
X4203511Y-18012851D01*
X4259244Y-18139514D01*
X4348287Y-18245443D01*
X4463481Y-18322123D01*
X4532458Y-18343673D01*
X4586998Y-18360713D01*
X4586999Y-18360713D01*
X4595567Y-18363390D01*
X4661199Y-18364592D01*
X4724948Y-18365761D01*
X4724951Y-18365761D01*
X4733926Y-18365925D01*
X4742589Y-18363563D01*
X4742591Y-18363563D01*
X4858771Y-18331889D01*
X4867435Y-18329527D01*
X4937951Y-18286230D01*
X5006467Y-18267632D01*
X5073697Y-18288718D01*
X5123881Y-18322123D01*
X5192858Y-18343673D01*
X5247398Y-18360713D01*
X5247399Y-18360713D01*
X5255967Y-18363390D01*
X5321599Y-18364592D01*
X5385348Y-18365761D01*
X5385351Y-18365761D01*
X5394326Y-18365925D01*
X5402989Y-18363563D01*
X5402991Y-18363563D01*
X5519171Y-18331889D01*
X5527835Y-18329527D01*
X5645762Y-18257119D01*
X5738627Y-18154524D01*
X5768891Y-18092059D01*
X5795050Y-18038068D01*
X5795051Y-18038066D01*
X5798964Y-18029989D01*
X5821922Y-17893525D01*
X5822068Y-17881600D01*
X5819944Y-17866765D01*
X5803723Y-17753503D01*
X5803722Y-17753501D01*
X5802450Y-17744616D01*
X5745174Y-17618643D01*
X5654844Y-17513810D01*
X5538721Y-17438543D01*
X5530119Y-17435971D01*
X5530116Y-17435969D01*
X5439044Y-17408733D01*
X5406141Y-17398893D01*
X5397165Y-17398838D01*
X5397164Y-17398838D01*
X5336378Y-17398467D01*
X5267762Y-17398048D01*
X5259131Y-17400515D01*
X5259129Y-17400515D01*
X5143341Y-17433607D01*
X5143338Y-17433608D01*
X5134707Y-17436075D01*
X5097688Y-17459432D01*
X5071008Y-17476266D01*
X5002723Y-17495700D01*
X4935242Y-17475437D01*
X4885859Y-17443429D01*
X4878321Y-17438543D01*
X4869719Y-17435971D01*
X4869716Y-17435969D01*
X4778644Y-17408733D01*
X4745741Y-17398893D01*
X4736765Y-17398838D01*
X4736764Y-17398838D01*
X4675978Y-17398467D01*
X4607362Y-17398048D01*
X4598731Y-17400515D01*
X4598729Y-17400515D01*
X4482941Y-17433607D01*
X4482938Y-17433608D01*
X4474307Y-17436075D01*
X4357273Y-17509918D01*
X4265669Y-17613640D01*
X4206858Y-17738903D01*
X4205478Y-17747768D01*
X4205477Y-17747770D01*
X4188363Y-17857687D01*
X4185568Y-17875637D01*
X178300Y-17875637D01*
X178300Y-15869664D01*
X9850288Y-15869664D01*
X9851452Y-15878566D01*
X9851452Y-15878569D01*
X9853430Y-15893695D01*
X9866344Y-15992449D01*
X9916216Y-16105793D01*
X9921993Y-16112666D01*
X9921994Y-16112667D01*
X9969306Y-16168952D01*
X9995895Y-16200583D01*
X10098976Y-16269200D01*
X10217173Y-16306127D01*
X10340982Y-16308396D01*
X10360767Y-16303002D01*
X10451793Y-16278186D01*
X10451795Y-16278185D01*
X10460452Y-16275825D01*
X10565979Y-16211031D01*
X10605101Y-16167810D01*
X10643050Y-16125885D01*
X10643051Y-16125883D01*
X10649078Y-16119225D01*
X10655813Y-16105325D01*
X10699155Y-16015866D01*
X10699155Y-16015865D01*
X10703070Y-16007785D01*
X10717951Y-15919338D01*
X10722809Y-15890464D01*
X10722809Y-15890459D01*
X10723615Y-15885671D01*
X10723745Y-15875000D01*
X10706190Y-15752420D01*
X10654937Y-15639695D01*
X10574105Y-15545885D01*
X10470194Y-15478533D01*
X10461592Y-15475960D01*
X10461589Y-15475959D01*
X10371547Y-15449031D01*
X10351555Y-15443052D01*
X10342579Y-15442997D01*
X10342578Y-15442997D01*
X10290464Y-15442679D01*
X10227727Y-15442296D01*
X10219096Y-15444763D01*
X10219094Y-15444763D01*
X10117294Y-15473857D01*
X10117291Y-15473859D01*
X10108664Y-15476324D01*
X10101077Y-15481111D01*
X10101075Y-15481112D01*
X10027260Y-15527686D01*
X10003937Y-15542402D01*
X9921965Y-15635217D01*
X9918150Y-15643343D01*
X9881243Y-15721954D01*
X9869339Y-15747308D01*
X9867958Y-15756176D01*
X9867958Y-15756177D01*
X9851669Y-15860791D01*
X9851669Y-15860795D01*
X9850288Y-15869664D01*
X178300Y-15869664D01*
X178300Y-15107664D01*
X3563788Y-15107664D01*
X3564952Y-15116566D01*
X3564952Y-15116569D01*
X3571028Y-15163034D01*
X3579844Y-15230449D01*
X3629716Y-15343793D01*
X3635493Y-15350666D01*
X3635494Y-15350667D01*
X3685466Y-15410116D01*
X3709395Y-15438583D01*
X3812476Y-15507200D01*
X3836918Y-15514836D01*
X3919560Y-15540655D01*
X3930673Y-15544127D01*
X4054482Y-15546396D01*
X4069132Y-15542402D01*
X4165293Y-15516186D01*
X4165295Y-15516185D01*
X4173952Y-15513825D01*
X4238860Y-15473971D01*
X4271831Y-15453727D01*
X4279479Y-15449031D01*
X4285503Y-15442376D01*
X4356550Y-15363885D01*
X4356551Y-15363883D01*
X4362578Y-15357225D01*
X4367866Y-15346312D01*
X4412655Y-15253866D01*
X4412655Y-15253865D01*
X4416570Y-15245785D01*
X4428467Y-15175075D01*
X4436309Y-15128464D01*
X4436309Y-15128459D01*
X4437115Y-15123671D01*
X4437245Y-15113000D01*
X4424247Y-15022238D01*
X4420963Y-14999307D01*
X4420962Y-14999305D01*
X4420274Y-14994502D01*
X6457241Y-14994502D01*
X6473297Y-15117287D01*
X6523169Y-15230631D01*
X6528946Y-15237504D01*
X6528947Y-15237505D01*
X6559967Y-15274408D01*
X6602848Y-15325421D01*
X6705929Y-15394038D01*
X6824126Y-15430965D01*
X6947935Y-15433234D01*
X6966077Y-15428288D01*
X7058746Y-15403024D01*
X7058748Y-15403023D01*
X7067405Y-15400663D01*
X7159914Y-15343862D01*
X7228431Y-15325264D01*
X7295662Y-15346350D01*
X7377255Y-15400663D01*
X7388558Y-15408187D01*
X7506755Y-15445114D01*
X7630564Y-15447383D01*
X7648930Y-15442376D01*
X7741375Y-15417173D01*
X7741377Y-15417172D01*
X7750034Y-15414812D01*
X7820980Y-15371251D01*
X7847913Y-15354714D01*
X7855561Y-15350018D01*
X7877825Y-15325421D01*
X7932632Y-15264872D01*
X7932633Y-15264870D01*
X7938660Y-15258212D01*
X7946059Y-15242942D01*
X7950373Y-15234037D01*
X8401968Y-15234037D01*
X8403132Y-15242939D01*
X8403132Y-15242942D01*
X8418746Y-15362346D01*
X8418747Y-15362350D01*
X8419911Y-15371251D01*
X8475644Y-15497914D01*
X8512240Y-15541450D01*
X8553985Y-15591111D01*
X8564687Y-15603843D01*
X8679881Y-15680523D01*
X8768513Y-15708214D01*
X8803398Y-15719113D01*
X8803399Y-15719113D01*
X8811967Y-15721790D01*
X8877599Y-15722992D01*
X8941348Y-15724161D01*
X8941351Y-15724161D01*
X8950326Y-15724325D01*
X8958989Y-15721963D01*
X8958991Y-15721963D01*
X9075171Y-15690289D01*
X9083835Y-15687927D01*
X9201762Y-15615519D01*
X9294627Y-15512924D01*
X9341018Y-15417173D01*
X9351050Y-15396468D01*
X9351051Y-15396466D01*
X9354964Y-15388389D01*
X9377922Y-15251925D01*
X9378068Y-15240000D01*
X9377357Y-15235031D01*
X9359723Y-15111903D01*
X9359722Y-15111901D01*
X9358450Y-15103016D01*
X9301174Y-14977043D01*
X9210844Y-14872210D01*
X9094721Y-14796943D01*
X9086119Y-14794371D01*
X9086116Y-14794369D01*
X8970744Y-14759866D01*
X8970745Y-14759866D01*
X8962141Y-14757293D01*
X8953165Y-14757238D01*
X8953164Y-14757238D01*
X8893941Y-14756877D01*
X8823762Y-14756448D01*
X8815131Y-14758915D01*
X8815129Y-14758915D01*
X8699341Y-14792007D01*
X8699338Y-14792008D01*
X8690707Y-14794475D01*
X8573673Y-14868318D01*
X8567731Y-14875046D01*
X8545433Y-14900294D01*
X8482069Y-14972040D01*
X8478255Y-14980163D01*
X8478254Y-14980165D01*
X8449881Y-15040597D01*
X8423258Y-15097303D01*
X8421878Y-15106168D01*
X8421877Y-15106170D01*
X8409942Y-15182826D01*
X8401968Y-15234037D01*
X7950373Y-15234037D01*
X7988737Y-15154853D01*
X7988737Y-15154852D01*
X7992652Y-15146772D01*
X8006982Y-15061599D01*
X8012391Y-15029451D01*
X8012391Y-15029446D01*
X8013197Y-15024658D01*
X8013327Y-15013987D01*
X7995772Y-14891407D01*
X7944519Y-14778682D01*
X7863687Y-14684872D01*
X7759776Y-14617520D01*
X7751174Y-14614947D01*
X7751171Y-14614946D01*
X7649740Y-14584612D01*
X7649741Y-14584612D01*
X7641137Y-14582039D01*
X7632161Y-14581984D01*
X7632160Y-14581984D01*
X7580046Y-14581666D01*
X7517309Y-14581283D01*
X7508678Y-14583750D01*
X7508676Y-14583750D01*
X7406876Y-14612844D01*
X7406873Y-14612846D01*
X7398246Y-14615311D01*
X7390655Y-14620100D01*
X7390654Y-14620101D01*
X7313018Y-14669085D01*
X7244733Y-14688519D01*
X7177251Y-14668255D01*
X7084685Y-14608257D01*
X7084686Y-14608257D01*
X7077147Y-14603371D01*
X7068545Y-14600798D01*
X7068542Y-14600797D01*
X6967111Y-14570463D01*
X6967112Y-14570463D01*
X6958508Y-14567890D01*
X6949532Y-14567835D01*
X6949531Y-14567835D01*
X6897417Y-14567517D01*
X6834680Y-14567134D01*
X6826049Y-14569601D01*
X6826047Y-14569601D01*
X6724247Y-14598695D01*
X6724244Y-14598697D01*
X6715617Y-14601162D01*
X6708030Y-14605949D01*
X6708028Y-14605950D01*
X6681947Y-14622406D01*
X6610890Y-14667240D01*
X6528918Y-14760055D01*
X6476292Y-14872146D01*
X6474911Y-14881014D01*
X6474911Y-14881015D01*
X6458622Y-14985629D01*
X6458622Y-14985633D01*
X6457241Y-14994502D01*
X4420274Y-14994502D01*
X4419690Y-14990420D01*
X4368437Y-14877695D01*
X4287605Y-14783885D01*
X4183694Y-14716533D01*
X4175092Y-14713960D01*
X4175089Y-14713959D01*
X4073658Y-14683625D01*
X4073659Y-14683625D01*
X4065055Y-14681052D01*
X4056079Y-14680997D01*
X4056078Y-14680997D01*
X4003964Y-14680679D01*
X3941227Y-14680296D01*
X3932596Y-14682763D01*
X3932594Y-14682763D01*
X3830794Y-14711857D01*
X3830791Y-14711859D01*
X3822164Y-14714324D01*
X3814577Y-14719111D01*
X3814575Y-14719112D01*
X3749984Y-14759866D01*
X3717437Y-14780402D01*
X3635465Y-14873217D01*
X3582839Y-14985308D01*
X3581458Y-14994176D01*
X3581458Y-14994177D01*
X3565169Y-15098791D01*
X3565169Y-15098795D01*
X3563788Y-15107664D01*
X178300Y-15107664D01*
X178300Y-13710664D01*
X2357288Y-13710664D01*
X2358452Y-13719566D01*
X2358452Y-13719569D01*
X2359381Y-13726671D01*
X2373344Y-13833449D01*
X2376961Y-13841669D01*
X2413641Y-13925031D01*
X2423216Y-13946793D01*
X2428993Y-13953666D01*
X2428994Y-13953667D01*
X2482609Y-14017450D01*
X2502895Y-14041583D01*
X2605976Y-14110200D01*
X2724173Y-14147127D01*
X2847982Y-14149396D01*
X2866124Y-14144450D01*
X2958793Y-14119186D01*
X2958795Y-14119185D01*
X2967452Y-14116825D01*
X3072979Y-14052031D01*
X3088660Y-14034707D01*
X3150050Y-13966885D01*
X3150051Y-13966883D01*
X3156078Y-13960225D01*
X3166569Y-13938573D01*
X3206155Y-13856866D01*
X3206155Y-13856865D01*
X3210070Y-13848785D01*
X3230615Y-13726671D01*
X3230745Y-13716000D01*
X3229981Y-13710664D01*
X10231288Y-13710664D01*
X10232452Y-13719566D01*
X10232452Y-13719569D01*
X10233381Y-13726671D01*
X10247344Y-13833449D01*
X10250961Y-13841669D01*
X10287641Y-13925031D01*
X10297216Y-13946793D01*
X10302993Y-13953666D01*
X10302994Y-13953667D01*
X10356609Y-14017450D01*
X10376895Y-14041583D01*
X10479976Y-14110200D01*
X10598173Y-14147127D01*
X10721982Y-14149396D01*
X10740124Y-14144450D01*
X10832793Y-14119186D01*
X10832795Y-14119185D01*
X10841452Y-14116825D01*
X10946979Y-14052031D01*
X10962660Y-14034707D01*
X11024050Y-13966885D01*
X11024051Y-13966883D01*
X11030078Y-13960225D01*
X11040569Y-13938573D01*
X11080155Y-13856866D01*
X11080155Y-13856865D01*
X11084070Y-13848785D01*
X11104615Y-13726671D01*
X11104745Y-13716000D01*
X11087190Y-13593420D01*
X11035937Y-13480695D01*
X10955105Y-13386885D01*
X10884759Y-13341289D01*
X10838475Y-13287453D01*
X10828644Y-13217141D01*
X10858388Y-13152675D01*
X10920149Y-13113994D01*
X10959793Y-13103186D01*
X10959795Y-13103185D01*
X10968452Y-13100825D01*
X11039670Y-13057097D01*
X11066331Y-13040727D01*
X11073979Y-13036031D01*
X11101780Y-13005317D01*
X11151050Y-12950885D01*
X11151051Y-12950883D01*
X11157078Y-12944225D01*
X11161691Y-12934705D01*
X11207155Y-12840866D01*
X11207155Y-12840865D01*
X11211070Y-12832785D01*
X11231615Y-12710671D01*
X11231745Y-12700000D01*
X11220759Y-12623291D01*
X11215463Y-12586307D01*
X11215462Y-12586305D01*
X11214190Y-12577420D01*
X11162937Y-12464695D01*
X11082105Y-12370885D01*
X10978194Y-12303533D01*
X10969592Y-12300960D01*
X10969589Y-12300959D01*
X10887828Y-12276508D01*
X10859555Y-12268052D01*
X10850579Y-12267997D01*
X10850578Y-12267997D01*
X10798464Y-12267679D01*
X10735727Y-12267296D01*
X10727096Y-12269763D01*
X10727094Y-12269763D01*
X10625294Y-12298857D01*
X10625291Y-12298859D01*
X10616664Y-12301324D01*
X10609077Y-12306111D01*
X10609075Y-12306112D01*
X10519530Y-12362611D01*
X10511937Y-12367402D01*
X10429965Y-12460217D01*
X10414573Y-12493002D01*
X10386411Y-12552986D01*
X10377339Y-12572308D01*
X10375958Y-12581176D01*
X10375958Y-12581177D01*
X10359669Y-12685791D01*
X10359669Y-12685795D01*
X10358288Y-12694664D01*
X10359452Y-12703566D01*
X10359452Y-12703569D01*
X10366195Y-12755133D01*
X10374344Y-12817449D01*
X10380117Y-12830569D01*
X10414814Y-12909424D01*
X10424216Y-12930793D01*
X10429993Y-12937666D01*
X10429994Y-12937667D01*
X10486860Y-13005317D01*
X10503895Y-13025583D01*
X10572462Y-13071225D01*
X10579249Y-13075743D01*
X10624872Y-13130140D01*
X10633843Y-13200568D01*
X10603313Y-13264665D01*
X10544055Y-13301779D01*
X10537778Y-13303573D01*
X10489664Y-13317324D01*
X10482077Y-13322111D01*
X10482075Y-13322112D01*
X10392530Y-13378611D01*
X10384937Y-13383402D01*
X10302965Y-13476217D01*
X10250339Y-13588308D01*
X10248958Y-13597176D01*
X10248958Y-13597177D01*
X10232669Y-13701791D01*
X10232669Y-13701795D01*
X10231288Y-13710664D01*
X3229981Y-13710664D01*
X3213190Y-13593420D01*
X3161937Y-13480695D01*
X3081105Y-13386885D01*
X2977194Y-13319533D01*
X2968592Y-13316960D01*
X2968589Y-13316959D01*
X2882439Y-13291195D01*
X2858555Y-13284052D01*
X2849579Y-13283997D01*
X2849578Y-13283997D01*
X2797464Y-13283679D01*
X2734727Y-13283296D01*
X2726096Y-13285763D01*
X2726094Y-13285763D01*
X2624294Y-13314857D01*
X2624292Y-13314858D01*
X2615664Y-13317324D01*
X2608077Y-13322111D01*
X2608075Y-13322112D01*
X2518530Y-13378611D01*
X2510937Y-13383402D01*
X2428965Y-13476217D01*
X2376339Y-13588308D01*
X2374958Y-13597176D01*
X2374958Y-13597177D01*
X2358669Y-13701791D01*
X2358669Y-13701795D01*
X2357288Y-13710664D01*
X178300Y-13710664D01*
X178300Y-13048192D01*
X8900876Y-13048192D01*
X8902040Y-13057094D01*
X8902040Y-13057097D01*
X8908067Y-13103186D01*
X8916932Y-13170977D01*
X8920549Y-13179197D01*
X8955238Y-13258034D01*
X8966804Y-13284321D01*
X8972581Y-13291194D01*
X8972582Y-13291195D01*
X9040703Y-13372235D01*
X9046483Y-13379111D01*
X9149564Y-13447728D01*
X9178327Y-13456714D01*
X9258703Y-13481825D01*
X9267761Y-13484655D01*
X9391570Y-13486924D01*
X9414418Y-13480695D01*
X9502381Y-13456714D01*
X9502383Y-13456713D01*
X9511040Y-13454353D01*
X9588841Y-13406583D01*
X9608919Y-13394255D01*
X9616567Y-13389559D01*
X9653083Y-13349217D01*
X9693638Y-13304413D01*
X9693639Y-13304411D01*
X9699666Y-13297753D01*
X9704657Y-13287453D01*
X9749743Y-13194394D01*
X9749743Y-13194393D01*
X9753658Y-13186313D01*
X9768831Y-13096129D01*
X9773397Y-13068992D01*
X9773397Y-13068987D01*
X9774203Y-13064199D01*
X9774333Y-13053528D01*
X9761985Y-12967307D01*
X9758051Y-12939835D01*
X9758050Y-12939833D01*
X9756778Y-12930948D01*
X9705525Y-12818223D01*
X9624693Y-12724413D01*
X9520782Y-12657061D01*
X9512180Y-12654488D01*
X9512177Y-12654487D01*
X9410746Y-12624153D01*
X9410747Y-12624153D01*
X9402143Y-12621580D01*
X9393167Y-12621525D01*
X9393166Y-12621525D01*
X9341052Y-12621207D01*
X9278315Y-12620824D01*
X9269684Y-12623291D01*
X9269682Y-12623291D01*
X9167882Y-12652385D01*
X9167879Y-12652387D01*
X9159252Y-12654852D01*
X9151665Y-12659639D01*
X9151663Y-12659640D01*
X9063188Y-12715464D01*
X9054525Y-12720930D01*
X8972553Y-12813745D01*
X8968738Y-12821871D01*
X8931454Y-12901285D01*
X8919927Y-12925836D01*
X8918546Y-12934704D01*
X8918546Y-12934705D01*
X8902257Y-13039319D01*
X8902257Y-13039323D01*
X8900876Y-13048192D01*
X178300Y-13048192D01*
X178300Y-12552986D01*
X198302Y-12484865D01*
X251958Y-12438372D01*
X322232Y-12428268D01*
X356133Y-12438529D01*
X361381Y-12442023D01*
X392640Y-12451789D01*
X484898Y-12480613D01*
X484899Y-12480613D01*
X493467Y-12483290D01*
X559099Y-12484492D01*
X622848Y-12485661D01*
X622851Y-12485661D01*
X631826Y-12485825D01*
X640489Y-12483463D01*
X640491Y-12483463D01*
X756671Y-12451789D01*
X765335Y-12449427D01*
X883262Y-12377019D01*
X976127Y-12274424D01*
X1036464Y-12149889D01*
X1059422Y-12013425D01*
X1059568Y-12001500D01*
X1058714Y-11995537D01*
X3385468Y-11995537D01*
X3386632Y-12004439D01*
X3386632Y-12004442D01*
X3402246Y-12123846D01*
X3402247Y-12123850D01*
X3403411Y-12132751D01*
X3459144Y-12259414D01*
X3548187Y-12365343D01*
X3555658Y-12370316D01*
X3555659Y-12370317D01*
X3561392Y-12374133D01*
X3663381Y-12442023D01*
X3720771Y-12459953D01*
X3786898Y-12480613D01*
X3786899Y-12480613D01*
X3795467Y-12483290D01*
X3861099Y-12484492D01*
X3924848Y-12485661D01*
X3924851Y-12485661D01*
X3933826Y-12485825D01*
X3942489Y-12483463D01*
X3942491Y-12483463D01*
X4058671Y-12451789D01*
X4067335Y-12449427D01*
X4185262Y-12377019D01*
X4278127Y-12274424D01*
X4338464Y-12149889D01*
X4361422Y-12013425D01*
X4361568Y-12001500D01*
X4359831Y-11989365D01*
X4343223Y-11873403D01*
X4343222Y-11873401D01*
X4341950Y-11864516D01*
X4284674Y-11738543D01*
X4194344Y-11633710D01*
X4078221Y-11558443D01*
X4069619Y-11555871D01*
X4069616Y-11555869D01*
X3954244Y-11521366D01*
X3954245Y-11521366D01*
X3945641Y-11518793D01*
X3936665Y-11518738D01*
X3936664Y-11518738D01*
X3877441Y-11518377D01*
X3807262Y-11517948D01*
X3798631Y-11520415D01*
X3798629Y-11520415D01*
X3682841Y-11553507D01*
X3682838Y-11553508D01*
X3674207Y-11555975D01*
X3557173Y-11629818D01*
X3465569Y-11733540D01*
X3461755Y-11741663D01*
X3461754Y-11741665D01*
X3442764Y-11782113D01*
X3406758Y-11858803D01*
X3405378Y-11867668D01*
X3405377Y-11867670D01*
X3388281Y-11977473D01*
X3385468Y-11995537D01*
X1058714Y-11995537D01*
X1057831Y-11989365D01*
X1041223Y-11873403D01*
X1041222Y-11873401D01*
X1039950Y-11864516D01*
X982674Y-11738543D01*
X892344Y-11633710D01*
X776221Y-11558443D01*
X767619Y-11555871D01*
X767616Y-11555869D01*
X652244Y-11521366D01*
X652245Y-11521366D01*
X643641Y-11518793D01*
X634665Y-11518738D01*
X634664Y-11518738D01*
X575441Y-11518377D01*
X505262Y-11517948D01*
X496631Y-11520415D01*
X496629Y-11520415D01*
X380841Y-11553507D01*
X380838Y-11553508D01*
X372207Y-11555975D01*
X364615Y-11560765D01*
X356420Y-11564431D01*
X354940Y-11561122D01*
X303250Y-11575833D01*
X235299Y-11555264D01*
X189254Y-11501223D01*
X178300Y-11449837D01*
X178300Y-11099300D01*
X198302Y-11031179D01*
X251958Y-10984686D01*
X304300Y-10973300D01*
X3821133Y-10973300D01*
X3889254Y-10993302D01*
X3901624Y-11002361D01*
X3961124Y-11051769D01*
X4135387Y-11148834D01*
X4140913Y-11150686D01*
X4140915Y-11150687D01*
X4318995Y-11210373D01*
X4318999Y-11210374D01*
X4324519Y-11212224D01*
X4522079Y-11239783D01*
X4527898Y-11239514D01*
X4527899Y-11239514D01*
X4715524Y-11230839D01*
X4715526Y-11230839D01*
X4721338Y-11230570D01*
X4727004Y-11229237D01*
X4727007Y-11229237D01*
X4909845Y-11186234D01*
X4909846Y-11186234D01*
X4915512Y-11184901D01*
X4920837Y-11182550D01*
X5057855Y-11122051D01*
X5128251Y-11112833D01*
X5192455Y-11143138D01*
X5230083Y-11203343D01*
X5233249Y-11256699D01*
X5226968Y-11297037D01*
X5228132Y-11305939D01*
X5228132Y-11305942D01*
X5243746Y-11425346D01*
X5243747Y-11425350D01*
X5244911Y-11434251D01*
X5300644Y-11560914D01*
X5389687Y-11666843D01*
X5504881Y-11743523D01*
X5557742Y-11760038D01*
X5628398Y-11782113D01*
X5628399Y-11782113D01*
X5636967Y-11784790D01*
X5702599Y-11785992D01*
X5766348Y-11787161D01*
X5766351Y-11787161D01*
X5775326Y-11787325D01*
X5783989Y-11784963D01*
X5783991Y-11784963D01*
X5900171Y-11753289D01*
X5908835Y-11750927D01*
X6026762Y-11678519D01*
X6119627Y-11575924D01*
X6160093Y-11492403D01*
X6176050Y-11459468D01*
X6176051Y-11459466D01*
X6179964Y-11451389D01*
X6202922Y-11314925D01*
X6203068Y-11303000D01*
X6200944Y-11288165D01*
X6184723Y-11174903D01*
X6184722Y-11174901D01*
X6183450Y-11166016D01*
X6153503Y-11100150D01*
X6143517Y-11029861D01*
X6173117Y-10965329D01*
X6232907Y-10927045D01*
X6268204Y-10922000D01*
X12345399Y-10922000D01*
X12413520Y-10942002D01*
G37*
%TD.AperFunction*%
%TD*%
M02*
