%TF.GenerationSoftware,KiCad,Pcbnew,(6.0.10)*%
%TF.CreationDate,2023-01-29T16:34:23+01:00*%
%TF.ProjectId,twonkie,74776f6e-6b69-4652-9e6b-696361645f70,rev?*%
%TF.SameCoordinates,PX448d510PY20b3950*%
%TF.FileFunction,Legend,Top*%
%TF.FilePolarity,Positive*%
%FSLAX46Y46*%
G04 Gerber Fmt 4.6, Leading zero omitted, Abs format (unit mm)*
G04 Created by KiCad (PCBNEW (6.0.10)) date 2023-01-29 16:34:23*
%MOMM*%
%LPD*%
G01*
G04 APERTURE LIST*
%ADD10C,0.127000*%
%ADD11C,0.150000*%
%ADD12C,0.120000*%
G04 APERTURE END LIST*
D10*
X6740071Y-662214D02*
X7175500Y-662214D01*
X6957785Y-1424214D02*
X6957785Y-662214D01*
X7356928Y-916214D02*
X7502071Y-1424214D01*
X7647214Y-1061357D01*
X7792357Y-1424214D01*
X7937500Y-916214D01*
X8336642Y-1424214D02*
X8264071Y-1387928D01*
X8227785Y-1351642D01*
X8191500Y-1279071D01*
X8191500Y-1061357D01*
X8227785Y-988785D01*
X8264071Y-952500D01*
X8336642Y-916214D01*
X8445500Y-916214D01*
X8518071Y-952500D01*
X8554357Y-988785D01*
X8590642Y-1061357D01*
X8590642Y-1279071D01*
X8554357Y-1351642D01*
X8518071Y-1387928D01*
X8445500Y-1424214D01*
X8336642Y-1424214D01*
X8917214Y-916214D02*
X8917214Y-1424214D01*
X8917214Y-988785D02*
X8953500Y-952500D01*
X9026071Y-916214D01*
X9134928Y-916214D01*
X9207500Y-952500D01*
X9243785Y-1025071D01*
X9243785Y-1424214D01*
X9606642Y-1424214D02*
X9606642Y-662214D01*
X9679214Y-1133928D02*
X9896928Y-1424214D01*
X9896928Y-916214D02*
X9606642Y-1206500D01*
X10223500Y-1424214D02*
X10223500Y-916214D01*
X10223500Y-662214D02*
X10187214Y-698500D01*
X10223500Y-734785D01*
X10259785Y-698500D01*
X10223500Y-662214D01*
X10223500Y-734785D01*
X10876642Y-1387928D02*
X10804071Y-1424214D01*
X10658928Y-1424214D01*
X10586357Y-1387928D01*
X10550071Y-1315357D01*
X10550071Y-1025071D01*
X10586357Y-952500D01*
X10658928Y-916214D01*
X10804071Y-916214D01*
X10876642Y-952500D01*
X10912928Y-1025071D01*
X10912928Y-1097642D01*
X10550071Y-1170214D01*
X11820071Y-662214D02*
X11820071Y-1279071D01*
X11856357Y-1351642D01*
X11892642Y-1387928D01*
X11965214Y-1424214D01*
X12110357Y-1424214D01*
X12182928Y-1387928D01*
X12219214Y-1351642D01*
X12255500Y-1279071D01*
X12255500Y-662214D01*
X12582071Y-1387928D02*
X12690928Y-1424214D01*
X12872357Y-1424214D01*
X12944928Y-1387928D01*
X12981214Y-1351642D01*
X13017500Y-1279071D01*
X13017500Y-1206500D01*
X12981214Y-1133928D01*
X12944928Y-1097642D01*
X12872357Y-1061357D01*
X12727214Y-1025071D01*
X12654642Y-988785D01*
X12618357Y-952500D01*
X12582071Y-879928D01*
X12582071Y-807357D01*
X12618357Y-734785D01*
X12654642Y-698500D01*
X12727214Y-662214D01*
X12908642Y-662214D01*
X13017500Y-698500D01*
X13598071Y-1025071D02*
X13706928Y-1061357D01*
X13743214Y-1097642D01*
X13779500Y-1170214D01*
X13779500Y-1279071D01*
X13743214Y-1351642D01*
X13706928Y-1387928D01*
X13634357Y-1424214D01*
X13344071Y-1424214D01*
X13344071Y-662214D01*
X13598071Y-662214D01*
X13670642Y-698500D01*
X13706928Y-734785D01*
X13743214Y-807357D01*
X13743214Y-879928D01*
X13706928Y-952500D01*
X13670642Y-988785D01*
X13598071Y-1025071D01*
X13344071Y-1025071D01*
X14686642Y-1424214D02*
X14686642Y-662214D01*
X14976928Y-662214D01*
X15049500Y-698500D01*
X15085785Y-734785D01*
X15122071Y-807357D01*
X15122071Y-916214D01*
X15085785Y-988785D01*
X15049500Y-1025071D01*
X14976928Y-1061357D01*
X14686642Y-1061357D01*
X15448642Y-1424214D02*
X15448642Y-662214D01*
X15630071Y-662214D01*
X15738928Y-698500D01*
X15811500Y-771071D01*
X15847785Y-843642D01*
X15884071Y-988785D01*
X15884071Y-1097642D01*
X15847785Y-1242785D01*
X15811500Y-1315357D01*
X15738928Y-1387928D01*
X15630071Y-1424214D01*
X15448642Y-1424214D01*
X16754928Y-1387928D02*
X16863785Y-1424214D01*
X17045214Y-1424214D01*
X17117785Y-1387928D01*
X17154071Y-1351642D01*
X17190357Y-1279071D01*
X17190357Y-1206500D01*
X17154071Y-1133928D01*
X17117785Y-1097642D01*
X17045214Y-1061357D01*
X16900071Y-1025071D01*
X16827500Y-988785D01*
X16791214Y-952500D01*
X16754928Y-879928D01*
X16754928Y-807357D01*
X16791214Y-734785D01*
X16827500Y-698500D01*
X16900071Y-662214D01*
X17081500Y-662214D01*
X17190357Y-698500D01*
X17516928Y-916214D02*
X17516928Y-1424214D01*
X17516928Y-988785D02*
X17553214Y-952500D01*
X17625785Y-916214D01*
X17734642Y-916214D01*
X17807214Y-952500D01*
X17843500Y-1025071D01*
X17843500Y-1424214D01*
X18206357Y-1424214D02*
X18206357Y-916214D01*
X18206357Y-662214D02*
X18170071Y-698500D01*
X18206357Y-734785D01*
X18242642Y-698500D01*
X18206357Y-662214D01*
X18206357Y-734785D01*
X18460357Y-916214D02*
X18750642Y-916214D01*
X18569214Y-1424214D02*
X18569214Y-771071D01*
X18605500Y-698500D01*
X18678071Y-662214D01*
X18750642Y-662214D01*
X18895785Y-916214D02*
X19186071Y-916214D01*
X19004642Y-1424214D02*
X19004642Y-771071D01*
X19040928Y-698500D01*
X19113500Y-662214D01*
X19186071Y-662214D01*
X19730357Y-1387928D02*
X19657785Y-1424214D01*
X19512642Y-1424214D01*
X19440071Y-1387928D01*
X19403785Y-1315357D01*
X19403785Y-1025071D01*
X19440071Y-952500D01*
X19512642Y-916214D01*
X19657785Y-916214D01*
X19730357Y-952500D01*
X19766642Y-1025071D01*
X19766642Y-1097642D01*
X19403785Y-1170214D01*
X20093214Y-1424214D02*
X20093214Y-916214D01*
X20093214Y-1061357D02*
X20129500Y-988785D01*
X20165785Y-952500D01*
X20238357Y-916214D01*
X20310928Y-916214D01*
X17379950Y-2122714D02*
X17561378Y-2630714D01*
X17742807Y-2122714D01*
X17996807Y-1941285D02*
X18033092Y-1905000D01*
X18105664Y-1868714D01*
X18287092Y-1868714D01*
X18359664Y-1905000D01*
X18395950Y-1941285D01*
X18432235Y-2013857D01*
X18432235Y-2086428D01*
X18395950Y-2195285D01*
X17960521Y-2630714D01*
X18432235Y-2630714D01*
X18758807Y-2558142D02*
X18795092Y-2594428D01*
X18758807Y-2630714D01*
X18722521Y-2594428D01*
X18758807Y-2558142D01*
X18758807Y-2630714D01*
X19266807Y-1868714D02*
X19339378Y-1868714D01*
X19411950Y-1905000D01*
X19448235Y-1941285D01*
X19484521Y-2013857D01*
X19520807Y-2159000D01*
X19520807Y-2340428D01*
X19484521Y-2485571D01*
X19448235Y-2558142D01*
X19411950Y-2594428D01*
X19339378Y-2630714D01*
X19266807Y-2630714D01*
X19194235Y-2594428D01*
X19157950Y-2558142D01*
X19121664Y-2485571D01*
X19085378Y-2340428D01*
X19085378Y-2159000D01*
X19121664Y-2013857D01*
X19157950Y-1941285D01*
X19194235Y-1905000D01*
X19266807Y-1868714D01*
D11*
%TO.C,J3*%
X7223166Y-17740380D02*
X7223166Y-18454666D01*
X7175547Y-18597523D01*
X7080309Y-18692761D01*
X6937452Y-18740380D01*
X6842214Y-18740380D01*
X7604119Y-17740380D02*
X8223166Y-17740380D01*
X7889833Y-18121333D01*
X8032690Y-18121333D01*
X8127928Y-18168952D01*
X8175547Y-18216571D01*
X8223166Y-18311809D01*
X8223166Y-18549904D01*
X8175547Y-18645142D01*
X8127928Y-18692761D01*
X8032690Y-18740380D01*
X7746976Y-18740380D01*
X7651738Y-18692761D01*
X7604119Y-18645142D01*
D10*
%TO.C,R17*%
X14441714Y-24556357D02*
X14078857Y-24810357D01*
X14441714Y-24991785D02*
X13679714Y-24991785D01*
X13679714Y-24701500D01*
X13716000Y-24628928D01*
X13752285Y-24592642D01*
X13824857Y-24556357D01*
X13933714Y-24556357D01*
X14006285Y-24592642D01*
X14042571Y-24628928D01*
X14078857Y-24701500D01*
X14078857Y-24991785D01*
X14441714Y-23830642D02*
X14441714Y-24266071D01*
X14441714Y-24048357D02*
X13679714Y-24048357D01*
X13788571Y-24120928D01*
X13861142Y-24193500D01*
X13897428Y-24266071D01*
X13679714Y-23576642D02*
X13679714Y-23068642D01*
X14441714Y-23395214D01*
%TO.C,R19*%
X16473714Y-24556357D02*
X16110857Y-24810357D01*
X16473714Y-24991785D02*
X15711714Y-24991785D01*
X15711714Y-24701500D01*
X15748000Y-24628928D01*
X15784285Y-24592642D01*
X15856857Y-24556357D01*
X15965714Y-24556357D01*
X16038285Y-24592642D01*
X16074571Y-24628928D01*
X16110857Y-24701500D01*
X16110857Y-24991785D01*
X16473714Y-23830642D02*
X16473714Y-24266071D01*
X16473714Y-24048357D02*
X15711714Y-24048357D01*
X15820571Y-24120928D01*
X15893142Y-24193500D01*
X15929428Y-24266071D01*
X16473714Y-23467785D02*
X16473714Y-23322642D01*
X16437428Y-23250071D01*
X16401142Y-23213785D01*
X16292285Y-23141214D01*
X16147142Y-23104928D01*
X15856857Y-23104928D01*
X15784285Y-23141214D01*
X15748000Y-23177500D01*
X15711714Y-23250071D01*
X15711714Y-23395214D01*
X15748000Y-23467785D01*
X15784285Y-23504071D01*
X15856857Y-23540357D01*
X16038285Y-23540357D01*
X16110857Y-23504071D01*
X16147142Y-23467785D01*
X16183428Y-23395214D01*
X16183428Y-23250071D01*
X16147142Y-23177500D01*
X16110857Y-23141214D01*
X16038285Y-23104928D01*
%TO.C,R10*%
X7964714Y-16682357D02*
X7601857Y-16936357D01*
X7964714Y-17117785D02*
X7202714Y-17117785D01*
X7202714Y-16827500D01*
X7239000Y-16754928D01*
X7275285Y-16718642D01*
X7347857Y-16682357D01*
X7456714Y-16682357D01*
X7529285Y-16718642D01*
X7565571Y-16754928D01*
X7601857Y-16827500D01*
X7601857Y-17117785D01*
X7964714Y-15956642D02*
X7964714Y-16392071D01*
X7964714Y-16174357D02*
X7202714Y-16174357D01*
X7311571Y-16246928D01*
X7384142Y-16319500D01*
X7420428Y-16392071D01*
X7202714Y-15484928D02*
X7202714Y-15412357D01*
X7239000Y-15339785D01*
X7275285Y-15303500D01*
X7347857Y-15267214D01*
X7493000Y-15230928D01*
X7674428Y-15230928D01*
X7819571Y-15267214D01*
X7892142Y-15303500D01*
X7928428Y-15339785D01*
X7964714Y-15412357D01*
X7964714Y-15484928D01*
X7928428Y-15557500D01*
X7892142Y-15593785D01*
X7819571Y-15630071D01*
X7674428Y-15666357D01*
X7493000Y-15666357D01*
X7347857Y-15630071D01*
X7275285Y-15593785D01*
X7239000Y-15557500D01*
X7202714Y-15484928D01*
%TO.C,R12*%
X5932714Y-16428357D02*
X5569857Y-16682357D01*
X5932714Y-16863785D02*
X5170714Y-16863785D01*
X5170714Y-16573500D01*
X5207000Y-16500928D01*
X5243285Y-16464642D01*
X5315857Y-16428357D01*
X5424714Y-16428357D01*
X5497285Y-16464642D01*
X5533571Y-16500928D01*
X5569857Y-16573500D01*
X5569857Y-16863785D01*
X5932714Y-15702642D02*
X5932714Y-16138071D01*
X5932714Y-15920357D02*
X5170714Y-15920357D01*
X5279571Y-15992928D01*
X5352142Y-16065500D01*
X5388428Y-16138071D01*
X5243285Y-15412357D02*
X5207000Y-15376071D01*
X5170714Y-15303500D01*
X5170714Y-15122071D01*
X5207000Y-15049500D01*
X5243285Y-15013214D01*
X5315857Y-14976928D01*
X5388428Y-14976928D01*
X5497285Y-15013214D01*
X5932714Y-15448642D01*
X5932714Y-14976928D01*
%TO.C,R15*%
X3837214Y-16428357D02*
X3474357Y-16682357D01*
X3837214Y-16863785D02*
X3075214Y-16863785D01*
X3075214Y-16573500D01*
X3111500Y-16500928D01*
X3147785Y-16464642D01*
X3220357Y-16428357D01*
X3329214Y-16428357D01*
X3401785Y-16464642D01*
X3438071Y-16500928D01*
X3474357Y-16573500D01*
X3474357Y-16863785D01*
X3837214Y-15702642D02*
X3837214Y-16138071D01*
X3837214Y-15920357D02*
X3075214Y-15920357D01*
X3184071Y-15992928D01*
X3256642Y-16065500D01*
X3292928Y-16138071D01*
X3075214Y-15013214D02*
X3075214Y-15376071D01*
X3438071Y-15412357D01*
X3401785Y-15376071D01*
X3365500Y-15303500D01*
X3365500Y-15122071D01*
X3401785Y-15049500D01*
X3438071Y-15013214D01*
X3510642Y-14976928D01*
X3692071Y-14976928D01*
X3764642Y-15013214D01*
X3800928Y-15049500D01*
X3837214Y-15122071D01*
X3837214Y-15303500D01*
X3800928Y-15376071D01*
X3764642Y-15412357D01*
%TO.C,R8*%
X7874000Y-11266714D02*
X7620000Y-10903857D01*
X7438571Y-11266714D02*
X7438571Y-10504714D01*
X7728857Y-10504714D01*
X7801428Y-10541000D01*
X7837714Y-10577285D01*
X7874000Y-10649857D01*
X7874000Y-10758714D01*
X7837714Y-10831285D01*
X7801428Y-10867571D01*
X7728857Y-10903857D01*
X7438571Y-10903857D01*
X8309428Y-10831285D02*
X8236857Y-10795000D01*
X8200571Y-10758714D01*
X8164285Y-10686142D01*
X8164285Y-10649857D01*
X8200571Y-10577285D01*
X8236857Y-10541000D01*
X8309428Y-10504714D01*
X8454571Y-10504714D01*
X8527142Y-10541000D01*
X8563428Y-10577285D01*
X8599714Y-10649857D01*
X8599714Y-10686142D01*
X8563428Y-10758714D01*
X8527142Y-10795000D01*
X8454571Y-10831285D01*
X8309428Y-10831285D01*
X8236857Y-10867571D01*
X8200571Y-10903857D01*
X8164285Y-10976428D01*
X8164285Y-11121571D01*
X8200571Y-11194142D01*
X8236857Y-11230428D01*
X8309428Y-11266714D01*
X8454571Y-11266714D01*
X8527142Y-11230428D01*
X8563428Y-11194142D01*
X8599714Y-11121571D01*
X8599714Y-10976428D01*
X8563428Y-10903857D01*
X8527142Y-10867571D01*
X8454571Y-10831285D01*
%TO.C,R18*%
X15457714Y-24556357D02*
X15094857Y-24810357D01*
X15457714Y-24991785D02*
X14695714Y-24991785D01*
X14695714Y-24701500D01*
X14732000Y-24628928D01*
X14768285Y-24592642D01*
X14840857Y-24556357D01*
X14949714Y-24556357D01*
X15022285Y-24592642D01*
X15058571Y-24628928D01*
X15094857Y-24701500D01*
X15094857Y-24991785D01*
X15457714Y-23830642D02*
X15457714Y-24266071D01*
X15457714Y-24048357D02*
X14695714Y-24048357D01*
X14804571Y-24120928D01*
X14877142Y-24193500D01*
X14913428Y-24266071D01*
X15022285Y-23395214D02*
X14986000Y-23467785D01*
X14949714Y-23504071D01*
X14877142Y-23540357D01*
X14840857Y-23540357D01*
X14768285Y-23504071D01*
X14732000Y-23467785D01*
X14695714Y-23395214D01*
X14695714Y-23250071D01*
X14732000Y-23177500D01*
X14768285Y-23141214D01*
X14840857Y-23104928D01*
X14877142Y-23104928D01*
X14949714Y-23141214D01*
X14986000Y-23177500D01*
X15022285Y-23250071D01*
X15022285Y-23395214D01*
X15058571Y-23467785D01*
X15094857Y-23504071D01*
X15167428Y-23540357D01*
X15312571Y-23540357D01*
X15385142Y-23504071D01*
X15421428Y-23467785D01*
X15457714Y-23395214D01*
X15457714Y-23250071D01*
X15421428Y-23177500D01*
X15385142Y-23141214D01*
X15312571Y-23104928D01*
X15167428Y-23104928D01*
X15094857Y-23141214D01*
X15058571Y-23177500D01*
X15022285Y-23250071D01*
%TO.C,R11*%
X6948714Y-16682357D02*
X6585857Y-16936357D01*
X6948714Y-17117785D02*
X6186714Y-17117785D01*
X6186714Y-16827500D01*
X6223000Y-16754928D01*
X6259285Y-16718642D01*
X6331857Y-16682357D01*
X6440714Y-16682357D01*
X6513285Y-16718642D01*
X6549571Y-16754928D01*
X6585857Y-16827500D01*
X6585857Y-17117785D01*
X6948714Y-15956642D02*
X6948714Y-16392071D01*
X6948714Y-16174357D02*
X6186714Y-16174357D01*
X6295571Y-16246928D01*
X6368142Y-16319500D01*
X6404428Y-16392071D01*
X6948714Y-15230928D02*
X6948714Y-15666357D01*
X6948714Y-15448642D02*
X6186714Y-15448642D01*
X6295571Y-15521214D01*
X6368142Y-15593785D01*
X6404428Y-15666357D01*
%TO.C,R1*%
X20029714Y-18161000D02*
X19666857Y-18415000D01*
X20029714Y-18596428D02*
X19267714Y-18596428D01*
X19267714Y-18306142D01*
X19304000Y-18233571D01*
X19340285Y-18197285D01*
X19412857Y-18161000D01*
X19521714Y-18161000D01*
X19594285Y-18197285D01*
X19630571Y-18233571D01*
X19666857Y-18306142D01*
X19666857Y-18596428D01*
X20029714Y-17435285D02*
X20029714Y-17870714D01*
X20029714Y-17653000D02*
X19267714Y-17653000D01*
X19376571Y-17725571D01*
X19449142Y-17798142D01*
X19485428Y-17870714D01*
%TO.C,Q2*%
X12944928Y-15720785D02*
X12872357Y-15684500D01*
X12799785Y-15611928D01*
X12690928Y-15503071D01*
X12618357Y-15466785D01*
X12545785Y-15466785D01*
X12582071Y-15648214D02*
X12509500Y-15611928D01*
X12436928Y-15539357D01*
X12400642Y-15394214D01*
X12400642Y-15140214D01*
X12436928Y-14995071D01*
X12509500Y-14922500D01*
X12582071Y-14886214D01*
X12727214Y-14886214D01*
X12799785Y-14922500D01*
X12872357Y-14995071D01*
X12908642Y-15140214D01*
X12908642Y-15394214D01*
X12872357Y-15539357D01*
X12799785Y-15611928D01*
X12727214Y-15648214D01*
X12582071Y-15648214D01*
X13198928Y-14958785D02*
X13235214Y-14922500D01*
X13307785Y-14886214D01*
X13489214Y-14886214D01*
X13561785Y-14922500D01*
X13598071Y-14958785D01*
X13634357Y-15031357D01*
X13634357Y-15103928D01*
X13598071Y-15212785D01*
X13162642Y-15648214D01*
X13634357Y-15648214D01*
%TO.C,R7*%
X19812000Y-23585714D02*
X19558000Y-23222857D01*
X19376571Y-23585714D02*
X19376571Y-22823714D01*
X19666857Y-22823714D01*
X19739428Y-22860000D01*
X19775714Y-22896285D01*
X19812000Y-22968857D01*
X19812000Y-23077714D01*
X19775714Y-23150285D01*
X19739428Y-23186571D01*
X19666857Y-23222857D01*
X19376571Y-23222857D01*
X20066000Y-22823714D02*
X20574000Y-22823714D01*
X20247428Y-23585714D01*
%TO.C,R13*%
X4980214Y-16428357D02*
X4617357Y-16682357D01*
X4980214Y-16863785D02*
X4218214Y-16863785D01*
X4218214Y-16573500D01*
X4254500Y-16500928D01*
X4290785Y-16464642D01*
X4363357Y-16428357D01*
X4472214Y-16428357D01*
X4544785Y-16464642D01*
X4581071Y-16500928D01*
X4617357Y-16573500D01*
X4617357Y-16863785D01*
X4980214Y-15702642D02*
X4980214Y-16138071D01*
X4980214Y-15920357D02*
X4218214Y-15920357D01*
X4327071Y-15992928D01*
X4399642Y-16065500D01*
X4435928Y-16138071D01*
X4218214Y-15448642D02*
X4218214Y-14976928D01*
X4508500Y-15230928D01*
X4508500Y-15122071D01*
X4544785Y-15049500D01*
X4581071Y-15013214D01*
X4653642Y-14976928D01*
X4835071Y-14976928D01*
X4907642Y-15013214D01*
X4943928Y-15049500D01*
X4980214Y-15122071D01*
X4980214Y-15339785D01*
X4943928Y-15412357D01*
X4907642Y-15448642D01*
%TO.C,R22*%
X9035142Y-17934214D02*
X8781142Y-17571357D01*
X8599714Y-17934214D02*
X8599714Y-17172214D01*
X8890000Y-17172214D01*
X8962571Y-17208500D01*
X8998857Y-17244785D01*
X9035142Y-17317357D01*
X9035142Y-17426214D01*
X8998857Y-17498785D01*
X8962571Y-17535071D01*
X8890000Y-17571357D01*
X8599714Y-17571357D01*
X9325428Y-17244785D02*
X9361714Y-17208500D01*
X9434285Y-17172214D01*
X9615714Y-17172214D01*
X9688285Y-17208500D01*
X9724571Y-17244785D01*
X9760857Y-17317357D01*
X9760857Y-17389928D01*
X9724571Y-17498785D01*
X9289142Y-17934214D01*
X9760857Y-17934214D01*
X10051142Y-17244785D02*
X10087428Y-17208500D01*
X10160000Y-17172214D01*
X10341428Y-17172214D01*
X10414000Y-17208500D01*
X10450285Y-17244785D01*
X10486571Y-17317357D01*
X10486571Y-17389928D01*
X10450285Y-17498785D01*
X10014857Y-17934214D01*
X10486571Y-17934214D01*
%TO.C,C4*%
X14750142Y-15925800D02*
X14786428Y-15962085D01*
X14822714Y-16070942D01*
X14822714Y-16143514D01*
X14786428Y-16252371D01*
X14713857Y-16324942D01*
X14641285Y-16361228D01*
X14496142Y-16397514D01*
X14387285Y-16397514D01*
X14242142Y-16361228D01*
X14169571Y-16324942D01*
X14097000Y-16252371D01*
X14060714Y-16143514D01*
X14060714Y-16070942D01*
X14097000Y-15962085D01*
X14133285Y-15925800D01*
X14314714Y-15272657D02*
X14822714Y-15272657D01*
X14024428Y-15454085D02*
X14568714Y-15635514D01*
X14568714Y-15163800D01*
%TO.C,R23*%
X14251214Y-13824857D02*
X13888357Y-14078857D01*
X14251214Y-14260285D02*
X13489214Y-14260285D01*
X13489214Y-13970000D01*
X13525500Y-13897428D01*
X13561785Y-13861142D01*
X13634357Y-13824857D01*
X13743214Y-13824857D01*
X13815785Y-13861142D01*
X13852071Y-13897428D01*
X13888357Y-13970000D01*
X13888357Y-14260285D01*
X13561785Y-13534571D02*
X13525500Y-13498285D01*
X13489214Y-13425714D01*
X13489214Y-13244285D01*
X13525500Y-13171714D01*
X13561785Y-13135428D01*
X13634357Y-13099142D01*
X13706928Y-13099142D01*
X13815785Y-13135428D01*
X14251214Y-13570857D01*
X14251214Y-13099142D01*
X13489214Y-12845142D02*
X13489214Y-12373428D01*
X13779500Y-12627428D01*
X13779500Y-12518571D01*
X13815785Y-12446000D01*
X13852071Y-12409714D01*
X13924642Y-12373428D01*
X14106071Y-12373428D01*
X14178642Y-12409714D01*
X14214928Y-12446000D01*
X14251214Y-12518571D01*
X14251214Y-12736285D01*
X14214928Y-12808857D01*
X14178642Y-12845142D01*
%TO.C,R14*%
X1415142Y-17807214D02*
X1161142Y-17444357D01*
X979714Y-17807214D02*
X979714Y-17045214D01*
X1270000Y-17045214D01*
X1342571Y-17081500D01*
X1378857Y-17117785D01*
X1415142Y-17190357D01*
X1415142Y-17299214D01*
X1378857Y-17371785D01*
X1342571Y-17408071D01*
X1270000Y-17444357D01*
X979714Y-17444357D01*
X2140857Y-17807214D02*
X1705428Y-17807214D01*
X1923142Y-17807214D02*
X1923142Y-17045214D01*
X1850571Y-17154071D01*
X1778000Y-17226642D01*
X1705428Y-17262928D01*
X2794000Y-17299214D02*
X2794000Y-17807214D01*
X2612571Y-17008928D02*
X2431142Y-17553214D01*
X2902857Y-17553214D01*
%TO.C,R16*%
X13048342Y-11165114D02*
X12794342Y-10802257D01*
X12612914Y-11165114D02*
X12612914Y-10403114D01*
X12903200Y-10403114D01*
X12975771Y-10439400D01*
X13012057Y-10475685D01*
X13048342Y-10548257D01*
X13048342Y-10657114D01*
X13012057Y-10729685D01*
X12975771Y-10765971D01*
X12903200Y-10802257D01*
X12612914Y-10802257D01*
X13774057Y-11165114D02*
X13338628Y-11165114D01*
X13556342Y-11165114D02*
X13556342Y-10403114D01*
X13483771Y-10511971D01*
X13411200Y-10584542D01*
X13338628Y-10620828D01*
X14427200Y-10403114D02*
X14282057Y-10403114D01*
X14209485Y-10439400D01*
X14173200Y-10475685D01*
X14100628Y-10584542D01*
X14064342Y-10729685D01*
X14064342Y-11019971D01*
X14100628Y-11092542D01*
X14136914Y-11128828D01*
X14209485Y-11165114D01*
X14354628Y-11165114D01*
X14427200Y-11128828D01*
X14463485Y-11092542D01*
X14499771Y-11019971D01*
X14499771Y-10838542D01*
X14463485Y-10765971D01*
X14427200Y-10729685D01*
X14354628Y-10693400D01*
X14209485Y-10693400D01*
X14136914Y-10729685D01*
X14100628Y-10765971D01*
X14064342Y-10838542D01*
%TO.C,U5*%
X15167428Y-10441214D02*
X15167428Y-11058071D01*
X15203714Y-11130642D01*
X15240000Y-11166928D01*
X15312571Y-11203214D01*
X15457714Y-11203214D01*
X15530285Y-11166928D01*
X15566571Y-11130642D01*
X15602857Y-11058071D01*
X15602857Y-10441214D01*
X16328571Y-10441214D02*
X15965714Y-10441214D01*
X15929428Y-10804071D01*
X15965714Y-10767785D01*
X16038285Y-10731500D01*
X16219714Y-10731500D01*
X16292285Y-10767785D01*
X16328571Y-10804071D01*
X16364857Y-10876642D01*
X16364857Y-11058071D01*
X16328571Y-11130642D01*
X16292285Y-11166928D01*
X16219714Y-11203214D01*
X16038285Y-11203214D01*
X15965714Y-11166928D01*
X15929428Y-11130642D01*
%TO.C,R20*%
X17489714Y-24556357D02*
X17126857Y-24810357D01*
X17489714Y-24991785D02*
X16727714Y-24991785D01*
X16727714Y-24701500D01*
X16764000Y-24628928D01*
X16800285Y-24592642D01*
X16872857Y-24556357D01*
X16981714Y-24556357D01*
X17054285Y-24592642D01*
X17090571Y-24628928D01*
X17126857Y-24701500D01*
X17126857Y-24991785D01*
X16800285Y-24266071D02*
X16764000Y-24229785D01*
X16727714Y-24157214D01*
X16727714Y-23975785D01*
X16764000Y-23903214D01*
X16800285Y-23866928D01*
X16872857Y-23830642D01*
X16945428Y-23830642D01*
X17054285Y-23866928D01*
X17489714Y-24302357D01*
X17489714Y-23830642D01*
X16727714Y-23358928D02*
X16727714Y-23286357D01*
X16764000Y-23213785D01*
X16800285Y-23177500D01*
X16872857Y-23141214D01*
X17018000Y-23104928D01*
X17199428Y-23104928D01*
X17344571Y-23141214D01*
X17417142Y-23177500D01*
X17453428Y-23213785D01*
X17489714Y-23286357D01*
X17489714Y-23358928D01*
X17453428Y-23431500D01*
X17417142Y-23467785D01*
X17344571Y-23504071D01*
X17199428Y-23540357D01*
X17018000Y-23540357D01*
X16872857Y-23504071D01*
X16800285Y-23467785D01*
X16764000Y-23431500D01*
X16727714Y-23358928D01*
%TO.C,R21*%
X18505714Y-24556357D02*
X18142857Y-24810357D01*
X18505714Y-24991785D02*
X17743714Y-24991785D01*
X17743714Y-24701500D01*
X17780000Y-24628928D01*
X17816285Y-24592642D01*
X17888857Y-24556357D01*
X17997714Y-24556357D01*
X18070285Y-24592642D01*
X18106571Y-24628928D01*
X18142857Y-24701500D01*
X18142857Y-24991785D01*
X17816285Y-24266071D02*
X17780000Y-24229785D01*
X17743714Y-24157214D01*
X17743714Y-23975785D01*
X17780000Y-23903214D01*
X17816285Y-23866928D01*
X17888857Y-23830642D01*
X17961428Y-23830642D01*
X18070285Y-23866928D01*
X18505714Y-24302357D01*
X18505714Y-23830642D01*
X18505714Y-23104928D02*
X18505714Y-23540357D01*
X18505714Y-23322642D02*
X17743714Y-23322642D01*
X17852571Y-23395214D01*
X17925142Y-23467785D01*
X17961428Y-23540357D01*
%TO.C,Q3*%
X9579428Y-10386785D02*
X9506857Y-10350500D01*
X9434285Y-10277928D01*
X9325428Y-10169071D01*
X9252857Y-10132785D01*
X9180285Y-10132785D01*
X9216571Y-10314214D02*
X9144000Y-10277928D01*
X9071428Y-10205357D01*
X9035142Y-10060214D01*
X9035142Y-9806214D01*
X9071428Y-9661071D01*
X9144000Y-9588500D01*
X9216571Y-9552214D01*
X9361714Y-9552214D01*
X9434285Y-9588500D01*
X9506857Y-9661071D01*
X9543142Y-9806214D01*
X9543142Y-10060214D01*
X9506857Y-10205357D01*
X9434285Y-10277928D01*
X9361714Y-10314214D01*
X9216571Y-10314214D01*
X9797142Y-9552214D02*
X10268857Y-9552214D01*
X10014857Y-9842500D01*
X10123714Y-9842500D01*
X10196285Y-9878785D01*
X10232571Y-9915071D01*
X10268857Y-9987642D01*
X10268857Y-10169071D01*
X10232571Y-10241642D01*
X10196285Y-10277928D01*
X10123714Y-10314214D01*
X9906000Y-10314214D01*
X9833428Y-10277928D01*
X9797142Y-10241642D01*
%TO.C,Q1*%
X1451428Y-14641285D02*
X1378857Y-14605000D01*
X1306285Y-14532428D01*
X1197428Y-14423571D01*
X1124857Y-14387285D01*
X1052285Y-14387285D01*
X1088571Y-14568714D02*
X1016000Y-14532428D01*
X943428Y-14459857D01*
X907142Y-14314714D01*
X907142Y-14060714D01*
X943428Y-13915571D01*
X1016000Y-13843000D01*
X1088571Y-13806714D01*
X1233714Y-13806714D01*
X1306285Y-13843000D01*
X1378857Y-13915571D01*
X1415142Y-14060714D01*
X1415142Y-14314714D01*
X1378857Y-14459857D01*
X1306285Y-14532428D01*
X1233714Y-14568714D01*
X1088571Y-14568714D01*
X2140857Y-14568714D02*
X1705428Y-14568714D01*
X1923142Y-14568714D02*
X1923142Y-13806714D01*
X1850571Y-13915571D01*
X1778000Y-13988142D01*
X1705428Y-14024428D01*
%TO.C,DS2*%
X23204714Y-24356785D02*
X22442714Y-24356785D01*
X22442714Y-24175357D01*
X22479000Y-24066500D01*
X22551571Y-23993928D01*
X22624142Y-23957642D01*
X22769285Y-23921357D01*
X22878142Y-23921357D01*
X23023285Y-23957642D01*
X23095857Y-23993928D01*
X23168428Y-24066500D01*
X23204714Y-24175357D01*
X23204714Y-24356785D01*
X23168428Y-23631071D02*
X23204714Y-23522214D01*
X23204714Y-23340785D01*
X23168428Y-23268214D01*
X23132142Y-23231928D01*
X23059571Y-23195642D01*
X22987000Y-23195642D01*
X22914428Y-23231928D01*
X22878142Y-23268214D01*
X22841857Y-23340785D01*
X22805571Y-23485928D01*
X22769285Y-23558500D01*
X22733000Y-23594785D01*
X22660428Y-23631071D01*
X22587857Y-23631071D01*
X22515285Y-23594785D01*
X22479000Y-23558500D01*
X22442714Y-23485928D01*
X22442714Y-23304500D01*
X22479000Y-23195642D01*
X22515285Y-22905357D02*
X22479000Y-22869071D01*
X22442714Y-22796500D01*
X22442714Y-22615071D01*
X22479000Y-22542500D01*
X22515285Y-22506214D01*
X22587857Y-22469928D01*
X22660428Y-22469928D01*
X22769285Y-22506214D01*
X23204714Y-22941642D01*
X23204714Y-22469928D01*
%TO.C,C9*%
X13970000Y-4259942D02*
X13933714Y-4296228D01*
X13824857Y-4332514D01*
X13752285Y-4332514D01*
X13643428Y-4296228D01*
X13570857Y-4223657D01*
X13534571Y-4151085D01*
X13498285Y-4005942D01*
X13498285Y-3897085D01*
X13534571Y-3751942D01*
X13570857Y-3679371D01*
X13643428Y-3606800D01*
X13752285Y-3570514D01*
X13824857Y-3570514D01*
X13933714Y-3606800D01*
X13970000Y-3643085D01*
X14332857Y-4332514D02*
X14478000Y-4332514D01*
X14550571Y-4296228D01*
X14586857Y-4259942D01*
X14659428Y-4151085D01*
X14695714Y-4005942D01*
X14695714Y-3715657D01*
X14659428Y-3643085D01*
X14623142Y-3606800D01*
X14550571Y-3570514D01*
X14405428Y-3570514D01*
X14332857Y-3606800D01*
X14296571Y-3643085D01*
X14260285Y-3715657D01*
X14260285Y-3897085D01*
X14296571Y-3969657D01*
X14332857Y-4005942D01*
X14405428Y-4042228D01*
X14550571Y-4042228D01*
X14623142Y-4005942D01*
X14659428Y-3969657D01*
X14695714Y-3897085D01*
%TO.C,R26*%
X11575142Y-20220214D02*
X11321142Y-19857357D01*
X11139714Y-20220214D02*
X11139714Y-19458214D01*
X11430000Y-19458214D01*
X11502571Y-19494500D01*
X11538857Y-19530785D01*
X11575142Y-19603357D01*
X11575142Y-19712214D01*
X11538857Y-19784785D01*
X11502571Y-19821071D01*
X11430000Y-19857357D01*
X11139714Y-19857357D01*
X11865428Y-19530785D02*
X11901714Y-19494500D01*
X11974285Y-19458214D01*
X12155714Y-19458214D01*
X12228285Y-19494500D01*
X12264571Y-19530785D01*
X12300857Y-19603357D01*
X12300857Y-19675928D01*
X12264571Y-19784785D01*
X11829142Y-20220214D01*
X12300857Y-20220214D01*
X12954000Y-19458214D02*
X12808857Y-19458214D01*
X12736285Y-19494500D01*
X12700000Y-19530785D01*
X12627428Y-19639642D01*
X12591142Y-19784785D01*
X12591142Y-20075071D01*
X12627428Y-20147642D01*
X12663714Y-20183928D01*
X12736285Y-20220214D01*
X12881428Y-20220214D01*
X12954000Y-20183928D01*
X12990285Y-20147642D01*
X13026571Y-20075071D01*
X13026571Y-19893642D01*
X12990285Y-19821071D01*
X12954000Y-19784785D01*
X12881428Y-19748500D01*
X12736285Y-19748500D01*
X12663714Y-19784785D01*
X12627428Y-19821071D01*
X12591142Y-19893642D01*
%TO.C,R25*%
X11575142Y-21172714D02*
X11321142Y-20809857D01*
X11139714Y-21172714D02*
X11139714Y-20410714D01*
X11430000Y-20410714D01*
X11502571Y-20447000D01*
X11538857Y-20483285D01*
X11575142Y-20555857D01*
X11575142Y-20664714D01*
X11538857Y-20737285D01*
X11502571Y-20773571D01*
X11430000Y-20809857D01*
X11139714Y-20809857D01*
X11865428Y-20483285D02*
X11901714Y-20447000D01*
X11974285Y-20410714D01*
X12155714Y-20410714D01*
X12228285Y-20447000D01*
X12264571Y-20483285D01*
X12300857Y-20555857D01*
X12300857Y-20628428D01*
X12264571Y-20737285D01*
X11829142Y-21172714D01*
X12300857Y-21172714D01*
X12990285Y-20410714D02*
X12627428Y-20410714D01*
X12591142Y-20773571D01*
X12627428Y-20737285D01*
X12700000Y-20701000D01*
X12881428Y-20701000D01*
X12954000Y-20737285D01*
X12990285Y-20773571D01*
X13026571Y-20846142D01*
X13026571Y-21027571D01*
X12990285Y-21100142D01*
X12954000Y-21136428D01*
X12881428Y-21172714D01*
X12700000Y-21172714D01*
X12627428Y-21136428D01*
X12591142Y-21100142D01*
%TO.C,R9*%
X8980714Y-16383000D02*
X8617857Y-16637000D01*
X8980714Y-16818428D02*
X8218714Y-16818428D01*
X8218714Y-16528142D01*
X8255000Y-16455571D01*
X8291285Y-16419285D01*
X8363857Y-16383000D01*
X8472714Y-16383000D01*
X8545285Y-16419285D01*
X8581571Y-16455571D01*
X8617857Y-16528142D01*
X8617857Y-16818428D01*
X8980714Y-16020142D02*
X8980714Y-15875000D01*
X8944428Y-15802428D01*
X8908142Y-15766142D01*
X8799285Y-15693571D01*
X8654142Y-15657285D01*
X8363857Y-15657285D01*
X8291285Y-15693571D01*
X8255000Y-15729857D01*
X8218714Y-15802428D01*
X8218714Y-15947571D01*
X8255000Y-16020142D01*
X8291285Y-16056428D01*
X8363857Y-16092714D01*
X8545285Y-16092714D01*
X8617857Y-16056428D01*
X8654142Y-16020142D01*
X8690428Y-15947571D01*
X8690428Y-15802428D01*
X8654142Y-15729857D01*
X8617857Y-15693571D01*
X8545285Y-15657285D01*
%TO.C,C5*%
X18687142Y-17018000D02*
X18723428Y-17054285D01*
X18759714Y-17163142D01*
X18759714Y-17235714D01*
X18723428Y-17344571D01*
X18650857Y-17417142D01*
X18578285Y-17453428D01*
X18433142Y-17489714D01*
X18324285Y-17489714D01*
X18179142Y-17453428D01*
X18106571Y-17417142D01*
X18034000Y-17344571D01*
X17997714Y-17235714D01*
X17997714Y-17163142D01*
X18034000Y-17054285D01*
X18070285Y-17018000D01*
X17997714Y-16328571D02*
X17997714Y-16691428D01*
X18360571Y-16727714D01*
X18324285Y-16691428D01*
X18288000Y-16618857D01*
X18288000Y-16437428D01*
X18324285Y-16364857D01*
X18360571Y-16328571D01*
X18433142Y-16292285D01*
X18614571Y-16292285D01*
X18687142Y-16328571D01*
X18723428Y-16364857D01*
X18759714Y-16437428D01*
X18759714Y-16618857D01*
X18723428Y-16691428D01*
X18687142Y-16727714D01*
%TO.C,R6*%
X22125214Y-20447000D02*
X21762357Y-20701000D01*
X22125214Y-20882428D02*
X21363214Y-20882428D01*
X21363214Y-20592142D01*
X21399500Y-20519571D01*
X21435785Y-20483285D01*
X21508357Y-20447000D01*
X21617214Y-20447000D01*
X21689785Y-20483285D01*
X21726071Y-20519571D01*
X21762357Y-20592142D01*
X21762357Y-20882428D01*
X21363214Y-19793857D02*
X21363214Y-19939000D01*
X21399500Y-20011571D01*
X21435785Y-20047857D01*
X21544642Y-20120428D01*
X21689785Y-20156714D01*
X21980071Y-20156714D01*
X22052642Y-20120428D01*
X22088928Y-20084142D01*
X22125214Y-20011571D01*
X22125214Y-19866428D01*
X22088928Y-19793857D01*
X22052642Y-19757571D01*
X21980071Y-19721285D01*
X21798642Y-19721285D01*
X21726071Y-19757571D01*
X21689785Y-19793857D01*
X21653500Y-19866428D01*
X21653500Y-20011571D01*
X21689785Y-20084142D01*
X21726071Y-20120428D01*
X21798642Y-20156714D01*
%TO.C,R24*%
X25046214Y-20746357D02*
X24683357Y-21000357D01*
X25046214Y-21181785D02*
X24284214Y-21181785D01*
X24284214Y-20891500D01*
X24320500Y-20818928D01*
X24356785Y-20782642D01*
X24429357Y-20746357D01*
X24538214Y-20746357D01*
X24610785Y-20782642D01*
X24647071Y-20818928D01*
X24683357Y-20891500D01*
X24683357Y-21181785D01*
X24356785Y-20456071D02*
X24320500Y-20419785D01*
X24284214Y-20347214D01*
X24284214Y-20165785D01*
X24320500Y-20093214D01*
X24356785Y-20056928D01*
X24429357Y-20020642D01*
X24501928Y-20020642D01*
X24610785Y-20056928D01*
X25046214Y-20492357D01*
X25046214Y-20020642D01*
X24538214Y-19367500D02*
X25046214Y-19367500D01*
X24247928Y-19548928D02*
X24792214Y-19730357D01*
X24792214Y-19258642D01*
%TO.C,R27*%
X20982214Y-18142857D02*
X20619357Y-18396857D01*
X20982214Y-18578285D02*
X20220214Y-18578285D01*
X20220214Y-18288000D01*
X20256500Y-18215428D01*
X20292785Y-18179142D01*
X20365357Y-18142857D01*
X20474214Y-18142857D01*
X20546785Y-18179142D01*
X20583071Y-18215428D01*
X20619357Y-18288000D01*
X20619357Y-18578285D01*
X20292785Y-17852571D02*
X20256500Y-17816285D01*
X20220214Y-17743714D01*
X20220214Y-17562285D01*
X20256500Y-17489714D01*
X20292785Y-17453428D01*
X20365357Y-17417142D01*
X20437928Y-17417142D01*
X20546785Y-17453428D01*
X20982214Y-17888857D01*
X20982214Y-17417142D01*
X20220214Y-17163142D02*
X20220214Y-16655142D01*
X20982214Y-16981714D01*
%TO.C,SW1*%
X21542828Y-16332200D02*
X21579114Y-16223342D01*
X21579114Y-16041914D01*
X21542828Y-15969342D01*
X21506542Y-15933057D01*
X21433971Y-15896771D01*
X21361400Y-15896771D01*
X21288828Y-15933057D01*
X21252542Y-15969342D01*
X21216257Y-16041914D01*
X21179971Y-16187057D01*
X21143685Y-16259628D01*
X21107400Y-16295914D01*
X21034828Y-16332200D01*
X20962257Y-16332200D01*
X20889685Y-16295914D01*
X20853400Y-16259628D01*
X20817114Y-16187057D01*
X20817114Y-16005628D01*
X20853400Y-15896771D01*
X20817114Y-15642771D02*
X21579114Y-15461342D01*
X21034828Y-15316200D01*
X21579114Y-15171057D01*
X20817114Y-14989628D01*
X21579114Y-14300200D02*
X21579114Y-14735628D01*
X21579114Y-14517914D02*
X20817114Y-14517914D01*
X20925971Y-14590485D01*
X20998542Y-14663057D01*
X21034828Y-14735628D01*
%TO.C,FB2*%
X17462500Y-19440071D02*
X17208500Y-19440071D01*
X17208500Y-19839214D02*
X17208500Y-19077214D01*
X17571357Y-19077214D01*
X18115642Y-19440071D02*
X18224500Y-19476357D01*
X18260785Y-19512642D01*
X18297071Y-19585214D01*
X18297071Y-19694071D01*
X18260785Y-19766642D01*
X18224500Y-19802928D01*
X18151928Y-19839214D01*
X17861642Y-19839214D01*
X17861642Y-19077214D01*
X18115642Y-19077214D01*
X18188214Y-19113500D01*
X18224500Y-19149785D01*
X18260785Y-19222357D01*
X18260785Y-19294928D01*
X18224500Y-19367500D01*
X18188214Y-19403785D01*
X18115642Y-19440071D01*
X17861642Y-19440071D01*
X18587357Y-19149785D02*
X18623642Y-19113500D01*
X18696214Y-19077214D01*
X18877642Y-19077214D01*
X18950214Y-19113500D01*
X18986500Y-19149785D01*
X19022785Y-19222357D01*
X19022785Y-19294928D01*
X18986500Y-19403785D01*
X18551071Y-19839214D01*
X19022785Y-19839214D01*
%TO.C,C2*%
X15702642Y-15938500D02*
X15738928Y-15974785D01*
X15775214Y-16083642D01*
X15775214Y-16156214D01*
X15738928Y-16265071D01*
X15666357Y-16337642D01*
X15593785Y-16373928D01*
X15448642Y-16410214D01*
X15339785Y-16410214D01*
X15194642Y-16373928D01*
X15122071Y-16337642D01*
X15049500Y-16265071D01*
X15013214Y-16156214D01*
X15013214Y-16083642D01*
X15049500Y-15974785D01*
X15085785Y-15938500D01*
X15085785Y-15648214D02*
X15049500Y-15611928D01*
X15013214Y-15539357D01*
X15013214Y-15357928D01*
X15049500Y-15285357D01*
X15085785Y-15249071D01*
X15158357Y-15212785D01*
X15230928Y-15212785D01*
X15339785Y-15249071D01*
X15775214Y-15684500D01*
X15775214Y-15212785D01*
%TO.C,C6*%
X19639642Y-17018000D02*
X19675928Y-17054285D01*
X19712214Y-17163142D01*
X19712214Y-17235714D01*
X19675928Y-17344571D01*
X19603357Y-17417142D01*
X19530785Y-17453428D01*
X19385642Y-17489714D01*
X19276785Y-17489714D01*
X19131642Y-17453428D01*
X19059071Y-17417142D01*
X18986500Y-17344571D01*
X18950214Y-17235714D01*
X18950214Y-17163142D01*
X18986500Y-17054285D01*
X19022785Y-17018000D01*
X18950214Y-16364857D02*
X18950214Y-16510000D01*
X18986500Y-16582571D01*
X19022785Y-16618857D01*
X19131642Y-16691428D01*
X19276785Y-16727714D01*
X19567071Y-16727714D01*
X19639642Y-16691428D01*
X19675928Y-16655142D01*
X19712214Y-16582571D01*
X19712214Y-16437428D01*
X19675928Y-16364857D01*
X19639642Y-16328571D01*
X19567071Y-16292285D01*
X19385642Y-16292285D01*
X19313071Y-16328571D01*
X19276785Y-16364857D01*
X19240500Y-16437428D01*
X19240500Y-16582571D01*
X19276785Y-16655142D01*
X19313071Y-16691428D01*
X19385642Y-16727714D01*
%TO.C,R29*%
X18327914Y-8033657D02*
X17965057Y-8287657D01*
X18327914Y-8469085D02*
X17565914Y-8469085D01*
X17565914Y-8178800D01*
X17602200Y-8106228D01*
X17638485Y-8069942D01*
X17711057Y-8033657D01*
X17819914Y-8033657D01*
X17892485Y-8069942D01*
X17928771Y-8106228D01*
X17965057Y-8178800D01*
X17965057Y-8469085D01*
X17638485Y-7743371D02*
X17602200Y-7707085D01*
X17565914Y-7634514D01*
X17565914Y-7453085D01*
X17602200Y-7380514D01*
X17638485Y-7344228D01*
X17711057Y-7307942D01*
X17783628Y-7307942D01*
X17892485Y-7344228D01*
X18327914Y-7779657D01*
X18327914Y-7307942D01*
X18327914Y-6945085D02*
X18327914Y-6799942D01*
X18291628Y-6727371D01*
X18255342Y-6691085D01*
X18146485Y-6618514D01*
X18001342Y-6582228D01*
X17711057Y-6582228D01*
X17638485Y-6618514D01*
X17602200Y-6654800D01*
X17565914Y-6727371D01*
X17565914Y-6872514D01*
X17602200Y-6945085D01*
X17638485Y-6981371D01*
X17711057Y-7017657D01*
X17892485Y-7017657D01*
X17965057Y-6981371D01*
X18001342Y-6945085D01*
X18037628Y-6872514D01*
X18037628Y-6727371D01*
X18001342Y-6654800D01*
X17965057Y-6618514D01*
X17892485Y-6582228D01*
%TO.C,U2*%
X8980714Y-6346371D02*
X9597571Y-6346371D01*
X9670142Y-6310085D01*
X9706428Y-6273800D01*
X9742714Y-6201228D01*
X9742714Y-6056085D01*
X9706428Y-5983514D01*
X9670142Y-5947228D01*
X9597571Y-5910942D01*
X8980714Y-5910942D01*
X9053285Y-5584371D02*
X9017000Y-5548085D01*
X8980714Y-5475514D01*
X8980714Y-5294085D01*
X9017000Y-5221514D01*
X9053285Y-5185228D01*
X9125857Y-5148942D01*
X9198428Y-5148942D01*
X9307285Y-5185228D01*
X9742714Y-5620657D01*
X9742714Y-5148942D01*
D11*
%TO.C,J3*%
X6829200Y-19240800D02*
X7829200Y-19240800D01*
X9179200Y-22390800D02*
X9179200Y-20990800D01*
X3229200Y-18140800D02*
X3229200Y-19240800D01*
X1179200Y-24940800D02*
X1179200Y-25390800D01*
X8879200Y-25390800D02*
X8879200Y-24940800D01*
X879200Y-20990800D02*
X879200Y-22390800D01*
X879200Y-24790800D02*
X879200Y-24940800D01*
X879200Y-24940800D02*
X1179200Y-24940800D01*
X3229200Y-19240800D02*
X2229200Y-19240800D01*
X3954200Y-18140800D02*
X3229200Y-18140800D01*
X9179200Y-24940800D02*
X9179200Y-24790800D01*
X8879200Y-24940800D02*
X9179200Y-24940800D01*
D12*
%TO.C,R17*%
X14794500Y-21676379D02*
X14794500Y-22011621D01*
X14034500Y-21676379D02*
X14034500Y-22011621D01*
%TO.C,R19*%
X16826500Y-21676379D02*
X16826500Y-22011621D01*
X16066500Y-21676379D02*
X16066500Y-22011621D01*
%TO.C,R10*%
X7936500Y-13883621D02*
X7936500Y-13548379D01*
X7176500Y-13883621D02*
X7176500Y-13548379D01*
%TO.C,R12*%
X5144500Y-13883621D02*
X5144500Y-13548379D01*
X5904500Y-13883621D02*
X5904500Y-13548379D01*
%TO.C,R15*%
X3872500Y-13548379D02*
X3872500Y-13883621D01*
X3112500Y-13548379D02*
X3112500Y-13883621D01*
%TO.C,R8*%
X8105121Y-12381500D02*
X7769879Y-12381500D01*
X8105121Y-11621500D02*
X7769879Y-11621500D01*
%TO.C,R18*%
X15810500Y-21676379D02*
X15810500Y-22011621D01*
X15050500Y-21676379D02*
X15050500Y-22011621D01*
%TO.C,R11*%
X6920500Y-13883621D02*
X6920500Y-13548379D01*
X6160500Y-13883621D02*
X6160500Y-13548379D01*
%TO.C,R1*%
X20065000Y-20043121D02*
X20065000Y-19707879D01*
X19305000Y-20043121D02*
X19305000Y-19707879D01*
%TO.C,Q2*%
X11431500Y-13508500D02*
X10031500Y-13508500D01*
X10031500Y-15828500D02*
X11931500Y-15828500D01*
%TO.C,R7*%
X19725621Y-24637000D02*
X19390379Y-24637000D01*
X19725621Y-23877000D02*
X19390379Y-23877000D01*
%TO.C,R13*%
X4128500Y-13883621D02*
X4128500Y-13548379D01*
X4888500Y-13883621D02*
X4888500Y-13548379D01*
%TO.C,R22*%
X10581621Y-16257000D02*
X10246379Y-16257000D01*
X10581621Y-17017000D02*
X10246379Y-17017000D01*
%TO.C,C4*%
X14711000Y-17832335D02*
X14711000Y-17600665D01*
X13991000Y-17832335D02*
X13991000Y-17600665D01*
%TO.C,R23*%
X13334000Y-13167379D02*
X13334000Y-13502621D01*
X12574000Y-13167379D02*
X12574000Y-13502621D01*
%TO.C,R14*%
X1800879Y-16003000D02*
X2136121Y-16003000D01*
X1800879Y-16763000D02*
X2136121Y-16763000D01*
%TO.C,R16*%
X13294379Y-12064000D02*
X13629621Y-12064000D01*
X13294379Y-11304000D02*
X13629621Y-11304000D01*
%TO.C,U5*%
X18161000Y-14818000D02*
X19661000Y-14818000D01*
X18161000Y-11598000D02*
X15236000Y-11598000D01*
X18161000Y-14818000D02*
X16661000Y-14818000D01*
X18161000Y-11598000D02*
X19661000Y-11598000D01*
%TO.C,R20*%
X17082500Y-21676379D02*
X17082500Y-22011621D01*
X17842500Y-21676379D02*
X17842500Y-22011621D01*
%TO.C,R21*%
X18098500Y-21676379D02*
X18098500Y-22011621D01*
X18858500Y-21676379D02*
X18858500Y-22011621D01*
%TO.C,Q3*%
X11431500Y-10651000D02*
X9531500Y-10651000D01*
X10031500Y-12971000D02*
X11431500Y-12971000D01*
%TO.C,Q1*%
X2684000Y-14924000D02*
X2684000Y-13024000D01*
X364000Y-13524000D02*
X364000Y-14924000D01*
%TO.C,DS2*%
X24937000Y-24195000D02*
X24937000Y-24995000D01*
X24937000Y-24995000D02*
X21037000Y-24995000D01*
X24937000Y-21995000D02*
X21037000Y-21995000D01*
%TO.C,C9*%
X14489165Y-3408000D02*
X14720835Y-3408000D01*
X14489165Y-2688000D02*
X14720835Y-2688000D01*
%TO.C,R26*%
X12232621Y-17463500D02*
X11897379Y-17463500D01*
X12232621Y-18223500D02*
X11897379Y-18223500D01*
%TO.C,R25*%
X11897379Y-18479500D02*
X12232621Y-18479500D01*
X11897379Y-19239500D02*
X12232621Y-19239500D01*
%TO.C,R9*%
X8192500Y-13883621D02*
X8192500Y-13548379D01*
X8952500Y-13883621D02*
X8952500Y-13548379D01*
%TO.C,C5*%
X16086500Y-17832335D02*
X16086500Y-17600665D01*
X16806500Y-17832335D02*
X16806500Y-17600665D01*
%TO.C,R6*%
X23049500Y-20614621D02*
X23049500Y-20279379D01*
X22289500Y-20614621D02*
X22289500Y-20279379D01*
%TO.C,R24*%
X23305500Y-20279379D02*
X23305500Y-20614621D01*
X24065500Y-20279379D02*
X24065500Y-20614621D01*
%TO.C,R27*%
X20321000Y-20043121D02*
X20321000Y-19707879D01*
X21081000Y-20043121D02*
X21081000Y-19707879D01*
%TO.C,SW1*%
X21627500Y-17752000D02*
X21627500Y-14252000D01*
X25377500Y-16952000D02*
X24727500Y-16952000D01*
X24727500Y-15052000D02*
X25377500Y-15052000D01*
X25377500Y-15052000D02*
X25377500Y-16952000D01*
X24727500Y-14252000D02*
X24727500Y-17752000D01*
%TO.C,FB2*%
X15774800Y-19032900D02*
X15975200Y-19032900D01*
X15774800Y-19752900D02*
X15975200Y-19752900D01*
%TO.C,C2*%
X15727000Y-17832335D02*
X15727000Y-17600665D01*
X15007000Y-17832335D02*
X15007000Y-17600665D01*
%TO.C,C6*%
X17822500Y-17832335D02*
X17822500Y-17600665D01*
X17102500Y-17832335D02*
X17102500Y-17600665D01*
%TO.C,R29*%
X17130500Y-5991500D02*
X17130500Y-6791500D01*
X15130500Y-6791500D02*
X15130500Y-5991500D01*
%TO.C,U2*%
X13294000Y-5588000D02*
X13294000Y-7088000D01*
X13294000Y-5588000D02*
X13294000Y-4088000D01*
X10074000Y-5588000D02*
X10074000Y-4088000D01*
X10074000Y-5588000D02*
X10074000Y-8513000D01*
%TD*%
M02*
