%TF.GenerationSoftware,KiCad,Pcbnew,(6.0.10)*%
%TF.CreationDate,2023-02-04T16:55:40+01:00*%
%TF.ProjectId,twonkie,74776f6e-6b69-4652-9e6b-696361645f70,rev?*%
%TF.SameCoordinates,PX448d510PY20b3950*%
%TF.FileFunction,Paste,Top*%
%TF.FilePolarity,Positive*%
%FSLAX46Y46*%
G04 Gerber Fmt 4.6, Leading zero omitted, Abs format (unit mm)*
G04 Created by KiCad (PCBNEW (6.0.10)) date 2023-02-04 16:55:40*
%MOMM*%
%LPD*%
G01*
G04 APERTURE LIST*
G04 Aperture macros list*
%AMRoundRect*
0 Rectangle with rounded corners*
0 $1 Rounding radius*
0 $2 $3 $4 $5 $6 $7 $8 $9 X,Y pos of 4 corners*
0 Add a 4 corners polygon primitive as box body*
4,1,4,$2,$3,$4,$5,$6,$7,$8,$9,$2,$3,0*
0 Add four circle primitives for the rounded corners*
1,1,$1+$1,$2,$3*
1,1,$1+$1,$4,$5*
1,1,$1+$1,$6,$7*
1,1,$1+$1,$8,$9*
0 Add four rect primitives between the rounded corners*
20,1,$1+$1,$2,$3,$4,$5,0*
20,1,$1+$1,$4,$5,$6,$7,0*
20,1,$1+$1,$6,$7,$8,$9,0*
20,1,$1+$1,$8,$9,$2,$3,0*%
G04 Aperture macros list end*
%ADD10R,0.450000X2.000000*%
%ADD11RoundRect,0.160000X-0.160000X0.197500X-0.160000X-0.197500X0.160000X-0.197500X0.160000X0.197500X0*%
%ADD12RoundRect,0.160000X0.160000X-0.197500X0.160000X0.197500X-0.160000X0.197500X-0.160000X-0.197500X0*%
%ADD13RoundRect,0.160000X0.197500X0.160000X-0.197500X0.160000X-0.197500X-0.160000X0.197500X-0.160000X0*%
%ADD14R,0.650000X0.400000*%
%ADD15RoundRect,0.155000X0.155000X-0.212500X0.155000X0.212500X-0.155000X0.212500X-0.155000X-0.212500X0*%
%ADD16RoundRect,0.160000X-0.197500X-0.160000X0.197500X-0.160000X0.197500X0.160000X-0.197500X0.160000X0*%
%ADD17RoundRect,0.100000X-0.712500X-0.100000X0.712500X-0.100000X0.712500X0.100000X-0.712500X0.100000X0*%
%ADD18R,0.400000X0.650000*%
%ADD19R,1.000000X0.800000*%
%ADD20R,1.250000X0.410000*%
%ADD21R,1.000000X0.260000*%
%ADD22R,2.200000X1.500000*%
%ADD23R,1.000000X0.300000*%
%ADD24R,1.000000X1.000000*%
%ADD25R,4.000000X1.500000*%
%ADD26R,1.050000X1.400000*%
%ADD27RoundRect,0.160000X-0.222500X-0.160000X0.222500X-0.160000X0.222500X0.160000X-0.222500X0.160000X0*%
%ADD28R,1.100000X1.750000*%
%ADD29RoundRect,0.075000X0.075000X-0.650000X0.075000X0.650000X-0.075000X0.650000X-0.075000X-0.650000X0*%
G04 APERTURE END LIST*
D10*
%TO.C,J3*%
X3729200Y-19390800D03*
X4379200Y-19390800D03*
X5029200Y-19390800D03*
X5679200Y-19390800D03*
X6329200Y-19390800D03*
%TD*%
D11*
%TO.C,R17*%
X14414500Y-21246500D03*
X14414500Y-22441500D03*
%TD*%
%TO.C,R19*%
X16446500Y-21246500D03*
X16446500Y-22441500D03*
%TD*%
D12*
%TO.C,R10*%
X7556500Y-14313500D03*
X7556500Y-13118500D03*
%TD*%
%TO.C,R12*%
X5524500Y-14313500D03*
X5524500Y-13118500D03*
%TD*%
D11*
%TO.C,R15*%
X3492500Y-13118500D03*
X3492500Y-14313500D03*
%TD*%
D13*
%TO.C,R8*%
X8535000Y-12001500D03*
X7340000Y-12001500D03*
%TD*%
D11*
%TO.C,R18*%
X15430500Y-21246500D03*
X15430500Y-22441500D03*
%TD*%
D12*
%TO.C,R11*%
X6540500Y-14313500D03*
X6540500Y-13118500D03*
%TD*%
%TO.C,R1*%
X19685000Y-20473000D03*
X19685000Y-19278000D03*
%TD*%
D14*
%TO.C,Q2*%
X11681500Y-15318500D03*
X11681500Y-14668500D03*
X11681500Y-14018500D03*
X9781500Y-14018500D03*
X9781500Y-14668500D03*
X9781500Y-15318500D03*
%TD*%
D13*
%TO.C,R7*%
X20155500Y-24257000D03*
X18960500Y-24257000D03*
%TD*%
D12*
%TO.C,R13*%
X4508500Y-14313500D03*
X4508500Y-13118500D03*
%TD*%
D13*
%TO.C,R22*%
X11011500Y-16637000D03*
X9816500Y-16637000D03*
%TD*%
D15*
%TO.C,C4*%
X14351000Y-18284000D03*
X14351000Y-17149000D03*
%TD*%
D11*
%TO.C,R23*%
X12954000Y-12737500D03*
X12954000Y-13932500D03*
%TD*%
D16*
%TO.C,R14*%
X1371000Y-16383000D03*
X2566000Y-16383000D03*
%TD*%
%TO.C,R16*%
X12864500Y-11684000D03*
X14059500Y-11684000D03*
%TD*%
D17*
%TO.C,U5*%
X16048500Y-12233000D03*
X16048500Y-12883000D03*
X16048500Y-13533000D03*
X16048500Y-14183000D03*
X20273500Y-14183000D03*
X20273500Y-13533000D03*
X20273500Y-12883000D03*
X20273500Y-12233000D03*
%TD*%
D11*
%TO.C,R20*%
X17462500Y-21246500D03*
X17462500Y-22441500D03*
%TD*%
%TO.C,R21*%
X18478500Y-21246500D03*
X18478500Y-22441500D03*
%TD*%
D14*
%TO.C,Q3*%
X9781500Y-11161000D03*
X9781500Y-11811000D03*
X9781500Y-12461000D03*
X11681500Y-12461000D03*
X11681500Y-11811000D03*
X11681500Y-11161000D03*
%TD*%
D18*
%TO.C,Q1*%
X2174000Y-13274000D03*
X1524000Y-13274000D03*
X874000Y-13274000D03*
X874000Y-15174000D03*
X1524000Y-15174000D03*
X2174000Y-15174000D03*
%TD*%
D19*
%TO.C,DS2*%
X24237000Y-24195000D03*
X24237000Y-22795000D03*
X21737000Y-22795000D03*
X21737000Y-24195000D03*
%TD*%
D15*
%TO.C,C9*%
X8991600Y-3996500D03*
X8991600Y-2861500D03*
%TD*%
D20*
%TO.C,J1*%
X20965000Y-3525000D03*
D21*
X21090000Y-4100000D03*
X21090000Y-4600000D03*
X21090000Y-5100000D03*
X21090000Y-5600000D03*
X21090000Y-6100000D03*
X21090000Y-6600000D03*
X21090000Y-7100000D03*
X21090000Y-7600000D03*
X21090000Y-8100000D03*
X21090000Y-8600000D03*
D20*
X20965000Y-9175000D03*
D22*
X24290000Y-11300000D03*
X24290000Y-1400000D03*
%TD*%
D23*
%TO.C,J2*%
X5675000Y-3600000D03*
X5675000Y-4100000D03*
X5675000Y-4600000D03*
X5675000Y-5100000D03*
X5675000Y-5600000D03*
X5675000Y-6100000D03*
X5675000Y-6600000D03*
X5675000Y-7100000D03*
X5675000Y-7600000D03*
X5675000Y-8100000D03*
X5675000Y-8600000D03*
X5675000Y-9100000D03*
D24*
X5675000Y-2600000D03*
X5675000Y-10100000D03*
D25*
X2215000Y-1100000D03*
X2215000Y-11600000D03*
%TD*%
D13*
%TO.C,R26*%
X12662500Y-17843500D03*
X11467500Y-17843500D03*
%TD*%
D16*
%TO.C,R25*%
X11467500Y-18859500D03*
X12662500Y-18859500D03*
%TD*%
D12*
%TO.C,R9*%
X8572500Y-14313500D03*
X8572500Y-13118500D03*
%TD*%
D15*
%TO.C,C5*%
X16446500Y-18284000D03*
X16446500Y-17149000D03*
%TD*%
D12*
%TO.C,R6*%
X22669500Y-21044500D03*
X22669500Y-19849500D03*
%TD*%
D11*
%TO.C,R24*%
X23685500Y-19849500D03*
X23685500Y-21044500D03*
%TD*%
D12*
%TO.C,R27*%
X20701000Y-20473000D03*
X20701000Y-19278000D03*
%TD*%
D26*
%TO.C,SW1*%
X22457500Y-17802000D03*
X22457500Y-14202000D03*
X23897500Y-14202000D03*
X23897500Y-17802000D03*
%TD*%
D27*
%TO.C,FB2*%
X15302500Y-19392900D03*
X16447500Y-19392900D03*
%TD*%
D15*
%TO.C,C2*%
X15367000Y-18284000D03*
X15367000Y-17149000D03*
%TD*%
%TO.C,C6*%
X17462500Y-18284000D03*
X17462500Y-17149000D03*
%TD*%
D28*
%TO.C,R29*%
X15454400Y-7547200D03*
X16854400Y-7547200D03*
X16854400Y-4797200D03*
X15454400Y-4797200D03*
%TD*%
D29*
%TO.C,U2*%
X10684000Y-7788000D03*
X11184000Y-7788000D03*
X11684000Y-7788000D03*
X12184000Y-7788000D03*
X12684000Y-7788000D03*
X12684000Y-3388000D03*
X12184000Y-3388000D03*
X11684000Y-3388000D03*
X11184000Y-3388000D03*
X10684000Y-3388000D03*
%TD*%
M02*
