G04 ================== begin FILE IDENTIFICATION RECORD ==================*
G04 Layout Name:  180-10114-04.brd*
G04 Film Name:    bot_silk*
G04 File Format:  Gerber RS274X*
G04 File Origin:  Cadence Allegro 16.6-S039*
G04 Origin Date:  Wed Dec 17 11:03:58 2014*
G04 *
G04 Layer:  REF DES/SILKSCREEN_BOTTOM*
G04 Layer:  PACKAGE GEOMETRY/SILKSCREEN_BOTTOM*
G04 Layer:  BOARD GEOMETRY/OUTLINE*
G04 Layer:  BOARD GEOMETRY/SILKSCREEN_BOTTOM*
G04 *
G04 Offset:    (0.0000 0.0000)*
G04 Mirror:    No*
G04 Mode:      Positive*
G04 Rotation:  0*
G04 FullContactRelief:  No*
G04 UndefLineWidth:     0.1016*
G04 ================== end FILE IDENTIFICATION RECORD ====================*
%FSLAX35Y35*MOMM*%
%IR0*IPPOS*OFA0.00000B0.00000*MIA0B0*SFA1.00000B1.00000*%
%ADD10C,.11*%
%ADD11C,.1016*%
G75*
%LPD*%
G75*
G54D10*
G01X11671860Y10115490D02*
X11750600D01*
G01X11671860Y10137880D02*
Y10093100D01*
G01Y10065960D02*
X11750600Y10052330D01*
X11671860Y10036750D01*
X11750600Y10021170D01*
X11671860Y10007540D01*
G01Y9969690D02*
Y9946330D01*
G01Y9958010D02*
X11750600D01*
G01Y9969690D02*
Y9946330D01*
G01Y9901660D02*
X11671860D01*
X11750600Y9856880D01*
X11671860D01*
G01X11750600Y9821950D02*
X11671860D01*
G01Y9784950D02*
X11720420Y9821950D01*
G01X11750600Y9779110D02*
X11698110Y9805400D01*
G01X11671860Y9733470D02*
Y9710110D01*
G01Y9721790D02*
X11750600D01*
G01Y9733470D02*
Y9710110D01*
G01Y9623580D02*
Y9662520D01*
X11671860D01*
Y9623580D01*
G01X11709920Y9639160D02*
Y9662520D01*
G01X11811260Y9935130D02*
X11890000Y9910790D01*
X11811260Y9886450D01*
G01X11824380Y9850550D02*
X11816510Y9844710D01*
X11812570Y9837890D01*
X11811260Y9830100D01*
X11813880Y9820370D01*
X11820450Y9813550D01*
X11828320Y9811600D01*
X11836200Y9812580D01*
X11842760Y9816470D01*
X11855880Y9835940D01*
X11865070Y9844710D01*
X11878190Y9850550D01*
X11890000Y9852500D01*
Y9811600D01*
G01X12253990Y10022940D02*
Y9944200D01*
G01X12276380Y10022940D02*
X12231600D01*
G01X12195700Y9944200D02*
X12154800Y10022940D01*
G01X12195700D02*
X12154800Y9944200D01*
G01X12336660Y10099500D02*
Y10178240D01*
X12312320D01*
X12304530Y10174300D01*
X12299660Y10169050D01*
X12297720Y10158550D01*
X12299660Y10148060D01*
X12305510Y10141500D01*
X12312320Y10137560D01*
X12336660D01*
G01X12312320D02*
X12297720Y10099500D01*
G01X12258900D02*
X12218000Y10178240D01*
G01X12258900D02*
X12218000Y10099500D01*
G01X12567540Y9842300D02*
X12526640Y9921040D01*
G01X12567540D02*
X12526640Y9842300D01*
G01X12480030Y9921040D02*
X12456670D01*
G01X12468350D02*
Y9842300D01*
G01X12480030D02*
X12456670D01*
G01X12412000D02*
Y9921040D01*
X12367220Y9842300D01*
Y9921040D01*
G01X12941580Y10040100D02*
Y10118840D01*
X12896800Y10040100D01*
Y10118840D01*
G01X12859920Y10040100D02*
Y10118840D01*
X12835580D01*
X12827790Y10114900D01*
X12822920Y10109650D01*
X12820980Y10099150D01*
X12822920Y10088660D01*
X12828770Y10082100D01*
X12835580Y10078160D01*
X12859920D01*
G01X12835580D02*
X12820980Y10040100D01*
G01X12782160Y10050600D02*
X12774370Y10044040D01*
X12765600Y10040100D01*
X12757820D01*
X12750030Y10044040D01*
X12744180Y10050600D01*
X12741260Y10059790D01*
X12743210Y10068970D01*
X12748080Y10076840D01*
X12756840Y10082100D01*
X12768530Y10084720D01*
X12775340Y10089970D01*
X12778260Y10099150D01*
X12776310Y10108340D01*
X12771450Y10114900D01*
X12764630Y10118840D01*
X12757820D01*
X12751000Y10116220D01*
X12745160Y10109650D01*
G01X12682970Y10118840D02*
Y10040100D01*
G01X12705360Y10118840D02*
X12660580D01*
G01X13088140Y9842300D02*
X13047240Y9921040D01*
G01X13088140D02*
X13047240Y9842300D01*
G01X12988950D02*
X12996740Y9843610D01*
X13003550Y9848860D01*
X13009400Y9856730D01*
X13013290Y9865920D01*
X13015240Y9876420D01*
Y9886920D01*
X13013290Y9897420D01*
X13009400Y9906610D01*
X13003550Y9914480D01*
X12996740Y9919730D01*
X12988950Y9921040D01*
X12981160Y9919730D01*
X12974350Y9914480D01*
X12968500Y9906610D01*
X12964610Y9897420D01*
X12962660Y9886920D01*
Y9876420D01*
X12964610Y9865920D01*
X12968500Y9856730D01*
X12974350Y9848860D01*
X12981160Y9843610D01*
X12988950Y9842300D01*
G01X12931630Y9921040D02*
Y9864610D01*
X12927740Y9852800D01*
X12919950Y9844920D01*
X12910210Y9842300D01*
X12900470Y9844920D01*
X12892680Y9852800D01*
X12888790Y9864610D01*
Y9921040D01*
G01X12831470D02*
Y9842300D01*
G01X12853860Y9921040D02*
X12809080D01*
G54D11*
G01X11233720Y7573660D02*
X11281470Y7533870D01*
X11335190Y7510000D01*
X11382950D01*
X11430700Y7533870D01*
X11466520Y7573660D01*
X11484420Y7629380D01*
X11472480Y7685080D01*
X11442630Y7732840D01*
X11388910Y7764680D01*
X11317290Y7780600D01*
X11275510Y7812420D01*
X11257590Y7868140D01*
X11269540Y7923850D01*
X11299380Y7963630D01*
X11341160Y7987520D01*
X11382950D01*
X11424730Y7971610D01*
X11460550Y7931810D01*
G01X11764960Y7987520D02*
X11908210D01*
G01X11836580D02*
Y7510000D01*
G01X11764960D02*
X11908210D01*
G01X12194730Y7987520D02*
Y7510000D01*
X12433490D01*
G01X12660310D02*
Y7987520D01*
G01X12887130D02*
X12660310Y7693040D01*
G01X12922950Y7510000D02*
X12761790Y7828340D01*
G01X13143800Y7573660D02*
X13191550Y7533870D01*
X13245270Y7510000D01*
X13293030D01*
X13340780Y7533870D01*
X13376600Y7573660D01*
X13394500Y7629380D01*
X13382560Y7685080D01*
X13352710Y7732840D01*
X13298990Y7764680D01*
X13227370Y7780600D01*
X13185590Y7812420D01*
X13167670Y7868140D01*
X13179620Y7923850D01*
X13209460Y7963630D01*
X13251240Y7987520D01*
X13293030D01*
X13334810Y7971610D01*
X13370630Y7931810D01*
G01X13877990Y7947720D02*
X13842170Y7971610D01*
X13800400Y7987520D01*
X13752640D01*
X13698910Y7963630D01*
X13657140Y7923850D01*
X13627290Y7876090D01*
X13603410Y7796510D01*
X13597440Y7724880D01*
X13609390Y7653250D01*
X13627290Y7605500D01*
X13663110Y7557740D01*
X13704890Y7525910D01*
X13746660Y7510000D01*
X13788450D01*
X13830230Y7525910D01*
X13866050Y7549780D01*
X13895900Y7581610D01*
G01X14104810Y7510000D02*
Y7987520D01*
X14254030D01*
X14301790Y7963630D01*
X14331640Y7931810D01*
X14343570Y7868140D01*
X14331640Y7804470D01*
X14295820Y7764680D01*
X14254030Y7740800D01*
X14104810D01*
G01X14254030D02*
X14343570Y7510000D01*
G01X14821090D02*
X14582330D01*
Y7987520D01*
X14821090D01*
G01X14725590Y7756720D02*
X14582330D01*
G01X15298610Y7510000D02*
X15059850D01*
Y7987520D01*
X15298610D01*
G01X15203110Y7756720D02*
X15059850D01*
G01X15519470Y7510000D02*
Y7987520D01*
X15794030Y7510000D01*
Y7987520D01*
G01X16659540Y7764680D02*
X16683420Y7788550D01*
X16701320Y7828340D01*
X16713270Y7884060D01*
X16701320Y7931810D01*
X16677450Y7963630D01*
X16635670Y7987520D01*
X16474510D01*
Y7510000D01*
X16671480D01*
X16713270Y7541830D01*
X16737140Y7589580D01*
X16749070Y7645300D01*
X16737140Y7701000D01*
X16701320Y7748750D01*
X16659540Y7764680D01*
X16474510D01*
G01X17089300Y7510000D02*
X17041550Y7517960D01*
X16999780Y7549780D01*
X16963960Y7597540D01*
X16940080Y7653250D01*
X16928140Y7716920D01*
Y7780600D01*
X16940080Y7844270D01*
X16963960Y7899980D01*
X16999780Y7947720D01*
X17041550Y7979560D01*
X17089300Y7987520D01*
X17137060Y7979560D01*
X17178840Y7947720D01*
X17214660Y7899980D01*
X17238540Y7844270D01*
X17250480Y7780600D01*
Y7716920D01*
X17238540Y7653250D01*
X17214660Y7597540D01*
X17178840Y7549780D01*
X17137060Y7517960D01*
X17089300Y7510000D01*
G01X17566820Y7987520D02*
Y7510000D01*
G01X17429550Y7987520D02*
X17704110D01*
G01X18044340D02*
Y7510000D01*
G01X17907070Y7987520D02*
X18181630D01*
G01X18521860Y7510000D02*
X18474110Y7517960D01*
X18432340Y7549780D01*
X18396520Y7597540D01*
X18372640Y7653250D01*
X18360700Y7716920D01*
Y7780600D01*
X18372640Y7844270D01*
X18396520Y7899980D01*
X18432340Y7947720D01*
X18474110Y7979560D01*
X18521860Y7987520D01*
X18569620Y7979560D01*
X18611400Y7947720D01*
X18647220Y7899980D01*
X18671100Y7844270D01*
X18683040Y7780600D01*
Y7716920D01*
X18671100Y7653250D01*
X18647220Y7597540D01*
X18611400Y7549780D01*
X18569620Y7517960D01*
X18521860Y7510000D01*
G01X18844190D02*
Y7987520D01*
X18999380Y7589580D01*
X19154590Y7987520D01*
Y7510000D01*
G01X11481270Y10195000D02*
X11607340D01*
X11636270D01*
Y10210790D01*
Y10317500D01*
X11764360D01*
X11764400Y10317460D01*
Y10430000D01*
X11814400Y10480000D01*
X13875500D01*
X13925500Y10430000D01*
Y10260000D01*
X13480000D01*
Y9310000D01*
X13925500D01*
Y9105000D01*
X13675500Y8855000D01*
X12765000D01*
Y9405000D01*
X11975000D01*
Y8855000D01*
X11814400D01*
X11764400Y8905000D01*
Y9437500D01*
X11636270D01*
Y9560000D01*
X11481270D01*
Y10195000D01*
M02*
