G04 ================== begin FILE IDENTIFICATION RECORD ==================*
G04 Layout Name:  180-10114-04.brd*
G04 Film Name:    gnd1*
G04 File Format:  Gerber RS274X*
G04 File Origin:  Cadence Allegro 16.6-S039*
G04 Origin Date:  Wed Dec 17 11:03:58 2014*
G04 *
G04 Layer:  VIA CLASS/GND1*
G04 Layer:  PIN/GND1*
G04 Layer:  ETCH/GND1*
G04 Layer:  BOARD GEOMETRY/OUTLINE*
G04 *
G04 Offset:    (0.0000 0.0000)*
G04 Mirror:    No*
G04 Mode:      Positive*
G04 Rotation:  0*
G04 FullContactRelief:  No*
G04 UndefLineWidth:     0.1100*
G04 ================== end FILE IDENTIFICATION RECORD ====================*
%FSLAX35Y35*MOMM*%
%IR0*IPPOS*OFA0.00000B0.00000*MIA0B0*SFA1.00000B1.00000*%
%ADD12C,.22*%
%ADD15C,.65*%
%ADD14O,2.X1.*%
%ADD13O,1.6X1.*%
%ADD10O,1.2X2.2*%
%ADD11O,1.2X1.9*%
%ADD16O,.65X.95*%
%ADD17C,.11*%
%ADD18C,.4744*%
G75*
%LPD*%
G75*
G36*
G01X13429840Y9742420D02*
G02X13440000Y9732260I0J-10160D01*
G01Y9463730D01*
G02X13427450Y9453850I-10160J-5D01*
G03Y9351150I-12450J-51350D01*
G02X13440000Y9341270I2390J-9875D01*
G01Y9290000D01*
X13900000D01*
Y9100000D01*
X13670000Y8870000D01*
X12790000D01*
Y9420000D01*
X11950000D01*
Y8880000D01*
X11820000D01*
X11780000Y8920000D01*
Y9450000D01*
X11640000Y9590000D01*
X11523300D01*
Y10160000D01*
X11610000D01*
X11630000Y10180000D01*
X11650000D01*
Y10300000D01*
X11780000D01*
Y10420000D01*
X11820000Y10460000D01*
X13870000D01*
X13900000Y10430000D01*
Y10280000D01*
X13440000D01*
Y10243630D01*
G02X13427450Y10233750I-10160J-5D01*
G03X13362160Y10182400I-12452J-51350D01*
G01Y10152400D01*
G03X13427450Y10101050I52838J0D01*
G02X13440000Y10091170I2390J-9875D01*
G01Y9837740D01*
G02X13429840Y9827580I-10160J0D01*
G03X13424640Y9826150I-3J-10159D01*
G02X13388300Y9821750I-23140J38850D01*
G03X13380920Y9821180I-2961J-9719D01*
G03X13376010Y9827500I-20918J-11184D01*
G02Y9842500I6856J7500D01*
G03X13379850Y9872980I-16011J17499D01*
G02X13384000Y9887720I8506J5559D01*
G03X13383380Y9930870I-10160J21433D01*
G02X13379230Y9946110I4089J9299D01*
G03X13376010Y9977500I-19230J13888D01*
G02Y9992500I6856J7500D01*
G03X13343990I-16010J17500D01*
G02Y9977500I-6856J-7500D01*
G03X13342490Y9944000I16011J-17500D01*
G02X13337810Y9927390I-7501J-6851D01*
G03X13333810Y9883370I6586J-22790D01*
G02X13338490Y9870000I-4532J-9091D01*
G03X13343990Y9842500I21510J-9998D01*
G02Y9827500I-6856J-7500D01*
G03Y9792500I16010J-17500D01*
G02Y9777500I-6856J-7500D01*
G03Y9742500I16010J-17500D01*
G02Y9727500I-6856J-7500D01*
G03X13339630Y9697840I16009J-17504D01*
G02X13333630Y9682850I-8724J-5204D01*
G03Y9637150I6370J-22850D01*
G02X13339630Y9622160I-2724J-9786D01*
G03X13343990Y9592500I20369J-12156D01*
G02Y9577500I-6856J-7500D01*
G03X13376010I16010J-17500D01*
G02Y9592500I6856J7500D01*
G03X13378820Y9624440I-16010J17502D01*
G02X13381820Y9639430I8060J6182D01*
G03Y9680570I-11820J20570D01*
G02X13378820Y9695560I5060J8808D01*
G03X13376010Y9727500I-18820J14438D01*
G02Y9742500I6856J7500D01*
G03X13380920Y9748820I-16008J17504D01*
G03X13388300Y9748250I4419J9149D01*
G02X13424640Y9743850I13200J-43250D01*
G03X13429840Y9742420I5197J8729D01*
G37*
%LPC*%
G75*
G36*
G01X12440920Y10383340D02*
G03X12426740Y10383190I-7013J-7348D01*
G02X12426380Y10417160I-16739J16810D01*
G03X12440560Y10417310I7013J7348D01*
G02X12440920Y10383340I16739J-16810D01*
G37*
G36*
G01X11959810Y10299910D02*
G02X11957850Y10265620I-17312J-16211D01*
G02X11922680Y10233800I-17849J-15619D01*
G02X11907920Y10274560I-16440J17099D01*
G03X11918790Y10284400I715J10135D01*
G02X11923130Y10297390I23710J-701D01*
G03X11922690Y10303790I-4152J2930D01*
G02X11922930Y10336470I17311J16214D01*
G03Y10343530I-3653J3530D01*
G02X11921630Y10375000I17071J16467D01*
G02X11963660Y10391620I18368J15004D01*
G03X11974200Y10382160I10138J694D01*
G02X11974040Y10334770I940J-23698D01*
G03X11963500Y10323230I-475J-10150D01*
G02X11959370Y10306310I-23499J-3228D01*
G03X11959810Y10299910I4152J-2930D01*
G37*
G36*
G01X12132500Y10193990D02*
G03X12117500I-7500J-6856D01*
G02X12082930Y10226470I-17501J16011D01*
G03Y10233530I-3653J3530D01*
G02Y10266470I17070J16470D01*
G03Y10273530I-3653J3530D01*
G02X12081680Y10305070I17069J16471D01*
G02X12082100Y10334440I18832J14419D01*
G02X12117500Y10366010I17900J15560D01*
G03X12132500I7500J6856D01*
G02X12160540Y10328750I17501J-16010D01*
G03X12157790Y10323370I2261J-4549D01*
G02X12156490Y10310870I-23400J-3884D01*
G03X12158800Y10304560I4731J-1846D01*
G02X12160100Y10303800I-11317J-20850D01*
G03X12172570Y10305120I5394J8606D01*
G02X12176500Y10268000I16527J-17018D01*
G03X12164030Y10266680I-5394J-8606D01*
G02X12159660Y10263330I-16520J17025D01*
G03X12157440Y10257390I2606J-4359D01*
G02X12157400Y10242500I-22540J-7385D01*
G03X12161930Y10230500I9639J-3216D01*
G02X12132500Y10193990I-11928J-20502D01*
G37*
G36*
G01X12330530Y10174040D02*
G03X12332960Y10168500I4952J-1131D01*
G02X12298070Y10153160I-11760J-20600D01*
G03X12295640Y10158700I-4952J1131D01*
G02X12288020Y10165630I11768J20594D01*
G03X12281750Y10167320I-4152J-2928D01*
G02X12291280Y10202570I-9852J21577D01*
G03X12297550Y10200880I4152J2928D01*
G02X12330530Y10174040I9850J-21579D01*
G37*
G36*
G01X12747010Y10158050D02*
G03X12751680Y10153660I5035J677D01*
G02X12726490Y10126850I-1680J-23660D01*
G03X12721820Y10131240I-5035J-677D01*
G02X12747010Y10158050I1680J23660D01*
G37*
G36*
G01X11714460Y10085000D02*
G03X11714020Y10077960I3431J-3748D01*
G02X11679940Y10080100I-18072J-15361D01*
G03X11680380Y10087140I-3431J3748D01*
G02X11714460Y10085000I18072J15361D01*
G37*
G36*
G01X11736810Y9983500D02*
G02X11707620Y9984120I-14198J19000D01*
G02X11704990Y10018380I-17620J15878D01*
G02X11739210Y10019440I17618J-15881D01*
G03X11745800Y10019000I3552J3632D01*
G02X11762090Y10023630I14203J-18999D01*
G03X11767380Y10027160I448J5057D01*
G02X11787910Y9996370I22617J-7159D01*
G03X11782620Y9992840I-448J-5057D01*
G02X11743400Y9983060I-22615J7160D01*
G03X11736810Y9983500I-3552J-3632D01*
G37*
G36*
G01X11883530Y9932930D02*
G03X11876470I-3530J-3653D01*
G02Y9967070I-16470J17070D01*
G03X11883530I3530J3653D01*
G02Y9932930I16470J-17070D01*
G37*
G36*
G01X12740360Y9922660D02*
G03X12727620Y9922150I-6054J-8161D01*
G02X12697370Y9921330I-15620J17850D01*
G02X12666930Y9923430I-13970J19170D01*
G03X12659870I-3530J-3653D01*
G02Y9957570I-16470J17070D01*
G03X12666930I3530J3653D01*
G02X12698030Y9959170I16469J-17070D01*
G02X12726140Y9959040I13967J-19171D01*
G03X12738880Y9959550I6054J8161D01*
G02X12740360Y9922660I15621J-17848D01*
G37*
G36*
G01X12642620Y9858890D02*
G03X12637520Y9846920I4628J-9043D01*
G02X12603980Y9861210I-22720J-6819D01*
G03X12609080Y9873180I-4628J9043D01*
G02X12642620Y9858890I22720J6819D01*
G37*
G36*
G01X12083530Y9812930D02*
G03X12076470I-3530J-3653D01*
G02Y9847070I-16470J17070D01*
G03X12083530I3530J3653D01*
G02X12104770Y9853240I16474J-17068D01*
G03X12116760Y9865230I2040J9950D01*
G02X12157070Y9853530I23237J4769D01*
G03Y9846470I3653J-3530D01*
G02X12123530Y9812930I-17070J-16470D01*
G03X12116470I-3530J-3653D01*
G02X12083530I-16470J17070D01*
G37*
G36*
G01X11917070Y9853530D02*
G03Y9846470I3653J-3530D01*
G02X11882930I-17070J-16470D01*
G03Y9853530I-3653J3530D01*
G02X11917070I17070J16470D01*
G37*
G36*
G01X12428530Y9742930D02*
G03X12421470I-3530J-3653D01*
G02X12381760Y9764770I-16473J17069D01*
G03X12369770Y9776760I-9950J2040D01*
G02X12381470Y9817070I-4769J23237D01*
G03X12388530I3530J3653D01*
G02X12409770Y9823240I16474J-17068D01*
G03X12421760Y9835230I2040J9950D01*
G02X12427930Y9856470I23238J4766D01*
G03Y9863530I-3653J3530D01*
G02X12421760Y9884770I17068J16474D01*
G03X12409770Y9896760I-9950J2040D01*
G02X12400230I-4770J23240D01*
G03X12388240Y9884770I-2040J-9950D01*
G02X12341760I-23240J-4770D01*
G03X12329770Y9896760I-9950J2040D01*
G02Y9943240I-4770J23240D01*
G03X12341760Y9955230I2040J9950D01*
G02X12381470Y9977070I23237J4771D01*
G03X12388530I3530J3653D01*
G02X12421470I16470J-17070D01*
G03X12428530I3530J3653D01*
G02X12449770Y9983240I16474J-17068D01*
G03X12461760Y9995230I2040J9950D01*
G02X12502070Y9983530I23237J4769D01*
G03Y9976470I3653J-3530D01*
G02X12508240Y9955230I-17068J-16474D01*
G03X12520230Y9943240I9950J-2040D01*
G02X12541470Y9937070I4766J-23238D01*
G03X12548530I3530J3653D01*
G02X12560230Y9896760I16469J-17073D01*
G03X12548240Y9884770I-2040J-9950D01*
G02X12520230Y9856760I-23240J-4770D01*
G03X12508240Y9844770I-2040J-9950D01*
G02Y9835230I-23240J-4770D01*
G03X12520230Y9823240I9950J-2040D01*
G02X12508530Y9782930I4769J-23237D01*
G03X12501470I-3530J-3653D01*
G02X12480230Y9776760I-16474J17068D01*
G03X12468240Y9764770I-2040J-9950D01*
G02X12428530Y9742930I-23237J-4771D01*
G37*
G36*
G01X12011550Y9778240D02*
G02Y9738360I12850J-19940D01*
G02Y9778240I-12850J19940D01*
G37*
G36*
G01X11733660Y9732810D02*
G02X11736340Y9769390I-13661J19389D01*
G02X11733660Y9732810I13661J-19389D01*
G37*
G36*
G01X11819460Y9722380D02*
G02X11828170Y9759380I-9460J21752D01*
G02X11819460Y9722380I9460J-21752D01*
G37*
G36*
G01X12130450Y9507060D02*
G03X12133530Y9501690I5034J-681D01*
G02X12100890Y9482970I-9133J-21891D01*
G03X12097810Y9488340I-5034J681D01*
G02X12130450Y9507060I9133J21891D01*
G37*
G36*
G01X13018790Y10372870D02*
G02X12990460Y10358770I-6291J-22871D01*
G03X12983710Y10372330I-9437J3762D01*
G02X13012040Y10386430I6291J22871D01*
G03X13018790Y10372870I9437J-3762D01*
G37*
G36*
G01X12784360Y10245850D02*
G02X12780650Y10219680I17649J-15850D01*
G03X12763950Y10222050I-9146J-4421D01*
G02X12767660Y10248220I-17649J15850D01*
G03X12784360Y10245850I9146J4421D01*
G37*
G36*
G01X13004030Y10234330D02*
G02X12972190Y10230870I-14029J-19129D01*
G03X12970570Y10245770I-7627J6709D01*
G02X12966010Y10250170I14043J19117D01*
G03X12959530Y10251440I-3982J-3153D01*
G02X12966480Y10286840I-11640J20668D01*
G03X12972960Y10285570I3982J3153D01*
G02X13002410Y10249230I11643J-20667D01*
G03X13004030Y10234330I7627J-6709D01*
G37*
G36*
G01X12438360Y10161610D02*
G02X12411640I-13360J-19600D01*
G03Y10178390I-5729J8390D01*
G02X12410650Y10179100I13325J19625D01*
G03X12404010Y10178660I-3066J-4047D01*
G02X12401650Y10214390I-16708J16839D01*
G03X12408290Y10214830I3066J4047D01*
G02X12438360Y10178390I16704J-16843D01*
G03Y10161610I5729J-8390D01*
G37*
G36*
G01X13221940Y9888630D02*
G02X13190600Y9923890I-17540J15968D01*
G03X13189910Y9940870I-5910J8264D01*
G02X13185640Y9978300I12190J20349D01*
G03Y9992920I-7055J7310D01*
G02X13218560I16460J17080D01*
G03Y9978300I7055J-7310D01*
G02X13207300Y9938080I-16460J-17078D01*
G03X13207700Y9928090I1106J-4959D01*
G02X13216300Y9925120I-3299J-23490D01*
G02X13221940Y9888630I17539J-15970D01*
G37*
G36*
G01X12956010Y9907500D02*
G02X12923990I-16010J-17500D01*
G03Y9922500I-6856J7500D01*
G02X12956010I16010J17500D01*
G03Y9907500I6856J-7500D01*
G37*
G36*
G01X11703640Y9870000D02*
G02X11671620I-16010J-17500D01*
G03Y9885000I-6856J7500D01*
G02X11703640I16010J17500D01*
G03Y9870000I6856J-7500D01*
G37*
G36*
G01X13236010Y9777500D02*
G02X13203990I-16010J-17500D01*
G03Y9792500I-6856J7500D01*
G02X13236010I16010J17500D01*
G03Y9777500I6856J-7500D01*
G37*
G36*
G01X11606010Y9670000D02*
G02X11573990I-16010J-17500D01*
G03Y9685000I-6856J7500D01*
G02X11606010I16010J17500D01*
G03Y9670000I6856J-7500D01*
G37*
G36*
G01X12267950Y9656670D02*
G02X12262800Y9625200I14752J-18571D01*
G03X12247950Y9627630I-8528J-5527D01*
G02X12253100Y9659100I-14752J18571D01*
G03X12267950Y9656670I8528J5527D01*
G37*
G36*
G01X13236010Y9577500D02*
G02X13203990I-16010J-17500D01*
G03Y9592500I-6856J7500D01*
G02X13198050Y9619000I16009J17504D01*
G03X13192350Y9632310I-9399J3850D01*
G02X13215110Y9673460I8645J22088D01*
G03X13221250Y9673530I3024J4085D01*
G02X13246220Y9633490I14553J-18730D01*
G03X13241480Y9620060I4463J-9127D01*
G02X13236010Y9592500I-21480J-10059D01*
G03Y9577500I6856J-7500D01*
G37*
G36*
G01X13156780Y9576760D02*
G02X13124990Y9578360I-16779J-16762D01*
G03X13125750Y9593410I-6431J7869D01*
G02X13157540Y9591810I16779J16762D01*
G03X13156780Y9576760I6431J-7869D01*
G37*
G54D18*
X11820000Y9830000D03*
X12060000Y9950000D03*
X11980000Y9991100D03*
X12305000Y9520400D03*
X12100010Y9660000D03*
X12140000Y9950000D03*
X12223800Y9985200D03*
X12280000Y10312010D03*
X12507400Y9700600D03*
X12370000Y9520400D03*
X12430000Y9510000D03*
X12401600Y9651700D03*
X12535800Y10060000D03*
X12580500Y10168000D03*
X12490000Y10142010D03*
X12495000Y10306900D03*
X12421410Y10312010D03*
X12345610Y10275200D03*
X12350000Y10400380D03*
X12530000Y10395200D03*
X12565000Y10304800D03*
X12790010Y9700000D03*
X12612300Y9712700D03*
X12650000Y10110000D03*
X12690000Y10359400D03*
X12790000Y10357990D03*
X12650000Y10270000D03*
X12990000Y9390000D03*
X13039000Y9644000D03*
X13040000Y9840000D03*
X12854200D03*
X12897400Y10162500D03*
X12990000Y10124800D03*
X13087700Y10123200D03*
X12860000Y10302010D03*
X12910000Y10390000D03*
X13170000Y9170000D03*
X13148100Y9826700D03*
X13372600Y8931600D03*
X13770000Y9050000D03*
%LPD*%
G75*
G54D10*
X11875000Y9050000D03*
X12865000D03*
G54D11*
X11875000Y9450000D03*
X12865000D03*
G54D12*
X11760000Y9500000D03*
D03*
X11580000Y9600000D03*
D03*
X11620000D03*
D03*
X11770000Y9530000D03*
D03*
X11800000D03*
D03*
X11730000D03*
D03*
X11700000Y9560000D03*
D03*
X11680000Y9590000D03*
D03*
X11750000Y9750000D03*
D03*
X11720000Y9752200D03*
D03*
X11590000Y9702500D03*
D03*
Y9652500D03*
D03*
X11687630Y9902500D03*
D03*
Y9852500D03*
D03*
X11760000Y10000000D03*
D03*
X11690000D03*
D03*
X11722610Y10002500D03*
D03*
X11720000Y10220000D03*
D03*
X11700000Y10190000D03*
D03*
X11660000D03*
D03*
X11570000Y10150000D03*
D03*
X11610000D03*
D03*
X11689100Y10154400D03*
D03*
X11647500Y10152500D03*
D03*
X11790000Y10020000D03*
D03*
X11695950Y10062600D03*
D03*
X11698450Y10102500D03*
D03*
X11998700Y9758300D03*
D03*
X12024400D03*
D03*
X11837630Y9737630D03*
D03*
X11810000Y9744130D03*
D03*
X11820000Y9830000D03*
D03*
X11900000Y9910000D03*
X11860000D03*
X11820000D03*
X11900000Y9870000D03*
D03*
Y9830000D03*
D03*
X11860000Y9950000D03*
D03*
X11900000D03*
D03*
X11980000Y9991100D03*
D03*
X11906240Y10250900D03*
D03*
X11940000Y10250000D03*
D03*
Y10390000D03*
D03*
Y10360000D03*
D03*
Y10320000D03*
D03*
X11975140Y10358460D03*
D03*
X11942500Y10283700D03*
D03*
X12106940Y9510230D03*
D03*
X12124400Y9479800D03*
D03*
X12100010Y9660000D03*
D03*
X12233200Y9646200D03*
D03*
X12282700Y9638100D03*
D03*
X12223800Y9985200D03*
D03*
X12060000Y9870000D03*
X12140000Y9910000D03*
X12100000D03*
X12060000D03*
X12140000Y9870000D03*
D03*
Y9830000D03*
D03*
X12100000D03*
D03*
X12140000Y9950000D03*
D03*
X12060000D03*
D03*
Y9830000D03*
D03*
X12271900Y10188900D03*
D03*
X12150000Y10210000D03*
D03*
X12134900Y10250000D03*
D03*
X12100000Y10210000D03*
D03*
Y10250000D03*
D03*
X12280000Y10312010D03*
D03*
X12189100Y10288100D03*
D03*
X12150000Y10350000D03*
D03*
X12134390Y10319490D03*
D03*
X12147500Y10283700D03*
D03*
X12100000Y10350000D03*
D03*
X12100510Y10319490D03*
D03*
X12100000Y10290000D03*
D03*
X12500000Y9500000D03*
X12305000Y9520400D03*
D03*
X12370000D03*
D03*
X12430000Y9510000D03*
D03*
X12445000Y9760000D03*
D03*
X12507400Y9700600D03*
D03*
X12405000Y9760000D03*
D03*
X12401600Y9651700D03*
D03*
X12485000Y10000000D03*
D03*
X12525000Y9800000D03*
D03*
X12445000Y9960000D03*
D03*
X12405000D03*
D03*
Y9800000D03*
D03*
X12485000Y9840000D03*
D03*
Y9960000D03*
D03*
X12525000Y9920000D03*
D03*
X12445000Y9800000D03*
D03*
X12405000Y9880000D03*
X12525000Y9840000D03*
X12325000Y9960000D03*
X12525000D03*
Y10000000D03*
X12365000Y9960000D03*
D03*
Y9800000D03*
D03*
X12445000Y9920000D03*
D03*
Y9880000D03*
D03*
X12485000Y9920000D03*
D03*
Y9800000D03*
D03*
X12365000Y9920000D03*
D03*
Y9880000D03*
D03*
X12325000Y9920000D03*
D03*
X12405000D03*
D03*
X12445000Y9840000D03*
D03*
X12525000Y9880000D03*
D03*
X12387300Y10195500D03*
D03*
X12307400Y10179300D03*
D03*
X12352900Y10178300D03*
X12321200Y10147900D03*
D03*
X12425000Y10197990D03*
D03*
Y10142010D03*
D03*
X12490000D03*
D03*
X12495000Y10306900D03*
D03*
X12421410Y10312010D03*
D03*
X12345610Y10275200D03*
D03*
X12410000Y10400000D03*
D03*
X12350000Y10400380D03*
D03*
X12530000Y10395200D03*
D03*
X12350000Y10367990D03*
X12457300Y10400500D03*
D03*
X12612300Y9712700D03*
D03*
X12565000Y9920000D03*
D03*
X12738000Y9800000D03*
Y9870000D03*
X12754500Y9941700D03*
D03*
X12643400Y9940500D03*
D03*
X12683400D03*
D03*
X12712000Y9940000D03*
D03*
X12631800Y9880000D03*
D03*
X12614800Y9840100D03*
D03*
X12535800Y10060000D03*
D03*
X12746300Y10237900D03*
D03*
X12580500Y10168000D03*
D03*
X12650000D03*
X12580000Y10112010D03*
X12650000Y10110000D03*
D03*
X12750000Y10130000D03*
D03*
X12723500Y10154900D03*
D03*
X12690000Y10359400D03*
D03*
X12650000Y10270000D03*
D03*
X12565000Y10304800D03*
D03*
X12990000Y9390000D03*
D03*
X12857420Y9692680D03*
D03*
X12790010Y9700000D03*
D03*
X12940000Y9890000D03*
D03*
Y9940000D03*
D03*
X12854200Y9840000D03*
D03*
X12897400Y10162500D03*
D03*
X12990000Y10124800D03*
D03*
Y10215200D03*
D03*
X12810000Y10030000D03*
X12840000Y10140000D03*
X12802010Y10230000D03*
D03*
X12860000Y10302010D03*
D03*
X12947890Y10272110D03*
D03*
X12790000Y10357990D03*
D03*
X12984600Y10264900D03*
D03*
X12990000Y10395200D03*
D03*
X13012500Y10350000D03*
D03*
X12910000Y10390000D03*
D03*
X13170000Y9170000D03*
D03*
X13139300Y9459400D03*
X13139200Y9435200D03*
X13220000Y9510000D03*
X13244200Y9509900D03*
X13196100Y9509800D03*
X13140100Y9674200D03*
X13140000Y9650000D03*
X13039000Y9644000D03*
D03*
X13220000Y9760000D03*
D03*
X13235800Y9654800D03*
D03*
X13201000Y9654400D03*
D03*
X13142530Y9610170D03*
D03*
X13140000Y9560000D03*
D03*
X13220000Y9610000D03*
D03*
Y9560000D03*
D03*
X13040000Y9840000D03*
D03*
X13140600Y9921800D03*
X13140500Y9897600D03*
X13040000Y9890000D03*
X13066300Y9773700D03*
X13220000Y9810000D03*
D03*
X13233840Y9909150D03*
D03*
X13204400Y9904600D03*
D03*
X13148100Y9826700D03*
D03*
X13202100Y9961220D03*
D03*
Y10010000D03*
D03*
X13140100Y10134200D03*
X13140000Y10110000D03*
X13220000Y10060000D03*
X13244100D03*
X13195500Y10059600D03*
X13025000Y10215200D03*
X13087700Y10123200D03*
D03*
X13025000Y10395200D03*
X13372600Y8931600D03*
D03*
X13324200Y9439900D03*
X13300000Y9440000D03*
X13374200Y9509900D03*
X13350000Y9510000D03*
X13360000Y9760000D03*
D03*
X13370000Y9660000D03*
D03*
X13340000D03*
D03*
X13360000Y9710000D03*
D03*
Y9610000D03*
D03*
Y9560000D03*
D03*
Y9810000D03*
D03*
Y9860000D03*
D03*
X13344400Y9904600D03*
D03*
X13373840Y9909150D03*
D03*
X13360000Y9960000D03*
D03*
Y10010000D03*
D03*
X13374200Y10059900D03*
X13350000Y10060000D03*
X13310100Y10144200D03*
X13310000Y10120000D03*
X13770000Y9050000D03*
D03*
G54D13*
X13174000Y9337600D03*
Y10232500D03*
G54D14*
X13407500Y9177500D03*
Y10392500D03*
X13794000Y9177500D03*
Y10392500D03*
G54D15*
X13415000Y9402500D03*
G54D16*
Y10167400D03*
G54D17*
G01X11481270Y10195000D02*
X11607340D01*
X11636270D01*
Y10210790D01*
Y10317500D01*
X11764360D01*
X11764400Y10317460D01*
Y10430000D01*
X11814400Y10480000D01*
X13875500D01*
X13925500Y10430000D01*
Y10260000D01*
X13480000D01*
Y9310000D01*
X13925500D01*
Y9105000D01*
X13675500Y8855000D01*
X12765000D01*
Y9405000D01*
X11975000D01*
Y8855000D01*
X11814400D01*
X11764400Y8905000D01*
Y9437500D01*
X11636270D01*
Y9560000D01*
X11481270D01*
Y10195000D01*
M02*
