G04 ================== begin FILE IDENTIFICATION RECORD ==================*
G04 Layout Name:  180-10114-04.brd*
G04 Film Name:    signal1*
G04 File Format:  Gerber RS274X*
G04 File Origin:  Cadence Allegro 16.6-S039*
G04 Origin Date:  Wed Dec 17 11:03:58 2014*
G04 *
G04 Layer:  VIA CLASS/SIGNAL_1*
G04 Layer:  PIN/SIGNAL_1*
G04 Layer:  ETCH/SIGNAL_1*
G04 Layer:  BOARD GEOMETRY/OUTLINE*
G04 *
G04 Offset:    (0.0000 0.0000)*
G04 Mirror:    No*
G04 Mode:      Positive*
G04 Rotation:  0*
G04 FullContactRelief:  No*
G04 UndefLineWidth:     0.1100*
G04 ================== end FILE IDENTIFICATION RECORD ====================*
%FSLAX35Y35*MOMM*%
%IR0*IPPOS*OFA0.00000B0.00000*MIA0B0*SFA1.00000B1.00000*%
%ADD12C,.22*%
%ADD15C,.65*%
%ADD14O,2.X1.*%
%ADD13O,1.6X1.*%
%ADD10O,1.2X2.2*%
%ADD11O,1.2X1.9*%
%ADD16O,.65X.95*%
%ADD17C,.2*%
%ADD18C,.3*%
%ADD19C,.25*%
%ADD20C,.1016*%
%ADD21C,.11*%
%ADD22C,.0889*%
G75*
%LPD*%
G75*
G54D10*
X11875000Y9050000D03*
X12865000D03*
G54D20*
G01X11590000Y9702500D02*
X11603180Y9689320D01*
X11660680D01*
X11763000Y9587000D01*
X12943000D01*
X12996240Y9533760D01*
X13160870D01*
X13176240Y9549130D01*
Y9566240D01*
X13220000Y9610000D01*
G01X11590000Y9652500D02*
Y9658840D01*
X11600160Y9669000D01*
X11652260D01*
X11754580Y9566680D01*
X12934580D01*
X12987820Y9513440D01*
X13185930D01*
X13196560Y9524070D01*
Y9550360D01*
X13206200Y9560000D01*
X13220000D01*
G01X11687630Y9902500D02*
X11700710Y9889420D01*
X11720580D01*
X11814150Y9795850D01*
X11856170D01*
X11924600Y9727420D01*
X12061020D01*
X12076540Y9711900D01*
X12426840D01*
X12472300Y9666440D01*
X12892740D01*
X13021460Y9795160D01*
X13205160D01*
X13220000Y9810000D01*
G01X11687630Y9852500D02*
Y9857620D01*
X11699110Y9869100D01*
X11712160D01*
X11805730Y9775530D01*
X11847750D01*
X11916180Y9707100D01*
X12052600D01*
X12068120Y9691580D01*
X12418420D01*
X12463880Y9646120D01*
X12896710D01*
X12896770Y9646180D01*
X12901220D01*
X13029880Y9774840D01*
X13205160D01*
X13220000Y9760000D01*
G01X11591270Y10052500D02*
X11605120Y10066350D01*
X11626850D01*
X11637030Y10056170D01*
Y9987120D01*
X11670710Y9953440D01*
X11826330D01*
X11892170Y10019280D01*
X12439180D01*
X12453400Y10033500D01*
X12490600D01*
X12531200Y9992900D01*
X13043000D01*
X13083600Y9952300D01*
Y9879900D01*
X13108300Y9855200D01*
X13269300D01*
X13291380Y9877280D01*
Y9964680D01*
X13301540Y9974840D01*
X13320590D01*
X13335430Y9960000D01*
X13360000D01*
G01X11591270Y10102500D02*
X11607100Y10086670D01*
X11635270D01*
X11657350Y10064590D01*
Y9995540D01*
X11679130Y9973760D01*
X11817910D01*
X11883750Y10039600D01*
X12430760D01*
X12444980Y10053820D01*
X12499020D01*
X12539620Y10013220D01*
X13051420D01*
X13103920Y9960720D01*
Y9888320D01*
X13116720Y9875520D01*
X13260880D01*
X13271060Y9885700D01*
Y9973100D01*
X13293120Y9995160D01*
X13320590D01*
X13335430Y10010000D01*
X13360000D01*
G01X13202100Y9961220D02*
X13189740Y9973580D01*
X13160280D01*
X13071280Y10062580D01*
X12625280D01*
X12594280Y10093580D01*
X11849120D01*
X11825760Y10070220D01*
X11731230D01*
X11720830Y10061030D01*
X11695950Y10062600D01*
G01X13202100Y10010000D02*
X13186000Y9993900D01*
X13168700D01*
X13079700Y10082900D01*
X12633700D01*
X12602700Y10113900D01*
X11840700D01*
X11817340Y10090540D01*
X11732490D01*
X11723330Y10100930D01*
X11698450Y10102500D01*
G01X12060000Y9950000D02*
X12140000D01*
G01X13360000Y9760000D02*
Y9770000D01*
X13340000Y9790000D01*
X13240000D01*
X13220000Y9810000D01*
G54D11*
X11875000Y9450000D03*
X12865000D03*
G54D21*
G01X11481270Y10195000D02*
X11607340D01*
X11636270D01*
Y10210790D01*
Y10317500D01*
X11764360D01*
X11764400Y10317460D01*
Y10430000D01*
X11814400Y10480000D01*
X13875500D01*
X13925500Y10430000D01*
Y10260000D01*
X13480000D01*
Y9310000D01*
X13925500D01*
Y9105000D01*
X13675500Y8855000D01*
X12765000D01*
Y9405000D01*
X11975000D01*
Y8855000D01*
X11814400D01*
X11764400Y8905000D01*
Y9437500D01*
X11636270D01*
Y9560000D01*
X11481270D01*
Y10195000D01*
G54D12*
X11760000Y9500000D03*
D03*
X11580000Y9600000D03*
D03*
X11620000D03*
D03*
X11770000Y9530000D03*
D03*
X11800000D03*
D03*
X11730000D03*
D03*
X11700000Y9560000D03*
D03*
X11680000Y9590000D03*
D03*
X11750000Y9750000D03*
D03*
X11720000Y9752200D03*
D03*
X11590000Y9702500D03*
Y9652500D03*
X11687630Y9902500D03*
Y9852500D03*
X11760000Y10000000D03*
D03*
X11690000D03*
D03*
X11722610Y10002500D03*
D03*
X11720000Y10220000D03*
X11700000Y10190000D03*
X11660000D03*
X11570000Y10150000D03*
D03*
X11610000D03*
D03*
X11689100Y10154400D03*
D03*
X11647500Y10152500D03*
D03*
X11660000Y10190000D03*
X11700000D03*
X11720000Y10220000D03*
X11790000Y10020000D03*
D03*
X11695950Y10062600D03*
X11698450Y10102500D03*
X11591270Y10052500D03*
Y10102500D03*
X11998700Y9758300D03*
D03*
X12024400D03*
D03*
X11837630Y9737630D03*
D03*
X11810000Y9744130D03*
D03*
X11905100Y9676900D03*
X12016800Y9898000D03*
X11820000Y9830000D03*
X11900000Y9870000D03*
D03*
Y9830000D03*
X11860000Y9950000D03*
D03*
X11900000D03*
D03*
X11980000Y9991100D03*
D03*
X11906240Y10250900D03*
D03*
X11940000Y10250000D03*
D03*
X12017500Y10244700D03*
Y10209100D03*
X11983200Y10172400D03*
X11940000Y10390000D03*
D03*
Y10360000D03*
D03*
Y10320000D03*
D03*
X11975140Y10358460D03*
D03*
X11942500Y10283700D03*
D03*
X12017500Y10283100D03*
X12106940Y9510230D03*
D03*
X12124400Y9479800D03*
D03*
X12100010Y9660000D03*
D03*
X12200000Y9740000D03*
X12233200Y9646200D03*
D03*
X12282700Y9638100D03*
D03*
X12223800Y9985200D03*
D03*
X12140000Y9870000D03*
D03*
Y9830000D03*
X12100000D03*
X12209400Y9885800D03*
X12140000Y9950000D03*
X12060000D03*
Y9830000D03*
D03*
X12271900Y10188900D03*
D03*
X12150000Y10210000D03*
D03*
X12134900Y10250000D03*
D03*
X12100000Y10210000D03*
D03*
Y10250000D03*
D03*
X12280000Y10312010D03*
D03*
X12189100Y10288100D03*
X12150000Y10350000D03*
D03*
X12134390Y10319490D03*
D03*
X12147500Y10283700D03*
D03*
X12100000Y10350000D03*
D03*
X12100510Y10319490D03*
D03*
X12100000Y10290000D03*
D03*
X12305000Y9520400D03*
D03*
X12370000D03*
D03*
X12430000Y9510000D03*
D03*
X12445000Y9760000D03*
X12507400Y9700600D03*
X12405000Y9760000D03*
X12401600Y9651700D03*
D03*
X12485000Y10000000D03*
X12525000Y9800000D03*
D03*
X12445000Y9960000D03*
D03*
X12405000D03*
D03*
Y9800000D03*
X12485000Y9840000D03*
D03*
Y9960000D03*
X12525000Y9920000D03*
X12445000Y9800000D03*
X12365000Y9960000D03*
D03*
Y9800000D03*
D03*
X12445000Y9920000D03*
D03*
Y9880000D03*
D03*
X12485000Y9920000D03*
D03*
Y9800000D03*
D03*
X12365000Y9920000D03*
D03*
Y9880000D03*
X12325000Y9920000D03*
D03*
X12405000D03*
D03*
X12445000Y9840000D03*
D03*
X12525000Y9880000D03*
X12387300Y10195500D03*
X12307400Y10179300D03*
D03*
X12321200Y10147900D03*
D03*
X12425000Y10197990D03*
D03*
Y10142010D03*
D03*
X12490000D03*
D03*
X12528800Y10207900D03*
X12495000Y10306900D03*
X12421410Y10312010D03*
D03*
X12345610Y10275200D03*
D03*
X12410000Y10400000D03*
D03*
X12350000Y10400380D03*
D03*
X12530000Y10395200D03*
D03*
X12386000Y10377700D03*
X12350000Y10367990D03*
D03*
X12457300Y10400500D03*
D03*
X12758080Y9745690D03*
X12612300Y9712700D03*
D03*
X12565000Y9920000D03*
D03*
X12754500Y9941700D03*
D03*
X12643400Y9940500D03*
D03*
X12683400D03*
D03*
X12712000Y9940000D03*
D03*
X12631800Y9880000D03*
D03*
X12667800Y9816500D03*
X12614800Y9840100D03*
D03*
X12535800Y10060000D03*
D03*
X12746300Y10237900D03*
D03*
X12580500Y10168000D03*
D03*
X12650000Y10110000D03*
D03*
X12750000Y10130000D03*
D03*
X12723500Y10154900D03*
D03*
X12614040Y10202050D03*
X12559700Y10207900D03*
X12690000Y10359400D03*
D03*
X12650000Y10270000D03*
D03*
X12565000Y10304800D03*
X12990000Y9390000D03*
D03*
X12857420Y9692680D03*
D03*
X12790010Y9700000D03*
D03*
X12794800Y9938000D03*
X12850500Y9935400D03*
X12995300Y9907500D03*
X12940000Y9890000D03*
D03*
Y9940000D03*
D03*
X12854200Y9840000D03*
D03*
X12897400Y10162500D03*
D03*
X12990000Y10124800D03*
Y10215200D03*
D03*
X12802010Y10230000D03*
D03*
X12909900Y10260100D03*
X12860000Y10302010D03*
D03*
X12947890Y10272110D03*
D03*
X12792100Y10264400D03*
X12790000Y10357990D03*
D03*
X12984600Y10264900D03*
D03*
X12990000Y10395200D03*
X13012500Y10350000D03*
X12910000Y10390000D03*
X13170000Y9170000D03*
D03*
X13039000Y9644000D03*
D03*
X13220000Y9760000D03*
D03*
X13235800Y9654800D03*
D03*
X13201000Y9654400D03*
D03*
X13142530Y9610170D03*
D03*
X13140000Y9560000D03*
D03*
X13220000Y9610000D03*
Y9560000D03*
X13046400Y9945700D03*
X13040000Y9840000D03*
D03*
X13220000Y9810000D03*
X13233840Y9909150D03*
D03*
X13204400Y9904600D03*
D03*
X13148100Y9826700D03*
D03*
X13202100Y9961220D03*
Y10010000D03*
X13087700Y10123200D03*
D03*
X13372600Y8931600D03*
D03*
X13360000Y9760000D03*
X13370000Y9660000D03*
D03*
X13340000D03*
D03*
X13360000Y9710000D03*
Y9610000D03*
D03*
Y9560000D03*
D03*
Y9810000D03*
D03*
Y9860000D03*
X13344400Y9904600D03*
X13373840Y9909150D03*
D03*
X13344400Y9904600D03*
X13360000Y9960000D03*
Y10010000D03*
X13291900Y10062700D03*
X13770000Y9050000D03*
D03*
G54D22*
G01X11905100Y9676900D02*
X11947610Y9634390D01*
X12089380D01*
X12089390Y9634380D01*
X12110610D01*
X12110620Y9634390D01*
X12167690D01*
X12189590Y9612490D01*
X12293310D01*
X12300820Y9620000D01*
X12970000D01*
X13060000Y9710000D01*
X13360000D01*
G01X12016800Y9898000D02*
X12033580Y9881220D01*
X12115000D01*
X12129390Y9895610D01*
X12182990D01*
X12198790Y9911410D01*
X12280190D01*
X12354390Y9985610D01*
X12470610D01*
X12485000Y10000000D01*
G01X12405000Y9800000D02*
X12379390Y9774390D01*
X12130460D01*
X12102850Y9802000D01*
X11885900D01*
X11857900Y9830000D01*
X11820000D01*
G01X11900000D02*
X11925610Y9855610D01*
X12114390D01*
X12140000Y9830000D01*
G01X13291900Y10062700D02*
X13270000Y10084600D01*
Y10120500D01*
X13234300Y10156200D01*
X13110020D01*
X13074620Y10191600D01*
X13002620D01*
X13000610Y10189590D01*
X12954510D01*
X12920500Y10223600D01*
X12831830D01*
X12812620Y10204390D01*
X12648250D01*
X12616400Y10236240D01*
X12517050D01*
X12504410Y10223600D01*
X12235300D01*
X12184100Y10172400D01*
X11983200D01*
G01X12200000Y9740000D02*
X12385000D01*
X12405000Y9760000D01*
G01X12140000Y9830000D02*
X12160000Y9850000D01*
X12375000D01*
X12445000Y9920000D01*
G01X12100000Y9830000D02*
X12125610Y9804390D01*
X12324390D01*
X12350000Y9830000D01*
X12395000D01*
X12445000Y9880000D01*
G01X12365000D02*
X12285190D01*
X12279390Y9885800D01*
X12209400D01*
G01X12792100Y10264400D02*
X12788200Y10268300D01*
X12684500D01*
X12675610Y10259410D01*
Y10259390D01*
X12660610Y10244390D01*
X12639390D01*
X12625110Y10258670D01*
X12461450D01*
X12448350Y10245570D01*
X12381200D01*
X12377180Y10249590D01*
X12335000D01*
X12316290Y10268300D01*
X12314500D01*
X12296400Y10286400D01*
X12269390D01*
X12267690Y10288100D01*
X12189100D01*
G01X13046400Y9945700D02*
Y9922380D01*
X12970630Y9846610D01*
X12883810D01*
X12864810Y9865610D01*
X12843590D01*
X12829480Y9851500D01*
X12827670D01*
X12732780Y9756610D01*
X12448390D01*
X12445000Y9760000D01*
G01X12507400Y9700600D02*
X12545630Y9738830D01*
X12740150D01*
X12747010Y9745690D01*
X12758080D01*
G01X12794800Y9938000D02*
X12765500Y9967300D01*
X12765120D01*
X12765110Y9967310D01*
X12743890D01*
X12743880Y9967300D01*
X12520450D01*
X12513150Y9960000D01*
X12485000D01*
G01X12995300Y9907500D02*
X12952190Y9864390D01*
X12891180D01*
X12872180Y9883390D01*
X12833390D01*
X12724390Y9774390D01*
X12470610D01*
X12445000Y9800000D01*
G01X12990000Y10124800D02*
X12955700Y10159100D01*
X12948800D01*
X12917100Y10190800D01*
X12885500D01*
X12879200Y10184500D01*
X12697700D01*
X12684600Y10171400D01*
Y10157700D01*
X12668800Y10141900D01*
X12570300D01*
X12544580Y10167620D01*
X12419150D01*
X12397370Y10189400D01*
X12393400D01*
X12387300Y10195500D01*
G01X12909900Y10260100D02*
X12905900Y10264100D01*
X12845900D01*
X12812380Y10297620D01*
X12597900D01*
X12576730Y10276450D01*
X12525450D01*
X12495000Y10306900D01*
G01X12386000Y10377700D02*
X12396000Y10367700D01*
X12461690D01*
X12517890Y10423900D01*
X12961300D01*
X12990000Y10395200D01*
G01X12850500Y9935400D02*
X12825100Y9910000D01*
X12620000D01*
X12604390Y9894390D01*
X12550610D01*
X12525000Y9920000D01*
G01Y9880000D02*
X12590510Y9814490D01*
X12637640D01*
X12639650Y9816500D01*
X12667800D01*
G01X12910000Y10260000D02*
X12909900Y10260100D01*
G54D13*
X13174000Y9337600D03*
Y10232500D03*
G54D14*
X13407500Y9177500D03*
Y10392500D03*
X13794000Y9177500D03*
Y10392500D03*
G54D15*
X13415000Y9402500D03*
G54D16*
Y10167400D03*
G54D17*
G01X13012500Y10350000D02*
X12987590D01*
X12947590Y10390000D01*
X12910000D01*
G54D18*
G01X12017500Y10244700D02*
Y10283100D01*
G01Y10209100D02*
Y10244700D01*
G01X12565000Y10304800D02*
X12526740Y10343060D01*
X12480020D01*
X12458840Y10321880D01*
Y10296140D01*
X12436610Y10273910D01*
X12392940D01*
X12381770Y10285080D01*
Y10290760D01*
X12360590Y10311940D01*
X12354910D01*
X12308450Y10358400D01*
X12192740D01*
X12164980Y10386160D01*
X12085020D01*
X12029700Y10330840D01*
Y10295300D01*
X12017500Y10283100D01*
G01X12559700Y10207900D02*
X12528800D01*
G54D19*
G01X12559700D02*
X12608190D01*
X12614040Y10202050D01*
G01X12565000Y10304800D02*
X12653260Y10393060D01*
X12859330D01*
X12896050Y10356340D01*
X12897160D01*
X12937400Y10316100D01*
X13106210D01*
X13109110Y10319000D01*
X13264300D01*
X13298800Y10284500D01*
Y10169700D01*
X13407500Y10061000D01*
Y9880700D01*
X13396200Y9869400D01*
X13369400D01*
X13360000Y9860000D01*
M02*
