G04 ================== begin FILE IDENTIFICATION RECORD ==================*
G04 Layout Name:  180-10114-04.brd*
G04 Film Name:    signal2*
G04 File Format:  Gerber RS274X*
G04 File Origin:  Cadence Allegro 16.6-S039*
G04 Origin Date:  Wed Dec 17 11:03:58 2014*
G04 *
G04 Layer:  VIA CLASS/SIGNAL_2*
G04 Layer:  PIN/SIGNAL_2*
G04 Layer:  ETCH/SIGNAL_2*
G04 Layer:  BOARD GEOMETRY/OUTLINE*
G04 *
G04 Offset:    (0.0000 0.0000)*
G04 Mirror:    No*
G04 Mode:      Positive*
G04 Rotation:  0*
G04 FullContactRelief:  No*
G04 UndefLineWidth:     0.1100*
G04 ================== end FILE IDENTIFICATION RECORD ====================*
%FSLAX35Y35*MOMM*%
%IR0*IPPOS*OFA0.00000B0.00000*MIA0B0*SFA1.00000B1.00000*%
%ADD12C,.22*%
%ADD15C,.65*%
%ADD14O,2.X1.*%
%ADD13O,1.6X1.*%
%ADD10O,1.2X2.2*%
%ADD11O,1.2X1.9*%
%ADD16O,.65X.95*%
%ADD17C,.3*%
%ADD18C,.203*%
%ADD19C,.32*%
%ADD20C,.25*%
%ADD21C,.1016*%
%ADD22C,.127*%
%ADD23C,.11*%
%ADD24C,.0889*%
G75*
%LPD*%
G75*
G54D10*
X11875000Y9050000D03*
X12865000D03*
G54D20*
G01X12614040Y10202050D02*
Y10364040D01*
X12672800Y10422800D01*
X13179200D01*
X13285000Y10317000D01*
Y10187200D01*
X13221000Y10123200D01*
X13087700D01*
G01X12897400Y10162500D02*
Y10247600D01*
X12909900Y10260100D01*
G54D11*
X11875000Y9450000D03*
X12865000D03*
G54D21*
G01X12017500Y10363700D02*
X11968700Y10314900D01*
Y10294610D01*
X11968740Y10294570D01*
Y10272830D01*
X11968700Y10272790D01*
Y10246500D01*
X11966240Y10244040D01*
Y10239130D01*
X11950870Y10223760D01*
X11945960D01*
X11928600Y10206400D01*
Y9933960D01*
X11918440Y9923800D01*
X11910910D01*
X11910870Y9923760D01*
X11889130D01*
X11889090Y9923800D01*
X11886200D01*
X11860000Y9950000D01*
G01X11900000D02*
Y9978780D01*
X11900300Y9979080D01*
Y10119700D01*
X11880000Y10140000D01*
Y10326200D01*
X11842500Y10363700D01*
G01X12325000Y9920000D02*
X12327890D01*
X12354130Y9893760D01*
Y9885270D01*
X12280000Y9811140D01*
Y9700000D01*
X12324480Y9655520D01*
Y9571850D01*
X12305000Y9557170D01*
Y9520400D01*
G01X12405000Y9920000D02*
X12374450Y9889450D01*
Y9876850D01*
X12300320Y9802720D01*
Y9708420D01*
X12344800Y9663940D01*
Y9564600D01*
X12370000Y9539400D01*
Y9520400D01*
G01X13142530Y9610170D02*
X13164990D01*
X13180000Y9595160D01*
X13320590D01*
X13335430Y9610000D01*
X13360000D01*
G01X13140000Y9560000D02*
X13165160D01*
X13180000Y9574840D01*
X13320590D01*
X13335430Y9560000D01*
X13360000D01*
G01X13220000Y9760000D02*
X13250000Y9790000D01*
X13340000D01*
X13360000Y9810000D01*
G54D12*
X11760000Y9500000D03*
D03*
X11580000Y9600000D03*
D03*
X11620000D03*
D03*
X11770000Y9530000D03*
D03*
X11800000D03*
D03*
X11730000D03*
D03*
X11700000Y9560000D03*
D03*
X11680000Y9590000D03*
D03*
X11750000Y9750000D03*
D03*
X11720000Y9752200D03*
D03*
X11760000Y10000000D03*
D03*
X11690000D03*
D03*
X11722610Y10002500D03*
D03*
X11570000Y10150000D03*
D03*
X11610000D03*
D03*
X11689100Y10154400D03*
D03*
X11647500Y10152500D03*
D03*
X11660000Y10190000D03*
D03*
X11700000D03*
D03*
X11720000Y10220000D03*
D03*
X11790000Y10020000D03*
D03*
X11591270Y10052500D03*
D03*
Y10102500D03*
D03*
X11987500Y9640000D03*
X11998700Y9758300D03*
X12024400D03*
X11837630Y9737630D03*
D03*
X11810000Y9744130D03*
D03*
X11905100Y9676900D03*
D03*
X12016800Y9898000D03*
X11900000Y9870000D03*
D03*
X11860000Y9950000D03*
X11900000D03*
X11980000Y9991100D03*
X11906240Y10250900D03*
D03*
X11940000Y10250000D03*
D03*
X12017500Y10244700D03*
Y10209100D03*
D03*
Y10244700D03*
X11983200Y10172400D03*
X12017500Y10363700D03*
X11842500D03*
X11940000Y10390000D03*
D03*
Y10360000D03*
D03*
Y10320000D03*
D03*
X11975140Y10358460D03*
D03*
X11942500Y10283700D03*
D03*
X12017500Y10283100D03*
D03*
X12106940Y9510230D03*
D03*
X12124400Y9479800D03*
D03*
X12060000Y9722010D03*
X12230000Y9530000D03*
X12100000Y9660000D03*
X12100010D03*
X12200000Y9740000D03*
X12233200Y9646200D03*
D03*
X12282700Y9638100D03*
D03*
X12223800Y9985200D03*
X12140000Y9870000D03*
D03*
X12209400Y9885800D03*
D03*
X12060000Y9830000D03*
X12271900Y10188900D03*
X12258400Y10252100D03*
X12150000Y10210000D03*
D03*
X12134900Y10250000D03*
D03*
X12100000Y10210000D03*
D03*
Y10250000D03*
D03*
X12280000Y10312010D03*
D03*
X12212600Y10350000D03*
X12280000Y10367990D03*
X12150000Y10350000D03*
D03*
X12134390Y10319490D03*
D03*
X12147500Y10283700D03*
D03*
X12100000Y10350000D03*
D03*
X12100510Y10319490D03*
D03*
X12100000Y10290000D03*
D03*
X12305000Y9520400D03*
X12370000D03*
X12430000Y9510000D03*
X12401600Y9651700D03*
D03*
X12525000Y9800000D03*
D03*
X12445000Y9960000D03*
X12405000D03*
X12485000Y9840000D03*
X12365000Y9960000D03*
D03*
Y9800000D03*
D03*
X12445000Y9920000D03*
Y9880000D03*
X12485000Y9920000D03*
D03*
Y9800000D03*
D03*
X12365000Y9920000D03*
X12325000D03*
X12405000D03*
X12445000Y9840000D03*
X12307400Y10179300D03*
X12321200Y10147900D03*
D03*
X12425000Y10197990D03*
D03*
Y10142010D03*
X12490000D03*
X12528800Y10207900D03*
X12421410Y10312010D03*
D03*
X12345610Y10275200D03*
D03*
X12410000Y10400000D03*
X12350000Y10400380D03*
X12530000Y10395200D03*
X12386000Y10377700D03*
X12350000Y10367990D03*
D03*
X12457300Y10400500D03*
X12595000Y9515000D03*
X12758080Y9745690D03*
X12612300Y9712700D03*
X12680000Y9530000D03*
X12565000Y9920000D03*
X12754500Y9941700D03*
D03*
X12643400Y9940500D03*
D03*
X12683400D03*
D03*
X12712000Y9940000D03*
D03*
X12631800Y9880000D03*
D03*
X12667800Y9816500D03*
D03*
X12614800Y9840100D03*
X12535800Y10060000D03*
D03*
X12746300Y10237900D03*
D03*
X12580500Y10168000D03*
X12650000Y10110000D03*
D03*
X12750000Y10130000D03*
D03*
X12723500Y10154900D03*
D03*
X12614040Y10202050D03*
X12559700Y10207900D03*
X12600900Y10025600D03*
X12690000Y10359400D03*
X12709900Y10324700D03*
X12650000Y10270000D03*
D03*
X12990000Y9390000D03*
D03*
X12857420Y9692680D03*
D03*
X12790010Y9700000D03*
D03*
X12794800Y9938000D03*
X12850500Y9935400D03*
X12995300Y9907500D03*
X12940000Y9890000D03*
D03*
Y9940000D03*
X12854200Y9840000D03*
X12897400Y10162500D03*
X12990000Y10215200D03*
X12802010Y10230000D03*
D03*
X12909900Y10260100D03*
X12860000Y10302010D03*
D03*
X12947890Y10272110D03*
X12840000Y10357990D03*
X12792100Y10264400D03*
X12877400Y10355900D03*
X12790000Y10357990D03*
X12984600Y10264900D03*
X13170000Y9170000D03*
D03*
X13039000Y9644000D03*
X13220000Y9760000D03*
X13235800Y9654800D03*
D03*
X13201000Y9654400D03*
D03*
X13142530Y9610170D03*
X13140000Y9560000D03*
X13097400Y9665100D03*
X13046400Y9945700D03*
X13040000Y9840000D03*
X13233840Y9909150D03*
D03*
X13204400Y9904600D03*
D03*
X13148100Y9826700D03*
X13087700Y10123200D03*
X13313000Y9028800D03*
X13372600Y8931600D03*
X13370000Y9660000D03*
D03*
X13340000D03*
D03*
X13360000Y9610000D03*
Y9560000D03*
Y9810000D03*
X13373840Y9909150D03*
D03*
X13344400Y9904600D03*
D03*
X13291900Y10062700D03*
X13770000Y9050000D03*
D03*
G54D22*
G01X13372600Y8931600D02*
X13230600D01*
X12985400Y9176800D01*
Y9344600D01*
X12960000Y9370000D01*
Y9513400D01*
X12896700Y9576700D01*
X12756700D01*
X12710540Y9530540D01*
Y9530000D01*
X12680000D01*
G01X13097400Y9665100D02*
X13095390Y9663090D01*
Y9476800D01*
X13070000Y9451410D01*
Y9226400D01*
X13267600Y9028800D01*
X13313000D01*
G54D13*
X13174000Y9337600D03*
Y10232500D03*
G54D23*
G01X11481270Y10195000D02*
X11607340D01*
X11636270D01*
Y10210790D01*
Y10317500D01*
X11764360D01*
X11764400Y10317460D01*
Y10430000D01*
X11814400Y10480000D01*
X13875500D01*
X13925500Y10430000D01*
Y10260000D01*
X13480000D01*
Y9310000D01*
X13925500D01*
Y9105000D01*
X13675500Y8855000D01*
X12765000D01*
Y9405000D01*
X11975000D01*
Y8855000D01*
X11814400D01*
X11764400Y8905000D01*
Y9437500D01*
X11636270D01*
Y9560000D01*
X11481270D01*
Y10195000D01*
G54D14*
X13407500Y9177500D03*
Y10392500D03*
X13794000Y9177500D03*
Y10392500D03*
G54D24*
G01X12016800Y9898000D02*
X11958100Y9839300D01*
Y9669400D01*
X11987500Y9640000D01*
G01X11980000Y9991100D02*
Y10169200D01*
X11983200Y10172400D01*
G01X12430000Y9510000D02*
X12413720Y9493720D01*
X12286280D01*
X12270000Y9510000D01*
Y9560090D01*
X12108080Y9722010D01*
X12060000D01*
G01X12200000Y9740000D02*
X12150000D01*
X12060000Y9830000D01*
G01X12212600Y10350000D02*
Y10220380D01*
X12210730Y10218510D01*
Y10042680D01*
X12223800Y10029610D01*
Y9985200D01*
G01X12271900Y10188900D02*
X12310800Y10227800D01*
Y10365010D01*
X12346170Y10400380D01*
X12350000D01*
G01X12405000Y9960000D02*
X12246290Y10118710D01*
Y10203770D01*
X12284010Y10241490D01*
Y10262710D01*
X12254390Y10292330D01*
Y10342380D01*
X12280000Y10367990D01*
G01X12365000Y9920000D02*
X12228510Y10056490D01*
Y10211140D01*
X12258400Y10241030D01*
Y10252100D01*
G01X12410000Y10400000D02*
X12411610Y10398390D01*
Y10339850D01*
X12395800Y10324040D01*
Y10009200D01*
X12445000Y9960000D01*
G01X12485000Y9840000D02*
X12536850Y9891850D01*
Y10022920D01*
X12561410Y10047480D01*
Y10070610D01*
X12560590Y10071430D01*
Y10148090D01*
X12580500Y10168000D01*
G01X12425000Y10142010D02*
X12470610Y10096400D01*
Y9945610D01*
X12445000Y9920000D01*
G01X12490000Y10142010D02*
Y10050000D01*
X12510610Y10029390D01*
Y9909390D01*
X12481220Y9880000D01*
X12445000D01*
G01X12854200Y9840000D02*
X12802500D01*
X12728300Y9765800D01*
X12482980D01*
X12445000Y9803780D01*
Y9840000D01*
G01X12307400Y10179300D02*
X12334390Y10206290D01*
Y10230200D01*
X12353780Y10249590D01*
X12356220D01*
X12371220Y10264590D01*
Y10267030D01*
X12376100Y10271910D01*
Y10339650D01*
X12386000Y10349550D01*
Y10377700D01*
G01X12470000Y10270000D02*
X12460000Y10280000D01*
Y10369650D01*
X12457300Y10372350D01*
G01X12758080Y9745690D02*
X12812390Y9800000D01*
X12850420D01*
X12879810Y9829390D01*
Y9869870D01*
X12824890Y9924790D01*
Y9946010D01*
X12840000Y9961120D01*
Y10259990D01*
X12820000Y10279990D01*
Y10327990D01*
X12790000Y10357990D01*
G01X12612300Y9712700D02*
X12764790D01*
X12780000Y9727910D01*
X12803480D01*
X12897590Y9822020D01*
Y9897590D01*
X12940000Y9940000D01*
G01X12565000Y9920000D02*
Y10025920D01*
X12615800Y10076720D01*
Y10145800D01*
X12681500Y10211500D01*
Y10296300D01*
X12709900Y10324700D01*
G01X12600900Y10025600D02*
Y9854000D01*
X12614800Y9840100D01*
G01X12580500Y10168000D02*
X12588040Y10175540D01*
Y10218390D01*
X12588200Y10218550D01*
Y10337000D01*
X12530000Y10395200D01*
G01X12690000Y10359400D02*
X12720600D01*
X12735200Y10344800D01*
Y10335290D01*
X12736070Y10334420D01*
Y10304300D01*
X12720000Y10288230D01*
Y10220000D01*
X12802400Y10137600D01*
Y9945600D01*
X12794800Y9938000D01*
G01X13046400Y9945700D02*
X12990000Y10002100D01*
Y10215200D01*
G01X12947890Y10272110D02*
X12946610Y10270830D01*
Y9969610D01*
X12965800Y9950420D01*
Y9886050D01*
X13011850Y9840000D01*
X13040000D01*
G01X12850500Y9935400D02*
Y9946470D01*
X12857780Y9953750D01*
Y10257780D01*
X12890000Y10290000D01*
Y10324350D01*
X12877400Y10336950D01*
Y10355900D01*
G01X12995300Y9907500D02*
Y9954700D01*
X12964390Y9985610D01*
Y10244690D01*
X12984600Y10264900D01*
G01X13148100Y9826700D02*
X13151000Y9829600D01*
X13288200D01*
X13315500Y9856900D01*
Y10007100D01*
X13291900Y10030700D01*
Y10062700D01*
G54D15*
X13415000Y9402500D03*
G54D16*
Y10167400D03*
G54D17*
G01X12457300Y10400500D02*
X12456160Y10401640D01*
Y10410000D01*
X12426160Y10440000D01*
X12110600D01*
X12053660Y10383060D01*
Y9892760D01*
X12052960Y9892060D01*
Y9874100D01*
X12013000Y9834140D01*
Y9772600D01*
X11998700Y9758300D01*
G01X12100010Y9660000D02*
X12100000D01*
G01D02*
X12230000Y9530000D01*
G01X12528800Y10207900D02*
X12524600Y10203700D01*
X12486000D01*
X12470000Y10219700D01*
Y10266700D01*
G01X12528800Y10207900D02*
X12559700D01*
G01X12595000Y9515000D02*
X12691200Y9611200D01*
X13006200D01*
X13030000Y9635000D01*
G01X13770000Y9050000D02*
X13731300D01*
X13721300Y9060000D01*
X13410000D01*
X13336500Y8986500D01*
X13246000D01*
X13030000Y9202500D01*
Y9635000D01*
G01D02*
X13039000Y9644000D01*
G54D18*
G01X12840000Y10357990D02*
Y10361960D01*
X12810700Y10391260D01*
X12778990D01*
X12758690Y10370960D01*
Y10345020D01*
X12792100Y10311610D01*
Y10264400D01*
G54D19*
G01X12024400Y9758300D02*
X11998700D01*
G01X12470000Y10266700D02*
Y10270000D01*
G01X12457300Y10372350D02*
Y10360800D01*
X12470000Y10348100D01*
Y10270000D01*
G01X12457300Y10400500D02*
Y10372350D01*
M02*
