G04 ================== begin FILE IDENTIFICATION RECORD ==================*
G04 Layout Name:  180-10114-04.brd*
G04 Film Name:    top_mask*
G04 File Format:  Gerber RS274X*
G04 File Origin:  Cadence Allegro 16.6-S039*
G04 Origin Date:  Wed Dec 17 11:03:58 2014*
G04 *
G04 Layer:  VIA CLASS/SOLDERMASK_TOP*
G04 Layer:  PIN/SOLDERMASK_TOP*
G04 Layer:  PACKAGE GEOMETRY/SOLDERMASK_TOP*
G04 Layer:  BOARD GEOMETRY/OUTLINE*
G04 Layer:  BOARD GEOMETRY/SOLDERMASK_TOP*
G04 *
G04 Offset:    (0.0000 0.0000)*
G04 Mirror:    No*
G04 Mode:      Positive*
G04 Rotation:  0*
G04 FullContactRelief:  No*
G04 UndefLineWidth:     0.1016*
G04 ================== end FILE IDENTIFICATION RECORD ====================*
%FSLAX35Y35*MOMM*%
%IR0*IPPOS*OFA0.00000B0.00000*MIA0B0*SFA1.00000B1.00000*%
%AMMACRO27*
4,1,9,.25,.105,
.32,.175,
.37,.225,
-.37,.225,
-.37,.175,
-.37,-.175,
-.37,-.225,
-.08,-.225,
-.03,-.175,
.25,.105,
0.0*
%
%ADD27MACRO27*%
%AMMACRO26*
4,1,9,-.02,.225,
-.3,.225,
-.3,.175,
-.3,-.175,
-.3,-.225,
.25,-.225,
.3,-.225,
.3,-.075,
0.0,.225,
-.02,.225,
0.0*
%
%ADD26MACRO26*%
%ADD16R,1.1X.9*%
%ADD18R,.55X1.2*%
%ADD35O,.75X1.05*%
%ADD29C,.4*%
%ADD15C,.35*%
%AMMACRO28*
21,1,.32,.32,0.0,0.0,45.*%
%ADD28MACRO28*%
%ADD34C,.85*%
%ADD10R,1.5254X.4016*%
%AMMACRO36*
21,1,.55,.55,0.0,0.0,45.*%
%ADD36MACRO36*%
%ADD12O,1.3X2.*%
%ADD11O,1.3X2.3*%
%AMMACRO24*
4,1,8,.3,-.185,
.3,.185,
.3,.225,
-.02,.225,
-.3,-.055,
-.3,-.185,
-.3,-.225,
.3,-.225,
.3,-.185,
0.0*
%
%ADD24MACRO24*%
%ADD33O,2.15X1.15*%
%ADD22R,.4X.4*%
%ADD19R,.4X.4*%
%ADD17R,1.1X2.55*%
%AMMACRO25*
4,1,9,.02,-.225,
.3,-.225,
.3,-.175,
.3,.175,
.3,.225,
-.25,.225,
-.3,.225,
-.3,.075,
0.0,-.225,
.02,-.225,
0.0*
%
%ADD25MACRO25*%
%ADD21R,.32X.4*%
%ADD32O,1.75X1.15*%
%ADD20R,.5X.45*%
%ADD14R,.5X.8*%
%ADD31R,.7X.45*%
%ADD13R,.7X.7501*%
%ADD23R,.75X.75*%
%ADD30R,.475X.575*%
%ADD37C,.1016*%
G75*
%LPD*%
G75*
G54D10*
X11591270Y9602500D03*
Y9652500D03*
Y9702500D03*
Y9752500D03*
Y9802500D03*
Y9852500D03*
Y9902500D03*
Y9952500D03*
Y10002500D03*
Y10052500D03*
Y10102500D03*
Y10152500D03*
G54D20*
X12497500Y10350000D03*
X12552500D03*
X12957500Y10170000D03*
X13012500D03*
X12957500Y10350000D03*
X13012500D03*
G54D11*
X11875000Y9050000D03*
X12865000D03*
G54D30*
X13140000Y9447500D03*
Y9660000D03*
Y9910000D03*
Y10122500D03*
G54D21*
X12495000Y10395200D03*
X12530000D03*
Y10304800D03*
X12495000D03*
X12565000Y10395200D03*
Y10304800D03*
X12955000Y10215200D03*
X12990000D03*
Y10124800D03*
X12955000D03*
Y10395200D03*
X12990000D03*
Y10304800D03*
X12955000D03*
X13025000Y10215200D03*
Y10124800D03*
Y10395200D03*
Y10304800D03*
G54D12*
X11875000Y9450000D03*
X12865000D03*
G54D13*
X11999990Y9660000D03*
X12100010D03*
X12790010Y9700000D03*
X12689990D03*
X13310000Y9437500D03*
Y10132500D03*
G54D31*
X13220000Y9510000D03*
Y9560000D03*
Y9610000D03*
Y9660000D03*
Y9710000D03*
Y9760000D03*
Y9810000D03*
Y9860000D03*
Y9910000D03*
Y9960000D03*
Y10010000D03*
Y10060000D03*
X13360000Y9510000D03*
Y9560000D03*
Y9610000D03*
Y9660000D03*
Y9710000D03*
Y9760000D03*
Y9810000D03*
Y9860000D03*
Y9910000D03*
Y9960000D03*
Y10010000D03*
Y10060000D03*
G54D22*
X12682000Y9800000D03*
X12738000D03*
X12682000Y9870000D03*
X12738000D03*
X12802010Y10230000D03*
X12857990D03*
X12962010Y10050000D03*
X13017990D03*
G54D23*
X12710000Y10030000D03*
X12740000Y10140000D03*
X12810000Y10030000D03*
X12840000Y10140000D03*
G54D14*
X11829400Y9662100D03*
X11899400D03*
G54D32*
X13174000Y9337600D03*
Y10232500D03*
G54D33*
X13407500Y9177500D03*
Y10392500D03*
X13794000Y9177500D03*
Y10392500D03*
G54D24*
X12991200Y9684000D03*
G54D15*
X11820000Y9950000D03*
X11860000D03*
X11900000D03*
X11820000Y9910000D03*
X11860000D03*
X11900000D03*
X11820000Y9870000D03*
X11860000D03*
X11900000D03*
X11820000Y9830000D03*
X11860000D03*
X11900000D03*
X12060000Y9950000D03*
X12100000D03*
X12140000D03*
X12060000Y9910000D03*
X12100000D03*
X12140000D03*
X12060000Y9870000D03*
X12100000D03*
X12140000D03*
X12060000Y9830000D03*
X12100000D03*
X12140000D03*
X12525000Y9760000D03*
X12485000D03*
X12445000D03*
X12405000D03*
X12365000D03*
X12325000D03*
X12525000Y9800000D03*
X12485000D03*
X12445000D03*
X12405000D03*
X12365000D03*
X12325000D03*
X12525000Y9840000D03*
X12485000D03*
X12445000D03*
X12405000D03*
X12365000D03*
X12325000D03*
X12525000Y9880000D03*
X12485000D03*
X12445000D03*
X12405000D03*
X12365000D03*
X12325000D03*
X12525000Y9920000D03*
X12485000D03*
X12445000D03*
X12405000D03*
X12365000D03*
X12325000D03*
X12525000Y9960000D03*
X12485000D03*
X12445000D03*
X12405000D03*
X12365000D03*
X12325000D03*
X12525000Y10000000D03*
X12485000D03*
X12445000D03*
X12405000D03*
X12365000D03*
X12325000D03*
X12565000Y9760000D03*
Y9800000D03*
Y9840000D03*
Y9880000D03*
Y9920000D03*
Y9960000D03*
Y10000000D03*
G54D25*
X12991200Y9751000D03*
G54D34*
X13415000Y9402500D03*
G54D16*
X11942500Y10096300D03*
X12117500D03*
G54D17*
X11942500Y10283700D03*
X12117500D03*
G54D35*
X13415000Y10167400D03*
G54D26*
X12902200Y9684000D03*
G54D36*
X13650000Y8939900D03*
Y9060100D03*
X13589900Y9000000D03*
X13710100D03*
G54D18*
X12240000Y9500000D03*
X12500000D03*
X12435000D03*
X12370000D03*
X12305000D03*
G54D27*
X12909210Y9751000D03*
G54D37*
G01X9119190Y7520800D02*
X9166940Y7481010D01*
X9220660Y7457140D01*
X9268420D01*
X9316170Y7481010D01*
X9351990Y7520800D01*
X9369890Y7576520D01*
X9357950Y7632220D01*
X9328100Y7679980D01*
X9274380Y7711820D01*
X9202760Y7727740D01*
X9160980Y7759560D01*
X9143060Y7815280D01*
X9155010Y7870990D01*
X9184850Y7910770D01*
X9226630Y7934660D01*
X9268420D01*
X9310200Y7918750D01*
X9346020Y7878950D01*
G01X9722050Y7457140D02*
X9674300Y7465100D01*
X9632530Y7496920D01*
X9596710Y7544680D01*
X9572830Y7600390D01*
X9560890Y7664060D01*
Y7727740D01*
X9572830Y7791410D01*
X9596710Y7847120D01*
X9632530Y7894860D01*
X9674300Y7926700D01*
X9722050Y7934660D01*
X9769810Y7926700D01*
X9811590Y7894860D01*
X9847410Y7847120D01*
X9871290Y7791410D01*
X9883230Y7727740D01*
Y7664060D01*
X9871290Y7600390D01*
X9847410Y7544680D01*
X9811590Y7496920D01*
X9769810Y7465100D01*
X9722050Y7457140D01*
G01X10080200Y7934660D02*
Y7457140D01*
X10318960D01*
G01X10545780D02*
Y7934660D01*
X10665160D01*
X10712910Y7910770D01*
X10748730Y7878950D01*
X10778580Y7831200D01*
X10802450Y7775480D01*
X10808420Y7695890D01*
X10802450Y7616310D01*
X10778580Y7560600D01*
X10748730Y7512840D01*
X10712910Y7481010D01*
X10665160Y7457140D01*
X10545780D01*
G01X11274000D02*
X11035240D01*
Y7934660D01*
X11274000D01*
G01X11178500Y7703860D02*
X11035240D01*
G01X11512760Y7457140D02*
Y7934660D01*
X11661980D01*
X11709740Y7910770D01*
X11739590Y7878950D01*
X11751520Y7815280D01*
X11739590Y7751610D01*
X11703770Y7711820D01*
X11661980Y7687940D01*
X11512760D01*
G01X11661980D02*
X11751520Y7457140D01*
G01X11954460D02*
Y7934660D01*
X12109650Y7536720D01*
X12264860Y7934660D01*
Y7457140D01*
G01X12437950D02*
X12587170Y7934660D01*
X12736410Y7457140D01*
G01X12682680Y7624270D02*
X12491670D01*
G01X12939350Y7520800D02*
X12987100Y7481010D01*
X13040820Y7457140D01*
X13088580D01*
X13136330Y7481010D01*
X13172150Y7520800D01*
X13190050Y7576520D01*
X13178110Y7632220D01*
X13148260Y7679980D01*
X13094540Y7711820D01*
X13022920Y7727740D01*
X12981140Y7759560D01*
X12963220Y7815280D01*
X12975170Y7870990D01*
X13005010Y7910770D01*
X13046790Y7934660D01*
X13088580D01*
X13130360Y7918750D01*
X13166180Y7878950D01*
G01X13410900Y7457140D02*
Y7934660D01*
G01X13637720D02*
X13410900Y7640180D01*
G01X13673540Y7457140D02*
X13512380Y7775480D01*
G01X14497250Y7934660D02*
Y7457140D01*
G01X14359980Y7934660D02*
X14634540D01*
G01X14974770Y7457140D02*
X14927020Y7465100D01*
X14885250Y7496920D01*
X14849430Y7544680D01*
X14825550Y7600390D01*
X14813610Y7664060D01*
Y7727740D01*
X14825550Y7791410D01*
X14849430Y7847120D01*
X14885250Y7894860D01*
X14927020Y7926700D01*
X14974770Y7934660D01*
X15022530Y7926700D01*
X15064310Y7894860D01*
X15100130Y7847120D01*
X15124010Y7791410D01*
X15135950Y7727740D01*
Y7664060D01*
X15124010Y7600390D01*
X15100130Y7544680D01*
X15064310Y7496920D01*
X15022530Y7465100D01*
X14974770Y7457140D01*
G01X15332920D02*
Y7934660D01*
X15476180D01*
X15523930Y7910770D01*
X15559750Y7855080D01*
X15571680Y7791410D01*
X15559750Y7727740D01*
X15529900Y7679980D01*
X15476180Y7656090D01*
X15332920D01*
G01X11481270Y10195000D02*
X11607340D01*
X11636270D01*
Y10210790D01*
Y10317500D01*
X11764360D01*
X11764400Y10317460D01*
Y10430000D01*
X11814400Y10480000D01*
X13875500D01*
X13925500Y10430000D01*
Y10260000D01*
X13480000D01*
Y9310000D01*
X13925500D01*
Y9105000D01*
X13675500Y8855000D01*
X12765000D01*
Y9405000D01*
X11975000D01*
Y8855000D01*
X11814400D01*
X11764400Y8905000D01*
Y9437500D01*
X11636270D01*
Y9560000D01*
X11481270D01*
Y10195000D01*
G01X14281590Y6093500D02*
Y6489740D01*
X14222150Y6410500D01*
G01Y6093500D02*
X14341020D01*
G01X14736250D02*
X14770920Y6100100D01*
X14810540Y6119910D01*
X14835310Y6152920D01*
X14845220Y6199170D01*
X14835310Y6245380D01*
X14805590Y6285010D01*
X14761010Y6304830D01*
X14711490D01*
X14681770Y6318040D01*
X14657000Y6351050D01*
X14647090Y6397280D01*
X14661960Y6443510D01*
X14696620Y6476530D01*
X14736250Y6489740D01*
X14775870Y6476530D01*
X14810540Y6443510D01*
X14825410Y6397280D01*
X14815490Y6351050D01*
X14790730Y6318040D01*
X14761010Y6304830D01*
X14711490D01*
X14666910Y6285010D01*
X14637190Y6245380D01*
X14627280Y6199170D01*
X14637190Y6152920D01*
X14661960Y6119910D01*
X14701580Y6100100D01*
X14736250Y6093500D01*
G01X15190910Y6489740D02*
X15151280Y6476530D01*
X15121570Y6443510D01*
X15101750Y6403890D01*
X15086900Y6351050D01*
X15081940Y6291610D01*
X15086900Y6232180D01*
X15101750Y6179350D01*
X15121570Y6139720D01*
X15151280Y6106710D01*
X15190910Y6093500D01*
X15230530Y6106710D01*
X15260250Y6139720D01*
X15280070Y6179350D01*
X15294920Y6232180D01*
X15299880Y6291610D01*
X15294920Y6351050D01*
X15280070Y6403890D01*
X15260250Y6443510D01*
X15230530Y6476530D01*
X15190910Y6489740D01*
G01X15581180Y6225580D02*
X15709960D01*
G54D19*
X12280000Y10367990D03*
Y10312010D03*
X12352900Y10122300D03*
Y10178300D03*
X12490000Y10197990D03*
Y10142010D03*
X12425000Y10197990D03*
Y10142010D03*
X12420000Y10312010D03*
Y10367990D03*
X12350000D03*
Y10312010D03*
X12650000Y10112000D03*
Y10168000D03*
X12580000Y10167990D03*
Y10112010D03*
X12640000Y10302010D03*
Y10357990D03*
X12720000Y10302010D03*
Y10357990D03*
X12860000Y10302010D03*
Y10357990D03*
X12790000D03*
Y10302010D03*
X13066300Y9717700D03*
Y9773700D03*
G54D28*
X12946700Y9717500D03*
G54D29*
X12990000Y9940000D03*
Y9840000D03*
X12940000Y9940000D03*
Y9890000D03*
Y9840000D03*
X13040000Y9940000D03*
Y9890000D03*
Y9840000D03*
M02*
